<svg width="328" height="150" viewBox="0 0 328 150" fill="none" xmlns="http://www.w3.org/2000/svg">
<rect width="328" height="150" rx="6" fill="#1D1D1D"/>
<mask id="mask0_6393_14796" style="mask-type:alpha" maskUnits="userSpaceOnUse" x="0" y="0" width="328" height="150">
<rect width="328" height="150" rx="6" fill="#1D1D1D"/>
</mask>
<g mask="url(#mask0_6393_14796)">
</g>
<circle cx="144.5" cy="77.5" r="42.5" fill="#CEFD1E" fill-opacity="0.04"/>
<path d="M107.449 68H106.449V69H107.449V68ZM107.449 31.392H108.449V29.6033L106.925 30.5401L107.449 31.392ZM98.8088 36.704H97.8088V38.4927L99.3325 37.5559L98.8088 36.704ZM98.8088 27.104L98.2943 26.2465L97.8088 26.5378V27.104H98.8088ZM107.449 21.92V20.92H107.172L106.934 21.0625L107.449 21.92ZM116.345 21.92H117.345V20.92H116.345V21.92ZM116.345 68V69H117.345V68H116.345ZM108.449 68V31.392H106.449V68H108.449ZM106.925 30.5401L98.285 35.8521L99.3325 37.5559L107.972 32.2439L106.925 30.5401ZM99.8088 36.704V27.104H97.8088V36.704H99.8088ZM99.3232 27.9615L107.963 22.7775L106.934 21.0625L98.2943 26.2465L99.3232 27.9615ZM107.449 22.92H116.345V20.92H107.449V22.92ZM115.345 21.92V68H117.345V21.92H115.345ZM116.345 67H107.449V69H116.345V67Z" fill="#CEFD1E" fill-opacity="0.15"/>
<path d="M126.429 78.3767C128.352 78.3742 130.216 77.7113 131.709 76.4989C133.201 75.2866 134.232 73.5984 134.629 71.7167H141.79C142.176 78.8233 144.982 85.5838 149.741 90.8755L137.281 103.335C136.959 103.657 136.778 104.094 136.778 104.55C136.778 105.006 136.959 105.443 137.281 105.765C137.603 106.088 138.041 106.269 138.496 106.269C138.952 106.269 139.389 106.088 139.712 105.765L152.172 93.3061C157.464 98.0649 164.224 100.87 171.33 101.257V108.416C169.301 108.842 167.502 110.004 166.281 111.678C165.059 113.352 164.501 115.419 164.715 117.481C164.928 119.542 165.898 121.452 167.438 122.84C168.977 124.227 170.976 124.996 173.049 124.996C175.121 124.996 177.12 124.227 178.659 122.84C180.199 121.452 181.169 119.542 181.383 117.481C181.596 115.419 181.038 113.352 179.816 111.678C178.595 110.004 176.796 108.842 174.767 108.416V101.257C181.874 100.87 188.634 98.0646 193.926 93.3055L206.652 106.032C206.975 106.351 207.411 106.529 207.865 106.528C208.319 106.527 208.754 106.346 209.075 106.025C209.397 105.704 209.578 105.268 209.579 104.814C209.58 104.36 209.402 103.924 209.083 103.601L196.357 90.8748C201.115 85.5832 203.921 78.8229 204.307 71.7167H211.467C211.892 73.7452 213.054 75.5442 214.728 76.766C216.402 77.9878 218.47 78.5457 220.531 78.332C222.593 78.1183 224.502 77.1481 225.89 75.6088C227.278 74.0696 228.046 72.0706 228.046 69.998C228.046 67.9254 227.278 65.9264 225.89 64.3872C224.502 62.8479 222.593 61.8777 220.531 61.664C218.47 61.4503 216.402 62.0083 214.728 63.2301C213.054 64.4519 211.892 66.2508 211.467 68.2793H204.307C203.921 61.1728 201.115 54.4123 196.356 49.1206L208.862 36.6149C209.173 36.2905 209.346 35.8568 209.341 35.4069C209.337 34.957 209.156 34.5267 208.838 34.2085C208.52 33.8904 208.09 33.7097 207.64 33.7052C207.19 33.7007 206.756 33.8729 206.432 34.1847L193.926 46.6903C188.634 41.9313 181.874 39.1256 174.767 38.7392V31.5791C176.796 31.154 178.595 29.9921 179.816 28.3179C181.038 26.6438 181.596 24.5762 181.383 22.5147C181.169 20.4532 180.199 18.544 178.659 17.1561C177.12 15.7682 175.121 15 173.049 15C170.976 15 168.977 15.7682 167.438 17.1561C165.898 18.544 164.928 20.4532 164.715 22.5147C164.501 24.5762 165.059 26.6438 166.281 28.3179C167.502 29.9921 169.301 31.154 171.33 31.5791V38.7392C164.223 39.1255 157.463 41.9312 152.171 46.6903L139.489 34.0076C139.166 33.6853 138.729 33.5042 138.273 33.5042C137.818 33.5042 137.38 33.6853 137.058 34.0076C136.736 34.33 136.555 34.7671 136.555 35.223C136.555 35.6788 136.736 36.116 137.058 36.4383L149.741 49.1206C144.982 54.4124 142.176 61.1729 141.79 68.2793H134.629C134.305 66.7295 133.547 65.3034 132.445 64.1664C131.343 63.0294 129.941 62.228 128.402 61.8551C126.863 61.4821 125.25 61.5529 123.75 62.0592C122.249 62.5656 120.923 63.4867 119.925 64.7159C118.927 65.9451 118.297 67.432 118.109 69.0043C117.922 70.5766 118.183 72.17 118.864 73.5997C119.545 75.0294 120.617 76.237 121.955 77.0824C123.294 77.9279 124.845 78.3766 126.429 78.3767ZM177.99 116.618C177.99 117.595 177.7 118.55 177.157 119.363C176.614 120.175 175.842 120.809 174.939 121.183C174.037 121.557 173.043 121.655 172.085 121.464C171.126 121.273 170.246 120.803 169.555 120.112C168.863 119.421 168.393 118.54 168.202 117.582C168.012 116.623 168.109 115.63 168.483 114.727C168.857 113.824 169.491 113.052 170.303 112.509C171.116 111.966 172.071 111.676 173.049 111.676C174.359 111.678 175.615 112.199 176.541 113.125C177.467 114.052 177.988 115.308 177.99 116.618ZM219.668 65.0568C220.645 65.0568 221.601 65.3466 222.413 65.8895C223.226 66.4325 223.859 67.2042 224.233 68.1071C224.607 69.01 224.705 70.0035 224.514 70.962C224.324 71.9205 223.853 72.801 223.162 73.492C222.471 74.1831 221.591 74.6537 220.632 74.8443C219.674 75.035 218.68 74.9371 217.777 74.5631C216.874 74.1891 216.103 73.5558 215.56 72.7432C215.017 71.9306 214.727 70.9753 214.727 69.998C214.728 68.688 215.249 67.432 216.176 66.5057C217.102 65.5793 218.358 65.0582 219.668 65.0568ZM168.107 23.3784C168.107 22.4011 168.397 21.4457 168.94 20.6331C169.483 19.8206 170.255 19.1872 171.158 18.8132C172.06 18.4392 173.054 18.3414 174.013 18.5321C174.971 18.7227 175.851 19.1933 176.543 19.8844C177.234 20.5754 177.704 21.4559 177.895 22.4144C178.085 23.3729 177.988 24.3664 177.614 25.2693C177.24 26.1722 176.606 26.9439 175.794 27.4869C174.981 28.0298 174.026 28.3196 173.049 28.3196C171.738 28.3182 170.482 27.7971 169.556 26.8708C168.63 25.9444 168.109 24.6884 168.107 23.3784ZM173.049 42.1283C178.561 42.1283 183.949 43.7628 188.532 46.8252C193.115 49.8875 196.687 54.2402 198.797 59.3327C200.906 64.4253 201.458 70.0289 200.383 75.4351C199.307 80.8413 196.653 85.8072 192.755 89.7049C188.858 93.6025 183.892 96.2569 178.486 97.3322C173.079 98.4076 167.476 97.8557 162.383 95.7463C157.291 93.6369 152.938 90.0648 149.876 85.4816C146.813 80.8985 145.179 75.5101 145.179 69.998C145.187 62.6091 148.126 55.5252 153.351 50.3004C158.576 45.0757 165.66 42.1367 173.049 42.1283ZM126.429 65.0568C127.406 65.0568 128.362 65.3466 129.174 65.8895C129.987 66.4325 130.62 67.2042 130.994 68.1071C131.368 69.01 131.466 70.0035 131.275 70.962C131.085 71.9205 130.614 72.801 129.923 73.492C129.232 74.1831 128.351 74.6537 127.393 74.8443C126.434 75.035 125.441 74.9371 124.538 74.5631C123.635 74.1891 122.863 73.5558 122.32 72.7432C121.777 71.9306 121.488 70.9753 121.488 69.998C121.489 68.688 122.01 67.432 122.937 66.5057C123.863 65.5793 125.119 65.0582 126.429 65.0568ZM156.285 87.8888C156.284 88.1145 156.328 88.3381 156.414 88.5467C156.5 88.7554 156.627 88.9451 156.786 89.1049C156.945 89.2648 157.135 89.3917 157.343 89.4784C157.551 89.5651 157.775 89.6099 158 89.6103H158.003C158.459 89.6103 158.895 89.4296 159.218 89.1078C159.54 88.786 159.721 88.3495 159.722 87.8942C159.725 85.6637 159.702 84.6851 159.65 82.5404L159.645 82.355C159.739 80.799 159.965 79.899 160.375 79.4416C160.812 78.9552 161.752 78.6196 163.126 78.2359C168.274 76.7987 169.259 76.6217 169.438 76.6017C169.782 76.5633 170.105 76.4222 170.368 76.1968C170.63 75.9715 170.818 75.6723 170.907 75.3384L171.299 73.8775C172.442 74.1895 173.65 74.1746 174.785 73.8346L175.189 75.3399C175.278 75.6738 175.466 75.973 175.729 76.1983C175.991 76.4237 176.315 76.5648 176.658 76.6032C176.837 76.6232 177.822 76.8002 182.97 78.2374C184.345 78.6211 185.284 78.9567 185.72 79.4431C186.13 79.9005 186.357 80.8004 186.45 82.3565L186.446 82.5419C186.394 84.6866 186.37 85.6652 186.373 87.8957C186.374 88.351 186.555 88.7875 186.878 89.1093C187.2 89.4311 187.637 89.6118 188.092 89.6118H188.095C188.321 89.6114 188.544 89.5666 188.752 89.4799C188.961 89.3932 189.15 89.2663 189.309 89.1064C189.469 88.9466 189.595 88.7569 189.681 88.5482C189.767 88.3396 189.811 88.116 189.811 87.8903C189.808 85.7043 189.831 84.7395 189.882 82.6255L189.889 82.3677C189.889 82.3211 189.889 82.2744 189.886 82.2278C189.604 77.3025 187.888 76.0405 183.892 74.9262C180.86 74.0795 179.191 73.6457 178.232 73.4208L177.861 72.0366C181.295 68.9286 183.837 62.7513 182.122 56.7677C181.046 53.0106 177.265 50.387 172.927 50.387C168.59 50.387 164.808 53.0111 163.732 56.7677C162.329 61.6632 163.883 67.8546 167.427 71.4894C167.676 71.7448 167.931 71.9795 168.189 72.1984L167.861 73.4214C166.902 73.6464 165.233 74.0801 162.201 74.9266C158.205 76.0418 156.49 77.3031 156.207 82.2285C156.205 82.2751 156.204 82.3217 156.205 82.3683L156.212 82.6261C156.265 84.738 156.288 85.7026 156.285 87.8888ZM167.038 57.7136C167.805 55.0406 170.629 53.8231 172.929 53.8231C175.23 53.8231 178.054 55.0406 178.82 57.7136C180.165 62.4076 178.143 67.2386 175.45 69.5849C173.629 71.1719 171.758 71.0054 169.89 69.0893C167.569 66.7078 165.867 61.8015 167.038 57.7136Z" fill="#CEFD1E"/>
</svg>
