<svg width="328" height="150" viewBox="0 0 328 150" fill="none" xmlns="http://www.w3.org/2000/svg">
<rect width="328" height="150" rx="6" fill="#1D1D1D"/>
<mask id="mask0_6393_14805" style="mask-type:alpha" maskUnits="userSpaceOnUse" x="0" y="0" width="328" height="150">
<rect width="328" height="150" rx="6" fill="#1D1D1D"/>
</mask>
<g mask="url(#mask0_6393_14805)">
</g>
<circle cx="144.5" cy="77.5" r="42.5" fill="#CEFD1E" fill-opacity="0.04"/>
<path d="M93.3875 67.936H92.3875V68.936H93.3875V67.936ZM93.3875 60.384L92.7238 59.636L92.3875 59.9344V60.384H93.3875ZM112.716 43.232L112.054 42.4822L112.052 42.484L112.716 43.232ZM115.788 39.616L114.903 39.1489L115.788 39.616ZM115.82 32.704L114.932 33.1648L114.936 33.1719L115.82 32.704ZM113.388 30.112L112.865 30.9648L112.872 30.9688L112.878 30.9726L113.388 30.112ZM105.804 30.176L106.316 31.035L106.32 31.0321L105.804 30.176ZM103.212 32.832L104.081 33.3263L104.085 33.3191L103.212 32.832ZM102.348 36.384V37.384H103.381L103.347 36.3507L102.348 36.384ZM93.3875 36.384H92.3875V37.384H93.3875V36.384ZM95.4675 28.192L96.3243 28.7077L95.4675 28.192ZM101.26 22.848L101.713 23.7393H101.713L101.26 22.848ZM117.964 22.944L117.476 23.8171L117.485 23.8222L117.964 22.944ZM124.684 42.272L125.603 42.6659L125.605 42.6612L124.684 42.272ZM121.836 46.432L122.543 47.1391L122.549 47.1331L121.836 46.432ZM117.196 50.72L116.538 49.9663L116.536 49.9681L117.196 50.72ZM104.715 61.664L103.777 62.0083L104.279 63.3772L105.375 62.4159L104.715 61.664ZM104.012 59.744V58.744H102.58L103.073 60.0883L104.012 59.744ZM125.644 59.744H126.644V58.744H125.644V59.744ZM125.644 67.936V68.936H126.644V67.936H125.644ZM94.3875 67.936V60.384H92.3875V67.936H94.3875ZM94.0512 61.132L113.379 43.98L112.052 42.484L92.7238 59.636L94.0512 61.132ZM113.377 43.9818C114.877 42.6587 115.997 41.3609 116.672 40.0831L114.903 39.1489C114.384 40.1325 113.456 41.2453 112.054 42.4822L113.377 43.9818ZM116.672 40.0831C117.323 38.8507 117.684 37.634 117.684 36.448H115.684C115.684 37.2247 115.447 38.12 114.903 39.1489L116.672 40.0831ZM117.684 36.448C117.684 34.9005 117.366 33.4878 116.703 32.2361L114.936 33.1719C115.425 34.0962 115.684 35.1795 115.684 36.448H117.684ZM116.707 32.2432C116.047 30.9729 115.108 29.9682 113.897 29.2514L112.878 30.9726C113.758 31.4931 114.44 32.2164 114.932 33.1648L116.707 32.2432ZM113.91 29.2591C112.685 28.5093 111.272 28.152 109.708 28.152V30.152C110.959 30.152 111.999 30.4347 112.865 30.9648L113.91 29.2591ZM109.708 28.152C108.075 28.152 106.591 28.5326 105.287 29.3199L106.32 31.0321C107.278 30.4541 108.396 30.152 109.708 30.152V28.152ZM105.291 29.3171C104.034 30.0668 103.044 31.0793 102.338 32.3449L104.085 33.3191C104.616 32.366 105.355 31.6078 106.316 31.0349L105.291 29.3171ZM102.342 32.3377C101.63 33.5901 101.299 34.9573 101.348 36.4173L103.347 36.3507C103.31 35.2507 103.556 34.2499 104.081 33.3263L102.342 32.3377ZM102.348 35.384H93.3875V37.384H102.348V35.384ZM94.3875 36.384C94.3875 33.3764 95.0466 30.8307 96.3243 28.7077L94.6107 27.6763C93.1151 30.1613 92.3875 33.077 92.3875 36.384H94.3875ZM96.3243 28.7077C97.6111 26.5696 99.3995 24.9159 101.713 23.7393L100.806 21.9567C98.1702 23.2974 96.0972 25.2064 94.6107 27.6763L96.3243 28.7077ZM101.713 23.7393C104.024 22.5641 106.743 21.96 109.9 21.96V19.96C106.485 19.96 103.445 20.6146 100.806 21.9567L101.713 23.7393ZM109.9 21.96C112.756 21.96 115.273 22.5864 117.476 23.817L118.451 22.071C115.918 20.6562 113.059 19.96 109.9 19.96V21.96ZM117.485 23.8222C119.714 25.0363 121.458 26.7306 122.731 28.9189L124.46 27.9131C123.002 25.408 120.991 23.4544 118.442 22.0658L117.485 23.8222ZM122.731 28.9189C123.996 31.0926 124.644 33.6343 124.644 36.576H126.644C126.644 33.331 125.926 30.4328 124.46 27.9131L122.731 28.9189ZM124.644 36.576C124.644 38.7734 124.334 40.5292 123.762 41.8828L125.605 42.6612C126.313 40.9855 126.644 38.944 126.644 36.576H124.644ZM123.764 41.8781C123.178 43.2457 122.303 44.5303 121.122 45.7309L122.549 47.1331C123.885 45.7737 124.909 44.285 125.603 42.6659L123.764 41.8781ZM121.128 45.7249C119.89 46.9629 118.362 48.3763 116.538 49.9663L117.853 51.4737C119.699 49.8637 121.263 48.4185 122.543 47.1391L121.128 45.7249ZM116.536 49.9681L104.056 60.9121L105.375 62.4159L117.855 51.4719L116.536 49.9681ZM105.654 61.3197L104.95 59.3997L103.073 60.0883L103.777 62.0083L105.654 61.3197ZM104.012 60.744H125.644V58.744H104.012V60.744ZM124.644 59.744V67.936H126.644V59.744H124.644ZM125.644 66.936H93.3875V68.936H125.644V66.936Z" fill="#CEFD1E" fill-opacity="0.15"/>
<path d="M112.752 74.0897H106.436C104.786 74.0897 103.443 72.747 103.443 71.0966V42.5282C103.443 40.878 104.786 39.5351 106.436 39.5351H199.481C200.457 39.5351 201.248 38.7437 201.248 37.7676C201.248 36.7914 200.457 36 199.481 36H106.436C102.837 36 99.9082 38.9285 99.9082 42.5282V71.0966C99.9082 74.6963 102.837 77.6248 106.436 77.6248H112.752C113.729 77.6248 114.52 76.8334 114.52 75.8572C114.52 74.8811 113.729 74.0897 112.752 74.0897Z" fill="#CEFD1E"/>
<path d="M214.045 36H207.729C206.753 36 205.962 36.7914 205.962 37.7676C205.962 38.7437 206.753 39.5351 207.729 39.5351H214.045C215.696 39.5351 217.038 40.8777 217.038 42.5282V71.0966C217.038 72.747 215.696 74.0897 214.045 74.0897H195.023L183.172 69.9757C181.067 69.2449 178.687 69.7919 177.111 71.3679C176.349 72.1279 175.83 73.076 175.577 74.0897H121.001C120.025 74.0897 119.233 74.8811 119.233 75.8572C119.233 76.8334 120.025 77.6248 121.001 77.6248H175.783L178.28 84.8152C178.6 85.7372 179.606 86.2252 180.53 85.9052C181.452 85.5849 181.94 84.5779 181.62 83.6557L179.056 76.2722C178.766 75.4373 178.982 74.4943 179.609 73.8691C180.235 73.2434 181.179 73.0265 182.012 73.3157L207.241 82.0734C208.274 82.4321 208.399 83.362 208.413 83.6385C208.427 83.9152 208.394 84.8534 207.4 85.3132L197.984 89.6663C196.846 90.1931 195.93 91.1094 195.406 92.2441L191.051 101.662C190.592 102.655 189.656 102.688 189.379 102.674C189.102 102.66 188.173 102.535 187.814 101.501L184.323 91.4494C184.003 90.5275 182.996 90.0392 182.074 90.3594C181.151 90.6797 180.664 91.6868 180.984 92.6089L184.474 102.66C185.184 104.706 187.04 106.097 189.203 106.205C189.293 106.209 189.382 106.211 189.47 106.211C191.529 106.211 193.389 105.029 194.26 103.145L198.616 93.726C198.788 93.3513 199.091 93.0487 199.468 92.8745L208.884 88.5214C210.85 87.6119 212.051 85.6264 211.943 83.4631C211.836 81.3004 210.446 79.4437 208.401 78.7336L205.206 77.6248H214.045C217.645 77.6248 220.573 74.6963 220.573 71.0966V42.5282C220.573 38.9285 217.645 36 214.045 36Z" fill="#CEFD1E"/>
<path d="M188.945 49.3887C187.969 49.3887 187.178 50.1801 187.178 51.1562V62.4686C187.178 63.4448 187.969 64.2361 188.945 64.2361C189.922 64.2361 190.713 63.4448 190.713 62.4686V51.1562C190.713 50.1801 189.922 49.3887 188.945 49.3887Z" fill="#CEFD1E"/>
<path d="M212.514 60.701H209.515V58.58H212.162C213.139 58.58 213.93 57.7886 213.93 56.8124C213.93 55.8362 213.139 55.0449 212.162 55.0449H209.515V52.9238H212.514C213.49 52.9238 214.281 52.1324 214.281 51.1562C214.281 50.1801 213.49 49.3887 212.514 49.3887H207.747C206.771 49.3887 205.979 50.1801 205.979 51.1562V62.4686C205.979 63.4448 206.771 64.2361 207.747 64.2361H212.514C213.49 64.2361 214.281 63.4448 214.281 62.4686C214.281 61.4924 213.49 60.701 212.514 60.701Z" fill="#CEFD1E"/>
<path d="M142.282 55.8711C142.629 55.2445 142.829 54.525 142.829 53.7592C142.829 51.3492 140.868 49.3887 138.458 49.3887H135.172C134.196 49.3887 133.405 50.1801 133.405 51.1562V62.4686C133.405 62.9388 133.592 63.3896 133.925 63.7212C134.257 64.0511 134.705 64.2361 135.172 64.2361H135.18C135.18 64.2361 138.2 64.2227 139.032 64.2227C141.686 64.2227 143.845 62.0637 143.845 59.4102C143.844 58.0099 143.24 56.7514 142.282 55.8711ZM138.458 52.9238C138.919 52.9238 139.294 53.2985 139.294 53.7592C139.294 54.22 138.919 54.5947 138.458 54.5947C138.215 54.5947 136.94 54.5978 136.94 54.5978V52.9238H138.458ZM139.032 60.6878C138.639 60.6878 137.76 60.6909 136.94 60.694V58.1343C137.047 58.1338 139.032 58.1331 139.032 58.1331C139.736 58.1331 140.309 58.7061 140.309 59.4105C140.309 60.1149 139.736 60.6878 139.032 60.6878Z" fill="#CEFD1E"/>
<path d="M202.029 55.8711C202.376 55.2445 202.575 54.525 202.575 53.7592C202.575 51.3492 200.615 49.3887 198.205 49.3887H194.919C193.943 49.3887 193.151 50.1801 193.151 51.1562V62.4686C193.151 62.9388 193.339 63.3896 193.672 63.7212C194.003 64.0511 194.452 64.2361 194.919 64.2361H194.927C194.927 64.2361 197.946 64.2227 198.779 64.2227C201.432 64.2227 203.591 62.0637 203.591 59.4102C203.591 58.0099 202.986 56.7514 202.029 55.8711ZM198.205 52.9235C198.665 52.9235 199.04 53.2983 199.04 53.759C199.04 54.2198 198.665 54.5945 198.205 54.5945C197.961 54.5945 196.686 54.5975 196.686 54.5975V52.9235H198.205ZM198.779 60.6876C198.386 60.6876 197.507 60.6907 196.686 60.6937V58.1341C196.794 58.1336 198.779 58.1329 198.779 58.1329C199.483 58.1329 200.056 58.7058 200.056 59.4102C200.056 60.1147 199.483 60.6876 198.779 60.6876Z" fill="#CEFD1E"/>
<path d="M171.677 59.5177C170.929 58.8906 169.814 58.9886 169.187 59.7367C169.1 59.8413 169.005 59.9384 168.907 60.0258C168.404 60.4741 167.755 60.7013 166.978 60.7013C164.834 60.7013 163.09 58.9568 163.09 56.8126C163.09 54.6685 164.834 52.924 166.978 52.924C167.758 52.924 168.509 53.1533 169.151 53.587C169.96 54.1335 171.059 53.9209 171.605 53.1119C172.152 52.3028 171.939 51.2043 171.13 50.6578C169.901 49.8275 168.466 49.3887 166.978 49.3887C162.885 49.3887 159.555 52.719 159.555 56.8124C159.555 60.9058 162.885 64.2361 166.978 64.2361C168.624 64.2361 170.104 63.6932 171.258 62.6656C171.484 62.4646 171.699 62.2433 171.896 62.0076C172.523 61.2596 172.425 60.1448 171.677 59.5177Z" fill="#CEFD1E"/>
<path d="M113.498 55.2427C112.171 54.7532 110.93 54.2215 110.487 54.028C110.363 53.9081 110.352 53.757 110.368 53.6441C110.409 53.3641 110.646 53.1386 111.02 53.0259C112.422 52.6043 113.756 53.6406 113.808 53.6813C114.556 54.299 115.662 54.1996 116.287 53.456C116.915 52.7087 116.818 51.5937 116.071 50.9657C115.045 50.1033 112.613 48.8543 110.001 49.6412C108.306 50.1516 107.106 51.4929 106.869 53.1419C106.646 54.6973 107.321 56.1939 108.63 57.0475C108.708 57.0984 108.79 57.1429 108.875 57.1811C108.941 57.2106 110.509 57.9084 112.274 58.5596C112.938 58.8042 113.616 59.2338 113.532 59.7059C113.46 60.107 112.893 60.7007 111.904 60.7007C110.878 60.7007 109.894 60.2908 109.271 59.6043C108.616 58.8808 107.498 58.8263 106.775 59.4815C106.052 60.1372 105.997 61.255 106.652 61.9782C107.952 63.4128 109.867 64.2358 111.904 64.2358C114.459 64.2358 116.608 62.5919 117.012 60.3273C117.319 58.609 116.556 56.3711 113.498 55.2427Z" fill="#CEFD1E"/>
<path d="M153.52 55.2427C152.192 54.7532 150.952 54.2213 150.509 54.0281C150.385 53.9079 150.374 53.757 150.39 53.6441C150.431 53.3642 150.668 53.1386 151.042 53.026C152.444 52.6036 153.779 53.6408 153.83 53.6814C154.578 54.2991 155.684 54.1996 156.309 53.4558C156.937 52.7085 156.841 51.5935 156.094 50.9655C155.067 50.1031 152.635 48.8545 150.023 49.641C148.328 50.1515 147.128 51.4927 146.891 53.1417C146.668 54.6971 147.343 56.1939 148.652 57.0473C148.73 57.0982 148.812 57.1427 148.897 57.1807C148.963 57.2101 150.531 57.9082 152.297 58.5594C152.96 58.804 153.638 59.2336 153.554 59.7057C153.483 60.1068 152.916 60.7005 151.926 60.7005C150.9 60.7005 149.916 60.2906 149.293 59.6041C148.638 58.8806 147.52 58.8261 146.797 59.4813C146.074 60.137 146.019 61.2548 146.674 61.9781C147.974 63.4126 149.889 64.2356 151.926 64.2356C154.482 64.2356 156.63 62.5918 157.034 60.3272C157.341 58.6091 156.579 56.3711 153.52 55.2427Z" fill="#CEFD1E"/>
<path d="M129.128 49.3887C128.152 49.3887 127.36 50.1801 127.36 51.1562V58.9323C127.36 59.4001 127.223 59.9478 126.201 60.4625C125.882 60.6233 125.533 60.7013 125.134 60.7013C125.133 60.7013 125.131 60.7013 125.13 60.7013C124.7 60.7008 124.328 60.5966 123.994 60.3829C123.192 59.8705 123.035 59.4661 123.035 58.9405V51.1565C123.035 50.1803 122.244 49.3889 121.268 49.3889C120.291 49.3889 119.5 50.1803 119.5 51.1565V58.9405C119.5 60.7762 120.372 62.2638 122.091 63.3618C122.996 63.9406 124.017 64.2347 125.125 64.2361H125.134C126.085 64.2361 126.979 64.0288 127.791 63.6196C129.793 62.6114 130.896 60.9466 130.896 58.9321V51.156C130.896 50.1801 130.104 49.3887 129.128 49.3887Z" fill="#CEFD1E"/>
<path d="M184.646 54.0963C184.646 51.5005 182.46 49.3887 179.772 49.3887H176.766C175.79 49.3887 174.999 50.1794 174.998 51.155L174.995 62.4686C174.995 63.4448 175.786 64.2361 176.762 64.2361C177.739 64.2361 178.53 63.4448 178.53 62.4686V60.2028L181.552 63.6364C181.901 64.0335 182.389 64.2361 182.879 64.2361C183.294 64.2361 183.71 64.091 184.046 63.7954C184.779 63.1506 184.85 62.0335 184.205 61.3008L181.677 58.4287C183.421 57.7108 184.646 56.0394 184.646 54.0963ZM178.533 52.9238H179.772C180.486 52.9238 181.111 53.4717 181.111 54.0963C181.111 54.7208 180.486 55.2687 179.772 55.2687C179.476 55.2687 179.009 55.2704 178.531 55.2725L178.533 52.9238Z" fill="#CEFD1E"/>
</svg>
