<svg width="328" height="150" viewBox="0 0 328 150" fill="none" xmlns="http://www.w3.org/2000/svg">
<rect width="328" height="150" rx="6" fill="#1D1D1D"/>
<mask id="mask0_6393_14786" style="mask-type:alpha" maskUnits="userSpaceOnUse" x="0" y="0" width="328" height="150">
<rect width="328" height="150" rx="6" fill="#1D1D1D"/>
</mask>
<g mask="url(#mask0_6393_14786)">
</g>
<circle cx="144.5" cy="77.5" r="42.5" fill="#CEFD1E" fill-opacity="0.04"/>
<path d="M101.922 67.456L101.512 68.3683L101.52 68.3717L101.922 67.456ZM96.4498 63.52L95.7106 64.1936L95.7153 64.1987L96.4498 63.52ZM93.1538 57.568L92.8975 56.6014L91.9086 56.8636L92.1932 57.8463L93.1538 57.568ZM101.602 55.328L102.568 55.0711L102.311 54.1053L101.345 54.3614L101.602 55.328ZM104.226 59.264L103.641 60.075L103.648 60.0804L103.656 60.0857L104.226 59.264ZM112.13 59.68L111.63 58.8138L111.623 58.8181L112.13 59.68ZM114.754 57.088L113.899 56.5686L113.895 56.5748L113.892 56.581L114.754 57.088ZM113.698 48.384L112.969 49.069L112.974 49.0746L112.98 49.0801L113.698 48.384ZM106.658 46.528L106.932 47.4895L106.948 47.485L106.964 47.48L106.658 46.528ZM104.93 47.264L104.061 47.7593L104.559 48.6325L105.429 48.1302L104.93 47.264ZM101.026 40.416L100.387 39.6464L99.7414 40.1822L100.157 40.9113L101.026 40.416ZM115.682 28.256L116.627 27.93L116.156 26.5633L115.043 27.4864L115.682 28.256ZM116.322 30.112V31.112H117.724L117.267 29.786L116.322 30.112ZM94.9458 30.112H93.9458V31.112H94.9458V30.112ZM94.9458 21.92V20.92H93.9458V21.92H94.9458ZM123.746 21.92H124.746V20.92H123.746V21.92ZM123.746 30.112L124.441 30.8311L124.746 30.5363V30.112H123.746ZM112.354 41.12L111.354 41.1463L111.414 43.4188L113.049 41.8391L112.354 41.12ZM112.29 38.688L112.441 37.6995L111.259 37.5183L111.29 38.7143L112.29 38.688ZM118.978 41.472L118.353 42.2529L118.363 42.2609L118.978 41.472ZM123.138 46.784L122.224 47.1902L122.229 47.2013L123.138 46.784ZM122.37 61.312L123.212 61.8504L123.215 61.8469L122.37 61.312ZM116.514 66.816L116.997 67.6913L117.003 67.688L116.514 66.816ZM108.514 67.832C106.347 67.832 104.286 67.4015 102.324 66.5403L101.52 68.3717C103.738 69.3452 106.073 69.832 108.514 69.832V67.832ZM102.331 66.5437C100.364 65.6603 98.6502 64.4278 97.1842 62.8413L95.7153 64.1987C97.364 65.9828 99.2984 67.3743 101.512 68.3683L102.331 66.5437ZM97.1888 62.8464C95.7603 61.279 94.7349 59.4318 94.1143 57.2897L92.1932 57.8463C92.8953 60.2695 94.0672 62.3904 95.7107 64.1936L97.1888 62.8464ZM93.41 58.5346L101.858 56.2946L101.345 54.3614L92.8975 56.6014L93.41 58.5346ZM100.635 55.5849C101.137 57.4727 102.135 58.9892 103.641 60.075L104.811 58.453C103.713 57.6615 102.962 56.554 102.568 55.0711L100.635 55.5849ZM103.656 60.0857C105.137 61.1132 106.764 61.64 108.514 61.64V59.64C107.192 59.64 105.959 59.2494 104.796 58.4423L103.656 60.0857ZM108.514 61.64C110.006 61.64 111.388 61.2767 112.637 60.5419L111.623 58.8181C110.696 59.3633 109.667 59.64 108.514 59.64V61.64ZM112.629 60.5462C113.886 59.8211 114.887 58.8343 115.616 57.595L113.892 56.581C113.341 57.5177 112.592 58.2589 111.63 58.8138L112.629 60.5462ZM115.608 57.6074C116.369 56.3566 116.746 54.9704 116.746 53.472H114.746C114.746 54.6189 114.462 55.6434 113.899 56.5686L115.608 57.6074ZM116.746 53.472C116.746 51.2315 115.964 49.2848 114.416 47.6879L112.98 49.0801C114.162 50.2992 114.746 51.7445 114.746 53.472H116.746ZM114.426 47.699C112.878 46.0521 110.878 45.24 108.514 45.24V47.24C110.373 47.24 111.83 47.8572 112.969 49.069L114.426 47.699ZM108.514 45.24C107.772 45.24 107.05 45.3515 106.352 45.576L106.964 47.48C107.46 47.3205 107.976 47.24 108.514 47.24V45.24ZM106.383 45.5665C105.705 45.7603 105.053 46.0382 104.43 46.3978L105.429 48.1302C105.916 47.8498 106.416 47.637 106.932 47.4895L106.383 45.5665ZM105.798 46.7687L101.894 39.9207L100.157 40.9113L104.061 47.7593L105.798 46.7687ZM101.664 41.1856L116.32 29.0256L115.043 27.4864L100.387 39.6464L101.664 41.1856ZM114.736 28.582L115.376 30.438L117.267 29.786L116.627 27.93L114.736 28.582ZM116.322 29.112H94.9458V31.112H116.322V29.112ZM95.9458 30.112V21.92H93.9458V30.112H95.9458ZM94.9458 22.92H123.746V20.92H94.9458V22.92ZM122.746 21.92V30.112H124.746V21.92H122.746ZM123.051 29.3929L111.659 40.4009L113.049 41.8391L124.441 30.8311L123.051 29.3929ZM113.353 41.0937L113.289 38.6617L111.29 38.7143L111.354 41.1463L113.353 41.0937ZM112.138 39.6765C114.637 40.0594 116.696 40.9274 118.353 42.2529L119.602 40.6911C117.633 39.1152 115.233 38.1273 112.441 37.6995L112.138 39.6765ZM118.363 42.2609C120.069 43.5898 121.352 45.2294 122.224 47.1901L124.052 46.3779C123.046 44.1146 121.556 42.2128 119.592 40.6831L118.363 42.2609ZM122.229 47.2013C123.127 49.1572 123.578 51.2437 123.578 53.472H125.578C125.578 50.9643 125.068 48.5922 124.047 46.3667L122.229 47.2013ZM123.578 53.472C123.578 56.1947 122.89 58.6207 121.525 60.7771L123.215 61.8469C124.794 59.3527 125.578 56.5519 125.578 53.472H123.578ZM121.527 60.7736C120.145 62.9362 118.316 64.6575 116.024 65.944L117.003 67.688C119.576 66.2439 121.65 64.2958 123.212 61.8504L121.527 60.7736ZM116.03 65.9408C113.753 67.1993 111.254 67.832 108.514 67.832V69.832C111.577 69.832 114.411 69.1207 116.997 67.6912L116.03 65.9408Z" fill="#CEFD1E" fill-opacity="0.15"/>
<path d="M175.084 111.094L173.9 111.686L139.1 96.2196V55.605L173.119 70.7244C173.381 70.8409 173.664 70.9011 173.951 70.9011C174.238 70.9011 174.522 70.8409 174.784 70.7244L208.803 55.605V72.9511C208.808 73.4914 209.026 74.0078 209.41 74.3879C209.794 74.7681 210.312 74.9814 210.853 74.9814C211.393 74.9814 211.912 74.7681 212.295 74.3879C212.679 74.0078 212.898 73.4914 212.903 72.9511V52.4503C212.903 52.0538 212.788 51.6658 212.572 51.3333C212.356 51.0008 212.048 50.7381 211.686 50.577L174.784 34.1764C174.522 34.0601 174.238 34 173.951 34C173.665 34 173.381 34.0601 173.119 34.1764L136.217 50.577C135.855 50.7381 135.547 51.0008 135.331 51.3333C135.115 51.6658 135 52.0538 135 52.4503V97.552C135 97.9485 135.115 98.3364 135.331 98.6688C135.547 99.0011 135.855 99.2638 136.217 99.4248L173.119 115.825C173.395 115.948 173.695 116.009 173.997 116.002C174.3 115.995 174.597 115.922 174.868 115.787L176.918 114.762C177.16 114.642 177.376 114.476 177.554 114.273C177.732 114.069 177.868 113.833 177.954 113.577C178.04 113.321 178.075 113.05 178.056 112.78C178.038 112.511 177.966 112.248 177.845 112.006C177.724 111.764 177.557 111.549 177.352 111.372C177.148 111.195 176.91 111.061 176.654 110.976C176.397 110.891 176.126 110.858 175.857 110.878C175.588 110.899 175.325 110.972 175.084 111.094L175.084 111.094ZM173.951 66.6075L159.447 60.1611L191.185 46.0558C191.221 46.0395 191.252 46.0156 191.287 45.9981L205.805 52.4503L173.951 66.6075ZM173.951 38.2929L186.253 43.7604L154.668 57.7983C154.587 57.8378 154.508 57.8828 154.433 57.9328L142.098 52.4503L173.951 38.2929Z" fill="#CEFD1E"/>
<path d="M196.503 75.001C192.449 75.0009 188.485 76.2033 185.114 78.4559C181.742 80.7085 179.115 83.9103 177.563 87.6563C176.011 91.4024 175.605 95.5244 176.396 99.5012C177.187 103.478 179.14 107.131 182.007 109.998C184.874 112.865 188.527 114.818 192.504 115.609C196.48 116.4 200.603 115.994 204.349 114.442C208.095 112.89 211.296 110.263 213.549 106.891C215.802 103.52 217.004 99.5565 217.004 95.5018C216.998 90.0665 214.836 84.8556 210.993 81.0123C207.15 77.1689 201.939 75.0071 196.503 75.001ZM196.503 111.902C193.26 111.902 190.089 110.94 187.392 109.138C184.695 107.336 182.593 104.775 181.351 101.778C180.11 98.7812 179.785 95.4836 180.418 92.3022C181.051 89.1208 182.613 86.1985 184.907 83.9049C187.2 81.6112 190.122 80.0492 193.304 79.4164C196.485 78.7836 199.783 79.1084 202.78 80.3497C205.776 81.591 208.338 83.6931 210.14 86.3901C211.942 89.0872 212.904 92.2581 212.904 95.5018C212.899 99.85 211.17 104.019 208.095 107.093C205.02 110.168 200.852 111.897 196.503 111.902Z" fill="#CEFD1E"/>
<path d="M203.253 89.9528L194.452 98.7537L190.776 95.078C190.587 94.884 190.361 94.7296 190.111 94.6237C189.861 94.5177 189.593 94.4624 189.322 94.4608C189.051 94.4593 188.782 94.5115 188.531 94.6146C188.28 94.7176 188.052 94.8694 187.861 95.0612C187.669 95.253 187.517 95.4809 187.414 95.7317C187.311 95.9826 187.259 96.2514 187.26 96.5226C187.262 96.7937 187.317 97.0619 187.423 97.3116C187.529 97.5612 187.684 97.7873 187.877 97.9769L193.003 103.102C193.193 103.293 193.419 103.444 193.668 103.547C193.916 103.65 194.183 103.703 194.452 103.703C194.721 103.703 194.988 103.65 195.237 103.547C195.485 103.444 195.711 103.293 195.902 103.102L206.152 92.8518C206.529 92.4659 206.739 91.9469 206.736 91.4073C206.733 90.8677 206.517 90.3511 206.135 89.9696C205.754 89.588 205.237 89.3723 204.698 89.3692C204.158 89.3661 203.639 89.5758 203.253 89.9529V89.9528Z" fill="#CEFD1E"/>
</svg>
