<svg width="328" height="150" viewBox="0 0 328 150" fill="none" xmlns="http://www.w3.org/2000/svg">
<rect width="328" height="150" rx="6" fill="#1D1D1D"/>
<mask id="mask0_6393_14825" style="mask-type:alpha" maskUnits="userSpaceOnUse" x="0" y="0" width="328" height="150">
<rect width="328" height="150" rx="6" fill="#1D1D1D"/>
</mask>
<g mask="url(#mask0_6393_14825)">
</g>
<circle cx="144.5" cy="82.5" r="42.5" fill="#CEFD1E" fill-opacity="0.04"/>
<path d="M113.045 68H112.045V69H113.045V68ZM113.045 60.832H114.045V59.832H113.045V60.832ZM93.0125 60.832H92.0125V61.832H93.0125V60.832ZM93.0125 52.704L92.1082 52.2772L92.0125 52.4799V52.704H93.0125ZM107.541 21.92V20.92H106.907L106.636 21.4932L107.541 21.92ZM117.525 21.92L118.429 22.3468L119.102 20.92H117.525V21.92ZM102.997 52.704L102.092 52.2772L101.419 53.704H102.997V52.704ZM113.045 52.704V53.704H114.045V52.704H113.045ZM113.045 41.184V40.184H112.045V41.184H113.045ZM121.877 41.184H122.877V40.184H121.877V41.184ZM121.877 52.704H120.877V53.704H121.877V52.704ZM125.972 52.704H126.972V51.704H125.972V52.704ZM125.972 60.832V61.832H126.972V60.832H125.972ZM121.877 60.832V59.832H120.877V60.832H121.877ZM121.877 68V69H122.877V68H121.877ZM114.045 68V60.832H112.045V68H114.045ZM113.045 59.832H93.0125V61.832H113.045V59.832ZM94.0125 60.832V52.704H92.0125V60.832H94.0125ZM93.9168 53.1308L108.445 22.3468L106.636 21.4932L92.1082 52.2772L93.9168 53.1308ZM107.541 22.92H117.525V20.92H107.541V22.92ZM116.62 21.4932L102.092 52.2772L103.901 53.1308L118.429 22.3468L116.62 21.4932ZM102.997 53.704H113.045V51.704H102.997V53.704ZM114.045 52.704V41.184H112.045V52.704H114.045ZM113.045 42.184H121.877V40.184H113.045V42.184ZM120.877 41.184V52.704H122.877V41.184H120.877ZM121.877 53.704H125.972V51.704H121.877V53.704ZM124.972 52.704V60.832H126.972V52.704H124.972ZM125.972 59.832H121.877V61.832H125.972V59.832ZM120.877 60.832V68H122.877V60.832H120.877ZM121.877 67H113.045V69H121.877V67Z" fill="#CEFD1E" fill-opacity="0.15"/>
<path d="M140.438 87.9902H135.402C132.031 87.9902 129.289 90.7332 129.289 94.104V109.875C129.289 110.874 130.099 111.685 131.099 111.685H144.742C145.741 111.685 146.552 110.874 146.552 109.875V94.104C146.552 90.7332 143.809 87.9902 140.438 87.9902ZM142.932 108.065H132.909V94.104C132.909 92.729 134.027 91.6098 135.402 91.6098H140.438C141.813 91.6098 142.932 92.729 142.932 94.104V108.065Z" fill="#CEFD1E"/>
<path d="M163.837 80.752H158.801C155.43 80.752 152.688 83.4942 152.688 86.8657V109.876C152.688 110.875 153.498 111.686 154.497 111.686H168.141C169.14 111.686 169.951 110.875 169.951 109.876V86.8657C169.951 83.4942 167.208 80.752 163.837 80.752ZM166.331 108.066H156.308V86.8657C156.308 85.49 157.426 84.3716 158.801 84.3716H163.838C165.213 84.3716 166.331 85.4907 166.331 86.8657V108.066Z" fill="#CEFD1E"/>
<path d="M187.242 70.9004H182.207C178.836 70.9004 176.093 73.6434 176.093 77.0141V109.875C176.093 110.874 176.904 111.685 177.903 111.685H191.546C192.546 111.685 193.356 110.874 193.356 109.875V77.0141C193.356 73.6434 190.614 70.9004 187.242 70.9004ZM189.736 108.065H179.713V77.0141C179.713 75.6391 180.831 74.52 182.207 74.52H187.243C188.618 74.52 189.736 75.6391 189.736 77.0141V108.065Z" fill="#CEFD1E"/>
<path d="M206.399 49.8485C208.039 51.8753 211.301 51.1154 211.867 48.5625L215.028 34.3308C215.516 32.1301 213.862 29.9993 211.523 30L196.945 30.1181C194.338 30.14 192.902 33.1665 194.546 35.1982L196.954 38.1738C187.842 45.7121 175.641 52.689 160.687 58.9117C148.399 64.0244 137.395 67.294 131.931 68.7871C128.88 69.6206 127.219 72.9157 128.363 75.8645C129.33 78.3593 132.017 79.7591 134.616 79.1186C142.07 77.2812 161.412 71.9903 179.989 62.5737C180.881 62.1212 181.238 61.0325 180.785 60.1411C180.334 59.2496 179.244 58.8933 178.354 59.345C160.108 68.5927 141.083 73.7966 133.75 75.6043C132.341 75.9507 131.142 74.4774 131.805 73.1611C132.027 72.722 132.41 72.4089 132.885 72.2795C154.904 66.2612 181.843 55.408 199.341 40.8963C200.816 39.6726 201.035 37.4633 199.828 35.9717L198.014 33.7299L211.477 33.6203L208.56 46.7647L206.719 44.4891C205.435 42.9019 203.126 42.7662 201.648 44.0684C198.654 46.7068 195.226 49.3055 191.458 51.7926C190.623 52.3433 190.393 53.466 190.944 54.3002C191.494 55.1344 192.617 55.3642 193.451 54.8134C197.329 52.2543 200.868 49.5742 203.97 46.8468L206.399 49.8485Z" fill="#CEFD1E"/>
<path d="M216.758 93.66V63.6108C216.758 60.2394 214.016 57.4971 210.645 57.4971H205.609C202.238 57.4971 199.496 60.2394 199.496 63.6108V93.3991C190.943 101.132 196.365 115.475 207.987 115.475C214.975 115.475 220.661 109.789 220.661 102.8C220.661 99.2124 219.162 95.9682 216.758 93.66ZM203.115 91.0923V63.6108C203.115 62.2351 204.234 61.1167 205.609 61.1167H210.645C212.02 61.1167 213.139 62.2358 213.139 63.6108V91.221C209.94 89.7922 206.272 89.7753 203.115 91.0923ZM207.987 111.855C202.994 111.855 198.932 107.793 198.932 102.8C198.932 96.2969 205.665 91.9088 211.612 94.5034C214.805 95.9039 217.042 99.0958 217.042 102.8C217.042 107.793 212.979 111.855 207.987 111.855Z" fill="#CEFD1E"/>
<path d="M211.268 98.0884C208.964 99.9399 207.665 102.414 206.993 104.101L204.243 103.068C203.307 102.716 202.264 103.19 201.912 104.126C201.561 105.062 202.035 106.105 202.97 106.457L206.496 107.781C207.977 108.336 209.621 107.55 210.127 106.059C210.548 104.821 211.55 102.506 213.535 100.909C214.315 100.284 214.438 99.1439 213.812 98.3648C213.186 97.5865 212.047 97.4627 211.268 98.0884Z" fill="#CEFD1E"/>
<path d="M187.345 57.5413C187.345 56.5416 186.534 55.7314 185.535 55.7314H185.53C184.53 55.7314 183.722 56.5416 183.722 57.5413C183.722 58.5402 184.535 59.3511 185.535 59.3511C186.534 59.3511 187.345 58.5409 187.345 57.5413Z" fill="#CEFD1E"/>
</svg>
