<svg width="328" height="150" viewBox="0 0 328 150" fill="none" xmlns="http://www.w3.org/2000/svg">
<rect width="328" height="150" rx="6" fill="#1D1D1D"/>
<mask id="mask0_6393_14733" style="mask-type:alpha" maskUnits="userSpaceOnUse" x="0" y="0" width="328" height="150">
<rect width="328" height="150" rx="6" fill="#1D1D1D"/>
</mask>
<g mask="url(#mask0_6393_14733)">
</g>
<circle cx="144.5" cy="77.5" r="42.5" fill="#CEFD1E" fill-opacity="0.04"/>
<path d="M107.449 68H106.449V69H107.449V68ZM107.449 31.392H108.449V29.6033L106.925 30.5401L107.449 31.392ZM98.8088 36.704H97.8088V38.4927L99.3325 37.5559L98.8088 36.704ZM98.8088 27.104L98.2943 26.2465L97.8088 26.5378V27.104H98.8088ZM107.449 21.92V20.92H107.172L106.934 21.0625L107.449 21.92ZM116.345 21.92H117.345V20.92H116.345V21.92ZM116.345 68V69H117.345V68H116.345ZM108.449 68V31.392H106.449V68H108.449ZM106.925 30.5401L98.285 35.8521L99.3325 37.5559L107.972 32.2439L106.925 30.5401ZM99.8088 36.704V27.104H97.8088V36.704H99.8088ZM99.3232 27.9615L107.963 22.7775L106.934 21.0625L98.2943 26.2465L99.3232 27.9615ZM107.449 22.92H116.345V20.92H107.449V22.92ZM115.345 21.92V68H117.345V21.92H115.345ZM116.345 67H107.449V69H116.345V67Z" fill="#CEFD1E" fill-opacity="0.15"/>
<path d="M159.313 85.5647C159.313 86.0042 159.488 86.4256 159.799 86.7364C160.109 87.0471 160.531 87.2217 160.97 87.2217C161.41 87.2217 161.831 87.0471 162.142 86.7364C162.453 86.4256 162.627 86.0042 162.627 85.5647C162.625 83.6464 161.96 81.7877 160.747 80.3023C159.533 78.8168 157.844 77.7956 155.964 77.411V76.2118C155.964 75.7723 155.79 75.3508 155.479 75.0401C155.168 74.7293 154.747 74.5547 154.307 74.5547C153.868 74.5547 153.446 74.7293 153.136 75.0401C152.825 75.3508 152.65 75.7723 152.65 76.2118V77.411C150.77 77.7935 149.079 78.8141 147.865 80.3C146.651 81.7859 145.988 83.6458 145.988 85.5647C145.988 87.4836 146.651 89.3434 147.865 90.8294C149.079 92.3153 150.77 93.3359 152.65 93.7184V103.613C151.672 103.269 150.825 102.63 150.225 101.784C149.626 100.938 149.303 99.927 149.302 98.8902C149.302 98.4507 149.127 98.0292 148.816 97.7185C148.506 97.4077 148.084 97.2331 147.645 97.2331C147.205 97.2331 146.784 97.4077 146.473 97.7185C146.162 98.0292 145.988 98.4507 145.988 98.8902C145.99 100.808 146.654 102.667 147.868 104.152C149.082 105.638 150.771 106.659 152.65 107.044V108.242C152.65 108.682 152.825 109.103 153.136 109.414C153.446 109.725 153.868 109.899 154.307 109.899C154.747 109.899 155.168 109.725 155.479 109.414C155.79 109.103 155.964 108.682 155.964 108.242V107.043C157.845 106.661 159.535 105.64 160.75 104.154C161.964 102.669 162.627 100.809 162.627 98.8895C162.627 96.9706 161.964 95.1106 160.75 93.6246C159.535 92.1387 157.845 91.1181 155.964 90.7359V80.8421C156.942 81.1863 157.79 81.8253 158.389 82.6711C158.989 83.5168 159.312 84.5278 159.313 85.5647ZM152.65 90.2873C151.672 89.9441 150.824 89.3053 150.224 88.4593C149.624 87.6133 149.302 86.6018 149.302 85.5647C149.302 84.5276 149.624 83.5161 150.224 82.6701C150.824 81.8241 151.672 81.1853 152.65 80.8421V90.2873ZM159.313 98.8902C159.312 99.927 158.989 100.938 158.389 101.784C157.79 102.63 156.942 103.269 155.964 103.613V94.1676C156.942 94.5117 157.79 95.1507 158.389 95.9965C158.989 96.8423 159.312 97.8533 159.313 98.8902ZM226.393 34.5308H201.525V30.9829C201.523 29.6618 200.998 28.3953 200.064 27.4611C199.129 26.5269 197.863 26.0015 196.542 26H181.261C179.94 26.0015 178.673 26.527 177.739 27.4612C176.805 28.3953 176.28 29.6619 176.278 30.9829V34.5311H151.573C151.133 34.5311 150.712 34.7056 150.401 35.0164C150.09 35.3271 149.915 35.7486 149.915 36.1881V49.8804C149.915 50.2215 150.021 50.5544 150.217 50.8335C150.413 51.1125 150.691 51.3242 151.012 51.4397L152.818 52.089V59.9558C135.691 60.7369 122 74.9124 122 92.2272C122 110.042 136.493 124.534 154.307 124.534C171.469 124.534 185.547 111.083 186.554 94.1693H221.06C222.101 94.1681 223.099 93.7542 223.834 93.0183C224.57 92.2825 224.984 91.2849 224.985 90.2444V52.1476L226.954 51.4395C227.275 51.324 227.553 51.1123 227.749 50.8332C227.945 50.5542 228.05 50.2213 228.05 49.8802V36.1889C228.051 35.9712 228.008 35.7556 227.925 35.5545C227.841 35.3533 227.719 35.1705 227.565 35.0165C227.412 34.8626 227.229 34.7404 227.028 34.6571C226.827 34.5737 226.611 34.5308 226.393 34.5308ZM179.592 30.9829C179.593 30.5405 179.769 30.1164 180.081 29.8036C180.394 29.4907 180.818 29.3148 181.261 29.3143H196.542C196.984 29.3148 197.408 29.4907 197.721 29.8035C198.034 30.1164 198.21 30.5405 198.211 30.9829V34.5311H179.592V30.9829ZM125.314 92.2272C125.314 76.7961 137.431 64.1444 152.65 63.2825V68.5022C148.766 68.7723 145.007 69.9925 141.704 72.0555C138.401 74.1185 135.656 76.9611 133.709 80.3336C131.762 83.7062 130.673 87.5053 130.538 91.3971C130.403 95.2889 131.226 99.1543 132.935 102.654L128.415 105.263C126.371 101.222 125.309 96.7559 125.314 92.2272ZM152.65 121.172C148.131 120.911 143.736 119.595 139.816 117.33C135.897 115.065 132.562 111.915 130.078 108.13L134.596 105.52C136.616 108.516 139.292 111.011 142.42 112.819C145.549 114.626 149.047 115.697 152.651 115.951L152.65 121.172ZM133.838 92.2272C133.838 88.1788 135.038 84.2212 137.287 80.855C139.536 77.4887 142.733 74.865 146.473 73.3156C150.214 71.7662 154.329 71.3607 158.3 72.1504C162.271 72.9401 165.918 74.8895 168.781 77.7521C171.644 80.6147 173.593 84.262 174.383 88.2326C175.173 92.2033 174.768 96.319 173.218 100.059C171.669 103.8 169.046 106.996 165.68 109.246C162.313 111.495 158.356 112.696 154.307 112.696C148.881 112.689 143.678 110.531 139.841 106.694C136.003 102.857 133.844 97.654 133.838 92.2272ZM155.965 68.5028V63.2831C160.484 63.5446 164.879 64.8604 168.799 67.1251C172.719 69.3898 176.054 72.5406 178.537 76.3253L174.019 78.9334C171.999 75.9382 169.324 73.4422 166.195 71.635C163.067 69.8277 159.568 68.7566 155.965 68.5028ZM155.965 121.172V115.952C159.849 115.682 163.608 114.462 166.911 112.399C170.214 110.336 172.959 107.493 174.906 104.121C176.853 100.748 177.942 96.9493 178.077 93.0575C178.211 89.1657 177.388 85.3004 175.68 81.8012L180.2 79.1913C182.243 83.2325 183.306 87.6985 183.3 92.227C183.3 107.658 171.183 120.31 155.965 121.172ZM221.671 90.2444C221.669 90.4056 221.604 90.5597 221.49 90.6738C221.376 90.7878 221.222 90.8529 221.06 90.855H186.583C185.887 74.2811 172.646 60.8966 156.131 59.972V53.2808L181.411 62.3726V66.9065C181.411 67.3459 181.586 67.7674 181.896 68.0782C182.207 68.3889 182.629 68.5635 183.068 68.5635H194.898C195.337 68.5635 195.759 68.3889 196.069 68.0782C196.38 67.7674 196.555 67.3459 196.555 66.9065V62.3726L221.671 53.3395V90.2444ZM184.725 65.2494V61.4202H193.241V65.2494H184.725ZM224.736 48.7153L196.329 58.9315C196.184 58.6806 195.975 58.4722 195.724 58.3274C195.473 58.1825 195.188 58.1062 194.898 58.1061H183.068C182.778 58.1062 182.493 58.1825 182.242 58.3274C181.99 58.4723 181.782 58.6807 181.636 58.9318L153.23 48.7153V37.8449H224.736V48.7153ZM197.734 83.5791C197.734 83.1397 197.909 82.7182 198.219 82.4074C198.53 82.0967 198.952 81.9221 199.391 81.9221H214.401C214.84 81.9221 215.262 82.0967 215.572 82.4074C215.883 82.7182 216.058 83.1397 216.058 83.5791C216.058 84.0186 215.883 84.4401 215.572 84.7509C215.262 85.0616 214.84 85.2362 214.401 85.2362H199.391C198.952 85.2362 198.53 85.0616 198.219 84.7509C197.909 84.4401 197.734 84.0186 197.734 83.5791Z" fill="#CEFD1E"/>
</svg>
