<svg width="328" height="150" viewBox="0 0 328 150" fill="none" xmlns="http://www.w3.org/2000/svg">
<rect width="328" height="150" rx="6" fill="#1D1D1D"/>
<mask id="mask0_6393_14776" style="mask-type:alpha" maskUnits="userSpaceOnUse" x="0" y="0" width="328" height="150">
<rect width="328" height="150" rx="6" fill="#1D1D1D"/>
</mask>
<g mask="url(#mask0_6393_14776)">
</g>
<circle cx="144.5" cy="77.5" r="42.5" fill="#CEFD1E" fill-opacity="0.04"/>
<path d="M93.3875 67.936H92.3875V68.936H93.3875V67.936ZM93.3875 60.384L92.7238 59.636L92.3875 59.9344V60.384H93.3875ZM112.716 43.232L112.054 42.4822L112.052 42.484L112.716 43.232ZM115.788 39.616L114.903 39.1489L115.788 39.616ZM115.82 32.704L114.932 33.1648L114.936 33.1719L115.82 32.704ZM113.388 30.112L112.865 30.9648L112.872 30.9688L112.878 30.9726L113.388 30.112ZM105.804 30.176L106.316 31.035L106.32 31.0321L105.804 30.176ZM103.212 32.832L104.081 33.3263L104.085 33.3191L103.212 32.832ZM102.348 36.384V37.384H103.381L103.347 36.3507L102.348 36.384ZM93.3875 36.384H92.3875V37.384H93.3875V36.384ZM95.4675 28.192L96.3243 28.7077L95.4675 28.192ZM101.26 22.848L101.713 23.7393H101.713L101.26 22.848ZM117.964 22.944L117.476 23.8171L117.485 23.8222L117.964 22.944ZM124.684 42.272L125.603 42.6659L125.605 42.6612L124.684 42.272ZM121.836 46.432L122.543 47.1391L122.549 47.1331L121.836 46.432ZM117.196 50.72L116.538 49.9663L116.536 49.9681L117.196 50.72ZM104.715 61.664L103.777 62.0083L104.279 63.3772L105.375 62.4159L104.715 61.664ZM104.012 59.744V58.744H102.58L103.073 60.0883L104.012 59.744ZM125.644 59.744H126.644V58.744H125.644V59.744ZM125.644 67.936V68.936H126.644V67.936H125.644ZM94.3875 67.936V60.384H92.3875V67.936H94.3875ZM94.0512 61.132L113.379 43.98L112.052 42.484L92.7238 59.636L94.0512 61.132ZM113.377 43.9818C114.877 42.6587 115.997 41.3609 116.672 40.0831L114.903 39.1489C114.384 40.1325 113.456 41.2453 112.054 42.4822L113.377 43.9818ZM116.672 40.0831C117.323 38.8507 117.684 37.634 117.684 36.448H115.684C115.684 37.2247 115.447 38.12 114.903 39.1489L116.672 40.0831ZM117.684 36.448C117.684 34.9005 117.366 33.4878 116.703 32.2361L114.936 33.1719C115.425 34.0962 115.684 35.1795 115.684 36.448H117.684ZM116.707 32.2432C116.047 30.9729 115.108 29.9682 113.897 29.2514L112.878 30.9726C113.758 31.4931 114.44 32.2164 114.932 33.1648L116.707 32.2432ZM113.91 29.2591C112.685 28.5093 111.272 28.152 109.708 28.152V30.152C110.959 30.152 111.999 30.4347 112.865 30.9648L113.91 29.2591ZM109.708 28.152C108.075 28.152 106.591 28.5326 105.287 29.3199L106.32 31.0321C107.278 30.4541 108.396 30.152 109.708 30.152V28.152ZM105.291 29.3171C104.034 30.0668 103.044 31.0793 102.338 32.3449L104.085 33.3191C104.616 32.366 105.355 31.6078 106.316 31.0349L105.291 29.3171ZM102.342 32.3377C101.63 33.5901 101.299 34.9573 101.348 36.4173L103.347 36.3507C103.31 35.2507 103.556 34.2499 104.081 33.3263L102.342 32.3377ZM102.348 35.384H93.3875V37.384H102.348V35.384ZM94.3875 36.384C94.3875 33.3764 95.0466 30.8307 96.3243 28.7077L94.6107 27.6763C93.1151 30.1613 92.3875 33.077 92.3875 36.384H94.3875ZM96.3243 28.7077C97.6111 26.5696 99.3995 24.9159 101.713 23.7393L100.806 21.9567C98.1702 23.2974 96.0972 25.2064 94.6107 27.6763L96.3243 28.7077ZM101.713 23.7393C104.024 22.5641 106.743 21.96 109.9 21.96V19.96C106.485 19.96 103.445 20.6146 100.806 21.9567L101.713 23.7393ZM109.9 21.96C112.756 21.96 115.273 22.5864 117.476 23.817L118.451 22.071C115.918 20.6562 113.059 19.96 109.9 19.96V21.96ZM117.485 23.8222C119.714 25.0363 121.458 26.7306 122.731 28.9189L124.46 27.9131C123.002 25.408 120.991 23.4544 118.442 22.0658L117.485 23.8222ZM122.731 28.9189C123.996 31.0926 124.644 33.6343 124.644 36.576H126.644C126.644 33.331 125.926 30.4328 124.46 27.9131L122.731 28.9189ZM124.644 36.576C124.644 38.7734 124.334 40.5292 123.762 41.8828L125.605 42.6612C126.313 40.9855 126.644 38.944 126.644 36.576H124.644ZM123.764 41.8781C123.178 43.2457 122.303 44.5303 121.122 45.7309L122.549 47.1331C123.885 45.7737 124.909 44.285 125.603 42.6659L123.764 41.8781ZM121.128 45.7249C119.89 46.9629 118.362 48.3763 116.538 49.9663L117.853 51.4737C119.699 49.8637 121.263 48.4185 122.543 47.1391L121.128 45.7249ZM116.536 49.9681L104.056 60.9121L105.375 62.4159L117.855 51.4719L116.536 49.9681ZM105.654 61.3197L104.95 59.3997L103.073 60.0883L103.777 62.0083L105.654 61.3197ZM104.012 60.744H125.644V58.744H104.012V60.744ZM124.644 59.744V67.936H126.644V59.744H124.644ZM125.644 66.936H93.3875V68.936H125.644V66.936Z" fill="#CEFD1E" fill-opacity="0.15"/>
<path d="M156.326 90.408C155.641 90.4067 154.974 90.1931 154.416 89.7967C153.335 89.0369 152.788 87.7232 153.01 86.4211L155.288 72.4408C155.315 72.2922 155.269 72.1396 155.165 72.0303L145.471 62.1193C144.563 61.1917 144.253 59.8324 144.67 58.6028C145.062 57.3961 146.101 56.5142 147.356 56.324L160.698 54.2864C160.823 54.2638 160.929 54.18 160.98 54.0631L166.926 41.4148C167.472 40.2338 168.654 39.4769 169.955 39.4746C171.256 39.4724 172.44 40.2252 172.99 41.4043L178.95 54.0676C179 54.1794 179.1 54.2606 179.22 54.2864L192.58 56.324C193.831 56.5168 194.868 57.3983 195.258 58.6028C195.676 59.835 195.365 61.1974 194.452 62.1253L184.763 72.0378C184.665 72.1426 184.621 72.287 184.643 72.4288L184.855 73.6904L181.898 74.1848L181.687 72.9263C181.507 71.8419 181.85 70.7361 182.613 69.9447L192.313 60.0202C192.435 59.8957 192.474 59.7117 192.413 59.5483C192.38 59.4118 192.27 59.3077 192.132 59.2831L178.775 57.2454C177.663 57.0783 176.709 56.3664 176.232 55.3486L170.282 42.6853C170.228 42.5531 170.098 42.4677 169.955 42.4697C169.812 42.4716 169.685 42.5606 169.634 42.6943L163.69 55.3486C163.215 56.3723 162.259 57.0893 161.143 57.2574L147.808 59.295C147.667 59.317 147.553 59.4216 147.519 59.5602C147.46 59.7211 147.497 59.9019 147.615 60.0262L157.313 69.9507C158.08 70.7432 158.426 71.852 158.245 72.9397L155.968 86.9111C155.931 87.0825 156 87.2594 156.143 87.3605C156.24 87.4367 156.374 87.4456 156.48 87.383L168.368 80.8191C169.358 80.264 170.566 80.264 171.556 80.8191L182.31 86.7508L180.862 89.3742L170.11 83.4351C170.02 83.3861 169.912 83.3861 169.822 83.4351L157.925 90.0005C157.435 90.2686 156.885 90.4087 156.326 90.408Z" fill="#CEFD1E"/>
<path d="M169.962 103.892C171.192 103.892 172.377 103.829 173.51 103.724C174.674 104.337 175.769 105.073 176.777 105.919C179.774 108.316 184.568 111.163 188.223 111.293C189.59 111.316 190.842 112.063 191.51 113.256C192.003 114.342 192.911 115.184 194.03 115.596C195.149 116.017 196.391 115.97 197.476 115.468L216.541 106.721C220.298 104.991 221.946 100.548 220.227 96.7872L210.535 75.6796C210.019 74.5696 209.127 73.6775 208.018 73.1611C211.5 57.0228 204.429 40.4424 190.371 31.7847C176.314 23.127 158.325 24.2736 145.48 34.6459C132.635 45.0182 127.726 62.3623 133.229 77.9278C138.733 93.4934 153.452 103.898 169.962 103.892ZM217.496 98.0368C217.993 99.1204 218.039 100.357 217.625 101.475C217.21 102.593 216.368 103.5 215.284 103.997L196.219 112.744C195.467 113.088 194.579 112.759 194.234 112.008C193.092 109.782 190.824 108.358 188.323 108.298C185.601 108.208 181.403 105.79 178.655 103.582C176.17 101.251 172.941 99.8746 169.539 99.6968C169.389 99.6968 169.37 99.6639 169.329 99.58C169.131 98.7481 169.336 97.8713 169.884 97.2142C170.422 96.4617 171.296 96.0224 172.221 96.0396C172.422 96.0401 172.622 96.0566 172.82 96.089C174.675 96.517 176.462 97.2018 178.127 98.1237C180.796 99.4256 183.097 100.549 184.973 99.574C186.061 98.9278 186.763 97.789 186.852 96.5265C186.899 96.2346 186.858 95.9352 186.735 95.6665L175.176 70.4807C174.841 69.7508 174.92 68.8976 175.385 68.2425C175.849 67.5874 176.628 67.2299 177.428 67.3046C178.227 67.3793 178.926 67.875 179.261 68.6048L185.508 82.2196L188.943 89.7109C189.166 90.1975 189.632 90.528 190.165 90.578C190.698 90.6279 191.217 90.3898 191.527 89.9532C191.837 89.5166 191.89 88.9479 191.667 88.4613L188.221 80.9625C187.731 79.8383 188.232 78.5286 189.348 78.0195C190.464 77.5104 191.782 77.99 192.31 79.0972L193.245 81.1363L195.744 86.5825C196.089 87.3347 196.978 87.6647 197.731 87.3197C198.483 86.9746 198.813 86.0851 198.468 85.333L196.283 80.57C195.765 79.4397 196.261 78.1031 197.391 77.5847C198.522 77.0663 199.858 77.5623 200.377 78.6927L201.001 80.0531L202.562 83.4556C202.908 84.2078 203.797 84.5378 204.549 84.1928C205.301 83.8477 205.631 82.9583 205.286 82.2061L203.721 78.7945C203.204 77.665 203.701 76.3305 204.83 75.8137C205.96 75.297 207.294 75.7937 207.811 76.9232L217.496 98.0368ZM169.962 28.9787C180.868 28.9578 191.192 33.897 198.019 42.402C204.846 50.9069 207.435 62.0548 205.056 72.6981C203.444 72.8829 202.019 73.8304 201.225 75.2451C198.909 73.7188 195.805 74.2569 194.138 76.4737C192.597 74.8022 190.156 74.3112 188.089 75.2571C187.382 75.5794 186.755 76.0566 186.257 76.6535L181.985 67.3403C181.204 65.6373 179.573 64.4806 177.708 64.3059C175.842 64.1312 174.025 64.9651 172.941 66.4934C171.857 68.0217 171.67 70.0122 172.452 71.7152L183.804 96.4591C183.776 96.6256 183.702 96.7811 183.591 96.9086C183.054 97.1947 180.793 96.083 179.443 95.4253C177.516 94.3676 175.447 93.5916 173.3 93.1209C171.081 92.7032 168.819 93.5958 167.484 95.4163C166.285 96.9103 165.942 98.9174 166.577 100.725C147.512 98.8607 133.255 82.3775 134.158 63.2425C135.06 44.1074 150.806 29.0396 169.962 28.9787Z" fill="#CEFD1E"/>
</svg>
