<svg width="328" height="150" viewBox="0 0 328 150" fill="none" xmlns="http://www.w3.org/2000/svg">
<rect width="328" height="150" rx="6" fill="#1D1D1D"/>
<mask id="mask0_6393_14752" style="mask-type:alpha" maskUnits="userSpaceOnUse" x="0" y="0" width="328" height="150">
<rect width="328" height="150" rx="6" fill="#1D1D1D"/>
</mask>
<g mask="url(#mask0_6393_14752)">
</g>
<circle cx="144.5" cy="82.5" r="42.5" fill="#CEFD1E" fill-opacity="0.04"/>
<path d="M113.045 68H112.045V69H113.045V68ZM113.045 60.832H114.045V59.832H113.045V60.832ZM93.0125 60.832H92.0125V61.832H93.0125V60.832ZM93.0125 52.704L92.1082 52.2772L92.0125 52.4799V52.704H93.0125ZM107.541 21.92V20.92H106.907L106.636 21.4932L107.541 21.92ZM117.525 21.92L118.429 22.3468L119.102 20.92H117.525V21.92ZM102.997 52.704L102.092 52.2772L101.419 53.704H102.997V52.704ZM113.045 52.704V53.704H114.045V52.704H113.045ZM113.045 41.184V40.184H112.045V41.184H113.045ZM121.877 41.184H122.877V40.184H121.877V41.184ZM121.877 52.704H120.877V53.704H121.877V52.704ZM125.972 52.704H126.972V51.704H125.972V52.704ZM125.972 60.832V61.832H126.972V60.832H125.972ZM121.877 60.832V59.832H120.877V60.832H121.877ZM121.877 68V69H122.877V68H121.877ZM114.045 68V60.832H112.045V68H114.045ZM113.045 59.832H93.0125V61.832H113.045V59.832ZM94.0125 60.832V52.704H92.0125V60.832H94.0125ZM93.9168 53.1308L108.445 22.3468L106.636 21.4932L92.1082 52.2772L93.9168 53.1308ZM107.541 22.92H117.525V20.92H107.541V22.92ZM116.62 21.4932L102.092 52.2772L103.901 53.1308L118.429 22.3468L116.62 21.4932ZM102.997 53.704H113.045V51.704H102.997V53.704ZM114.045 52.704V41.184H112.045V52.704H114.045ZM113.045 42.184H121.877V40.184H113.045V42.184ZM120.877 41.184V52.704H122.877V41.184H120.877ZM121.877 53.704H125.972V51.704H121.877V53.704ZM124.972 52.704V60.832H126.972V52.704H124.972ZM125.972 59.832H121.877V61.832H125.972V59.832ZM120.877 60.832V68H122.877V60.832H120.877ZM121.877 67H113.045V69H121.877V67Z" fill="#CEFD1E" fill-opacity="0.15"/>
<path d="M146.588 70.4844V97.162C146.588 97.8901 147.178 98.4804 147.906 98.4804C148.635 98.4804 149.225 97.8901 149.225 97.162V70.4844C149.225 69.7563 148.635 69.166 147.906 69.166C147.178 69.166 146.588 69.7563 146.588 70.4844Z" fill="#CEFD1E"/>
<path d="M204.117 88.6963C203.389 88.6963 202.799 89.2866 202.799 90.0146V108.596C202.799 112.327 199.765 115.363 196.037 115.363H155.987C152.258 115.363 149.225 112.327 149.225 108.596V103.387C149.225 102.659 148.635 102.069 147.906 102.069C147.178 102.069 146.588 102.659 146.588 103.387V108.596C146.588 113.781 150.804 118 155.987 118H196.037C201.219 118 205.435 113.781 205.435 108.596V90.0146C205.435 89.2866 204.845 88.6963 204.117 88.6963Z" fill="#CEFD1E"/>
<path d="M147.906 42.55C148.635 42.55 149.225 41.9597 149.225 41.2316V37.4043C149.225 33.6726 152.258 30.6367 155.987 30.6367H196.037C199.765 30.6367 202.799 33.6726 202.799 37.4043V55.783C202.799 56.511 203.389 57.1013 204.117 57.1013C204.845 57.1013 205.435 56.511 205.435 55.783V37.4043C205.435 32.2188 201.219 28 196.036 28H155.986C150.804 28 146.588 32.2188 146.588 37.4043V41.2318C146.588 41.9599 147.178 42.55 147.906 42.55Z" fill="#CEFD1E"/>
<path d="M198.846 57.9802C199.575 57.9802 200.165 57.3899 200.165 56.6619V37.1855C200.165 34.8829 198.293 33.0098 195.991 33.0098H191.82C191.248 33.0098 190.741 33.3791 190.565 33.9237L189.532 37.1285C189.276 37.9243 188.542 38.459 187.707 38.459H164.315C163.48 38.459 162.746 37.9243 162.49 37.1283L161.457 33.9237C161.281 33.3791 160.774 33.0098 160.202 33.0098H156.031C153.729 33.0098 151.857 34.8831 151.857 37.1855V41.2316C151.857 41.9597 152.447 42.55 153.175 42.55C153.904 42.55 154.494 41.9597 154.494 41.2316V37.1855C154.494 36.3368 155.183 35.6465 156.031 35.6465H159.242L159.98 37.9373C160.589 39.8264 162.331 41.0957 164.315 41.0957H187.707C189.691 41.0957 191.433 39.8264 192.042 37.9374L192.78 35.6465H195.991C196.838 35.6465 197.528 36.337 197.528 37.1855V56.6617C197.528 57.3899 198.118 57.9802 198.846 57.9802Z" fill="#CEFD1E"/>
<path d="M153.175 69.1865C152.447 69.1865 151.857 69.7768 151.857 70.5049V108.815C151.857 111.118 153.729 112.991 156.031 112.991H195.991C198.292 112.991 200.164 111.118 200.164 108.815V99.8672C200.164 99.1392 199.574 98.5489 198.846 98.5489C198.118 98.5489 197.528 99.1392 197.528 99.8672V108.815C197.528 109.664 196.838 110.354 195.991 110.354H156.031C155.183 110.354 154.494 109.664 154.494 108.815V70.5049C154.494 69.7768 153.904 69.1865 153.175 69.1865Z" fill="#CEFD1E"/>
<path d="M183.158 35.9072C183.886 35.9072 184.476 35.317 184.476 34.5889C184.476 33.8608 183.886 33.2705 183.158 33.2705H168.868C168.139 33.2705 167.549 33.8608 167.549 34.5889C167.549 35.317 168.139 35.9072 168.868 35.9072H183.158Z" fill="#CEFD1E"/>
<path d="M183.158 104.24H168.868C168.139 104.24 167.549 104.831 167.549 105.559C167.549 106.287 168.139 106.877 168.868 106.877H183.158C183.886 106.877 184.476 106.287 184.476 105.559C184.476 104.831 183.886 104.24 183.158 104.24Z" fill="#CEFD1E"/>
<path d="M161.212 62.5081V49.216C161.212 46.9936 159.405 45.1855 157.183 45.1855H143.946C143.217 45.1855 142.627 45.7758 142.627 46.5039C142.627 47.232 143.217 47.8223 143.946 47.8223H157.183C157.951 47.8223 158.575 48.4475 158.575 49.216V62.5081C158.575 63.2766 157.951 63.9019 157.183 63.9019H139.628C139.34 63.9019 139.06 63.9963 138.831 64.1706L133.637 68.1194V49.216C133.637 48.4475 134.261 47.8223 135.029 47.8223H137.882C138.61 47.8223 139.2 47.232 139.2 46.5039C139.2 45.7758 138.61 45.1855 137.882 45.1855H135.029C132.807 45.1855 131 46.9936 131 49.216V70.7777C131 71.2787 131.284 71.7363 131.733 71.9588C131.918 72.0508 132.119 72.0961 132.318 72.0961C132.601 72.0961 132.882 72.0051 133.116 71.8273L140.073 66.5388H157.183C159.405 66.5386 161.212 64.7305 161.212 62.5081Z" fill="#CEFD1E"/>
<path d="M154.451 52.7754C154.451 52.0473 153.861 51.457 153.133 51.457H139.081C138.352 51.457 137.762 52.0473 137.762 52.7754C137.762 53.5035 138.352 54.0938 139.081 54.0938H153.133C153.861 54.0938 154.451 53.5035 154.451 52.7754Z" fill="#CEFD1E"/>
<path d="M139.081 57.4336C138.352 57.4336 137.762 58.0239 137.762 58.752C137.762 59.48 138.352 60.0703 139.081 60.0703H151.377C152.105 60.0703 152.695 59.48 152.695 58.752C152.695 58.0239 152.105 57.4336 151.377 57.4336H139.081Z" fill="#CEFD1E"/>
<path d="M209.619 66.4941C211.307 64.806 211.307 62.0596 209.619 60.3716C208.802 59.5539 207.715 59.1035 206.559 59.1035C205.402 59.1035 204.315 59.5539 203.498 60.3718L202.201 61.6689C200.426 60.8054 198.464 60.3496 196.432 60.3496C192.903 60.3496 189.586 61.7241 187.091 64.2198L180.753 70.5599L174.798 72.5773C173.725 72.94 172.931 73.8148 172.673 74.9175C172.415 76.0211 172.74 77.1586 173.541 77.9601L178.525 82.9458C176.994 85.334 177.271 88.5555 179.357 90.6422C180.523 91.8082 182.072 92.4503 183.72 92.4503C184.92 92.4503 186.067 92.1102 187.052 91.4756L192.036 96.4611C192.656 97.0807 193.476 97.4151 194.327 97.4151C194.575 97.4151 194.826 97.3866 195.074 97.3286C196.178 97.0713 197.054 96.2771 197.418 95.2039C197.418 95.2036 197.418 95.2034 197.418 95.203L199.434 89.247L205.772 82.9073C208.267 80.4131 209.641 77.0949 209.641 73.5635C209.641 71.5307 209.185 69.568 208.322 67.792L209.619 66.4941ZM205.362 62.2359C205.682 61.9164 206.107 61.7402 206.559 61.7402C207.01 61.7402 207.435 61.9162 207.755 62.2359C208.414 62.8958 208.414 63.9699 207.755 64.6299L206.893 65.4919C206.549 65.0481 206.175 64.6231 205.772 64.2196C205.369 63.8162 204.944 63.4422 204.5 63.0985L205.362 62.2359ZM183.72 89.8134C182.777 89.8134 181.889 89.4457 181.222 88.7781C180.173 87.729 179.922 86.1791 180.47 84.8908L185.109 89.5313C184.676 89.7162 184.206 89.8134 183.72 89.8134ZM203.907 81.0424L198.285 86.6669L190.932 79.3128C190.418 78.7979 189.583 78.7977 189.068 79.3126C188.553 79.8274 188.553 80.6621 189.068 81.1771L196.773 88.8842L194.921 94.3574C194.825 94.6405 194.601 94.7316 194.476 94.7608C194.351 94.7901 194.111 94.807 193.901 94.597L175.406 76.096C175.194 75.8841 175.212 75.6428 175.241 75.5178C175.27 75.3934 175.361 75.1703 175.643 75.0748L181.115 73.2212L184.736 76.8432C184.993 77.1007 185.33 77.2296 185.668 77.2296C186.005 77.2296 186.343 77.1009 186.6 76.8436C187.115 76.3287 187.115 75.4941 186.6 74.9792L183.332 71.7099L188.956 66.084C190.953 64.0866 193.608 62.9864 196.432 62.9864C198.316 62.9864 200.124 63.4761 201.713 64.3951C201.752 64.4209 201.792 64.4445 201.833 64.4657C202.58 64.9112 203.277 65.4527 203.907 66.0838C204.539 66.7161 205.081 67.4141 205.527 68.1628C205.547 68.2013 205.569 68.2391 205.594 68.276C206.514 69.8659 207.004 71.6768 207.004 73.5633C207.004 76.3899 205.904 79.0461 203.907 81.0424Z" fill="#CEFD1E"/>
<path d="M186.063 54.8535C183.882 54.8535 182.108 56.6277 182.108 58.8086C182.108 59.5367 182.698 60.127 183.427 60.127C184.155 60.127 184.745 59.5367 184.745 58.8086C184.745 58.0816 185.336 57.4902 186.063 57.4902C186.791 57.4902 187.381 56.9 187.381 56.1719C187.381 55.4438 186.791 54.8535 186.063 54.8535Z" fill="#CEFD1E"/>
<path d="M186.062 49.2969C180.819 49.2969 176.553 53.5636 176.553 58.8081C176.553 59.5361 177.143 60.1264 177.872 60.1264C178.6 60.1264 179.19 59.5361 179.19 58.8081C179.19 55.0175 182.273 51.9336 186.062 51.9336C186.79 51.9336 187.38 51.3433 187.38 50.6152C187.38 49.8871 186.79 49.2969 186.062 49.2969Z" fill="#CEFD1E"/>
<path d="M210.173 86.8809C210.173 87.609 210.763 88.1992 211.491 88.1992C213.672 88.1992 215.446 86.4251 215.446 84.2441C215.446 83.5161 214.855 82.9258 214.127 82.9258C213.399 82.9258 212.809 83.5161 212.809 84.2441C212.809 84.9712 212.218 85.5625 211.491 85.5625C210.763 85.5625 210.173 86.1528 210.173 86.8809Z" fill="#CEFD1E"/>
<path d="M219.682 82.9258C218.953 82.9258 218.363 83.5161 218.363 84.2441C218.363 88.0349 215.281 91.1188 211.491 91.1188C210.763 91.1188 210.173 91.7091 210.173 92.4371C210.173 93.1652 210.763 93.7555 211.491 93.7555C216.734 93.7555 221 89.4888 221 84.2441C221 83.5161 220.41 82.9258 219.682 82.9258Z" fill="#CEFD1E"/>
<path d="M161.049 92.9336H166.699C167.427 92.9336 168.017 92.3433 168.017 91.6152C168.017 90.8871 167.427 90.2969 166.699 90.2969H161.049C160.321 90.2969 159.73 90.8871 159.73 91.6152C159.73 92.3433 160.321 92.9336 161.049 92.9336Z" fill="#CEFD1E"/>
<path d="M170.209 96.4492H161.049C160.321 96.4492 159.73 97.0395 159.73 97.7676C159.73 98.4957 160.321 99.0859 161.049 99.0859H170.209C170.938 99.0859 171.528 98.4957 171.528 97.7676C171.528 97.0395 170.937 96.4492 170.209 96.4492Z" fill="#CEFD1E"/>
</svg>
