<svg width="27" height="28" viewBox="0 0 27 28" fill="none" xmlns="http://www.w3.org/2000/svg">
<path d="M21.9267 17.5872C21.9267 21.403 17.8153 21.7676 14.9066 21.7848H12.2909V18.3496H17.4929V15.7282H12.2909V12.1648H18.0497V9.39411H9.2408V21.7914H5.87599V6.20857H14.9117C17.5987 6.20857 21.9318 6.60627 21.9318 10.2939C21.9318 12.1172 20.4245 13.4583 18.6689 13.9194C20.8437 14.6157 21.9267 15.7335 21.9267 17.5872ZM13.5 0C6.04417 0 0 6.26802 0 14C0 21.732 6.04417 28 13.5 28C20.9558 28 27 21.732 27 14C27 6.26935 20.9584 0.00264251 13.5038 0H13.5Z" fill="#0071BB"/>
</svg>
