<svg width="56" height="56" viewBox="0 0 56 56" fill="none" xmlns="http://www.w3.org/2000/svg">
<path d="M16.9956 42.4133L17.1374 55.5212H39.5654L36.9932 41.3525L16.9956 42.4133Z" fill="#0D0C0C"/>
<path d="M22.9492 11.315L23.9113 16.1575L27.8072 15.842L26.8925 9.24902L22.9492 11.315Z" fill="#FFAF99"/>
<path d="M23.323 13.196C26.237 12.8969 26.8798 9.9186 26.8798 9.9186L26.0976 9.66504L22.9492 11.3146L23.323 13.196Z" fill="black"/>
<path d="M19.9293 2.53842C18.9174 3.72732 18.3507 5.70929 18.3615 8.97594C18.3737 12.7023 24.9882 14.1316 28.0286 8.59795C30.227 4.59692 26.8397 1.00675 25.3385 1.26359C25.3385 1.26359 21.5478 0.638154 19.9293 2.53842Z" fill="#FFAF99"/>
<path d="M25.1038 3.44693C25.1038 3.44693 26.3528 8.01659 27.6478 7.51605L26.8927 9.24868L27.1397 11.0287C27.1397 11.0287 28.7775 9.48675 29.3466 7.20943C29.7223 5.72049 28.9006 3.09242 26.9989 1.85657C25.6161 0.959262 22.7771 0.209393 20.2411 1.7359C19.6753 2.07679 17.7351 2.55432 18.8282 2.8924C19.6016 3.1314 20.8201 2.54117 20.8201 2.54117C20.8201 2.54117 19.4377 3.46008 20.6961 3.57888C21.4986 3.65447 23.3308 2.68673 23.3308 2.68673C23.3308 2.68673 22.0944 3.37838 22.6734 3.75496C23.3162 4.17614 24.6563 3.83431 25.1038 3.44693Z" fill="black"/>
<path d="M25.0245 1.28919C25.0245 1.28919 24.6817 1.17086 23.9562 0.487667C23.2308 -0.195527 22.2377 -0.0598277 22.4945 0.282004C22.8566 0.763762 23.7266 0.970833 23.7266 0.970833L25.0245 1.28919Z" fill="black"/>
<path d="M19.8813 7.22945C19.867 7.22927 19.8533 7.22465 19.8418 7.21622C19.8303 7.2078 19.8218 7.19601 19.8174 7.1825L19.4887 6.24058C19.4846 6.22793 19.4842 6.21434 19.4878 6.2015C19.4913 6.18866 19.4985 6.17713 19.5085 6.16834C19.5185 6.15955 19.5308 6.15388 19.544 6.15203C19.5572 6.15018 19.5706 6.15223 19.5826 6.15794L20.3362 6.54673C20.3522 6.55495 20.3642 6.56916 20.3697 6.58624C20.3751 6.60333 20.3736 6.62188 20.3654 6.63782C20.3571 6.65376 20.3429 6.66578 20.3259 6.67124C20.3088 6.6767 20.2902 6.67515 20.2743 6.66693L19.6718 6.35609L19.9451 7.13789C19.9481 7.14624 19.9494 7.1551 19.9489 7.16395C19.9484 7.1728 19.9462 7.18147 19.9424 7.18946C19.9385 7.19745 19.9331 7.2046 19.9265 7.21049C19.9199 7.21639 19.9122 7.22092 19.9038 7.22382C19.8967 7.22708 19.8891 7.22899 19.8813 7.22945Z" fill="black"/>
<path d="M20.7598 9.30925C20.1287 9.30925 19.6549 8.85285 19.6329 8.83265C19.6257 8.8267 19.6198 8.81933 19.6156 8.811C19.6114 8.80267 19.609 8.79356 19.6085 8.78425C19.608 8.77494 19.6094 8.76562 19.6127 8.75689C19.616 8.74816 19.621 8.7402 19.6275 8.73351C19.634 8.72682 19.6418 8.72154 19.6505 8.71801C19.6591 8.71449 19.6683 8.71278 19.6777 8.71301C19.687 8.71324 19.6962 8.71539 19.7046 8.71933C19.7131 8.72328 19.7206 8.72893 19.7268 8.73593C19.7315 8.74062 20.2245 9.21393 20.8387 9.1712C21.2209 9.14443 21.573 8.92516 21.8862 8.51946C21.8916 8.51244 21.8984 8.50654 21.9061 8.50213C21.9138 8.49771 21.9223 8.49485 21.9311 8.49372C21.9399 8.49258 21.9489 8.4932 21.9575 8.49552C21.966 8.49784 21.974 8.50183 21.9811 8.50726C21.9881 8.51268 21.994 8.51944 21.9984 8.52714C22.0028 8.53485 22.0057 8.54335 22.0068 8.55215C22.008 8.56096 22.0074 8.5699 22.005 8.57848C22.0027 8.58705 21.9987 8.59508 21.9933 8.60211C21.6552 9.0402 21.2697 9.27685 20.8471 9.30643C20.8194 9.30831 20.7894 9.30925 20.7598 9.30925Z" fill="black"/>
<path d="M22.8153 7.02439C22.7487 7.02451 22.6821 7.01822 22.6167 7.00561C22.0091 6.88681 21.7377 6.25949 21.7245 6.23273C21.7176 6.21616 21.7175 6.19751 21.7242 6.18087C21.731 6.16422 21.7441 6.15096 21.7607 6.14398C21.7773 6.13701 21.7959 6.1369 21.8126 6.14368C21.8292 6.15046 21.8425 6.16357 21.8495 6.18014C21.8518 6.18577 22.1054 6.76895 22.642 6.87272C23.0712 6.9563 23.568 6.72012 24.1174 6.1684C24.123 6.16016 24.1303 6.15325 24.1389 6.14817C24.1474 6.1431 24.157 6.13998 24.1669 6.13903C24.1768 6.13809 24.1869 6.13935 24.1962 6.14272C24.2056 6.14609 24.2141 6.15149 24.2212 6.15854C24.2282 6.16558 24.2336 6.17409 24.237 6.18346C24.2403 6.19283 24.2416 6.20283 24.2406 6.21274C24.2397 6.22266 24.2366 6.23224 24.2315 6.24081C24.2264 6.24938 24.2195 6.25672 24.2113 6.26231C23.7107 6.76989 23.2412 7.02439 22.8153 7.02439Z" fill="black"/>
<path d="M18.8257 6.88426C18.7959 6.88431 18.7662 6.8818 18.7369 6.87674C18.4646 6.82979 18.2613 6.5659 18.1331 6.09307C18.1306 6.08443 18.1298 6.07538 18.1308 6.06644C18.1318 6.0575 18.1346 6.04886 18.139 6.04101C18.1434 6.03317 18.1493 6.02628 18.1564 6.02076C18.1635 6.01523 18.1717 6.01118 18.1804 6.00884C18.1891 6.00649 18.1981 6.00591 18.207 6.00711C18.216 6.00831 18.2245 6.01129 18.2323 6.01585C18.24 6.02042 18.2468 6.02648 18.2522 6.03369C18.2576 6.04091 18.2614 6.04912 18.2636 6.05785C18.3768 6.47528 18.5453 6.70583 18.7599 6.74339C19.2412 6.82744 19.8436 5.97474 19.8498 5.96582C19.8606 5.95237 19.8761 5.94353 19.8932 5.94111C19.9103 5.93868 19.9277 5.94284 19.9418 5.95275C19.956 5.96266 19.9658 5.97757 19.9694 5.99447C19.973 6.01137 19.97 6.02899 19.961 6.04376C19.9361 6.08133 19.3666 6.88426 18.8257 6.88426Z" fill="black"/>
<path d="M26.9093 7.24226C26.9093 7.24226 28.1771 6.3473 28.887 7.71181C29.597 9.07632 27.2464 10.5916 26.4501 9.59517C25.6537 8.59879 26.9093 7.24226 26.9093 7.24226Z" fill="#FFAF99"/>
<path d="M26.6035 8.60446C26.5901 8.60431 26.5772 8.60023 26.5662 8.59273C26.5551 8.58523 26.5466 8.57465 26.5416 8.56231C26.5366 8.54997 26.5353 8.53643 26.538 8.52338C26.5406 8.51033 26.5471 8.49835 26.5565 8.48895C27.2373 7.8081 28.3502 7.85459 28.3971 7.85694C28.4151 7.85781 28.4319 7.86577 28.444 7.87906C28.456 7.89236 28.4623 7.9099 28.4615 7.92784C28.4606 7.94577 28.4526 7.96262 28.4393 7.97469C28.426 7.98675 28.4085 7.99304 28.3906 7.99217C28.3798 7.99217 27.2899 7.94521 26.6532 8.58474C26.6467 8.59124 26.6389 8.59634 26.6304 8.59973C26.6218 8.60312 26.6127 8.60473 26.6035 8.60446Z" fill="black"/>
<path d="M27.4752 9.15951C27.4637 9.15948 27.4523 9.15654 27.4422 9.15096C27.4321 9.14538 27.4236 9.13734 27.4174 9.12758L26.9113 8.30306C26.9066 8.29547 26.9035 8.28705 26.9022 8.27827C26.9008 8.2695 26.9012 8.26054 26.9033 8.2519C26.9054 8.24327 26.9091 8.23513 26.9144 8.22796C26.9196 8.22078 26.9262 8.21471 26.9338 8.21009C26.9414 8.20546 26.9498 8.20237 26.9586 8.201C26.9674 8.19963 26.9763 8.20001 26.985 8.2021C26.9936 8.20419 27.0017 8.20796 27.0089 8.2132C27.0161 8.21844 27.0221 8.22504 27.0268 8.23262L27.5329 9.05668C27.5377 9.06427 27.541 9.07275 27.5425 9.0816C27.5439 9.09046 27.5437 9.09952 27.5416 9.10827C27.5396 9.11701 27.5358 9.12525 27.5305 9.13252C27.5252 9.13979 27.5185 9.14593 27.5109 9.15059C27.5 9.15667 27.4877 9.15975 27.4752 9.15951Z" fill="black"/>
<path d="M28.1583 14.1084L23.1389 15.0475L23.1069 16.1791L16.259 17.1774C14.2449 17.4707 12.3957 18.4562 11.0292 19.9646C7.17089 24.2244 -0.380859 33.2585 0.0149706 38.3169C0.544153 45.0958 11.788 47.7178 15.1969 47.2562C18.6058 46.7947 16.1679 42.1851 16.1679 42.1851C16.1679 42.1851 14.9828 38.9673 11.2442 36.9219L14.4024 33.0852L15.9304 45.1193L37.6846 44.6314L37.4117 30.7079L43.375 36.427C43.375 36.427 38.7772 39.8026 36.9168 43.0242L38.1302 46.5289C38.1302 46.5289 53.4037 46.8003 55.8204 38.7053C57.392 33.4421 48.2734 22.4927 43.0515 17.7559C41.5048 16.3533 39.3054 15.9133 37.2183 15.9758L28.4246 15.9382L28.1583 14.1084Z" fill="#FFFEF2"/>
<path d="M37.4019 20.6165L37.3695 28.1499L37.4019 31.8218L32.5862 32.8051L28.394 23.1723L30.0957 19.4365L37.4019 20.6165Z" fill="#FFFEF2"/>
<path d="M40.4351 38.89C40.4351 38.89 45.2277 34.519 48.5066 34.0227C51.7855 33.5264 52.441 38.89 52.441 38.89L46.2589 43.1582H41.8921L40.4351 38.89Z" fill="#FFFEF2"/>
<path d="M27.7658 55.5896C27.7522 55.5897 27.7389 55.5857 27.7276 55.5781C27.7164 55.5704 27.7077 55.5596 27.7029 55.5469C27.292 54.5139 26.8107 53.6555 26.2675 52.9953C25.8359 52.469 25.3664 52.067 24.872 51.8003C24.0324 51.3472 23.4027 51.4435 23.3966 51.4444C23.3877 51.4462 23.3786 51.4461 23.3697 51.4443C23.3609 51.4424 23.3525 51.4388 23.345 51.4337C23.3376 51.4285 23.3312 51.4219 23.3264 51.4143C23.3216 51.4066 23.3183 51.3981 23.3168 51.3891C23.3153 51.3802 23.3157 51.3711 23.3178 51.3622C23.3199 51.3534 23.3238 51.3452 23.3292 51.3379C23.3346 51.3306 23.3414 51.3245 23.3491 51.3199C23.3569 51.3153 23.3656 51.3123 23.3746 51.3111C23.4013 51.3064 24.0474 51.2054 24.9241 51.6754C25.4354 51.9492 25.9205 52.3619 26.3646 52.9024C26.9173 53.5743 27.4094 54.4472 27.8273 55.4966C27.8317 55.507 27.8334 55.5182 27.8323 55.5294C27.8312 55.5405 27.8274 55.5512 27.8212 55.5606C27.8149 55.5699 27.8065 55.5775 27.7966 55.5827C27.7867 55.588 27.7756 55.5906 27.7644 55.5905L27.7658 55.5896Z" fill="white"/>
<path d="M43.1721 36.5738C43.1582 36.5739 43.1446 36.5697 43.1332 36.5618C43.1218 36.5539 43.113 36.5427 43.1082 36.5297C43.1034 36.5166 43.1027 36.5024 43.1062 36.489C43.1098 36.4755 43.1174 36.4635 43.128 36.4545C44.114 35.6094 45.7476 34.9088 46.945 34.4721C48.2404 33.9997 49.3181 33.7232 49.3289 33.7208C49.3463 33.7164 49.3648 33.7191 49.3802 33.7283C49.3957 33.7375 49.4068 33.7525 49.4113 33.7699C49.4157 33.7873 49.413 33.8058 49.4038 33.8213C49.3946 33.8367 49.3796 33.8479 49.3622 33.8523C49.3195 33.8631 45.0747 34.9595 43.2163 36.5578C43.2038 36.5681 43.1882 36.5738 43.1721 36.5738Z" fill="#191919"/>
<path d="M36.7248 25.877C36.7201 25.8775 36.7154 25.8775 36.7107 25.877C36.6931 25.8733 36.6777 25.8628 36.6679 25.8477C36.658 25.8327 36.6545 25.8143 36.6581 25.7967L38.4894 17.0918C38.4906 17.0824 38.4937 17.0735 38.4985 17.0654C38.5033 17.0573 38.5097 17.0503 38.5174 17.0449C38.525 17.0394 38.5337 17.0356 38.5429 17.0337C38.5521 17.0317 38.5616 17.0317 38.5708 17.0337C38.58 17.0356 38.5887 17.0394 38.5964 17.0448C38.604 17.0503 38.6105 17.0572 38.6153 17.0653C38.6201 17.0734 38.6232 17.0823 38.6244 17.0917C38.6256 17.101 38.6249 17.1104 38.6223 17.1195L36.791 25.8244C36.7874 25.8393 36.779 25.8526 36.767 25.8621C36.755 25.8717 36.7401 25.8769 36.7248 25.877Z" fill="#191919"/>
<path d="M14.4166 33.4639C14.3993 33.4639 14.3827 33.4573 14.3702 33.4456C14.3576 33.4338 14.35 33.4177 14.349 33.4005L14.0968 29.2055C14.0957 29.1876 14.1019 29.17 14.1138 29.1565C14.1257 29.1431 14.1425 29.135 14.1604 29.1339C14.1784 29.1328 14.196 29.139 14.2094 29.1509C14.2228 29.1628 14.231 29.1796 14.232 29.1975L14.4842 33.392C14.4847 33.4009 14.4836 33.4098 14.4807 33.4182C14.4778 33.4267 14.4733 33.4344 14.4674 33.4411C14.4615 33.4478 14.4544 33.4532 14.4464 33.4571C14.4384 33.461 14.4297 33.4633 14.4208 33.4639H14.4166Z" fill="#191919"/>
<path d="M13.5421 24.331H13.5351C13.5172 24.329 13.5009 24.3201 13.4897 24.3061C13.4784 24.2921 13.4731 24.2742 13.475 24.2564L13.9793 19.4308C13.9811 19.413 13.99 19.3966 14.004 19.3852C14.0179 19.3739 14.0358 19.3686 14.0537 19.3705C14.0716 19.3724 14.088 19.3812 14.0993 19.3952C14.1106 19.4092 14.1159 19.427 14.114 19.4449L13.6097 24.2705C13.6079 24.2871 13.6 24.3025 13.5875 24.3137C13.575 24.3248 13.5589 24.331 13.5421 24.331Z" fill="#191919"/>
<path d="M11.2448 36.9907C11.2316 36.9906 11.2187 36.9867 11.2077 36.9794C11.2011 36.9752 10.5663 36.5568 9.47554 36.1276C8.01369 35.5533 6.46733 35.2233 4.89837 35.151C4.88039 35.1501 4.86347 35.1422 4.85133 35.1289C4.83918 35.1156 4.83279 35.098 4.83356 35.0801C4.83392 35.0712 4.83604 35.0624 4.83982 35.0543C4.84359 35.0463 4.84895 35.039 4.85554 35.033C4.86214 35.0271 4.86987 35.0224 4.87827 35.0195C4.88667 35.0165 4.89558 35.0152 4.90447 35.0157C6.48996 35.0895 8.05252 35.4235 9.52953 36.0046C10.632 36.4413 11.2758 36.8639 11.2824 36.8681C11.2898 36.873 11.2962 36.8793 11.3012 36.8867C11.3062 36.894 11.3097 36.9023 11.3115 36.9111C11.3133 36.9198 11.3133 36.9288 11.3116 36.9375C11.3099 36.9463 11.3065 36.9546 11.3016 36.962C11.2952 36.9711 11.2866 36.9784 11.2767 36.9834C11.2668 36.9884 11.2559 36.9909 11.2448 36.9907Z" fill="#191919"/>
<path d="M9.50528 35.591C9.49544 35.5911 9.48569 35.589 9.47676 35.5848C9.46783 35.5807 9.45994 35.5746 9.45363 35.5671C8.50326 34.434 7.17867 33.8837 6.23488 33.6213C5.63451 33.451 5.01663 33.3498 4.3933 33.3198C4.37536 33.3198 4.35817 33.3127 4.34549 33.3C4.33281 33.2873 4.32568 33.2701 4.32568 33.2522C4.32568 33.2343 4.33281 33.2171 4.34549 33.2044C4.35817 33.1917 4.37536 33.1846 4.3933 33.1846C5.02756 33.2147 5.65631 33.3172 6.26727 33.4902C7.22985 33.7579 8.58121 34.3204 9.55412 35.4793C9.5651 35.493 9.57034 35.5104 9.56877 35.5279C9.56719 35.5454 9.55891 35.5616 9.54566 35.5732C9.53451 35.5834 9.52033 35.5896 9.50528 35.591Z" fill="#191919"/>
<path d="M23.8053 4.48778C23.7881 4.4882 23.7714 4.48217 23.7584 4.47088C23.3827 4.13421 22.9719 4.01541 22.5376 4.11637C22.3374 4.16323 22.1491 4.251 21.9844 4.37415C21.9706 4.3856 21.9528 4.3911 21.9349 4.38943C21.917 4.38776 21.9006 4.37905 21.8891 4.36523C21.8776 4.3514 21.8722 4.3336 21.8738 4.31572C21.8755 4.29784 21.8842 4.28136 21.898 4.26991C22.0769 4.13379 22.2825 4.03699 22.5014 3.98583C22.8343 3.90742 23.3381 3.91023 23.8509 4.36992C23.8612 4.37917 23.8684 4.39134 23.8715 4.40481C23.8746 4.41827 23.8736 4.43237 23.8685 4.44521C23.8634 4.45805 23.8544 4.46902 23.8429 4.47663C23.8313 4.48424 23.8178 4.48813 23.8039 4.48778H23.8053Z" fill="black"/>
<path d="M20.2342 4.35738C20.2227 4.3574 20.2114 4.35447 20.2014 4.34888C20.1913 4.34329 20.1829 4.33522 20.1769 4.32545C20.1746 4.32169 19.9233 3.92727 19.5393 3.87796C19.3134 3.84885 19.0819 3.94464 18.8509 4.16204C18.8378 4.1745 18.8203 4.18124 18.8023 4.1808C18.7842 4.18036 18.7671 4.17277 18.7546 4.15969C18.7422 4.14662 18.7354 4.12913 18.7359 4.11108C18.7363 4.09303 18.7439 4.07589 18.757 4.06344C19.0185 3.81645 19.2876 3.70893 19.5552 3.74367C20.0036 3.8019 20.2783 4.23576 20.29 4.25407C20.2948 4.26167 20.2981 4.27014 20.2996 4.27899C20.3011 4.28785 20.3008 4.29692 20.2987 4.30566C20.2967 4.3144 20.2929 4.32264 20.2876 4.32991C20.2823 4.33718 20.2757 4.34332 20.268 4.34798C20.2578 4.35412 20.2461 4.35737 20.2342 4.35738Z" fill="black"/>
<path d="M17.8692 40.7129L15.3181 40.5472C14.8955 40.5195 14.5434 40.9402 14.5405 41.4811C14.5373 42.038 14.9016 42.4972 15.3388 42.4864L17.8875 42.4221C18.2631 42.4127 18.5486 42.0131 18.5237 41.5351C18.4979 41.0923 18.2138 40.7374 17.8692 40.7129Z" fill="#FFA992"/>
<path d="M18.0889 44.2246L15.0368 44.2481C14.7058 44.2481 14.4109 43.9532 14.3296 43.5349L14.3127 43.4489C14.2019 42.878 14.5287 42.3403 14.9805 42.3497L18.0475 42.4122C18.4157 42.4197 18.726 42.7939 18.7584 43.2691C18.7951 43.7861 18.4894 44.2214 18.0889 44.2246Z" fill="#FFA992"/>
<path d="M18.0687 44.918C18.0321 44.5278 17.7687 44.2292 17.4494 44.217L15.4186 44.1381C15.0899 44.1254 14.8058 44.4198 14.7612 44.8203L14.7387 45.0208C14.6833 45.512 15.0044 45.944 15.4068 45.9205L17.4602 45.7989C17.832 45.7773 18.111 45.373 18.0687 44.918Z" fill="#FFA992"/>
<path d="M17.6437 46.3383C17.5751 46.0388 17.3643 45.8256 17.1328 45.8218L15.4565 45.7979C15.1828 45.7937 14.9733 46.0829 14.987 46.4473L14.9949 46.6769C15.009 47.0765 15.2823 47.3958 15.5786 47.3591L17.2474 47.154C17.5469 47.1169 17.7343 46.7328 17.6437 46.3383Z" fill="#FFA992"/>
<g style="mix-blend-mode:overlay">
<path d="M17.743 42.3022C17.6599 42.3018 17.5776 42.285 17.501 42.2528C17.4244 42.2205 17.3549 42.1735 17.2964 42.1144C17.2307 42.0487 17.1786 41.9707 17.1431 41.8848C17.1077 41.7989 17.0896 41.7068 17.0898 41.6139C17.0898 41.2331 17.3805 40.9213 17.7411 40.9189H17.7453C17.8285 40.9194 17.9107 40.9362 17.9873 40.9684C18.0639 41.0006 18.1335 41.0477 18.1919 41.1068C18.2578 41.1723 18.3101 41.2503 18.3455 41.3363C18.381 41.4222 18.399 41.5143 18.3985 41.6073C18.3985 41.9881 18.1078 42.2999 17.7472 42.3022H17.743ZM17.743 41.0345H17.7397C17.4425 41.0345 17.2021 41.296 17.2035 41.6129C17.2031 41.6907 17.2181 41.7677 17.2477 41.8396C17.2772 41.9115 17.3208 41.9768 17.3758 42.0318C17.4237 42.08 17.4806 42.1183 17.5433 42.1445C17.6059 42.1707 17.6732 42.1842 17.7411 42.1844H17.7444C18.0412 42.1844 18.2816 41.9228 18.2802 41.6059C18.2806 41.5282 18.2656 41.4512 18.236 41.3794C18.2065 41.3076 18.1629 41.2423 18.1078 41.1875C18.0116 41.0914 17.8814 41.037 17.7453 41.0363L17.743 41.0345Z" fill="black"/>
</g>
<g style="mix-blend-mode:overlay">
<path d="M17.9246 43.9961C17.8414 43.9956 17.7591 43.9788 17.6824 43.9466C17.6057 43.9144 17.5361 43.8674 17.4776 43.8082C17.4118 43.7426 17.3597 43.6645 17.3243 43.5786C17.2888 43.4927 17.2707 43.4006 17.271 43.3077C17.271 42.9264 17.5616 42.6147 17.9222 42.6123H17.9265C18.0096 42.6127 18.0919 42.6295 18.1685 42.6617C18.2451 42.6939 18.3146 42.741 18.373 42.8001C18.439 42.8657 18.4913 42.9437 18.5268 43.0296C18.5624 43.1155 18.5805 43.2077 18.5801 43.3007C18.5801 43.6815 18.2895 43.9932 17.9284 43.9961H17.9246ZM17.9246 42.7283H17.9213C17.6241 42.7283 17.3837 42.9893 17.3851 43.3068C17.3848 43.3844 17.3999 43.4614 17.4294 43.5332C17.459 43.605 17.5025 43.6702 17.5574 43.7251C17.6053 43.7733 17.6622 43.8116 17.7249 43.8378C17.7876 43.864 17.8548 43.8776 17.9227 43.8777H17.926C18.2228 43.8777 18.4632 43.6167 18.4618 43.2993C18.4623 43.2216 18.4473 43.1446 18.4178 43.0728C18.3883 43.001 18.3448 42.9358 18.2899 42.8809C18.1933 42.7847 18.0628 42.7304 17.9265 42.7297L17.9246 42.7283Z" fill="black"/>
</g>
<g style="mix-blend-mode:overlay">
<path d="M17.3786 45.554C17.3016 45.5544 17.2253 45.5397 17.154 45.5106C17.0827 45.4815 17.0178 45.4387 16.9631 45.3845C16.9106 45.3333 16.8689 45.2722 16.8402 45.2047C16.8116 45.1372 16.7967 45.0647 16.7964 44.9915C16.7984 44.839 16.8606 44.6935 16.9695 44.5868C17.0785 44.48 17.2252 44.4208 17.3777 44.4219H17.3819C17.5373 44.421 17.6868 44.4818 17.7975 44.5909C17.8499 44.6422 17.8916 44.7034 17.9201 44.771C17.9486 44.8385 17.9634 44.9111 17.9637 44.9844C17.9618 45.1369 17.8997 45.2823 17.7908 45.3891C17.682 45.4958 17.5353 45.5551 17.3828 45.554H17.3786ZM17.3814 44.5379H17.3781C17.2564 44.5365 17.139 44.5834 17.0517 44.6683C16.9644 44.7532 16.9143 44.8692 16.9124 44.991C16.9127 45.049 16.9246 45.1064 16.9472 45.1598C16.9698 45.2133 17.0028 45.2617 17.0443 45.3023C17.1334 45.3899 17.2536 45.4387 17.3786 45.438H17.3819C17.5036 45.4393 17.6209 45.3923 17.7082 45.3074C17.7954 45.2226 17.8456 45.1066 17.8477 44.9849C17.8474 44.9268 17.8356 44.8694 17.8129 44.816C17.7903 44.7626 17.7573 44.7142 17.7158 44.6736C17.6717 44.63 17.6195 44.5956 17.5622 44.5723C17.5048 44.549 17.4434 44.5373 17.3814 44.5379Z" fill="black"/>
</g>
<g style="mix-blend-mode:overlay">
<path d="M17.1372 47.01C17.0255 47.0093 16.9186 46.9644 16.84 46.8851C16.7473 46.7911 16.6955 46.6644 16.6958 46.5325C16.6958 46.2672 16.8921 46.0507 17.1358 46.0488H17.1381C17.2498 46.0495 17.3567 46.0945 17.4353 46.1737C17.5284 46.2676 17.5804 46.3946 17.58 46.5268C17.58 46.7917 17.3837 47.0086 17.14 47.01H17.1372ZM17.1372 46.1648C16.9574 46.1648 16.8118 46.3301 16.8127 46.5315C16.8123 46.6328 16.8518 46.7301 16.9226 46.8025C16.9796 46.8601 17.0571 46.8928 17.1381 46.8936C17.318 46.8936 17.4635 46.7278 17.4631 46.5268C17.4634 46.4255 17.4237 46.3281 17.3527 46.2559C17.2959 46.1986 17.2188 46.166 17.1381 46.1653L17.1372 46.1648Z" fill="black"/>
</g>
<path d="M14.8362 42.3834C14.8332 42.3709 14.8341 42.3578 14.839 42.3459C14.8407 42.3406 14.8436 42.3357 14.8474 42.3317C14.8512 42.3277 14.8559 42.3246 14.8611 42.3226C14.8663 42.3207 14.8719 42.32 14.8774 42.3205C14.883 42.321 14.8883 42.3228 14.893 42.3257C14.9968 42.3933 15.2118 42.4402 15.3349 42.437L18.0338 42.4069C18.045 42.4094 18.055 42.4156 18.0622 42.4245C18.0694 42.4334 18.0733 42.4445 18.0733 42.456C18.0733 42.4674 18.0694 42.4785 18.0622 42.4875C18.055 42.4964 18.045 42.5026 18.0338 42.505L15.3358 42.5351C15.2001 42.5384 14.9747 42.4881 14.855 42.4125C14.8455 42.4054 14.8388 42.3951 14.8362 42.3834Z" fill="black"/>
<path d="M14.9809 44.3041C14.9797 44.2979 14.9797 44.2915 14.9809 44.2853C14.9808 44.2795 14.9818 44.2737 14.984 44.2684C14.9861 44.263 14.9893 44.2581 14.9934 44.254C14.9975 44.2499 15.0024 44.2466 15.0077 44.2444C15.0131 44.2422 15.0188 44.2411 15.0246 44.2412C15.1908 44.2599 15.8407 44.2783 15.9604 44.2745L17.5714 44.2275C17.5831 44.2284 17.5939 44.2338 17.6015 44.2426C17.6092 44.2514 17.6131 44.2629 17.6123 44.2745C17.6133 44.2862 17.6098 44.2979 17.6026 44.3072C17.5954 44.3165 17.5849 44.3228 17.5733 44.3247L15.9623 44.3717C15.8416 44.3754 15.1852 44.3571 15.0171 44.3379C15.0083 44.3368 15 44.3329 14.9935 44.3268C14.987 44.3208 14.9826 44.3128 14.9809 44.3041Z" fill="black"/>
<path d="M15.1208 45.9443C15.1199 45.938 15.1199 45.9317 15.1208 45.9255C15.1203 45.9195 15.121 45.9135 15.123 45.9078C15.1249 45.9021 15.128 45.8969 15.1321 45.8925C15.1361 45.8881 15.1411 45.8845 15.1466 45.8821C15.1521 45.8797 15.158 45.8785 15.164 45.8785C15.3284 45.8973 16.3182 45.8588 16.483 45.8438C16.6365 45.8302 17.1404 45.8086 17.162 45.8076C17.1678 45.808 17.1734 45.8095 17.1786 45.812C17.1839 45.8146 17.1885 45.8182 17.1924 45.8225C17.1962 45.8269 17.1991 45.832 17.201 45.8375C17.2029 45.843 17.2037 45.8488 17.2033 45.8546C17.2044 45.8663 17.2011 45.8781 17.1939 45.8874C17.1868 45.8968 17.1764 45.9032 17.1648 45.9053C17.1596 45.9053 16.6407 45.9274 16.4886 45.9414C16.3365 45.9555 15.3345 45.9959 15.1565 45.9757C15.1481 45.9745 15.1403 45.9709 15.1339 45.9653C15.1276 45.9598 15.123 45.9524 15.1208 45.9443Z" fill="black"/>
<path d="M38.9717 42.1264C39.0044 41.7709 39.0044 41.4132 38.9717 41.0577C38.9491 40.8126 38.8778 40.5746 38.7618 40.3575C38.6459 40.1404 38.4878 39.9487 38.2967 39.7936C38.1056 39.6385 37.8854 39.5232 37.6491 39.4544C37.4128 39.3856 37.1652 39.3648 36.9207 39.3931L34.1729 39.7091C34.0927 39.7183 34.0155 39.7448 33.9465 39.7867C33.8776 39.8287 33.8185 39.885 33.7734 39.952C33.7283 40.0189 33.6983 40.0948 33.6854 40.1745C33.6725 40.2542 33.677 40.3357 33.6987 40.4135C33.7599 40.636 33.8954 40.8309 34.0828 40.9657C34.2701 41.1005 34.4979 41.1671 34.7284 41.1544L36.5887 41.0769L38.9717 42.1264Z" fill="#FFA992"/>
<path d="M38.6019 44.56L39.1184 43.5904C39.1929 43.4524 39.2358 43.2996 39.2437 43.1429C39.2587 42.8182 39.1836 42.4956 39.0266 42.2108C38.8697 41.9261 38.637 41.6903 38.3544 41.5296L37.9074 41.2751C37.5935 41.0966 37.2421 40.9943 36.8815 40.9765C36.5208 40.9586 36.161 41.0257 35.831 41.1722L33.8153 42.0644C32.8424 42.4968 33.4194 43.4561 34.2961 43.5838C34.3843 43.5967 34.4732 43.6033 34.5623 43.6036C35.3545 43.6036 36.9627 42.8931 36.9627 42.8931L38.6019 44.56Z" fill="#FFA992"/>
<path d="M38.6461 45.2798C38.6461 45.2798 39.0757 43.8284 38.8362 43.3077C38.4306 42.4282 37.398 42.0582 36.5542 42.4851L34.3004 43.6251C34.2341 43.66 34.176 43.7088 34.13 43.768C34.084 43.8272 34.0513 43.8956 34.0339 43.9685C34.0165 44.0414 34.0149 44.1172 34.0292 44.1908C34.0435 44.2644 34.0734 44.3341 34.1168 44.3952C34.2291 44.5561 34.3883 44.6785 34.5728 44.7455C34.7877 44.8212 35.0232 44.8139 35.2329 44.7248L36.8007 44.0731L38.6461 45.2798Z" fill="#FFA992"/>
<path d="M38.765 44.9655C38.5955 44.0419 37.7522 43.5658 37.015 43.8855L35.0476 44.7387C34.803 44.8443 34.6875 45.1941 34.8039 45.474C34.869 45.6381 34.984 45.7775 35.1326 45.8726C35.2123 45.9219 35.3019 45.9527 35.3951 45.9628C35.4882 45.9729 35.5824 45.962 35.6707 45.9309L36.6276 45.5519C37.9461 45.1087 37.8118 45.7473 38.0696 47.2634C38.0673 47.2663 38.982 46.1539 38.765 44.9655Z" fill="#FFA992"/>
<g style="mix-blend-mode:overlay">
<path d="M34.0746 40.64C33.8206 40.5654 33.6407 40.3987 33.6295 40.1958C33.6215 40.0517 33.6976 39.9141 33.8441 39.8042C34.0022 39.6942 34.1887 39.6319 34.3812 39.6249C34.8118 39.6009 35.1757 39.8178 35.1917 40.109C35.2076 40.4001 34.871 40.656 34.4404 40.6799C34.3171 40.6876 34.1934 40.6741 34.0746 40.64ZM34.7268 39.7479C34.6161 39.7165 34.5008 39.7041 34.3859 39.7112C34.2107 39.7173 34.0409 39.7735 33.8966 39.8732C33.7746 39.9634 33.7112 40.0756 33.7173 40.1897C33.7309 40.432 34.053 40.6123 34.4352 40.5907C34.8174 40.5691 35.1175 40.3559 35.1039 40.1122C35.0949 39.9488 34.9433 39.8127 34.7249 39.7512L34.7268 39.7479Z" fill="black"/>
</g>
<g style="mix-blend-mode:overlay">
<path d="M33.8016 43.2075C33.5945 43.1465 33.4367 43.0164 33.379 42.8352C33.3278 42.6671 33.3705 42.482 33.4997 42.3144C33.6401 42.1415 33.8302 42.0158 34.0444 41.9543C34.5139 41.8101 34.9834 41.9707 35.0886 42.3121C35.1938 42.6534 34.8947 43.0483 34.4233 43.1925C34.2218 43.2572 34.0059 43.2624 33.8016 43.2075ZM34.6468 42.0233C34.4576 41.9727 34.2578 41.9779 34.0716 42.0383C33.8749 42.0941 33.7 42.2088 33.5706 42.367C33.4593 42.5116 33.4217 42.668 33.4645 42.8084C33.5551 43.1033 33.9739 43.2376 34.3989 43.1075C34.8238 42.9774 35.0961 42.6318 35.006 42.337C34.9623 42.1853 34.8252 42.0754 34.6472 42.0233H34.6468Z" fill="black"/>
</g>
<g style="mix-blend-mode:overlay">
<path d="M34.3845 44.5783C34.3149 44.5617 34.2501 44.5294 34.1949 44.4839C34.1397 44.4384 34.0957 44.3809 34.0661 44.3158C34.007 44.1749 34.0332 44.0078 34.1393 43.8463C34.2592 43.6837 34.4212 43.5569 34.6077 43.4795C34.7943 43.402 34.9984 43.3769 35.1982 43.4068C35.386 43.4443 35.5222 43.5429 35.5809 43.6847C35.6396 43.8265 35.6137 43.9928 35.5076 44.1543C35.3878 44.317 35.2259 44.4439 35.0393 44.5213C34.8527 44.5988 34.6486 44.6238 34.4488 44.5938C34.4267 44.5891 34.4051 44.5844 34.3845 44.5783ZM34.1469 44.2825C34.1938 44.3961 34.3075 44.4764 34.4657 44.5078C34.6484 44.5345 34.835 44.5112 35.0056 44.4403C35.1761 44.3695 35.3243 44.2537 35.4344 44.1054C35.5241 43.9716 35.5471 43.835 35.4996 43.7209C35.4522 43.6068 35.3395 43.5265 35.1813 43.4955C34.9985 43.4687 34.8119 43.4919 34.6412 43.5627C34.4706 43.6335 34.3223 43.7492 34.2121 43.8974C34.1229 44.0317 34.0999 44.1684 34.1469 44.2825Z" fill="black"/>
</g>
<g style="mix-blend-mode:overlay">
<path d="M35.0794 45.679C35.014 45.6634 34.953 45.6331 34.9009 45.5905C34.8489 45.5479 34.8072 45.494 34.7789 45.433C34.6672 45.1639 34.8949 44.8127 35.2865 44.6498C35.4605 44.5738 35.6529 44.5503 35.8401 44.5822C36.0167 44.6169 36.1444 44.7099 36.1998 44.8432C36.3115 45.1128 36.0838 45.464 35.6917 45.6264C35.4993 45.7121 35.2836 45.7307 35.0794 45.679ZM34.8601 45.3973C34.9541 45.6217 35.3114 45.687 35.6584 45.5433C36.0054 45.3996 36.2115 45.0991 36.1185 44.8747C36.0744 44.769 35.9697 44.6949 35.8227 44.6657C35.6527 44.6376 35.4781 44.6594 35.3203 44.7287C34.9733 44.8728 34.7667 45.1724 34.8601 45.3973Z" fill="black"/>
</g>
<path d="M34.7934 45.5091C34.7883 45.5075 34.7837 45.5048 34.7798 45.5013C34.7759 45.4977 34.7728 45.4933 34.7708 45.4884C34.6473 45.1926 34.7708 44.8198 35.0328 44.7066L37.0002 43.8535C37.1693 43.7797 37.3528 43.7454 37.5371 43.753C37.7214 43.7606 37.9014 43.8101 38.0638 43.8976C38.4446 44.1005 38.7127 44.4878 38.7991 44.9597C38.8001 44.9687 38.7977 44.9777 38.7923 44.985C38.787 44.9922 38.7791 44.9972 38.7702 44.9989C38.7613 45.0005 38.7522 44.9988 38.7446 44.9939C38.7369 44.9891 38.7314 44.9816 38.7291 44.9729C38.6465 44.5221 38.392 44.153 38.0304 43.9601C37.8778 43.8767 37.708 43.8297 37.5342 43.8225C37.3605 43.8153 37.1874 43.8483 37.0284 43.9187L35.061 44.7719C34.8337 44.8705 34.7267 45.1987 34.8361 45.4612C34.8379 45.4655 34.8389 45.4702 34.8389 45.4749C34.839 45.4797 34.8381 45.4843 34.8363 45.4887C34.8345 45.4931 34.8318 45.497 34.8285 45.5004C34.8252 45.5037 34.8212 45.5064 34.8168 45.5082C34.8093 45.511 34.8011 45.5114 34.7934 45.5091Z" fill="black"/>
<path d="M34.8036 45.528C34.7987 45.5287 34.7936 45.5287 34.7886 45.528C34.7807 45.5258 34.7735 45.5219 34.7673 45.5164C34.7612 45.5109 34.7565 45.5042 34.7534 45.4966C34.6257 45.1914 34.7534 44.8068 35.0253 44.6899L36.9927 43.8362C37.1645 43.7618 37.351 43.7274 37.5381 43.7355C37.7251 43.7437 37.9079 43.7942 38.0726 43.8832C38.4586 44.0893 38.73 44.4814 38.8183 44.9594C38.8196 44.9665 38.8194 44.9737 38.8179 44.9807C38.8164 44.9877 38.8135 44.9944 38.8094 45.0003C38.8011 45.0122 38.7884 45.0205 38.7741 45.0233C38.7598 45.0259 38.7451 45.0227 38.7331 45.0144C38.7211 45.0061 38.7129 44.9934 38.7103 44.9791C38.6286 44.5345 38.3774 44.1701 38.021 43.9799C37.8708 43.8979 37.7037 43.8516 37.5327 43.8446C37.3617 43.8376 37.1914 43.8701 37.0349 43.9395L35.0675 44.7927C34.8497 44.8866 34.7473 45.2036 34.853 45.4567C34.8557 45.4633 34.8572 45.4705 34.8572 45.4777C34.8572 45.4849 34.8558 45.492 34.853 45.4987C34.8503 45.5054 34.8463 45.5114 34.8412 45.5166C34.8361 45.5217 34.83 45.5257 34.8234 45.5285C34.8168 45.5296 34.8101 45.5294 34.8036 45.528ZM34.7994 45.4886C34.8029 45.49 34.8068 45.49 34.8102 45.4886C34.8141 45.4868 34.8171 45.4837 34.8187 45.4797C34.8203 45.4758 34.8203 45.4714 34.8187 45.4675C34.7055 45.1961 34.8187 44.857 35.0535 44.7528L37.0209 43.8996C37.1825 43.8279 37.3585 43.7944 37.5353 43.8017C37.712 43.8091 37.8846 43.857 38.0398 43.9419C38.4065 44.1372 38.6652 44.5115 38.7488 44.9679C38.7491 44.97 38.7499 44.972 38.751 44.9738C38.7522 44.9756 38.7536 44.9772 38.7554 44.9784C38.7571 44.9796 38.7591 44.9805 38.7612 44.9809C38.7633 44.9814 38.7655 44.9814 38.7676 44.981C38.7718 44.9802 38.7755 44.9778 38.778 44.9743C38.7804 44.9708 38.7814 44.9664 38.7807 44.9622C38.6953 44.496 38.4304 44.1137 38.0553 43.9133C37.8954 43.8273 37.7181 43.7787 37.5367 43.7712C37.3553 43.7637 37.1746 43.7975 37.0082 43.8701L35.0408 44.7232C34.7891 44.8322 34.6693 45.1928 34.7891 45.4797C34.79 45.4819 34.7914 45.4839 34.7932 45.4856C34.795 45.4872 34.7971 45.4884 34.7994 45.4891V45.4886Z" fill="black"/>
<path d="M34.2917 43.6599C34.2871 43.6586 34.2828 43.6563 34.2791 43.6533C34.2753 43.6502 34.2723 43.6464 34.2701 43.6421C34.2661 43.6338 34.2655 43.6243 34.2684 43.6155C34.2713 43.6068 34.2775 43.5995 34.2856 43.5952L36.5394 42.4556C37.0559 42.195 37.7603 42.2349 38.2538 42.5528C38.5825 42.7641 38.967 43.1876 38.9341 44.0084C38.9336 44.0178 38.9295 44.0266 38.9226 44.033C38.9156 44.0394 38.9065 44.0429 38.897 44.0426C38.8877 44.0421 38.8789 44.038 38.8725 44.031C38.8662 44.0241 38.8629 44.0149 38.8632 44.0055C38.8947 43.22 38.5284 42.8152 38.2153 42.6138C37.741 42.3091 37.0649 42.2706 36.5718 42.5199L34.318 43.6595C34.3139 43.6613 34.3094 43.6623 34.3049 43.6623C34.3004 43.6624 34.2959 43.6616 34.2917 43.6599Z" fill="black"/>
<path d="M38.8971 44.0596H38.8947C38.8875 44.0593 38.8804 44.0576 38.8739 44.0546C38.8673 44.0515 38.8614 44.0472 38.8565 44.0419C38.8516 44.0366 38.8479 44.0303 38.8454 44.0235C38.8429 44.0168 38.8418 44.0096 38.8421 44.0023C38.8731 43.2257 38.5134 42.8285 38.203 42.628C37.7335 42.3265 37.0663 42.2885 36.5784 42.5341L34.3246 43.6737C34.3123 43.68 34.298 43.6814 34.2847 43.6774C34.2775 43.6752 34.2708 43.6717 34.265 43.6669C34.2592 43.6622 34.2544 43.6563 34.2509 43.6497C34.2476 43.6433 34.2457 43.6363 34.2452 43.6291C34.2448 43.6219 34.2457 43.6147 34.248 43.6079C34.2501 43.601 34.2536 43.5946 34.2583 43.5891C34.263 43.5836 34.2688 43.5791 34.2753 43.576L36.5291 42.4359C37.0498 42.1725 37.7631 42.2129 38.2627 42.5341C38.5956 42.7482 38.9853 43.1769 38.952 44.0056C38.9519 44.0128 38.9505 44.0198 38.9477 44.0264C38.9449 44.033 38.9408 44.039 38.9357 44.044C38.9306 44.049 38.9246 44.053 38.9179 44.0557C38.9113 44.0583 38.9042 44.0597 38.8971 44.0596ZM37.2954 42.3345C37.6233 42.332 37.9451 42.4224 38.2237 42.5951C38.5411 42.7994 38.9126 43.2093 38.8811 44.0037C38.881 44.008 38.8825 44.0122 38.8854 44.0153C38.8883 44.0185 38.8923 44.0204 38.8966 44.0206C38.9008 44.0207 38.9049 44.0191 38.9081 44.0162C38.9112 44.0133 38.9131 44.0094 38.9135 44.0052C38.9459 43.1947 38.5665 42.7763 38.242 42.5674C37.7528 42.2533 37.0559 42.2138 36.5469 42.4735L34.2931 43.6131C34.2912 43.614 34.2896 43.6154 34.2882 43.617C34.2868 43.6186 34.2858 43.6205 34.2851 43.6225C34.2843 43.6244 34.2839 43.6265 34.2839 43.6286C34.2839 43.6307 34.2843 43.6327 34.2851 43.6347C34.2861 43.6367 34.2875 43.6385 34.2892 43.64C34.2909 43.6414 34.2928 43.6425 34.295 43.6431C34.2988 43.6445 34.3029 43.6445 34.3067 43.6431L36.5606 42.5031C36.789 42.3904 37.0407 42.3327 37.2954 42.3345Z" fill="black"/>
<path d="M38.9618 42.1613C38.9564 42.1594 38.9515 42.1565 38.9472 42.1529C38.9411 42.1468 38.3269 41.5565 37.8888 41.3077C37.5813 41.1281 37.235 41.0251 36.8792 41.0075C36.5235 40.9898 36.1687 41.058 35.8449 41.2063C35.8406 41.2087 35.8358 41.2103 35.8308 41.2108C35.8259 41.2113 35.8209 41.2108 35.8161 41.2092C35.8114 41.2077 35.807 41.2052 35.8033 41.2018C35.7996 41.1985 35.7967 41.1944 35.7946 41.1899C35.7926 41.1854 35.7915 41.1804 35.7915 41.1755C35.7915 41.1705 35.7925 41.1656 35.7945 41.161C35.7965 41.1564 35.7994 41.1523 35.8031 41.149C35.8067 41.1456 35.8111 41.1431 35.8158 41.1415C36.1498 40.9885 36.5158 40.9182 36.8827 40.9364C37.2496 40.9546 37.6068 41.0609 37.9241 41.2462C38.3701 41.4997 38.9711 42.0777 38.9965 42.1022C39.0031 42.1088 39.0068 42.1179 39.0068 42.1273C39.0068 42.1367 39.0031 42.1457 38.9965 42.1524C38.992 42.1568 38.9864 42.1599 38.9803 42.1615C38.9742 42.163 38.9678 42.163 38.9618 42.1613Z" fill="black"/>
<path d="M38.9724 42.181C38.9671 42.1817 38.9617 42.1817 38.9564 42.181C38.948 42.1783 38.9403 42.1738 38.9339 42.1678C38.9278 42.1622 38.3178 41.5748 37.8798 41.3254C37.5747 41.1473 37.2313 41.0451 36.8785 41.0276C36.5257 41.0102 36.1739 41.0778 35.8527 41.225C35.8461 41.2279 35.839 41.2294 35.8318 41.2294C35.8246 41.2294 35.8175 41.2279 35.8109 41.225C35.7974 41.2198 35.7864 41.2095 35.7804 41.1963C35.775 41.1827 35.775 41.1676 35.7804 41.1541C35.7829 41.1473 35.7868 41.1412 35.7918 41.136C35.7969 41.1308 35.8029 41.1268 35.8095 41.124C36.1463 40.9696 36.5152 40.8986 36.8852 40.9169C37.2552 40.9352 37.6153 41.0423 37.9352 41.2292C38.3808 41.4827 38.9856 42.0636 39.0109 42.088C39.0186 42.0956 39.0238 42.1053 39.026 42.1158C39.0282 42.1264 39.0272 42.1374 39.0232 42.1474C39.0192 42.1574 39.0123 42.166 39.0035 42.1721C38.9946 42.1783 38.9841 42.1817 38.9733 42.1819L38.9724 42.181ZM36.7726 40.9841C37.1684 40.9857 37.5569 41.0909 37.8995 41.2893C38.3418 41.541 38.955 42.1317 38.9611 42.1378C38.963 42.1395 38.9652 42.1408 38.9677 42.1415C38.9705 42.1424 38.9735 42.1425 38.9763 42.1417C38.9791 42.141 38.9817 42.1394 38.9837 42.1373C38.9867 42.1342 38.9884 42.1301 38.9884 42.1258C38.9884 42.1215 38.9867 42.1174 38.9837 42.1143C38.9583 42.0899 38.3573 41.5128 37.9155 41.2611C37.6008 41.0774 37.2465 40.9721 36.8826 40.9541C36.5187 40.9362 36.1558 41.006 35.8245 41.1578C35.8226 41.1587 35.8209 41.1599 35.8195 41.1614C35.818 41.163 35.8169 41.1648 35.8162 41.1667C35.8154 41.1687 35.8151 41.1708 35.8152 41.1729C35.8152 41.175 35.8157 41.177 35.8166 41.1789C35.8173 41.181 35.8185 41.1828 35.82 41.1844C35.8216 41.1859 35.8234 41.1871 35.8255 41.1879C35.8294 41.1895 35.8338 41.1895 35.8377 41.1879C36.1316 41.0551 36.4501 40.9856 36.7726 40.9841Z" fill="black"/>
<path d="M16.583 29.92C16.583 29.92 30.3736 34.4117 29.0809 48.262C28.2188 57.4961 10.5337 55.3442 5.47435 55.3442C0.414962 55.3442 -3.79408 49.5434 5.52835 35.1653L2.57771 34.7685C2.51727 34.7604 2.46053 34.7347 2.41447 34.6947C2.36841 34.6547 2.33502 34.6021 2.31841 34.5435C2.30181 34.4848 2.30271 34.4225 2.32099 34.3643C2.33928 34.3061 2.37415 34.2545 2.42135 34.2159C4.40143 32.5973 11.2019 27.1412 14.9236 25.463C14.9999 25.4289 15.0829 25.4123 15.1665 25.4142C15.2501 25.4162 15.3322 25.4367 15.4068 25.4743C15.4815 25.512 15.5469 25.5657 15.5982 25.6318C15.6495 25.6978 15.6855 25.7744 15.7035 25.856L16.583 29.92Z" fill="#FAB200"/>
<path d="M14.714 46.0696C16.3369 41.8835 15.2582 37.5618 12.3047 36.4168C9.35121 35.2718 5.64137 37.7371 4.01851 41.9233C2.39566 46.1094 3.47435 50.4311 6.42782 51.5761C9.3813 52.7211 13.0911 50.2558 14.714 46.0696Z" fill="#FFEBC7"/>
<path d="M5.08951 35.504C5.04089 35.5037 4.99413 35.4852 4.95856 35.4521C4.92298 35.4189 4.90119 35.3736 4.89752 35.3251C4.89385 35.2766 4.90858 35.2286 4.93876 35.1904C4.96894 35.1523 5.01236 35.127 5.06039 35.1194C5.0787 35.1166 6.90291 34.8325 9.24737 33.9991C10.5651 33.5363 11.8404 32.9602 13.0587 32.2772C14.4969 31.4626 15.7379 30.53 16.7484 29.5069C16.7847 29.4716 16.8333 29.452 16.8839 29.4521C16.9344 29.4523 16.983 29.4723 17.019 29.5078C17.055 29.5432 17.0757 29.5914 17.0767 29.642C17.0776 29.6926 17.0587 29.7415 17.024 29.7783C15.9873 30.8301 14.7157 31.7856 13.2446 32.6181C12.0059 33.3117 10.7095 33.8969 9.36991 34.3672C6.99211 35.2124 5.13833 35.4998 5.11955 35.5026C5.10958 35.5038 5.09954 35.5042 5.08951 35.504Z" fill="black"/>
<path d="M7.82228 34.8567C7.81268 34.8566 7.80309 34.8558 7.79362 34.8544C7.74995 34.8483 7.66825 34.8384 7.56448 34.8262C7.15973 34.7792 6.40657 34.6891 5.72197 34.5374C4.50443 34.2679 4.28093 33.9627 4.21942 33.7566C4.14053 33.4964 4.31332 33.28 4.47438 33.1461C4.74625 32.9147 5.22237 32.7282 5.94313 33.1551C6.20036 33.3111 6.43552 33.5009 6.64229 33.7195C6.67437 33.7578 6.69036 33.8071 6.68692 33.8569C6.68349 33.9068 6.66089 33.9534 6.62386 33.9869C6.58683 34.0205 6.53825 34.0384 6.48829 34.037C6.43833 34.0355 6.39087 34.0148 6.35586 33.9791C6.346 33.9683 5.35807 32.8992 4.72418 33.4382C4.62558 33.5223 4.57487 33.5988 4.58849 33.6443C4.6021 33.6899 4.72324 33.92 5.80555 34.1608C6.47137 34.3083 7.21186 34.3956 7.61004 34.4426C7.72085 34.4557 7.80113 34.4651 7.85043 34.4722C7.89905 34.479 7.94326 34.504 7.9741 34.5422C8.00494 34.5804 8.0201 34.6289 8.01652 34.6779C8.01293 34.7268 7.99086 34.7726 7.9548 34.8059C7.91873 34.8392 7.87137 34.8575 7.82228 34.8572V34.8567Z" fill="black"/>
<path d="M11.8731 33.2735C11.8431 33.2736 11.8134 33.2665 11.7867 33.2528C11.764 33.2415 11.7437 33.2259 11.727 33.2067C11.7103 33.1876 11.6976 33.1653 11.6896 33.1412C11.6815 33.1171 11.6784 33.0917 11.6802 33.0663C11.682 33.041 11.6889 33.0163 11.7003 32.9936C11.7036 32.9866 12.0487 32.2949 12.3553 31.5526C12.8427 30.3731 12.8418 30.012 12.8249 29.9195C12.785 29.9303 12.6981 29.9664 12.5432 30.0768C12.5016 30.1069 12.4498 30.1193 12.3991 30.1113C12.3485 30.1032 12.3031 30.0754 12.2729 30.0338C12.2428 29.9923 12.2304 29.9405 12.2385 29.8898C12.2465 29.8391 12.2744 29.7937 12.3159 29.7636C12.4568 29.6626 12.8258 29.3945 13.0761 29.6072C13.2372 29.7439 13.2578 30.0092 13.1437 30.4679C13.0369 30.8608 12.9037 31.2461 12.745 31.6211C12.4248 32.4067 12.0492 33.1589 12.0454 33.1664C12.0294 33.1985 12.0048 33.2254 11.9744 33.2443C11.944 33.2632 11.9089 33.2733 11.8731 33.2735Z" fill="black"/>
<path d="M10.5444 47.2466C10.274 47.5622 9.92321 47.7987 9.52928 47.9312C9.12515 48.0711 8.6844 48.0907 8.20702 47.9899L7.95723 48.9393L7.36277 48.7825L7.61587 47.8218C6.97759 47.5786 6.51336 47.191 6.22318 46.6592C5.93299 46.1273 5.87211 45.4909 6.04053 44.75L7.73089 45.1956C7.64449 45.6739 7.74483 46.022 8.03188 46.2399L8.51975 44.3889C8.15486 44.1625 7.80835 43.9077 7.48345 43.6268C7.23302 43.403 7.04348 43.0983 6.91482 42.7126C6.78616 42.327 6.79603 41.8493 6.94441 41.2796C7.13223 40.569 7.4922 40.0539 8.02436 39.7343C8.55651 39.4147 9.15756 39.314 9.82745 39.4324L10.0777 38.4834L10.6722 38.6402L10.4224 39.5892C11.0563 39.823 11.5075 40.1968 11.7761 40.7105C12.0447 41.2242 12.104 41.8537 11.954 42.599L10.2538 42.151C10.328 41.7194 10.2422 41.4045 9.99647 41.2063L9.51754 43.0221C9.88776 43.2646 10.2426 43.5297 10.5801 43.8161C10.8218 44.0302 11.0096 44.3276 11.1436 44.7082C11.2776 45.0889 11.2707 45.5611 11.1229 46.1248C11.0189 46.5382 10.8209 46.9221 10.5444 47.2466ZM8.66625 42.159C8.73858 42.334 8.84798 42.4911 8.98694 42.6197L9.41611 40.9908C9.24553 40.9801 9.07682 41.0313 8.94092 41.1349C8.80819 41.2376 8.7118 41.4023 8.65169 41.6289C8.59956 41.8026 8.60449 41.9884 8.66577 42.159H8.66625ZM9.1358 46.2666C9.29049 46.1351 9.39839 45.9571 9.44335 45.7591C9.49808 45.5823 9.49027 45.3921 9.42127 45.2205C9.33654 45.0439 9.21256 44.8891 9.05879 44.7678L8.62024 46.4319C8.80613 46.4443 8.9897 46.3852 9.13344 46.2666H9.1358Z" fill="#FAB200"/>
</svg>
