<svg width="57" height="57" viewBox="0 0 57 57" fill="none" xmlns="http://www.w3.org/2000/svg">
<path d="M38.5215 42.0981C38.5215 42.0981 41.6258 46.2426 43.1118 55.2123H14.541C14.541 55.2123 15.3832 48.1045 18.1944 41.208L38.5215 42.0981Z" fill="#0D0C0C"/>
<path d="M22.3828 45.1433C22.4066 45.1469 22.4306 45.1487 22.4546 45.1487C22.604 45.1487 22.7522 45.0762 22.8784 44.9396C23.0175 44.7893 23.1144 44.5769 23.1507 44.3417C23.1871 44.1066 23.1605 43.8749 23.0743 43.6891C22.9833 43.4935 22.838 43.3707 22.6647 43.3435C22.4914 43.3163 22.3146 43.3886 22.1691 43.5472C22.03 43.6975 21.9333 43.9099 21.8968 44.1451C21.8602 44.3802 21.887 44.6119 21.9734 44.7976C22.0642 44.9933 22.2097 45.116 22.3828 45.1433ZM22.0438 44.168C22.0761 43.9616 22.1595 43.7771 22.2788 43.6481C22.376 43.5429 22.4865 43.4869 22.5943 43.4869C22.6103 43.4868 22.6263 43.4881 22.6421 43.4906C22.7647 43.51 22.8703 43.6026 22.9397 43.7518C23.0136 43.9111 23.0369 44.1124 23.0043 44.3188C22.9716 44.5251 22.8876 44.7097 22.7693 44.8387C22.6575 44.9595 22.5285 45.0155 22.4058 44.9962C22.2831 44.977 22.1776 44.8842 22.1082 44.735C22.0343 44.5749 22.0111 44.3744 22.0438 44.168Z" fill="white"/>
<path d="M36.3239 52.0341C35.293 51.4132 34.4549 50.5545 33.8343 49.4818C32.9722 47.9903 32.7734 46.4895 32.7289 45.9741L40.1364 46.1252L40.1393 45.9764L32.7184 45.8249C32.7172 45.8014 32.7166 45.7881 32.7166 45.786L32.568 45.7899C32.568 45.7924 32.568 45.8033 32.5692 45.8214L23.6125 45.6384C23.6576 45.3995 23.7006 45.1776 23.7416 44.9726C24.0711 43.3181 24.3154 42.4133 24.3177 42.4051L24.1742 42.3662C24.1719 42.3754 23.9264 43.2835 23.5961 44.9424C23.5501 45.1743 23.5052 45.4056 23.4615 45.6364L21.1802 45.5897C21.5692 43.5439 21.8728 42.4172 21.8761 42.4053L21.7326 42.3664C21.7293 42.3785 21.4214 43.5188 21.0293 45.5868L14.4445 45.4524L14.4414 45.6012L21.0013 45.735C20.9847 45.8231 20.9682 45.9124 20.9515 46.0036C20.2347 49.8996 19.8486 53.6535 19.6508 56.1165L19.799 56.1284C20.1567 51.6742 20.7025 48.1796 21.0973 46.0336C21.1158 45.9332 21.1339 45.8352 21.1522 45.7387L23.4337 45.7854C22.9722 48.2556 22.6611 50.6 22.4758 52.1992L22.6236 52.2165C22.9366 49.5168 23.297 47.3259 23.5847 45.7885L32.5787 45.9721C32.6076 46.3064 32.6573 46.6387 32.7273 46.9668C32.8621 47.6087 33.1405 48.5783 33.7024 49.5522C34.3349 50.6482 35.1898 51.5258 36.2432 52.1607C37.5578 52.9529 39.1862 53.3666 41.0829 53.3888L41.0848 53.2402C39.217 53.2164 37.615 52.8111 36.3239 52.0341Z" fill="white"/>
<path d="M25.7693 15.6323C25.7693 15.6323 29.9789 15.2981 35.0971 16.082C37.4768 16.4456 39.7209 17.4224 41.6086 18.9163C43.4963 20.4102 44.9626 22.3698 45.8633 24.6023C47.9056 29.6681 50.5647 36.7852 51.6277 41.8964C51.8849 43.1299 51.7472 44.4131 51.2342 45.5639C50.7211 46.7148 49.8588 47.6749 48.7694 48.3081C47.9197 48.8016 46.9518 49.0547 45.9693 49.0403C44.9868 49.0259 44.0267 48.7445 43.1918 48.2264L34.3016 42.7073H17.7067L16.6025 46.1695C15.6004 49.3105 12.373 51.1706 9.1516 50.468C9.08236 50.4529 9.01286 50.4373 8.9431 50.4213C3.94978 49.2773 1.21154 43.886 3.19977 39.1654C5.2477 34.3028 8.05537 27.6925 9.96852 23.4132C10.5141 22.1933 11.3226 21.1091 12.3362 20.2382C13.3498 19.3672 14.5435 18.7312 15.8317 18.3756L25.7693 15.6323Z" fill="#FFFEF2"/>
<path d="M15.4147 11.9307C15.4147 11.9307 17.0993 16.5929 14.4434 18.2093C14.4434 18.2093 17.3146 18.2093 22.8347 15.0309L22.0784 13.1689L15.4147 11.9307Z" fill="black"/>
<path d="M21.604 14.4737L23.6537 18.2392L28.9738 16.0167L25.4962 8.01367L21.604 14.4737Z" fill="#FFA992"/>
<path d="M26.284 10.6366C26.3198 10.5232 26.3353 10.2765 26.3369 9.94821L25.4962 8.01367L21.604 14.4736L22.2982 15.7491C23.9348 15.0088 25.4017 13.4365 26.284 10.6366Z" fill="black"/>
<path d="M16.2361 2.29687C16.2361 2.29687 13.295 4.32749 13.8474 7.68697C14.3998 11.0464 16.079 15.056 18.335 15.4111C21.1915 15.8608 24.4329 14.6465 25.9477 9.83974C26.1473 9.20644 25.7176 4.4226 25.7176 4.4226L19.0656 1.77734L16.2361 2.29687Z" fill="#FFA992"/>
<path d="M27.3664 12.9395C27.3664 12.9395 25.2502 16.0214 22.4106 16.0214L23.5831 18.3068L29.1811 16.0153L27.3664 12.9395Z" fill="#CEFD1E"/>
<path d="M16.182 2.96398C16.182 2.96398 17.9246 6.77432 24.8464 5.79558C24.8464 5.79558 27.4757 15.3953 24.6626 18.9001C24.6626 18.9001 30.4143 15.7989 31.8164 9.41744C31.8164 9.41744 29.6219 10.3999 27.4967 5.64406C25.3715 0.888232 22.7376 0.154173 20.4488 0.00576628C18.1601 -0.142641 14.0691 2.59267 13.8501 6.00798C13.8501 6.00739 13.9065 4.63244 16.182 2.96398Z" fill="black"/>
<path d="M24.6621 6.0424C24.6621 6.0424 25.4615 3.97288 27.0446 4.67445C28.9107 5.50168 27.8695 7.80461 27.1613 8.20957C26.4531 8.61453 25.7006 8.65926 25.2429 8.45678C24.7852 8.25431 24.6621 6.0424 24.6621 6.0424Z" fill="#FFA992"/>
<path d="M19.4266 9.59684C19.4266 9.59684 18.6976 6.0343 22.4107 6.92805C22.4107 6.92805 22.2076 10.4258 19.4266 9.59684Z" fill="white"/>
<path d="M16.9884 10.0596C16.9884 10.0596 14.8076 6.85033 14.2251 9.48178C14.2251 9.48178 15.0152 12.0329 16.9884 10.0596Z" fill="white"/>
<path d="M26.6394 7.34561C26.6278 7.34556 26.6164 7.34211 26.6068 7.33569L25.3997 6.51877C25.3933 6.51447 25.3879 6.50896 25.3837 6.50256C25.3794 6.49615 25.3765 6.48897 25.3751 6.48144C25.3736 6.47391 25.3737 6.46616 25.3752 6.45865C25.3768 6.45114 25.3798 6.44401 25.3841 6.43766C25.3928 6.42489 25.4062 6.41608 25.4213 6.41316C25.4365 6.41024 25.4522 6.41346 25.465 6.4221L26.6721 7.23902C26.6849 7.24767 26.6938 7.26105 26.6967 7.27622C26.6997 7.29139 26.6965 7.30711 26.6879 7.31993C26.6825 7.32785 26.6753 7.33433 26.6669 7.33881C26.6584 7.34329 26.649 7.34562 26.6394 7.34561Z" fill="black"/>
<path d="M25.2421 7.25982C25.2383 7.25979 25.2344 7.25946 25.2306 7.25885C25.2231 7.25736 25.216 7.25441 25.2096 7.25015C25.2032 7.24589 25.1977 7.24042 25.1934 7.23404C25.1892 7.22766 25.1862 7.22051 25.1847 7.21298C25.1832 7.20546 25.1832 7.19771 25.1847 7.19019C25.3038 6.59248 25.5907 5.80513 26.281 5.4486C26.6978 5.23348 27.059 5.2786 27.0747 5.28074C27.0823 5.28175 27.0896 5.28424 27.0963 5.28808C27.1029 5.29192 27.1087 5.29703 27.1134 5.30312C27.1181 5.3092 27.1215 5.31615 27.1234 5.32356C27.1254 5.33097 27.1259 5.33869 27.1249 5.34629C27.1228 5.3616 27.1148 5.37547 27.1025 5.38484C27.0902 5.39421 27.0747 5.39832 27.0594 5.39628C27.0551 5.39628 26.7131 5.35465 26.3286 5.55538C25.818 5.82205 25.4621 6.39506 25.2993 7.21295C25.2966 7.22616 25.2895 7.23805 25.2791 7.2466C25.2686 7.25514 25.2556 7.25982 25.2421 7.25982Z" fill="black"/>
<path d="M17.6721 11.3993C17.662 11.3993 17.652 11.3967 17.6432 11.3917L16.9288 10.9819C16.9212 10.9776 16.9147 10.9716 16.9098 10.9644C16.9048 10.9573 16.9015 10.9491 16.9002 10.9405C16.8988 10.9319 16.8993 10.9231 16.9018 10.9147C16.9042 10.9064 16.9085 10.8987 16.9144 10.8922L17.4712 10.2724C17.4763 10.2666 17.4825 10.262 17.4895 10.2587C17.4964 10.2554 17.5039 10.2534 17.5115 10.253C17.5192 10.2526 17.5269 10.2537 17.5341 10.2562C17.5413 10.2588 17.548 10.2628 17.5537 10.2679C17.5594 10.273 17.564 10.2792 17.5673 10.2861C17.5706 10.2931 17.5725 10.3006 17.5729 10.3082C17.5733 10.3159 17.5722 10.3235 17.5697 10.3308C17.5671 10.338 17.5631 10.3447 17.558 10.3503L17.0493 10.9166L17.7013 11.2904C17.708 11.2942 17.7138 11.2993 17.7185 11.3054C17.7232 11.3114 17.7267 11.3184 17.7287 11.3258C17.7307 11.3332 17.7312 11.3409 17.7302 11.3485C17.7292 11.3561 17.7267 11.3635 17.7229 11.3701C17.7178 11.379 17.7104 11.3864 17.7015 11.3916C17.6925 11.3967 17.6824 11.3994 17.6721 11.3993Z" fill="black"/>
<path d="M18.8802 12.9919C18.4181 12.9919 17.8746 12.6358 17.8493 12.6187C17.8429 12.6144 17.8374 12.609 17.8332 12.6026C17.8289 12.5962 17.8259 12.5891 17.8244 12.5816C17.8229 12.5741 17.8229 12.5663 17.8243 12.5588C17.8258 12.5513 17.8288 12.5441 17.833 12.5377C17.8372 12.5313 17.8427 12.5259 17.849 12.5216C17.8554 12.5173 17.8626 12.5143 17.8701 12.5128C17.8776 12.5113 17.8853 12.5113 17.8928 12.5127C17.9004 12.5142 17.9075 12.5172 17.9139 12.5214C17.9205 12.5259 18.5865 12.9623 19.0241 12.8598C19.3875 12.7748 19.9772 11.8725 20.1742 11.5321C20.1781 11.5255 20.1832 11.5197 20.1893 11.515C20.1953 11.5103 20.2023 11.5069 20.2097 11.5049C20.2171 11.5029 20.2248 11.5024 20.2324 11.5034C20.24 11.5044 20.2473 11.5069 20.254 11.5108C20.2674 11.5185 20.2771 11.5313 20.2811 11.5462C20.2851 11.5612 20.2829 11.5771 20.2752 11.5905C20.2454 11.6422 19.5374 12.8596 19.0508 12.9736C18.9948 12.9862 18.9376 12.9923 18.8802 12.9919Z" fill="black"/>
<path d="M18.5779 6.80985C18.5701 6.80981 18.5625 6.80822 18.5553 6.80518C18.5411 6.79921 18.5298 6.78783 18.5239 6.77354C18.518 6.75924 18.5181 6.7432 18.524 6.72894C18.5296 6.71552 18.6664 6.39517 19.0235 6.10088C19.3518 5.83033 19.9361 5.53312 20.8553 5.65352C20.863 5.65451 20.8703 5.65698 20.877 5.66081C20.8836 5.66464 20.8895 5.66975 20.8941 5.67584C20.8988 5.68193 20.9022 5.68888 20.9042 5.6963C20.9062 5.70372 20.9067 5.71146 20.9057 5.71907C20.9047 5.72667 20.9022 5.734 20.8984 5.74063C20.8945 5.74727 20.8894 5.75308 20.8833 5.75774C20.8773 5.7624 20.8703 5.76582 20.8629 5.76779C20.8555 5.76977 20.8478 5.77027 20.8402 5.76925C20.138 5.67706 19.5533 5.81768 19.1023 6.18705C18.7654 6.46305 18.6331 6.77056 18.6318 6.77387C18.6273 6.78452 18.6199 6.79362 18.6103 6.80002C18.6007 6.80643 18.5894 6.80985 18.5779 6.80985Z" fill="black"/>
<path d="M13.7769 7.97281C13.7687 7.97283 13.7605 7.97111 13.753 7.96775C13.7459 7.96462 13.7395 7.96011 13.7342 7.95449C13.7289 7.94887 13.7248 7.94224 13.722 7.935C13.7193 7.92776 13.718 7.92005 13.7183 7.91231C13.7186 7.90458 13.7204 7.89698 13.7236 7.88995C13.8841 7.53245 14.1292 7.29516 14.4522 7.18468C14.8097 7.06233 15.1978 7.12205 15.4603 7.19362C15.6283 7.23872 15.7913 7.30089 15.9466 7.37918C15.9534 7.38278 15.9594 7.38768 15.9643 7.39359C15.9691 7.39951 15.9728 7.40633 15.975 7.41367C15.9773 7.421 15.9781 7.42871 15.9773 7.43634C15.9766 7.44397 15.9743 7.45138 15.9707 7.45815C15.9634 7.47179 15.951 7.48198 15.9362 7.48646C15.9214 7.49095 15.9054 7.48937 15.8918 7.48207C15.8842 7.47818 15.1215 7.07848 14.4886 7.29516C14.1968 7.39494 13.9759 7.61103 13.8294 7.93702C13.8251 7.94742 13.8178 7.95634 13.8085 7.96269C13.7992 7.96904 13.7882 7.97256 13.7769 7.97281Z" fill="black"/>
<path d="M12.8177 32.9903C12.8072 32.9903 12.797 32.9875 12.788 32.9822C12.779 32.9769 12.7716 32.9693 12.7666 32.9601C12.7615 32.951 12.759 32.9407 12.7593 32.9302C12.7596 32.9198 12.7627 32.9096 12.7683 32.9008C12.7854 32.8738 14.4686 30.1789 14.7295 29.0617C14.9889 27.9501 14.3171 25.7676 14.3103 25.7456C14.3057 25.7308 14.3072 25.7148 14.3144 25.7011C14.3216 25.6874 14.3339 25.6771 14.3487 25.6725C14.3635 25.668 14.3795 25.6694 14.3932 25.6766C14.4069 25.6838 14.4172 25.6962 14.4217 25.711C14.4235 25.7166 14.5958 26.2737 14.733 26.9628C14.9181 27.8923 14.9551 28.6073 14.8429 29.0881C14.5775 30.2244 12.9367 32.8516 12.8671 32.9629C12.8618 32.9712 12.8546 32.9782 12.8459 32.983C12.8373 32.9878 12.8276 32.9903 12.8177 32.9903Z" fill="white"/>
<path d="M9.27423 29.6309L22.8386 32.7031L20.5827 39.5356L8.78369 36.3298L9.27423 29.6309Z" fill="black"/>
<path d="M8.14804 30.7402L22.4931 33.8618L21.1382 40.835L7.65381 37.4388L8.14804 30.7402Z" fill="black"/>
<path d="M22.8088 29.6328C22.8088 29.6328 19.0261 29.4747 15.6659 33.1279L15.3716 33.8658L17.1768 34.3589C17.1768 34.3589 19.1716 32.1845 21.492 31.7699C24.111 31.3007 25.8748 31.8889 25.8748 31.8889L27.2111 30.604L22.8088 29.6328Z" fill="#FFA992"/>
<path d="M8.78455 32.1953L22.6239 34.1495L20.5836 39.5361L6.26416 37.7222L8.78455 32.1953Z" fill="black"/>
<path d="M30.0219 35.503C30.0219 35.503 26.1466 35.6465 24.9345 33.5093C24.9345 33.5093 22.2905 33.1826 21.6816 33.7468C21.0726 34.3111 21.6322 35.1943 21.6322 35.1943L19.7739 35.2299C19.7739 35.2299 18.5825 33.0664 20.6454 31.8123C22.7084 30.5581 26.6395 31.1792 26.6395 31.1792L31.4048 33.3911L30.0219 35.503Z" fill="#FFA992"/>
<path d="M32.3405 32.2194C32.3405 32.2194 27.6932 28.7195 23.5393 28.3764C19.5973 28.0508 16.7122 29.2371 13.3172 30.7746C13.1637 30.8441 13.0402 30.9663 12.9691 31.119C12.898 31.2718 12.884 31.445 12.9297 31.6071C12.9707 31.7522 13.0413 31.8873 13.1371 32.0037C13.2329 32.1201 13.3519 32.2153 13.4864 32.2834C13.621 32.3514 13.7682 32.3908 13.9187 32.399C14.0693 32.4072 14.2199 32.3841 14.3611 32.3311C15.8226 31.7828 18.3511 30.8793 19.5573 30.7167C21.3111 30.4811 28.1349 32.7051 28.1349 32.7051L31.2452 34.1505L32.3405 32.2194Z" fill="#FFA992"/>
<path d="M22.1314 28.3235C22.1314 28.3235 18.2256 28.0668 16.216 28.6532C15.0639 28.9895 14.3917 29.2173 14.0276 29.3505C13.9241 29.3885 13.8379 29.4625 13.7846 29.559C13.7313 29.6555 13.7146 29.7679 13.7376 29.8757C13.7675 30.0156 13.8485 30.1393 13.9648 30.2227C14.0811 30.3061 14.2243 30.3431 14.3664 30.3265L15.6696 30.1744L22.1314 28.3235Z" fill="#FFA992"/>
<path d="M28.8638 30.3676C28.8638 30.3676 25.8143 27.839 23.9687 26.5536C22.7499 25.7044 21.3685 26.1978 22.0236 27.5714C22.3823 28.3239 23.0212 29.0063 23.0212 29.0063L28.8638 30.3676Z" fill="#FFA992"/>
<path d="M7.44482 33.5498L21.8545 34.7242L21.6929 37.2771L7.50045 36.3779L7.44482 33.5498Z" fill="black"/>
<path d="M9.42763 34.6846L21.9508 37.2341L21.4892 39.1409L9.16602 36.4433L9.42763 34.6846Z" fill="black"/>
<path d="M22.9205 36.6782L20.7393 44.8709C20.7393 44.8709 10.6342 46.1797 4.43359 41.3863L6.69452 33.7256C6.69452 33.7256 12.5822 37.7802 22.9205 36.6782Z" fill="#CEFD1E"/>
<path d="M22.6895 36.7015L24.5098 36.3125C24.6563 36.2812 24.92 36.2666 24.9961 36.4942L25.3073 37.2774C25.4423 37.6003 25.0762 37.9504 24.7179 37.7443L22.6895 36.7015Z" fill="black"/>
<path d="M22.6895 36.7013L24.5098 36.3123C24.5808 36.2972 24.6548 36.308 24.7185 36.3429C24.7821 36.3777 24.8311 36.4342 24.8566 36.5021L25.1256 37.2189C25.1466 37.2748 25.1506 37.3356 25.1371 37.3937C25.1236 37.4518 25.0932 37.5046 25.0498 37.5455C25.0064 37.5865 24.9519 37.6137 24.8931 37.6237C24.8343 37.6338 24.7738 37.6262 24.7193 37.6021L22.6895 36.7013Z" fill="#FF8DA8"/>
<path d="M22.1586 8.11617C22.0606 7.80018 21.8641 7.52382 21.5978 7.32755C21.3315 7.13128 21.0094 7.02539 20.6786 7.02539C20.4746 7.02519 20.2727 7.06545 20.0844 7.14385C19.2568 7.76918 19.3474 9.0317 19.4048 9.45495C19.4475 9.51664 19.4946 9.57514 19.5458 9.63C21.1257 10.0422 21.8394 9.01926 22.1586 8.11617Z" fill="black"/>
<path d="M16.3432 9.31959C15.9426 8.65283 15.2509 8.31731 14.725 8.50461C14.5203 8.65205 14.3451 8.95547 14.2251 9.48122C14.2251 9.48122 14.9177 11.718 16.6257 10.3829C16.6455 10.048 16.5537 9.66989 16.3432 9.31959Z" fill="black"/>
<path d="M46.8948 37.6657C46.8948 37.6657 37.6434 30.195 34.5652 33.2732L31.8933 31.7695C31.8933 31.7695 29.6576 33.2655 29.9043 36.2017L32.0751 37.9748C32.0751 37.9748 31.1985 40.0138 36.1266 43.8628C41.2857 47.892 45.2294 51.133 48.7708 48.3073C56.5564 42.0962 46.8948 37.6657 46.8948 37.6657Z" fill="#F3F2E0"/>
<path d="M36.7441 32.5895C36.7325 32.5895 36.7212 32.5861 36.7115 32.5797C36.7019 32.5732 36.6944 32.5641 36.69 32.5533L35.1176 28.7006C35.1118 28.6863 35.1118 28.6702 35.1178 28.6559C35.1238 28.6416 35.1353 28.6303 35.1496 28.6245C35.164 28.6186 35.18 28.6187 35.1943 28.6247C35.2086 28.6307 35.2199 28.6421 35.2258 28.6564L36.7981 32.5092C36.8017 32.518 36.8031 32.5277 36.8021 32.5372C36.8011 32.5467 36.7978 32.5558 36.7925 32.5638C36.7872 32.5717 36.7799 32.5782 36.7715 32.5827C36.763 32.5872 36.7536 32.5895 36.7441 32.5895Z" fill="#191919"/>
<path d="M46.8948 35.5635H46.889C45.3366 35.4103 43.8751 35.5441 43.8605 35.5462C43.8451 35.5477 43.8296 35.5429 43.8177 35.533C43.8057 35.5231 43.7981 35.5089 43.7966 35.4934C43.7952 35.4779 43.7999 35.4625 43.8098 35.4505C43.8197 35.4385 43.834 35.431 43.8495 35.4295C43.8642 35.4281 45.3364 35.2924 46.9005 35.4468C46.9159 35.4476 46.9305 35.4544 46.9409 35.4659C46.9513 35.4774 46.9567 35.4925 46.956 35.508C46.9552 35.5235 46.9484 35.538 46.9369 35.5484C46.9254 35.5588 46.9103 35.5643 46.8948 35.5635Z" fill="#191919"/>
<path d="M36.405 25.3061C36.3984 25.3061 36.3918 25.3049 36.3855 25.3026C36.3783 25.3 36.3717 25.296 36.3661 25.2908C36.3604 25.2856 36.3558 25.2794 36.3526 25.2724C36.3494 25.2655 36.3475 25.2579 36.3472 25.2503C36.3469 25.2426 36.3481 25.235 36.3507 25.2278C36.7646 24.0919 37.3141 23.0493 37.9846 22.1299C38.5106 21.4047 39.1234 20.7465 39.8092 20.1701C40.2705 19.7815 40.7678 19.4378 41.2944 19.1437C41.6708 18.9361 41.9021 18.849 41.9116 18.8455C41.9261 18.8401 41.9421 18.8406 41.9562 18.8471C41.9703 18.8535 41.9813 18.8652 41.9867 18.8797C41.9921 18.8942 41.9915 18.9103 41.9851 18.9243C41.9787 18.9384 41.9669 18.9494 41.9524 18.9548C41.9433 18.9583 41.0151 19.3117 39.8798 20.263C39.2021 20.8334 38.5966 21.4844 38.0768 22.2017C37.4154 23.1117 36.8708 24.1432 36.4612 25.2678C36.457 25.2793 36.4493 25.2891 36.4392 25.296C36.4292 25.3029 36.4172 25.3064 36.405 25.3061Z" fill="#191919"/>
<path d="M34.2666 42.7524C34.2541 42.7524 34.2419 42.7483 34.2318 42.741C33.5339 42.2247 32.9828 41.6531 32.5942 41.0414C32.283 40.5506 32.0741 40.0335 31.9747 39.5048C31.8269 38.718 31.9629 38.1481 32.0064 37.9966L29.8659 36.2482C29.854 36.2385 29.8464 36.2246 29.8447 36.2093C29.7733 35.5317 29.8348 34.874 30.0274 34.2547C30.1851 33.7518 30.4237 33.278 30.734 32.852C31.2702 32.1107 31.8362 31.7379 31.8602 31.7223C31.8691 31.7165 31.8794 31.7133 31.89 31.7129C31.9007 31.7126 31.9112 31.7151 31.9205 31.7203L34.5546 33.2025C35.272 32.5104 36.3635 32.3097 37.8011 32.6053C38.957 32.8432 40.34 33.4018 41.9114 34.2656C44.5827 35.7339 46.9074 37.6031 46.9296 37.6218C46.9416 37.6315 46.9493 37.6456 46.951 37.661C46.9526 37.6764 46.9481 37.6918 46.9383 37.7039C46.9286 37.7159 46.9145 37.7236 46.8991 37.7253C46.8837 37.7269 46.8683 37.7224 46.8563 37.7126C46.8331 37.6932 44.5154 35.8306 41.853 34.3672C40.2921 33.5092 38.9205 32.9549 37.776 32.7195C36.3589 32.4278 35.2918 32.6287 34.6044 33.3161C34.5954 33.325 34.5837 33.3308 34.5711 33.3326C34.5585 33.3343 34.5457 33.3318 34.5346 33.3256L31.894 31.8398C31.7717 31.9259 31.2811 32.2922 30.8242 32.9241C30.5221 33.3397 30.2897 33.8018 30.1363 34.2921C29.9515 34.8882 29.891 35.521 29.9568 36.1733L32.1091 37.9311C32.1183 37.9386 32.125 37.9488 32.1283 37.9602C32.1316 37.9716 32.1312 37.9838 32.1274 37.9951C32.1255 38.0013 31.9232 38.6149 32.0885 39.4902C32.1858 40.0041 32.3894 40.5067 32.6932 40.984C33.0739 41.5819 33.6142 42.1417 34.2991 42.648C34.309 42.6553 34.3164 42.6655 34.3201 42.6772C34.3239 42.689 34.3239 42.7016 34.32 42.7133C34.3162 42.725 34.3087 42.7352 34.2987 42.7424C34.2888 42.7496 34.2767 42.7534 34.2644 42.7534L34.2666 42.7524Z" fill="#191919"/>
<path d="M8.19884 39.531L6.92427 43.0429C6.71226 43.6264 7.04097 44.2625 7.65619 44.4541C8.28813 44.6513 8.96558 44.3004 9.13869 43.6866L10.1501 40.0981C10.2989 39.5712 9.96632 39.0317 9.41237 38.9008C8.89907 38.7794 8.37234 39.0531 8.19884 39.531Z" fill="#FFA992"/>
<path d="M12.2864 40.4361L11.0147 44.7117C10.8768 45.1758 10.4129 45.4856 9.90236 45.4545L9.79753 45.4481C9.10101 45.4059 8.62816 44.7628 8.83103 44.1336L10.2074 39.8642C10.3727 39.3517 10.9307 39.0473 11.4852 39.1664C12.0884 39.2963 12.4533 39.8749 12.2864 40.4361Z" fill="#FFA992"/>
<path d="M13.0663 40.7039C12.844 40.6632 12.6145 40.7038 12.4196 40.8183C12.2248 40.9328 12.0777 41.1136 12.0051 41.3276L11.0508 44.1417C10.9762 44.3618 10.9856 44.6017 11.0773 44.8152C11.1689 45.0288 11.3363 45.2009 11.5472 45.2984L11.7654 45.3994C11.891 45.4575 12.0279 45.4871 12.1662 45.4863C12.3046 45.4855 12.4411 45.4541 12.566 45.3946C12.6909 45.335 12.8011 45.2486 12.8888 45.1416C12.9765 45.0346 13.0396 44.9096 13.0735 44.7754L13.8095 41.8606C13.841 41.7356 13.8466 41.6055 13.8258 41.4783C13.805 41.3511 13.7583 41.2295 13.6887 41.1211C13.619 41.0127 13.5278 40.9197 13.4207 40.8479C13.3137 40.7762 13.193 40.7271 13.0663 40.7039Z" fill="#FFA992"/>
<path d="M14.5016 41.7902C14.132 41.7826 13.7988 42.0042 13.6967 42.3261L12.9557 44.6633C12.8347 45.0449 13.0745 45.4378 13.4944 45.5459L13.7592 45.6142C14.2196 45.7326 14.699 45.4609 14.7836 45.0332L15.2601 42.628C15.3459 42.195 14.9884 41.8001 14.5016 41.7902Z" fill="#FFA992"/>
<path d="M9.88685 40.2277C10.0246 39.7661 9.81338 39.2956 9.41502 39.1767C9.01667 39.0578 8.58205 39.3355 8.44428 39.7971C8.30651 40.2587 8.51775 40.7292 8.91611 40.8481C9.31446 40.967 9.74908 40.6892 9.88685 40.2277Z" fill="black"/>
<path d="M11.8932 40.5636C12.031 40.1021 11.8197 39.6315 11.4214 39.5126C11.023 39.3937 10.5884 39.6715 10.4506 40.133C10.3129 40.5946 10.5241 41.0651 10.9225 41.184C11.3208 41.303 11.7554 41.0252 11.8932 40.5636Z" fill="black"/>
<path d="M13.4323 41.8639C13.5538 41.4571 13.393 41.05 13.0733 40.9545C12.7536 40.8591 12.396 41.1115 12.2746 41.5183C12.1531 41.9251 12.3139 42.3322 12.6336 42.4277C12.9533 42.5231 13.3109 42.2707 13.4323 41.8639Z" fill="black"/>
<path d="M14.9838 42.7073C15.0725 42.4102 14.9289 42.1049 14.663 42.0256C14.3971 41.9462 14.1097 42.1228 14.021 42.4199C13.9323 42.7171 14.0759 43.0223 14.3418 43.1017C14.6076 43.1811 14.8951 43.0045 14.9838 42.7073Z" fill="black"/>
<path d="M14.1958 30.3797C14.1825 30.3797 14.1696 30.375 14.1592 30.3666C14.1489 30.3582 14.1417 30.3465 14.139 30.3334C14.1362 30.3203 14.138 30.3067 14.1441 30.2948C14.1501 30.283 14.1601 30.2735 14.1723 30.2681C17.3038 28.8923 20.0967 28.0344 23.5443 28.3191C24.8864 28.43 26.5875 28.9009 28.0957 29.5788C28.1029 29.5818 28.1094 29.5862 28.1149 29.5917C28.1203 29.5973 28.1246 29.6039 28.1275 29.6112C28.1303 29.6184 28.1317 29.6262 28.1316 29.634C28.1314 29.6418 28.1296 29.6494 28.1264 29.6565C28.1232 29.6637 28.1186 29.6701 28.1129 29.6754C28.1072 29.6807 28.1005 29.6848 28.0932 29.6874C28.0858 29.6901 28.0781 29.6913 28.0703 29.6909C28.0625 29.6905 28.0549 29.6885 28.0478 29.6851C26.5519 29.0125 24.865 28.5454 23.5353 28.4355C20.1121 28.1526 17.3355 29.0063 14.2197 30.3749C14.2122 30.3781 14.2041 30.3798 14.1958 30.3797Z" fill="black"/>
<path d="M18.1415 31.084C18.1293 31.084 18.1173 31.0802 18.1074 31.0731C18.0974 31.066 18.09 31.0559 18.0861 31.0443C18.0822 31.0327 18.082 31.0202 18.0856 31.0085C18.0892 30.9968 18.0963 30.9866 18.1061 30.9792C19.2468 30.1128 20.4656 29.7771 21.287 29.648C22.1774 29.5079 22.7893 29.5717 22.8148 29.5745C22.8303 29.5761 22.8445 29.5839 22.8542 29.596C22.864 29.6081 22.8686 29.6237 22.8669 29.6391C22.8652 29.6546 22.8574 29.6688 22.8453 29.6785C22.8332 29.6883 22.8177 29.6928 22.8022 29.6912C22.7962 29.6912 22.1773 29.6262 21.3012 29.7645C20.494 29.8917 19.2978 30.2222 18.1767 31.0727C18.1665 31.0802 18.1541 31.0842 18.1415 31.084Z" fill="black"/>
<path d="M19.9236 32.3656C19.9114 32.3656 19.8996 32.3618 19.8897 32.3547C19.8798 32.3477 19.8723 32.3377 19.8684 32.3262C19.8644 32.3147 19.8642 32.3022 19.8677 32.2906C19.8712 32.2789 19.8782 32.2686 19.8878 32.2612C20.895 31.4789 21.9017 31.2264 22.5693 31.1525C23.2938 31.0722 23.7736 31.1758 23.7946 31.1803C23.8097 31.1837 23.8229 31.1929 23.8312 31.2059C23.8395 31.219 23.8423 31.2348 23.839 31.2499C23.8356 31.2651 23.8264 31.2782 23.8133 31.2865C23.8003 31.2948 23.7844 31.2976 23.7693 31.2943C23.7647 31.2931 23.2844 31.1898 22.578 31.269C21.9268 31.3419 20.9442 31.5893 19.9604 32.3536C19.9498 32.3616 19.9369 32.3659 19.9236 32.3656Z" fill="black"/>
<path d="M13.9745 31.5949C14.3704 31.4216 14.6028 31.0789 14.4936 30.8295C14.3844 30.5802 13.9749 30.5186 13.5791 30.692C13.1832 30.8653 12.9508 31.208 13.06 31.4573C13.1692 31.7067 13.5787 31.7683 13.9745 31.5949Z" fill="black"/>
<path d="M14.6772 29.8997C15.0824 29.7674 15.3607 29.5064 15.2988 29.3167C15.2368 29.1269 14.8581 29.0803 14.4529 29.2126C14.0477 29.3449 13.7695 29.606 13.8314 29.7957C13.8933 29.9854 14.272 30.032 14.6772 29.8997Z" fill="black"/>
<path d="M56.1845 55.27H0.0583513C0.0428756 55.27 0.0280381 55.2639 0.0170951 55.2529C0.00615212 55.242 0 55.2271 0 55.2117C0 55.1962 0.00615212 55.1814 0.0170951 55.1704C0.0280381 55.1595 0.0428756 55.1533 0.0583513 55.1533H56.1845C56.2 55.1533 56.2149 55.1595 56.2258 55.1704C56.2367 55.1814 56.2429 55.1962 56.2429 55.2117C56.2429 55.2271 56.2367 55.242 56.2258 55.2529C56.2149 55.2639 56.2 55.27 56.1845 55.27Z" fill="black"/>
<path d="M8.80928 44.3503C8.79777 44.3503 8.78651 44.3468 8.77694 44.3405C8.76736 44.3341 8.7599 44.325 8.75547 44.3144C8.75104 44.3037 8.74985 44.2921 8.75205 44.2808C8.75426 44.2695 8.75974 44.2591 8.76784 44.2509C8.88882 44.1289 9.03374 43.8444 9.08256 43.6711L10.1973 39.8846C10.1994 39.8773 10.203 39.8704 10.2079 39.8645C10.2127 39.8585 10.2186 39.8535 10.2253 39.8499C10.2321 39.8462 10.2395 39.8439 10.2471 39.8431C10.2547 39.8423 10.2625 39.843 10.2698 39.8452C10.2772 39.8473 10.284 39.8509 10.29 39.8558C10.296 39.8606 10.3009 39.8665 10.3046 39.8733C10.3082 39.88 10.3105 39.8874 10.3114 39.895C10.3122 39.9026 10.3115 39.9104 10.3093 39.9177L9.19478 43.7034C9.1411 43.894 8.98978 44.1929 8.85071 44.333C8.84529 44.3384 8.83883 44.3428 8.83172 44.3458C8.82461 44.3487 8.81699 44.3503 8.80928 44.3503Z" fill="black"/>
<path d="M11.0541 44.8121C11.0445 44.8121 11.035 44.8098 11.0266 44.8053C11.0181 44.8008 11.0109 44.7942 11.0055 44.7863C11.0002 44.7783 10.9969 44.7692 10.9959 44.7596C10.9949 44.7501 10.9963 44.7405 11 44.7316C11.0924 44.5056 11.389 43.6021 11.4367 43.4337L12.0666 41.1626C12.0685 41.155 12.0719 41.1479 12.0765 41.1416C12.0812 41.1354 12.0871 41.1301 12.0938 41.1262C12.1005 41.1222 12.108 41.1197 12.1157 41.1187C12.1235 41.1176 12.1314 41.1182 12.1389 41.1203C12.1464 41.1224 12.1534 41.1259 12.1596 41.1308C12.1657 41.1356 12.1708 41.1417 12.1745 41.1485C12.1783 41.1554 12.1806 41.1629 12.1814 41.1707C12.1822 41.1784 12.1814 41.1863 12.1791 41.1937L11.5491 43.4656C11.5016 43.6355 11.2013 44.548 11.1081 44.7763C11.1037 44.787 11.0961 44.796 11.0865 44.8024C11.0769 44.8088 11.0656 44.8122 11.0541 44.8121Z" fill="black"/>
<path d="M12.9794 45.1836C12.9698 45.1836 12.9603 45.1812 12.9519 45.1767C12.9434 45.1722 12.9362 45.1657 12.9308 45.1578C12.9255 45.1498 12.9222 45.1406 12.9212 45.1311C12.9202 45.1216 12.9216 45.1119 12.9253 45.1031C13.0165 44.8798 13.394 43.4817 13.4471 43.2459C13.4967 43.0259 13.687 42.3123 13.6951 42.2831C13.6968 42.2754 13.7001 42.2681 13.7046 42.2617C13.7092 42.2553 13.7151 42.2499 13.7218 42.2458C13.7285 42.2417 13.736 42.239 13.7438 42.2379C13.7516 42.2368 13.7596 42.2373 13.7672 42.2393C13.7748 42.2413 13.7819 42.2449 13.7881 42.2498C13.7943 42.2546 13.7995 42.2607 13.8033 42.2676C13.8071 42.2745 13.8094 42.2821 13.8102 42.29C13.811 42.2978 13.8101 42.3058 13.8077 42.3133C13.8058 42.3207 13.6101 43.0539 13.5611 43.2716C13.5111 43.4926 13.1319 44.9054 13.0334 45.1472C13.0291 45.158 13.0216 45.1672 13.0119 45.1736C13.0023 45.1801 12.991 45.1836 12.9794 45.1836Z" fill="black"/>
<path d="M23.5836 18.6007C23.5727 18.6007 23.562 18.5976 23.5527 18.5918C23.5434 18.586 23.5359 18.5776 23.5311 18.5678L22.5234 16.4967C22.5167 16.4828 22.5157 16.4668 22.5208 16.4523C22.5258 16.4377 22.5364 16.4257 22.5502 16.4189C22.5641 16.4122 22.5801 16.4112 22.5947 16.4163C22.6093 16.4213 22.6213 16.4319 22.628 16.4458L23.6358 18.5168C23.6425 18.5307 23.6434 18.5467 23.6384 18.5613C23.6334 18.5759 23.6228 18.5878 23.6089 18.5946C23.6011 18.5985 23.5924 18.6006 23.5836 18.6007Z" fill="white"/>
</svg>
