<svg width="56" height="42" viewBox="0 0 56 42" fill="none" xmlns="http://www.w3.org/2000/svg">
<path d="M30.3696 15.9543L29.8424 13.6415L34.7934 12.6416L35.5626 14.8805L38.0831 14.2807C40.1237 13.795 42.2657 13.9677 44.2021 14.7741C46.1385 15.5806 47.77 16.9793 48.8626 18.7698L55.3671 31.7732C56.81 34.6591 55.7056 38.1695 52.8694 39.708L52.3332 39.9989C50.553 40.9646 48.6203 40.1367 46.5928 40.1367L23.5308 40.1043C23.5308 40.1043 22.9367 36.3222 21.9598 32.7961L7.52238 40.128C6.47737 40.6586 5.28542 40.8261 4.13466 40.604C2.9839 40.3819 1.93988 39.7829 1.16738 38.9015C-0.625252 36.8565 -0.316533 33.7223 1.84057 32.0663C5.84037 28.9958 12.0187 24.2566 16.3754 20.9325C19.53 18.5248 23.2524 16.9719 27.1827 16.4237L30.3696 15.9543Z" fill="#FFFEF2"/>
<path d="M24.01 4.82677C24.01 4.82677 23.5121 3.64783 22.6418 4.92617C21.7716 6.20451 22.8289 7.29865 23.4518 6.97604C24.0114 6.68638 24.01 4.82677 24.01 4.82677Z" fill="#FFAF99"/>
<path d="M23.5316 6.24359C23.5174 6.24359 23.5038 6.23796 23.4938 6.22794C23.4838 6.21792 23.4782 6.20432 23.4782 6.19015C23.4782 6.18231 23.4828 5.4099 23.1776 5.10136C23.141 5.06217 23.0965 5.03105 23.0471 5.00998C22.9977 4.98891 22.9445 4.97835 22.8908 4.97897C22.8767 4.97897 22.8631 4.97334 22.8531 4.96332C22.843 4.9533 22.8374 4.9397 22.8374 4.92553C22.8374 4.91135 22.843 4.89777 22.8531 4.88774C22.8631 4.87772 22.8767 4.87209 22.8908 4.87209C22.9587 4.87154 23.0259 4.88495 23.0883 4.91149C23.1507 4.93803 23.207 4.97713 23.2537 5.02636C23.3962 5.17065 23.4955 5.41132 23.5482 5.74195C23.5719 5.89055 23.5842 6.04074 23.5851 6.19122C23.5848 6.20521 23.579 6.21853 23.569 6.22832C23.559 6.23812 23.5456 6.2436 23.5316 6.24359Z" fill="black"/>
<path d="M22.9373 6.17581C22.9287 6.17581 22.9203 6.17374 22.9126 6.16977C22.905 6.1658 22.8984 6.16005 22.8935 6.153C22.8895 6.14726 22.8866 6.14078 22.8851 6.13393C22.8835 6.12708 22.8834 6.11999 22.8846 6.11308C22.8858 6.10616 22.8884 6.09956 22.8921 6.09363C22.8959 6.0877 22.9008 6.08258 22.9065 6.07854L23.4539 5.69429C23.4597 5.69025 23.4662 5.68739 23.473 5.68586C23.4799 5.68433 23.487 5.68416 23.4939 5.68537C23.5008 5.68657 23.5074 5.68913 23.5133 5.69289C23.5192 5.69666 23.5244 5.70155 23.5284 5.70729C23.5324 5.71304 23.5353 5.71952 23.5368 5.72637C23.5384 5.73322 23.5385 5.74031 23.5373 5.74722C23.5361 5.75413 23.5336 5.76074 23.5298 5.76667C23.526 5.7726 23.5211 5.77772 23.5154 5.78176L22.968 6.16601C22.959 6.17234 22.9483 6.17576 22.9373 6.17581Z" fill="black"/>
<path d="M24.0319 10.1426C24.0319 10.1426 22.6846 13.2299 20.665 13.3546C20.665 13.3546 25.6377 14.9884 28.772 13.8743C31.9064 12.7602 29.6761 11.5483 29.6761 11.5483L24.0319 10.1426Z" fill="black"/>
<path d="M31.3546 0.59606C31.3546 0.59606 26.6052 -0.661257 24.4474 3.46929C22.2705 7.63654 23.3589 11.2863 25.0563 12.1082C27.0755 13.086 29.3511 13.1431 31.7544 11.5184C34.1577 9.89376 37.0442 7.64295 35.0273 5.08752C33.0104 2.53209 31.3546 0.59606 31.3546 0.59606Z" fill="#FFAF99"/>
<path d="M28.2021 6.86527C28.2021 6.86527 29.8054 4.73292 31.5218 7.06336C31.5218 7.06336 29.1007 8.59288 28.2021 6.86527Z" fill="white"/>
<path d="M26.3147 5.96939C26.3147 5.96939 26.3464 3.73212 24.4161 4.11672C24.4161 4.11726 24.1972 6.28274 26.3147 5.96939Z" fill="white"/>
<path d="M26.2926 7.19932C26.2823 7.19932 26.2723 7.19636 26.2637 7.1908C26.255 7.18524 26.2482 7.17731 26.244 7.16797L25.8713 6.35315C25.8675 6.34452 25.866 6.33503 25.867 6.32564C25.8681 6.31625 25.8716 6.30731 25.8772 6.29971C25.8829 6.29203 25.8906 6.28604 25.8995 6.28237C25.9084 6.2787 25.9181 6.2775 25.9276 6.27887L26.8128 6.40695C26.8197 6.40796 26.8264 6.41032 26.8324 6.41391C26.8385 6.4175 26.8437 6.42223 26.8479 6.42786C26.8521 6.43348 26.8552 6.43988 26.8569 6.44669C26.8586 6.45349 26.859 6.46057 26.858 6.46752C26.857 6.47447 26.8546 6.48115 26.8511 6.48719C26.8475 6.49322 26.8427 6.49849 26.8371 6.5027C26.8315 6.5069 26.8251 6.50995 26.8183 6.51168C26.8115 6.5134 26.8044 6.51378 26.7974 6.51277L26.0093 6.39858L26.3412 7.12486C26.3442 7.13127 26.3459 7.1382 26.3462 7.14525C26.3465 7.15231 26.3454 7.15936 26.3429 7.16599C26.3405 7.17262 26.3367 7.17869 26.3319 7.18386C26.3271 7.18903 26.3213 7.1932 26.3149 7.19612C26.3077 7.19875 26.3002 7.19985 26.2926 7.19932Z" fill="black"/>
<path d="M25.1737 8.75371C25.1818 8.7537 25.1897 8.7555 25.197 8.75899C25.2042 8.76248 25.2106 8.76755 25.2156 8.77384C25.2288 8.7904 26.5486 10.4257 27.501 9.90183C27.5134 9.89502 27.528 9.89341 27.5416 9.89735C27.5552 9.90129 27.5666 9.91046 27.5735 9.92285C27.5803 9.93525 27.5819 9.94985 27.578 9.96345C27.574 9.97704 27.5649 9.98851 27.5525 9.99535C27.1223 10.2321 26.5652 10.1049 25.9415 9.62731C25.4784 9.27299 25.1354 8.84474 25.1321 8.84047C25.1277 8.83497 25.1244 8.82867 25.1225 8.82191C25.1205 8.81516 25.1199 8.80809 25.1207 8.8011C25.1215 8.79412 25.1237 8.78736 25.1271 8.78122C25.1305 8.77507 25.1351 8.76966 25.1406 8.76529C25.15 8.75781 25.1617 8.75373 25.1737 8.75371Z" fill="black"/>
<path d="M25.9427 2.61362C26.2433 2.69417 26.6092 2.81064 26.8467 2.95102C26.8528 2.95458 26.8581 2.95931 26.8623 2.96492C26.8665 2.97054 26.8696 2.97694 26.8714 2.98375C26.8731 2.99055 26.8735 2.99764 26.8725 3.00461C26.8715 3.01157 26.8692 3.01827 26.8656 3.02432C26.8584 3.03649 26.8466 3.04529 26.8329 3.04881C26.8192 3.05233 26.8047 3.05027 26.7925 3.0431C26.3509 2.78314 25.4156 2.59927 25.4062 2.59786C25.3923 2.59515 25.38 2.58704 25.3721 2.5753C25.3642 2.56357 25.3612 2.54917 25.3639 2.53527C25.3666 2.52137 25.3748 2.50912 25.3865 2.5012C25.3982 2.49328 25.4126 2.49034 25.4265 2.49302C25.4453 2.49641 25.6669 2.53972 25.9427 2.61362Z" fill="black"/>
<path d="M29.214 3.80455C29.2158 3.80438 29.2177 3.80438 29.2195 3.80455C29.5206 3.83537 29.9269 4.00496 30.427 4.30852C30.797 4.53297 31.0841 4.75155 31.087 4.75387C31.0982 4.76248 31.1056 4.77519 31.1074 4.78921C31.1093 4.80324 31.1055 4.81744 31.097 4.82869C31.0884 4.83992 31.0756 4.84727 31.0616 4.84914C31.0476 4.85101 31.0334 4.84724 31.0221 4.83866C31.0109 4.83011 29.8922 3.98109 29.2087 3.91073C29.2017 3.91001 29.1949 3.90793 29.1887 3.9046C29.1826 3.90127 29.1771 3.89675 29.1727 3.89131C29.1682 3.88587 29.1649 3.87961 29.1629 3.87288C29.1609 3.86615 29.1602 3.8591 29.1609 3.85212C29.1624 3.83905 29.1686 3.82697 29.1784 3.81819C29.1882 3.80942 29.2009 3.80456 29.214 3.80455Z" fill="black"/>
<path d="M30.5061 0.802808C30.5061 0.802808 29.4219 5.27218 33.4246 7.08762L29.9768 15.7615C29.9768 15.7615 37.5419 15.0569 39.0814 11.9885C39.0814 11.9885 37.4017 11.2057 37.4017 8.52646C37.4017 5.84722 36.7695 3.00125 34.8009 1.36057C33.3702 0.167024 27.4187 -1.46421 25.0254 2.55767C25.0263 2.55821 26.8877 0.519564 30.5061 0.802808Z" fill="black"/>
<path d="M33.2835 11.1471C33.2835 11.1471 34.5233 9.7042 34.6374 8.40751C34.7229 7.43896 34.5682 6.0393 34.4847 5.39372C34.4723 5.2992 34.4242 5.21301 34.3503 5.15287C34.2763 5.09273 34.1821 5.06321 34.0871 5.0704C33.9416 5.0816 33.8043 5.14242 33.6983 5.24268C33.5923 5.34294 33.5239 5.47656 33.5046 5.62121L33.421 8.15455L30.4355 12.6437L30.8604 14.7383L33.2835 11.1471Z" fill="#FFAF99"/>
<path d="M32.1751 11.5974C32.1751 11.5974 33.4149 10.1545 33.5289 8.85799C33.6121 7.91634 33.4684 6.56728 33.3834 5.89979C33.3692 5.79032 33.3135 5.69048 33.2278 5.62087C33.1421 5.55126 33.033 5.5172 32.9229 5.52569C32.7931 5.53575 32.6707 5.59004 32.5761 5.67949C32.4815 5.76894 32.4204 5.88814 32.4031 6.01718L32.1334 8.03178L30.8618 12.6424L32.1751 11.5974Z" fill="#FFAF99"/>
<path d="M33.2152 12.7522C33.7773 12.0883 34.6981 10.7597 35.1805 9.24285C35.5204 8.174 35.4163 6.83795 35.3253 6.14124C35.3085 6.01341 35.2433 5.8969 35.1431 5.81568C35.043 5.73446 34.9155 5.69471 34.787 5.70461C34.674 5.7133 34.5674 5.76048 34.4849 5.83829C34.4025 5.9161 34.3493 6.01983 34.3341 6.13215L34.0566 8.20553L30.8618 14.7362C30.8618 14.7362 32.423 13.6878 33.2152 12.7522Z" fill="#FFAF99"/>
<path d="M31.2982 11.5917C31.2982 11.5917 33.5303 10.1723 32.6116 7.41072C32.5899 7.34494 32.5546 7.28444 32.508 7.23313C32.4615 7.18181 32.4047 7.14082 32.3414 7.11277C32.278 7.08473 32.2095 7.07027 32.1402 7.07031C32.0709 7.07036 32.0024 7.08491 31.9391 7.11304C31.8344 7.17903 31.7485 7.27089 31.6896 7.37975C31.6307 7.48862 31.6009 7.61083 31.603 7.73458C31.603 8.36947 31.6683 8.86738 30.5781 10.4078C30.1012 11.0817 28.8623 12.1179 28.24 12.8438C26.9508 14.3491 28.6914 16.112 29.8433 17.7595C30.9951 19.4069 32.2035 20.8769 32.2035 20.8769L35.4216 18.0947L31.3655 13.6533L31.2982 11.5917Z" fill="#FFAF99"/>
<path d="M32.4031 7.19804C32.3889 7.19804 32.3753 7.19241 32.3653 7.18239C32.3552 7.17237 32.3496 7.15877 32.3496 7.1446V6.39231C32.3496 6.37814 32.3552 6.36454 32.3653 6.35452C32.3753 6.3445 32.3889 6.33887 32.4031 6.33887C32.4172 6.33887 32.4308 6.3445 32.4408 6.35452C32.4509 6.36454 32.4565 6.37814 32.4565 6.39231V7.1446C32.4565 7.15877 32.4509 7.17237 32.4408 7.18239C32.4308 7.19241 32.4172 7.19804 32.4031 7.19804Z" fill="black"/>
<path d="M32.7214 11.1414C32.7099 11.1414 32.6987 11.1376 32.6895 11.1307C32.6781 11.1223 32.6706 11.1097 32.6685 11.0957C32.6665 11.0817 32.67 11.0674 32.6784 11.0561C32.6852 11.0468 33.3634 10.1192 33.4753 8.85407C33.5697 7.78362 33.51 6.93353 33.4432 6.40873C33.4414 6.39467 33.4453 6.3805 33.454 6.36931C33.4627 6.35812 33.4755 6.35083 33.4895 6.34905C33.5035 6.34728 33.5177 6.35115 33.5289 6.35979C33.5401 6.36844 33.5474 6.38117 33.5492 6.39519C33.6167 6.92516 33.6771 7.78362 33.5816 8.86351C33.4673 10.1597 32.7713 11.1102 32.7643 11.1197C32.7594 11.1264 32.7529 11.1319 32.7454 11.1356C32.738 11.1394 32.7297 11.1414 32.7214 11.1414Z" fill="black"/>
<path d="M22.7496 36.099C22.7379 36.099 22.7266 36.0952 22.7173 36.0881C22.708 36.081 22.7013 36.0711 22.6982 36.0598C22.6337 35.8273 22.5678 35.5927 22.5038 35.3651C21.9058 33.2391 21.3411 31.2311 21.3569 28.7815C21.3714 26.553 21.1054 23.2424 21.1027 23.2093C21.1021 23.2022 21.1029 23.1952 21.1051 23.1885C21.1072 23.1818 21.1107 23.1756 21.1152 23.1702C21.1198 23.1649 21.1254 23.1605 21.1316 23.1572C21.1379 23.154 21.1447 23.1521 21.1517 23.1515C21.1658 23.1504 21.1798 23.1549 21.1906 23.1641C21.2014 23.1733 21.2081 23.1864 21.2093 23.2005C21.2121 23.2338 21.4782 26.5496 21.4638 28.782C21.448 31.2167 22.0109 33.2177 22.6068 35.336C22.6705 35.5631 22.7366 35.7979 22.8011 36.0308C22.8049 36.0444 22.8031 36.059 22.7961 36.0713C22.7891 36.0837 22.7775 36.0927 22.7639 36.0965C22.7593 36.098 22.7545 36.0989 22.7496 36.099Z" fill="#191919"/>
<path d="M50.5961 40.4135C47.3313 40.4657 42.4921 41.3383 35.4142 29.9641C33.4903 26.872 32.8772 24.9124 33.5534 23.5479L32.1226 21.0037L35.4474 18.0186L37.5829 20.0814C37.5829 20.0814 39.0367 19.2757 42.1941 21.8046C45.3515 24.3335 53.775 34.3831 53.775 34.3831C53.775 34.3831 55.1816 40.3407 50.5961 40.4135Z" fill="#FFFEF2"/>
<path d="M51.3425 29.0484C51.3325 29.0484 51.3227 29.0456 51.3142 29.0404C50.2924 28.4003 48.7702 28.6955 48.755 28.6985C48.7481 28.6999 48.741 28.7 48.7341 28.6986C48.7272 28.6973 48.7207 28.6946 48.7148 28.6907C48.7089 28.6868 48.7039 28.6818 48.7 28.6759C48.6961 28.6701 48.6933 28.6636 48.692 28.6567C48.6906 28.6498 48.6906 28.6427 48.6919 28.6358C48.6933 28.6289 48.696 28.6223 48.6999 28.6165C48.7038 28.6107 48.7089 28.6056 48.7147 28.6017C48.7205 28.5978 48.7271 28.5951 48.734 28.5938C49.0361 28.5403 49.3425 28.5156 49.6493 28.52C50.1288 28.5245 50.8166 28.6027 51.3708 28.9497C51.3768 28.9534 51.382 28.9583 51.386 28.964C51.3901 28.9697 51.393 28.9762 51.3946 28.9831C51.3962 28.9899 51.3964 28.997 51.3952 29.0039C51.394 29.0109 51.3915 29.0175 51.3878 29.0235C51.3829 29.0311 51.3763 29.0374 51.3683 29.0418C51.3604 29.0461 51.3515 29.0484 51.3425 29.0484Z" fill="#191919"/>
<path d="M8.37939 30.049C8.37939 30.049 9.08804 29.6215 11.5845 27.6669C13.0905 26.4875 14.55 27.1792 16.0133 27.4484C17.4765 27.7175 18.806 28.1087 19.9217 29.5365C21.0374 30.9643 21.6703 32.3843 22.1114 33.0129C22.509 33.5794 21.7277 34.5106 21.1049 34.2925C20.2906 34.0075 19.269 32.9634 18.5345 31.3593C18.1567 30.5339 17.7779 30.5238 16.8906 29.766C16.0033 29.0082 13.1017 32.2893 13.1017 32.2893L10.0407 33.436L8.37939 30.049Z" fill="#FFAF99"/>
<path d="M12.0314 34.009C12.0314 34.009 12.6096 34.9754 12.4468 36.7747C12.284 38.5739 8.73539 43.404 2.31181 39.8317C-1.34524 37.7981 1.50608 33.4823 2.55479 32.3589C3.60351 31.2356 7.13586 28.843 8.35809 29.279C9.58031 29.7151 12.0314 34.009 12.0314 34.009Z" fill="#FFFEF2"/>
<path d="M11.7395 32.7528C11.8352 30.9678 10.9451 29.4689 9.75133 29.4049C8.55758 29.3408 7.51224 30.736 7.41651 32.5209C7.32077 34.3059 8.21089 35.8048 9.40465 35.8689C10.5984 35.9329 11.6437 34.5378 11.7395 32.7528Z" fill="black"/>
<path d="M13.9373 28.4042C15.1649 27.8179 18.6561 30.9024 18.6561 30.9024C18.6561 30.9024 19.0265 33.6688 16.4673 34.2173C13.9081 34.7658 12.7956 33.8729 12.0558 32.6812C11.1145 31.1638 12.1255 30.5841 12.1255 30.5841L13.9373 28.4042Z" fill="#FFAF99"/>
<path d="M23.1594 39.2538C24.2942 38.1191 24.2942 36.2793 23.1594 35.1446C22.0247 34.0099 20.1849 34.0099 19.0502 35.1446C17.9155 36.2793 17.9155 38.1191 19.0502 39.2538C20.1849 40.3886 22.0247 40.3886 23.1594 39.2538Z" fill="#FAB200"/>
<path d="M42.6307 22.3138C42.6175 22.3139 42.6048 22.3091 42.5949 22.3004C42.5851 22.2916 42.5788 22.2795 42.5773 22.2664C42.3991 20.7239 42.4855 19.3805 42.8365 18.2713C43.1181 17.3815 43.5693 16.6406 44.1775 16.0694C45.2141 15.0955 46.3656 14.9518 46.3772 14.9505C46.3912 14.9489 46.4054 14.953 46.4165 14.9617C46.4275 14.9705 46.4347 14.9833 46.4363 14.9974C46.4372 15.0044 46.4366 15.0114 46.4347 15.0182C46.4328 15.0249 46.4296 15.0312 46.4252 15.0368C46.4209 15.0423 46.4155 15.0469 46.4093 15.0503C46.4032 15.0537 46.3965 15.0559 46.3895 15.0567C46.3783 15.058 45.2572 15.1992 44.2461 16.1516C43.6527 16.7104 43.2129 17.436 42.9369 18.3071C42.5917 19.4003 42.5064 20.728 42.6834 22.2534C42.6843 22.2604 42.6837 22.2675 42.6818 22.2743C42.6799 22.281 42.6766 22.2873 42.6722 22.2928C42.6679 22.2984 42.6625 22.303 42.6563 22.3064C42.6502 22.3098 42.6434 22.3119 42.6364 22.3127L42.6307 22.3138Z" fill="#191919"/>
<path d="M30.7415 7.4438C30.7909 7.31286 30.8163 7.17405 30.8163 7.03408C30.8164 6.8358 30.7657 6.64081 30.669 6.4677C30.5723 6.29459 30.4329 6.14914 30.2641 6.04522C29.6179 5.84161 29.0554 6.11505 28.6818 6.39972C28.5584 6.58827 28.4929 6.80876 28.4932 7.03408C28.4932 7.12407 28.5037 7.21374 28.5245 7.30129C29.1455 7.88844 30.0809 7.69765 30.7415 7.4438Z" fill="black"/>
<path d="M24.8943 4.07324C24.726 4.07954 24.5612 4.12246 24.4112 4.19901C24.3982 4.55262 24.437 5.93143 25.8142 5.99699C25.9991 5.78575 26.1008 5.51452 26.1005 5.23383C26.1009 4.98542 26.0213 4.74349 25.8734 4.54389C25.6632 4.28345 25.3527 4.08785 24.8943 4.07324Z" fill="black"/>
<path d="M48.4741 40.4658C48.2264 40.4647 47.9789 40.448 47.7332 40.416C47.0852 40.334 46.043 40.1071 44.7594 39.4914C43.3187 38.8006 41.8735 37.7704 40.461 36.4297C38.6985 34.7552 36.9849 32.5892 35.3681 29.991C33.4027 26.8325 32.8401 24.9026 33.4923 23.5483L32.0752 21.0285C32.0693 21.0179 32.0671 21.0056 32.0691 20.9937C32.071 20.9817 32.077 20.9707 32.0861 20.9626L35.4111 17.9775C35.4211 17.9685 35.4342 17.9636 35.4477 17.9639C35.4611 17.9641 35.474 17.9694 35.4838 17.9788L37.5929 20.016C37.7045 19.9677 38.0702 19.8435 38.7118 19.9404C39.1572 20.008 39.6458 20.1688 40.1642 20.4189C40.8095 20.7305 41.5035 21.1821 42.2267 21.7616C43.1287 22.4839 44.699 23.9096 47.0581 26.5997C48.4683 28.2078 49.5061 29.5241 49.5164 29.5371C49.5252 29.5482 49.5291 29.5624 49.5274 29.5765C49.5257 29.5905 49.5185 29.6033 49.5074 29.6121C49.4962 29.6208 49.4821 29.6248 49.468 29.6231C49.454 29.6215 49.4411 29.6143 49.4324 29.6032C49.3912 29.551 45.2763 24.3409 42.1599 21.8449C41.2692 21.1315 39.9476 20.2406 38.7095 20.0482C37.9733 19.9339 37.6116 20.125 37.6081 20.127C37.5981 20.1325 37.5866 20.1346 37.5753 20.1331C37.5639 20.1316 37.5534 20.1265 37.5452 20.1186L35.4453 18.0913L32.1894 21.0146L33.5992 23.5214C33.6035 23.529 33.6058 23.5375 33.6061 23.5462C33.6063 23.5549 33.6045 23.5635 33.6006 23.5713C32.9474 24.8896 33.5032 26.7928 35.4588 29.9356C37.069 32.5231 38.7745 34.6802 40.5283 36.3472C41.9305 37.6801 43.3663 38.7042 44.7957 39.3915C46.0667 40.0023 47.0975 40.2287 47.7382 40.3098C48.433 40.3989 48.8313 40.3419 48.8352 40.3413C48.8422 40.3403 48.8493 40.3406 48.8561 40.3423C48.8629 40.344 48.8693 40.3471 48.875 40.3513C48.8806 40.3554 48.8854 40.3607 48.889 40.3667C48.8926 40.3728 48.895 40.3794 48.896 40.3864C48.898 40.4004 48.8944 40.4146 48.886 40.426C48.8775 40.4373 48.8649 40.4449 48.8509 40.447C48.7259 40.4617 48.6 40.468 48.4741 40.4658Z" fill="#191919"/>
<path d="M28.2399 12.8962C28.2268 12.8965 28.2142 12.8919 28.2043 12.8834C28.1989 12.8788 28.1945 12.8733 28.1914 12.867C28.1882 12.8608 28.1863 12.8539 28.1857 12.8469C28.1852 12.8399 28.186 12.8329 28.1882 12.8262C28.1903 12.8196 28.1938 12.8134 28.1984 12.8081C28.4699 12.491 28.8648 12.109 29.2469 11.7392C29.748 11.2545 30.2664 10.7532 30.5336 10.3757C31.5549 8.93278 31.5521 8.42401 31.549 7.83543C31.549 7.80176 31.549 7.76774 31.549 7.73336C31.549 7.27019 31.898 7.07317 31.9128 7.06497L31.9169 7.06301C31.9927 7.0297 32.0748 7.01324 32.1575 7.01474C32.2403 7.01625 32.3217 7.0357 32.3963 7.07174C32.4622 7.10261 32.5204 7.14782 32.5667 7.20407C32.6129 7.26031 32.646 7.32618 32.6635 7.39685C32.9391 8.52091 32.6469 9.52029 32.3532 10.1609C32.0355 10.854 31.6584 11.2755 31.6426 11.2931C31.6331 11.3036 31.6198 11.3099 31.6057 11.3107C31.5916 11.3114 31.5777 11.3065 31.5672 11.2971C31.562 11.2924 31.5577 11.2867 31.5547 11.2803C31.5517 11.274 31.5499 11.2671 31.5496 11.2601C31.5492 11.2531 31.5502 11.2461 31.5526 11.2395C31.5549 11.2328 31.5586 11.2267 31.5633 11.2215C31.567 11.2174 31.9468 10.7922 32.258 10.1131C32.5431 9.48965 32.8281 8.51504 32.5609 7.42214C32.547 7.36679 32.521 7.31522 32.4847 7.27121C32.4484 7.2272 32.4027 7.19185 32.351 7.16776C32.2909 7.1387 32.2253 7.12293 32.1585 7.12151C32.0918 7.1201 32.0255 7.13308 31.9643 7.15957C31.9374 7.17524 31.6577 7.3459 31.6577 7.73336C31.6577 7.76756 31.6577 7.80141 31.6577 7.8349C31.6611 8.44182 31.6641 8.96609 30.6227 10.4374C30.3498 10.823 29.8278 11.3281 29.3232 11.8162C28.943 12.1838 28.5497 12.5644 28.2816 12.8774C28.2765 12.8834 28.2701 12.8882 28.2628 12.8915C28.2556 12.8947 28.2478 12.8964 28.2399 12.8962Z" fill="black"/>
<path d="M33.4967 11.1999C33.4856 11.1999 33.4748 11.1964 33.4657 11.1899C33.4542 11.1817 33.4464 11.1692 33.4441 11.1553C33.4418 11.1413 33.4451 11.127 33.4533 11.1155C33.4634 11.101 34.4738 9.66861 34.5857 8.40221C34.6871 7.25498 34.5695 6.09866 34.531 5.7716C34.5302 5.76463 34.5308 5.75756 34.5327 5.75081C34.5346 5.74405 34.5378 5.73774 34.5421 5.73223C34.5465 5.72673 34.5519 5.72213 34.558 5.7187C34.5641 5.71528 34.5709 5.7131 34.5779 5.71228C34.5848 5.71146 34.5919 5.71202 34.5987 5.71393C34.6054 5.71584 34.6117 5.71906 34.6172 5.72341C34.6227 5.72776 34.6273 5.73316 34.6308 5.73929C34.6342 5.74542 34.6364 5.75216 34.6372 5.75913C34.6869 6.18168 34.7916 7.2858 34.6922 8.41165C34.5779 9.70727 33.5505 11.1629 33.5402 11.1775C33.5353 11.1844 33.5287 11.19 33.5212 11.194C33.5136 11.1979 33.5052 11.1999 33.4967 11.1999Z" fill="black"/>
<path d="M31.758 14.082C31.758 14.082 31.1167 14.4175 30.478 14.5564L32.5505 14.9499L31.758 14.082Z" fill="black"/>
<path d="M32.5233 8.03252C32.6646 8.00345 32.739 7.78505 32.6895 7.54472C32.6401 7.30438 32.4854 7.13312 32.3442 7.1622C32.2029 7.19127 32.1285 7.40968 32.1779 7.65001C32.2274 7.89034 32.382 8.0616 32.5233 8.03252Z" fill="black"/>
<path d="M33.3998 6.13378C33.4242 6.42807 33.3275 6.6764 33.1837 6.68833C33.0399 6.70027 32.9037 6.47136 32.8793 6.17707C32.8549 5.88278 32.9516 5.63445 33.0953 5.62252C33.2391 5.61058 33.3754 5.83949 33.3998 6.13378Z" fill="black"/>
<path d="M34.2961 6.30644C34.4353 6.29489 34.5266 6.02578 34.5 5.70536C34.4735 5.38494 34.3391 5.13454 34.1998 5.14609C34.0606 5.15763 33.9693 5.42675 33.9959 5.74717C34.0224 6.06759 34.1568 6.31798 34.2961 6.30644Z" fill="black"/>
<path d="M12.1283 37.8414C12.1222 37.8413 12.1162 37.8401 12.1105 37.838C12.0972 37.833 12.0865 37.823 12.0806 37.8101C12.0747 37.7972 12.0742 37.7825 12.0791 37.7692C12.3383 37.0766 12.5681 36.0462 12.1906 35.0709C11.9649 34.488 11.6236 34.1968 11.6206 34.1939C11.6098 34.1848 11.603 34.1718 11.6018 34.1577C11.6005 34.1436 11.6049 34.1296 11.614 34.1188C11.6231 34.1079 11.6361 34.1011 11.6502 34.0998C11.6643 34.0986 11.6783 34.1029 11.6892 34.112C11.704 34.1243 12.0519 34.4198 12.2883 35.0262C12.5051 35.5827 12.6624 36.5169 12.1796 37.8066C12.1757 37.817 12.1687 37.826 12.1595 37.8322C12.1503 37.8384 12.1394 37.8416 12.1283 37.8414Z" fill="#191919"/>
<path d="M35.1532 6.83359C35.2838 6.82276 35.3711 6.59063 35.3483 6.31511C35.3255 6.0396 35.2011 5.82503 35.0705 5.83586C34.9399 5.84669 34.8525 6.07882 34.8753 6.35433C34.8982 6.62984 35.0226 6.84442 35.1532 6.83359Z" fill="black"/>
<path d="M21.847 32.6682C22.1375 33.0394 22.1092 33.1809 21.8566 33.3784C21.604 33.576 21.2226 33.7552 20.9321 33.3838C20.6415 33.0124 20.774 32.4742 21.0267 32.2766C21.2793 32.0791 21.5566 32.2968 21.847 32.6682Z" fill="black"/>
<path d="M9.74996 29.4053C9.55147 29.395 9.35292 29.4243 9.16584 29.4914C8.90824 29.6724 8.63284 29.8619 8.35761 30.0458C7.83352 30.6117 7.46976 31.5029 7.41525 32.5219C7.31958 34.3069 8.20975 35.8058 9.40365 35.8699H9.41772C9.93433 35.564 12.6383 33.9262 13.1943 33.5988C13.5761 33.043 13.2868 32.5269 13.3318 31.6873C13.4279 29.9022 10.9439 29.4693 9.74996 29.4053Z" fill="#FFAF99"/>
<path d="M17.539 27.8955C17.539 27.8955 19.0388 28.837 18.5924 31.7708C18.146 34.7046 15.5996 32.5999 15.5996 32.5999L15.9135 28.3441L17.539 27.8955Z" fill="#FFAF99"/>
<path d="M15.5083 27.4336C15.5083 27.4336 17.008 28.3218 16.5616 31.0899C16.1152 33.8581 13.5688 31.8722 13.5688 31.8722L13.8829 27.8569L15.5083 27.4336Z" fill="#FFAF99"/>
<path d="M13.1992 27.21C13.1992 27.21 15.0268 27.9877 14.5803 30.6691C14.3343 32.1459 13.5127 32.1833 12.8378 31.8872C12.1713 31.5949 11.7089 31.1515 11.5439 30.4874C11.431 30.0319 11.8327 29.2306 12.4307 29.5636L11.9522 27.7968L13.1992 27.21Z" fill="#FFAF99"/>
<path d="M12.3306 30.4509C12.3218 30.4509 12.313 30.4487 12.3052 30.4445C12.2974 30.4403 12.2908 30.4342 12.2859 30.4268C12.282 30.4209 12.2794 30.4144 12.278 30.4075C12.2767 30.4006 12.2768 30.3935 12.2782 30.3866C12.2796 30.3797 12.2824 30.3732 12.2863 30.3673C12.2903 30.3615 12.2953 30.3566 12.3012 30.3527C12.4762 30.238 12.5002 29.9813 12.4897 29.786C12.4674 29.3738 12.2802 28.9429 12.2095 28.8918C12.1981 28.8926 12.1868 28.8897 12.1772 28.8836C12.1676 28.8775 12.1602 28.8685 12.156 28.8579C12.1535 28.8514 12.1522 28.8444 12.1524 28.8374C12.1525 28.8304 12.154 28.8234 12.1568 28.817C12.1596 28.8106 12.1637 28.8047 12.1687 28.7999C12.1738 28.795 12.1798 28.7912 12.1863 28.7886C12.2659 28.7575 12.3338 28.8672 12.378 28.9525C12.4648 29.1205 12.5647 29.4212 12.5918 29.7139C12.6247 30.0702 12.5446 30.3212 12.3602 30.4421C12.3514 30.4479 12.3411 30.4509 12.3306 30.4509Z" fill="black"/>
<path d="M17.1846 33.3441C16.8886 33.3441 16.5587 33.2522 16.2115 33.0713C15.9806 32.9512 15.7635 32.8061 15.5641 32.6388C15.5535 32.6295 15.547 32.6163 15.546 32.6022C15.5451 32.588 15.5498 32.5741 15.5591 32.5635C15.5684 32.5528 15.5816 32.5463 15.5958 32.5454C15.6099 32.5444 15.6238 32.5492 15.6345 32.5585C15.6435 32.5663 16.4195 33.2375 17.1843 33.2375C17.3011 33.2382 17.4172 33.2211 17.5288 33.1866C18.0048 33.0364 18.3451 32.5554 18.5405 31.757C18.6992 31.1077 18.7418 30.4988 18.6668 29.9475C18.6071 29.5073 18.4726 29.1024 18.2674 28.7438C17.9177 28.1327 17.4772 27.8643 17.4727 27.8616C17.4606 27.8542 17.4519 27.8424 17.4486 27.8286C17.4453 27.8148 17.4475 27.8003 17.4549 27.7882C17.4623 27.7762 17.4741 27.7675 17.4878 27.7642C17.5015 27.7609 17.516 27.7631 17.5281 27.7704C17.547 27.7818 17.9938 28.0528 18.3577 28.6859C18.5715 29.0566 18.7106 29.4749 18.7728 29.9293C18.8504 30.4952 18.8075 31.1189 18.645 31.783C18.4402 32.6203 18.075 33.1273 17.5614 33.2892C17.4394 33.3267 17.3123 33.3452 17.1846 33.3441Z" fill="black"/>
<path d="M15.2266 32.6698C14.9529 32.6698 14.6462 32.5985 14.3181 32.456C14.0703 32.3489 13.8345 32.2158 13.6148 32.0591C13.6091 32.0549 13.6044 32.0496 13.6008 32.0436C13.5972 32.0376 13.5948 32.0309 13.5938 32.0239C13.5928 32.017 13.5932 32.0099 13.5949 32.0031C13.5966 31.9963 13.5997 31.9899 13.6039 31.9843C13.6081 31.9787 13.6133 31.9739 13.6194 31.9703C13.6254 31.9667 13.6321 31.9644 13.639 31.9634C13.646 31.9623 13.6531 31.9627 13.6599 31.9644C13.6667 31.9662 13.6731 31.9692 13.6787 31.9734C13.6901 31.982 14.8315 32.8214 15.6676 32.4822C16.1052 32.3041 16.3884 31.8336 16.5097 31.0815C16.7372 29.6706 16.4319 28.7384 16.1356 28.2049C15.8791 27.7429 15.5629 27.4611 15.4316 27.3769C15.4257 27.3731 15.4206 27.3681 15.4166 27.3624C15.4126 27.3566 15.4098 27.3501 15.4083 27.3432C15.4068 27.3363 15.4067 27.3293 15.4079 27.3223C15.4092 27.3154 15.4118 27.3088 15.4156 27.3029C15.4232 27.291 15.4353 27.2826 15.4491 27.2796C15.4629 27.2765 15.4774 27.2791 15.4893 27.2867C15.5055 27.2972 15.8916 27.5484 16.2256 28.1468C16.5322 28.6958 16.8491 29.6535 16.6154 31.0986C16.4878 31.8901 16.1823 32.389 15.7068 32.5814C15.5539 32.6416 15.3909 32.6716 15.2266 32.6698Z" fill="black"/>
<path d="M13.4592 32.086C13.2613 32.086 13.0448 32.0356 12.8161 31.9353C12.0857 31.6146 11.6523 31.1451 11.492 30.4993C11.4166 30.1965 11.5055 29.7351 11.7804 29.5195C11.9204 29.4092 12.1662 29.3191 12.5411 29.5149C12.5534 29.5214 12.5627 29.5326 12.5669 29.5459C12.5711 29.5592 12.57 29.5737 12.5637 29.5861C12.5571 29.5985 12.546 29.6078 12.5327 29.612C12.5193 29.6162 12.5049 29.6151 12.4924 29.6088C12.2322 29.4728 12.015 29.4707 11.8474 29.6025C11.6136 29.7864 11.529 30.2011 11.5967 30.4731C11.7485 31.0847 12.1618 31.5307 12.8599 31.8371C13.1355 31.9579 13.5354 32.0634 13.8764 31.8788C14.2038 31.7007 14.4231 31.291 14.5284 30.6589C14.6287 30.0559 14.6166 29.491 14.4928 28.9799C14.3968 28.5789 14.2245 28.2002 13.9852 27.8644C13.5801 27.2981 13.1145 27.0508 13.1099 27.0483C13.0975 27.0418 13.0882 27.0307 13.084 27.0173C13.0798 27.004 13.0809 26.9896 13.0872 26.9771C13.0905 26.9709 13.0949 26.9653 13.1003 26.9608C13.1057 26.9563 13.1119 26.9528 13.1186 26.9507C13.1253 26.9486 13.1323 26.9478 13.1393 26.9484C13.1463 26.9491 13.1531 26.951 13.1594 26.9543C13.1792 26.9646 13.6487 27.2133 14.069 27.7985C14.3171 28.1454 14.4959 28.5369 14.5957 28.9516C14.7243 29.4778 14.7374 30.0584 14.6344 30.6773C14.5234 31.3437 14.2856 31.7798 13.9279 31.9734C13.7836 32.0498 13.6224 32.0885 13.4592 32.086Z" fill="black"/>
<path d="M13.1759 33.3196C12.7671 33.3196 12.2706 33.1906 11.707 32.7982C11.6954 32.7901 11.6874 32.7777 11.6849 32.7638C11.6824 32.7499 11.6855 32.7355 11.6936 32.7239C11.6976 32.7181 11.7027 32.7132 11.7086 32.7094C11.7145 32.7056 11.7211 32.703 11.7281 32.7018C11.735 32.7005 11.7421 32.7007 11.7489 32.7022C11.7558 32.7037 11.7623 32.7065 11.7681 32.7106C12.173 32.9924 12.5745 33.1579 12.9616 33.202C13.264 33.238 13.5706 33.196 13.8523 33.0802C14.145 32.9594 14.4044 32.77 14.6085 32.528C14.6128 32.5224 14.6181 32.5177 14.6242 32.5141C14.6302 32.5106 14.6369 32.5083 14.6439 32.5073C14.6509 32.5064 14.658 32.5068 14.6648 32.5086C14.6716 32.5104 14.6779 32.5135 14.6835 32.5178C14.6948 32.5264 14.7022 32.5391 14.7041 32.5531C14.706 32.5671 14.7022 32.5814 14.6937 32.5926C14.6819 32.6079 14.4026 32.9696 13.892 33.1782C13.6648 33.2716 13.4216 33.3196 13.1759 33.3196Z" fill="black"/>
<path d="M9.47949 39.2234L11.4173 40.4783C12.1542 40.9557 13.0596 40.1805 12.701 39.3784L11.8075 37.3838L9.47949 39.2234Z" fill="#BEE91E"/>
<path d="M4.98842 39.364L3.3929 41.0322C2.7862 41.6666 1.72608 41.1209 1.89007 40.2584L2.2981 38.1113L4.98842 39.364Z" fill="#BEE91E"/>
<path d="M0 33.7585C0 30.1904 3.20751 27.2977 7.16415 27.2977C7.83603 27.2977 8.77036 27.4254 9.10306 27.5372C9.18417 27.5645 10.799 25.9816 11.0292 26.4724C11.2995 27.0488 11.087 28.3669 11.1693 28.4011C13.2312 29.2547 14.328 31.5284 14.328 33.7585C14.328 37.3267 11.1205 40.2192 7.1638 40.2192C3.20716 40.2192 0 37.3267 0 33.7585Z" fill="#CEFD1E"/>
<path d="M14.3473 32.9163C14.7166 32.7957 14.8229 32.107 14.5848 31.3781C14.3467 30.6492 13.8543 30.1561 13.4851 30.2767C13.1158 30.3973 13.0094 31.086 13.2475 31.8149C13.4856 32.5438 13.978 33.0369 14.3473 32.9163Z" fill="#BEE91E"/>
<path d="M11.6208 30.8039C11.5507 30.5796 11.5756 30.3717 11.6779 30.3392C11.7802 30.3068 11.9207 30.4619 11.9915 30.6868C12.0623 30.9118 12.0367 31.119 11.9342 31.1513C11.8317 31.1835 11.6916 31.0281 11.6208 30.8039Z" fill="black"/>
<path d="M3.94987 28.8611L3.83984 28.2621C3.83984 28.2621 4.50069 27.8199 5.79522 27.6292C6.94836 27.459 7.80683 27.5323 7.80683 27.5323L7.91685 28.1314C7.91685 28.1314 7.15124 28.0184 5.87686 28.2297C4.72196 28.4218 3.94987 28.8611 3.94987 28.8611Z" fill="#68810D"/>
<path d="M1.97649 27.2459C1.95229 27.2459 1.92837 27.2406 1.90641 27.2305L0.178791 26.4277C0.158976 26.4185 0.141168 26.4055 0.126384 26.3894C0.111599 26.3733 0.100128 26.3545 0.0926276 26.334C0.0851269 26.3135 0.0817429 26.2917 0.082669 26.2698C0.0835952 26.248 0.0888137 26.2266 0.0980255 26.2068C0.107223 26.1869 0.12024 26.1691 0.136331 26.1543C0.152421 26.1395 0.171272 26.128 0.191805 26.1205C0.212337 26.113 0.23415 26.1096 0.255996 26.1105C0.277842 26.1114 0.299293 26.1166 0.319124 26.1258L2.04674 26.9288C2.08674 26.9474 2.11771 26.9812 2.13285 27.0226C2.14799 27.0641 2.14607 27.1098 2.12751 27.1499C2.11411 27.1786 2.09277 27.2029 2.06602 27.2199C2.03926 27.2369 2.00819 27.2459 1.97649 27.2459Z" fill="black"/>
<path d="M4.81948 25.4897C4.78485 25.4897 4.75106 25.479 4.7228 25.459C4.69455 25.4389 4.67323 25.4106 4.6618 25.3779L3.9209 23.2505C3.9137 23.2299 3.91064 23.208 3.9119 23.1862C3.91315 23.1643 3.9187 23.143 3.92821 23.1233C3.93773 23.1036 3.95104 23.086 3.96737 23.0714C3.9837 23.0569 4.00273 23.0457 4.02339 23.0385C4.06507 23.024 4.11079 23.0267 4.15051 23.0459C4.19023 23.0651 4.22069 23.0993 4.2352 23.141L4.97628 25.2684C4.99077 25.3101 4.98812 25.3559 4.9689 25.3956C4.94968 25.4354 4.91548 25.4659 4.87379 25.4804C4.85633 25.4865 4.83798 25.4896 4.81948 25.4897Z" fill="black"/>
<path d="M7.83036 25.489C7.78983 25.4889 7.75071 25.4741 7.72034 25.4473C7.68727 25.4181 7.66715 25.3769 7.66439 25.3329C7.66163 25.2888 7.67646 25.2455 7.70562 25.2123L9.35405 23.3425C9.36849 23.3261 9.38602 23.3127 9.40564 23.3031C9.42526 23.2935 9.44658 23.2878 9.46838 23.2865C9.49018 23.2851 9.51204 23.288 9.53271 23.2951C9.55337 23.3022 9.57244 23.3133 9.58881 23.3278C9.60522 23.3422 9.61861 23.3597 9.62824 23.3793C9.63786 23.3989 9.64353 23.4202 9.64491 23.442C9.64629 23.4638 9.64337 23.4857 9.6363 23.5064C9.62923 23.527 9.61815 23.5461 9.60371 23.5625L7.95528 25.4326C7.93966 25.4503 7.92044 25.4645 7.8989 25.4742C7.87736 25.484 7.854 25.489 7.83036 25.489Z" fill="black"/>
<path d="M5.72324 31.1936C5.7103 31.1935 5.69782 31.1887 5.6882 31.1801C5.67781 31.1708 5.67151 31.1578 5.67069 31.1439C5.66987 31.13 5.67459 31.1164 5.68382 31.106L7.04633 29.5774H5.16927C5.15949 29.5774 5.14989 29.5747 5.14157 29.5695C5.13324 29.5644 5.12651 29.557 5.12214 29.5483C5.1179 29.5397 5.11608 29.5301 5.11688 29.5206C5.11769 29.511 5.12108 29.5019 5.1267 29.4942L6.35308 27.8618C6.35722 27.8563 6.36241 27.8517 6.36835 27.8482C6.37428 27.8446 6.38086 27.8423 6.38769 27.8413C6.39452 27.8404 6.40148 27.8408 6.40817 27.8425C6.41485 27.8442 6.42114 27.8472 6.42666 27.8513C6.43781 27.8597 6.44518 27.8721 6.44716 27.8859C6.44913 27.8997 6.44553 27.9138 6.43717 27.9249L5.27369 29.4731H7.16371C7.17385 29.4731 7.18378 29.476 7.1923 29.4815C7.20082 29.487 7.20756 29.4949 7.21172 29.5041C7.21588 29.5134 7.21728 29.5237 7.21572 29.5337C7.21417 29.5438 7.20973 29.5532 7.20296 29.5607L5.76249 31.176C5.75755 31.1816 5.7515 31.186 5.74474 31.189C5.73797 31.192 5.73065 31.1936 5.72324 31.1936Z" fill="#68810D"/>
</svg>
