<svg width="47" height="57" viewBox="0 0 47 57" fill="none" xmlns="http://www.w3.org/2000/svg">
<path d="M39.5856 2.85977L39.5855 2.86002C39.1342 4.24294 38.7429 6.23702 38.4329 8.8029L39.5856 2.85977ZM39.5856 2.85977C39.8352 2.09354 40.0875 1.56492 40.3329 1.23481C40.5719 0.913266 40.7565 0.839842 40.8812 0.833548L40.9013 0.833714C41.0456 0.834905 41.285 0.944357 41.6008 1.39168C41.9031 1.8198 42.1983 2.45186 42.4778 3.23375C43.0345 4.7913 43.4878 6.82403 43.8294 8.69603L43.8295 8.69633C44.7817 13.8961 45.4259 20.8293 45.6487 28.2221L45.6487 28.2222C45.8731 35.6437 45.6375 42.625 45.0052 47.8791C44.6931 50.4458 44.3038 52.4398 43.8525 53.8226L43.8524 53.823M39.5856 2.85977L43.8524 53.823M43.8524 53.823C43.6028 54.5902 43.3505 55.1187 43.1052 55.4485C42.8664 55.7695 42.6819 55.8428 42.5568 55.8491L42.5367 55.8489C42.3924 55.8477 42.1531 55.7383 41.8372 55.2909C41.5348 54.8628 41.2395 54.2307 40.9599 53.4488C40.403 51.8912 39.9493 49.8586 39.6066 47.9864C38.6563 42.7886 38.0139 35.883 37.7894 28.4605C37.5649 21.0388 37.8005 14.0573 38.4328 8.80314L43.8524 53.823Z" stroke="white"/>
<mask id="mask0_6628_18426" style="mask-type:alpha" maskUnits="userSpaceOnUse" x="0" y="0" width="47" height="57">
<path d="M40.9059 0.33457L40.8743 0.334309C40.2006 0.354423 39.6234 1.13182 39.1106 2.70574C38.6446 4.13388 19.5071 6.16895 19.1955 8.74791C18.5593 14.0341 0.223715 -0.0554583 0.448692 7.38288C0.582929 11.8211 3.49451 24.3285 15.5965 34.254C23.7772 40.9633 38.7295 45.9677 39.1152 48.0772C39.8031 51.8357 40.953 56.3367 42.5331 56.3498L42.5647 56.35C43.2384 56.3299 43.8156 55.5545 44.3283 53.9786C44.7944 52.5504 45.1884 50.5193 45.502 47.9403C46.1382 42.6541 46.3739 35.6462 46.1489 28.2079C45.9257 20.7992 45.28 13.8393 44.3218 8.6071C43.6358 4.84863 42.4859 0.347617 40.9059 0.33457Z" fill="white"/>
</mask>
<g mask="url(#mask0_6628_18426)">
<path d="M24.5767 18.2441L25.9816 18.1007C26.865 18.0106 27.508 17.2214 27.4178 16.3381L27.2352 14.5481C27.145 13.6647 26.3559 13.0217 25.4725 13.1119L24.0676 13.2552C23.1843 13.3454 22.5413 14.1345 22.6314 15.0179L22.8141 16.8079C22.9042 17.6912 23.6934 18.3342 24.5767 18.2441Z" fill="white"/>
<path d="M25.1606 18.0565C24.8888 18.0541 24.6276 17.9508 24.4276 17.7667C24.2276 17.5825 24.1032 17.3307 24.0785 17.06L23.8172 14.5079C23.8023 14.3642 23.816 14.2191 23.8575 14.0808C23.899 13.9425 23.9674 13.8138 24.0589 13.702C24.1504 13.5915 24.2629 13.5003 24.3899 13.4335C24.5169 13.3668 24.6559 13.3259 24.7988 13.3131L25.8683 13.2034C25.9078 13.2038 25.9493 13.2041 25.9907 13.2044C26.261 13.2065 26.521 13.3084 26.7207 13.4905C26.9205 13.6727 27.0459 13.9221 27.0729 14.1911L27.3323 16.7451C27.347 16.8888 27.3333 17.0339 27.2918 17.1722C27.2503 17.3105 27.1819 17.4392 27.0906 17.551C26.9996 17.663 26.8874 17.7558 26.7604 17.8243C26.6334 17.8927 26.4941 17.9354 26.3505 17.9498L25.2831 18.0575C25.2423 18.06 25.2013 18.0597 25.1606 18.0565Z" fill="#DADADD"/>
<path opacity="0.29" d="M25.9878 13.3217C26.2276 13.3237 26.4582 13.4141 26.6354 13.5756C26.8127 13.737 26.9241 13.9582 26.9484 14.1968L27.2078 16.7508C27.2213 16.8779 27.2094 17.0064 27.1728 17.1289C27.1362 17.2513 27.0756 17.3652 26.9945 17.4641C26.9137 17.5633 26.8141 17.6457 26.7014 17.7065C26.5888 17.7672 26.4652 17.8052 26.3378 17.8181L25.2704 17.9258L25.1617 17.9249C24.9221 17.9233 24.6915 17.833 24.5145 17.6714C24.3374 17.5099 24.2265 17.2885 24.2031 17.0499L23.9417 14.4978C23.9161 14.241 23.9933 13.9846 24.1563 13.7845C24.3194 13.5845 24.555 13.4572 24.8117 13.4305L25.8812 13.3209C25.9167 13.3192 25.9523 13.3195 25.9878 13.3217ZM25.9899 13.0709C25.9452 13.0676 25.9003 13.0673 25.8556 13.0698L24.7861 13.1795C24.6261 13.1956 24.4709 13.2431 24.3293 13.3193C24.1877 13.3956 24.0626 13.499 23.961 13.6236C23.8594 13.7483 23.7834 13.8917 23.7374 14.0458C23.6913 14.1999 23.6761 14.3615 23.6927 14.5215L23.9521 17.0735C23.9831 17.3732 24.1233 17.651 24.346 17.854C24.5688 18.0569 24.8584 18.1707 25.1597 18.1738C25.205 18.1771 25.2505 18.1774 25.296 18.1749L26.3634 18.0672C26.6863 18.0341 26.9829 17.8742 27.1879 17.6225C27.393 17.3709 27.4897 17.0481 27.4569 16.7252L27.1975 14.1731C27.1665 13.8734 27.0263 13.5956 26.8035 13.3927C26.5808 13.1898 26.2912 13.0759 25.9899 13.0729L25.9899 13.0709Z" fill="white"/>
<path d="M7.31136 17.4034L7.48615 17.5234C7.60233 17.6044 7.73333 17.6617 7.87166 17.692C8.00999 17.7224 8.15294 17.7252 8.29236 17.7003C8.43177 17.6754 8.56491 17.6233 8.68419 17.5469C8.80346 17.4706 8.90653 17.3715 8.98751 17.2553C9.06849 17.1391 9.1258 17.0081 9.15615 16.8698C9.1865 16.7315 9.18931 16.5885 9.16442 16.4491C9.13953 16.3097 9.08742 16.1765 9.01107 16.0573C8.93472 15.938 8.83562 15.8349 8.71944 15.7539L8.54661 15.634C8.43052 15.5528 8.29953 15.4953 8.16116 15.4648C8.02279 15.4343 7.87975 15.4314 7.74027 15.4563C7.60078 15.4812 7.46758 15.5334 7.34832 15.6099C7.22905 15.6864 7.12606 15.7857 7.04525 15.9021C6.88151 16.1365 6.81756 16.4263 6.86746 16.7078C6.91736 16.9894 7.07703 17.2396 7.31136 17.4034Z" fill="#CEFD1E"/>
<path d="M4.82489 15.894C6.11681 17.548 8.21881 24.433 12.277 27.3996C12.4968 27.561 12.735 27.6956 12.9867 27.8005C13.4945 27.9984 14.0431 28.0688 14.5845 28.0057C15.1258 27.9425 15.6435 27.7477 16.0921 27.4382C16.5408 27.1287 16.9067 26.714 17.1581 26.2304C17.4094 25.7468 17.5384 25.209 17.5337 24.6639L14.5221 21.9687L7.74034 15.8805L4.82489 15.894Z" fill="url(#paint0_linear_6628_18426)"/>
<path d="M7.53153 17.1711L6.07487 18.4844C3.47838 15.9901 4.10686 13.313 3.82227 11.8984L8.06097 12.3759L7.53153 17.1711Z" fill="url(#paint1_linear_6628_18426)"/>
<path d="M6.1656 7.12874C6.23378 7.0907 6.30911 7.06726 6.38683 7.05991C6.46455 7.05256 6.54295 7.06145 6.61705 7.08602C6.69115 7.11059 6.75933 7.15031 6.81725 7.20265C6.87517 7.25499 6.92157 7.3188 6.95351 7.39004L8.11696 10.0108L8.30817 12.9277L5.8776 13.3027L6.54076 9.7746L5.89741 7.79413C5.85852 7.6693 5.86398 7.53487 5.91285 7.41361C5.96173 7.29234 6.05102 7.19171 6.1656 7.12874Z" fill="url(#paint2_linear_6628_18426)"/>
<path d="M3.48111 8.27426C3.5416 8.22397 3.6119 8.18682 3.68753 8.16518C3.76317 8.14353 3.84248 8.13787 3.92042 8.14855C3.99836 8.15922 4.07323 8.186 4.14025 8.22719C4.20728 8.26837 4.265 8.32306 4.30974 8.38776L5.93754 10.7477L6.66274 13.5801L4.34114 14.3925L4.34511 10.8017L3.34889 8.9783C3.28688 8.86358 3.26618 8.73103 3.29025 8.60286C3.31432 8.47468 3.3817 8.35868 3.48111 8.27426Z" fill="url(#paint3_linear_6628_18426)"/>
<path d="M4.34859 7.79736C4.4036 7.74144 4.46966 7.6976 4.54255 7.66862C4.61545 7.63964 4.69357 7.62616 4.77196 7.62904C4.85035 7.63191 4.92728 7.65109 4.99785 7.68533C5.06842 7.71957 5.13108 7.76814 5.18185 7.82794L7.03229 10.0159L8.02879 12.7637L5.79819 13.798L5.45243 10.2221L4.28152 8.50391C4.21025 8.39622 4.17804 8.26735 4.19024 8.13879C4.20244 8.01022 4.25832 7.88972 4.34859 7.79736Z" fill="url(#paint4_linear_6628_18426)"/>
<path d="M2.24308 9.69C2.29124 9.62795 2.35182 9.57662 2.42094 9.5393C2.49006 9.50198 2.56621 9.47948 2.64451 9.47325C2.72282 9.46702 2.80156 9.47719 2.87571 9.50311C2.94986 9.52903 3.01779 9.57013 3.07517 9.62379L5.16446 11.5886L6.47019 14.2026L4.37381 15.4869L3.61273 11.9767L2.25495 10.4051C2.17041 10.3057 2.12301 10.1801 2.12085 10.0497C2.11868 9.91925 2.16189 9.79211 2.24308 9.69Z" fill="url(#paint5_linear_6628_18426)"/>
<path d="M7.53296 17.1701L8.30677 12.92L6.95272 10.6571L6.04137 11.9493L6.29943 12.9903C6.29943 12.9903 3.87049 15.5597 7.53296 17.1701Z" fill="url(#paint6_linear_6628_18426)"/>
<path d="M6.95126 10.664L5.42777 10.527C5.26918 10.5125 5.11125 10.561 4.9881 10.662C4.86495 10.7629 4.78647 10.9083 4.76963 11.0667C4.75389 11.2088 4.78892 11.352 4.86853 11.4708C4.94814 11.5897 5.0672 11.6765 5.20467 11.7161L6.04004 11.956L6.95126 10.664Z" fill="url(#paint7_linear_6628_18426)"/>
<path d="M7.57794 11.6407C7.49458 11.5352 7.42019 11.4229 7.35555 11.305C7.29703 11.1852 7.23206 11.0686 7.16092 10.9558C7.09481 10.8415 7.00035 10.7462 6.88667 10.679C6.73526 10.6098 6.57199 10.5702 6.4057 10.5624C6.06525 10.5185 5.72246 10.4952 5.37919 10.4927C5.23845 10.4813 5.09766 10.5142 4.9766 10.5869C4.85554 10.6596 4.76031 10.7684 4.70429 10.898C4.69886 10.9137 4.69929 10.9309 4.70553 10.9464C4.71176 10.9618 4.72337 10.9745 4.73821 10.9821C4.75306 10.9897 4.77014 10.9916 4.78631 10.9876C4.80249 10.9836 4.81667 10.9739 4.82624 10.9602C4.98837 10.7008 5.33967 10.7334 5.59615 10.7691C5.90199 10.8071 6.20985 10.8393 6.51364 10.8853C6.64631 10.8978 6.77199 10.9505 6.87385 11.0364C6.94836 11.1223 7.00888 11.2195 7.05319 11.3243C7.15228 11.5226 7.27301 11.733 7.49978 11.7783C7.5826 11.7948 7.617 11.6943 7.57794 11.6407Z" fill="#1B1447"/>
<path d="M5.82392 15.3036C5.72121 14.9259 5.71498 14.5286 5.80581 14.1479C5.91989 13.7282 6.28765 13.4428 6.40762 13.0271C6.50926 12.6783 6.42952 12.2885 6.07733 12.1237C5.88057 12.0312 5.66149 12.0116 5.4667 11.9211C5.24152 11.8197 5.04972 11.6565 4.91359 11.4504C4.86289 11.371 4.72606 11.437 4.76285 11.5262C4.83881 11.7172 4.95744 11.8884 5.10966 12.0266C5.26188 12.1648 5.44366 12.2663 5.64114 12.3235C5.83815 12.3844 6.11229 12.4341 6.18553 12.6539C6.20502 12.7534 6.20288 12.856 6.17923 12.9547C6.15558 13.0533 6.11099 13.1457 6.04848 13.2256C5.93032 13.4221 5.77886 13.5848 5.67255 13.7814C5.58633 13.9443 5.52181 14.1177 5.48065 14.2973C5.39 14.6706 5.44689 15.0645 5.63946 15.3968C5.70177 15.506 5.85069 15.4104 5.82392 15.3036Z" fill="#1B1447"/>
<path d="M7.80808 15.7903L5.98172 18.5799L6.58638 19.5053L8.81873 16.5847L7.80808 15.7903Z" fill="#CEFD1E"/>
<path d="M29.9482 21.1689C29.9482 21.1689 21.3838 25.015 15.2451 25.9558L17.2294 32.504L35.0687 28.9598L29.9482 21.1689Z" fill="url(#paint8_linear_6628_18426)"/>
<path d="M17.2235 32.5047C11.3109 29.7381 6.99754 20.1288 6.99754 20.1288L9.1303 17.0692L22.0122 28.0883L17.2235 32.5047Z" fill="url(#paint9_linear_6628_18426)"/>
<path d="M39.9485 37.796C39.9485 37.796 41.3698 46.2673 44.6175 54.3271L58.7905 40.3079L52.5239 28.9978L39.9485 37.796Z" fill="#191919"/>
<path d="M39.5737 12.5186C39.5737 12.5186 41.3413 13.74 44.1156 16.7039C44.1939 16.7895 44.2762 16.8751 44.3564 16.9646C47.5376 20.4079 51.5391 25.4559 54.3278 31.4558C54.7159 32.2964 55.0815 33.1554 55.4245 34.0325L40.1532 41.6096C40.0062 41.237 39.8591 40.8724 39.7099 40.5117C38.044 36.5476 36.1541 33.6384 34.3051 31.5215C29.7323 26.2891 27.409 24.676 27.409 24.676L29.7679 21.2685L31.5013 19.4499C31.5013 19.4499 33.6739 17.068 33.7276 17.0151C33.9647 16.7722 33.8039 16.3896 34.0688 16.1252C35.3554 14.8322 38.3381 13.1365 39.5737 12.5186Z" fill="#00D37F"/>
<path d="M39.5752 12.519L44.1401 19.9003L48.7361 18.7275L50.1448 18.435L50.547 17.5653L49.701 10.7124C49.701 10.7124 49.6121 10.7117 48.6149 10.9148C48.3301 10.9717 48.0471 11.0325 47.7602 11.0953C41.7802 12.4306 39.5752 12.519 39.5752 12.519Z" fill="#00D37F"/>
<path d="M23.919 31.8878L33.5639 29.7118L30.5181 20.8814L29.9429 21.169L21.1968 24.2946L23.919 31.8878Z" fill="#00D37F"/>
<path d="M34.3944 15.7539C34.5354 15.7879 34.6743 15.8306 34.8101 15.8818C35.3307 16.0732 35.8024 16.3778 36.1912 16.7734C36.58 17.169 36.8763 17.6459 37.0587 18.1698C37.1649 18.4762 37.2287 18.7957 37.2483 19.1194C37.2667 19.3909 37.2565 19.6636 37.2179 19.9329C37.0748 20.9148 36.5487 21.8 35.7546 22.3949C34.9605 22.9899 33.9632 23.2461 32.9807 23.1076C32.3526 23.0172 31.7579 22.7681 31.253 22.3837C30.7481 21.9993 30.3496 21.4925 30.0953 20.9111L31.8267 19.0924L34.3944 15.7539Z" fill="white"/>
<path d="M28.7702 16.5948L29.771 18.1002L30.9241 19.8301L31.509 20.7514C31.818 21.2413 32.3025 21.5947 32.8635 21.7392C33.4244 21.8837 34.0193 21.8085 34.5266 21.5289C35.0379 21.2486 35.4217 20.7822 35.5984 20.2265C35.7751 19.6708 35.7311 19.0685 35.4756 18.5443L32.6614 12.7477L28.7702 16.5948Z" fill="url(#paint10_linear_6628_18426)"/>
<path d="M29.5642 17.7972L30.7173 19.5211C32.8177 18.9459 33.0267 16.3523 32.3558 14.3597C31.352 14.6556 29.8003 17.4278 29.5642 17.7972Z" fill="#1B1447"/>
<path d="M25.3898 16.865C25.9437 17.946 26.9199 18.8528 28.1047 19.1233C29.745 19.4923 31.4494 18.5583 32.5148 17.2655C33.1235 16.5146 33.5523 15.6344 33.7686 14.6923C34.2455 12.6658 33.7166 10.4611 31.8205 9.25444C30.5217 8.42995 28.2182 8.25687 26.6161 9.00012C25.9975 9.26342 25.4837 9.72464 25.1555 10.3114C24.1722 12.1837 24.4489 15.0381 25.3898 16.865Z" fill="url(#paint11_linear_6628_18426)"/>
<path d="M32.8129 12.7986C31.0174 13.5186 31.946 9.89985 31.946 9.89985C31.946 9.89985 28.2616 12.3858 28.1111 9.31316L28.8648 8.2212C28.8648 8.2212 34.9614 7.34914 34.2733 13.664L33.272 13.8888L32.8129 12.7986Z" fill="#191919"/>
<path d="M26.0378 13.9932C26.0256 14.1056 26.0562 14.2186 26.1235 14.3095C26.1908 14.4005 26.2899 14.4627 26.4011 14.4839C26.4556 14.4814 26.5091 14.468 26.5583 14.4443C26.6076 14.4207 26.6515 14.3874 26.6876 14.3464C26.7237 14.3054 26.7512 14.2576 26.7684 14.2058C26.7856 14.154 26.7922 14.0992 26.7878 14.0448C26.7995 13.9321 26.7684 13.8191 26.7008 13.7282C26.6332 13.6373 26.5339 13.5751 26.4226 13.554C26.3676 13.555 26.3135 13.5675 26.2637 13.5907C26.2138 13.6139 26.1694 13.6472 26.1332 13.6886C26.097 13.7299 26.0698 13.7784 26.0534 13.8308C26.0369 13.8832 26.0316 13.9385 26.0378 13.9932Z" fill="#1C4847"/>
<path d="M29.1418 13.8467C29.1296 13.9592 29.1602 14.0721 29.2275 14.1631C29.2948 14.254 29.3939 14.3163 29.5051 14.3375C29.5596 14.3349 29.6131 14.3215 29.6623 14.2978C29.7116 14.2742 29.7556 14.2409 29.7916 14.1999C29.8277 14.159 29.8552 14.1111 29.8724 14.0593C29.8896 14.0075 29.8962 13.9527 29.8918 13.8983C29.9035 13.7856 29.8724 13.6726 29.8048 13.5817C29.7372 13.4908 29.6379 13.4287 29.5266 13.4075C29.4716 13.4085 29.4175 13.4211 29.3677 13.4442C29.3179 13.4674 29.2734 13.5007 29.2372 13.5421C29.201 13.5834 29.1738 13.6319 29.1574 13.6843C29.1409 13.7368 29.1356 13.7921 29.1418 13.8467Z" fill="#1C4847"/>
<path d="M26.9327 14.9291C27.0841 14.2943 27.265 13.6737 27.4539 13.0491C27.4721 12.99 27.5668 13.0046 27.5525 13.0697C27.4415 13.5882 27.3247 14.1008 27.1881 14.6132C27.094 14.8654 27.0476 15.1329 27.0513 15.4021C27.0725 15.5026 27.1172 15.5966 27.1818 15.6765C27.2464 15.7563 27.3289 15.8197 27.4227 15.8615C27.434 15.8668 27.4436 15.8752 27.4502 15.8857C27.4569 15.8963 27.4604 15.9085 27.4603 15.921C27.4602 15.9335 27.4565 15.9457 27.4497 15.9561C27.4428 15.9666 27.4332 15.9749 27.4218 15.98C27.3251 15.9979 27.2252 15.9817 27.1392 15.9341C27.0531 15.8866 26.9862 15.8107 26.9499 15.7193C26.8565 15.4651 26.8505 15.1871 26.9327 14.9291Z" fill="#1B1447"/>
<path d="M33.0048 15.1409L33.8077 13.5892L33.6114 13.4394C33.3604 13.2201 33.0902 13.0065 32.8009 12.7987C32.4694 13.9593 33.0048 15.1409 33.0048 15.1409Z" fill="#1C4847"/>
<path d="M28.1115 9.31232C25.9229 11.2457 25.1563 10.311 25.1563 10.311L24.652 11.8317C22.5048 10.8955 23.2282 5.81151 26.8727 7.68641C26.8296 5.00971 31.4171 5.58286 32.731 8.64533C35.3325 7.6654 38.257 11.0967 34.1493 14.3672C34.1493 14.3672 34.0719 8.90922 31.1365 8.70524C29.8653 8.61772 28.1115 9.31232 28.1115 9.31232Z" fill="#191919"/>
<path d="M34.1998 13.0039C34.579 12.7641 35.1029 12.7052 35.4622 12.9709C35.6038 13.0944 35.7173 13.2467 35.7953 13.4177C35.8732 13.5887 35.9138 13.7743 35.9142 13.9622C35.9624 14.4446 35.8509 14.9294 35.5967 15.3422C35.469 15.5466 35.2975 15.72 35.0945 15.8498C34.8915 15.9797 34.6622 16.0627 34.4231 16.0929C34.1831 16.1181 33.9409 16.0748 33.7244 15.9682C33.5079 15.8616 33.3259 15.6959 33.1996 15.4903C32.7441 14.6807 33.5207 13.4348 34.1998 13.0039Z" fill="url(#paint12_linear_6628_18426)"/>
<path d="M33.6941 15.0494C33.82 14.7916 34.0128 14.5722 34.2523 14.4142C34.3613 14.3434 34.4777 14.2848 34.5993 14.2393C34.7222 14.1949 34.8546 14.1762 34.9813 14.1437C35.0644 14.1247 35.1147 14.2554 35.0334 14.2883C34.9792 14.307 34.9278 14.3332 34.8807 14.366C34.833 14.4012 34.7893 14.4403 34.7435 14.4775L34.6063 14.5968L34.5446 14.6556C34.5202 14.6768 34.4987 14.7012 34.4808 14.7281L34.4928 14.7124L34.4748 14.7359L34.4229 14.7967L34.391 14.832C34.3493 14.8777 34.3124 14.9277 34.2812 14.9812C34.2125 15.0826 34.1516 15.1891 34.0988 15.2996C34.0639 15.3528 34.0098 15.3905 33.9479 15.405C33.8869 15.4178 33.8234 15.4067 33.7704 15.3739C33.7187 15.3398 33.682 15.2872 33.6678 15.2268C33.6536 15.1665 33.663 15.103 33.6941 15.0494Z" fill="#1C4847"/>
<path d="M24.9333 11.4592C24.3641 12.4617 26.9795 12.1436 26.7347 11.4148C26.5497 10.8682 25.1718 11.0385 24.9333 11.4592Z" fill="#1C4847"/>
<path d="M31.1165 11.8051C31.0892 11.2854 29.8278 11.2237 29.5141 11.4186C28.6427 11.9624 31.1675 12.8048 31.1165 11.8051Z" fill="#1C4847"/>
<path d="M29.9469 15.6015C29.8395 15.4564 28.4225 16.051 28.3495 16.2893C28.3048 16.441 28.854 16.8959 29.4526 16.6263C29.9462 16.4033 30.0718 15.7763 29.9469 15.6015Z" fill="white"/>
<path opacity="0.29" d="M29.1594 24.8548C29.886 26.0945 30.6993 27.2813 31.5931 28.4065C32.0428 28.9672 32.5123 29.5162 32.9997 30.0476C33.2424 30.3123 33.4871 30.577 33.7378 30.8339C33.97 31.1225 34.2574 31.3619 34.5833 31.5381C34.8156 31.6368 35.1077 31.4219 34.9597 31.1639C34.761 30.8802 34.5168 30.6313 34.237 30.4271C33.9781 30.2038 33.7232 29.9765 33.4763 29.7414C32.957 29.2433 32.4575 28.7276 31.9801 28.1884C31.0211 27.1104 30.1502 25.9573 29.3756 24.74C29.2919 24.5971 29.0776 24.7139 29.1594 24.8548Z" fill="white"/>
<path opacity="0.29" d="M44.9843 24.4283C44.4609 25.137 43.9671 25.8597 43.4025 26.5385C42.8154 27.2452 42.19 27.9192 41.5292 28.5574C40.25 29.7967 38.8417 30.8956 37.3286 31.8351C37.1956 31.917 37.3422 32.1058 37.4731 32.0338C39.0429 31.1165 40.5088 30.0319 41.8452 28.799C43.141 27.595 44.4202 26.2388 45.3669 24.7356C45.5251 24.4663 45.172 24.173 44.9843 24.4283Z" fill="white"/>
<path opacity="0.29" d="M45.8534 30.3782C45.2143 30.7581 44.6202 31.1857 43.9537 31.5239C43.2846 31.8639 42.5925 32.1565 41.8824 32.3996C40.461 32.8816 38.9811 33.1697 37.4826 33.256C37.2593 33.27 37.3039 33.6041 37.5213 33.598C39.0637 33.5601 40.5939 33.3136 42.0702 32.8653C42.8064 32.643 43.5272 32.3725 44.2278 32.0555C44.9487 31.7562 45.6385 31.3868 46.2871 30.9526C46.6588 30.6772 46.2405 30.1483 45.8534 30.3782Z" fill="white"/>
<path opacity="0.29" d="M43.6398 16.9209C41.471 17.6437 39.2362 17.7556 37.1007 16.8373C37.0718 16.8286 37.0406 16.8308 37.0132 16.8437C36.9859 16.8565 36.9642 16.879 36.9525 16.9069C36.9407 16.9348 36.9397 16.966 36.9496 16.9946C36.9595 17.0232 36.9796 17.0471 37.006 17.0617C38.6925 17.8677 40.5687 18.1928 42.428 18.0012C42.4229 18.0214 42.4238 18.0427 42.4307 18.0625C42.4375 18.0822 42.45 18.0995 42.4666 18.1121C46.4436 21.3368 49.5156 25.5693 51.5286 30.3125C52.0933 31.6559 52.5772 33.0317 52.9779 34.4328C53.0893 34.8169 53.6423 34.5825 53.5427 34.2064C52.2236 29.1509 49.4211 24.577 45.8551 20.852C44.8581 19.8187 43.7903 18.8562 42.6593 17.9715C43.0918 17.9084 43.5181 17.8089 43.9338 17.6739C44.427 17.5101 44.131 16.7571 43.6398 16.9209Z" fill="white"/>
<path opacity="0.29" d="M54.3282 31.4599C54.7163 32.2986 55.0865 33.1589 55.4249 34.0367L40.1537 41.6038C40.0086 41.2313 39.8615 40.8647 39.7124 40.5079L54.3282 31.4599Z" fill="white"/>
<path d="M23.9187 31.8874L26.1568 31.3825L22.7303 23.6728L21.1964 24.2941L23.9187 31.8874Z" fill="white"/>
<path d="M31.222 14.7687L24.7708 15.5232C23.5035 15.6708 22.3501 14.7013 22.1953 13.3589C22.0404 12.0185 22.9412 10.8112 24.2085 10.6656L30.6597 9.91106C31.927 9.76351 33.0803 10.733 33.2352 12.0734C33.392 13.4158 32.4893 14.6231 31.222 14.7687Z" fill="white"/>
<path opacity="0.29" d="M29.3095 10.333C30.3109 10.3413 31.1631 11.1878 31.2902 12.3008C31.3627 12.8704 31.2207 13.4466 30.8916 13.9172C30.7426 14.1309 30.5501 14.3109 30.3267 14.4452C30.1033 14.5794 29.8542 14.6651 29.5954 14.6965L24.6527 15.2759C24.58 15.2848 24.5067 15.2889 24.4334 15.2879C23.434 15.2797 22.5818 14.4352 22.4527 13.3221C22.3126 12.12 23.074 11.04 24.1495 10.9165L29.0922 10.3352C29.1651 10.3272 29.2383 10.3232 29.3116 10.3232M29.3136 10.0723C29.2298 10.0721 29.146 10.0766 29.0627 10.0861L24.12 10.6674C22.9061 10.8075 22.0488 12.0092 22.2036 13.3497C22.3474 14.5992 23.3194 15.5316 24.4313 15.5407C24.5152 15.541 24.599 15.5364 24.6823 15.527L29.625 14.9476C30.8389 14.8056 31.6981 13.6058 31.5413 12.2634C31.3976 11.0139 30.4256 10.0815 29.3136 10.0723Z" fill="white"/>
<path d="M24.6695 14.6365L26.7296 14.3947L27.4176 14.3135L27.7102 14.2804L28.9123 14.1402L28.9775 14.1407C29.0658 14.1303 29.1532 14.1125 29.2386 14.0876C29.5906 13.9835 29.8945 13.7585 30.0968 13.4524C30.2991 13.1462 30.3869 12.7784 30.3447 12.4139C30.2973 12.0037 30.089 11.6291 29.7656 11.3724C29.4421 11.1157 29.0301 10.9978 28.6198 11.0447L26.445 11.3012L25.2449 11.4434L24.9504 11.4765L24.3197 11.5503L24.2663 11.5598C24.196 11.569 24.1266 11.5836 24.0585 11.6035C23.7066 11.7076 23.4027 11.9325 23.2003 12.2387C22.998 12.5449 22.9102 12.9126 22.9524 13.2772C23.0014 13.6845 23.2093 14.0559 23.531 14.3105C23.8526 14.5652 24.2618 14.6823 24.6695 14.6365Z" fill="#CEFD1E"/>
<path d="M25.0225 11.2207L27.8732 14.5013L29.2591 14.3389L26.4084 11.0583L25.0225 11.2207Z" fill="white"/>
<path d="M23.8951 11.3556L26.7419 14.6322L27.5328 14.54L24.6821 11.2594L23.9545 11.3462L23.8951 11.3556Z" fill="white"/>
<path d="M24.6307 13.4438L28.2092 13.021C28.2615 13.0154 28.3121 12.9994 28.3581 12.9739C28.4041 12.9484 28.4446 12.914 28.4771 12.8727C28.5096 12.8314 28.5336 12.784 28.5476 12.7333C28.5615 12.6826 28.5653 12.6297 28.5585 12.5775C28.5528 12.5254 28.5369 12.475 28.5115 12.4291C28.4862 12.3833 28.452 12.3429 28.4109 12.3104C28.3698 12.2779 28.3226 12.2539 28.2722 12.2398C28.2217 12.2257 28.169 12.2218 28.117 12.2282L24.5384 12.651C24.4862 12.6566 24.4355 12.6727 24.3895 12.6981C24.3435 12.7236 24.3031 12.758 24.2705 12.7993C24.238 12.8406 24.2141 12.888 24.2001 12.9387C24.1861 12.9894 24.1824 13.0424 24.1891 13.0945C24.1948 13.1466 24.2108 13.197 24.2361 13.2429C24.2614 13.2887 24.2957 13.3291 24.3368 13.3616C24.3778 13.3941 24.425 13.4181 24.4754 13.4322C24.5259 13.4463 24.5787 13.4503 24.6307 13.4438Z" fill="#00D37F"/>
<path d="M33.7632 16.9674L35.174 16.9064C36.0611 16.868 36.7492 16.1178 36.7108 15.2307L36.633 13.4331C36.5947 12.546 35.8444 11.8579 34.9573 11.8963L33.5465 11.9573C32.6594 11.9957 31.9713 12.746 32.0097 13.6331L32.0875 15.4307C32.1258 16.3178 32.8761 17.0058 33.7632 16.9674Z" fill="white"/>
<path d="M34.4217 16.8125C34.1402 16.8101 33.8704 16.6999 33.6677 16.5046C33.4651 16.3093 33.345 16.0438 33.3321 15.7626L33.221 13.194C33.2149 13.0501 33.2372 12.9065 33.2868 12.7713C33.3364 12.6361 33.4123 12.5121 33.51 12.4063C33.6073 12.3006 33.7248 12.2154 33.8556 12.1558C33.9863 12.0962 34.1277 12.0633 34.2713 12.059L35.3462 12.0126L35.4034 12.0131C35.685 12.0155 35.9549 12.1261 36.1572 12.3218C36.3596 12.5176 36.4791 12.7836 36.491 13.0649L36.6021 15.6336C36.6138 15.924 36.5099 16.2073 36.3131 16.4212C36.2159 16.5277 36.0986 16.6139 35.9679 16.6748C35.8372 16.7358 35.6958 16.7703 35.5517 16.7764L34.4788 16.8229L34.4217 16.8125Z" fill="white"/>
<path opacity="0.29" d="M35.4015 12.1282C35.6508 12.1305 35.8898 12.2285 36.0689 12.4021C36.2479 12.5756 36.3535 12.8114 36.3636 13.0605L36.4747 15.6292C36.4806 15.7568 36.4611 15.8842 36.4174 16.0042C36.3737 16.1242 36.3066 16.2344 36.2201 16.3283C36.1338 16.4228 36.0296 16.4994 35.9136 16.5533C35.7975 16.6073 35.6718 16.6377 35.5439 16.6426L34.471 16.6891L34.4197 16.6887C34.1703 16.6864 33.9314 16.5883 33.7523 16.4148C33.5732 16.2413 33.4677 16.0055 33.4576 15.7563L33.3464 13.1877C33.3408 13.0599 33.3605 12.9323 33.4042 12.8121C33.448 12.6919 33.515 12.5814 33.6014 12.4871C33.6879 12.3928 33.7921 12.3165 33.908 12.2625C34.024 12.2084 34.1494 12.1778 34.2772 12.1723L35.3501 12.1258L35.4015 12.1263M35.4036 11.8754L35.3384 11.8749L34.2655 11.9213C33.9411 11.9355 33.6357 12.0779 33.4163 12.3172C33.1969 12.5565 33.0815 12.8732 33.0955 13.1975L33.2066 15.7661C33.2202 16.0793 33.3534 16.3753 33.5787 16.5932C33.8039 16.8111 34.1042 16.9343 34.4176 16.9375L34.4828 16.9381L35.5557 16.8916C35.88 16.8774 36.1855 16.735 36.4049 16.4957C36.6243 16.2564 36.7396 15.9398 36.7257 15.6154L36.6145 13.0468C36.6009 12.7337 36.4678 12.4377 36.2425 12.2198C36.0172 12.0018 35.717 11.8786 35.4036 11.8754Z" fill="white"/>
<path d="M35.0181 12.8329L34.4807 12.8553C34.1424 12.8694 33.8796 13.1551 33.8937 13.4934L33.9712 15.3507C33.9853 15.6889 34.271 15.9517 34.6093 15.9376L35.1467 15.9152C35.485 15.9011 35.7478 15.6154 35.7337 15.2771L35.6562 13.4198C35.6421 13.0815 35.3564 12.8188 35.0181 12.8329Z" fill="#DADADD"/>
</g>
<defs>
<linearGradient id="paint0_linear_6628_18426" x1="18.1138" y1="29.7686" x2="7.85241" y2="18.3346" gradientUnits="userSpaceOnUse">
<stop stop-color="#E58E97"/>
<stop offset="1" stop-color="#F4BBA7"/>
</linearGradient>
<linearGradient id="paint1_linear_6628_18426" x1="6.78429" y1="16.7699" x2="4.92842" y2="8.5419" gradientUnits="userSpaceOnUse">
<stop stop-color="#E58E97"/>
<stop offset="1" stop-color="#F4BBA7"/>
</linearGradient>
<linearGradient id="paint2_linear_6628_18426" x1="8.08334" y1="16.4752" x2="6.22745" y2="8.24917" gradientUnits="userSpaceOnUse">
<stop stop-color="#E58E97"/>
<stop offset="1" stop-color="#F4BBA7"/>
</linearGradient>
<linearGradient id="paint3_linear_6628_18426" x1="6.16122" y1="16.9081" x2="4.30534" y2="8.68203" gradientUnits="userSpaceOnUse">
<stop stop-color="#E58E97"/>
<stop offset="1" stop-color="#F4BBA7"/>
</linearGradient>
<linearGradient id="paint4_linear_6628_18426" x1="7.48348" y1="16.6107" x2="5.6276" y2="8.38467" gradientUnits="userSpaceOnUse">
<stop stop-color="#E58E97"/>
<stop offset="1" stop-color="#F4BBA7"/>
</linearGradient>
<linearGradient id="paint5_linear_6628_18426" x1="5.40947" y1="17.0795" x2="3.55163" y2="8.85149" gradientUnits="userSpaceOnUse">
<stop stop-color="#E58E97"/>
<stop offset="1" stop-color="#F4BBA7"/>
</linearGradient>
<linearGradient id="paint6_linear_6628_18426" x1="5.64038" y1="13.8678" x2="8.22119" y2="13.9543" gradientUnits="userSpaceOnUse">
<stop stop-color="#E58E97"/>
<stop offset="1" stop-color="#F4BBA7"/>
</linearGradient>
<linearGradient id="paint7_linear_6628_18426" x1="5.72602" y1="11.2405" x2="8.30648" y2="11.3269" gradientUnits="userSpaceOnUse">
<stop stop-color="#E58E97"/>
<stop offset="1" stop-color="#F4BBA7"/>
</linearGradient>
<linearGradient id="paint8_linear_6628_18426" x1="22.6004" y1="25.742" x2="12.3371" y2="14.308" gradientUnits="userSpaceOnUse">
<stop stop-color="#E58E97"/>
<stop offset="1" stop-color="#F4BBA7"/>
</linearGradient>
<linearGradient id="paint9_linear_6628_18426" x1="18.3161" y1="29.5865" x2="8.05477" y2="18.1525" gradientUnits="userSpaceOnUse">
<stop stop-color="#E58E97"/>
<stop offset="1" stop-color="#F4BBA7"/>
</linearGradient>
<linearGradient id="paint10_linear_6628_18426" x1="28.7649" y1="17.2446" x2="35.7189" y2="17.302" gradientUnits="userSpaceOnUse">
<stop stop-color="#E58E97"/>
<stop offset="1" stop-color="#F4BBA7"/>
</linearGradient>
<linearGradient id="paint11_linear_6628_18426" x1="24.5319" y1="13.83" x2="33.9291" y2="13.9076" gradientUnits="userSpaceOnUse">
<stop stop-color="#E58E97"/>
<stop offset="1" stop-color="#F4BBA7"/>
</linearGradient>
<linearGradient id="paint12_linear_6628_18426" x1="33.0661" y1="14.4325" x2="35.92" y2="14.456" gradientUnits="userSpaceOnUse">
<stop stop-color="#E58E97"/>
<stop offset="1" stop-color="#F4BBA7"/>
</linearGradient>
</defs>
</svg>
