<svg width="388" height="108" viewBox="0 0 388 108" fill="none" xmlns="http://www.w3.org/2000/svg">
<rect width="388" height="108" rx="6" fill="url(#paint0_linear_6709_15358)"/>
<mask id="mask0_6709_15358" style="mask-type:alpha" maskUnits="userSpaceOnUse" x="0" y="0" width="388" height="108">
<rect width="388" height="108" rx="6" fill="url(#paint1_linear_6709_15358)"/>
</mask>
<g mask="url(#mask0_6709_15358)">
</g>
<g clip-path="url(#clip0_6709_15358)">
<path d="M353.645 51.7846C353.645 50.7267 352.785 49.8662 351.724 49.8662L329.137 49.8767C328.079 49.8767 327.219 50.7373 327.219 51.7978L327.224 60.8241C327.224 61.882 328.085 62.7425 329.145 62.7425L351.732 62.732C352.79 62.732 353.65 61.8715 353.65 60.811L353.645 51.7846Z" fill="#406052"/>
<path d="M351.067 51.7885L351.072 60.8149C351.073 61.8728 350.213 62.7337 349.155 62.7343L326.568 62.7461C325.51 62.7467 324.649 61.8866 324.648 60.8287L324.644 51.8024C324.643 50.7445 325.503 49.8835 326.561 49.8829L349.148 49.8711C350.206 49.8706 351.067 50.7306 351.067 51.7885Z" fill="#BDEFDC"/>
<path d="M326.555 50.5117H349.142C349.847 50.5117 350.421 51.0854 350.421 51.7907V60.817C350.421 61.5223 349.847 62.0959 349.142 62.0959H326.555C325.85 62.0959 325.276 61.5223 325.276 60.817V51.7907C325.276 51.0854 325.85 50.5117 326.555 50.5117Z" fill="#8ED2BB"/>
<path d="M349.139 50.5059L337.845 50.5111L337.85 62.0953L349.145 62.0901C349.85 62.0901 350.424 61.5164 350.421 60.8111L350.416 51.7848C350.416 51.0795 349.842 50.5059 349.137 50.5085L349.139 50.5059Z" fill="#64A08A"/>
<path d="M343.195 56.3018C343.195 59.2544 340.803 61.6491 337.85 61.6518C334.897 61.6518 332.503 59.2597 332.5 56.307C332.5 53.3544 334.892 50.9597 337.845 50.957C340.797 50.957 343.192 53.3491 343.195 56.3018Z" fill="#BDEFDC"/>
<path d="M340.423 53.138C340.423 52.9485 340.271 52.7959 340.081 52.7959H335.616C335.426 52.7959 335.273 52.9512 335.273 53.1406C335.273 53.3301 335.426 53.4827 335.616 53.4827H336.826C337.516 53.4827 338.105 53.8827 338.334 54.4459H335.616C335.426 54.4459 335.273 54.6012 335.273 54.7906C335.273 54.9801 335.426 55.1327 335.616 55.1327H338.429C338.342 55.8775 337.658 56.4591 336.829 56.4591H335.618C335.429 56.4591 335.276 56.6143 335.276 56.8038C335.276 56.9933 335.429 57.1459 335.618 57.1459H336.36L338.592 60.138C338.668 60.2406 338.792 60.3038 338.921 60.3038C339.258 60.3038 339.45 59.9196 339.247 59.6485L337.381 57.1459H340.084C340.273 57.1459 340.426 56.9906 340.426 56.8012C340.426 56.6117 340.273 56.4591 340.084 56.4591H338.884C339.197 56.088 339.397 55.6327 339.434 55.1327H340.084C340.273 55.1327 340.426 54.9801 340.426 54.7906C340.426 54.6012 340.273 54.4485 340.084 54.4485H339.379C339.292 54.0906 339.121 53.7617 338.884 53.4827H340.084C340.273 53.4827 340.426 53.3275 340.426 53.138H340.423Z" fill="#406052"/>
<path d="M329.045 50.5166H326.55C325.845 50.5166 325.271 51.0903 325.273 51.7955V54.3035C327.342 54.2561 329.008 52.585 329.045 50.5166Z" fill="#406052"/>
<path d="M325.271 58.3291V60.8238C325.271 61.5291 325.845 62.1028 326.55 62.1002H329.058C329.011 60.0317 327.34 58.3659 325.271 58.3291Z" fill="#406052"/>
<path d="M346.652 62.0925H349.147C349.852 62.0925 350.426 61.5188 350.423 60.8136V58.3057C348.355 58.353 346.689 60.0241 346.652 62.0925Z" fill="#406052"/>
<path d="M350.426 54.2799V51.7851C350.426 51.0799 349.853 50.5062 349.148 50.5088H346.64C346.687 52.5772 348.358 54.243 350.426 54.2799Z" fill="#406052"/>
<path d="M297.366 51.7846C297.366 50.7267 296.505 49.8662 295.445 49.8662L272.858 49.8767C271.8 49.8767 270.939 50.7373 270.939 51.7978L270.945 60.8241C270.945 61.882 271.805 62.7425 272.866 62.7425L295.453 62.732C296.511 62.732 297.371 61.8715 297.371 60.811L297.366 51.7846Z" fill="#406052"/>
<path d="M294.788 60.8165L294.783 51.7876C294.783 50.728 293.923 49.8696 292.864 49.8701L270.274 49.882C269.215 49.8825 268.356 50.7419 268.357 51.8014L268.362 60.8304C268.362 61.8899 269.222 62.7483 270.281 62.7478L292.871 62.7359C293.93 62.7354 294.789 61.876 294.788 60.8165Z" fill="#BDEFDC"/>
<path d="M270.274 50.5117H292.861C293.566 50.5117 294.14 51.0854 294.14 51.7907V60.817C294.14 61.5223 293.566 62.0959 292.861 62.0959H270.274C269.569 62.0959 268.995 61.5223 268.995 60.817V51.7907C268.995 51.0854 269.569 50.5117 270.274 50.5117Z" fill="#8ED2BB"/>
<path d="M292.86 50.5059L281.565 50.5111L281.571 62.0953L292.865 62.0901C293.571 62.0901 294.144 61.5164 294.142 60.8111L294.136 51.7848C294.136 51.0795 293.563 50.5059 292.858 50.5085L292.86 50.5059Z" fill="#64A08A"/>
<path d="M285.35 60.0858C287.439 57.9976 287.439 54.6118 285.35 52.5235C283.262 50.4352 279.876 50.4352 277.788 52.5235C275.7 54.6118 275.7 57.9976 277.788 60.0858C279.876 62.1741 283.262 62.1741 285.35 60.0858Z" fill="#BDEFDC"/>
<path d="M284.142 53.137C284.142 52.9476 283.99 52.7949 283.8 52.7949H279.334C279.145 52.7949 278.992 52.9502 278.992 53.1397C278.992 53.3291 279.145 53.4818 279.334 53.4818H280.545C281.234 53.4818 281.824 53.8818 282.053 54.4449H279.334C279.145 54.4449 278.992 54.6002 278.992 54.7897C278.992 54.9791 279.145 55.1318 279.334 55.1318H282.147C282.061 55.8765 281.376 56.4581 280.547 56.4581H279.337C279.147 56.4581 278.995 56.6133 278.995 56.8028C278.995 56.9923 279.147 57.1449 279.337 57.1449H280.079L282.311 60.137C282.387 60.2397 282.511 60.3028 282.64 60.3028C282.976 60.3028 283.169 59.9186 282.966 59.6476L281.1 57.1449H283.803C283.992 57.1449 284.145 56.9897 284.145 56.8002C284.145 56.6107 283.992 56.4581 283.803 56.4581H282.603C282.916 56.087 283.116 55.6318 283.153 55.1318H283.803C283.992 55.1318 284.145 54.9791 284.145 54.7897C284.145 54.6002 283.992 54.4476 283.803 54.4476H283.097C283.011 54.0897 282.84 53.7607 282.603 53.4818H283.803C283.992 53.4818 284.145 53.3265 284.145 53.137H284.142Z" fill="#406052"/>
<path d="M272.766 50.5166H270.271C269.566 50.5166 268.992 51.0903 268.995 51.7955V54.3035C271.064 54.2561 272.729 52.585 272.766 50.5166Z" fill="#406052"/>
<path d="M268.989 58.3291V60.8238C268.989 61.5291 269.563 62.1028 270.268 62.1002H272.776C272.729 60.0317 271.058 58.3659 268.989 58.3291Z" fill="#406052"/>
<path d="M290.371 62.0925H292.866C293.571 62.0925 294.145 61.5188 294.142 60.8136V58.3057C292.074 58.353 290.408 60.0241 290.371 62.0925Z" fill="#406052"/>
<path d="M294.147 54.2789V51.7841C294.147 51.0789 293.574 50.5052 292.868 50.5078H290.36C290.408 52.5762 292.079 54.242 294.147 54.2789Z" fill="#406052"/>
<path d="M354.679 93.8843H257.321C256.045 93.8843 255 92.8396 255 91.5632C255 90.2869 256.045 89.2422 257.321 89.2422H354.679C355.955 89.2422 357 90.2869 357 91.5632C357 92.8396 355.955 93.8843 354.679 93.8843Z" fill="#009FB8"/>
<path d="M351.576 86.5928H336.876C336.36 86.5928 335.941 87.011 335.941 87.527V90.448C335.941 90.964 336.36 91.3823 336.876 91.3823H351.576C352.092 91.3823 352.51 90.964 352.51 90.448V87.527C352.51 87.011 352.092 86.5928 351.576 86.5928Z" fill="#996B20"/>
<path d="M347.588 86.5928H332.888C332.372 86.5928 331.954 87.011 331.954 87.527V90.448C331.954 90.964 332.372 91.3823 332.888 91.3823H347.588C348.104 91.3823 348.523 90.964 348.523 90.448V87.527C348.523 87.011 348.104 86.5928 347.588 86.5928Z" fill="#DBA32C"/>
<path d="M339.615 91.3823V86.5928H332.886C332.371 86.5928 331.952 87.0112 331.952 87.527V90.448C331.952 90.9638 332.371 91.3823 332.886 91.3823H339.615Z" fill="#EDCB3A"/>
<path d="M342.238 86.5928H340.538V91.3823H342.238V86.5928Z" fill="#EDCB3A"/>
<path d="M344.034 86.5928H343.137V91.3823H344.034V86.5928Z" fill="#EDCB3A"/>
<path d="M350.186 81.8262H335.486C334.97 81.8262 334.552 82.2444 334.552 82.7604V85.6814C334.552 86.1974 334.97 86.6156 335.486 86.6156H350.186C350.702 86.6156 351.12 86.1974 351.12 85.6814V82.7604C351.12 82.2444 350.702 81.8262 350.186 81.8262Z" fill="#996B20"/>
<path d="M346.2 81.8262H331.5C330.984 81.8262 330.565 82.2444 330.565 82.7604V85.6814C330.565 86.1974 330.984 86.6156 331.5 86.6156H346.2C346.716 86.6156 347.134 86.1974 347.134 85.6814V82.7604C347.134 82.2444 346.716 81.8262 346.2 81.8262Z" fill="#DBA32C"/>
<path d="M338.229 86.6156V81.8262H331.5C330.984 81.8262 330.565 82.2446 330.565 82.7604V85.6814C330.565 86.1972 330.984 86.6156 331.5 86.6156H338.229Z" fill="#EDCB3A"/>
<path d="M340.849 81.8262H339.149V86.6156H340.849V81.8262Z" fill="#EDCB3A"/>
<path d="M342.644 81.8262H341.747V86.6156H342.644V81.8262Z" fill="#EDCB3A"/>
<path d="M353.299 77.0635H338.599C338.083 77.0635 337.665 77.4817 337.665 77.9977V80.9187C337.665 81.4347 338.083 81.8529 338.599 81.8529H353.299C353.815 81.8529 354.233 81.4347 354.233 80.9187V77.9977C354.233 77.4817 353.815 77.0635 353.299 77.0635Z" fill="#996B20"/>
<path d="M349.312 77.0635H334.612C334.096 77.0635 333.678 77.4817 333.678 77.9977V80.9187C333.678 81.4347 334.096 81.8529 334.612 81.8529H349.312C349.828 81.8529 350.246 81.4347 350.246 80.9187V77.9977C350.246 77.4817 349.828 77.0635 349.312 77.0635Z" fill="#DBA32C"/>
<path d="M341.339 81.851V77.0615H334.61C334.094 77.0615 333.676 77.4799 333.676 77.9957V80.9168C333.676 81.4326 334.094 81.851 334.61 81.851H341.339Z" fill="#EDCB3A"/>
<path d="M343.963 77.0635H342.263V81.8529H343.963V77.0635Z" fill="#EDCB3A"/>
<path d="M345.758 77.0635H344.86V81.8529H345.758V77.0635Z" fill="#EDCB3A"/>
<path d="M335.966 72.2969H350.669C351.185 72.2969 351.603 72.7153 351.603 73.2311V76.1521C351.603 76.6679 351.185 77.0864 350.669 77.0864H335.966C335.451 77.0864 335.032 76.6679 335.032 76.1521V73.2311C335.032 72.7153 335.451 72.2969 335.966 72.2969Z" fill="#996B20"/>
<path d="M331.979 72.2969H346.682C347.198 72.2969 347.616 72.7153 347.616 73.2311V76.1521C347.616 76.6679 347.198 77.0864 346.682 77.0864H331.979C331.463 77.0864 331.045 76.6679 331.045 76.1521V73.2311C331.045 72.7153 331.463 72.2969 331.979 72.2969Z" fill="#DBA32C"/>
<path d="M338.708 77.0864V72.2969H331.979C331.463 72.2969 331.045 72.7153 331.045 73.2311V76.1521C331.045 76.6679 331.463 77.0864 331.979 77.0864H338.708Z" fill="#EDCB3A"/>
<path d="M341.329 72.2969H339.629V77.0864H341.329V72.2969Z" fill="#EDCB3A"/>
<path d="M343.124 72.2969H342.227V77.0864H343.124V72.2969Z" fill="#EDCB3A"/>
<path d="M339.581 67.5322H354.283C354.799 67.5322 355.218 67.9506 355.218 68.4664V71.3875C355.218 71.9033 354.799 72.3217 354.283 72.3217H339.581C339.065 72.3217 338.646 71.9033 338.646 71.3875V68.4664C338.646 67.9506 339.065 67.5322 339.581 67.5322Z" fill="#996B20"/>
<path d="M335.593 67.5322H350.296C350.812 67.5322 351.23 67.9506 351.23 68.4664V71.3875C351.23 71.9033 350.812 72.3217 350.296 72.3217H335.593C335.078 72.3217 334.659 71.9033 334.659 71.3875V68.4664C334.659 67.9506 335.078 67.5322 335.593 67.5322Z" fill="#DBA32C"/>
<path d="M342.32 72.3217V67.5322H335.591C335.076 67.5322 334.657 67.9506 334.657 68.4664V71.3875C334.657 71.9033 335.076 72.3217 335.591 72.3217H342.32Z" fill="#EDCB3A"/>
<path d="M344.943 67.5322H343.243V72.3217H344.943V67.5322Z" fill="#EDCB3A"/>
<path d="M346.739 67.5322H345.842V72.3217H346.739V67.5322Z" fill="#EDCB3A"/>
<path d="M350.834 62.7676H336.134C335.618 62.7676 335.2 63.1858 335.2 63.7018V66.6228C335.2 67.1388 335.618 67.5571 336.134 67.5571H350.834C351.35 67.5571 351.769 67.1388 351.769 66.6228V63.7018C351.769 63.1858 351.35 62.7676 350.834 62.7676Z" fill="#996B20"/>
<path d="M346.847 62.7676H332.147C331.631 62.7676 331.213 63.1858 331.213 63.7018V66.6228C331.213 67.1388 331.631 67.5571 332.147 67.5571H346.847C347.363 67.5571 347.781 67.1388 347.781 66.6228V63.7018C347.781 63.1858 347.363 62.7676 346.847 62.7676Z" fill="#DBA32C"/>
<path d="M338.874 67.5551V62.7656H332.145C331.629 62.7656 331.211 63.1841 331.211 63.6998V66.6209C331.211 67.1367 331.629 67.5551 332.145 67.5551H338.874Z" fill="#EDCB3A"/>
<path d="M341.498 62.7676H339.798V67.5571H341.498V62.7676Z" fill="#EDCB3A"/>
<path d="M343.293 62.7676H342.396V67.5571H343.293V62.7676Z" fill="#EDCB3A"/>
<path d="M266.622 86.5928H281.324C281.84 86.5928 282.259 87.0112 282.259 87.527V90.448C282.259 90.9638 281.84 91.3823 281.324 91.3823H266.622C266.106 91.3823 265.688 90.9638 265.688 90.448V87.527C265.688 87.0112 266.106 86.5928 266.622 86.5928Z" fill="#996B20"/>
<path d="M277.334 86.5928H262.634C262.118 86.5928 261.7 87.011 261.7 87.527V90.448C261.7 90.964 262.118 91.3823 262.634 91.3823H277.334C277.85 91.3823 278.269 90.964 278.269 90.448V87.527C278.269 87.011 277.85 86.5928 277.334 86.5928Z" fill="#DBA32C"/>
<path d="M269.363 91.3823V86.5928H262.634C262.119 86.5928 261.7 87.0112 261.7 87.527V90.448C261.7 90.9638 262.119 91.3823 262.634 91.3823H269.363Z" fill="#EDCB3A"/>
<path d="M271.984 86.5928H270.284V91.3823H271.984V86.5928Z" fill="#EDCB3A"/>
<path d="M273.782 86.5928H272.885V91.3823H273.782V86.5928Z" fill="#EDCB3A"/>
<path d="M279.934 81.8262H265.234C264.718 81.8262 264.3 82.2444 264.3 82.7604V85.6814C264.3 86.1974 264.718 86.6156 265.234 86.6156H279.934C280.45 86.6156 280.868 86.1974 280.868 85.6814V82.7604C280.868 82.2444 280.45 81.8262 279.934 81.8262Z" fill="#996B20"/>
<path d="M275.947 81.8262H261.247C260.731 81.8262 260.312 82.2444 260.312 82.7604V85.6814C260.312 86.1974 260.731 86.6156 261.247 86.6156H275.947C276.463 86.6156 276.881 86.1974 276.881 85.6814V82.7604C276.881 82.2444 276.463 81.8262 275.947 81.8262Z" fill="#DBA32C"/>
<path d="M267.974 86.6156V81.8262H261.245C260.729 81.8262 260.311 82.2446 260.311 82.7604V85.6814C260.311 86.1972 260.729 86.6156 261.245 86.6156H267.974Z" fill="#EDCB3A"/>
<path d="M270.597 81.8262H268.897V86.6156H270.597V81.8262Z" fill="#EDCB3A"/>
<path d="M272.392 81.8262H271.495V86.6156H272.392V81.8262Z" fill="#EDCB3A"/>
<path d="M268.345 77.0635H283.048C283.564 77.0635 283.982 77.4819 283.982 77.9977V80.9187C283.982 81.4345 283.564 81.8529 283.048 81.8529H268.345C267.83 81.8529 267.411 81.4345 267.411 80.9187V77.9977C267.411 77.4819 267.83 77.0635 268.345 77.0635Z" fill="#996B20"/>
<path d="M279.06 77.0635H264.36C263.844 77.0635 263.426 77.4817 263.426 77.9977V80.9187C263.426 81.4347 263.844 81.8529 264.36 81.8529H279.06C279.576 81.8529 279.994 81.4347 279.994 80.9187V77.9977C279.994 77.4817 279.576 77.0635 279.06 77.0635Z" fill="#DBA32C"/>
<path d="M271.087 81.851V77.0615H264.358C263.842 77.0615 263.424 77.4799 263.424 77.9957V80.9168C263.424 81.4326 263.842 81.851 264.358 81.851H271.087Z" fill="#EDCB3A"/>
<path d="M273.711 77.0635H272.011V81.8529H273.711V77.0635Z" fill="#EDCB3A"/>
<path d="M275.506 77.0635H274.608V81.8529H275.506V77.0635Z" fill="#EDCB3A"/>
<path d="M265.713 72.2969H280.415C280.931 72.2969 281.349 72.7153 281.349 73.2311V76.1521C281.349 76.6679 280.931 77.0864 280.415 77.0864H265.713C265.197 77.0864 264.778 76.6679 264.778 76.1521V73.2311C264.778 72.7153 265.197 72.2969 265.713 72.2969Z" fill="#996B20"/>
<path d="M261.725 72.2969H276.428C276.944 72.2969 277.362 72.7153 277.362 73.2311V76.1521C277.362 76.6679 276.944 77.0864 276.428 77.0864H261.725C261.209 77.0864 260.791 76.6679 260.791 76.1521V73.2311C260.791 72.7153 261.209 72.2969 261.725 72.2969Z" fill="#DBA32C"/>
<path d="M268.452 77.0864V72.2969H261.723C261.207 72.2969 260.789 72.7153 260.789 73.2311V76.1521C260.789 76.6679 261.207 77.0864 261.723 77.0864H268.452Z" fill="#EDCB3A"/>
<path d="M271.076 72.2969H269.376V77.0864H271.076V72.2969Z" fill="#EDCB3A"/>
<path d="M272.871 72.2969H271.974V77.0864H272.871V72.2969Z" fill="#EDCB3A"/>
<path d="M269.326 67.5322H284.028C284.544 67.5322 284.963 67.9506 284.963 68.4664V71.3875C284.963 71.9033 284.544 72.3217 284.028 72.3217H269.326C268.81 72.3217 268.392 71.9033 268.392 71.3875V68.4664C268.392 67.9506 268.81 67.5322 269.326 67.5322Z" fill="#996B20"/>
<path d="M265.341 67.5322H280.044C280.56 67.5322 280.978 67.9506 280.978 68.4664V71.3875C280.978 71.9033 280.56 72.3217 280.044 72.3217H265.341C264.826 72.3217 264.407 71.9033 264.407 71.3875V68.4664C264.407 67.9506 264.826 67.5322 265.341 67.5322Z" fill="#DBA32C"/>
<path d="M272.068 72.3217V67.5322H265.339C264.824 67.5322 264.405 67.9506 264.405 68.4664V71.3875C264.405 71.9033 264.824 72.3217 265.339 72.3217H272.068Z" fill="#EDCB3A"/>
<path d="M274.691 67.5322H272.991V72.3217H274.691V67.5322Z" fill="#EDCB3A"/>
<path d="M276.487 67.5322H275.59V72.3217H276.487V67.5322Z" fill="#EDCB3A"/>
<path d="M280.58 62.7676H265.88C265.364 62.7676 264.945 63.1858 264.945 63.7018V66.6228C264.945 67.1388 265.364 67.5571 265.88 67.5571H280.58C281.095 67.5571 281.514 67.1388 281.514 66.6228V63.7018C281.514 63.1858 281.095 62.7676 280.58 62.7676Z" fill="#996B20"/>
<path d="M276.592 62.7676H261.892C261.376 62.7676 260.958 63.1858 260.958 63.7018V66.6228C260.958 67.1388 261.376 67.5571 261.892 67.5571H276.592C277.108 67.5571 277.526 67.1388 277.526 66.6228V63.7018C277.526 63.1858 277.108 62.7676 276.592 62.7676Z" fill="#DBA32C"/>
<path d="M268.621 67.5551V62.7656H261.892C261.376 62.7656 260.958 63.1841 260.958 63.6998V66.6209C260.958 67.1367 261.376 67.5551 261.892 67.5551H268.621Z" fill="#EDCB3A"/>
<path d="M271.242 62.7676H269.542V67.5571H271.242V62.7676Z" fill="#EDCB3A"/>
<path d="M273.04 62.7676H272.143V67.5571H273.04V62.7676Z" fill="#EDCB3A"/>
<path d="M280.565 90.5862C286.626 88.0756 289.504 81.1268 286.993 75.0656C284.483 69.0044 277.534 66.1261 271.473 68.6367C265.412 71.1474 262.533 78.0962 265.044 84.1573C267.555 90.2185 274.503 93.0968 280.565 90.5862Z" fill="#996B20"/>
<path d="M276.117 67.7344H274.13V91.4923H276.117V67.7344Z" fill="#996B20"/>
<path d="M284.239 85.4679C287.471 79.759 285.464 72.5105 279.755 69.278C274.046 66.0454 266.798 68.0529 263.565 73.7618C260.332 79.4707 262.34 86.7191 268.049 89.9517C273.758 93.1843 281.006 91.1768 284.239 85.4679Z" fill="#DBA32C"/>
<path d="M277.495 87.6424C281.931 85.6592 283.919 80.4559 281.935 76.0204C279.952 71.5849 274.749 69.5969 270.313 71.5801C265.878 73.5632 263.89 78.7666 265.873 83.2021C267.856 87.6376 273.06 89.6256 277.495 87.6424Z" fill="#EDCB3A"/>
<path d="M265.655 79.6096C265.655 74.8438 269.448 70.9648 274.179 70.8175C274.087 70.8148 273.995 70.8096 273.903 70.8096C269.045 70.8096 265.105 74.749 265.105 79.6069C265.105 84.4648 269.045 88.4043 273.903 88.4043C273.995 88.4043 274.087 88.3991 274.179 88.3964C269.448 88.2517 265.655 84.3727 265.655 79.6043V79.6096Z" fill="#C18925"/>
<path d="M278.056 74.5737C278.056 74.2711 277.811 74.0264 277.509 74.0264H270.367C270.064 74.029 269.819 74.2764 269.819 74.579C269.819 74.8816 270.064 75.1264 270.367 75.1264H272.304C273.406 75.1264 274.348 75.7658 274.714 76.6685H270.367C270.064 76.6685 269.819 76.9158 269.819 77.2185C269.819 77.5211 270.064 77.7658 270.367 77.7658H274.864C274.725 78.9553 273.632 79.8843 272.306 79.8869H270.369C270.067 79.8869 269.822 80.1343 269.822 80.4369C269.822 80.7395 270.067 80.9843 270.369 80.9843H271.554L275.122 85.7685C275.246 85.9343 275.44 86.0316 275.648 86.0316C276.188 86.0316 276.493 85.4159 276.172 84.9843L273.185 80.9816H277.509C277.811 80.9816 278.056 80.7343 278.056 80.4316C278.056 80.129 277.811 79.8843 277.509 79.8843H275.59C276.093 79.2922 276.411 78.5606 276.469 77.7632H277.506C277.809 77.7632 278.054 77.5158 278.054 77.2132C278.054 76.9106 277.809 76.6658 277.506 76.6658H276.377C276.24 76.0922 275.964 75.5685 275.585 75.1237H277.504C277.806 75.1237 278.051 74.8764 278.051 74.5737H278.056Z" fill="#AA7921"/>
<path d="M320.4 30.7053L325.642 23.0368C327.829 19.8395 325.537 15.5 321.666 15.5H290.513C286.64 15.5 284.35 19.8395 286.537 23.0368L291.834 30.7869C293.253 32.8632 292.834 35.6816 290.877 37.2579C281.758 44.6 273.355 56.6737 273.355 68.0711C273.355 86.1027 287.974 91.5448 306.005 91.5448C324.037 91.5448 338.656 86.1053 338.656 68.0711C338.656 56.6316 330.495 44.5132 321.369 37.179C319.406 35.6026 318.987 32.7842 320.406 30.7053H320.4Z" fill="#D0B170"/>
<path d="M321.363 37.1809C319.4 35.6046 318.979 32.7862 320.4 30.7072L325.642 23.0388C327.829 19.8414 325.537 15.502 321.666 15.502H319.079C322.952 15.502 325.242 19.8414 323.055 23.0388L317.813 30.7072C316.392 32.7862 316.813 35.6046 318.776 37.1809C327.902 44.5151 336.063 56.6336 336.063 68.0731C336.063 85.6731 322.139 91.2757 304.705 91.5362C305.134 91.5415 305.566 91.5468 305.997 91.5468C324.029 91.5468 338.647 86.1073 338.647 68.0731C338.647 56.6336 330.487 44.5151 321.36 37.1809H321.363Z" fill="#B79963"/>
<path d="M313.758 37.1816C311.795 35.6053 311.376 32.7869 312.795 30.7079L318.037 23.0395C320.224 19.8421 317.932 15.5026 314.06 15.5026H310.545C308.879 15.5026 307.271 14.7684 306.271 13.4395C305.158 11.9579 303.392 11 301.397 11C299.403 11 297.634 11.9579 296.524 13.4395C295.524 14.7711 293.916 15.5026 292.25 15.5026H290.571C286.697 15.5026 284.408 19.8421 286.595 23.0395L291.892 30.7895C293.31 32.8658 292.892 35.6842 290.934 37.2605C281.816 44.6027 273.413 56.6764 273.413 68.0737C273.413 86.1053 284.468 91.5474 302.5 91.5474C320.532 91.5474 331.05 86.108 331.05 68.0737C331.05 56.6343 322.889 44.5158 313.763 37.1816H313.758Z" fill="#E8C585"/>
<path d="M287.973 51.61C291.063 47.4815 292.418 43.2741 290.999 42.2126C289.581 41.1511 285.926 43.6374 282.836 47.7659C279.747 51.8944 278.392 56.1017 279.811 57.1633C281.229 58.2248 284.884 55.7385 287.973 51.61Z" fill="#F9DEB2"/>
<path d="M289.685 19.2737C288.432 20.1106 287.161 20.4079 286.848 19.9369C286.535 19.4658 287.293 18.4053 288.545 17.5685C289.798 16.7316 291.069 16.4342 291.382 16.9053C291.698 17.3764 290.937 18.4369 289.685 19.2737Z" fill="#F9DEB2"/>
<path d="M314.811 38.2004H292.734C292.024 38.2004 291.442 37.6188 291.442 36.9083C291.442 36.1978 292.024 35.6162 292.734 35.6162H314.811C315.521 35.6162 316.103 36.1978 316.103 36.9083C316.103 37.6188 315.521 38.2004 314.811 38.2004Z" fill="#D0B170"/>
<path d="M310.671 56.3397V53.9502H292.727V56.3397H298.14C300.545 56.3397 302.595 57.737 303.392 59.7028H292.727V62.0923H303.716C303.411 64.6897 301.032 66.7134 298.14 66.7134H292.727V69.1028H296.503L304.703 80.1029L308.256 80.0976L300.061 69.1028H310.674V66.7134H305.3C306.395 65.4239 307.092 63.8318 307.219 62.0923H310.674V59.7028H307.021C306.721 58.4555 306.124 57.3107 305.298 56.3397H310.674H310.671Z" fill="#554C3D"/>
<path d="M330.276 91.4894C336.837 91.4894 342.155 86.171 342.155 79.6104C342.155 73.0498 336.837 67.7314 330.276 67.7314C323.716 67.7314 318.397 73.0498 318.397 79.6104C318.397 86.171 323.716 91.4894 330.276 91.4894Z" fill="#996B20"/>
<path d="M330.372 67.7344H328.385V91.4923H330.372V67.7344Z" fill="#996B20"/>
<path d="M336.559 88.011C341.198 83.372 341.198 75.8507 336.559 71.2116C331.92 66.5726 324.399 66.5726 319.76 71.2116C315.121 75.8507 315.121 83.372 319.76 88.011C324.399 92.65 331.92 92.65 336.559 88.011Z" fill="#DBA32C"/>
<path d="M328.161 88.4072C333.019 88.4072 336.958 84.4685 336.958 79.6099C336.958 74.7512 333.019 70.8125 328.161 70.8125C323.302 70.8125 319.363 74.7512 319.363 79.6099C319.363 84.4685 323.302 88.4072 328.161 88.4072Z" fill="#EDCB3A"/>
<path d="M319.913 79.6106C319.913 74.8448 323.705 70.9658 328.437 70.8184C328.345 70.8158 328.253 70.8105 328.161 70.8105C323.303 70.8105 319.363 74.75 319.363 79.6079C319.363 84.4658 323.303 88.4053 328.161 88.4053C328.253 88.4053 328.345 88.4 328.437 88.3974C323.705 88.2527 319.913 84.3737 319.913 79.6053V79.6106Z" fill="#C18925"/>
<path d="M332.314 74.5737C332.314 74.2711 332.069 74.0264 331.767 74.0264H324.625C324.322 74.029 324.077 74.2764 324.077 74.579C324.077 74.8816 324.322 75.1264 324.625 75.1264H326.561C327.664 75.1264 328.606 75.7658 328.972 76.6685H324.625C324.322 76.6685 324.077 76.9158 324.077 77.2185C324.077 77.5211 324.322 77.7658 324.625 77.7658H329.122C328.982 78.9553 327.89 79.8843 326.564 79.8869H324.627C324.325 79.8869 324.08 80.1343 324.08 80.4369C324.08 80.7395 324.325 80.9843 324.627 80.9843H325.811L329.38 85.7685C329.503 85.9343 329.698 86.0316 329.906 86.0316C330.443 86.0316 330.751 85.4159 330.43 84.9843L327.443 80.9816H331.767C332.069 80.9816 332.314 80.7343 332.314 80.4316C332.314 80.129 332.069 79.8843 331.767 79.8843H329.848C330.351 79.2922 330.672 78.5606 330.727 77.7632H331.764C332.067 77.7632 332.311 77.5158 332.311 77.2132C332.311 76.9106 332.067 76.6658 331.764 76.6658H330.635C330.498 76.0922 330.222 75.5685 329.843 75.1237H331.761C332.064 75.1237 332.309 74.8764 332.309 74.5737H332.314Z" fill="#AA7921"/>
<path d="M320.005 31.4131H311.202C309.737 31.4131 308.55 32.6001 308.55 34.0644C308.55 35.5287 309.737 36.7157 311.202 36.7157H320.005C321.47 36.7157 322.658 35.5287 322.658 34.0644C322.658 32.6001 321.47 31.4131 320.005 31.4131Z" fill="#494136"/>
<path d="M317.084 31.4131H311.202C309.737 31.4131 308.55 32.6001 308.55 34.0644C308.55 35.5287 309.737 36.7157 311.202 36.7157H317.084C318.549 36.7157 319.737 35.5287 319.737 34.0644C319.737 32.6001 318.549 31.4131 317.084 31.4131Z" fill="#554C3D"/>
<path d="M310.553 31.4131H292.092C290.627 31.4131 289.439 32.6001 289.439 34.0644C289.439 35.5287 290.627 36.7157 292.092 36.7157H310.553C312.018 36.7157 313.205 35.5287 313.205 34.0644C313.205 32.6001 312.018 31.4131 310.553 31.4131Z" fill="#685D4E"/>
<path d="M309.373 43.1422L305.284 35.079C304.626 33.779 303.021 33.2527 301.721 33.9106C300.421 34.5685 299.894 36.1737 300.552 37.4737L304.642 45.5369C305.3 46.8369 306.905 47.3632 308.205 46.7053C309.505 46.0474 310.031 44.4422 309.373 43.1422Z" fill="#554C3D"/>
<path d="M308.547 43.1422L304.458 35.079C303.8 33.779 302.194 33.2527 300.894 33.9106C299.594 34.5685 299.068 36.1737 299.726 37.4737L303.815 45.5369C304.473 46.8369 306.079 47.3632 307.379 46.7053C308.679 46.0474 309.205 44.4422 308.547 43.1422Z" fill="#685D4E"/>
<path d="M294.889 43.1422L298.979 35.079C299.636 33.779 301.242 33.2527 302.542 33.9106C303.842 34.5685 304.368 36.1737 303.71 37.4737L299.621 45.5369C298.963 46.8369 297.358 47.3632 296.058 46.7053C294.758 46.0474 294.231 44.4422 294.889 43.1422Z" fill="#554C3D"/>
<path d="M294.123 43.1422L298.213 35.079C298.871 33.779 300.476 33.2527 301.776 33.9106C303.076 34.5685 303.602 36.1737 302.945 37.4737L298.855 45.5369C298.197 46.8369 296.592 47.3632 295.292 46.7053C293.992 46.0474 293.466 44.4422 294.123 43.1422Z" fill="#685D4E"/>
<path d="M301.545 38.053C303.658 38.053 305.371 36.3399 305.371 34.2267C305.371 32.1135 303.658 30.4004 301.545 30.4004C299.432 30.4004 297.719 32.1135 297.719 34.2267C297.719 36.3399 299.432 38.053 301.545 38.053Z" fill="#776C5E"/>
<path d="M303.168 32.1058C303.168 32.6769 302.442 33.1374 301.547 33.1374C300.652 33.1374 299.926 32.6742 299.926 32.1058C299.926 31.5374 300.652 31.0742 301.547 31.0742C302.442 31.0742 303.168 31.5374 303.168 32.1058Z" fill="#877B6F"/>
<path d="M301.545 36.404C299.716 36.404 298.187 35.1198 297.808 33.4014C297.75 33.6672 297.716 33.9435 297.716 34.2277C297.716 36.3408 299.429 38.054 301.542 38.054C303.655 38.054 305.368 36.3408 305.368 34.2277C305.368 33.9435 305.334 33.6672 305.276 33.4014C304.897 35.1172 303.371 36.404 301.54 36.404H301.545Z" fill="#554C3D"/>
<path d="M321.358 71.9482C321.135 70.6271 320.085 69.5877 318.756 69.3877C320.085 69.1877 321.137 68.1482 321.358 66.8271C321.582 68.1482 322.632 69.1877 323.961 69.3877C322.632 69.5877 321.58 70.6271 321.358 71.9482Z" fill="white"/>
<path d="M345.087 70.0322C344.863 68.7111 343.813 67.6717 342.484 67.4717C343.813 67.2717 344.866 66.2322 345.087 64.9111C345.311 66.2322 346.361 67.2717 347.69 67.4717C346.361 67.6717 345.308 68.7111 345.087 70.0322Z" fill="white"/>
<path d="M350.45 84.2089C350.227 82.8879 349.177 81.8484 347.848 81.6484C349.177 81.4484 350.229 80.4089 350.45 79.0879C350.674 80.4089 351.724 81.4484 353.053 81.6484C351.724 81.8484 350.671 82.8879 350.45 84.2089Z" fill="white"/>
<path d="M268.797 71.9004C268.573 70.5793 267.523 69.5398 266.194 69.3398C267.523 69.1398 268.576 68.1004 268.797 66.7793C269.021 68.1004 270.071 69.1398 271.4 69.3398C270.071 69.5398 269.018 70.5793 268.797 71.9004Z" fill="white"/>
<path d="M337.353 90.4345C337.129 89.1135 336.079 88.074 334.75 87.874C336.079 87.674 337.132 86.6345 337.353 85.3135C337.576 86.6345 338.626 87.674 339.955 87.874C338.626 88.074 337.574 89.1135 337.353 90.4345Z" fill="white"/>
<path d="M302.631 81.0034C302.631 79.9455 301.771 79.085 300.71 79.085L278.124 79.0955C277.066 79.0955 276.205 79.956 276.205 81.0165L276.21 90.0429C276.21 91.1008 277.071 91.9613 278.131 91.9613L300.718 91.9508C301.776 91.9508 302.637 91.0902 302.637 90.0297L302.631 81.0034Z" fill="#406052"/>
<path d="M300.048 81.0112L300.053 90.0375C300.053 91.0954 299.193 91.9564 298.135 91.9569L275.548 91.9688C274.49 91.9693 273.629 91.1093 273.629 90.0514L273.624 81.025C273.624 79.9671 274.484 79.1062 275.542 79.1056L298.128 79.0938C299.189 79.0932 300.047 79.9533 300.048 81.0112Z" fill="#BDEFDC"/>
<path d="M275.542 79.7314H298.129C298.834 79.7314 299.407 80.3051 299.407 81.0104V90.0367C299.407 90.742 298.834 91.3157 298.129 91.3157H275.542C274.836 91.3157 274.263 90.742 274.263 90.0367V81.0104C274.263 80.3051 274.836 79.7314 275.542 79.7314Z" fill="#8ED2BB"/>
<path d="M298.126 79.7266L286.831 79.7318L286.836 91.316L298.131 91.3108C298.836 91.3108 299.41 90.7371 299.407 90.0318L299.402 81.0055C299.402 80.3002 298.828 79.7266 298.123 79.7292L298.126 79.7266Z" fill="#64A08A"/>
<path d="M292.181 85.5215C292.181 88.4741 289.789 90.8689 286.836 90.8715C283.884 90.8715 281.489 88.4794 281.486 85.5268C281.484 82.5741 283.878 80.1794 286.831 80.1768C289.784 80.1768 292.178 82.5689 292.181 85.5215Z" fill="#BDEFDC"/>
<path d="M289.411 82.3577C289.411 82.1683 289.258 82.0156 289.069 82.0156H284.603C284.413 82.0156 284.261 82.1709 284.261 82.3604C284.261 82.5498 284.413 82.7025 284.603 82.7025H285.813C286.503 82.7025 287.092 83.1025 287.321 83.6656H284.603C284.413 83.6656 284.261 83.8209 284.261 84.0104C284.261 84.1998 284.413 84.3525 284.603 84.3525H287.416C287.329 85.0972 286.645 85.6788 285.816 85.6788H284.605C284.416 85.6788 284.263 85.834 284.263 86.0235C284.263 86.213 284.416 86.3656 284.605 86.3656H285.348L287.579 89.3577C287.655 89.4604 287.779 89.5235 287.908 89.5235C288.245 89.5235 288.437 89.1393 288.234 88.8683L286.369 86.3656H289.071C289.261 86.3656 289.413 86.2104 289.413 86.0209C289.413 85.8314 289.261 85.6788 289.071 85.6788H287.871C288.184 85.3077 288.384 84.8525 288.421 84.3525H289.071C289.261 84.3525 289.413 84.1998 289.413 84.0104C289.413 83.8209 289.261 83.6683 289.071 83.6683H288.366C288.279 83.3104 288.108 82.9814 287.871 82.7025H289.071C289.261 82.7025 289.413 82.5472 289.413 82.3577H289.411Z" fill="#406052"/>
<path d="M278.032 79.7354H275.537C274.832 79.7354 274.258 80.309 274.261 81.0143V83.5222C276.329 83.4748 277.995 81.8038 278.032 79.7354Z" fill="#406052"/>
<path d="M274.257 87.5488V90.0436C274.257 90.7488 274.831 91.3225 275.536 91.3199H278.044C277.996 89.2515 276.325 87.5857 274.257 87.5488Z" fill="#406052"/>
<path d="M295.637 91.3113H298.131C298.837 91.3113 299.41 90.7376 299.408 90.0323V87.5244C297.339 87.5718 295.674 89.2428 295.637 91.3113Z" fill="#406052"/>
<path d="M299.413 83.4976V81.0029C299.413 80.2976 298.839 79.7239 298.134 79.7266H295.626C295.673 81.795 297.344 83.4608 299.413 83.4976Z" fill="#406052"/>
</g>
<g opacity="0.06">
<path d="M246.385 67.7256C246.385 67.7256 243.88 43.7666 242.729 33.411C241.729 24.8081 236.277 21.41 233.621 20.2056C230.59 18.8683 227.223 18.4874 223.97 19.1138C220.717 19.7402 217.732 21.3441 215.415 23.7112L196.317 41.917C196.317 41.917 173.734 20.2916 166.4 13.0114C164.45 11.0309 162.034 9.57088 159.374 8.76496C156.714 7.95904 153.894 7.83294 151.173 8.39817C144.828 9.78538 140.742 14.2481 138.72 22.7327C138.645 23.1843 125.999 79.7266 124.741 84.9313C123.483 90.136 123.268 98.1474 128.698 102.707C134.129 107.266 142.463 109.794 150.764 102.449C153.464 99.9003 196.317 58.7141 196.317 58.7141L218.813 80.8772C226.717 88.6735 234.943 86.426 239.621 83.2752C243.127 80.7804 247.235 76.479 246.385 67.7256ZM142.463 93.846C139.559 96.7495 134.86 93.846 135.935 89.7596C136.613 86.4583 149.764 28.1525 150.711 23.722C151.657 19.2915 155.593 19.1948 157.894 21.4422C159.292 22.8402 187.402 50.4016 187.402 50.4016C187.402 50.4016 145.689 90.7812 142.463 93.846ZM227.76 72.7583C224.093 69.2096 204.833 50.3371 204.833 50.3371C204.833 50.3371 222.426 33.5723 224.19 31.8087C225.953 30.0451 230.416 30.3462 230.825 34.1314C231.233 37.9167 234.502 67.3707 234.696 69.8118C234.89 72.2528 231.448 76.3392 227.771 72.769L227.76 72.7583Z" fill="url(#paint2_linear_6709_15358)"/>
<path d="M241.226 14.6033C245.258 14.6033 248.527 11.3343 248.527 7.30167C248.527 3.26907 245.258 0 241.226 0C237.193 0 233.924 3.26907 233.924 7.30167C233.924 11.3343 237.193 14.6033 241.226 14.6033Z" fill="#4ABA7A"/>
</g>
<defs>
<linearGradient id="paint0_linear_6709_15358" x1="403.52" y1="-39.6867" x2="4.64989" y2="356.505" gradientUnits="userSpaceOnUse">
<stop stop-color="#3E51A3"/>
<stop offset="1" stop-color="#00D37F"/>
</linearGradient>
<linearGradient id="paint1_linear_6709_15358" x1="403.52" y1="-39.6867" x2="4.64989" y2="356.505" gradientUnits="userSpaceOnUse">
<stop stop-color="#3E51A3"/>
<stop offset="1" stop-color="#00D37F"/>
</linearGradient>
<linearGradient id="paint2_linear_6709_15358" x1="152.943" y1="118.673" x2="228.951" y2="-0.952801" gradientUnits="userSpaceOnUse">
<stop offset="0.0873353" stop-color="#CDDC29"/>
<stop offset="0.961679" stop-color="#4ABA7A"/>
</linearGradient>
<clipPath id="clip0_6709_15358">
<rect width="108" height="108" fill="white" transform="translate(258)"/>
</clipPath>
</defs>
</svg>
