<svg width="246" height="129" viewBox="0 0 246 129" fill="none" xmlns="http://www.w3.org/2000/svg">
<path d="M174.536 30.6002C174.411 30.6 174.29 30.5563 174.194 30.4767C174.098 30.3971 174.033 30.2866 174.009 30.164C173.395 26.9827 175.049 23.161 175.937 21.1011C176.106 20.7109 176.244 20.3745 176.338 20.1395C176.387 20.0056 176.488 19.897 176.618 19.8373C176.747 19.7777 176.895 19.772 177.029 19.8215C177.163 19.871 177.272 19.9716 177.331 20.1013C177.391 20.2309 177.397 20.3789 177.347 20.5127C177.25 20.7739 177.098 21.1272 176.923 21.5281C176.083 23.4743 174.516 27.098 175.065 29.9535C175.092 30.0935 175.062 30.2384 174.982 30.3565C174.902 30.4746 174.779 30.5562 174.639 30.5833C174.605 30.592 174.571 30.5976 174.536 30.6002Z" fill="#00D37F"/>
<path d="M174.427 28.7491C174.328 28.7493 174.231 28.7219 174.147 28.6701C174.062 28.6183 173.994 28.5441 173.949 28.4558C173.496 27.571 171.207 24.6232 169.014 23.167C168.899 23.0864 168.821 22.9643 168.795 22.8266C168.769 22.6889 168.798 22.5465 168.875 22.4297C168.953 22.313 169.073 22.2311 169.21 22.2016C169.347 22.172 169.49 22.1971 169.608 22.2715C171.991 23.8536 174.401 26.9796 174.906 27.9657C174.948 28.0478 174.968 28.1392 174.964 28.2313C174.961 28.3233 174.934 28.4128 174.886 28.4913C174.838 28.5699 174.77 28.6348 174.69 28.68C174.61 28.7251 174.519 28.7489 174.427 28.7491Z" fill="#00D37F"/>
<path d="M175.132 25.2167C175.019 25.2163 174.909 25.1804 174.817 25.114C174.725 25.0476 174.656 24.954 174.621 24.8465C173.731 22.1261 173.068 19.3734 174.234 17.6653C175.234 16.2014 177.306 14.272 178.593 14.4533C178.989 14.5086 179.217 14.8773 179.361 15.1507C180.002 16.4226 180.639 20.0247 179.515 22.0877C178.2 24.5131 175.367 25.1767 175.252 25.2044C175.213 25.2123 175.172 25.2164 175.132 25.2167ZM178.335 15.5178C177.721 15.5931 176.163 16.7467 175.121 18.272C174.28 19.5009 174.791 21.805 175.482 24.0108C176.25 23.7359 177.777 23.0324 178.568 21.5761C179.582 19.6975 178.767 16.166 178.335 15.5117V15.5178Z" fill="#00D37F"/>
<path d="M170.667 27.1007C170.61 27.1007 170.552 27.1007 170.495 27.1007C169.252 27.0147 168.037 26.0101 167.085 24.2759C166.403 23.066 165.658 21.8929 164.853 20.7613C164.183 19.7966 164.025 19.5585 164.025 19.2697C164.027 19.1381 164.072 19.0107 164.153 18.9064C164.233 18.8022 164.345 18.7265 164.472 18.6906C165.289 18.3834 169.674 18.3681 171.925 20.9533C174.175 23.5385 173.281 25.2989 172.797 25.9441C172.234 26.6937 171.482 27.1007 170.667 27.1007ZM165.376 19.6246C165.485 19.7782 165.611 19.9656 165.736 20.1438C166.562 21.3051 167.326 22.509 168.026 23.7505C168.794 25.133 169.716 25.9625 170.568 26.0224C171.212 26.0669 171.67 25.6522 171.937 25.2958C172.343 24.7551 172.774 23.5631 171.114 21.6568C169.496 19.7982 166.598 19.5616 165.376 19.6246Z" fill="#00D37F"/>
<path d="M180.814 38.1916C180.088 41.3698 177.7 43.3252 174.536 42.2284C172.158 41.4036 171.055 38.3882 171.31 36.6017C171.475 35.4743 171.862 34.4512 172.121 33.6694C172.364 32.9228 172.492 32.3867 172.201 32.1609C172.149 32.1226 172.09 32.0935 172.028 32.0749C171.745 31.9812 171.307 32.0119 170.908 32.0472C170.79 32.0595 170.674 32.0703 170.568 32.078C170.227 32.1056 169.972 32.1056 169.954 31.9797C169.923 31.6463 171.045 28.5603 173.101 29.6187C175.158 30.677 175.559 29.588 176.068 29.0135C176.576 28.439 178.097 29.0135 177.492 30.3744C177.373 30.6457 177.27 30.9237 177.184 31.207C176.923 32.038 176.998 32.5465 177.436 32.8107L177.473 32.8322C178.078 33.1594 181.539 35.0134 180.814 38.1916Z" fill="#CEFD1E"/>
<path d="M176.255 42.7649C175.645 42.759 175.04 42.651 174.465 42.4454C171.971 41.5805 170.82 38.4393 171.086 36.5683C171.236 35.6899 171.466 34.8271 171.773 33.9907C171.819 33.854 171.863 33.7235 171.905 33.5975C172.029 33.2135 172.263 32.4992 172.058 32.344C172.028 32.3225 171.994 32.3059 171.959 32.2949C171.701 32.2089 171.235 32.2503 170.926 32.278H170.889L170.582 32.3056C170.255 32.3318 169.762 32.3702 169.728 31.9984C169.702 31.7096 170.212 30.1858 171.229 29.5007C171.517 29.2998 171.856 29.1849 172.207 29.1694C172.558 29.1539 172.906 29.2385 173.21 29.4132C174.82 30.2411 175.258 29.6743 175.682 29.1259C175.753 29.0353 175.823 28.9431 175.899 28.8587C176.22 28.5008 176.843 28.4608 177.321 28.768C177.748 29.0461 178.074 29.6375 177.705 30.4669C177.587 30.728 177.484 30.9957 177.398 31.2688C177.109 32.1904 177.323 32.4685 177.551 32.6052L177.575 32.619L177.608 32.6374C180.303 34.1259 181.531 36.109 181.038 38.2426C180.616 40.0859 179.656 41.5053 178.352 42.2365C177.71 42.5891 176.988 42.7711 176.255 42.7649ZM171.53 31.7834C171.725 31.7772 171.92 31.8021 172.108 31.8571C172.194 31.8838 172.275 31.9248 172.347 31.9785C172.77 32.3072 172.596 32.9708 172.347 33.7419C172.305 33.8678 172.261 34 172.214 34.1382C171.916 34.9487 171.693 35.7848 171.547 36.6359C171.297 38.3486 172.343 41.2226 174.619 42.0122C175.902 42.4577 177.118 42.3947 178.135 41.8309C179.33 41.1689 180.204 39.8586 180.593 38.1443C181.183 35.5591 178.839 33.8433 177.389 33.046L177.366 33.0322L177.34 33.0184L177.32 33.0076C176.532 32.5284 176.859 31.4808 176.968 31.1367C177.06 30.8461 177.17 30.5615 177.296 30.2841C177.604 29.5929 177.249 29.2673 177.083 29.1597C176.797 28.9754 176.426 28.98 176.255 29.1705C176.191 29.2427 176.128 29.3241 176.06 29.4117C175.599 30.0107 174.963 30.831 173.012 29.8279C172.498 29.5622 172.028 29.5668 171.575 29.8387C170.78 30.3164 170.309 31.4731 170.217 31.8648C170.331 31.8676 170.445 31.8635 170.559 31.8525L170.856 31.8249H170.896C171.114 31.7987 171.33 31.7834 171.53 31.7834Z" fill="#CEFD1E"/>
<path d="M231.047 100.611C218.958 110.864 200.098 119.378 177.23 124.325C151.999 129.779 121.884 130.881 90.595 125.16C76.1322 122.521 61.954 118.509 48.2527 113.179C32.2236 106.936 20.726 98.9485 13.0225 90.0853C-32.2383 38.0118 53.99 -43.7081 127.785 28.4512C148.082 48.2944 171.734 49.723 192.591 49.3559C207.576 49.0947 221.115 47.9058 230.926 51.9534C235.227 53.7291 238.817 56.5125 241.493 60.8243C249.978 74.5047 245.064 88.7227 231.047 100.611Z" fill="#00D37F"/>
<path d="M227.176 71.1911C225.273 70.3478 220.938 69.6427 215.906 69.0821C215.955 68.4814 215.988 67.8317 216.007 67.1804C216.04 66.1804 216.046 65.1835 216.041 64.3617C216.041 63.2618 216.011 62.4892 216.011 62.4892C218.852 62.7273 221.889 63.0099 225.073 63.3601C227.932 63.6673 228.57 61.8717 229.717 58.0867C230.279 56.0773 230.681 54.0263 230.918 51.9531C231.737 45.2189 231.425 35.4248 224.444 31.6092C215.372 26.6507 203.531 30.1407 197.816 37.4309C197.323 38.056 196.875 38.7151 196.475 39.4033C194.699 42.5122 193.39 45.8656 192.591 49.3556C191.318 54.9163 191.699 59.6566 193.905 60.3801C195.548 60.9208 199.066 61.2296 203.966 61.5859C203.966 61.5859 203.871 62.3018 203.786 63.3955C203.726 64.1942 203.668 65.1958 203.657 66.2649C203.657 66.8071 203.657 67.3678 203.682 67.9269V68.0314C197.129 67.5951 191.7 67.4016 191.149 67.4584C190.018 67.5782 187.79 69.7841 186.344 73.3462C186.206 73.6888 186.074 74.0436 185.951 74.4092C181.796 69.5321 175.34 65.9116 166.189 65.7472C157.916 65.5936 151.628 67.9607 147.142 71.612C146.813 69.2157 146.08 66.1896 144.49 66.6965C142.054 67.4784 140.842 71.9269 142.822 76.2141C140.747 79.149 139.346 82.506 138.719 86.0451C136.44 86.744 134.447 88.6795 134.125 91.7286C133.702 95.7301 136.776 97.9636 139.933 98.0681C140.687 99.6968 141.677 101.206 142.87 102.547C141.656 105.659 141.151 107.398 143.516 108.231C145.61 108.968 148.724 109.738 149.733 107.77C150.644 108.237 151.58 108.653 152.536 109.019C152.502 111.477 152.91 112.836 154.919 113.464C157.788 114.361 163.175 113.672 163.521 111.272V111.226C165.135 111.3 166.753 111.284 168.366 111.179C171.719 110.959 174.561 110.53 176.985 109.907L176.871 109.936C176.871 109.936 175.76 116.91 177.227 124.303C200.101 119.361 218.961 110.842 231.05 100.589C232.603 87.678 230.241 72.5505 227.176 71.1911Z" fill="#FFFEF2"/>
<path d="M130.177 65.9747C128.67 68.586 128.04 70.6674 126.44 78.1574C124.839 85.6474 118.564 100.44 111.905 108.251C111.905 108.251 105.288 117.234 90.5828 125.16C76.12 122.521 61.9417 118.509 48.2405 113.179C32.2237 106.936 20.7261 98.9484 13.0226 90.0851C16.8136 82.9208 21.8904 75.7811 24.7783 72.3694C24.9626 72.1513 25.1899 71.2158 25.4326 69.8303C26.3543 64.5661 27.4296 52.835 26.8643 49.5984C26.8643 49.5984 19.299 51.7935 19.0855 48.7167C18.9319 46.451 21.0364 44.7705 23.5817 44.0224C26.3466 43.2206 27.9872 44.7813 28.5094 45.302C29.0317 45.8227 35.2314 40.2606 33.6876 33.7429C33.6876 33.7429 38.2743 29.531 46.3342 32.7475C54.5415 37.0486 62.7857 44.1469 62.5384 44.9856C62.222 46.0608 49.6168 46.8642 49.6168 46.8642C49.6168 46.8642 49.8073 65.5722 48.921 70.7657C48.921 70.7657 54.242 82.3586 74.5737 94.9638C74.5737 94.9638 74.397 95.4123 74.0422 96.1604C81.9285 102.022 87.1204 104.733 93.6289 100.239C100.137 95.7441 111.077 79.9009 113.595 68.8257C113.595 68.8257 111.154 66.6552 110.497 63.2066C109.839 59.7581 109.566 58.8687 107.747 57.5124C106.01 56.2205 103.818 54.5769 104.455 52.0761C103.343 51.8444 102.347 51.2286 101.643 50.3365C100.939 49.4444 100.572 48.333 100.605 47.1971C100.639 46.0613 101.071 44.9734 101.826 44.1241C102.581 43.2749 103.611 42.7185 104.735 42.5524C104.391 42.5186 104.042 42.4986 103.687 42.4986C100.888 42.4986 100.154 39.7045 104.265 39.3205C107.016 39.0639 110.729 38.9457 112.229 39.5048C113.658 40.0378 117.865 42.875 118.277 43.153C119.126 42.8857 119.855 42.8227 120.357 42.9595C122.646 43.5739 126.407 46.3266 130.795 51.6983C134.123 55.7843 132.704 61.5815 130.177 65.9747Z" fill="#FFFEF2"/>
<path d="M38.8105 42.4062C38.7213 42.4092 38.6324 42.3947 38.5488 42.3634C38.4653 42.3321 38.3887 42.2846 38.3235 42.2237C38.2583 42.1628 38.2058 42.0896 38.1689 42.0084C38.132 41.9271 38.1114 41.8394 38.1085 41.7503L38.0485 40.0129C38.0453 39.9237 38.0597 39.8347 38.0909 39.7511C38.1221 39.6674 38.1696 39.5908 38.2305 39.5256C38.2915 39.4603 38.3647 39.4078 38.4461 39.3709C38.5274 39.3341 38.6152 39.3137 38.7045 39.311C38.7936 39.3079 38.8825 39.3224 38.9661 39.3537C39.0496 39.385 39.1262 39.4325 39.1914 39.4934C39.2566 39.5543 39.3092 39.6275 39.3461 39.7087C39.383 39.79 39.4035 39.8777 39.4065 39.9669L39.4664 41.7026C39.4722 41.8828 39.4064 42.0579 39.2835 42.1897C39.1606 42.3215 38.9906 42.3994 38.8105 42.4062Z" fill="#1C2122"/>
<path d="M43.4263 42.0717C43.3371 42.0748 43.2482 42.0602 43.1647 42.0289C43.0811 41.9976 43.0046 41.9501 42.9394 41.8892C42.8742 41.8283 42.8216 41.7551 42.7847 41.6739C42.7478 41.5927 42.7273 41.5049 42.7243 41.4158L42.6644 39.68C42.6613 39.5908 42.6759 39.5019 42.7072 39.4183C42.7385 39.3348 42.7859 39.2582 42.8469 39.193C42.9078 39.1278 42.981 39.0753 43.0622 39.0384C43.1434 39.0015 43.2311 38.981 43.3203 38.978C43.4094 38.9747 43.4983 38.989 43.5818 39.0202C43.6654 39.0513 43.742 39.0986 43.8072 39.1594C43.8724 39.2202 43.925 39.2933 43.9619 39.3745C43.9988 39.4556 44.0193 39.5433 44.0223 39.6324L44.0822 41.3697C44.0853 41.4589 44.0708 41.5478 44.0395 41.6313C44.0082 41.7149 43.9607 41.7914 43.8998 41.8566C43.8389 41.9218 43.7657 41.9744 43.6845 42.0113C43.6032 42.0482 43.5155 42.0687 43.4263 42.0717Z" fill="#1C2122"/>
<path d="M198.875 40.5079L198.828 40.4854C198.503 40.33 198.113 40.4679 197.958 40.7932L197.186 42.4096C197.031 42.7349 197.169 43.1246 197.494 43.28L197.541 43.3025C197.867 43.4578 198.256 43.32 198.412 42.9946L199.183 41.3783C199.339 41.0529 199.201 40.6632 198.875 40.5079Z" fill="#1C2122"/>
<path d="M149.22 81.2662L149.171 81.2504C148.827 81.1412 148.46 81.3313 148.351 81.6749L147.809 83.382C147.7 83.7256 147.89 84.0927 148.233 84.2018L148.283 84.2176C148.627 84.3268 148.994 84.1367 149.103 83.793L149.645 82.086C149.754 81.7423 149.564 81.3753 149.22 81.2662Z" fill="#1C2122"/>
<path d="M144.17 80.9996L144.12 80.9837C143.777 80.8746 143.409 81.0647 143.3 81.4083L142.758 83.1154C142.649 83.459 142.839 83.8261 143.183 83.9352L143.233 83.951C143.576 84.0602 143.943 83.8701 144.052 83.5264L144.595 81.8194C144.704 81.4757 144.514 81.1087 144.17 80.9996Z" fill="#1C2122"/>
<path d="M203.901 40.9424L203.854 40.9199C203.529 40.7646 203.139 40.9024 202.984 41.2278L202.212 42.8442C202.057 43.1695 202.195 43.5592 202.52 43.7146L202.567 43.7371C202.892 43.8924 203.282 43.7545 203.437 43.4292L204.209 41.8128C204.364 41.4875 204.227 41.0978 203.901 40.9424Z" fill="#1C2122"/>
<path d="M8.34813 102.735C8.31726 102.735 8.28645 102.732 8.25597 102.727C8.11685 102.703 7.99289 102.625 7.91073 102.51C7.82858 102.395 7.79479 102.252 7.81664 102.113C9.40803 92.8042 19.3742 77.9395 24.3649 72.0394C24.6814 71.5217 25.3603 67.5141 25.9102 61.9012C26.4248 56.6616 26.6076 52.339 26.4156 50.2791C24.8872 50.6647 21.0961 51.4527 19.4141 50.2791C19.163 50.1087 18.9548 49.8825 18.8059 49.6181C18.6569 49.3537 18.5712 49.0584 18.5554 48.7553C18.4648 47.4604 19.0163 46.2484 20.1284 45.2515C22.0424 43.548 25.4448 42.6878 28.2174 43.207C28.2868 43.2201 28.353 43.2467 28.4121 43.2854C28.4712 43.3241 28.5221 43.374 28.5619 43.4323C28.6017 43.4907 28.6296 43.5563 28.644 43.6254C28.6585 43.6946 28.6591 43.7659 28.646 43.8353C28.6331 43.9046 28.6066 43.9707 28.5681 44.0298C28.5296 44.0889 28.4798 44.1398 28.4216 44.1796C28.3634 44.2194 28.2979 44.2473 28.2288 44.2618C28.1598 44.2762 28.0886 44.2769 28.0193 44.2638C25.5877 43.803 22.5032 44.571 20.8442 46.0549C19.9702 46.8337 19.56 47.717 19.6276 48.6801C19.6319 48.8232 19.6707 48.9633 19.7408 49.0882C19.8109 49.2131 19.9101 49.3192 20.0301 49.3974C21.3788 50.3391 25.3158 49.4896 26.7198 49.0902C26.7921 49.0689 26.8681 49.0632 26.9428 49.0736C27.0175 49.0839 27.0891 49.11 27.1529 49.1501C27.2169 49.1901 27.2718 49.2429 27.3142 49.3054C27.3565 49.3678 27.3853 49.4384 27.3987 49.5126C27.7858 51.7108 27.4279 57.5003 26.9625 62.1869C26.8089 63.786 25.9732 71.8028 25.1944 72.7245C20.2789 78.5417 10.4341 93.1867 8.87655 102.296C8.8536 102.419 8.7882 102.531 8.69169 102.611C8.59518 102.691 8.47364 102.735 8.34813 102.735Z" fill="#1C2122"/>
<path d="M21.6537 48.183C21.5619 48.1845 21.4711 48.1623 21.3904 48.1184C21.3097 48.0745 21.2416 48.0105 21.1929 47.9326C21.1171 47.8119 21.0921 47.6661 21.1235 47.5271C21.1549 47.388 21.24 47.2671 21.3603 47.1907C23.004 46.1569 25.9271 46.0263 26.8473 46.9464C26.9477 47.0474 27.0041 47.1841 27.0041 47.3266C27.0041 47.4691 26.9477 47.6058 26.8473 47.7068C26.797 47.7575 26.7372 47.7978 26.6713 47.8252C26.6053 47.8527 26.5346 47.8669 26.4632 47.8669C26.3918 47.8669 26.3211 47.8527 26.2552 47.8252C26.1893 47.7978 26.1295 47.7575 26.0792 47.7068C25.6522 47.2782 23.3143 47.226 21.9318 48.1016C21.8483 48.1536 21.7521 48.1817 21.6537 48.183Z" fill="#1C2122"/>
<path d="M64.1374 109.125C64.0222 109.126 63.9097 109.09 63.8166 109.022C63.7236 108.954 63.6547 108.858 63.6203 108.748C63.5859 108.638 63.5877 108.52 63.6255 108.411C63.6633 108.302 63.735 108.208 63.8302 108.144C69.6796 104.171 73.1189 96.9731 73.9084 95.182C63.5798 88.7304 57.2373 82.5523 53.7242 78.4939C49.8471 74.0132 48.5015 71.1207 48.4401 70.9947C48.3967 70.8985 48.3822 70.7918 48.3986 70.6875C49.268 65.6 49.0898 47.0686 49.0883 46.8781C49.0869 46.7404 49.1383 46.6074 49.2321 46.5065C49.3258 46.4056 49.4547 46.3445 49.5921 46.3359C54.8533 46.001 60.6336 45.3605 61.9085 44.8198C60.5475 42.8782 48.5753 32.9089 39.4171 30.4988C39.2792 30.4627 39.1613 30.3733 39.0893 30.2504C39.0173 30.1274 38.9971 29.9808 39.0331 29.8429C39.0695 29.7049 39.1592 29.587 39.2824 29.515C39.4057 29.443 39.5524 29.4228 39.6905 29.4589C45.0161 30.8613 51.1159 34.7953 54.2834 37.0164C58.4308 39.935 62.2326 43.1885 62.9392 44.4404C63.007 44.5429 63.0534 44.6581 63.0756 44.779C63.0977 44.8998 63.0952 45.024 63.0683 45.1439C62.9454 45.5755 62.4845 45.8981 60.4984 46.2606C59.4001 46.468 57.8962 46.6708 56.033 46.8751C53.6167 47.1285 51.1989 47.3067 50.1759 47.3789C50.1989 50.4311 50.2788 65.7367 49.4954 70.6952C49.8149 71.3265 51.265 74.0162 54.5875 77.8472C58.0929 81.8887 64.4584 88.0622 74.8746 94.5184C74.982 94.5849 75.0626 94.687 75.1022 94.807C75.1418 94.9269 75.1379 95.057 75.0912 95.1743C74.9376 95.5461 71.4046 104.314 64.4415 109.041C64.3511 109.099 64.245 109.128 64.1374 109.125Z" fill="#1C2122"/>
<path d="M37.0331 75.844C35.2161 75.8433 33.4035 75.6643 31.6215 75.3094C27.3204 74.4538 24.6261 72.8993 24.514 72.8348C24.3907 72.7629 24.301 72.6451 24.2644 72.5072C24.2279 72.3693 24.2475 72.2225 24.3189 72.099C24.3545 72.038 24.4017 71.9845 24.458 71.9417C24.5142 71.899 24.5784 71.8677 24.6467 71.8497C24.715 71.8317 24.7862 71.8274 24.8562 71.837C24.9263 71.8465 24.9937 71.8698 25.0547 71.9055C25.087 71.9239 27.749 73.4416 31.8719 74.2634C37.2596 75.3442 42.8511 74.6942 47.8472 72.4062C47.977 72.3473 48.1249 72.3422 48.2584 72.392C48.392 72.4418 48.5004 72.5425 48.5599 72.672C48.6189 72.8018 48.624 72.9496 48.5742 73.0832C48.5244 73.2168 48.4237 73.3252 48.2942 73.3847C44.7625 75.0091 40.9205 75.8481 37.0331 75.844Z" fill="#1C2122"/>
<path d="M37.2006 72.4405C28.918 72.4405 25.3634 70.4128 25.1638 70.2899C25.0414 70.2168 24.953 70.0982 24.9176 69.9602C24.8822 69.8221 24.9028 69.6756 24.9748 69.5526C25.0474 69.4301 25.1657 69.3414 25.3036 69.306C25.4416 69.2705 25.5879 69.2913 25.7106 69.3637C25.7889 69.4098 32.4602 73.1486 48.8395 70.2362C48.91 70.2239 48.9822 70.2258 49.0519 70.2419C49.1217 70.2579 49.1875 70.2876 49.2456 70.3294C49.3037 70.3712 49.3528 70.4241 49.3902 70.4851C49.4275 70.5461 49.4524 70.614 49.4631 70.6847C49.4859 70.8237 49.4531 70.9661 49.3718 71.0811C49.2904 71.196 49.1671 71.2744 49.0284 71.2992C44.3234 72.1363 40.4079 72.4405 37.2006 72.4405Z" fill="#1C2122"/>
<path d="M30.8412 101.486C30.436 101.495 30.0327 101.429 29.6522 101.289C29.5201 101.236 29.4145 101.132 29.3586 101.001C29.3028 100.87 29.3012 100.722 29.3542 100.59C29.3797 100.524 29.418 100.464 29.4669 100.412C29.5158 100.361 29.5743 100.32 29.6391 100.292C29.7039 100.263 29.7737 100.248 29.8445 100.246C29.9153 100.245 29.9857 100.257 30.0516 100.283C31.2513 100.764 34.2789 99.7975 35.5431 98.5348C36.5431 97.5348 36.2666 92.7391 36.004 91.4841C34.6553 91.438 28.6983 92.1324 27.2175 92.4058C27.259 92.8927 27.4925 94.0863 27.8673 96.0002L28.044 96.8988C28.071 97.0386 28.0416 97.1833 27.9621 97.3014C27.8827 97.4194 27.7596 97.5012 27.62 97.5286C27.5507 97.5423 27.4794 97.5421 27.4102 97.5282C27.3409 97.5143 27.2751 97.4868 27.2165 97.4474C27.1579 97.4081 27.1076 97.3575 27.0685 97.2987C27.0294 97.2399 27.0023 97.174 26.9887 97.1047L26.812 96.2061C26.4879 94.5456 26.2913 93.544 26.1976 92.9219C26.1177 92.3827 26.0286 91.7729 26.4894 91.4964C26.8212 91.2967 30.7459 90.8513 31.5293 90.7637C36.5278 90.2061 36.6568 90.4027 36.8703 90.7284C37.1407 91.14 37.3112 93.266 37.3312 94.5794C37.3573 97.0018 37.0116 98.5885 36.305 99.2951C35.1422 100.466 32.6599 101.486 30.8412 101.486Z" fill="#1C2122"/>
<path d="M23.5863 44.0241C26.3512 43.2207 27.9933 44.7799 28.5156 45.3021C29.0379 45.8244 35.2391 40.2607 33.6937 33.7431C33.6937 33.7431 38.2836 29.5296 46.348 32.7507C46.348 32.7507 47.7121 25.591 39.1714 26.0641C41.4064 23.0396 36.5355 21.6617 30.8673 28.422C29.9196 24.3176 25.6815 24.1763 27.6154 30.5925C27.6154 30.5925 20.2069 30.2853 23.5863 44.0241Z" fill="#1C2122"/>
<path d="M28.6046 45.8753C28.5175 45.8773 28.4309 45.8612 28.3503 45.8282C28.2697 45.7951 28.1968 45.7458 28.1361 45.6833C26.8919 44.4391 25.4111 44.055 23.7367 44.5404C23.6671 44.5609 23.5939 44.567 23.5218 44.5583C23.4498 44.5496 23.3802 44.5262 23.3174 44.4897C23.2547 44.4534 23.2001 44.4047 23.1568 44.3466C23.1135 44.2885 23.0825 44.2222 23.0655 44.1518C21.6461 38.3869 21.8996 34.2763 23.8166 31.9322C24.5945 30.9673 25.6989 30.3209 26.9211 30.115C26.3604 27.9261 26.4863 26.2932 27.2882 25.4776C27.4994 25.2624 27.766 25.1098 28.0585 25.0366C28.3509 24.9635 28.658 24.9725 28.9456 25.0628C29.8273 25.3117 30.6154 26.1719 31.0961 27.3501C34.9778 23.0736 38.4125 22.4622 39.6814 23.4622C40.176 23.8524 40.477 24.5605 40.1084 25.5068C42.5523 25.5329 44.3849 26.2257 45.5615 27.5713C47.4494 29.7295 46.904 32.7279 46.881 32.8554C46.8659 32.9332 46.8339 33.0067 46.7871 33.0707C46.7404 33.1347 46.6801 33.1876 46.6106 33.2256C46.5407 33.2642 46.4631 33.2866 46.3834 33.2914C46.3036 33.2962 46.2239 33.2832 46.1498 33.2533C39.4218 30.5651 35.2927 33.1857 34.2912 33.9522C35.4986 39.9521 30.6906 44.8738 29.2544 45.6756C29.0578 45.7952 28.8344 45.8638 28.6046 45.8753ZM25.0962 43.2639C26.2221 43.2639 27.4986 43.6188 28.7137 44.7478C29.2267 44.4759 30.557 43.3023 31.6645 41.5067C32.7582 39.7402 33.9087 36.9813 33.1714 33.8692C33.148 33.7766 33.1499 33.6794 33.1769 33.5878C33.204 33.4962 33.2551 33.4136 33.325 33.3485C33.517 33.1718 38.0055 29.1703 45.8764 32.0013C45.9133 31.1119 45.8057 29.4898 44.7366 28.2717C43.6368 27.0213 41.7735 26.4607 39.1944 26.602C39.0927 26.6072 38.9916 26.5836 38.9027 26.5338C38.8139 26.4841 38.7409 26.4103 38.6921 26.3209C38.6437 26.2308 38.6219 26.1288 38.6292 26.0268C38.6366 25.9249 38.6728 25.8271 38.7336 25.7449C39.1069 25.2395 39.3741 24.5959 39.0055 24.3055C38.1929 23.6665 34.9932 24.3332 31.2728 28.7694C31.2084 28.8459 31.1241 28.9031 31.0292 28.9345C30.9343 28.966 30.8325 28.9705 30.7352 28.9476C30.6381 28.924 30.5494 28.8738 30.4792 28.8028C30.4089 28.7317 30.3598 28.6425 30.3373 28.5451C30.0025 27.0889 29.2467 26.2656 28.6476 26.0951C28.5451 26.0579 28.4339 26.0511 28.3276 26.0756C28.2213 26.1002 28.1244 26.1549 28.0485 26.2333C27.6062 26.6834 27.3942 28.0244 28.1207 30.4391C28.1454 30.5214 28.15 30.6084 28.1343 30.6928C28.1185 30.7773 28.0828 30.8567 28.0301 30.9245C27.9776 30.9923 27.9096 31.0465 27.8319 31.0826C27.7541 31.1187 27.6688 31.1356 27.5831 31.1319C27.0104 31.1498 26.4486 31.2937 25.9378 31.5534C25.427 31.813 24.9797 32.1821 24.6277 32.6342C23.5048 34.0167 22.5017 37.0075 23.9779 43.3761C24.346 43.3013 24.7206 43.2633 25.0962 43.2624V43.2639Z" fill="#1C2122"/>
<path d="M42.2528 52.747C41.2586 52.7604 40.2859 52.457 39.4756 51.8807C38.1929 50.959 37.3419 49.34 37.1438 47.4368C37.1292 47.295 37.1714 47.1532 37.2613 47.0426C37.3512 46.932 37.4813 46.8616 37.623 46.8469C37.6933 46.8393 37.7643 46.8455 37.8321 46.8654C37.8999 46.8853 37.9631 46.9184 38.0181 46.9628C38.073 47.0072 38.1187 47.062 38.1524 47.1241C38.1861 47.1862 38.2071 47.2544 38.2144 47.3246C38.3803 48.9222 39.0685 50.2647 40.1023 51.0112C40.9963 51.6533 42.0992 51.8331 43.3649 51.5473C43.5026 51.5159 43.647 51.5398 43.7672 51.6139C43.8873 51.6881 43.9735 51.8065 44.007 51.9437C44.0382 52.083 44.0129 52.229 43.9365 52.3496C43.8602 52.4703 43.7392 52.5557 43.6 52.5873C43.1582 52.6904 42.7064 52.744 42.2528 52.747Z" fill="#1C2122"/>
<path d="M87.1895 103.014C82.8424 103.014 78.6458 100.249 73.7365 96.5951C73.622 96.51 73.546 96.3829 73.5253 96.2417C73.5045 96.1005 73.5407 95.9569 73.6259 95.8424C73.711 95.728 73.8381 95.652 73.9793 95.6313C74.1205 95.6105 74.2641 95.6467 74.3785 95.7318C82.655 101.876 87.3585 103.93 93.3385 99.8009C99.8377 95.3125 110.449 79.669 113 69.0008C112.346 68.3403 110.543 66.2896 109.967 63.3081C109.311 59.8749 109.062 59.1606 107.423 57.944C105.644 56.6199 102.956 54.6169 104.06 51.5217C104.108 51.3872 104.208 51.2773 104.336 51.2161C104.465 51.1549 104.613 51.1474 104.748 51.1952C104.882 51.2431 104.992 51.3424 105.053 51.4713C105.115 51.6003 105.122 51.7482 105.074 51.8826C104.297 54.0577 105.896 55.4663 108.065 57.0823C110.082 58.5831 110.361 59.6476 111.022 63.1068C111.636 66.3234 113.928 68.4033 113.951 68.4233C114.023 68.4873 114.076 68.5694 114.106 68.6609C114.135 68.7524 114.14 68.8501 114.119 68.944C112.953 74.0714 109.835 80.7611 105.564 87.2972C101.57 93.42 97.2233 98.4246 93.9483 100.686C91.5874 102.317 89.3662 103.014 87.1895 103.014Z" fill="#1C2122"/>
<path d="M112.819 47.3544C112.74 47.3543 112.662 47.3369 112.591 47.3035C112.52 47.27 112.456 47.2214 112.406 47.1608C111.22 45.7354 107.87 43.0426 103.687 43.0426C101.885 43.0426 100.896 42.0672 100.851 41.1056C100.807 40.144 101.667 39.0288 104.216 38.7907C105.644 38.6571 110.461 38.2776 112.418 39.0058C113.778 39.5127 117.371 41.8982 118.44 42.6186C118.501 42.6567 118.554 42.7069 118.596 42.766C118.638 42.8251 118.667 42.8921 118.682 42.9628C118.697 43.0335 118.698 43.1066 118.684 43.1776C118.671 43.2486 118.643 43.3162 118.602 43.3761C118.562 43.4361 118.51 43.4873 118.449 43.5267C118.388 43.566 118.32 43.5928 118.249 43.6052C118.178 43.6177 118.105 43.6156 118.034 43.5992C117.964 43.5827 117.897 43.5523 117.839 43.5096C115.689 42.0626 113.036 40.3836 112.042 40.0134C110.659 39.4973 107.013 39.6094 104.315 39.8598C102.716 40.0134 101.904 40.5726 101.925 41.0534C101.945 41.4927 102.626 41.9658 103.687 41.9658C108.259 41.9658 111.838 44.7968 113.232 46.4711C113.297 46.5499 113.338 46.6453 113.351 46.7464C113.364 46.8476 113.347 46.9502 113.304 47.0425C113.261 47.1348 113.192 47.2129 113.107 47.2679C113.021 47.3228 112.921 47.3523 112.819 47.3529V47.3544Z" fill="#1C2122"/>
<path d="M116.725 59.0874H116.708C116.573 59.0874 113.381 58.9231 112.642 56.9707C111.755 54.6251 114.77 51.367 117.936 48.2319C117.986 48.1823 118.046 48.1431 118.112 48.1165C118.177 48.09 118.247 48.0766 118.318 48.0772C118.389 48.0777 118.459 48.0922 118.524 48.1198C118.589 48.1474 118.648 48.1876 118.698 48.238C118.747 48.2885 118.787 48.3482 118.813 48.4138C118.84 48.4793 118.853 48.5495 118.852 48.6203C118.852 48.691 118.837 48.7609 118.81 48.8261C118.782 48.8912 118.742 48.9503 118.692 48.9999C116.679 50.9969 112.933 54.705 113.647 56.5944C114.054 57.6696 116.028 57.9876 116.755 58.0183C116.825 58.0198 116.895 58.0352 116.959 58.0636C117.024 58.0921 117.082 58.1329 117.131 58.1839C117.18 58.2349 117.219 58.295 117.244 58.3608C117.27 58.4267 117.282 58.4969 117.281 58.5675C117.279 58.6381 117.264 58.7077 117.235 58.7723C117.207 58.837 117.166 58.8954 117.115 58.9443C117.064 58.9931 117.004 59.0314 116.938 59.0571C116.872 59.0827 116.802 59.0951 116.731 59.0936L116.725 59.0874Z" fill="#1C2122"/>
<path d="M120.882 63.1649C120.44 63.1649 120 63.1542 119.576 63.1342C117.973 63.0651 116.541 61.5136 116.169 59.4476C115.781 57.2725 118.592 54.6857 121.392 52.4338C121.447 52.3889 121.51 52.3553 121.578 52.335C121.646 52.3147 121.718 52.308 121.788 52.3155C121.859 52.3229 121.928 52.3442 121.99 52.3782C122.052 52.4123 122.107 52.4583 122.152 52.5137C122.196 52.5691 122.229 52.6327 122.249 52.701C122.268 52.7692 122.274 52.8406 122.266 52.9112C122.258 52.9818 122.236 53.05 122.202 53.112C122.167 53.174 122.121 53.2286 122.065 53.2725C120.787 54.2986 116.899 57.42 117.228 59.2633C117.506 60.8147 118.536 62.0205 119.622 62.0682C122.928 62.2126 125.369 61.7609 125.695 60.9391C125.951 60.2924 125.63 59.6396 125.278 59.2771C125.008 58.9975 124.576 58.7502 124.18 58.8946C124.114 58.9187 124.043 58.9295 123.973 58.9264C123.902 58.9233 123.833 58.9063 123.769 58.8764C123.705 58.8465 123.647 58.8043 123.6 58.7522C123.552 58.7001 123.515 58.6392 123.491 58.5728C123.467 58.5064 123.456 58.436 123.459 58.3654C123.462 58.2949 123.479 58.2257 123.509 58.1617C123.539 58.0977 123.581 58.0402 123.633 57.9926C123.686 57.9449 123.747 57.908 123.813 57.8839C124.547 57.6166 125.404 57.8639 126.049 58.5275C126.808 59.3078 127.06 60.4107 126.693 61.3355C126.112 62.7947 123.437 63.1649 120.882 63.1649Z" fill="#1C2122"/>
<path d="M121.14 70.0034C121.038 70.0041 120.938 69.9755 120.851 69.9211C120.765 69.8666 120.695 69.7886 120.652 69.6961C119.576 67.3459 120.143 63.9189 121.324 62.3122C121.411 62.2023 121.536 62.1304 121.674 62.1114C121.813 62.0925 121.953 62.1281 122.066 62.2107C122.178 62.2933 122.254 62.4164 122.277 62.554C122.301 62.6916 122.27 62.833 122.191 62.9481C121.209 64.2845 120.75 67.326 121.629 69.2461C121.658 69.3103 121.675 69.3797 121.677 69.4504C121.68 69.521 121.669 69.5915 121.644 69.6577C121.619 69.724 121.582 69.7847 121.534 69.8364C121.485 69.888 121.427 69.9297 121.363 69.9588C121.293 69.9899 121.217 70.0051 121.14 70.0034Z" fill="#1C2122"/>
<path d="M122.916 60.0292C122.802 60.0293 122.691 59.9934 122.599 59.9265C122.507 59.8596 122.439 59.7652 122.404 59.6569C122.369 59.5487 122.369 59.4321 122.404 59.324C122.44 59.2159 122.509 59.1218 122.601 59.0553C123.457 58.4408 124.348 56.6329 124.384 56.2581C124.385 56.1878 124.399 56.1183 124.426 56.0535C124.453 55.9887 124.493 55.9299 124.543 55.8805C124.593 55.8311 124.652 55.7921 124.717 55.7657C124.782 55.7393 124.852 55.726 124.922 55.7266C125.065 55.7278 125.202 55.7857 125.303 55.8876C125.404 55.9895 125.46 56.1271 125.46 56.2704C125.46 56.9094 124.384 59.0968 123.231 59.9278C123.139 59.994 123.029 60.0295 122.916 60.0292Z" fill="#1C2122"/>
<path d="M225.679 63.9331C225.459 63.9326 225.239 63.9198 225.02 63.8947C217.954 63.1266 211.614 62.6658 206.519 62.3094C200.249 61.8639 195.717 61.5414 193.734 60.8916C192.912 60.6228 192.289 59.9392 191.879 58.8624C191.147 56.9438 191.143 53.7672 191.868 50.1467C192.654 46.2781 194.054 42.5603 196.015 39.1344C198.53 34.7996 203.081 31.3772 208.482 29.7489C214.166 28.0347 219.931 28.5293 224.706 31.1314C229.02 33.4893 231.456 38.4309 231.748 45.417C231.977 50.8548 230.858 56.1697 230.236 58.2326C229.212 61.6212 228.511 63.9331 225.679 63.9331ZM215.101 29.8042C207.582 29.8042 200.26 33.9517 196.945 39.6736C192.891 46.6628 191.568 55.0345 192.883 58.4784C193.172 59.2464 193.571 59.7073 194.069 59.8701C195.926 60.4845 200.401 60.7918 206.594 61.2372C211.699 61.5997 218.052 62.0498 225.138 62.8255C227.521 63.0867 228.043 61.7718 229.207 57.9316C230.765 52.7887 233.189 36.9993 224.19 32.0822C221.401 30.5688 218.274 29.7852 215.101 29.8042Z" fill="#1C2122"/>
<path d="M214.711 29.824C214.571 29.824 214.437 29.7697 214.337 29.6725C214.236 29.5753 214.178 29.4429 214.173 29.3032C214.084 26.4707 214.006 25.1865 213.769 24.7902C213.54 24.6898 213.304 24.6061 213.063 24.5398C212.092 24.2326 210.624 23.7841 210.504 22.5199C210.399 21.4308 211.389 20.9315 212.11 20.5675C212.45 20.397 212.963 20.1374 212.949 19.973C212.926 19.7395 212.855 19.6658 212.198 19.5352C211.541 19.4047 210.496 19.1866 210.496 17.8133C210.496 17.1574 211.011 16.7626 211.418 16.4462C211.793 16.1589 212.018 15.9684 212.005 15.7519C211.951 14.9485 211.39 14.2158 211.39 14.2066C211.344 14.1508 211.31 14.0865 211.29 14.0174C211.27 13.9483 211.264 13.8757 211.272 13.8042C211.28 13.7326 211.303 13.6634 211.338 13.6007C211.374 13.5381 211.421 13.4831 211.479 13.4393C211.536 13.3954 211.601 13.3635 211.671 13.3454C211.741 13.3273 211.813 13.3234 211.884 13.3339C211.956 13.3444 212.024 13.3692 212.086 13.4067C212.147 13.4442 212.201 13.4937 212.243 13.5522C212.273 13.5921 212.998 14.546 213.074 15.6797C213.127 16.4861 212.516 16.9562 212.069 17.2987C211.856 17.4631 211.562 17.6873 211.562 17.8133C211.562 18.2664 211.716 18.3402 212.405 18.483C212.968 18.5982 213.909 18.7902 214.011 19.8655C214.094 20.761 213.256 21.1819 212.585 21.5214C211.948 21.8409 211.533 22.0775 211.565 22.4108C211.617 22.9623 212.631 23.2756 213.372 23.5045C213.966 23.6888 214.396 23.8225 214.614 24.1189C215.041 24.718 215.126 25.6934 215.24 29.2556C215.244 29.3981 215.191 29.5365 215.094 29.6404C214.996 29.7443 214.861 29.8053 214.719 29.8101L214.711 29.824Z" fill="#CEFD1E"/>
<path d="M211.579 14.3207C212.476 14.1089 213.032 13.2096 212.82 12.3121C212.608 11.4146 211.709 10.8587 210.811 11.0705C209.914 11.2824 209.358 12.1817 209.57 13.0792C209.782 13.9767 210.681 14.5325 211.579 14.3207Z" fill="#00D37F"/>
<path d="M211.196 14.5893C210.821 14.5893 210.453 14.4779 210.141 14.2691C209.828 14.0603 209.585 13.7636 209.441 13.4164C209.297 13.0692 209.26 12.6871 209.333 12.3185C209.406 11.9499 209.587 11.6113 209.853 11.3456C210.119 11.0799 210.457 10.8989 210.826 10.8256C211.194 10.7523 211.576 10.7899 211.924 10.9337C212.271 11.0775 212.568 11.3211 212.776 11.6335C212.985 11.946 213.097 12.3134 213.097 12.6892C213.096 13.1929 212.895 13.6757 212.539 14.0319C212.183 14.3881 211.7 14.5885 211.196 14.5893ZM211.196 11.2499C210.912 11.2499 210.634 11.3343 210.397 11.4925C210.16 11.6506 209.976 11.8754 209.867 12.1384C209.758 12.4014 209.729 12.6908 209.785 12.97C209.84 13.2492 209.977 13.5057 210.179 13.707C210.38 13.9082 210.636 14.0453 210.916 14.1009C211.195 14.1564 211.484 14.1279 211.747 14.019C212.01 13.91 212.235 13.7255 212.393 13.4888C212.551 13.2522 212.636 12.9739 212.636 12.6892C212.635 12.3076 212.484 11.9417 212.214 11.6719C211.944 11.4021 211.578 11.2503 211.196 11.2499Z" fill="#00D37F"/>
<path d="M198.782 52.0184C198.237 52.0178 197.694 51.9612 197.161 51.8494C197.09 51.8373 197.022 51.8109 196.961 51.7719C196.901 51.7329 196.848 51.6821 196.808 51.6224C196.767 51.5628 196.739 51.4955 196.724 51.4247C196.71 51.3539 196.711 51.281 196.725 51.2103C196.74 51.1396 196.769 51.0726 196.81 51.0133C196.851 50.9539 196.904 50.9034 196.965 50.8649C197.026 50.8263 197.094 50.8005 197.165 50.7888C197.236 50.7772 197.309 50.78 197.379 50.7972C200.716 51.4884 203.329 49.6083 203.733 47.9554C203.767 47.8169 203.854 47.6976 203.976 47.6237C204.098 47.5498 204.245 47.5274 204.383 47.5614C204.522 47.5954 204.641 47.6831 204.715 47.8051C204.789 47.9271 204.811 48.0734 204.777 48.212C204.286 50.215 201.834 52.0184 198.782 52.0184Z" fill="#1C2122"/>
<path d="M205.94 46.089C205.823 46.0893 205.709 46.0515 205.616 45.9813C205.522 45.9111 205.454 45.8123 205.422 45.7C205.39 45.5876 205.395 45.4678 205.437 45.3587C205.479 45.2495 205.555 45.157 205.654 45.0952C206.711 44.4347 207.39 43.5391 207.674 42.4332C208.152 40.5576 207.213 39.2273 206.184 38.6068C205.204 38.0184 204.101 38.0292 203.439 38.6344C202.453 39.5346 201.596 39.8832 200.811 39.7005C200.098 39.5361 199.531 38.9324 199.121 37.8986C199.113 37.8641 199.097 37.8321 199.073 37.8054C199.05 37.7787 199.021 37.7579 198.988 37.745C198.746 37.6513 198.261 37.8049 198.055 37.8986C197.927 37.9622 197.78 37.9724 197.644 37.927C197.509 37.8816 197.398 37.7844 197.334 37.6567C197.27 37.529 197.26 37.3812 197.306 37.246C197.351 37.1107 197.448 36.999 197.576 36.9355C197.68 36.8848 198.614 36.4409 199.375 36.7343C199.546 36.7996 199.702 36.901 199.83 37.0317C199.959 37.1623 200.058 37.3192 200.121 37.4916C200.39 38.172 200.702 38.5668 201.043 38.6406C201.445 38.7343 202.018 38.4516 202.703 37.8264C203.72 36.9048 205.336 36.8357 206.726 37.6728C208.031 38.4562 209.33 40.2381 208.705 42.6881C208.356 44.0522 207.494 45.1966 206.213 45.9969C206.132 46.0519 206.038 46.0838 205.94 46.089Z" fill="#1C2122"/>
<path d="M202.227 47.1468C201.548 47.1468 200.946 47.0393 200.521 46.8243C200.033 46.5619 199.599 46.2114 199.24 45.7905C198.779 45.2974 198.748 45.3143 198.544 45.4187C197.084 46.1683 195.86 46.2882 195.011 45.7674C194.528 45.4725 193.954 44.8304 193.954 43.4449C193.954 43.3023 194.011 43.1655 194.111 43.0647C194.212 42.9639 194.349 42.9072 194.491 42.9072C194.634 42.9072 194.771 42.9639 194.872 43.0647C194.972 43.1655 195.029 43.3023 195.029 43.4449C195.029 43.9349 195.123 44.5754 195.571 44.8488C196.074 45.1561 196.98 45.0147 198.058 44.4617C199.015 43.9717 199.594 44.5985 200.029 45.0562C200.304 45.3832 200.636 45.6571 201.009 45.8642C201.47 46.0946 202.545 46.1914 203.834 45.8642C203.972 45.8302 204.117 45.8519 204.239 45.9247C204.36 45.9974 204.448 46.1152 204.484 46.2525C204.519 46.3898 204.498 46.5355 204.427 46.6578C204.355 46.7801 204.238 46.8692 204.101 46.9057C203.489 47.0635 202.859 47.1445 202.227 47.1468Z" fill="#1C2122"/>
<path d="M220.109 55.8487C219.589 55.8494 219.072 55.7759 218.573 55.6306C216.771 55.1068 215.347 53.6997 214.579 51.6675C213.828 49.689 213.779 47.3434 214.442 45.0623C215.825 40.3004 219.934 37.2912 223.594 38.3572C227.255 39.4233 229.107 44.1637 227.722 48.9255C227.058 51.2051 225.759 53.159 224.063 54.4263C222.814 55.3648 221.448 55.8487 220.109 55.8487ZM222.075 39.2175C219.333 39.2175 216.545 41.7182 215.482 45.3618C214.885 47.4202 214.923 49.5231 215.591 51.285C216.241 52.9931 217.407 54.1697 218.877 54.5968C220.347 55.0238 221.963 54.6582 223.427 53.5645C224.937 52.437 226.098 50.6828 226.697 48.6245C227.917 44.4325 226.39 40.2896 223.302 39.3895C222.903 39.2747 222.49 39.2168 222.075 39.2175Z" fill="#1C2122"/>
<path d="M203.677 68.4652C203.539 68.4649 203.405 68.411 203.305 68.3149C203.206 68.2187 203.147 68.0876 203.141 67.9491C203.074 65.801 203.171 63.6509 203.43 61.5174C203.45 61.3775 203.525 61.2512 203.637 61.1658C203.75 61.0804 203.892 61.0428 204.032 61.0612C204.172 61.0796 204.299 61.1524 204.386 61.264C204.473 61.3756 204.513 61.5168 204.496 61.6572C204.247 63.7298 204.153 65.818 204.215 67.9045C204.221 68.0469 204.17 68.1857 204.073 68.2906C203.977 68.3954 203.843 68.4577 203.7 68.4636L203.677 68.4652Z" fill="#1C2122"/>
<path d="M215.92 69.4558H215.88C215.738 69.4452 215.606 69.3786 215.513 69.2706C215.42 69.1625 215.373 69.022 215.384 68.8798C215.582 66.184 215.474 62.545 215.473 62.5081C215.471 62.4375 215.483 62.3672 215.508 62.3011C215.533 62.2351 215.571 62.1746 215.619 62.1232C215.667 62.0718 215.725 62.0304 215.79 62.0014C215.854 61.9725 215.924 61.9565 215.994 61.9543C216.065 61.9522 216.135 61.964 216.201 61.9891C216.267 62.0142 216.328 62.052 216.379 62.1004C216.431 62.1488 216.472 62.2069 216.501 62.2713C216.53 62.3357 216.546 62.4052 216.548 62.4758C216.548 62.5127 216.659 66.207 216.456 68.9597C216.446 69.0947 216.385 69.2208 216.285 69.3128C216.186 69.4048 216.055 69.4559 215.92 69.4558Z" fill="#1C2122"/>
<path d="M216.043 64.9C215.998 64.9004 215.954 64.8947 215.911 64.8831C211.528 63.7786 203.872 63.9322 203.796 63.9338H203.783C203.641 63.9352 203.503 63.8799 203.402 63.7801C203.3 63.6803 203.242 63.5441 203.24 63.4015C203.239 63.2589 203.294 63.1216 203.394 63.0198C203.494 62.918 203.63 62.8599 203.773 62.8585C204.092 62.8585 211.651 62.7049 216.173 63.8416C216.3 63.8741 216.41 63.9516 216.484 64.0595C216.558 64.1675 216.589 64.2985 216.573 64.4282C216.557 64.5579 216.495 64.6773 216.397 64.7641C216.299 64.8509 216.173 64.8992 216.043 64.9Z" fill="#1C2122"/>
<path d="M216.008 67.7198C215.96 67.7197 215.913 67.7135 215.868 67.7014C210.952 66.385 203.759 66.7982 203.687 66.8028C203.544 66.8114 203.404 66.7629 203.297 66.6681C203.19 66.5734 203.125 66.44 203.117 66.2974C203.108 66.1548 203.157 66.0147 203.251 65.9078C203.346 65.8009 203.479 65.7361 203.622 65.7275C203.929 65.7106 211.071 65.299 216.147 66.6615C216.273 66.6953 216.383 66.7738 216.455 66.8823C216.527 66.9908 216.558 67.1219 216.541 67.2512C216.524 67.3805 216.46 67.4991 216.362 67.5851C216.264 67.671 216.138 67.7184 216.008 67.7183V67.7198Z" fill="#1C2122"/>
<path d="M227.855 113.197C227.773 113.197 227.691 113.178 227.617 113.142C227.554 113.111 227.497 113.067 227.451 113.014C227.404 112.961 227.368 112.899 227.346 112.832C227.323 112.766 227.314 112.695 227.319 112.624C227.323 112.554 227.342 112.485 227.373 112.422C232.333 102.396 231.602 82.5032 228.706 74.4971C227.914 72.3051 227.219 71.7982 226.958 71.683C221.141 69.1039 192.427 67.8627 191.194 67.9964C190.272 68.0932 187.839 70.4403 186.45 74.5831C186.405 74.7184 186.308 74.8301 186.18 74.8938C186.053 74.9575 185.905 74.9678 185.77 74.9226C185.634 74.8774 185.523 74.7803 185.459 74.6527C185.395 74.5251 185.385 74.3774 185.43 74.2421C186.828 70.0747 189.481 67.0962 191.081 66.9273C192.332 66.7952 221.465 68.0732 227.395 70.703C228.261 71.0885 229.021 72.2099 229.717 74.1346C231.192 78.2129 232.118 85.4156 232.077 92.4847C232.027 100.876 230.694 108.127 228.338 112.901C228.292 112.99 228.223 113.065 228.138 113.117C228.053 113.169 227.955 113.197 227.855 113.197Z" fill="#1C2122"/>
<path d="M199.504 96.3557C197.645 96.3557 194.197 95.6476 191.347 94.9732C191.276 94.9593 191.209 94.9312 191.149 94.8906C191.089 94.85 191.038 94.7978 190.999 94.7371C190.96 94.6764 190.934 94.6084 190.921 94.5372C190.909 94.4661 190.911 94.3931 190.928 94.3228C190.944 94.2525 190.975 94.1862 191.017 94.1279C191.06 94.0697 191.114 94.0206 191.176 93.9837C191.238 93.9468 191.307 93.9227 191.379 93.913C191.45 93.9033 191.523 93.9081 191.593 93.9272C196.616 95.11 199.459 95.4341 200.101 95.2344C200.445 94.8411 201.252 92.2129 202.126 86.4003C202.883 81.3743 203.098 78.0117 202.971 77.3835C202.17 76.7691 196.26 75.6938 191.495 74.8397C189.745 74.5233 187.935 74.1961 186.237 73.872C186.096 73.8453 185.973 73.764 185.892 73.6461C185.812 73.5281 185.782 73.3831 185.809 73.243C185.835 73.1028 185.917 72.979 186.035 72.8988C186.153 72.8186 186.298 72.7885 186.438 72.8152C188.127 73.1393 189.939 73.4665 191.687 73.7814C199.928 75.2698 203.339 75.9611 203.886 76.7998C204 76.9734 204.172 77.2376 204.012 79.5386C203.922 80.8382 203.737 82.5724 203.493 84.4203C203.057 87.7137 202.333 92.0608 201.61 94.3911C201.2 95.7121 200.889 96.0808 200.551 96.2144C200.213 96.3236 199.859 96.3715 199.504 96.3557Z" fill="#1C2122"/>
<path d="M224.834 88.1591C224.691 88.1671 224.551 88.1181 224.445 88.0229C224.338 87.9276 224.274 87.794 224.266 87.6515C224.258 87.5089 224.307 87.369 224.403 87.2625C224.498 87.1561 224.631 87.0918 224.774 87.0839C226.172 86.9303 227.385 84.8381 227.668 82.1238C227.961 79.2606 227.166 76.0102 224.723 75.2114C221.597 74.1823 220.04 75.8766 219.387 76.9779C217.891 79.5094 218.273 83.3097 220.207 85.1192C220.269 85.1642 220.321 85.2219 220.359 85.2885C220.397 85.355 220.42 85.4289 220.427 85.5052C220.434 85.5815 220.424 85.6583 220.399 85.7307C220.374 85.803 220.334 85.8692 220.281 85.9247C220.228 85.9802 220.164 86.0238 220.093 86.0526C220.022 86.0814 219.946 86.0946 219.87 86.0915C219.793 86.0884 219.718 86.069 219.65 86.0346C219.581 86.0001 219.521 85.9515 219.473 85.8919C217.169 83.7413 216.699 79.4034 218.461 76.425C219.843 74.0778 222.253 73.2606 225.058 74.1838C228.067 75.1761 229.073 78.9457 228.736 82.2344C228.453 84.9994 227.155 87.8949 224.895 88.153L224.834 88.1591Z" fill="#1C2122"/>
<path d="M199.524 105.629C197.491 105.629 195.812 105.497 194.809 105.254C189.017 103.857 183.524 101.669 177 98.1622C176.938 98.1288 176.883 98.0835 176.838 98.0289C176.793 97.9742 176.76 97.9113 176.739 97.8436C176.719 97.776 176.712 97.7051 176.719 97.6348C176.726 97.5645 176.747 97.4963 176.78 97.4341C176.814 97.3719 176.859 97.3168 176.914 97.2721C176.968 97.2274 177.031 97.1939 177.099 97.1735C177.167 97.1531 177.237 97.1462 177.308 97.1532C177.378 97.1603 177.446 97.1811 177.508 97.2144C183.949 100.677 189.362 102.835 195.061 104.21C199 105.161 213.255 104.285 217.815 100.625C224.382 95.3558 224.92 84.2882 224.845 79.7737C224.829 78.8259 223.943 78.104 223.155 78.0502C222.367 77.9964 221.772 78.6216 221.597 79.7737C220.646 85.8013 219.229 89.9242 217.143 92.749C215.204 95.3604 212.903 96.6154 210.315 97.8719C205.084 100.408 198.083 99.8688 194.373 99.3127C189.599 98.6046 181.051 93.7828 178.551 92.3251C178.49 92.29 178.435 92.2431 178.392 92.1869C178.348 92.1307 178.316 92.0664 178.297 91.9977C178.279 91.929 178.274 91.8573 178.283 91.7868C178.293 91.7163 178.316 91.6483 178.351 91.5868C178.387 91.5253 178.435 91.4715 178.492 91.4285C178.548 91.3856 178.613 91.3543 178.682 91.3366C178.751 91.3188 178.823 91.3149 178.893 91.325C178.963 91.3352 179.031 91.3592 179.092 91.3957C184.17 94.3542 190.895 97.7091 194.538 98.2498C198.123 98.7812 204.88 99.3158 209.851 96.9041C214.289 94.7536 218.479 92.7183 220.55 79.6063C220.874 77.551 222.156 76.9012 223.244 76.9765C224.522 77.0671 225.908 78.2053 225.932 79.7553C226.009 84.428 225.439 95.8965 218.501 101.463C214.766 104.449 205.58 105.629 199.524 105.629Z" fill="#1C2122"/>
<path d="M181.192 100.241C181.096 100.244 181.002 100.223 180.917 100.178C180.794 100.107 180.704 99.9893 180.667 99.8516C180.63 99.7139 180.649 99.5672 180.72 99.4437C180.734 99.4176 182.192 96.8324 182.078 94.0137C182.076 93.9431 182.087 93.8726 182.111 93.8063C182.135 93.74 182.173 93.6791 182.221 93.6272C182.269 93.5753 182.326 93.5333 182.39 93.5037C182.455 93.4741 182.524 93.4574 182.594 93.4545C182.665 93.4517 182.736 93.4628 182.802 93.4872C182.868 93.5116 182.929 93.5489 182.981 93.5968C183.033 93.6447 183.075 93.7024 183.104 93.7665C183.134 93.8307 183.151 93.9001 183.154 93.9707C183.281 97.1135 181.72 99.8646 181.653 99.9798C181.605 100.059 181.538 100.125 181.457 100.171C181.376 100.217 181.285 100.241 181.192 100.241Z" fill="#1C2122"/>
<path d="M186.88 102.733C186.803 102.734 186.727 102.717 186.657 102.684C186.528 102.625 186.427 102.517 186.377 102.384C186.327 102.251 186.331 102.103 186.39 101.973C186.662 101.374 187.645 98.7212 187.49 96.6736C187.479 96.531 187.526 96.39 187.619 96.2815C187.712 96.1731 187.844 96.1061 187.987 96.0953C188.13 96.0845 188.271 96.1308 188.379 96.224C188.488 96.3172 188.554 96.4496 188.565 96.5922C188.736 98.8303 187.736 101.618 187.373 102.417C187.331 102.512 187.261 102.592 187.174 102.648C187.086 102.705 186.984 102.734 186.88 102.733Z" fill="#1C2122"/>
<path d="M193.128 104.804C193.04 104.804 192.953 104.782 192.876 104.741C192.798 104.7 192.732 104.641 192.682 104.568C192.633 104.495 192.602 104.411 192.593 104.324C192.584 104.237 192.596 104.148 192.628 104.067C193.046 103.027 193.604 100.738 193.054 98.758C193.033 98.6893 193.025 98.6171 193.032 98.5456C193.04 98.4741 193.061 98.4047 193.095 98.3417C193.13 98.2786 193.177 98.223 193.233 98.1783C193.289 98.1336 193.354 98.1006 193.423 98.0813C193.492 98.062 193.565 98.0567 193.636 98.0659C193.707 98.075 193.776 98.0984 193.838 98.1345C193.9 98.1707 193.954 98.219 193.997 98.2764C194.041 98.3339 194.072 98.3994 194.089 98.4692C194.857 101.248 193.756 104.145 193.628 104.46C193.589 104.561 193.521 104.648 193.431 104.709C193.342 104.771 193.236 104.804 193.128 104.804Z" fill="#1C2122"/>
<path d="M199.67 105.631C199.637 105.631 199.604 105.628 199.571 105.622C199.502 105.609 199.436 105.583 199.376 105.544C199.317 105.506 199.266 105.456 199.226 105.398C199.186 105.34 199.158 105.274 199.143 105.205C199.129 105.136 199.128 105.065 199.141 104.995C199.436 103.393 199.705 101.309 199.152 99.3793C199.132 99.3115 199.127 99.2404 199.135 99.1702C199.143 99.1001 199.164 99.0322 199.199 98.9704C199.233 98.9086 199.279 98.8542 199.334 98.8103C199.389 98.7663 199.453 98.7337 199.521 98.7142C199.588 98.6947 199.66 98.6888 199.73 98.6968C199.8 98.7048 199.868 98.7265 199.93 98.7608C199.991 98.795 200.046 98.8411 200.09 98.8963C200.134 98.9516 200.166 99.015 200.186 99.0829C200.8 101.226 200.514 103.473 200.198 105.19C200.175 105.314 200.11 105.426 200.014 105.506C199.917 105.587 199.795 105.631 199.67 105.631Z" fill="#1C2122"/>
<path d="M206.16 105.234H206.133C205.991 105.227 205.857 105.164 205.761 105.058C205.665 104.953 205.615 104.813 205.622 104.671C205.622 104.634 205.791 100.984 205.084 98.9871C205.061 98.9205 205.05 98.8499 205.054 98.7794C205.058 98.7089 205.075 98.6398 205.106 98.576C205.136 98.5122 205.179 98.4551 205.231 98.4078C205.284 98.3605 205.345 98.324 205.411 98.3004C205.478 98.2768 205.549 98.2666 205.619 98.2703C205.69 98.2739 205.759 98.2914 205.823 98.3218C205.886 98.3522 205.943 98.3949 205.991 98.4473C206.038 98.4998 206.074 98.5611 206.098 98.6276C206.875 100.821 206.703 104.568 206.696 104.726C206.688 104.863 206.628 104.992 206.529 105.087C206.429 105.181 206.297 105.234 206.16 105.234Z" fill="#1C2122"/>
<path d="M212.504 104.074C212.361 104.074 212.224 104.018 212.124 103.917C212.023 103.816 211.966 103.679 211.966 103.537C211.966 102.308 211.367 99.3724 210.293 97.291C210.23 97.1645 210.219 97.0181 210.263 96.8837C210.307 96.7492 210.402 96.6374 210.528 96.5726C210.653 96.5077 210.799 96.495 210.934 96.5372C211.069 96.5793 211.182 96.673 211.249 96.7979C212.415 99.059 213.038 102.163 213.041 103.535C213.041 103.678 212.985 103.814 212.885 103.915C212.784 104.016 212.648 104.074 212.505 104.074H212.504Z" fill="#1C2122"/>
<path d="M218.152 101.581C218.032 101.582 217.915 101.541 217.82 101.467C217.726 101.393 217.658 101.29 217.63 101.173C217.361 100.076 215.61 96.7735 214.12 95.0761C214.073 95.0231 214.037 94.9614 214.015 94.8945C213.992 94.8277 213.982 94.757 213.987 94.6865C213.992 94.6161 214.01 94.5472 214.041 94.4838C214.072 94.4205 214.116 94.3639 214.169 94.3173C214.222 94.2707 214.284 94.235 214.35 94.2122C214.417 94.1895 214.488 94.1802 214.558 94.1847C214.629 94.1893 214.698 94.2077 214.761 94.2389C214.824 94.27 214.881 94.3134 214.928 94.3665C216.539 96.2021 218.375 99.6951 218.674 100.916C218.708 101.055 218.685 101.201 218.611 101.323C218.537 101.445 218.418 101.532 218.279 101.566C218.238 101.576 218.195 101.582 218.152 101.581Z" fill="#1C2122"/>
<path d="M222.147 96.6124C222.038 96.6123 221.931 96.5789 221.841 96.5166C221.751 96.4543 221.682 96.3661 221.643 96.2637C221.204 95.0994 219.388 92.9673 217.124 91.9934C217.057 91.9669 216.997 91.9273 216.945 91.8769C216.894 91.8265 216.854 91.7663 216.826 91.7C216.798 91.6336 216.784 91.5624 216.785 91.4906C216.785 91.4187 216.8 91.3477 216.828 91.2816C216.857 91.2156 216.898 91.1559 216.95 91.1061C217.002 91.0563 217.063 91.0174 217.13 90.9917C217.197 90.966 217.269 90.9539 217.341 90.9564C217.412 90.9588 217.483 90.9756 217.548 91.0057C219.952 92.0395 222.067 94.3421 222.65 95.8843C222.68 95.9657 222.69 96.0532 222.68 96.1394C222.669 96.2256 222.638 96.3079 222.588 96.3794C222.539 96.4509 222.473 96.5095 222.396 96.55C222.32 96.5906 222.234 96.612 222.147 96.6124Z" fill="#1C2122"/>
<path d="M224.259 90.9486C224.158 90.9488 224.058 90.9199 223.972 90.8655C223.886 90.8111 223.817 90.7334 223.774 90.6414C223.276 89.5923 220.906 88.1837 219.166 88.1729C219.023 88.1729 218.886 88.1163 218.786 88.0154C218.685 87.9146 218.628 87.7779 218.628 87.6353C218.628 87.4927 218.685 87.356 218.786 87.2551C218.886 87.1543 219.023 87.0977 219.166 87.0977C221.209 87.1053 224.024 88.6614 224.743 90.1806C224.782 90.2625 224.8 90.3529 224.794 90.4434C224.789 90.5339 224.76 90.6216 224.712 90.6982C224.664 90.7749 224.597 90.838 224.517 90.8818C224.438 90.9256 224.349 90.9486 224.258 90.9486H224.259Z" fill="#1C2122"/>
<path d="M225.235 84.9105C225.133 84.9109 225.033 84.8822 224.947 84.8278C224.86 84.7734 224.791 84.6955 224.748 84.6033C224.261 83.5587 222.086 82.7676 220.7 83.4143C220.571 83.4754 220.423 83.4827 220.288 83.4344C220.153 83.3862 220.043 83.2864 219.982 83.157C219.921 83.0277 219.914 82.8794 219.962 82.7447C220.01 82.61 220.11 82.5 220.239 82.4389C222.07 81.5849 224.937 82.4804 225.716 84.1486C225.746 84.2125 225.763 84.2817 225.766 84.3523C225.769 84.4228 225.758 84.4933 225.734 84.5597C225.71 84.626 225.673 84.687 225.625 84.739C225.578 84.7911 225.52 84.8332 225.456 84.8629C225.387 84.8948 225.311 84.911 225.235 84.9105Z" fill="#1C2122"/>
<path d="M170.863 32.0445H170.915C170.796 32.0568 170.681 32.0676 170.575 32.0753C170.668 32.0471 170.765 32.0367 170.863 32.0445Z" fill="#1C2122"/>
<path d="M172.128 33.6652C172.37 32.9187 172.498 32.3826 172.207 32.1568C172.155 32.1184 172.096 32.0894 172.034 32.0707C174.094 32.0477 176.009 31.6314 177.184 31.1982C176.923 32.0293 176.999 32.5377 177.436 32.8019C175.719 33.3478 173.93 33.6387 172.128 33.6652Z" fill="#1C2122"/>
<path d="M173.585 99.6738C172.409 99.6735 171.259 99.3244 170.281 98.6707C169.303 98.0169 168.541 97.0879 168.091 96.0011C167.641 94.9143 167.524 93.7184 167.754 92.5648C167.983 91.4111 168.55 90.3515 169.382 89.5198C170.214 88.6882 171.273 88.1219 172.427 87.8925C173.581 87.6631 174.777 87.781 175.863 88.2312C176.95 88.6814 177.879 89.4438 178.532 90.4218C179.186 91.3999 179.535 92.5498 179.535 93.7261C179.533 95.3033 178.906 96.8154 177.79 97.9305C176.675 99.0456 175.163 99.6726 173.585 99.6738ZM173.585 88.8536C172.622 88.8539 171.68 89.1399 170.879 89.6755C170.078 90.2111 169.453 90.9721 169.085 91.8625C168.716 92.7528 168.62 93.7325 168.808 94.6776C168.996 95.6226 169.461 96.4907 170.142 97.172C170.824 97.8532 171.692 98.3171 172.637 98.505C173.582 98.6929 174.562 98.5963 175.452 98.2275C176.342 97.8586 177.103 97.2341 177.638 96.4329C178.174 95.6317 178.459 94.6897 178.459 93.7261C178.458 92.434 177.944 91.1954 177.03 90.2819C176.116 89.3685 174.877 88.8548 173.585 88.8536Z" fill="#1C2122"/>
<path d="M176.588 89.7624C176.472 89.7626 176.359 89.725 176.265 89.6552C176.172 89.5853 176.105 89.4871 176.072 89.3753C174.803 85.0251 173.548 84.3262 173.207 84.426C172.747 84.5581 172.218 86.0481 172.869 88.3077C172.909 88.4448 172.892 88.592 172.823 88.7169C172.754 88.8418 172.639 88.9341 172.502 88.9736C172.364 89.0131 172.217 88.9966 172.092 88.9276C171.968 88.8586 171.875 88.7428 171.836 88.6057C171.104 86.0697 171.575 83.7793 172.911 83.3938C174.398 82.9637 175.929 85.0312 177.108 89.0773C177.147 89.2142 177.131 89.3611 177.062 89.486C176.994 89.611 176.879 89.7037 176.742 89.744C176.692 89.757 176.64 89.7632 176.588 89.7624Z" fill="#1C2122"/>
<path d="M166.43 92.5572C164.627 92.5572 163.185 92.2146 162.463 91.5787C162.305 91.4538 162.176 91.2955 162.086 91.1152C161.997 90.9349 161.948 90.737 161.943 90.5357C161.944 90.2876 162.007 90.0438 162.126 89.8262C162.245 89.6086 162.417 89.4243 162.625 89.2899C163.831 88.4589 166.486 88.6754 169.556 89.8398C169.689 89.8907 169.797 89.9925 169.855 90.1227C169.913 90.2529 169.917 90.4009 169.866 90.5341C169.816 90.6673 169.714 90.7749 169.584 90.8331C169.453 90.8913 169.305 90.8953 169.172 90.8444C166.117 89.6801 163.949 89.6801 163.235 90.1747C163.17 90.2099 163.115 90.2622 163.077 90.3261C163.039 90.3899 163.019 90.4628 163.019 90.5372C163.038 90.6324 163.093 90.7166 163.172 90.7722C163.787 91.3145 165.655 91.7031 168.429 91.3483C168.5 91.337 168.572 91.34 168.642 91.3573C168.712 91.3746 168.778 91.4058 168.835 91.4489C168.893 91.492 168.941 91.5463 168.978 91.6085C169.014 91.6706 169.037 91.7394 169.046 91.8108C169.056 91.8822 169.05 91.9547 169.031 92.024C169.011 92.0933 168.978 92.158 168.934 92.2143C168.889 92.2706 168.833 92.3173 168.77 92.3516C168.707 92.386 168.637 92.4073 168.565 92.4143C167.857 92.5074 167.144 92.5551 166.43 92.5572Z" fill="#1C2122"/>
<path d="M163.891 96.4025C162.799 96.4025 161.837 96.2489 161.287 95.8495C161.12 95.742 160.983 95.5943 160.887 95.4198C160.792 95.2454 160.742 95.0498 160.742 94.851C160.742 94.6186 160.794 94.389 160.894 94.1795C160.995 93.9699 161.141 93.7857 161.323 93.6406C162.791 92.4117 166.668 92.9171 168.266 93.1951C168.406 93.2194 168.532 93.2984 168.614 93.415C168.696 93.5315 168.729 93.6759 168.704 93.8165C168.68 93.957 168.601 94.0822 168.485 94.1644C168.368 94.2467 168.224 94.2793 168.083 94.255C165.197 93.7542 162.759 93.8387 162.014 94.4639C161.952 94.5081 161.902 94.5665 161.868 94.6342C161.834 94.7018 161.816 94.7767 161.817 94.8526C161.817 94.8694 161.817 94.9079 161.913 94.9754C162.742 95.5684 165.968 95.3902 168.187 94.6283C168.321 94.5856 168.467 94.597 168.592 94.6601C168.718 94.7233 168.814 94.8331 168.859 94.9661C168.905 95.0991 168.897 95.2446 168.836 95.3716C168.776 95.4985 168.668 95.5967 168.536 95.6452C167.035 96.1307 165.469 96.3861 163.891 96.4025Z" fill="#1C2122"/>
<path d="M164.8 100.023C164.476 100.029 164.154 99.9769 163.848 99.8699C163.648 99.8066 163.467 99.6936 163.322 99.5416C163.177 99.3896 163.074 99.2034 163.02 99.0004C162.964 98.7794 162.96 98.5483 163.009 98.3255C163.058 98.1028 163.159 97.8946 163.303 97.7178C164.195 96.5412 166.836 95.9605 168.902 95.9191C168.972 95.9176 169.043 95.9301 169.108 95.9559C169.174 95.9816 169.234 96.02 169.285 96.0689C169.336 96.1178 169.377 96.1763 169.405 96.241C169.433 96.3057 169.449 96.3753 169.45 96.4459C169.452 96.5165 169.439 96.5867 169.413 96.6525C169.388 96.7183 169.349 96.7783 169.3 96.8292C169.251 96.8802 169.193 96.921 169.128 96.9493C169.063 96.9776 168.994 96.9929 168.923 96.9943C166.803 97.0373 164.711 97.6395 164.161 98.3676C164.116 98.4153 164.083 98.4739 164.066 98.5379C164.049 98.6018 164.048 98.669 164.065 98.7332C164.065 98.7547 164.083 98.8084 164.229 98.8637C165.083 99.1817 167.584 98.5181 169.532 97.1833C169.59 97.1429 169.655 97.1144 169.725 97.0994C169.794 97.0844 169.865 97.0832 169.935 97.0958C170.005 97.1084 170.071 97.1347 170.131 97.173C170.19 97.2113 170.242 97.261 170.282 97.3192C170.322 97.3774 170.351 97.443 170.366 97.5122C170.381 97.5814 170.382 97.6529 170.369 97.7225C170.357 97.7922 170.331 97.8587 170.292 97.9183C170.254 97.9778 170.204 98.0292 170.146 98.0696C168.602 99.1187 166.367 100.023 164.8 100.023Z" fill="#1C2122"/>
<path d="M190.524 98.1969C190.464 98.1965 190.404 98.1861 190.347 98.1662C190.213 98.1195 190.102 98.0213 190.04 97.8931C189.978 97.7649 189.969 97.6173 190.015 97.4827C190.283 96.7146 190.535 95.8867 190.783 94.9681C192.104 90.1171 191.275 82.3414 186.447 75.9037C183.238 71.6241 177.114 66.4813 166.171 66.2862C165.929 66.2862 165.691 66.2862 165.453 66.2862C148.739 66.2862 140.89 76.9329 139.246 86.1586C139.235 86.2291 139.21 86.2966 139.172 86.3573C139.134 86.4179 139.085 86.4704 139.027 86.5118C138.968 86.5531 138.902 86.5824 138.833 86.598C138.763 86.6136 138.691 86.6152 138.621 86.6027C138.55 86.5901 138.483 86.5637 138.423 86.525C138.363 86.4862 138.312 86.4359 138.271 86.377C138.231 86.318 138.203 86.2517 138.189 86.1818C138.174 86.1118 138.174 86.0397 138.188 85.9697C139.198 80.2861 142.119 75.1602 146.41 71.5197C151.436 67.2555 158.278 65.0758 166.191 65.2217C177.571 65.426 183.957 70.7977 187.31 75.2693C192.356 81.9973 193.213 90.1586 191.825 95.2615C191.568 96.2031 191.309 97.0479 191.034 97.8452C190.995 97.9491 190.926 98.0387 190.834 98.1016C190.743 98.1646 190.635 98.1979 190.524 98.1969Z" fill="#1C2122"/>
<path d="M152.535 109.579C152.47 109.58 152.406 109.569 152.346 109.548C146.287 107.225 141.707 103.236 139.443 98.3175C139.383 98.188 139.377 98.04 139.427 97.9062C139.476 97.7724 139.577 97.6637 139.706 97.604C139.836 97.5443 139.984 97.5386 140.117 97.588C140.251 97.6374 140.36 97.7379 140.42 97.8675C142.562 102.531 146.934 106.316 152.728 108.543C152.846 108.588 152.944 108.673 153.005 108.782C153.067 108.892 153.088 109.02 153.065 109.143C153.042 109.267 152.977 109.379 152.88 109.459C152.784 109.539 152.662 109.583 152.536 109.583L152.535 109.579Z" fill="#1C2122"/>
<path d="M165.479 111.83C164.81 111.83 164.147 111.814 163.492 111.784C163.421 111.78 163.352 111.763 163.288 111.733C163.224 111.703 163.166 111.66 163.119 111.608C163.071 111.556 163.035 111.495 163.011 111.428C162.987 111.362 162.976 111.291 162.979 111.221C162.983 111.15 163 111.081 163.03 111.017C163.06 110.953 163.102 110.895 163.155 110.848C163.207 110.8 163.268 110.764 163.335 110.74C163.401 110.716 163.472 110.705 163.542 110.708C165.136 110.781 166.733 110.765 168.326 110.661C171.614 110.446 174.401 110.036 176.846 109.406C176.985 109.37 177.131 109.391 177.254 109.463C177.377 109.536 177.466 109.654 177.502 109.792C177.537 109.93 177.517 110.077 177.444 110.2C177.372 110.323 177.253 110.412 177.115 110.447C174.604 111.094 171.751 111.513 168.396 111.733C167.418 111.799 166.442 111.83 165.479 111.83Z" fill="#1C2122"/>
<path d="M186.754 104.997C186.651 104.997 186.549 104.967 186.462 104.911C186.375 104.855 186.306 104.774 186.264 104.68C186.221 104.585 186.207 104.48 186.223 104.377C186.239 104.275 186.284 104.179 186.353 104.102C186.837 103.557 187.281 102.979 187.682 102.371C187.761 102.252 187.884 102.169 188.024 102.141C188.163 102.112 188.309 102.141 188.428 102.219C188.547 102.298 188.63 102.421 188.658 102.561C188.686 102.701 188.658 102.846 188.579 102.965C188.149 103.615 187.674 104.234 187.157 104.818C187.106 104.874 187.044 104.92 186.975 104.951C186.905 104.982 186.83 104.998 186.754 104.997Z" fill="#1C2122"/>
<path d="M140.163 98.6275C138.674 98.6385 137.219 98.1877 135.997 97.3372C134.197 96.0469 133.341 94.0407 133.589 91.6905C134.059 87.2481 137.88 84.9317 141.307 85.2543C144.297 85.5385 147.135 87.9163 146.742 92.5907C146.53 95.0976 145.251 97.0161 143.135 97.9916C142.202 98.4156 141.188 98.6325 140.163 98.6275ZM134.658 91.8026C134.452 93.7519 135.151 95.4078 136.624 96.4631C138.326 97.6828 140.762 97.904 142.685 97.0161C144.433 96.2097 145.493 94.606 145.67 92.5C146.025 88.2881 143.487 86.5415 141.206 86.3249C138.298 86.05 135.062 88.0239 134.658 91.8026Z" fill="#1C2122"/>
<path d="M142.822 76.7554C142.72 76.7558 142.62 76.7271 142.533 76.6727C142.447 76.6183 142.378 76.5405 142.334 76.4482C141.117 73.8092 140.96 70.8 141.928 68.5973C142.466 67.3684 143.311 66.5159 144.314 66.1948C144.534 66.118 144.77 66.0919 145.002 66.1185C145.234 66.1451 145.457 66.2237 145.655 66.3484C146.61 66.9506 147.268 68.6526 147.664 71.5373C147.676 71.6086 147.675 71.6816 147.658 71.7521C147.642 71.8226 147.612 71.8891 147.569 71.9475C147.526 72.006 147.472 72.0552 147.41 72.0923C147.348 72.1294 147.279 72.1536 147.207 72.1635C147.136 72.1733 147.063 72.1685 146.993 72.1495C146.923 72.1305 146.858 72.0976 146.801 72.0527C146.744 72.0079 146.697 71.9521 146.663 71.8886C146.628 71.8251 146.606 71.7553 146.599 71.6833C146.128 68.2547 145.381 67.4483 145.083 67.2593C145.019 67.2166 144.946 67.1898 144.87 67.1813C144.793 67.1727 144.716 67.1826 144.644 67.2102C143.94 67.4375 143.326 68.0796 142.913 69.0212C142.248 70.5343 142.005 73.1595 143.311 75.9889C143.35 76.0711 143.367 76.1618 143.361 76.2525C143.356 76.3433 143.327 76.4311 143.279 76.5079C143.23 76.5846 143.162 76.6477 143.082 76.6913C143.003 76.7348 142.913 76.7574 142.822 76.757V76.7554Z" fill="#1C2122"/>
<path d="M161.011 61.0887C160.911 61.0887 160.813 61.061 160.728 61.0087C160.643 60.9563 160.574 60.8814 160.528 60.7922C159.949 59.7334 159.226 58.7605 158.378 57.9013C158.278 57.7995 158.223 57.6621 158.224 57.5196C158.226 57.377 158.284 57.2408 158.386 57.141C158.487 57.0412 158.625 56.9859 158.767 56.9873C158.91 56.9888 159.046 57.0468 159.146 57.1486C160.073 58.0867 160.861 59.1516 161.489 60.3115C161.552 60.439 161.562 60.5865 161.517 60.7216C161.472 60.8566 161.375 60.9682 161.247 61.0319C161.174 61.0693 161.093 61.0888 161.011 61.0887Z" fill="#1C2122"/>
<path d="M167.585 57.7045C167.524 57.7041 167.463 57.6937 167.406 57.6738C167.271 57.6259 167.162 57.5267 167.1 57.398C167.039 57.2694 167.031 57.1216 167.078 56.9872C167.463 55.913 167.92 54.866 168.446 53.8536C168.478 53.7892 168.522 53.7319 168.577 53.6851C168.631 53.6383 168.695 53.6029 168.763 53.5811C168.832 53.5592 168.904 53.5513 168.976 53.5579C169.047 53.5644 169.117 53.5853 169.18 53.6192C169.244 53.6531 169.3 53.6994 169.345 53.7553C169.39 53.8113 169.424 53.8757 169.443 53.9448C169.463 54.0139 169.469 54.0863 169.46 54.1577C169.452 54.2291 169.429 54.2981 169.393 54.3605C168.894 55.3255 168.46 56.3226 168.092 57.3451C168.055 57.45 167.986 57.5408 167.896 57.6052C167.805 57.6695 167.697 57.7042 167.585 57.7045Z" fill="#1C2122"/>
<path d="M174.158 61.4459C174.053 61.447 173.951 61.4175 173.863 61.3609C173.774 61.3042 173.705 61.223 173.662 61.1273C173.62 61.0315 173.606 60.9254 173.623 60.822C173.641 60.7187 173.688 60.6226 173.759 60.5458C174.413 59.8013 175.003 59.0021 175.521 58.1571C175.599 58.047 175.716 57.9704 175.848 57.9424C175.98 57.9144 176.117 57.937 176.234 58.0059C176.35 58.0748 176.436 58.1848 176.474 58.3142C176.513 58.4435 176.502 58.5827 176.442 58.704C175.891 59.6101 175.261 60.4659 174.559 61.2616C174.509 61.3188 174.448 61.3649 174.378 61.3966C174.309 61.4284 174.234 61.4452 174.158 61.4459Z" fill="#1C2122"/>
<path d="M180.324 112.235C179.206 112.235 178.339 112.007 177.67 111.547C176.432 110.695 176.005 109.123 175.728 107.553C175.703 107.413 175.736 107.268 175.818 107.152C175.9 107.035 176.025 106.955 176.165 106.931C176.306 106.906 176.45 106.938 176.567 107.02C176.684 107.102 176.763 107.227 176.788 107.368C177.06 108.918 177.418 110.07 178.28 110.663C179.115 111.235 180.464 111.317 182.525 110.914C185.15 110.403 186.62 109.773 187.155 108.934C187.441 108.486 187.481 107.939 187.286 107.16C187.083 106.368 186.696 105.636 186.157 105.022C186.067 104.914 186.024 104.774 186.036 104.634C186.048 104.495 186.114 104.365 186.221 104.273C186.327 104.181 186.465 104.135 186.605 104.144C186.745 104.152 186.877 104.216 186.971 104.32C187.621 105.061 188.087 105.945 188.329 106.901C188.597 107.976 188.513 108.804 188.063 109.512C187.349 110.633 185.705 111.392 182.731 111.97C181.939 112.135 181.133 112.224 180.324 112.235Z" fill="#1C2122"/>
<path d="M157.779 114.401C156.758 114.417 155.74 114.282 154.757 114.002C151.707 113.049 151.865 110.521 152.126 106.333C152.149 105.985 152.171 105.622 152.194 105.244C152.198 105.174 152.216 105.105 152.247 105.041C152.278 104.977 152.321 104.92 152.373 104.873C152.426 104.826 152.488 104.79 152.555 104.767C152.621 104.744 152.692 104.734 152.763 104.738C152.833 104.742 152.903 104.76 152.966 104.791C153.03 104.822 153.087 104.865 153.134 104.918C153.181 104.971 153.217 105.032 153.24 105.099C153.263 105.166 153.273 105.237 153.269 105.307C153.246 105.686 153.224 106.051 153.201 106.401C152.922 110.856 152.936 112.306 155.08 112.976C156.986 113.572 160.395 113.436 162.103 112.349C162.627 112.019 162.922 111.639 162.98 111.223C163.082 110.328 163.073 109.424 162.952 108.532C162.936 108.389 162.977 108.246 163.066 108.133C163.155 108.021 163.285 107.948 163.428 107.932C163.57 107.915 163.714 107.956 163.826 108.045C163.939 108.134 164.011 108.265 164.028 108.407C164.16 109.39 164.168 110.386 164.052 111.372C163.949 112.106 163.476 112.754 162.687 113.258C161.426 114.045 159.547 114.401 157.779 114.401Z" fill="#1C2122"/>
<path d="M147.237 109.574C146.178 109.574 144.877 109.302 143.335 108.759C142.413 108.436 141.831 107.964 141.533 107.315C140.985 106.118 141.533 104.511 142.367 102.372C142.422 102.243 142.524 102.14 142.653 102.085C142.782 102.031 142.927 102.029 143.058 102.08C143.188 102.13 143.294 102.23 143.352 102.358C143.41 102.485 143.416 102.63 143.369 102.762C142.655 104.593 142.14 106.057 142.512 106.868C142.619 107.103 142.859 107.451 143.693 107.745C145.804 108.49 148.481 109.058 149.255 107.548C149.287 107.484 149.331 107.427 149.384 107.38C149.438 107.334 149.501 107.298 149.568 107.276C149.636 107.253 149.707 107.245 149.779 107.25C149.85 107.255 149.919 107.275 149.982 107.307C150.046 107.34 150.102 107.385 150.148 107.439C150.194 107.494 150.229 107.557 150.25 107.625C150.272 107.693 150.279 107.764 150.273 107.835C150.266 107.906 150.246 107.975 150.212 108.038C149.688 109.061 148.691 109.574 147.237 109.574Z" fill="#1C2122"/>
<path d="M156.355 81.2258C156.233 81.226 156.114 81.1846 156.019 81.1085C155.924 81.0324 155.857 80.9261 155.83 80.8071C155.803 80.688 155.817 80.5633 155.871 80.4535C155.924 80.3437 156.013 80.2553 156.123 80.2028C160.059 78.3241 161.324 76.4609 161.211 75.4409C161.141 74.8172 160.57 74.596 160.237 74.5192C158.65 74.1567 155.957 75.3334 153.796 78.7773C153.72 78.8981 153.599 78.9838 153.46 79.0156C153.321 79.0475 153.176 79.0228 153.055 78.947C152.934 78.8712 152.848 78.7506 152.816 78.6116C152.785 78.4726 152.809 78.3266 152.885 78.2059C155.343 74.2965 158.466 73.0123 160.476 73.4716C161.504 73.7067 162.177 74.3933 162.28 75.3149C162.486 77.1813 160.358 79.3702 156.587 81.169C156.515 81.2056 156.436 81.225 156.355 81.2258Z" fill="#1C2122"/>
<path d="M137.139 94.4483C136.941 94.4438 136.747 94.3907 136.575 94.2938C136.403 94.1968 136.257 94.0589 136.151 93.8923C135.59 93.1058 135.513 91.5513 135.988 90.6296C136.277 90.0705 136.742 89.7617 137.298 89.7617C138.036 89.7617 138.547 90.5067 138.635 91.7064C138.722 92.9061 138.343 94.2855 137.308 94.436C137.252 94.4438 137.195 94.4479 137.139 94.4483ZM137.28 90.837C137.211 90.837 137.077 90.8631 136.943 91.1227C136.622 91.7464 136.722 92.8416 137.026 93.2732C137.056 93.3147 137.111 93.3838 137.154 93.3777C137.241 93.3654 137.417 93.1626 137.513 92.6742C137.684 91.8232 137.464 90.9706 137.292 90.837H137.28Z" fill="#1C2122"/>
<path d="M141.326 94.6931C141.039 94.6877 140.759 94.6102 140.511 94.468C140.262 94.3257 140.053 94.1231 139.903 93.879C139.24 92.9112 139.16 91.3137 139.724 90.2415C139.89 89.8942 140.151 89.6012 140.478 89.397C140.804 89.1927 141.182 89.0855 141.567 89.0879C142.549 89.0879 143.257 90.0695 143.349 91.5272C143.432 92.9312 142.888 94.5149 141.524 94.6777C141.458 94.6864 141.392 94.6916 141.326 94.6931ZM141.57 90.1678C141.38 90.165 141.194 90.2185 141.035 90.3216C140.875 90.4246 140.75 90.5726 140.675 90.7469C140.3 91.4596 140.354 92.6409 140.788 93.2753C141.049 93.6547 141.315 93.624 141.403 93.6132C142.017 93.541 142.335 92.538 142.281 91.5948C142.234 90.7945 141.922 90.1678 141.572 90.1678H141.57Z" fill="#1C2122"/>
<path d="M173.836 72.1436C173.767 72.1436 173.699 72.1354 173.633 72.119C170.936 71.46 166.787 71.162 164.558 71.0023C163.648 70.9362 163.238 70.9055 163.066 70.8717C162.413 70.738 161.991 69.8164 161.991 69.0376C161.991 68.2588 162.355 67.7289 162.994 67.5798C165.478 67.0007 171.83 67.8871 173.846 68.4139C175.008 68.7212 175.272 69.9055 175.025 70.8809C174.823 71.6551 174.353 72.1436 173.836 72.1436ZM163.324 69.8241C163.507 69.8487 164.057 69.8886 164.635 69.9301C166.868 70.0837 171 70.3909 173.787 71.0499C173.99 70.736 174.071 70.358 174.012 69.9884C173.945 69.5952 173.727 69.4954 173.568 69.4539C171.684 68.9593 165.519 68.0944 163.234 68.6275C163.183 68.6382 163.114 68.6551 163.08 68.8302C163.031 69.1806 163.119 69.5362 163.324 69.8241Z" fill="#1C2122"/>
<path d="M105.452 52.811C108.472 52.811 110.921 50.3627 110.921 47.3425C110.921 44.3223 108.472 41.874 105.452 41.874C102.432 41.874 99.9837 44.3223 99.9837 47.3425C99.9837 50.3627 102.432 52.811 105.452 52.811Z" fill="#CEFD1E"/>
<path d="M106.244 50.737C106.125 50.7626 106.038 50.74 105.942 50.6779L103.055 48.8144C102.911 48.7212 102.837 48.5714 102.882 48.396C102.888 48.2292 103.029 48.1159 103.188 48.0819L104.375 47.8262C104.692 47.758 104.983 47.5711 105.129 47.291C105.324 47.042 105.375 46.6998 105.307 46.3832C105.239 46.0665 105.052 45.7754 104.772 45.6287C104.523 45.4338 104.18 45.3832 103.864 45.4514L102.676 45.707C102.439 45.7582 102.246 45.6339 102.195 45.3964C102.144 45.159 102.268 44.9665 102.506 44.9154L106.86 43.978C107.097 43.9269 107.29 44.0512 107.341 44.2886C107.392 44.5261 107.268 44.7185 107.03 44.7697L105.447 45.1105C105.761 45.4156 106.005 45.7773 106.098 46.2127C106.209 46.7273 106.122 47.2844 105.803 47.7259C105.532 48.1984 105.06 48.507 104.545 48.6178L104.308 48.669L106.376 50.0045C106.569 50.1287 106.62 50.3662 106.496 50.5586C106.434 50.6548 106.363 50.7115 106.244 50.737Z" fill="#1C2122"/>
<path d="M107.371 46.352L103.017 47.2894C102.78 47.3405 102.587 47.2163 102.536 46.9788C102.485 46.7413 102.609 46.5489 102.847 46.4978L107.2 45.5604C107.438 45.5093 107.63 45.6335 107.682 45.871C107.733 46.1085 107.608 46.3009 107.371 46.352Z" fill="#1C2122"/>
<path d="M176.995 40.0445C176.919 40.0609 176.863 40.0465 176.801 40.0067L174.953 38.8136C174.861 38.7539 174.814 38.658 174.842 38.5457C174.846 38.4389 174.936 38.3664 175.038 38.3446L175.798 38.1809C176.001 38.1373 176.187 38.0176 176.281 37.8383C176.406 37.6788 176.438 37.4597 176.395 37.257C176.351 37.0543 176.231 36.8679 176.052 36.7739C175.893 36.6492 175.673 36.6168 175.471 36.6604L174.71 36.8241C174.558 36.8568 174.435 36.7773 174.403 36.6253C174.37 36.4732 174.449 36.35 174.601 36.3173L177.389 35.7172C177.541 35.6844 177.664 35.764 177.697 35.916C177.73 36.068 177.65 36.1912 177.498 36.224L176.484 36.4422C176.686 36.6375 176.841 36.8691 176.901 37.1479C176.972 37.4773 176.917 37.834 176.712 38.1167C176.539 38.4192 176.237 38.6168 175.907 38.6877L175.755 38.7205L177.079 39.5755C177.203 39.6551 177.235 39.8071 177.156 39.9303C177.116 39.9919 177.071 40.0281 176.995 40.0445Z" fill="#1C2122"/>
<path d="M177.716 37.2369L174.929 37.837C174.777 37.8698 174.653 37.7902 174.621 37.6382C174.588 37.4861 174.667 37.3629 174.82 37.3302L177.607 36.7301C177.759 36.6973 177.882 36.7769 177.915 36.9289C177.948 37.081 177.868 37.2042 177.716 37.2369Z" fill="#1C2122"/>
<path d="M220.67 50.2503C220.561 50.2174 220.499 50.159 220.448 50.0642L218.918 47.2181C218.841 47.0758 218.848 46.919 218.965 46.7951C219.046 46.6602 219.213 46.6311 219.359 46.6749L220.453 47.004C220.745 47.0917 221.07 47.07 221.318 46.906C221.591 46.7895 221.789 46.5307 221.876 46.2389C221.964 45.9472 221.942 45.6226 221.778 45.3744C221.662 45.1008 221.403 44.9037 221.111 44.8159L220.017 44.4869C219.798 44.4211 219.696 44.2314 219.762 44.0126C219.828 43.7938 220.018 43.6918 220.237 43.7576L224.248 44.9639C224.467 45.0297 224.569 45.2195 224.503 45.4383C224.437 45.6571 224.247 45.7591 224.029 45.6933L222.57 45.2546C222.69 45.6486 222.726 46.0571 222.606 46.4583C222.463 46.9323 222.138 47.3516 221.675 47.5701C221.237 47.8361 220.708 47.8759 220.234 47.7333L220.015 47.6675L221.112 49.7072C221.214 49.8969 221.148 50.1157 220.958 50.2177C220.863 50.2687 220.779 50.2832 220.67 50.2503Z" fill="#00D37F"/>
<path d="M223.59 47.1518L219.579 45.9455C219.36 45.8797 219.258 45.6899 219.324 45.4711C219.389 45.2523 219.579 45.1503 219.798 45.2161L223.809 46.4225C224.028 46.4883 224.13 46.678 224.064 46.8968C223.999 47.1156 223.809 47.2176 223.59 47.1518Z" fill="#00D37F"/>
<path d="M105.452 53.0425C104.325 53.0428 103.223 52.7088 102.285 52.0829C101.348 51.457 100.617 50.5672 100.185 49.526C99.7531 48.4847 99.6397 47.3388 99.8589 46.2331C100.078 45.1274 100.62 44.1116 101.417 43.3139C102.213 42.5163 103.229 41.9728 104.334 41.752C105.439 41.5312 106.586 41.6432 107.627 42.0736C108.669 42.5041 109.56 43.2338 110.187 44.1704C110.814 45.1071 111.15 46.2086 111.151 47.3359C111.15 48.8479 110.55 50.298 109.482 51.3679C108.413 52.4378 106.964 53.04 105.452 53.0425ZM105.452 42.104C104.416 42.1037 103.402 42.4107 102.54 42.9864C101.679 43.562 101.007 44.3803 100.61 45.3378C100.213 46.2952 100.109 47.3489 100.311 48.3654C100.514 49.3819 101.013 50.3157 101.746 51.0485C102.478 51.7814 103.412 52.2804 104.429 52.4826C105.445 52.6847 106.499 52.5808 107.456 52.184C108.414 51.7873 109.232 51.1155 109.808 50.2536C110.383 49.3917 110.69 48.3785 110.69 47.342C110.688 45.9533 110.136 44.6219 109.154 43.64C108.172 42.658 106.841 42.1056 105.452 42.104Z" fill="#CEFD1E"/>
<path d="M111.905 108.788C111.803 108.788 111.702 108.759 111.616 108.703C111.529 108.648 111.461 108.569 111.418 108.476C111.375 108.382 111.359 108.279 111.373 108.177C111.387 108.075 111.43 107.98 111.497 107.902C118.142 100.106 124.372 85.2583 125.913 78.0464C127.536 70.4504 128.175 68.369 129.712 65.7054C130.857 63.7085 134.294 56.8391 130.377 52.0342C126.569 47.3691 122.77 44.1695 120.215 43.4736C118.776 43.0819 114.427 44.8069 111.593 49.366C109.85 52.1709 109.927 53.1709 110.271 53.8345C110.626 54.5227 112.205 54.7715 113.01 54.5626C113.078 54.545 113.149 54.541 113.219 54.5508C113.289 54.5607 113.356 54.5842 113.417 54.6201C113.478 54.656 113.531 54.7035 113.574 54.7599C113.616 54.8163 113.647 54.8806 113.665 54.949C113.682 55.0173 113.686 55.0885 113.677 55.1585C113.667 55.2284 113.643 55.2957 113.607 55.3565C113.571 55.4174 113.524 55.4706 113.467 55.513C113.411 55.5555 113.347 55.5865 113.278 55.6041C112.263 55.8668 110.005 55.6609 109.315 54.3276C108.638 53.0189 109.02 51.469 110.681 48.7977C113.612 44.0819 118.454 41.8853 120.498 42.4367C123.263 43.1879 127.265 46.5227 131.209 51.3537C132.837 53.3507 133.513 55.8437 133.217 58.7669C132.91 61.7715 131.649 64.4858 130.642 66.2338C129.177 68.7822 128.558 70.8052 126.965 78.263C126.128 82.1831 124.106 87.8051 121.556 93.3028C118.638 99.59 115.36 105.019 112.314 108.591C112.264 108.652 112.202 108.701 112.131 108.735C112.061 108.769 111.984 108.787 111.905 108.788Z" fill="#1C2122"/>
</svg>
