<svg width="114" height="111" viewBox="0 0 114 111" fill="none" xmlns="http://www.w3.org/2000/svg">
<path d="M0.742218 109.985C1.50703 111.4 18.5051 101.611 22.0424 98.7808C22.0424 98.7808 35.2546 102.662 48.83 104.555C51.1245 104.88 53.4381 105.129 55.6943 105.301C60.5317 105.683 65.1397 105.664 68.8873 104.957C72.8644 104.211 76.3443 103.274 79.3845 102.012C88.199 98.341 93.3423 91.9357 96.6119 79.6412C96.6884 79.3544 96.7649 79.0676 96.8414 78.7617C97.7018 75.3774 98.5622 72.0504 99.3462 68.6852C102.501 54.8994 104.031 40.5018 96.3825 19.9282C92.4055 9.23991 71.7936 4.76574 53.7057 1.80208C35.6178 -1.16158 28.2182 -1.48663 17.2814 8.81927C6.3445 19.1252 5.71352 22.3374 4.39421 37.3852C3.24699 50.4061 3.57204 68.3028 4.68102 77.2703C4.8531 78.6661 5.04431 79.8516 5.25463 80.7693C6.80338 87.5189 10.2068 88.0351 10.073 88.7426C9.93915 89.45 -0.0417175 108.57 0.742218 109.985Z" fill="#00D37F"/>
<path d="M67.5306 68.8959C62.1386 77.0221 56.7658 94.8423 55.6759 104.422V105.301C60.5134 105.684 65.1214 105.664 68.869 104.957C72.8461 104.211 76.326 103.274 79.3661 102.012C79.3088 100.464 79.1367 95.6263 79.194 95.0335C79.2514 94.3261 80.5516 93.1597 81.7562 92.4331C82.9608 91.7257 82.9416 84.6129 81.7562 84.1349C81.7562 84.1349 82.6357 82.7965 83.6109 82.7391C84.586 82.7009 89.3279 82.1081 93.0563 79.5269C94.0888 79.7754 95.2934 79.8328 96.5936 79.6416C96.7466 79.6225 96.8995 79.5842 97.0525 79.5651C102.77 78.4753 102.1 74.5556 98.6969 73.6187C101.813 72.4714 101.546 69.9475 99.3278 68.6856C99.1175 68.5709 98.9072 68.4753 98.6777 68.3797L98.9072 67.959L96.3259 56.2573C93.4196 54.7468 92.9225 53.4466 84.7007 55.5499C77.4158 57.4237 70.9149 66.4485 69.5382 68.4753C69.1367 67.6722 68.5822 67.3281 67.5306 68.8959Z" fill="#FFFEF2"/>
<path d="M0.742764 109.986C1.50758 111.401 18.5056 101.611 22.0429 98.7811C22.0429 98.7811 35.2551 102.663 48.8306 104.555L48.735 103.944C47.1289 96.2572 40.7809 83.2171 40.7809 83.2171C40.7809 83.2171 43.343 78.5326 43.343 74.632C43.343 72.7965 42.9989 71.9743 41.7943 71.4771C42.387 66.9074 44.7962 58.3032 44.7962 58.3032C45.2551 57.7487 45.3889 57.156 45.3889 57.156C45.3889 57.156 47.0524 59.7181 49.4233 59.0106C51.7369 58.3223 51.1059 55.7793 51.0868 55.6646C51.1442 55.7219 52.3296 56.7927 53.343 56.047C54.2225 55.416 53.668 52.7009 52.0046 50.9609C58.8114 50.6168 59.5954 50.3109 59.4615 49.2592C59.3086 48.0929 52.6547 34.3453 47.6834 28.1503C47.6834 28.1503 47.6834 28.1503 47.6642 28.1312C47.6451 28.1121 47.6451 28.0929 47.6069 28.0738C47.5495 28.0165 47.4922 27.9209 47.3774 27.8061C47.3392 27.7488 47.301 27.7105 47.2436 27.6532C47.2245 27.6149 47.1862 27.5958 47.148 27.5576C45.5801 25.7029 40.6662 20.2727 36.8421 19.9859C28.8115 19.4123 22.9989 27.2708 21.3737 29.7564C21.3737 29.7564 17.1672 23.7717 13.6299 27.3472C9.49991 31.5155 18.0467 37.634 18.0467 37.634C18.0467 37.634 15.9244 45.569 11.89 56.6971C11.3928 58.0929 10.8766 59.5078 10.3986 60.8653C7.74083 68.3032 5.44638 75.0144 4.68156 77.3089C4.85365 78.7047 5.04485 79.8901 5.25517 80.8079C6.80393 87.5574 10.2074 88.0737 10.0735 88.7811C9.93969 89.4503 -0.041172 108.571 0.742764 109.986Z" fill="#FFFEF2"/>
<path d="M44.6618 39.7949C45.1016 39.7184 45.3884 39.2977 45.3119 38.8771L44.9486 36.8695C44.8721 36.4297 44.4515 36.1429 44.0308 36.2194C43.5911 36.2958 43.3042 36.7165 43.3807 37.1371L43.744 39.1448C43.8205 39.5654 44.222 39.8714 44.6618 39.7949Z" fill="#1C2122"/>
<path d="M38.1227 40.081C38.5625 40.0045 38.8493 39.5839 38.7728 39.1632L38.4095 37.1556C38.333 36.7158 37.9124 36.429 37.4918 36.5055C37.052 36.582 36.7652 37.0026 36.8417 37.4233L37.205 39.4309C37.2814 39.8516 37.683 40.1575 38.1227 40.081Z" fill="#1C2122"/>
<path d="M43.8029 51.9939H43.822C56.7857 51.4585 58.9654 51.3247 59.8067 50.3304C60.1891 49.8716 60.1317 49.3362 60.0935 49.1641C59.9214 47.711 50.6098 28.4185 45.4664 25.015C45.1604 24.8047 44.7398 24.9003 44.5486 25.2062C44.3383 25.5122 44.4339 25.9328 44.7398 26.124C49.3287 29.145 58.5256 47.883 58.7933 49.3362C58.8124 49.4509 58.7933 49.47 58.7933 49.4891C58.3344 50.0436 53.1719 50.2731 43.7838 50.6555C43.4205 50.6746 43.1337 50.9805 43.1337 51.3438C43.1528 51.7071 43.4396 51.9939 43.8029 51.9939Z" fill="#1C2122"/>
<path d="M47.6641 28.131C45.3887 31.0947 40.7807 31.2285 36.4595 27.8825C32.1383 24.5364 30.7616 35.0717 26.0962 33.523C21.4309 31.9742 20.9146 30.4446 20.9146 30.4446C20.9146 30.4446 27.32 19.2592 36.8419 19.9475C41.4499 20.2917 47.6641 28.131 47.6641 28.131Z" fill="#1C2122"/>
<path d="M27.0149 34.364C29.0991 34.364 30.5713 32.3373 31.7759 30.6738C32.7128 29.3927 33.6688 28.0543 34.644 27.9205C35.0646 27.8631 35.5235 28.0161 36.0589 28.4367C38.6019 30.4061 41.3743 31.3239 43.8791 30.9988C45.6573 30.7694 47.1487 29.9281 48.2003 28.5514C48.3916 28.3029 48.3916 27.9778 48.2003 27.7293C47.9327 27.4042 41.7568 19.6413 36.9002 19.2972C27.0532 18.5897 20.6096 29.6604 20.3419 30.1384C20.2463 30.3105 20.2272 30.5017 20.2846 30.6929C20.3802 30.9988 21.145 32.6049 25.8868 34.1728C26.2883 34.2875 26.6516 34.364 27.0149 34.364ZM34.8161 26.5629C34.7013 26.5629 34.5675 26.5629 34.4528 26.582C32.9231 26.7924 31.8333 28.2837 30.7052 29.8707C29.1182 32.0505 27.971 33.4463 26.3075 32.8918C23.2291 31.8593 22.0819 30.8841 21.6994 30.4443C22.8658 28.6088 28.7358 20.0428 36.7855 20.6165C40.4566 20.8841 45.4279 26.5055 46.7854 28.1117C45.9824 28.953 44.9307 29.4883 43.6879 29.6413C41.5464 29.909 39.1373 29.1059 36.8619 27.3468C36.1927 26.8306 35.4853 26.5629 34.8161 26.5629Z" fill="#1C2122"/>
<path d="M19.193 34.1342C19.2695 34.1342 19.346 34.115 19.4225 34.0959C19.7666 33.9621 19.9387 33.5797 19.824 33.2355C18.9253 30.769 16.6309 29.0864 16.5353 29.0099C16.2293 28.7996 15.8087 28.8569 15.5984 29.1629C15.3881 29.4688 15.4454 29.8894 15.7513 30.0998C15.7704 30.1189 17.8163 31.6294 18.5812 33.6944C18.6768 33.9812 18.9253 34.1342 19.193 34.1342Z" fill="#1C2122"/>
<path d="M51.0292 50.1765C53.4001 51.7062 54.337 55.3008 53.3045 56.0465C52.272 56.7922 51.0483 55.645 51.0483 55.645C51.0483 55.645 51.7558 58.2836 49.3848 58.991C47.0139 59.6985 45.3504 57.1364 45.3504 57.1364C45.3504 57.1364 44.6812 59.8706 41.7176 59.1249C39.5378 58.5704 38.9068 56.2377 38.9068 56.2377C38.9068 56.2377 37.6449 57.8247 35.0828 57.0599C32.5206 56.3142 32.2912 51.2664 38.1612 49.5264C42.903 48.1306 49.4613 49.144 51.0292 50.1765Z" fill="#1C2122"/>
<path d="M42.75 59.9277C43.381 59.9277 43.9546 59.7747 44.4517 59.4688C44.9489 59.1629 45.3122 58.7614 45.5607 58.379C46.3638 59.182 47.7978 60.1763 49.6142 59.6409C51.2204 59.1629 51.7557 57.9392 51.8513 56.8493C52.4441 57.0405 53.1133 57.0405 53.7251 56.5816C54.0502 56.3331 54.4517 55.8359 54.4135 54.7843C54.3752 53.1782 53.3045 50.8264 51.4116 49.6027C49.6525 48.4746 42.9603 47.4038 38.0082 48.8761C34.1076 50.0425 32.7309 52.5281 32.7309 54.4784C32.7309 56.0463 33.5914 57.3082 34.9298 57.6906C36.6889 58.2069 37.9317 57.7671 38.6774 57.3082C39.1171 58.1495 39.9967 59.3541 41.5837 59.7556C41.9852 59.8895 42.3676 59.9277 42.75 59.9277ZM45.3886 56.486C45.3504 56.486 45.3122 56.486 45.2739 56.486C45.0062 56.5243 44.7959 56.7346 44.7385 56.9832C44.7385 56.9832 44.5091 57.8818 43.7443 58.3216C43.2663 58.6084 42.6544 58.6466 41.9087 58.4746C40.1305 58.0157 39.5951 56.0845 39.576 56.0654C39.5187 55.8168 39.3083 55.6447 39.0598 55.5874C38.8112 55.53 38.5626 55.6256 38.4097 55.8168C38.3714 55.8551 37.3581 57.0214 35.2931 56.4287C34.5474 56.2183 34.0694 55.4535 34.0502 54.4975C34.0502 53.0252 35.1783 51.1132 38.3715 50.1763C43.0751 48.7805 49.3657 49.9086 50.6659 50.7499C52.119 51.6868 53.0177 53.5606 53.0559 54.8417C53.075 55.3006 52.9603 55.4918 52.9221 55.5109C52.3676 55.9124 51.5263 55.1667 51.5263 55.1667C51.316 54.9564 50.9718 54.9373 50.7232 55.0902C50.4747 55.2432 50.3408 55.5491 50.4173 55.8359C50.4747 56.0463 50.8953 57.8818 49.2127 58.379C47.3389 58.9334 45.9622 56.8302 45.9431 56.8111C45.8093 56.6008 45.599 56.486 45.3886 56.486Z" fill="#1C2122"/>
<path d="M41.7936 72.1457C42.1187 72.1457 42.4055 71.8971 42.4629 71.5721C43.0365 67.0979 45.4074 58.5893 45.4456 58.4937C45.5412 58.1304 45.3309 57.7672 44.9867 57.6715C44.6235 57.5759 44.2602 57.7863 44.1646 58.1304C44.069 58.4746 41.7363 66.8302 41.1435 71.4C41.1053 71.7633 41.3539 72.1075 41.7172 72.1457C41.7363 72.1266 41.7554 72.1457 41.7936 72.1457Z" fill="#1C2122"/>
<path d="M32.5974 84.0007C33.2666 84.0007 33.9358 83.9816 34.5859 83.9243C34.9492 83.886 35.236 83.561 35.1977 83.1977C35.1595 82.8344 34.8344 82.5476 34.4712 82.5858C28.0085 83.1403 20.15 80.7885 13.9741 76.4673C13.6682 76.257 13.2475 76.3335 13.0372 76.6394C12.8269 76.9453 12.9034 77.366 13.2093 77.5763C19.0219 81.6298 26.2685 84.0007 32.5974 84.0007Z" fill="#1C2122"/>
<path d="M69.6909 68.9147C69.9012 68.9147 70.1115 68.819 70.2454 68.6278C71.9662 66.1613 78.0848 57.9395 84.8534 56.2187C91.7367 54.4596 92.9413 55.148 94.949 56.2761C95.274 56.4673 95.6182 56.6585 96.0006 56.8688C96.3256 57.0409 96.7271 56.907 96.8992 56.582C97.0713 56.2569 96.9375 55.8554 96.6124 55.6833C96.2491 55.4921 95.9241 55.3009 95.599 55.1288C93.1899 53.7522 91.5838 53.1212 84.5092 54.9376C77.3008 56.7923 70.9146 65.32 69.1173 67.8821C68.9069 68.1881 68.9834 68.6087 69.2894 68.819C69.4232 68.8764 69.557 68.9147 69.6909 68.9147Z" fill="#1C2122"/>
<path d="M81.7566 84.8043C81.9669 84.8043 82.1964 84.6896 82.3111 84.4984C82.5979 84.0777 83.2097 83.4276 83.6495 83.4085C83.7069 83.4085 89.1944 83.0644 93.573 79.986C93.8789 79.7756 93.9554 79.355 93.726 79.0491C93.5156 78.7431 93.095 78.6667 92.7891 78.8961C89.3856 81.2862 84.8732 82.0127 83.573 82.0701C82.292 82.1274 81.2977 83.5997 81.183 83.7718C80.9727 84.0777 81.0683 84.4984 81.3742 84.6896C81.508 84.7661 81.6419 84.8043 81.7566 84.8043Z" fill="#1C2122"/>
<path d="M96.5551 73.4272C85.0255 74.3641 89.9204 80.9224 97.0714 79.5649C103.84 78.2647 101.66 73.0066 96.5551 73.4272Z" fill="#FFFEF2"/>
<path d="M95.1217 80.4252C95.7718 80.4252 96.4792 80.3678 97.2058 80.2149C101.049 79.4883 102.196 77.538 101.986 75.9701C101.737 74.1919 99.6341 72.5093 96.5175 72.7579C91.3741 73.1786 89.6915 74.6317 89.1944 75.7981C88.8311 76.6394 88.984 77.538 89.6341 78.322C90.5137 79.4501 92.5022 80.4252 95.1217 80.4252ZM97.1102 74.0772C99.137 74.0772 100.514 75.1097 100.647 76.1613C100.82 77.3851 99.3664 78.4558 96.9573 78.9147C94.0318 79.4692 91.5653 78.6279 90.6666 77.4998C90.3416 77.0982 90.2651 76.6967 90.4181 76.3334C90.5902 75.9128 91.5844 74.517 96.6131 74.1155C96.766 74.0772 96.9381 74.0772 97.1102 74.0772Z" fill="#1C2122"/>
<path d="M96.3245 67.9777C84.2977 67.9395 88.791 74.8993 96.3245 74.1345C103.456 73.4079 101.659 67.9968 96.3245 67.9777Z" fill="#FFFEF2"/>
<path d="M95.159 74.8612C95.5605 74.8612 95.962 74.842 96.4018 74.8038C100.417 74.4023 101.775 72.5667 101.698 70.9797C101.622 69.2015 99.7096 67.3277 96.3444 67.3086C96.3062 67.3086 96.2679 67.3086 96.2297 67.3086C92.0423 67.3086 89.3655 68.1499 88.5242 69.7369C88.1035 70.5208 88.18 71.4004 88.7345 72.2225C89.5949 73.561 91.9467 74.8612 95.159 74.8612ZM96.3253 68.647C98.7345 68.647 100.302 69.8898 100.36 71.0371C100.417 72.2608 98.8109 73.2168 96.2679 73.4654C93.1513 73.7713 90.6274 72.6623 89.8244 71.4769C89.5567 71.0753 89.4993 70.6929 89.6905 70.3679C89.9009 69.9663 91.029 68.647 96.2106 68.647C96.2488 68.647 96.2871 68.647 96.3253 68.647Z" fill="#1C2122"/>
<path d="M95.7872 73.1059C90.8721 70.3207 88.9724 64.3837 91.5442 59.8452C94.116 55.3068 100.185 53.8855 105.1 56.6708C110.016 59.456 111.915 65.393 109.343 69.9314C106.772 74.4699 100.702 75.8911 95.7872 73.1059Z" fill="#CEFD1E"/>
<path d="M102.759 70.8998C102.595 70.9361 102.473 70.9055 102.34 70.8202L98.3278 68.2595C98.1272 68.1314 98.0241 67.9244 98.0852 67.6812C98.0916 67.45 98.2865 67.2921 98.5056 67.2437L100.149 66.8809C100.587 66.7842 100.989 66.5231 101.19 66.134C101.458 65.7876 101.526 65.3132 101.429 64.875C101.332 64.4368 101.071 64.0349 100.682 63.8336C100.336 63.5655 99.8614 63.4979 99.4232 63.5946L97.7801 63.9574C97.4514 64.03 97.184 63.8593 97.1114 63.5306C97.0389 63.202 97.2096 62.9345 97.5382 62.862L103.563 61.5318C103.892 61.4592 104.159 61.6299 104.232 61.9586C104.304 62.2872 104.134 62.5546 103.805 62.6272L101.614 63.1109C102.052 63.5313 102.392 64.0306 102.525 64.6331C102.682 65.3452 102.565 66.1176 102.126 66.7315C101.754 67.3881 101.103 67.8191 100.391 67.9763L100.062 68.0489L102.937 69.8841C103.205 70.0548 103.277 70.3834 103.106 70.6509C103.021 70.7846 102.924 70.8636 102.759 70.8998Z" fill="#1C2122"/>
<path d="M104.287 64.8191L98.2622 66.1493C97.9336 66.2219 97.6661 66.0511 97.5936 65.7225C97.521 65.3939 97.6917 65.1264 98.0204 65.0539L104.045 63.7237C104.374 63.6511 104.641 63.8218 104.714 64.1505C104.786 64.4791 104.616 64.7465 104.287 64.8191Z" fill="#1C2122"/>
<path d="M88.352 58.3018C94.069 61.2272 97.3386 64.0952 96.0384 65.9499C94.5088 68.1296 87.1283 64.8409 87.1283 64.8409C87.1283 64.8409 87.0135 73.2157 80.57 75.1277" fill="#FFFEF2"/>
<path d="M80.5702 75.778C80.6275 75.778 80.704 75.7779 80.7614 75.7588C86.3063 74.1145 87.4918 68.1871 87.7403 65.8162C89.9965 66.734 95.0826 68.474 96.5931 66.3325C96.9755 65.778 97.0902 65.147 96.9181 64.4587C96.3254 62.0495 92.0998 59.4682 88.6581 57.7092C88.3331 57.5371 87.9315 57.6709 87.7595 57.996C87.5874 58.321 87.7212 58.7225 88.0463 58.8946C94.356 62.1069 95.4267 64.0763 95.5988 64.7837C95.6753 65.0896 95.6371 65.3382 95.465 65.5677C94.6428 66.7531 90.1495 65.472 87.377 64.2292C87.1667 64.1336 86.9373 64.1527 86.7461 64.2675C86.5549 64.3822 86.4402 64.5925 86.4402 64.822C86.4402 64.8984 86.2489 72.7187 80.3599 74.4778C79.9966 74.5925 79.8054 74.9558 79.901 75.3191C80.0157 75.5867 80.2834 75.778 80.5702 75.778Z" fill="#1C2122"/>
<path d="M55.6754 105.741C56.0196 105.741 56.3064 105.492 56.3446 105.148C57.4918 95.1864 62.9794 76.9647 68.1037 69.2783C68.4478 68.762 68.6773 68.5708 68.7729 68.5135C68.9641 68.7429 69.2126 69.5268 69.3274 69.9284L69.3656 70.0431C70.6467 74.2113 73.9354 81.6683 81.4688 84.7658C81.6791 85.0144 82.0233 86.3146 81.9851 88.5325C81.9468 90.674 81.5835 91.7256 81.4114 91.8977C80.3789 92.5096 78.639 93.848 78.5434 94.9952C78.486 95.7218 78.7728 100.75 78.8302 101.745C78.8493 102.108 79.1744 102.395 79.5376 102.376C79.9009 102.357 80.1877 102.032 80.1686 101.668C80.0348 99.3929 79.8245 95.6071 79.8627 95.1291C79.9009 94.804 80.7996 93.8098 82.0998 93.0449C83.6485 92.1272 83.2852 86.9455 83.2661 86.8882C83.0749 84.2687 82.4439 83.7333 82.0042 83.5421C74.9487 80.674 71.8512 73.5995 70.6275 69.6607L70.5893 69.546C70.2643 68.4943 69.901 67.328 68.945 67.175C68.0845 67.0412 67.3962 67.9016 66.9755 68.5517C61.2394 77.2132 56.0578 95.9321 55.0062 105.014C54.9679 105.378 55.2356 105.722 55.5989 105.76C55.6371 105.741 55.6563 105.741 55.6754 105.741Z" fill="#1C2122"/>
<path d="M1.04853 110.788C4.2034 110.788 18.8305 102.031 22.1766 99.5262C24.3181 100.138 36.4404 103.522 48.7348 105.224C49.0981 105.281 49.4423 105.014 49.4805 104.65C49.5379 104.287 49.2702 103.943 48.9069 103.905C35.5417 102.05 22.3487 98.1878 22.2148 98.1495C22.0045 98.0922 21.775 98.1304 21.603 98.2643C17.951 101.19 4.12693 108.914 1.37359 109.431C1.81336 107.136 6.57433 97.4421 8.69669 93.14C10.3984 89.6792 10.6661 89.1056 10.7043 88.857C10.8191 88.2643 10.3602 87.901 9.86306 87.5377C8.90704 86.8111 6.93763 85.2815 5.86689 80.6161C5.63744 79.6219 5.42711 78.2643 5.2359 76.5817C5.19766 76.2184 4.85349 75.9507 4.4902 75.989C4.12691 76.0272 3.85923 76.3714 3.89748 76.7347C4.08868 78.4555 4.31812 79.8704 4.56669 80.9221C5.73304 86.0463 7.97013 87.7672 9.04087 88.6085C9.11735 88.6658 9.21296 88.7423 9.28944 88.8188C9.02176 89.4115 8.25694 90.9603 7.473 92.5664C0.551418 106.62 -0.385479 109.392 0.111652 110.31C0.188133 110.444 0.379318 110.693 0.761723 110.769C0.876446 110.769 0.952927 110.788 1.04853 110.788Z" fill="#00D37F"/>
<path d="M4.58687 77.3273C4.85456 77.3273 5.12225 77.1552 5.21786 76.8875C5.2561 76.7919 8.65952 67.5377 12.5218 56.8876C16.518 45.8551 18.6595 37.8437 18.6977 37.7672C18.7742 37.4995 18.6595 37.2127 18.4492 37.0406C18.3918 37.0024 13.4779 33.446 13.1911 30.1764C13.1146 29.2586 13.4205 28.4747 14.1088 27.7672C14.7972 27.0789 15.5237 26.773 16.3459 26.8303C18.6404 27.0215 20.8201 30.0425 20.8392 30.0808C21.0495 30.3867 21.4702 30.4632 21.7761 30.2338C22.082 30.0234 22.1585 29.6028 21.9291 29.2968C21.8335 29.1439 19.3861 25.7213 16.4607 25.4728C15.237 25.3772 14.128 25.8169 13.1719 26.7921C12.1968 27.7863 11.757 28.9527 11.8718 30.2529C12.1586 33.5798 16.04 36.8494 17.3019 37.8054C16.8048 39.6027 14.7398 46.8494 11.2982 56.3713C7.45495 67.0023 4.03239 76.2757 3.99415 76.3713C3.8603 76.7155 4.0515 77.0979 4.39567 77.2317C4.43391 77.3082 4.51039 77.3273 4.58687 77.3273Z" fill="#1C2122"/>
<path d="M49.1536 105.263C49.1918 105.263 49.2492 105.263 49.2874 105.244C49.6507 105.167 49.8801 104.804 49.8037 104.46C48.3123 97.3279 42.557 85.3394 41.5245 83.217C42.0982 82.0889 44.0102 78.0927 44.0102 74.6319C44.0102 70.9226 42.4806 70.6931 37.9682 69.9665C37.0695 69.8327 36.0561 69.6606 34.8706 69.4503C26.4003 67.9207 15.6929 64.5172 10.8363 60.3299C10.5495 60.0813 10.1288 60.1195 9.89939 60.4063C9.65083 60.6932 9.68907 61.1138 9.97588 61.3433C15.3678 65.9895 26.6489 69.3356 34.6603 70.7696C35.8458 70.9799 36.8783 71.152 37.7769 71.2859C42.3467 72.0124 42.6909 72.1272 42.6909 74.6319C42.6909 78.303 40.2244 82.8346 40.2052 82.8919C40.1096 83.0831 40.0905 83.3126 40.1861 83.5038C40.2626 83.6376 46.9356 97.2323 48.5035 104.747C48.5609 105.052 48.8285 105.263 49.1536 105.263Z" fill="#1C2122"/>
</svg>
