<svg width="160" height="142" viewBox="0 0 196 142" fill="none" xmlns="http://www.w3.org/2000/svg">
<g clip-path="url(#clip0_6950_16853)">
<path d="M6.84442 70.5379C8.55037 56.9657 12.8178 43.8263 17.9357 34.4259C30.2498 11.8257 64.5502 -3.29643 90.4264 0.613688C112.473 3.94509 123.066 24.0593 142.944 31.0392C161.231 37.4604 177.692 42.4173 186.317 59.3611C204.535 95.1511 159.888 134.282 121.627 131.228C109.554 130.267 98.765 125.622 86.3703 127.801C61.2288 132.219 52.855 136.98 30.6322 128.128C8.73659 119.407 3.86024 94.3056 6.84442 70.5379Z" fill="#00D37F"/>
<path opacity="0.8" d="M6.84442 70.5379C8.55037 56.9657 12.8178 43.8263 17.9357 34.4259C30.2498 11.8257 64.5502 -3.29643 90.4264 0.613688C112.473 3.94509 123.066 24.0593 142.944 31.0392C161.231 37.4604 177.692 42.4173 186.317 59.3611C204.535 95.1511 159.888 134.282 121.627 131.228C109.554 130.267 98.765 125.622 86.3703 127.801C61.2288 132.219 52.855 136.98 30.6322 128.128C8.73659 119.407 3.86024 94.3056 6.84442 70.5379Z" fill="#0F5C5A"/>
<path d="M94.87 138.938L116.338 90.8789H64.3237L0.191704 133.186" fill="white"/>
<path d="M94.87 138.938L116.338 90.8789H64.3237L0.191701 133.186" stroke="#263238" stroke-width="0.75" stroke-linecap="round" stroke-linejoin="round"/>
<path d="M100.194 137.04L116.338 94.0845V90.8789L93.5062 141.177L100.194 137.04Z" fill="#263238" stroke="#263238" stroke-width="0.75" stroke-linecap="round" stroke-linejoin="round"/>
<path d="M86.6026 92.8613L64.4804 118.798L91.3329 125.053L106.586 96.0669L86.6026 92.8613Z" fill="white" stroke="#263238" stroke-width="0.75" stroke-linecap="round" stroke-linejoin="round"/>
<path d="M91.332 125.053V125.818L64.9375 120.479L64.4795 118.798L91.332 125.053Z" fill="#263238" stroke="#263238" stroke-width="0.75" stroke-linecap="round" stroke-linejoin="round"/>
<path d="M87.4336 102.197L86.3063 103.862L83.4228 103.088L84.6256 101.457L87.4336 102.197Z" fill="#263238"/>
<path d="M76.543 112.417L77.9118 110.561L81.1777 111.446L79.8995 113.338L76.543 112.417Z" fill="#263238"/>
<path d="M89.7891 98.7141L88.9487 99.9571L86.2362 99.2676L87.0867 98.1152L89.7891 98.7141Z" fill="#263238"/>
<path d="M84.5703 106.429L83.0204 108.724L79.8601 107.918L81.566 105.604L84.5703 106.429Z" fill="#263238"/>
<path d="M76.3785 107.506L79.0859 108.195L77.7272 110.037L74.9695 109.292L76.3785 107.506Z" fill="#263238"/>
<path d="M82.748 109.127L81.4497 111.044L78.2039 110.168L79.5676 108.316L82.748 109.127Z" fill="#263238"/>
<path d="M92.8535 99.394L92.0181 100.743L89.4215 100.078L90.2719 98.8203L92.8535 99.394Z" fill="#263238"/>
<path d="M86.0352 104.265L84.8425 106.031L81.8583 105.206L83.1315 103.479L86.0352 104.265Z" fill="#263238"/>
<path d="M88.6758 100.359L87.7045 101.794L84.9166 101.059L85.9432 99.665L88.6758 100.359Z" fill="#263238"/>
<path d="M94.5346 103.595L95.38 102.065L98.4648 102.85L97.5993 104.405L94.5346 103.595Z" fill="#263238"/>
<path d="M98.963 107.285L96.8443 106.711L97.8307 104.939L99.9141 105.493L98.963 107.285Z" fill="#263238"/>
<path d="M93.7695 97.9138L93.1103 98.9807L90.5438 98.412L91.2332 97.3955L93.7695 97.9138Z" fill="#263238"/>
<path d="M95.6071 101.653L96.4274 100.179L99.5625 100.873L98.6919 102.438L95.6071 101.653Z" fill="#263238"/>
<path d="M96.8145 98.5331L96.1904 99.6604L93.5837 99.0817L94.248 98.0098L96.8145 98.5331Z" fill="#263238"/>
<path d="M101.193 103.077L99.1496 102.554L100.025 100.979L102.068 101.426L101.193 103.077Z" fill="#263238"/>
<path d="M100.447 99.2781L99.7931 100.456L96.6579 99.7612L97.2819 98.6289L100.447 99.2781Z" fill="#263238"/>
<path d="M90.5996 103.032L89.5428 104.738L86.775 103.988L87.9023 102.322L90.5996 103.032Z" fill="#263238"/>
<path d="M83.4934 108.844L85.0384 106.56L87.9219 107.355L86.5179 109.614L83.4934 108.844Z" fill="#263238"/>
<path d="M95.959 100.078L95.1488 101.537L92.4867 100.858L93.3271 99.4941L95.959 100.078Z" fill="#263238"/>
<path d="M95.3553 109.403L97.5293 110.002L96.4021 112.131L94.1627 111.557L95.3553 109.403Z" fill="#263238"/>
<path d="M89.291 105.145L88.1738 106.947L85.3104 106.157L86.5031 104.391L89.291 105.145Z" fill="#263238"/>
<path d="M91.3137 102.745L92.2296 101.266L94.9219 101.95L94.0764 103.475L91.3137 102.745Z" fill="#263238"/>
<path d="M86.267 118.526L89.3418 119.306L88.2448 121.289L85.1549 120.524L86.267 118.526Z" fill="#263238"/>
<path d="M91.0266 96.8825L88.3947 96.3441L89.8087 94.4268L92.4004 94.8545L91.0266 96.8825Z" fill="#263238"/>
<path d="M97.5136 98.2111L98.7919 95.9062L102.018 96.4397L100.679 98.8552L97.5136 98.2111Z" fill="#263238"/>
<path d="M93.3321 105.764L94.3033 104.008L97.373 104.818L96.3917 106.589L93.3321 105.764Z" fill="#263238"/>
<path d="M85.497 112.14L86.735 110.143L89.9355 110.953L88.7831 113.031L85.497 112.14Z" fill="#263238"/>
<path d="M86.9851 109.735L88.379 107.48L91.3984 108.311L90.1605 110.54L86.9851 109.735Z" fill="#263238"/>
<path d="M81.9177 111.174L83.2211 109.247L86.2656 110.022L85.0327 112.015L81.9177 111.174Z" fill="#263238"/>
<path d="M90.001 104.863L91.0628 103.152L93.8457 103.887L92.8795 105.638L90.001 104.863Z" fill="#263238"/>
<path d="M91.7656 101.15L90.8497 102.624L88.1725 101.92L89.1438 100.48L91.7656 101.15Z" fill="#263238"/>
<path d="M88.6307 107.073L89.7479 105.271L92.6465 106.051L91.6249 107.898L88.6307 107.073Z" fill="#263238"/>
<path d="M80.3679 113.464L81.6461 111.572L84.7812 112.423L83.5886 114.35L80.3679 113.464Z" fill="#263238"/>
<path d="M82.4374 117.077L83.7962 114.878L87.2383 115.819L86.0356 117.993L82.4374 117.077Z" fill="#263238"/>
<path d="M92.7476 114.103L93.9302 111.975L96.1797 112.543L95.0273 114.722L92.7476 114.103Z" fill="#263238"/>
<path d="M96.6174 107.123L98.7461 107.702L97.7447 109.589L95.5808 108.99L96.6174 107.123Z" fill="#263238"/>
<path d="M86.493 118.109L87.6906 115.945L90.7402 116.781L89.5677 118.894L86.493 118.109Z" fill="#263238"/>
<path d="M92.0789 108.024L93.1055 106.177L96.1602 107.002L95.1285 108.864L92.0789 108.024Z" fill="#263238"/>
<path d="M90.75 97.2954L90.0656 98.3069L87.3834 97.7131L88.0929 96.752L90.75 97.2954Z" fill="#263238"/>
<path d="M102.289 101.009L100.256 100.561L100.916 99.373L102.934 99.7857L102.289 101.009Z" fill="#263238"/>
<path d="M94.0266 97.496L91.5105 96.9827L92.8994 94.9346L95.3652 95.3422L94.0266 97.496Z" fill="#263238"/>
<path d="M97.0463 98.1152L94.505 97.5968L95.8536 95.4229L98.3145 95.8305L97.0463 98.1152Z" fill="#263238"/>
<path d="M98.0578 104.527L98.9234 102.967L100.977 103.49L100.136 105.075L98.0578 104.527Z" fill="#263238"/>
<path d="M87.8968 96.2434L85.6272 95.7804L87.0564 93.9688L89.3008 94.3411L87.8968 96.2434Z" fill="#263238"/>
<path d="M101.147 98.9562L102.495 96.5205L104.488 96.8476L103.16 99.3638L101.147 98.9562Z" fill="#263238"/>
<path d="M89.7985 119.428L92.209 120.042L91.1673 122.014L88.7014 121.405L89.7985 119.428Z" fill="#263238"/>
<path d="M78.32 116.498L81.7168 117.364L80.4788 119.372L76.9612 118.501L78.32 116.498Z" fill="#263238"/>
<path d="M82.1853 117.484L85.8086 118.405L84.6964 120.413L80.9423 119.482L82.1853 117.484Z" fill="#263238"/>
<path d="M74.2898 115.472L77.8477 116.377L76.4889 118.385L72.8153 117.475L74.2898 115.472Z" fill="#263238"/>
<path d="M70.7962 114.581L73.8105 115.351L72.331 117.359L69.211 116.584L70.7962 114.581Z" fill="#263238"/>
<path d="M91.1982 116.906L93.5332 117.545L92.4311 119.624L90.0257 119.01L91.1982 116.906Z" fill="#263238"/>
<path d="M84.0477 114.475L85.2454 112.548L88.5566 113.444L87.4697 115.406L84.0477 114.475Z" fill="#263238"/>
<path d="M78.5924 116.096L80.0971 113.866L83.3379 114.752L81.9741 116.956L78.5924 116.096Z" fill="#263238"/>
<path d="M87.9209 115.532L89.0079 113.564L92.0625 114.39L90.9705 116.367L87.9209 115.532Z" fill="#263238"/>
<path d="M93.7538 117.127L91.4238 116.493L92.5208 114.516L94.8105 115.135L93.7538 117.127Z" fill="#263238"/>
<path d="M90.6198 110.656L91.8528 108.437L94.9023 109.277L93.6996 111.441L90.6198 110.656Z" fill="#263238"/>
<path d="M74.5854 115.074L76.2511 112.814L79.6328 113.74L78.1181 115.975L74.5854 115.074Z" fill="#263238"/>
<path d="M89.2405 113.152L90.3929 111.073L93.4727 111.853L92.2951 113.982L89.2405 113.152Z" fill="#263238"/>
<path d="M81.0977 105.473L79.3816 107.798L76.6843 107.114L78.5362 104.769L81.0977 105.473Z" fill="#263238"/>
<path d="M84.4452 100.934L82.0599 100.305L83.1268 98.9512L85.4668 99.545L84.4452 100.934Z" fill="#263238"/>
<path d="M86.5977 98.0094L85.7573 99.1467L83.4374 98.5579L84.2727 97.4961L86.5977 98.0094Z" fill="#263238"/>
<path d="M71.1043 114.189L72.9109 111.899L75.7793 112.684L74.1035 114.954L71.1043 114.189Z" fill="#263238"/>
<path d="M84.1523 101.331L82.9496 102.957L80.4888 102.293L81.7519 100.697L84.1523 101.331Z" fill="#263238"/>
<path d="M77.4336 110.435L76.0698 112.286L73.2165 111.506L74.6557 109.68L77.4336 110.435Z" fill="#263238"/>
<path d="M86.8951 97.6068L84.5903 97.0935L85.3099 96.1826L87.5996 96.6506L86.8951 97.6068Z" fill="#263238"/>
<path d="M81.385 105.075L78.8437 104.375L80.1823 102.685L82.6582 103.354L81.385 105.075Z" fill="#263238"/>
<path d="M60.9674 95.7598V99.8812C60.9674 99.8812 61.5763 100.49 62.3412 100.948C63.1061 101.406 69.3613 102.473 69.3613 102.473L61.4304 111.169C61.4304 111.169 54.1637 110.379 52.1256 109.795C49.9919 109.186 50.4498 101.406 50.4498 101.406L60.9775 95.7598H60.9674Z" fill="white" stroke="#263238" stroke-width="0.75" stroke-linecap="round" stroke-linejoin="round"/>
<path d="M60.9679 95.7598V99.8812C60.9679 99.8812 61.0786 99.992 61.2598 100.153L51.9852 109.745C50.0024 108.854 50.4403 101.406 50.4403 101.406L60.9679 95.7598Z" fill="#263238" stroke="#263238" stroke-width="0.75" stroke-linecap="round" stroke-linejoin="round"/>
<path d="M75.0078 43.127V86.7623L41.7491 113.001V45.5676L75.0078 43.127Z" fill="white" stroke="#263238" stroke-width="0.75" stroke-linecap="round" stroke-linejoin="round"/>
<path d="M72.7188 45.417V82.1832L44.7994 99.424V47.8577L72.7188 45.417Z" fill="#00D37F" stroke="#263238" stroke-width="0.75" stroke-linecap="round" stroke-linejoin="round"/>
<path d="M38.3934 45.5674H41.75V113.016H38.3934V45.5674Z" fill="#263238" stroke="#263238" stroke-width="0.75" stroke-linecap="round" stroke-linejoin="round"/>
<path d="M70.8867 47.7061L70.7357 80.5068L47.3908 93.777V53.1611L63.4137 50.7355L64.4806 48.4659L70.8867 47.7061Z" fill="white" stroke="#263238" stroke-width="0.75" stroke-linecap="round" stroke-linejoin="round"/>
<path d="M69.3613 51.6719V79.5912L48.764 90.5768V55.3304L69.3613 51.6719Z" fill="#CEFD1E" stroke="#263238" stroke-width="0.75" stroke-linecap="round" stroke-linejoin="round"/>
<path d="M53.9485 73.0994C53.9485 69.0534 56.5452 65.1282 59.7457 64.3331C62.9463 63.538 65.543 66.1699 65.543 70.2109C65.543 74.2518 62.9463 78.1821 59.7457 78.9772C56.5452 79.7723 53.9485 77.1404 53.9485 73.0994Z" fill="#263238"/>
<path d="M59.1373 72.1281L57.1797 69.9592C56.908 69.6572 56.9231 69.0735 57.2149 68.6558C57.5068 68.2381 57.9648 68.1475 58.2365 68.4495L60.1236 70.5379L62.0108 67.5084C62.2825 67.0706 62.7404 66.9347 63.0323 67.2065C63.3242 67.4782 63.3443 68.0519 63.0675 68.4897L61.11 71.6349L63.0675 73.8039C63.3393 74.1058 63.3242 74.6895 63.0323 75.1072C62.8914 75.3035 62.7153 75.4293 62.5391 75.4746C62.3429 75.5249 62.1517 75.4746 62.0108 75.3136L60.1236 73.2251L58.2365 76.2546C58.0956 76.4861 57.8993 76.632 57.7081 76.6773C57.532 76.7226 57.3558 76.6824 57.2149 76.5565C56.9231 76.2848 56.9029 75.7111 57.1797 75.2733L59.1373 72.1281Z" fill="white"/>
<path d="M65.6973 61.1279L54.1632 64.5197" stroke="#263238" stroke-width="0.75" stroke-linecap="round" stroke-linejoin="round"/>
<path d="M66.1562 57.9268L51.2102 62.0986" stroke="#263238" stroke-width="0.75" stroke-linecap="round" stroke-linejoin="round"/>
<path d="M55.8552 129.814C55.8552 129.814 63.1421 130.488 65.8444 132.647C68.5417 134.806 66.5187 135.888 63.9523 136.562C61.3858 137.237 49.912 136.16 48.4275 134.67C46.943 133.185 48.4275 129.542 55.8502 129.809L55.8552 129.814Z" fill="white" stroke="#263238" stroke-width="0.75" stroke-linecap="round" stroke-linejoin="round"/>
<path d="M48.4323 134.676C48.1455 134.389 47.9694 134.016 47.9291 133.609C51.2001 133.448 55.4676 134.394 59.3676 135.622C60.9679 136.125 62.2964 136.452 63.3633 136.673C59.9715 137.101 49.8213 136.064 48.4323 134.676Z" fill="#263238" stroke="#263238" stroke-width="0.75" stroke-linecap="round" stroke-linejoin="round"/>
<path d="M81.7012 49.7285L76.377 52.4963" stroke="#263238" stroke-linecap="round" stroke-linejoin="round"/>
<path d="M84.7656 48.1387L83.1754 48.964" stroke="#263238" stroke-linecap="round" stroke-linejoin="round"/>
<path d="M80.5273 63.6982L78.7258 63.9046" stroke="#263238" stroke-linecap="round" stroke-linejoin="round"/>
<path d="M87.4473 62.8984L82.576 63.4621" stroke="#263238" stroke-linecap="round" stroke-linejoin="round"/>
<path d="M79.3948 76.6523L85.4336 78.3331" stroke="#263238" stroke-linecap="round" stroke-linejoin="round"/>
<path d="M87.1842 2.86328C95.1604 2.86328 101.627 9.32983 101.627 17.3061C101.627 25.2823 95.1604 31.7489 87.1842 31.7489C79.2079 31.7489 72.7414 25.2823 72.7414 17.3061C72.7414 9.32983 79.2079 2.86328 87.1842 2.86328ZM87.1842 28.9106C93.5954 28.9106 98.7887 23.7122 98.7887 17.3061C98.7887 10.8999 93.5903 5.70152 87.1842 5.70152C80.778 5.70152 75.5796 10.8999 75.5796 17.3061C75.5796 23.7122 80.778 28.9106 87.1842 28.9106Z" fill="white"/>
<path d="M86.1516 17.306C86.1516 17.8747 86.6146 18.3377 87.1832 18.3377C87.7519 18.3377 88.2148 17.8747 88.2148 17.306C88.2148 16.7374 87.7519 16.2744 87.1832 16.2744C86.6146 16.2744 86.1516 16.7374 86.1516 17.306Z" fill="white"/>
<path d="M90.6465 22.5443L87.1842 17.3057L81.3467 22.1367" stroke="white" stroke-linecap="round" stroke-linejoin="round"/>
<path d="M163.828 28.3777L165.564 23.6322L164.639 24.6739V23.0535L162.671 26.0628L164.407 15.2986L162.092 21.2016L161.861 15.9931L161.513 17.7292L161.05 11.8213L160.24 20.8543L159.083 17.7292L159.314 21.7803L156.189 12.5208L157.694 24.0951L155.495 22.4747L156.768 24.5581L155.148 23.4007L156.999 28.7249L163.713 28.8406" fill="#00D37F"/>
<path d="M156.401 40.0679H163.642L165.59 27.5273H154.453L156.401 40.0679Z" fill="#263238" stroke="#263238" stroke-linecap="round" stroke-linejoin="round"/>
<path d="M136.593 39.9824H173.123V137.162H136.593V39.9824Z" fill="white" stroke="#263238" stroke-linecap="round" stroke-linejoin="round"/>
<path d="M139.074 43.1729H170.994V66.5782H139.074V43.1729Z" stroke="#263238" stroke-linecap="round" stroke-linejoin="round"/>
<path d="M148.651 52.749H161.418V57.0064H148.651V52.749Z" fill="#263238"/>
<path d="M139.074 70.4834H170.994V93.8888H139.074V70.4834Z" stroke="#263238" stroke-linecap="round" stroke-linejoin="round"/>
<path d="M148.651 80.0547H161.418V84.312H148.651V80.0547Z" fill="#263238"/>
<path d="M139.074 97.7891H170.994V121.194H139.074V97.7891Z" stroke="#263238" stroke-linecap="round" stroke-linejoin="round"/>
<path d="M148.651 107.365H161.418V111.623H148.651V107.365Z" fill="#263238"/>
<mask id="mask0_6950_16853" style="mask-type:luminance" maskUnits="userSpaceOnUse" x="79" y="22" width="117" height="116">
<path d="M79.3951 22.9775H195.139V137.715H79.3951V22.9775Z" fill="white"/>
</mask>
<g mask="url(#mask0_6950_16853)">
<path d="M132.672 131.616C132.672 131.616 114.365 123.529 104.522 122.92L97.3657 138.787H151.584L132.678 131.616H132.672Z" fill="#263238" stroke="#263238" stroke-width="0.75" stroke-linecap="round" stroke-linejoin="round"/>
<path d="M110.39 36.006C110.39 36.006 97.5022 51.3144 94.7898 54.1274C92.0774 56.9405 91.9817 58.9736 92.8523 60.2316C93.7229 61.4897 100.315 63.8147 107.099 68.1777C113.882 72.5357 133.166 83.7779 133.358 84.1654C133.554 84.5529 135.391 70.5982 135.391 70.5982L103.123 57.323L103.219 56.3517L113.686 36.9722L110.39 36.001V36.006Z" fill="white"/>
<mask id="mask1_6950_16853" style="mask-type:luminance" maskUnits="userSpaceOnUse" x="92" y="36" width="44" height="49">
<path d="M110.39 36.006C110.39 36.006 97.5022 51.3144 94.7898 54.1274C92.0774 56.9405 91.9817 58.9736 92.8523 60.2316C93.7229 61.4897 100.315 63.8147 107.099 68.1777C113.882 72.5357 133.166 83.7779 133.358 84.1654C133.554 84.5529 135.391 70.5982 135.391 70.5982L103.123 57.323L103.219 56.3517L113.686 36.9722L110.39 36.001V36.006Z" fill="white"/>
</mask>
<g mask="url(#mask1_6950_16853)">
<path d="M97.9853 58.6009L112.967 36.7656L113.686 36.977L103.219 56.3565L103.123 57.3277L135.391 70.603C135.391 70.603 135.36 70.8446 135.305 71.2572L133.207 76.0832L97.9853 58.6059V58.6009Z" fill="#00D37F"/>
<path opacity="0.5" d="M97.9853 58.6009L112.967 36.7656L113.686 36.977L103.219 56.3565L103.123 57.3277L135.391 70.603C135.391 70.603 135.36 70.8446 135.305 71.2572L133.207 76.0832L97.9853 58.6059V58.6009Z" fill="white"/>
</g>
<path d="M110.39 36.006C110.39 36.006 97.5022 51.3144 94.7898 54.1274C92.0774 56.9405 91.9817 58.9736 92.8523 60.2316C93.7229 61.4897 100.315 63.8147 107.099 68.1777C113.882 72.5357 133.166 83.7779 133.358 84.1654C133.554 84.5529 135.391 70.5982 135.391 70.5982L103.123 57.323L103.219 56.3517L113.686 36.9722L110.39 36.001V36.006Z" stroke="#263238" stroke-width="0.75" stroke-linecap="round" stroke-linejoin="round"/>
<path d="M120.666 29.3236C120.666 29.3236 122.216 27.9649 122.991 29.3236C123.766 30.6823 123.861 32.9066 123.378 33.1029C122.895 33.2991 120.958 33.0073 120.666 32.4235C120.374 31.8398 120.666 29.3236 120.666 29.3236Z" fill="white" stroke="#263238" stroke-width="0.75" stroke-linecap="round" stroke-linejoin="round"/>
<path d="M117.948 28.6437C117.948 28.6437 119.594 26.8975 120.661 27.5769C121.728 28.2562 121.436 31.9349 121.048 32.2267C120.661 32.5186 118.336 31.7436 118.044 31.2555C117.752 30.7724 117.948 28.6387 117.948 28.6387V28.6437Z" fill="white" stroke="#263238" stroke-width="0.75" stroke-linecap="round" stroke-linejoin="round"/>
<path d="M114.269 28.7391C114.269 28.7391 115.724 26.7061 117.077 26.7061C118.431 26.7061 119.402 31.5522 118.919 31.9397C118.436 32.3272 115.235 31.8441 115.044 31.5522C114.848 31.2603 114.269 28.7441 114.269 28.7441V28.7391Z" fill="white" stroke="#263238" stroke-width="0.75" stroke-linecap="round" stroke-linejoin="round"/>
<path d="M111.456 32.0358C111.456 31.452 111.748 26.4147 113.489 26.7065C115.231 26.9984 117.073 31.0645 116.977 31.7439C116.881 32.4233 111.451 32.0358 111.451 32.0358H111.456Z" fill="white" stroke="#263238" stroke-width="0.75" stroke-linecap="round" stroke-linejoin="round"/>
<path d="M103.123 57.3281C103.123 57.3281 98.1813 59.17 96.3395 59.0743L103.123 57.3281Z" fill="white"/>
<path d="M103.123 57.3281C103.123 57.3281 98.1813 59.17 96.3395 59.0743" stroke="#263238" stroke-width="0.75" stroke-linecap="round" stroke-linejoin="round"/>
<path d="M143.759 138.918C138.495 138.027 131.757 134.414 129.749 129.85C131.279 121.954 133.161 110.832 133.161 104.029C133.161 92.5952 130.157 86.1035 131.516 78.3487C132.874 70.5989 135.778 65.5565 138.878 63.5234C138.878 63.5234 143.628 64.7815 148.469 69.3358C153.316 73.89 157.578 81.7405 159.224 89.1984C160.869 96.6613 163.098 119.624 163.098 125.632C163.098 131.641 163.531 139.104 163.531 139.104C157.729 139.104 151.927 139.099 146.124 139.124C145.39 139.124 144.59 139.054 143.754 138.913L143.759 138.918Z" fill="white"/>
<mask id="mask2_6950_16853" style="mask-type:luminance" maskUnits="userSpaceOnUse" x="129" y="63" width="35" height="77">
<path d="M143.759 138.918C138.495 138.027 131.757 134.414 129.749 129.85C131.279 121.954 133.161 110.832 133.161 104.029C133.161 92.5952 130.157 86.1035 131.516 78.3487C132.874 70.5989 135.778 65.5565 138.878 63.5234C138.878 63.5234 143.628 64.7815 148.469 69.3358C153.316 73.89 157.578 81.7405 159.224 89.1984C160.869 96.6613 163.098 119.624 163.098 125.632C163.098 131.641 163.531 139.104 163.531 139.104C157.729 139.104 151.927 139.099 146.124 139.124C145.39 139.124 144.59 139.054 143.754 138.913L143.759 138.918Z" fill="white"/>
</mask>
<g mask="url(#mask2_6950_16853)">
<path d="M129.749 129.849C132.698 132.356 145.973 137.257 147.911 137.685C149.848 138.118 148.771 134.021 145.757 129.93C142.743 125.839 149.421 131.44 150.498 131.867C151.574 132.3 150.065 123.896 150.065 119.805C150.065 115.714 146.185 80.8144 146.185 80.8144L138.863 67.4586L136.357 65.9388C137.162 64.9072 138.012 64.097 138.878 63.5283C138.878 63.5283 143.628 64.7864 148.469 69.3407C153.316 73.8949 157.578 81.7454 159.224 89.2033C160.869 96.6662 163.098 119.629 163.098 125.637C163.098 131.646 163.531 139.109 163.531 139.109C157.729 139.109 151.927 139.104 146.124 139.129C145.39 139.129 144.59 139.059 143.754 138.918C138.49 138.027 131.752 134.414 129.744 129.849H129.749Z" fill="#00D37F"/>
<path opacity="0.5" d="M129.749 129.849C132.698 132.356 145.973 137.257 147.911 137.685C149.848 138.118 148.771 134.021 145.757 129.93C142.743 125.839 149.421 131.44 150.498 131.867C151.574 132.3 150.065 123.896 150.065 119.805C150.065 115.714 146.185 80.8144 146.185 80.8144L138.863 67.4586L136.357 65.9388C137.162 64.9072 138.012 64.097 138.878 63.5283C138.878 63.5283 143.628 64.7864 148.469 69.3407C153.316 73.8949 157.578 81.7454 159.224 89.2033C160.869 96.6662 163.098 119.629 163.098 125.637C163.098 131.646 163.531 139.109 163.531 139.109C157.729 139.109 151.927 139.104 146.124 139.129C145.39 139.129 144.59 139.059 143.754 138.918C138.49 138.027 131.752 134.414 129.744 129.849H129.749Z" fill="white"/>
</g>
<path d="M143.759 138.918C138.495 138.027 131.757 134.414 129.749 129.85C131.279 121.954 133.161 110.832 133.161 104.029C133.161 92.5952 130.157 86.1035 131.516 78.3487C132.874 70.5989 135.778 65.5565 138.878 63.5234C138.878 63.5234 143.628 64.7815 148.469 69.3358C153.316 73.89 157.578 81.7405 159.224 89.1984C160.869 96.6613 163.098 119.624 163.098 125.632C163.098 131.641 163.531 139.104 163.531 139.104C157.729 139.104 151.927 139.099 146.124 139.124C145.39 139.124 144.59 139.054 143.754 138.913L143.759 138.918Z" stroke="#263238" stroke-width="0.75" stroke-linecap="round" stroke-linejoin="round"/>
<path d="M139.164 65.3301L130.836 80.4875L130.393 88.8059C130.393 88.8059 128.073 82.8728 129.104 79.0029C130.136 75.1331 139.164 65.3301 139.164 65.3301Z" fill="#263238" stroke="#263238" stroke-width="0.75" stroke-linecap="round" stroke-linejoin="round"/>
<path d="M130.393 88.8012L132.713 123.882L130.136 131.108L128.33 116.66L129.88 87.7695L130.393 88.8012Z" fill="#263238" stroke="#263238" stroke-width="0.75" stroke-linecap="round" stroke-linejoin="round"/>
<path d="M132.678 51.1237C132.678 51.1237 132.386 54.903 132.094 56.7448C131.802 58.5867 136.357 63.7196 136.357 63.7196L129.769 73.6987L122.306 67.8864C122.306 67.8864 111.743 67.1114 110.777 66.2408C109.806 65.3702 109.806 55.7736 109.806 55.7736L107.285 54.3192C107.285 54.3192 109.61 44.2395 110.193 42.0152L110.777 39.7859C110.777 39.7859 107.385 38.6234 108.16 35.2316C108.935 31.8398 113.877 30.1942 118.819 30.9692C123.761 31.7442 125.019 33.586 125.019 33.586C125.019 33.586 131.994 33.4904 135.969 36.7816C139.94 40.0777 137.519 45.3063 136.261 47.1482C135.003 48.99 132.678 51.1187 132.678 51.1187V51.1237Z" fill="white"/>
<mask id="mask3_6950_16853" style="mask-type:luminance" maskUnits="userSpaceOnUse" x="107" y="30" width="32" height="44">
<path d="M132.678 51.1237C132.678 51.1237 132.386 54.903 132.094 56.7448C131.802 58.5867 136.357 63.7196 136.357 63.7196L129.769 73.6987L122.306 67.8864C122.306 67.8864 111.743 67.1114 110.777 66.2408C109.806 65.3702 109.806 55.7736 109.806 55.7736L107.285 54.3192C107.285 54.3192 109.61 44.2395 110.193 42.0152L110.777 39.7859C110.777 39.7859 107.385 38.6234 108.16 35.2316C108.935 31.8398 113.877 30.1942 118.819 30.9692C123.761 31.7442 125.019 33.586 125.019 33.586C125.019 33.586 131.994 33.4904 135.969 36.7816C139.94 40.0777 137.519 45.3063 136.261 47.1482C135.003 48.99 132.678 51.1187 132.678 51.1187V51.1237Z" fill="white"/>
</mask>
<g mask="url(#mask3_6950_16853)">
<path d="M120.989 64.6607C122.926 62.2905 120.989 53.2424 119.479 48.7183C117.969 44.1942 121.633 42.2568 121.633 42.2568L110.632 40.3596C110.778 39.7909 110.783 39.7859 110.783 39.7859C110.783 39.7859 109.661 39.3984 108.856 38.4222L108.262 34.9247C109.258 31.7442 114.034 30.2144 118.825 30.9642C123.767 31.7392 125.025 33.5811 125.025 33.5811C125.025 33.5811 131.999 33.4854 135.975 36.7766C139.945 40.0728 137.525 45.3013 136.267 47.1432C135.009 48.985 132.684 51.1137 132.684 51.1137C132.684 51.1137 132.392 54.893 132.1 56.7348C131.808 58.5766 136.362 63.7096 136.362 63.7096L129.775 73.6887L122.312 67.8764C122.312 67.8764 114.24 67.2826 111.563 66.5529L110.783 66.2308C110.783 66.2308 119.051 67.0209 120.989 64.6507V64.6607Z" fill="#00D37F"/>
<path opacity="0.5" d="M120.989 64.6607C122.926 62.2905 120.989 53.2424 119.479 48.7183C117.969 44.1942 121.633 42.2568 121.633 42.2568L110.632 40.3596C110.778 39.7909 110.783 39.7859 110.783 39.7859C110.783 39.7859 109.661 39.3984 108.856 38.4222L108.262 34.9247C109.258 31.7442 114.034 30.2144 118.825 30.9642C123.767 31.7392 125.025 33.5811 125.025 33.5811C125.025 33.5811 131.999 33.4854 135.975 36.7766C139.945 40.0728 137.525 45.3013 136.267 47.1432C135.009 48.985 132.684 51.1137 132.684 51.1137C132.684 51.1137 132.392 54.893 132.1 56.7348C131.808 58.5766 136.362 63.7096 136.362 63.7096L129.775 73.6887L122.312 67.8764C122.312 67.8764 114.24 67.2826 111.563 66.5529L110.783 66.2308C110.783 66.2308 119.051 67.0209 120.989 64.6507V64.6607Z" fill="white"/>
<path d="M115.337 46.6656C115.337 46.6656 115.352 46.5147 115.357 46.2781C115.367 45.5283 115.236 43.9079 113.983 43.4651C112.338 42.8813 110.979 44.4363 110.979 44.4363L110.883 45.9863C110.883 45.9863 111.563 45.015 112.916 45.2113C114.27 45.4076 115.337 46.6656 115.337 46.6656Z" fill="#263238"/>
<path d="M112.524 49.7698C112.524 50.5749 112.74 51.2241 113.007 51.2241C113.274 51.2241 113.49 50.5749 113.49 49.7698C113.49 48.9646 113.274 48.3154 113.007 48.3154C112.74 48.3154 112.524 48.9646 112.524 49.7698Z" fill="#263238"/>
<path d="M115.578 59.9153C116.116 60.4739 116.831 60.655 117.178 60.3229C117.526 59.9908 117.37 59.2661 116.831 58.7075C116.293 58.1489 115.578 57.9678 115.231 58.2999C114.884 58.632 115.04 59.3567 115.578 59.9153Z" fill="#263238"/>
</g>
<path d="M132.678 51.1237C132.678 51.1237 132.386 54.903 132.094 56.7448C131.802 58.5867 136.357 63.7196 136.357 63.7196L129.769 73.6987L122.306 67.8864C122.306 67.8864 111.743 67.1114 110.777 66.2408C109.806 65.3702 109.806 55.7736 109.806 55.7736L107.285 54.3192C107.285 54.3192 109.61 44.2395 110.193 42.0152L110.777 39.7859C110.777 39.7859 107.385 38.6234 108.16 35.2316C108.935 31.8398 113.877 30.1942 118.819 30.9692C123.761 31.7442 125.019 33.586 125.019 33.586C125.019 33.586 131.994 33.4904 135.969 36.7816C139.94 40.0777 137.519 45.3063 136.261 47.1482C135.003 48.99 132.678 51.1187 132.678 51.1187V51.1237Z" stroke="#263238" stroke-width="0.75" stroke-linecap="round" stroke-linejoin="round"/>
<path d="M123.379 41.6277C121.633 40.4652 110.783 39.7859 110.783 39.7859C110.783 39.7859 107.391 38.6234 108.166 35.2316C108.941 31.8398 113.883 30.1942 118.825 30.9692C123.767 31.7442 125.025 33.586 125.025 33.586C125.025 33.586 131.999 33.4904 135.975 36.7816C139.945 40.0777 137.525 45.3063 136.267 47.1482C135.009 48.99 132.684 51.1187 132.684 51.1187C132.684 51.1187 132.523 53.192 132.321 55.0137L129.292 55.8642L125.996 54.1179L122.7 53.343C122.7 53.343 125.12 51.5011 123.767 49.7599C122.408 48.0137 119.892 47.435 119.796 46.0763C119.7 44.7176 125.125 42.7801 123.379 41.6176V41.6277Z" fill="#263238" stroke="#263238" stroke-width="0.75" stroke-linecap="round" stroke-linejoin="round"/>
<path d="M112.801 35.9968C112.801 35.9968 113.939 33.9134 111.855 34.2908C109.772 34.6683 109.772 38.2664 111.478 39.0263C113.184 39.7861 122.463 38.0802 127.576 39.5949C132.689 41.1096 136.287 45.2764 136.287 45.2764" stroke="white" stroke-miterlimit="10" stroke-linecap="round"/>
<path d="M133.443 48.4971C133.443 48.4971 129.468 45.0902 126.247 44.5216C123.026 43.9529 121.32 43.9529 124.924 46.0363C128.522 48.1197 126.061 47.7422 123.786 46.9824" stroke="white" stroke-miterlimit="10" stroke-linecap="round"/>
<path d="M125.121 55.97C125.121 55.97 125.705 49.8657 128.704 49.6695C131.708 49.4732 131.613 53.8363 130.737 56.8406C129.862 59.8449 127.733 60.8111 125.987 59.2611" fill="#00D37F"/>
<mask id="mask4_6950_16853" style="mask-type:luminance" maskUnits="userSpaceOnUse" x="125" y="49" width="7" height="11">
<path d="M125.121 55.97C125.121 55.97 125.705 49.8657 128.704 49.6695C131.708 49.4732 131.613 53.8363 130.737 56.8406C129.862 59.8449 127.733 60.8111 125.987 59.2611" fill="white"/>
</mask>
<g mask="url(#mask4_6950_16853)">
<g opacity="0.5">
<path d="M125.121 55.97C125.121 55.97 125.705 49.8657 128.704 49.6695C131.708 49.4732 131.613 53.8363 130.737 56.8406C129.862 59.8449 127.733 60.8111 125.987 59.2611" fill="white"/>
<path d="M125.121 55.97C125.121 55.97 125.705 49.8657 128.704 49.6695C131.708 49.4732 131.613 53.8363 130.737 56.8406C129.862 59.8449 127.733 60.8111 125.987 59.2611" stroke="#263238" stroke-width="0.75" stroke-linecap="round" stroke-linejoin="round"/>
</g>
</g>
<path d="M125.121 55.97C125.121 55.97 125.705 49.8657 128.704 49.6695C131.708 49.4732 131.613 53.8363 130.737 56.8406C129.862 59.8449 127.733 60.8111 125.987 59.2611" stroke="#263238" stroke-width="0.75" stroke-linecap="round" stroke-linejoin="round"/>
<path d="M136.069 60.041L126.377 74.7706L130.835 80.4874C130.835 80.4874 134.227 73.9001 137.523 69.2452C140.82 64.5953 141.207 63.8203 141.207 63.8203L136.069 60.041Z" fill="white"/>
<mask id="mask5_6950_16853" style="mask-type:luminance" maskUnits="userSpaceOnUse" x="126" y="60" width="16" height="21">
<path d="M136.069 60.041L126.377 74.7706L130.835 80.4874C130.835 80.4874 134.227 73.9001 137.523 69.2452C140.82 64.5953 141.207 63.8203 141.207 63.8203L136.069 60.041Z" fill="white"/>
</mask>
<g mask="url(#mask5_6950_16853)">
<path d="M136.069 60.041L141.207 63.8203C141.207 63.8203 140.92 64.3889 138.807 67.4234L133.382 64.1323L136.074 60.041H136.069Z" fill="#00D37F"/>
<path opacity="0.5" d="M136.069 60.041L141.207 63.8203C141.207 63.8203 140.92 64.3889 138.807 67.4234L133.382 64.1323L136.074 60.041H136.069Z" fill="white"/>
</g>
<path d="M136.069 60.041L126.377 74.7706L130.835 80.4874C130.835 80.4874 134.227 73.9001 137.523 69.2452C140.82 64.5953 141.207 63.8203 141.207 63.8203L136.069 60.041Z" stroke="#263238" stroke-width="0.75" stroke-linecap="round" stroke-linejoin="round"/>
<path d="M111.17 96.666C111.17 96.666 109.62 93.4705 109.328 91.4324C109.036 89.3994 108.941 88.2369 107.778 87.2656C106.616 86.2944 102.836 82.4195 102.253 80.9652C101.669 79.5108 101.281 80.8696 100.995 82.032C100.703 83.1945 100.798 84.2613 101.77 84.9407C102.741 85.6201 103.611 86.6869 103.611 86.6869L102.741 87.3663C102.741 87.3663 90.628 82.812 89.3699 82.3289C88.1118 81.8458 86.9493 82.2333 86.8487 83.1995C86.7531 84.1708 87.1405 84.2664 87.7193 84.5583C88.303 84.8501 94.6941 87.0794 95.5697 87.4669L96.4403 87.8544L95.7609 88.5338C95.7609 88.5338 92.2735 88.4382 90.5273 88.3375C88.7811 88.2419 86.1693 87.95 85.7768 88.5338C85.3893 89.1175 85.5805 89.7919 86.0687 90.1794C86.5568 90.5669 86.748 90.6625 87.6186 90.6625C88.4892 90.6625 95.9522 91.2462 95.9522 91.2462L95.7559 92.3131C95.7559 92.3131 87.8098 93.5712 87.518 93.9586C87.2261 94.3461 87.2261 94.5424 87.518 95.1211C87.8098 95.7049 88.0011 95.7049 88.7761 95.7049C89.551 95.7049 95.8515 94.7336 95.8515 94.7336C95.8515 94.7336 92.7516 96.4798 92.3641 96.7667C91.9766 97.0586 90.6179 97.2498 91.0054 97.9292C91.3929 98.6085 91.5891 98.7997 92.1678 98.7041C92.7516 98.6085 96.9184 96.7667 96.9184 96.7667C96.9184 96.7667 101.085 97.3504 102.444 97.446C103.803 97.5417 105.448 97.3504 105.448 97.3504L109.323 99.8716L111.165 96.6761L111.17 96.666Z" fill="white" stroke="#263238" stroke-width="0.75" stroke-linecap="round" stroke-linejoin="round"/>
<path d="M138.687 92.308C138.687 92.308 141.495 80.5827 142.657 77.9659C143.82 75.3491 150.407 72.9285 153.608 78.6453C156.803 84.362 153.9 90.8537 152.737 95.5036C151.575 100.153 144.212 121.184 143.145 123.8C142.079 126.417 140.141 125.833 139.074 125.547C138.007 125.255 108.553 101.517 108.553 101.517L110.878 96.2836L133.745 108.009L138.687 92.3131V92.308Z" fill="white"/>
<mask id="mask6_6950_16853" style="mask-type:luminance" maskUnits="userSpaceOnUse" x="108" y="75" width="48" height="51">
<path d="M138.687 92.308C138.687 92.308 141.495 80.5827 142.657 77.9659C143.82 75.3491 150.407 72.9285 153.608 78.6453C156.803 84.362 153.9 90.8537 152.737 95.5036C151.575 100.153 144.212 121.184 143.145 123.8C142.079 126.417 140.141 125.833 139.074 125.547C138.007 125.255 108.553 101.517 108.553 101.517L110.878 96.2836L133.745 108.009L138.687 92.3131V92.308Z" fill="white"/>
</mask>
<g mask="url(#mask6_6950_16853)">
<path d="M139.512 118.084C139.512 118.084 138.002 113.559 136.926 111.406C135.849 109.252 142.094 116.362 143.387 112.483C144.68 108.603 152.868 89.2181 151.358 82.7515C150.422 78.7458 148.082 76.4812 146.437 75.3339C148.837 74.7652 151.776 75.3691 153.608 78.6401C156.803 84.3568 153.9 90.8485 152.737 95.4984C151.575 100.148 144.212 121.178 143.145 123.795C142.079 126.412 140.141 125.828 139.074 125.541C138.299 125.33 122.473 112.689 113.923 105.83L139.512 118.084Z" fill="#00D37F"/>
<path opacity="0.5" d="M139.512 118.084C139.512 118.084 138.002 113.559 136.926 111.406C135.849 109.252 142.094 116.362 143.387 112.483C144.68 108.603 152.868 89.2181 151.358 82.7515C150.422 78.7458 148.082 76.4812 146.437 75.3339C148.837 74.7652 151.776 75.3691 153.608 78.6401C156.803 84.3568 153.9 90.8485 152.737 95.4984C151.575 100.148 144.212 121.178 143.145 123.795C142.079 126.412 140.141 125.828 139.074 125.541C138.299 125.33 122.473 112.689 113.923 105.83L139.512 118.084Z" fill="white"/>
</g>
<path d="M138.687 92.308C138.687 92.308 141.495 80.5827 142.657 77.9659C143.82 75.3491 150.407 72.9285 153.608 78.6453C156.803 84.362 153.9 90.8537 152.737 95.5036C151.575 100.153 144.212 121.184 143.145 123.8C142.079 126.417 140.141 125.833 139.074 125.547C138.007 125.255 108.553 101.517 108.553 101.517L110.878 96.2836L133.745 108.009L138.687 92.3131V92.308Z" stroke="#263238" stroke-width="0.75" stroke-linecap="round" stroke-linejoin="round"/>
<path d="M114.27 98.2158L111.653 103.545" stroke="#263238" stroke-width="0.75" stroke-linecap="round" stroke-linejoin="round"/>
<path d="M175.739 71.4844L189.125 80.769C189.125 80.769 182.528 87.7388 183.212 106.041C183.73 120.016 181.868 135.883 179.181 139.109H164.935C164.935 139.109 169.861 111.949 169.504 96.3642C169.237 84.5332 172.79 76.3255 175.744 71.4844H175.739Z" fill="white" stroke="#263238" stroke-width="0.75" stroke-linecap="round" stroke-linejoin="round"/>
<path d="M174.13 71.4844L187.516 80.769C187.516 80.769 180.918 87.7388 181.603 106.041C182.121 120.016 180.259 135.883 177.572 139.109H163.325C163.325 139.109 168.252 111.949 167.895 96.3642C167.628 84.5332 171.181 76.3255 174.135 71.4844H174.13Z" fill="#263238" stroke="#263238" stroke-width="0.75" stroke-linecap="round" stroke-linejoin="round"/>
<path d="M175.738 71.4844H174.128L187.514 80.769H189.119L175.738 71.4844Z" fill="white" stroke="#263238" stroke-width="0.75" stroke-linecap="round" stroke-linejoin="round"/>
</g>
</g>
<defs>
<clipPath id="clip0_6950_16853">
<rect width="195.139" height="141.368" fill="white" transform="matrix(-1 0 0 1 195.139 0)"/>
</clipPath>
</defs>
</svg>
