<svg width="130" height="208" viewBox="0 0 130 208" fill="none" xmlns="http://www.w3.org/2000/svg">
<g clip-path="url(#clip0_6950_17333)">
<path d="M71.2285 80.7111V80.6865C71.2285 80.6865 71.2285 80.6947 71.2122 80.6947L71.2285 80.7111Z" fill="white"/>
<path d="M0.0804977 160.194C0.152428 158.183 0.392181 156.173 0.67189 154.179C0.871681 152.753 1.22331 151.344 1.55896 149.934C2.14235 147.467 2.89357 145.072 4.34805 142.958C4.65173 142.517 4.88348 142.037 5.13921 141.572C4.93143 141.428 4.66771 141.308 4.54784 141.116C4.27612 140.691 3.90051 140.211 3.91649 139.762C3.91649 139.49 4.53185 139.162 4.93143 138.993C5.39495 138.793 5.9144 138.729 6.47382 138.593C5.6267 138.08 4.82755 137.712 4.18822 137.159C3.87654 136.895 3.73269 136.294 3.7247 135.846C3.7247 135.245 4.23616 135.053 4.77959 134.989C4.94741 134.973 5.10724 134.893 5.27507 134.885C8.61557 134.693 11.6924 133.315 14.929 132.674C16.807 132.306 18.6771 131.777 20.5711 131.617C25.9255 131.168 30.9362 132.45 35.6833 134.941C38.0408 136.174 40.4463 137.312 42.8358 138.497C41.9167 135.902 41.9008 133.275 42.1885 130.56C42.5401 127.204 44.1624 124.409 45.9685 121.774C47.407 119.667 49.357 117.921 51.0911 116.023C53.5925 113.276 56.6853 111.33 59.9459 109.664C62.5032 108.35 65.2443 107.59 68.1053 107.213C70.8784 106.837 73.6116 106.869 76.3367 107.469C76.8722 107.598 77.4156 107.686 77.951 107.798C75.9851 105.587 73.7794 103.649 71.1262 102.328C69.9035 101.719 68.5449 101.382 67.2742 100.87C66.9865 100.75 66.7787 100.421 66.539 100.189C66.8267 100.005 67.1144 99.6845 67.4021 99.6765C68.0014 99.6685 68.6328 99.7406 69.1922 99.9328C72.221 100.998 74.9062 102.632 77.1599 104.931C77.7193 105.499 78.2467 106.1 78.7902 106.676C78.942 106.388 78.958 106.196 78.8861 106.06C77.9351 104.354 76.9681 102.656 76.0251 100.942C75.8173 100.566 75.6974 100.133 75.5456 99.7566C76.4007 99.268 76.7923 99.8046 77.072 100.205C78.6703 102.528 80.3885 104.81 80.7082 107.63C82.2266 107.902 83.745 108.054 85.1835 108.463C87.7328 109.199 89.9465 110.601 91.9604 112.307C95.0372 114.918 97.9941 117.649 100.264 121.029C100.927 122.03 101.526 123.079 102.158 124.096C102.246 124.08 102.326 124.064 102.413 124.048C101.806 122.911 101.614 121.774 102.429 120.741C103.109 119.868 102.613 119.371 101.974 118.842C100.975 118.001 99.952 117.176 99.017 116.271C97.4027 114.718 96.2599 112.988 97.5385 110.713C95.6525 109.984 93.7745 109.464 91.7446 109.912C91.0493 110.072 90.5938 109.512 90.6018 108.727C90.6018 108.439 90.6897 108.142 90.7536 107.766C89.0195 108.615 87.3332 108.695 85.599 108.086C84.68 107.766 84.4323 107.109 85.0077 106.332C85.2634 105.98 85.599 105.683 85.9027 105.363C86.6459 104.578 87.1015 103.681 87.0775 102.608C86.6939 102.368 86.3662 102.191 86.0705 101.975C84.9837 101.158 83.9048 100.333 82.8179 99.5083L82.794 99.4923C82.802 99.4202 82.81 99.3561 82.8179 99.284C80.6282 96.6651 79.8291 93.3973 78.5984 90.2577C77.2957 91.0346 75.9771 91.7635 74.7304 92.5884C74.139 92.9808 73.6276 93.0129 73.2679 92.4763C73.1401 92.2921 73.4597 91.7635 73.6356 91.4191C73.8833 90.9545 74.2509 90.5381 74.4587 90.0575C75.6494 87.2783 75.6574 84.355 75.4097 81.4156C75.3298 80.4465 75.0261 79.4934 74.7704 78.284C74.1071 78.9808 73.7315 79.5415 73.212 79.8699C72.6206 80.2543 71.8934 80.4305 71.2301 80.6868C71.1901 80.3344 71.0463 79.95 71.1502 79.6376C72.277 76.1136 72.6686 72.5255 72.1571 68.8413C71.7176 65.6937 71.2301 62.5541 70.9823 59.3985C70.8145 57.3321 71.0383 55.2257 71.6776 53.2154C72.5966 50.3001 74.5466 48.0495 76.6724 45.9992C79.0858 43.6765 82.0987 42.4511 85.3913 41.8744C86.9656 41.6021 88.524 41.3218 89.9944 40.5369C91.8325 39.5598 93.9103 39.2394 95.9722 39.2154C99.2088 39.1673 102.381 39.752 105.522 40.5129C107.288 40.9454 109.07 41.3538 110.901 41.7863C110.765 41.458 110.661 41.2097 110.565 40.9534C109.414 38.0381 110.765 35.1948 112.587 33.4248C113.058 32.9683 113.61 32.9202 114.169 33.1044C114.401 33.1765 114.617 33.4889 114.713 33.7371C114.761 33.8733 114.577 34.2257 114.425 34.2818C113.354 34.6742 112.93 35.6353 112.435 36.5083C111.66 37.8859 111.708 39.8721 112.499 40.9294C113.722 38.6548 115.855 37.8779 118.165 37.4694C118.852 37.3493 119.587 37.4053 120.275 37.5094C120.499 37.5415 120.818 37.974 120.81 38.2062C120.802 38.4385 120.459 38.7749 120.203 38.847C119.492 39.0472 118.74 39.0792 118.029 39.2635C116.143 39.76 114.625 40.7612 113.786 42.355C115.312 42.5953 116.846 42.8275 118.389 43.0678C120.826 43.4522 123.024 44.4934 124.622 46.3115C125.166 46.9282 125.661 47.585 126.141 48.2657V205.453H18.0297C18.1336 204.709 18.3334 203.996 18.9008 203.371C20.1155 202.033 21.7299 201.953 23.3282 201.809C24.423 201.713 25.5339 201.705 26.7646 201.649C26.4929 200.848 26.2531 200.135 26.0214 199.439C24.9185 199.439 23.8956 199.39 22.8647 199.439C19.3643 199.607 16.2156 198.445 13.1628 196.924C11.3247 196.019 9.73441 194.785 8.14407 193.488C5.10725 190.997 3.34909 187.809 2.53394 184.077C1.89461 181.13 1.48704 178.134 1.04749 175.147C0.67189 172.656 0.288284 170.165 0.120461 167.666C-0.0393677 165.183 -0.0153961 162.676 0.0804977 160.194ZM72.3729 204.789C74.6425 203.563 77.2238 203.323 79.7811 203.043C83.3694 202.642 86.8777 201.929 90.2662 200.688C90.5858 200.576 90.9055 200.456 91.2331 200.368C93.0872 199.887 94.222 198.493 94.238 196.571C94.262 193.784 93.6866 191.109 92.4239 188.61C91.5688 186.928 90.6338 185.278 89.8506 183.564C89.3871 182.547 88.6518 182.083 87.6529 181.802C87.1974 181.674 86.7099 181.41 86.4062 181.058C85.3673 179.872 84.1046 179.119 82.5942 178.727C80.6522 178.214 78.6783 177.798 76.7843 177.133C74.147 176.204 71.6856 174.874 69.6477 172.888C69.2242 172.48 68.8885 171.967 68.473 171.455C67.0904 172.488 65.6759 172.247 64.1415 171.815C60.9209 170.894 58.5154 168.924 56.4615 166.305C55.9341 166.841 55.8701 167.314 56.1498 168.027C57.0929 170.381 57.892 172.792 57.7722 175.379C57.6363 178.599 56.6214 181.482 54.096 183.612C52.6016 184.878 50.7475 184.878 48.8934 184.63C48.6057 184.59 48.326 184.55 47.9824 184.501C48.6936 186.808 49.8684 188.738 51.4987 190.508C51.6585 190.292 51.7704 190.14 51.8823 189.988C52.3618 189.307 52.9132 189.003 53.8483 189.147C55.7902 189.451 57.0449 190.701 58.4115 191.942C60.3854 193.72 62.5112 195.322 64.5571 197.02C64.9566 197.356 65.3802 197.749 65.588 198.213C65.7158 198.509 65.596 199.07 65.3722 199.342C64.7728 200.071 64.0616 200.704 63.3983 201.369C66.4511 202.57 69.6238 203.051 72.3729 204.789Z" fill="white"/>
<path d="M71.2295 80.6868V80.7108L71.2135 80.6948C71.2135 80.6948 71.2215 80.6868 71.2295 80.6868ZM0.0799103 160.194C0.15184 158.183 0.391586 156.173 0.671295 154.179C0.871094 152.753 1.22272 151.344 1.55836 149.934C2.14176 147.467 2.89298 145.072 4.34746 142.958C4.65114 142.517 4.88289 142.037 5.13862 141.572C4.93084 141.428 4.66712 141.308 4.54725 141.116C4.27554 140.691 3.89992 140.211 3.9159 139.762C3.9159 139.49 4.53127 139.162 4.93085 138.993C5.39436 138.793 5.91381 138.729 6.47322 138.593C5.62611 138.08 4.82696 137.712 4.18763 137.159C3.87595 136.895 3.7321 136.294 3.72411 135.846C3.72411 135.245 4.23557 135.053 4.779 134.989C4.94682 134.973 5.10665 134.893 5.27448 134.885C8.61498 134.693 11.6918 133.315 14.9284 132.674C16.8064 132.306 18.6765 131.777 20.5705 131.617C25.9249 131.168 30.9356 132.45 35.6827 134.941C38.0402 136.174 40.4457 137.312 42.8352 138.497C41.9162 135.902 41.9002 133.275 42.1879 130.56C42.5395 127.204 44.1618 124.409 45.9679 121.774C47.4064 119.667 49.3564 117.921 51.0906 116.023C53.5919 113.276 56.6847 111.33 59.9453 109.664C62.5026 108.35 65.2438 107.59 68.1048 107.213C70.8779 106.837 73.611 106.869 76.3361 107.469C76.8716 107.598 77.415 107.686 77.9505 107.798C75.9845 105.587 73.7788 103.649 71.1256 102.328C69.9029 101.719 68.5443 101.382 67.2736 100.87C66.9859 100.75 66.7781 100.421 66.5384 100.189C66.8261 100.005 67.1138 99.6845 67.4015 99.6765C68.0009 99.6685 68.6322 99.7406 69.1916 99.9328C72.2205 100.998 74.9056 102.632 77.1593 104.931C77.7187 105.499 78.2461 106.1 78.7896 106.676C78.9414 106.388 78.9574 106.196 78.8855 106.06C77.9345 104.354 76.9675 102.656 76.0245 100.942C75.8167 100.566 75.6968 100.133 75.545 99.7566C76.4001 99.268 76.7917 99.8046 77.0714 100.205C78.6697 102.528 80.3879 104.81 80.7076 107.63C82.226 107.902 83.7444 108.054 85.1829 108.463C87.7322 109.199 89.9459 110.601 91.9598 112.307C95.0366 114.918 97.9935 117.649 100.263 121.029C100.926 122.03 101.526 123.079 102.157 124.096C102.245 124.08 102.325 124.064 102.413 124.048C101.805 122.911 101.614 121.774 102.429 120.741C103.108 119.868 102.613 119.371 101.973 118.842C100.974 118.001 99.9514 117.176 99.0164 116.271C97.4021 114.718 96.2593 112.988 97.538 110.713C95.6519 109.984 93.7739 109.464 91.744 109.912C91.0488 110.072 90.5932 109.512 90.6012 108.727C90.6012 108.439 90.6891 108.142 90.7531 107.766C89.0189 108.615 87.3326 108.695 85.5984 108.086C84.6794 107.766 84.4317 107.109 85.0071 106.332C85.2628 105.98 85.5984 105.683 85.9021 105.363C86.6454 104.578 87.1009 103.681 87.0769 102.608C86.6933 102.368 86.3656 102.191 86.07 101.975C84.9831 101.158 83.9042 100.333 82.8174 99.5083C82.8174 99.4282 82.8174 99.3561 82.8254 99.276H82.8174C80.6277 96.6651 79.8285 93.3973 78.5978 90.2577C77.2951 91.0346 75.9765 91.7635 74.7298 92.5884C74.1384 92.9808 73.627 93.0129 73.2674 92.4763C73.1395 92.2921 73.4592 91.7635 73.635 91.4191C73.8827 90.9545 74.2503 90.5381 74.4581 90.0575C75.6489 87.2783 75.6569 84.355 75.4091 81.4156C75.3292 80.4465 75.0255 79.4934 74.7698 78.284C74.1065 78.9808 73.7309 79.5415 73.2114 79.8699C72.62 80.2543 71.8928 80.4305 71.2295 80.6868C71.1895 80.3344 71.0457 79.95 71.1496 79.6376C72.2764 76.1136 72.668 72.5255 72.1565 68.8413C71.717 65.6937 71.2295 62.5541 70.9817 59.3985C70.8139 57.3321 71.0377 55.2257 71.677 53.2154C72.5961 50.3001 74.546 48.0495 76.6718 45.9992C79.0853 43.6765 82.0981 42.4511 85.3907 41.8744C86.965 41.6021 88.5234 41.3218 89.9939 40.5369C91.8319 39.5598 93.9098 39.2394 95.9716 39.2154C99.2082 39.1673 102.381 39.752 105.522 40.5129C107.288 40.9454 109.07 41.3538 110.9 41.7863C110.764 41.458 110.66 41.2097 110.564 40.9534C109.414 38.0381 110.764 35.1948 112.586 33.4248C113.058 32.9683 113.609 32.9202 114.169 33.1044C114.4 33.1765 114.616 33.4889 114.712 33.7371C114.76 33.8733 114.576 34.2257 114.424 34.2818C113.353 34.6742 112.93 35.6353 112.434 36.5083C111.659 37.8859 111.707 39.8721 112.498 40.9294C113.721 38.6548 115.855 37.8779 118.164 37.4694C118.852 37.3493 119.587 37.4053 120.274 37.5094C120.498 37.5415 120.818 37.974 120.81 38.2062C120.802 38.4385 120.458 38.7749 120.202 38.847C119.491 39.0472 118.74 39.0792 118.029 39.2635C116.142 39.76 114.624 40.7612 113.785 42.355C115.311 42.5953 116.846 42.8275 118.388 43.0678C120.826 43.4522 123.023 44.4934 124.622 46.3115C125.165 46.9282 125.661 47.585 126.14 48.2657C127.107 49.6433 127.994 51.101 128.993 52.4625C129.928 53.728 129.968 55.1216 129.96 56.5873C129.928 62.3779 129.952 68.1605 129.944 73.9511V75.2085C129.497 74.5678 129.209 74.1193 128.881 73.7188C128.202 72.8859 127.035 72.7337 126.14 73.1502C125.7 73.3424 125.325 73.6788 125.093 74.1273C124.821 74.6559 124.446 75.1765 124.006 75.5609C123.215 76.2497 122.432 76.8744 121.849 77.8035C121.441 78.4522 120.674 78.8927 120.018 79.3653C119.435 79.7818 118.604 79.998 118.18 79.4133C117.869 78.9889 117.909 78.1239 118.1 77.5552C118.652 75.8493 119.355 74.1994 119.986 72.5255C120.05 72.3413 120.114 72.109 120.058 71.9408C119.731 70.9156 119.395 69.8905 119.011 68.8893C118.452 67.4236 117.853 65.974 117.261 64.5243C117.125 64.1879 117.006 63.8275 116.782 63.5552C115.591 62.0976 114.28 60.744 113.186 59.2223C112.115 57.7326 111.228 56.0987 110.317 54.4969C109.605 53.2314 108.982 51.9179 108.391 50.7646C107.895 51.2131 107.352 51.7177 106.784 52.1982C104.794 53.8722 102.597 55.1376 99.9195 55.2657C99.2721 55.2978 98.5689 55.1857 98.3371 54.4488C98.1214 53.76 98.497 53.2955 99.0404 52.839C100.375 51.7177 101.638 50.5163 102.916 49.347C102.229 49.7314 101.51 50.0918 100.87 50.5564C99.0644 51.8939 97.2982 53.2795 95.5161 54.633C95.3243 54.7772 95.0925 55.0335 94.9247 55.0095C94.0376 54.8413 93.1026 54.7371 92.3034 54.3527C91.6401 54.0243 92.1596 53.4316 92.3834 52.9511C93.1346 51.3172 93.8618 49.6834 94.597 48.0415C93.5262 48.8344 92.5432 49.8035 91.3684 50.3882C89.2826 51.4294 87.0929 52.2783 84.9192 53.1273C83.193 53.8001 81.5227 54.4808 80.8994 56.4591C83.5286 55.8264 84.4397 56.0667 86.7972 56.7875C88.5154 57.3161 88.899 57.7726 88.875 59.0381C88.859 59.6628 88.5713 59.8149 87.972 59.5987C87.4126 59.3985 86.8132 59.0941 86.2618 59.1422C84.1679 59.3504 82.0981 59.7028 80.0123 59.9511C79.1892 60.0472 78.7896 60.4877 78.6058 61.2566C78.2781 62.6662 77.7427 64.0438 77.6148 65.4694C77.399 67.8962 77.383 70.355 77.3751 72.7978C77.3671 73.8149 77.5509 74.8481 77.7427 75.8573C78.1742 78.1239 78.6138 80.3905 79.1412 82.641C79.4769 84.0907 79.9643 85.5003 80.3879 86.9339C80.7955 88.2875 81.1631 89.657 81.6186 90.9866C82.0502 92.212 82.5936 93.3973 83.0651 94.6067C83.7844 96.4648 84.8632 98.0667 86.4456 99.284C88.2916 100.702 90.5453 101.15 92.711 101.703C95.8198 102.504 98.9765 102.48 102.165 101.975C105.514 101.447 108.67 100.237 111.939 99.3962C113.026 99.1159 114.177 98.6994 115.032 98.0186C116.646 96.7371 117.933 95.0552 118.492 93.0529C119.387 89.8733 120.306 86.6776 120.37 83.3218C120.386 82.3687 120.882 82.0564 121.793 82.3447C122.296 81.2554 122.736 80.1262 123.319 79.077C124.078 77.7154 124.893 76.4019 126.14 75.4248C126.308 75.2966 126.484 75.1685 126.667 75.0484C127.115 74.76 127.443 74.6719 127.802 75.0804C128.202 75.5289 128.034 75.8733 127.65 76.2978C127.131 76.8825 126.628 77.4751 126.14 78.0598C125.557 78.7646 125.005 79.4374 124.486 80.0621C125.013 81.1834 125.461 81.9843 125.748 82.8413C125.844 83.1136 125.541 83.53 125.413 83.8824C125.133 83.7303 124.757 83.6422 124.582 83.4019C124.238 82.9534 124.014 82.4168 123.655 81.76C123.455 82.4488 123.319 82.9934 123.143 83.53C122.935 84.1628 122.656 84.7074 121.833 84.0987C121.753 85.3802 121.649 86.5815 121.609 87.7909C121.585 88.5198 122.408 89.0724 123.095 88.728C124.15 88.1994 125.221 87.6548 126.14 86.9339C126.172 86.9099 126.212 86.8779 126.244 86.8538C127.738 85.6525 128.929 84.1387 129.888 82.2326V92.9488C128.633 93.5735 127.451 94.1662 126.196 94.7909C126.444 95.2154 126.524 95.4877 126.707 95.6639C127.491 96.4168 128.234 97.2257 129.113 97.8504C129.944 98.4351 130.08 99.0998 129.856 100.077C128.482 99.1639 127.251 98.1468 126.14 97.0335C124.238 95.1273 122.68 92.9408 121.353 90.5381C120.658 92.7326 120.002 94.8149 119.323 96.8893C119.211 97.2337 119.083 97.6101 118.852 97.8584C118.428 98.3069 117.933 98.6834 117.461 99.0758C116.798 99.6284 116.127 100.165 115.463 100.718C115.455 100.718 115.447 100.726 115.439 100.734L115.455 100.71C114.776 101.078 114.129 101.567 113.401 101.791C111.06 102.512 108.678 103.136 106.321 103.801C105.625 104.001 104.946 104.242 104.227 104.466C107.815 109.087 110.748 113.973 113.018 118.971H115.072C116.071 118.971 117.086 119.043 118.076 118.939C119.923 118.746 121.361 117.585 122.887 116.68C124.046 115.991 125.165 115.254 126.14 114.381C127.387 113.268 128.394 111.939 128.969 110.193C129.057 109.904 129.425 109.712 129.768 109.368C130.224 111.049 129.712 112.355 128.897 113.468C128.098 114.574 127.163 115.535 126.14 116.384C125.029 117.321 123.806 118.122 122.512 118.842C121.665 119.315 120.81 119.755 119.963 120.212C122.368 119.836 124.446 118.874 126.14 117.209C126.364 116.992 126.58 116.768 126.787 116.528C127.794 115.366 128.761 114.173 129.752 112.996C129.832 113.028 129.912 113.06 130 113.092C129.928 113.741 130.048 114.509 129.744 115.03C129.113 116.127 128.338 117.168 127.475 118.106C127.051 118.57 126.604 118.995 126.14 119.379C124.246 120.941 122.016 121.894 119.547 122.278C117.957 122.527 116.286 122.374 114.656 122.326C114.209 122.326 113.753 122.062 113.178 121.878C113.641 123.159 114.041 124.289 114.472 125.498C118.596 125.17 122.592 124.545 126.14 122.431C126.644 122.134 127.131 121.814 127.61 121.453C128.274 120.957 129.049 120.604 129.784 120.18C130.256 121.301 129.68 121.822 129.065 122.342C128.138 123.119 127.163 123.784 126.14 124.337C123.759 125.634 121.145 126.379 118.396 126.804C117.317 126.972 116.214 126.972 115.056 127.06C115.463 128.109 115.791 129.062 116.206 129.975C116.318 130.223 116.67 130.504 116.926 130.512C120.106 130.688 123.199 130.328 125.988 128.638C126.036 128.606 126.092 128.574 126.14 128.541C127.339 127.797 128.49 126.98 129.672 126.195C130.04 126.9 130.056 127.156 129.576 127.701C129.241 128.077 128.825 128.389 128.426 128.702C127.69 129.262 126.923 129.759 126.14 130.183C123.854 131.433 121.369 132.066 118.636 131.961C118.084 131.937 117.541 131.865 116.798 131.793C117.038 132.09 117.157 132.202 117.229 132.338C118.492 134.837 119.779 137.328 120.993 139.85C121.249 140.387 121.569 140.547 122.088 140.539C123.039 140.531 123.982 140.523 124.933 140.531C125.341 140.531 125.748 140.515 126.14 140.467C127.163 140.339 128.122 140.011 128.969 139.298C129.145 139.146 129.441 139.122 129.672 139.05C130.048 139.955 130.008 140.219 129.369 140.675C128.378 141.38 127.307 141.813 126.14 141.933C125.78 141.981 125.405 141.989 125.021 141.973C124.062 141.925 123.103 141.965 122.048 141.965C122.208 142.421 122.352 142.934 122.584 143.406C123.255 144.832 123.95 146.25 124.662 147.651C125.157 148.628 125.645 149.598 126.14 150.575C127.091 152.449 128.042 154.323 129.041 156.165C129.904 157.743 130.12 159.353 129.744 161.131C128.769 159.945 127.898 158.72 127.051 157.471C126.771 157.054 126.5 156.614 126.316 156.149C126.252 155.989 126.196 155.829 126.14 155.669C125.948 155.084 125.804 154.483 125.533 153.939C124.142 151.119 122.664 148.348 121.297 145.521C120.306 143.471 119.475 141.348 118.524 139.282C117.589 137.239 116.462 135.277 115.655 133.179C114.288 129.631 113.082 126.011 111.883 122.39C111.747 121.982 112.067 121.421 112.179 120.925C112.179 120.925 112.179 120.925 112.179 120.909C112.011 120.693 111.843 120.468 111.667 120.236C110.828 121.173 110.452 121.205 109.374 120.588C107.424 119.467 105.913 117.889 104.714 116.031C103.771 114.566 103.939 112.916 104.459 111.338C104.651 110.753 105.162 110.265 105.641 109.576C105.378 109.199 104.97 108.623 104.571 108.046L104.635 108.03H104.587C104.083 108.302 103.604 108.687 103.06 108.815C101.678 109.159 100.583 109.816 99.6398 110.921C98.489 112.275 98.3451 113.132 99.6398 114.341C100.886 115.503 102.197 116.608 103.564 117.617C105.098 118.754 105.41 120.22 104.395 121.71C103.979 122.318 103.947 122.791 104.291 123.432C104.77 124.321 104.627 124.641 103.739 125.122C103.476 125.266 103.188 125.362 102.828 125.522C103.236 126.355 103.628 127.164 103.923 127.781C104.714 127.781 105.426 127.652 106.073 127.797C108.838 128.413 110.892 130.071 112.386 132.434C114.049 135.053 114.672 138.024 115.072 141.044C115.439 143.855 114.6 146.202 112.179 147.796C111.284 148.38 110.245 148.749 109.182 149.261C109.35 150.054 109.653 150.959 109.709 151.88C109.957 155.749 111.459 159.209 113.106 162.612C113.513 163.445 114.201 164.15 114.608 164.983C114.888 165.552 115.191 166.377 114.968 166.833C114.744 167.29 113.897 167.538 113.281 167.674C112.65 167.81 111.955 167.698 111.292 167.698C111.443 168.547 111.619 169.46 111.795 170.373H111.787V170.606C111.699 171.334 111.603 172.055 111.547 172.784C111.531 172.96 111.619 173.144 111.691 173.313C112.706 175.699 114.153 177.798 116.079 179.52C118.124 181.346 120.386 182.852 122.999 183.749C124.638 184.317 125.253 184.197 126.14 183.028L126.156 183.012C126.62 182.395 126.979 181.698 127.371 181.025C128.13 179.744 128.865 178.455 129.608 177.165C129.696 177.221 129.792 177.269 129.88 177.325C130.511 180.809 128.234 182.956 126.172 185.246C127.163 186.127 128.146 187.048 129.185 187.897C129.776 188.378 129.968 188.906 129.96 189.651C129.936 195.402 129.952 201.16 129.944 206.911C129.944 207.239 129.912 207.568 129.896 207.896C129.736 207.936 129.64 207.984 129.544 207.984C118.604 207.984 107.663 207.984 96.7228 208C96.1794 208 95.9796 207.736 95.7638 207.287C95.4761 206.671 95.1724 206.062 94.8767 205.453C94.2294 204.14 93.5741 202.834 92.9428 201.561C89.7781 202.562 86.7732 203.515 83.8483 204.444C83.9921 204.781 84.144 205.109 84.2878 205.453C84.6315 206.246 84.9831 207.063 85.3427 207.896H69.0158C69.7271 207.095 70.3025 206.439 70.7899 205.886C70.4223 205.742 70.0467 205.598 69.6791 205.453C67.2496 204.508 64.8522 203.571 62.4786 202.65C61.7274 203.595 60.9842 204.532 60.257 205.453C59.6896 206.166 59.1301 206.871 58.5627 207.568C58.4109 207.76 58.1472 207.952 57.9154 207.968C57.2281 208.016 56.5329 207.984 55.7017 207.984C56.445 207.127 57.1802 206.286 57.9074 205.453C59.8734 203.195 61.7914 200.992 63.7333 198.774C63.07 198.373 62.3188 198.077 61.7674 197.564C59.8094 195.746 57.9314 193.832 55.9734 191.998C55.438 191.485 54.7587 191.101 54.0954 190.749C53.3362 190.34 52.7928 190.604 52.5211 191.566C53.0565 191.926 53.6319 192.294 54.1993 192.695C54.511 192.903 54.9825 193.119 55.0384 193.4C55.1024 193.704 54.8067 194.12 54.5909 194.441C54.3112 194.849 53.9356 195.194 53.6319 195.594C52.3932 197.26 51.2584 199.014 49.9238 200.608C48.5332 202.282 46.9749 203.812 45.5523 205.453C45.2007 205.854 44.8571 206.27 44.5294 206.687C43.5385 207.952 42.4756 208.185 40.9172 207.872C41.6125 207.063 42.3077 206.254 43.003 205.453C46.1917 201.745 49.3484 198.077 52.585 194.313C49.9158 192.11 48.0857 189.467 46.9589 186.336C46.1118 187.649 45.3925 188.931 44.5134 190.092C43.6264 191.269 42.6114 192.35 41.6284 193.456C40.0861 195.17 38.272 196.499 36.0823 197.268C34.6677 197.773 33.2612 198.309 31.8067 198.67C30.4082 199.006 28.9537 199.134 27.5392 199.35C28.5062 201.321 29.3133 203.347 29.9287 205.453C30.1764 206.262 30.3922 207.087 30.576 207.928C30.2963 207.96 30.1684 207.984 30.0326 207.992C28.698 208.032 28.69 208.032 28.3144 206.767C28.1865 206.326 28.0586 205.894 27.9388 205.453C27.707 204.66 27.4912 203.868 27.2515 203.051C25.3894 203.323 23.5913 203.531 21.8172 203.884C20.8182 204.076 20.3147 204.58 20.1469 205.453C20.099 205.654 20.083 205.878 20.075 206.118C20.051 206.719 20.067 207.32 20.067 207.944H17.8853C17.8853 207.432 17.8373 206.975 17.8933 206.527C17.9412 206.166 17.9732 205.806 18.0291 205.453C18.133 204.709 18.3328 203.996 18.9002 203.371C20.115 202.033 21.7293 201.953 23.3276 201.809C24.4225 201.713 25.5333 201.705 26.764 201.649C26.4923 200.848 26.2525 200.135 26.0208 199.439C24.9179 199.439 23.895 199.39 22.8641 199.439C19.3637 199.607 16.215 198.445 13.1622 196.924C11.3242 196.019 9.73383 194.785 8.14349 193.488C5.10667 190.997 3.3485 187.809 2.53336 184.077C1.89403 181.13 1.48645 178.134 1.04691 175.147C0.671295 172.656 0.287704 170.165 0.119873 167.666C-0.0399628 165.183 -0.0159912 162.676 0.0799103 160.194ZM94.8528 47.8092C94.8528 47.8092 94.8688 47.7612 94.8767 47.7451C94.8688 47.7612 94.8608 47.7772 94.8528 47.7932C94.8208 47.8252 94.7888 47.8573 94.7569 47.8893C94.7888 47.8573 94.8208 47.8332 94.8528 47.8092ZM119.355 120.484C119.355 120.484 119.371 120.444 119.379 120.42C119.355 120.42 119.323 120.404 119.299 120.388C119.291 120.428 119.275 120.468 119.267 120.508C119.299 120.5 119.331 120.5 119.355 120.484ZM116.366 120.668L116.422 120.636L116.358 120.612V120.668H116.366ZM114.432 120.492C114.432 120.492 114.448 120.412 114.456 120.38C114.424 120.38 114.392 120.38 114.368 120.388C114.352 120.404 114.352 120.436 114.344 120.46C114.376 120.468 114.4 120.484 114.432 120.492ZM5.75398 140.019C5.8259 140.251 5.88985 140.443 6.00972 140.82C6.30541 140.435 6.5052 140.179 6.71297 139.914C6.72097 139.906 6.73696 139.906 6.74495 139.906C6.76093 139.898 6.77692 139.898 6.78491 139.89H6.72897C6.72897 139.89 6.72097 139.906 6.71297 139.914C6.42528 139.947 6.12959 139.979 5.75398 140.019ZM34.8995 136.118C31.0955 134.156 27.0677 133.059 22.7842 133.035C19.2998 133.019 15.9833 133.972 12.6747 134.965C10.8846 135.501 9.04653 135.87 7.22444 136.318C7.06461 136.358 6.92077 136.455 6.72098 136.543C7.60006 137.079 8.42319 137.584 9.10248 137.992C10.6768 137.304 12.1393 136.599 13.6497 136.014C15.8554 135.157 18.213 135.045 20.5066 135.125C23.1518 135.221 25.813 135.574 28.4103 136.094C32.9096 136.991 37.249 138.425 41.1729 140.9C42.8751 141.981 43.1309 143.823 43.3946 145.577C43.8261 148.404 43.1948 151.079 42.084 153.666C42.0041 153.858 41.9241 154.043 41.8442 154.235C41.1969 155.821 41.4686 156.606 42.9391 157.503C43.3946 157.783 43.8102 158.127 44.2257 158.464C44.9769 159.088 45.1448 159.953 44.9849 160.834C44.8411 161.627 45.0409 162.212 45.6323 162.709C47.0548 160.706 49.5162 161.211 51.3543 162.276C52.7448 163.085 53.8397 164.206 54.7587 165.52C54.8226 165.616 54.9745 165.648 55.0864 165.704C55.1263 165.728 55.1663 165.76 55.2063 165.784C55.1823 165.736 55.1663 165.696 55.1423 165.648C55.2222 165.4 55.3261 165.143 55.3821 164.887C55.5499 164.142 55.5978 163.357 55.8775 162.66C56.5329 161.019 57.0683 159.393 56.9884 157.567C56.9165 156.021 57.1962 154.451 57.0443 152.921C56.7406 149.926 56.2132 146.914 53.3841 145.128C52.1774 144.368 50.7549 143.959 49.4523 143.35C47.3185 142.349 45.1847 141.356 43.0749 140.307C40.3338 138.937 37.6246 137.52 34.8995 136.118ZM62.4307 167.194C62.135 167.242 61.5996 166.905 61.4637 166.609C60.7684 165.111 60.8643 163.67 62.1909 162.196C60.9363 161.852 59.8334 161.523 58.7146 161.267C58.5547 161.227 58.2511 161.499 58.1392 161.691C57.6517 162.58 57.2042 163.485 56.7087 164.447C57.8914 165.544 59.0342 166.521 60.0732 167.602C61.3678 168.948 63.094 169.428 64.7083 170.157C66.6902 171.054 67.9849 170.069 69.2396 168.459C68.3925 167.786 67.5214 167.13 66.6902 166.433C65.8351 165.72 65.036 164.943 64.1729 164.238C63.8053 163.942 63.3417 163.774 62.9022 163.533C62.1829 164.463 62.3348 165.328 62.6465 166.209C62.7743 166.577 63.0221 167.106 62.4307 167.194ZM59.0263 158.304C59.0263 158.304 58.9623 158.271 58.9304 158.255C58.9543 158.279 58.9783 158.296 59.0023 158.32C59.0103 158.328 59.0183 158.336 59.0183 158.344C58.9224 158.768 58.8344 159.201 58.7066 159.753C59.242 159.849 59.6736 159.929 60.3209 160.041C59.8014 159.369 59.4178 158.856 59.0183 158.344C59.0183 158.328 59.0263 158.32 59.0263 158.304ZM79.0373 106.925L79.0693 106.981L79.0933 106.917H79.0373V106.925ZM102.277 128.493C100.751 125.794 99.3121 123.039 97.6019 120.46C96.547 118.858 95.1165 117.481 93.7579 116.103C92.4872 114.822 91.1926 113.516 89.7221 112.483C86.941 110.513 83.9282 108.975 80.316 109.055C80.1641 109.287 79.9803 109.576 79.8445 109.776C77.1113 108.935 74.514 108.222 71.693 108.382C68.872 108.543 66.1468 108.959 63.5016 109.904C59.6176 111.282 56.2771 113.54 53.2323 116.287C50.8668 118.418 48.8129 120.805 47.0468 123.48C44.5294 127.292 43.3227 131.433 43.7303 136.006C43.8262 137.007 43.938 138.08 44.3776 138.945C44.6892 139.57 45.5044 140.043 46.1997 140.339C48.2056 141.196 50.1555 142.245 52.3852 142.437C52.545 142.453 52.6969 142.566 52.8647 142.582C53.9116 142.694 54.2952 142.91 54.8706 143.751C55.1024 144.087 55.3421 144.416 55.7976 144.752C55.8296 144.039 55.9015 143.318 55.8855 142.606C55.8136 139.738 55.6937 136.863 55.6458 133.988C55.6378 133.755 55.9974 133.523 56.1892 133.291C56.445 133.539 56.8925 133.771 56.9244 134.06C57.0603 135.157 57.0363 136.278 57.1162 137.384C57.2601 139.338 57.4279 141.284 57.5878 143.23L57.5398 143.27L57.5798 143.246C57.5798 143.246 57.5878 143.238 57.5878 143.23C58.5228 141.725 59.5857 140.267 60.3689 138.681C62.1909 134.965 63.2858 131 63.6214 126.86C63.7413 125.378 63.6454 123.872 63.6774 122.382C63.6934 121.702 63.5575 120.997 64.2208 120.444C64.3727 120.308 64.1249 119.715 64.061 119.331V119.107C64.061 119.107 64.069 119.099 64.077 119.099C64.7802 118.818 65.3556 119.147 65.6593 120.028C66.7861 123.247 67.4734 126.555 67.5613 129.967C67.5693 130.304 67.6812 130.632 67.7451 130.96C67.6892 131.04 67.6253 131.112 67.5693 131.193C67.6093 131.209 67.6572 131.233 67.7052 131.257C67.7212 131.16 67.7371 131.064 67.7531 130.968C68.4004 130.191 69.1597 129.479 69.6711 128.614C71.4213 125.698 72.1965 122.511 71.8608 119.099C71.7489 117.937 71.5651 116.776 71.4213 115.615C71.3973 115.455 71.3733 115.238 71.4612 115.134C71.8608 114.662 72.2924 114.213 72.7159 113.765C74.0026 114.662 75.2573 115.599 76.5759 116.448C78.5338 117.721 80.7715 118.338 82.9692 119.051C83.5046 119.219 84.0481 119.371 84.5915 119.531C84.6395 119.451 84.6874 119.371 84.7354 119.291C83.7124 118.538 82.6735 117.801 81.6666 117.024C80.8674 116.408 80.1082 115.735 79.333 115.078C78.9894 114.79 78.8056 114.357 79.2211 114.085C79.4769 113.917 80.0283 113.917 80.292 114.085C81.9702 115.134 83.6645 116.175 85.2228 117.385C86.6294 118.474 88.3236 118.834 89.858 119.579C91.2326 120.244 92.5352 121.053 93.8778 121.798C93.9737 121.854 94.0776 121.886 94.1735 121.926C94.2214 121.862 94.2614 121.79 94.3093 121.726C93.4303 121.061 92.5592 120.396 91.6721 119.739C91.1367 119.339 90.5533 118.995 90.0418 118.562C89.826 118.378 89.7461 118.033 89.6023 117.761C89.9379 117.705 90.3375 117.505 90.5852 117.617C91.3205 117.953 92.0157 118.378 92.679 118.842C93.9337 119.731 95.2683 120.548 96.3552 121.622C97.5939 122.839 98.6408 124.265 99.6717 125.674C100.655 127.02 101.51 128.461 102.413 129.855C102.493 129.823 102.581 129.791 102.661 129.751C102.541 129.334 102.485 128.87 102.277 128.493ZM94.4372 122.238C94.5491 122.318 94.661 122.398 94.7729 122.479C94.8368 122.398 94.8927 122.326 94.9567 122.254C94.8528 122.174 94.7569 122.086 94.661 122.006C94.5811 122.086 94.5091 122.158 94.4372 122.238ZM100.854 131.201C99.6557 129.07 98.6168 126.731 96.555 125.266C94.6929 123.936 92.679 122.815 90.7051 121.638C89.874 121.141 88.9789 120.757 88.1158 120.316C87.4605 121.638 86.7572 121.974 85.2149 121.525C83.5126 121.029 81.8424 120.396 80.1641 119.828C77.6707 118.995 75.513 117.585 73.4432 116.007C73.2594 115.863 73.0356 115.783 72.8278 115.671L72.7958 115.623L72.8118 115.663C73.7229 118.426 73.7708 121.221 73.3233 124.096C72.7079 128.029 70.2865 130.784 67.6332 133.419C67.1378 133.916 66.6822 133.739 66.4505 133.043C66.3626 132.77 66.3386 132.474 66.3066 132.186C66.0189 129.503 65.7312 126.828 65.4355 124.152C65.4276 124.112 65.3556 124.08 65.3077 124.04V124.016C65.3077 124.016 65.2917 123.984 65.2917 123.968C65.2917 123.808 65.2677 123.64 65.2597 123.48C65.2118 123.496 65.1558 123.512 65.1079 123.528C65.1638 123.672 65.2278 123.824 65.2917 123.968V124.032C65.2917 124.032 65.2997 124.04 65.3077 124.04C65.2677 124.761 65.1878 125.474 65.1958 126.195C65.2438 130.616 64.1889 134.789 62.3668 138.785C62.1989 139.154 62.0391 139.53 61.8793 139.898V139.874C60.6645 142.325 59.0342 144.44 56.7406 146.001C58.4668 148.845 59.0103 151.832 59.0103 154.964C59.0103 155.38 59.25 155.845 59.4978 156.197C60.217 157.214 61.0242 158.175 61.7434 159.185C62.6944 160.53 63.9011 161.579 65.2837 162.452C65.4835 162.572 65.7952 162.733 65.8111 162.893C65.931 164.222 67.1058 164.607 67.913 165.279C69.6711 166.729 71.4533 168.155 73.2833 169.5C75.3212 171.014 77.6707 171.991 80.0443 172.776C83.3848 173.881 86.8451 174.442 90.3934 174.274C92.3434 174.186 94.2454 173.825 96.0915 173.152C97.506 172.632 98.9765 172.231 100.351 171.615C103.252 170.309 105.09 167.931 106.433 165.135C107.591 162.733 108.167 160.162 108.103 157.511C108.039 155.204 107.791 152.889 107.456 150.599C107.184 148.701 106.776 146.802 106.225 144.968C105.458 142.389 104.579 139.834 103.612 137.32C102.804 135.229 101.949 133.139 100.854 131.201ZM69.2396 170.678C72.3563 173.921 76.2323 175.571 80.6037 176.252C81.6586 176.412 82.6735 176.805 83.7124 177.077C84.08 177.181 84.4716 177.237 84.8472 177.317C84.8472 177.325 84.8552 177.333 84.8632 177.341C84.9351 177.405 84.9991 177.469 85.063 177.533C85.1269 177.606 85.1909 177.686 85.2548 177.758C85.1989 177.678 85.1429 177.59 85.079 177.509C85.0151 177.445 84.9511 177.389 84.8872 177.325C84.8712 177.325 84.8632 177.317 84.8472 177.317C83.9362 176.06 82.9053 175.155 81.1871 175.003C79.9164 174.89 78.6457 174.346 77.463 173.801C75.7048 173 73.9946 172.087 72.3323 171.118C71.5651 170.67 70.9498 169.973 70.2705 169.396C69.9109 169.837 69.6072 170.229 69.2396 170.678ZM85.2628 177.758C85.2628 177.758 85.2628 177.766 85.2628 177.774H85.3028L85.2548 177.758H85.2628ZM113.258 141.212C112.898 138.881 112.522 136.567 111.539 134.396C110.492 132.058 108.814 130.336 106.457 129.326C105.266 128.822 104.906 128.99 104.259 130.071C104.067 130.392 103.668 130.608 103.524 130.936C103.404 131.217 103.42 131.641 103.548 131.921C104.067 133.171 104.651 134.388 105.322 135.846C105.618 134.316 105.082 132.722 106.744 131.705C106.888 131.969 107.008 132.21 107.144 132.458C107.056 132.955 106.92 133.515 106.872 134.076C106.792 135.045 106.784 136.03 106.72 137.007C106.6 138.857 106.561 138.337 108.167 139.178C108.694 139.45 109.206 139.762 109.709 140.075C110.237 140.403 110.213 140.812 109.781 141.388C108.846 140.996 107.887 140.579 106.928 140.179C106.928 140.171 106.92 140.155 106.92 140.147C106.88 140.123 106.84 140.107 106.84 140.099C106.84 140.099 106.872 140.131 106.896 140.163C106.904 140.171 106.92 140.171 106.928 140.179C107.144 140.98 107.344 141.773 107.567 142.574C107.991 144.167 108.423 145.761 108.854 147.363C111.699 147.011 113.713 144.119 113.258 141.212ZM113.146 166.201C112.035 163.782 111.036 161.603 110.085 159.553C109.701 161.051 109.414 162.693 108.838 164.222C108.223 165.88 108.175 166.513 109.334 168.091C109.182 167.426 108.966 166.913 108.974 166.409C108.982 165.992 109.166 165.48 109.453 165.199C109.629 165.039 110.173 165.207 110.524 165.312C111.363 165.568 112.179 165.872 113.146 166.201ZM121.193 184.894C120.706 184.582 120.41 184.75 120.106 185.19C118.38 187.753 115.855 189.387 113.202 190.725C110.54 192.07 107.727 193.135 104.922 194.169C102.245 195.154 99.44 195.61 96.563 195.354C95.8757 195.29 95.8597 195.65 95.9876 196.387C98.2492 196.139 100.503 196.075 102.669 195.626C105.538 195.017 108.383 194.209 111.172 193.304C114.576 192.198 117.501 190.284 119.827 187.505C120.482 186.728 121.225 186.015 121.96 185.246C121.673 185.11 121.409 185.03 121.193 184.894ZM95.5161 192.815C95.588 193.4 96.0355 193.576 96.563 193.488C98.9285 193.111 101.318 192.855 103.636 192.302C107.152 191.453 110.452 189.94 113.681 188.306C115.743 187.257 117.557 185.855 119.131 184.029C118.916 183.869 118.772 183.749 118.612 183.652C114.616 181.298 111.579 178.11 109.861 173.737C109.174 171.991 108.399 170.277 107.663 168.555C107.551 168.315 107.424 168.075 107.328 167.882C106.433 168.876 105.649 169.973 104.659 170.806C103.564 171.711 102.365 172.64 101.054 173.112C98.1373 174.146 95.1405 174.995 92.1356 175.731C90.8889 176.044 89.5223 175.9 88.2197 175.94C87.5085 175.964 86.8052 175.94 85.8941 175.94C86.7413 176.877 87.4845 177.718 88.2517 178.543C90.6092 181.074 92.2555 184.045 93.638 187.185C94.4452 189.003 95.2923 190.789 95.5161 192.807V192.815ZM51.5061 190.516C51.6659 190.3 51.7778 190.148 51.8897 189.996C52.3692 189.315 52.9206 189.011 53.8557 189.155C55.7976 189.459 57.0523 190.709 58.4189 191.95C60.3928 193.728 62.5186 195.33 64.5645 197.028C64.964 197.364 65.3876 197.757 65.5954 198.221C65.7232 198.517 65.6034 199.078 65.3796 199.35C64.7802 200.079 64.069 200.712 63.4057 201.377C66.4585 202.578 69.6312 203.059 72.3803 204.797C74.6499 203.571 77.2312 203.331 79.7885 203.051C83.3768 202.65 86.8851 201.937 90.2736 200.696C90.5932 200.584 90.9129 200.464 91.2405 200.376C93.0946 199.895 94.2294 198.501 94.2454 196.579C94.2694 193.792 93.694 191.117 92.4313 188.618C91.5762 186.936 90.6412 185.286 89.858 183.572C89.3945 182.555 88.6592 182.091 87.6603 181.81C87.2048 181.682 86.7173 181.418 86.4136 181.066C85.3747 179.88 84.112 179.127 82.6016 178.735C80.6596 178.222 78.6857 177.806 76.7917 177.141C74.1544 176.212 71.693 174.882 69.6551 172.896C69.2316 172.488 68.8959 171.975 68.4804 171.463C67.0978 172.496 65.6833 172.255 64.1489 171.823C60.9283 170.902 58.5228 168.932 56.4689 166.313C55.9415 166.849 55.8775 167.322 56.1572 168.035C57.1003 170.389 57.8994 172.8 57.7796 175.387C57.6437 178.607 56.6288 181.49 54.1034 183.62C52.609 184.886 50.7549 184.886 48.9008 184.638C48.6131 184.598 48.3334 184.558 47.9898 184.509C48.701 186.816 49.8758 188.746 51.5061 190.516ZM19.7393 195.65L19.7553 195.578H19.6994L19.7393 195.65ZM2.18972 166.337C2.26963 169.877 2.89297 173.345 3.50833 176.829C4.03578 179.88 4.4993 182.94 5.57018 185.863C6.24947 187.713 7.24043 189.363 8.63896 190.749C8.82277 190.925 9.05453 191.045 9.31026 191.229C9.61394 190.484 9.03056 189.411 10.2533 189.163C10.8926 189.595 10.9565 190.252 10.9166 190.941C10.8447 192.206 11.0924 193.279 12.4989 193.76C12.6268 192.791 12.7467 191.806 12.8905 190.676C13.2741 190.676 13.8335 190.516 14.0173 190.709C14.2811 190.989 14.361 191.533 14.361 191.958C14.361 192.679 14.2491 193.4 14.1532 194.112C14.0813 194.673 14.305 195.082 14.8405 195.162C15.3599 195.226 15.5997 194.841 15.6956 194.353C15.8314 193.64 15.8394 192.847 16.6546 192.519C17.8293 192.519 17.5416 193.6 17.9252 194.329C18.3648 193.632 18.4767 192.439 19.4996 192.871C20.1389 193.151 20.5385 193.992 21.0899 194.641C21.1459 194.537 21.2258 194.409 21.2817 194.273C21.6653 193.304 21.945 193.175 22.8641 193.592C23.871 194.056 24.846 194.449 25.8609 193.552C25.9888 193.44 26.4443 193.568 26.6681 193.712C27.3873 194.16 27.6351 194.889 27.755 195.69C27.8109 196.059 27.8828 196.419 27.9627 196.844C28.2105 196.804 28.4582 196.755 28.7539 196.707C28.7539 195.955 27.8109 194.993 29.4012 194.425C29.625 195.114 29.8408 195.77 30.1365 196.659C30.2883 196.331 30.4881 196.115 30.4482 195.955C30.2484 195.033 30.0006 194.12 29.7449 193.215C29.625 192.775 29.4652 192.342 30.0566 192.118C30.584 191.918 30.8877 192.19 31.0635 192.663C31.4711 193.712 31.8787 194.769 32.3022 195.882C32.7977 195.746 33.3012 195.61 33.9485 195.442C33.7647 194.617 33.5889 193.816 33.413 193.007C33.3731 192.839 33.2852 192.687 33.2772 192.519C33.2452 191.982 33.1813 191.333 33.8366 191.197C34.0044 191.157 34.404 191.822 34.5638 192.214C34.8915 193.055 35.1312 193.928 35.4349 194.873C37.0892 194.473 38.272 193.448 39.3748 192.358C40.5416 191.197 41.6604 189.972 42.7233 188.706C43.5145 187.761 44.1778 186.712 44.905 185.719C45.3845 185.062 45.888 184.421 46.3755 183.773C46.4474 183.821 46.5193 183.869 46.5833 183.917C46.6152 183.861 46.6712 183.797 46.6712 183.741C46.6872 183.332 46.6952 182.916 46.7111 182.507C47.1107 182.571 47.5343 182.563 47.9099 182.699C50.4512 183.612 53.6798 182.499 54.9185 179.472C56.397 175.876 56.1173 172.36 54.6548 168.844C53.7118 166.577 52.3692 164.647 50.2195 163.397C49.2125 162.813 48.1097 162.604 47.0148 163.109C47.0867 163.173 47.1667 163.229 47.2386 163.293C47.1427 163.718 47.1027 164.158 46.9509 164.559C46.6952 165.223 46.3036 165.856 46.9908 166.545C45.6562 167.194 45.7601 168.443 45.6243 169.532C45.5523 170.149 45.7761 170.806 45.7681 171.439C45.7601 172.207 45.7761 173.008 45.5603 173.729C45.4005 174.25 44.897 174.674 44.4975 175.091C44.3536 175.235 44.0659 175.299 43.8421 175.299C43.1708 175.299 41.8842 174.274 41.8522 173.529C41.8203 172.6 41.3248 171.975 40.8453 171.294C40.7094 171.11 40.5736 170.838 40.6215 170.646C40.8373 169.773 40.3498 169.172 39.8783 168.579C39.4547 168.043 39.4228 167.554 39.9262 166.921C40.3018 167.05 40.7174 167.186 41.1809 167.346C41.2209 166.945 41.2608 166.553 41.3088 166.008H43.1628C42.6913 165.103 42.2598 164.158 41.7004 163.293C41.4287 162.869 41.069 162.476 41.4686 162.06C41.7483 161.779 42.2438 161.723 42.6514 161.579C42.7313 161.547 42.8432 161.587 42.9471 161.603C42.2998 160.282 41.7164 158.992 40.5656 157.975C39.3988 156.934 39.4068 155.444 40.2619 153.738C41.9321 150.398 42.6434 146.914 41.6444 143.23C41.5485 142.886 41.3168 142.509 41.0371 142.301C38.8793 140.763 36.4499 139.786 33.9565 139.001C30.4242 137.88 26.8359 136.967 23.1118 136.735C20.4186 136.567 17.7175 136.527 15.0882 137.207C12.6348 137.84 10.525 139.162 8.59901 140.82C6.92875 142.253 5.75398 143.999 4.81896 145.945C4.77101 146.041 4.69109 146.13 4.69109 146.218C4.69109 146.554 4.72307 146.882 4.74704 147.259C5.57817 146.955 6.37733 146.65 7.19248 146.386C9.32625 145.673 11.484 145.625 13.6817 146.098C14.5847 146.298 14.6966 147.091 15.0483 147.675C15.304 148.1 13.9294 149.365 13.378 149.229C11.3561 148.717 9.35022 148.893 7.36829 149.381C6.39332 149.622 5.42632 149.934 4.50729 150.326C3.18867 150.895 2.95692 152.209 2.70118 153.418C1.78215 157.687 2.09382 162.02 2.18972 166.337ZM105.258 136.078C105.258 136.078 105.234 136.102 105.218 136.118L105.202 136.102C105.202 136.102 105.242 136.086 105.258 136.078Z" fill="#151A26"/>
<path d="M87.3095 84.0909C87.4694 82.3289 88.0448 81.7202 90.0187 81.7682C91.673 81.8163 93.3193 82.0165 94.9735 82.0726C96.8835 82.1287 98.7935 82.1287 100.712 82.1046C102.038 82.0806 103.373 81.9925 104.699 81.9124C106.154 81.8163 107.52 83.5062 107.289 84.7957C107.161 85.5566 106.953 86.3254 106.633 87.0142C105.714 88.9765 104.22 90.4902 102.462 91.6676C100.919 92.6927 99.1052 93.0692 97.2352 93.1012C95.9485 93.1332 91.2574 92.084 90.0826 91.163C89.6911 90.8506 89.2515 90.5543 88.9558 90.1538C87.6052 88.3598 87.1098 86.3014 87.3095 84.0909ZM98.1142 90.8186C98.8095 90.6424 99.6247 90.8106 100.136 90.1058L100.152 90.1218C101.958 89.5371 103.205 88.2797 104.188 86.7259C104.444 86.3335 104.627 85.901 104.851 85.4925C105.395 84.4994 105.083 83.8426 103.94 83.8106C102.925 83.7785 101.902 83.8827 100.879 83.9547C99.9443 84.0188 99.0013 84.1069 98.0583 84.203C96.6198 84.3392 95.2772 84.5955 94.502 86.0772C93.7988 87.4227 92.9916 88.7042 92.8318 90.274C94.566 91.1229 96.3081 91.2751 98.1142 90.8186Z" fill="#151A26"/>
<path d="M86.7179 72.7339C87.2694 72.8139 87.8208 72.894 88.3722 72.9741C88.3962 72.9261 88.4202 72.87 88.4441 72.822C88.4122 72.87 88.3802 72.9101 88.3482 72.9581C88.1404 74.0474 87.8448 75.0966 87.9486 76.2499C88.0605 77.4913 88.8677 78.7808 90.0664 79.2133C90.5699 79.3895 91.0494 79.7018 91.5609 79.7739C92.1842 79.862 92.8395 79.7579 93.4469 79.7339C93.5668 78.084 93.7106 78.084 92.2402 77.5794C90.6498 77.0348 90.0904 75.7133 90.506 74.0313C90.8976 72.4615 91.9525 71.3162 92.7836 70.0348C94.0223 68.1286 94.2381 66.2224 93.2071 64.1961C93.0153 63.8197 92.8635 63.3071 92.2561 63.5313C91.6168 63.7636 91.8805 64.2762 92.0084 64.6446C92.6317 66.5188 92.1762 68.0565 90.7457 69.394C90.2103 69.8986 89.8187 70.5554 89.3632 71.14C89.3632 71.14 89.3472 71.1561 89.3392 71.1641C89.3552 71.148 89.3632 71.14 89.3791 71.124C89.2033 70.0588 89.0275 68.9936 88.8517 67.9444C89.1394 68.0485 89.6269 68.2327 90.0984 68.4009C90.7377 67.4638 90.6498 67.0474 89.6748 66.6149C86.8298 65.3574 83.8809 65.0611 80.964 66.2144C80.005 66.5988 79.2218 67.5519 78.4945 68.3689C78.2548 68.6412 78.4546 69.3139 78.4546 69.7945L78.7423 69.9146C79.1499 69.6503 79.6373 69.4661 79.965 69.1217C81.3476 67.6561 83.0897 67.3998 84.9758 67.4638C84.3444 69.9146 84.9997 71.8609 86.7179 72.7499L86.7019 72.7339H86.7179Z" fill="#151A26"/>
<path d="M102.66 67.3514C102.612 68.4487 102.468 69.3297 102.564 70.1786C102.684 71.2679 103.267 72.213 104.266 72.6535C106.04 73.4464 107.639 72.5654 107.455 70.1706C107.415 69.6581 107.151 69.1695 106.919 68.4246C108.15 69.0814 109.269 69.6821 110.38 70.2828C110.484 70.2027 110.588 70.1146 110.691 70.0345C110.588 69.6661 110.58 69.2416 110.38 68.9532C109.357 67.5276 107.846 66.7748 106.24 66.2221C103.643 65.3251 101.045 65.5253 98.4642 66.3102C98.1365 66.4143 97.8169 66.6867 97.5851 66.959C97.4413 67.1272 97.3693 67.4876 97.4572 67.6718C97.5531 67.864 97.8728 68.0322 98.0966 68.0402C98.4882 68.0402 98.8878 67.888 99.2793 67.832C100.39 67.6718 101.509 67.5196 102.66 67.3674V67.3514Z" fill="#151A26"/>
<path d="M96.8425 58.6371C97.5458 59.422 98.0333 59.5982 98.9843 59.43C100.367 59.1897 101.869 59.43 103.284 59.6703C106.52 60.2149 109.357 61.6085 111.651 64.0353C111.859 64.2515 112.33 64.2275 112.682 64.3076C112.762 64.1875 112.85 64.0593 112.93 63.9392C112.466 63.2664 112.123 62.4575 111.523 61.9369C109.469 60.1589 107.304 58.517 104.722 57.5238C103.22 56.9472 101.717 57.0032 100.199 57.3877C99.3519 57.6039 98.4968 57.7962 97.6657 58.0524C97.3859 58.1405 97.1542 58.4048 96.8345 58.6371H96.8425Z" fill="#151A26"/>
<path d="M116.15 143.847C117.213 146.009 118.148 148.132 119.274 150.158C121.616 154.379 124.053 158.544 126.467 162.724C126.731 163.181 126.954 164.07 127.61 163.741C128.353 163.365 127.738 162.612 127.49 162.148C125.732 158.912 123.894 155.708 122.111 152.481C120.561 149.677 119.067 146.85 117.532 144.039C117.133 143.31 117.117 143.326 116.15 143.839V143.847Z" fill="#151A26"/>
<path d="M129.896 134.676V133.194C128.266 133.739 126.66 134.388 124.998 134.796C123.375 135.197 121.681 135.325 120.027 135.613C119.771 135.661 119.563 135.941 119.332 136.11C119.515 136.31 119.659 136.614 119.883 136.694C121.329 137.183 122.768 136.798 124.158 136.446C126.1 135.949 127.994 135.269 129.896 134.676Z" fill="#151A26"/>
<path d="M115.455 100.71L115.471 100.726L115.439 100.734L115.455 100.71Z" fill="#151A26"/>
<path d="M82.7942 99.4926L82.8182 99.5086C82.8182 99.4285 82.8182 99.3565 82.8262 99.2764H82.8182C82.8182 99.3565 82.8022 99.4205 82.7942 99.4926Z" fill="#151A26"/>
<path d="M86.7324 72.7494H86.6925L86.7164 72.7334L86.7324 72.7494Z" fill="#151A26"/>
<path d="M15.9516 163.021C16.2952 161.131 16.7347 159.256 16.9425 157.35C17.0384 156.493 16.7188 155.572 16.463 154.707C16.3991 154.483 15.8956 154.379 15.5999 154.219C15.544 154.515 15.4481 154.803 15.4401 155.1C15.4161 155.861 15.4401 156.613 15.4401 157.47C12.9067 156.213 10.5332 155.132 7.81608 155.252C6.39357 155.316 5.15486 155.821 4.11595 156.806C3.74833 157.15 3.51658 157.543 3.88419 158.063C3.98009 158.191 3.93214 158.432 3.94013 158.624C3.99607 159.785 3.98809 160.954 4.12395 162.1C4.25181 163.189 5.29072 163.573 6.24172 163.045C8.06382 162.036 7.96792 159.248 6.99294 157.751C6.91302 157.623 6.7372 157.559 6.56139 157.43C8.24762 156.758 12.3713 157.519 15.0086 158.984C14.3133 161.627 13.586 164.326 12.8828 167.033C12.4512 168.683 12.2594 170.341 12.5232 172.055C12.8588 174.322 14.3852 175.459 16.3112 176.236C16.7587 176.412 17.2702 176.516 17.7417 176.492C18.0054 176.484 18.4609 176.14 18.4609 175.956C18.4609 175.587 18.2851 175.107 18.0134 174.89C17.3101 174.33 16.519 173.881 15.7518 173.409C15.1284 173.032 14.7768 172.512 14.6809 171.791C14.5211 170.557 14.3532 169.356 14.7288 168.107C15.2243 166.433 15.576 164.711 15.9835 163.005L15.9596 163.021H15.9516Z" fill="#151A26"/>
<path d="M12.5949 181.426C12.2752 182.443 12.7787 182.82 13.458 183.1C15.5119 183.925 17.6536 184.285 19.8433 184.358C23.5594 184.478 27.1796 183.981 30.5201 182.227C31.4472 181.747 32.2224 180.986 33.1015 180.329C33.3332 180.569 33.5969 180.938 33.9486 181.194C34.2522 181.418 34.6518 181.506 35.0115 181.658C35.1074 181.25 35.419 180.745 35.2752 180.457C34.6039 179.12 33.533 178.142 32.1425 177.574C31.9027 177.478 31.4072 177.598 31.2714 177.798C31.1515 177.966 31.3033 178.415 31.4552 178.671C31.599 178.919 31.8867 179.087 32.1584 179.32C30.7999 180.553 29.1935 181.266 27.4194 181.666C24.1668 182.403 20.8822 182.852 17.5497 182.427C16.359 182.275 15.2002 181.883 14.0174 181.626C13.5459 181.522 13.0664 181.49 12.6029 181.426H12.5949Z" fill="#151A26"/>
<path d="M25.349 146.186C24.3101 146.274 23.391 146.274 22.504 146.45C21.8806 146.578 21.2013 146.738 21.0255 147.603C20.9456 147.988 20.5061 148.276 20.2823 148.645C20.1225 148.909 20.0425 149.221 19.9227 149.51C20.2264 149.598 20.554 149.798 20.8417 149.75C22.7038 149.47 24.5738 149.413 26.4518 149.534C28.9292 149.694 31.3187 150.214 33.6603 151.007C34.0359 151.135 34.4435 151.232 34.8351 151.24C35.0588 151.24 35.4424 151.063 35.4744 150.903C35.5303 150.671 35.4105 150.302 35.2347 150.118C33.3247 148.108 30.9591 146.931 28.25 146.458C27.251 146.282 26.2361 146.258 25.341 146.178L25.349 146.186Z" fill="#151A26"/>
<path d="M25.5742 157.495C27.1485 157.775 28.5231 157.911 29.8337 158.28C31.1524 158.648 32.3911 159.281 33.6857 159.737C33.9894 159.841 34.381 159.681 34.7246 159.649C34.5967 159.281 34.5808 158.744 34.325 158.568C31.3122 156.542 28.0196 155.564 24.3754 156.149C23.9519 156.213 23.5203 156.365 23.1367 156.558C22.5613 156.838 22.0738 157.198 22.6892 157.927C22.7771 158.031 22.6572 158.336 22.5853 158.536C22.1538 159.713 21.7222 160.883 21.922 162.172C22.1058 163.357 23.1607 163.894 24.0398 163.165C25.4303 162.004 26.3014 160.538 26.0217 158.624C25.9738 158.312 25.782 158.023 25.5742 157.511V157.495Z" fill="#151A26"/>
<path d="M49.133 174.274C49.5006 174.73 49.8842 175.163 50.2199 175.644C50.5076 176.06 50.8992 176.364 51.2908 176.028C51.5305 175.82 51.6744 175.147 51.5145 174.907C50.8912 173.946 50.124 173.073 49.2049 171.887C49.2609 170.79 49.5086 169.364 50.5076 168.139C50.6514 167.955 50.5635 167.578 50.5795 167.298C50.2518 167.29 49.7244 167.146 49.6285 167.298C49.0211 168.211 48.214 169.14 48.0222 170.165C47.6466 172.176 47.6386 174.258 47.4787 176.308C47.4787 176.372 47.4628 176.444 47.4787 176.5C47.6306 176.957 47.5826 177.67 48.2779 177.558C48.5097 177.518 48.7334 176.837 48.7894 176.428C48.8853 175.732 48.8453 175.011 48.8613 174.306C48.9572 174.306 49.0451 174.298 49.141 174.29L49.133 174.274Z" fill="#151A26"/>
<path d="M25.6449 154.612C26.0525 154.812 26.4361 155.116 26.8676 155.204C27.9545 155.421 29.0733 155.469 30.1522 155.717C31.295 155.981 32.3898 156.414 33.5246 156.718C33.8603 156.806 34.2439 156.702 34.6035 156.686C34.4597 156.318 34.4277 155.789 34.156 155.605C32.5177 154.516 30.6237 154.211 28.7137 153.987C28.0823 153.915 27.451 153.819 26.8197 153.835C26.4441 153.843 26.0684 154.059 25.6928 154.179C25.6769 154.323 25.6689 154.459 25.6529 154.604L25.6449 154.612Z" fill="#151A26"/>
<path d="M6.10499 154.86C6.5765 154.796 7.05599 154.644 7.5275 154.676C9.03792 154.788 10.5324 154.98 12.0428 155.108C12.3544 155.132 12.6821 154.988 13.0098 154.924C12.8419 154.628 12.754 154.163 12.5063 154.067C10.5723 153.266 8.58239 153.122 6.57649 153.779C6.30478 153.867 6.12896 154.235 5.9052 154.475C5.97712 154.604 6.04105 154.732 6.11298 154.868L6.10499 154.86Z" fill="#151A26"/>
<path d="M22.9519 188.626C23.2476 188.506 23.7831 188.378 24.1906 188.081C24.4064 187.921 24.3984 187.457 24.4863 187.128C24.1986 187.08 23.9109 186.96 23.6392 187C23.1517 187.064 22.6642 187.192 22.1927 187.353C21.8811 187.465 21.5934 187.673 21.2977 187.833C21.5694 188.073 21.8251 188.346 22.1208 188.538C22.2726 188.634 22.5124 188.586 22.9359 188.626H22.9519Z" fill="#151A26"/>
<path d="M15.9746 163.005C15.9746 163.005 15.958 163.013 15.9498 163.021L15.9746 163.005Z" fill="#151A26"/>
<path d="M83.2243 158.888C84.5589 158.6 85.8935 158.184 87.1402 157.639C91.12 155.917 94.1329 152.801 97.5293 150.247C98.9678 149.165 99.9348 149.285 100.47 151.023C101.197 153.386 101.661 155.789 101.221 158.28C101.158 158.36 101.086 158.432 101.054 158.52C100.51 160.066 99.9668 161.62 99.4154 163.165C99.3674 163.325 99.3195 163.502 99.2076 163.614C97.9049 164.991 96.4185 166.121 94.5644 166.641C92.3827 167.25 90.233 167.01 88.0193 166.569C85.7656 166.121 84.0075 164.967 82.3452 163.526C82.0175 163.245 81.6579 162.941 81.4581 162.565C80.2914 160.386 80.8268 159.401 83.2243 158.888ZM84.9025 160.763C90.0491 162.012 94.996 157.911 94.7802 154.579C91.9911 157.551 88.7865 159.545 84.9025 160.763ZM87.7955 164.407C89.5297 164.871 91.2559 165.448 93.1339 165.144C95.6273 164.743 97.6732 163.95 98.3445 161.083C98.5602 160.178 98.8879 159.297 99.2236 158.192C98.0648 158.031 97.0338 157.871 95.9869 157.775C95.8351 157.759 95.6193 158.031 95.4994 158.216C93.6454 161.139 90.9682 162.573 87.5398 162.629C86.4369 162.645 85.3341 162.629 84.2792 162.629C85.1742 163.558 86.4769 164.062 87.7955 164.407Z" fill="#151A26"/>
<path d="M72.212 136.863C72.0202 135.87 71.3728 135.918 70.5497 135.998C67.2252 136.343 64.476 137.704 62.638 140.539C61.9027 141.669 61.4952 143.022 61.0316 144.312C60.8398 144.832 60.8319 145.529 61.4632 145.833C62.1025 146.146 62.598 145.753 63.0296 145.281C64.1724 144.023 65.3232 142.782 66.466 141.525C67.9844 139.843 69.8704 138.866 72.1081 138.561C72.4917 138.505 72.9232 138.409 73.2269 138.185C73.5066 137.977 73.8343 137.544 73.7863 137.272C73.7144 136.831 73.2988 136.559 72.7634 136.783C72.6115 136.847 72.4357 136.839 72.204 136.871L72.212 136.863Z" fill="#151A26"/>
<path d="M91.8008 147.443C91.7448 145.841 91.617 144.239 90.2664 143.134C89.7469 142.71 89.0996 142.389 88.4603 142.181C87.0218 141.724 85.5513 141.356 84.0888 140.98C82.7942 140.643 81.7793 139.93 80.9242 138.913C80.7084 138.657 80.109 138.433 79.8693 138.553C79.3978 138.793 79.5975 139.234 79.8373 139.674C80.8043 141.436 82.4026 142.317 84.2007 142.91C85.4394 143.318 86.7021 143.663 87.9568 144.039C88.8359 144.303 89.4912 144.944 89.5871 145.793C89.7469 147.203 89.7309 148.644 89.635 150.07C89.6031 150.583 89.0676 151.047 88.8758 151.576C88.724 152.008 88.5162 152.681 88.724 152.945C89.1555 153.498 89.691 153.097 90.0906 152.681C91.5211 151.215 91.8168 149.381 91.7928 147.443H91.8008Z" fill="#151A26"/>
<path d="M89.1866 125.017C87.4365 124.945 85.7502 125.274 84.1998 126.067C83.1929 126.579 82.2419 127.228 81.7704 128.373C81.6345 128.702 81.3628 128.982 81.1231 129.262C80.8354 129.607 80.7315 129.863 81.0351 130.319C82.0261 131.833 81.9462 131.801 83.3208 130.48C84.6234 129.23 86.2377 128.461 87.9319 127.877C89.7301 127.252 91.5521 127.18 93.4222 127.388C93.638 127.412 94.0056 127.148 94.0855 126.932C94.1654 126.707 94.0296 126.363 93.9017 126.123C93.8218 125.979 93.574 125.89 93.3822 125.834C91.9997 125.474 90.6171 125.13 89.2346 124.785C89.2186 124.857 89.1946 124.937 89.1786 125.009L89.1866 125.017Z" fill="#151A26"/>
<path d="M63.9101 152.393C64.893 152.345 65.8041 152.137 66.5393 151.28C65.7401 151.168 65.0289 151.135 64.3736 150.951C64.0859 150.871 63.8941 150.463 63.6543 150.206C63.958 150.086 64.2617 149.862 64.5654 149.87C65.1568 149.894 65.7481 150.046 66.3795 150.15C66.2276 148.212 66.875 146.634 68.4973 145.681C69.4882 145.105 70.647 144.704 71.7738 144.52C73.6039 144.208 75.482 144.216 77.2641 144.864C77.5278 144.96 77.6637 145.449 77.8555 145.753C77.5358 145.922 77.2401 146.186 76.9045 146.242C76.5608 146.298 76.1852 146.138 75.8176 146.106C73.8117 145.938 71.8378 145.97 70.0077 146.955C68.4973 147.772 68.0337 149.085 68.4014 150.759C68.5212 151.272 68.2016 152.217 67.802 152.433C66.6112 153.074 65.3965 153.899 63.926 153.61C63.5424 153.538 62.9511 153.17 62.9191 152.897C62.8632 152.257 63.4865 152.417 63.9101 152.393ZM66.4034 150.839L66.3795 150.911H66.4434L66.4034 150.839Z" fill="#151A26"/>
<path d="M93.4384 132.819C93.3265 132.434 93.2945 132.122 93.1507 131.874C92.903 131.449 92.4075 131.409 92.3036 131.85C92.0878 132.747 91.3766 132.667 90.8012 132.755C89.5944 132.947 88.5235 133.379 87.6764 134.268C87.3568 134.597 87.0131 134.973 86.8693 135.39C86.3738 136.855 85.9502 138.345 85.5427 139.843C85.4068 140.331 85.3269 140.884 86.0222 141.1C86.7094 141.316 86.9732 140.772 87.165 140.347C87.5486 139.458 87.7883 138.505 88.1319 137.6C89.1948 134.749 90.5934 133.9 93.5902 134.252C94.5972 134.373 95.1646 134.028 95.6441 133.011C95.9957 132.266 95.8279 131.049 95.2285 130.576C95.0207 130.408 94.6132 130.384 94.3415 130.464C94.2296 130.496 94.1337 131.025 94.2296 131.233C94.5972 132.034 94.3894 132.514 93.4544 132.835L93.4384 132.819Z" fill="#151A26"/>
<path d="M100.663 164.631C100.311 164.727 99.8799 164.735 99.6162 164.943C98.8251 165.568 98.0818 166.241 97.3706 166.954C97.1548 167.17 97.0989 167.562 96.971 167.875C97.3306 167.883 97.7941 168.043 98.0339 167.875C98.889 167.274 99.6882 166.593 100.447 165.88C100.679 165.664 100.735 165.248 100.879 164.927C100.807 164.823 100.743 164.727 100.671 164.623L100.663 164.631Z" fill="#151A26"/>
<path d="M74.203 148.164C72.8604 148.164 72.1412 149.125 71.3021 149.838C71.2461 149.886 71.4619 150.487 71.6457 150.543C72.4529 150.791 74.219 149.205 74.203 148.156V148.164Z" fill="#151A26"/>
<path d="M89.8337 139.017C90.6489 139.057 92.0714 138.048 92.1034 137.375C92.1113 137.111 91.8157 136.831 91.6398 136.534C89.9536 137.808 89.7618 138.08 89.8337 139.009V139.017Z" fill="#151A26"/>
<path d="M61.8631 139.866V139.93L61.8711 139.89L61.8631 139.866Z" fill="#151A26"/>
<path d="M101.23 158.264L101.206 158.328L101.222 158.288L101.23 158.264Z" fill="#151A26"/>
<path d="M72.6831 113.74L72.6431 113.756L72.707 113.748L72.6831 113.74Z" fill="#151A26"/>
<path d="M100.15 90.1135L100.126 90.0654L100.134 90.1055L100.15 90.1135Z" fill="#151A26"/>
<path d="M23.23 106.148H15.6843C14.2018 106.148 13 107.347 13 108.825V116.349C13 117.828 14.2018 119.026 15.6843 119.026H23.23C24.7125 119.026 25.9143 117.828 25.9143 116.349V108.825C25.9143 107.347 24.7125 106.148 23.23 106.148Z" fill="white" fill-opacity="0.18"/>
<path d="M20.6848 113.432H21.8593V114.414H20.5682L20.3875 115.855H19.3674L19.5481 114.414H18.222L18.0413 115.855H17.0299L17.2106 114.414H16.0273V113.432H17.3272L17.5167 111.973H16.3334V110.99H17.6333L17.814 109.549H18.8253L18.6446 110.99H19.9707L20.1514 109.549H21.1628L20.9821 110.99H22.1566L22.1654 111.973H20.8655L20.6848 113.432ZM19.6647 113.432L19.8541 111.973H18.528L18.3386 113.432H19.6647Z" fill="white"/>
<path d="M41.2005 51.5186H47.3793C48.5947 51.5186 49.5798 52.5009 49.5798 53.7128V59.874C49.5798 61.0859 48.5947 62.0682 47.3793 62.0682H41.2005C39.9851 62.0682 39 61.0859 39 59.874V53.7128C39 52.5009 39.9851 51.5186 41.2005 51.5186Z" fill="white" fill-opacity="0.19"/>
<path d="M42.8183 56.5635H41.8652V59.4959H42.8183V56.5635Z" fill="white"/>
<path d="M44.4711 54.8779H43.4277V59.5395H44.4711V54.8779Z" fill="white"/>
<path d="M46.2309 53.7012H45.1875V59.5398H46.2309V53.7012Z" fill="white"/>
</g>
<path d="M60.3465 72H15.9805C14.8867 72 14 72.8867 14 73.9805V94.7056C14 95.7994 14.8867 96.6861 15.9805 96.6861H60.3465C61.4403 96.6861 62.3271 95.7994 62.3271 94.7056V73.9805C62.3271 72.8867 61.4403 72 60.3465 72Z" stroke="white" stroke-width="0.71" stroke-linecap="round" stroke-linejoin="round"/>
<path d="M14 94.7024L25.8205 85.2109L31.7307 90.7758L42.8575 82.0815L48.4193 87.6465L62.3271 73.9805" stroke="white" stroke-width="0.71" stroke-linecap="round" stroke-linejoin="round"/>
<path d="M19.3385 91.1556C19.3385 91.6358 18.9493 92.025 18.469 92.025C17.9888 92.025 17.5996 91.6358 17.5996 91.1556C17.5996 90.6753 17.9888 90.2861 18.469 90.2861C18.9493 90.2861 19.3385 90.6753 19.3385 91.1556Z" fill="#8A8A8A"/>
<path d="M26.6998 85.1858C26.6998 85.6661 26.3106 86.0553 25.8304 86.0553C25.3501 86.0553 24.9609 85.6661 24.9609 85.1858C24.9609 84.7056 25.3501 84.3164 25.8304 84.3164C26.3106 84.3164 26.6998 84.7056 26.6998 85.1858Z" fill="#8A8A8A"/>
<path d="M37.4771 87.3294C37.4771 87.8096 37.0879 88.1988 36.6077 88.1988C36.1275 88.1988 35.7383 87.8096 35.7383 87.3294C35.7383 86.8492 36.1275 86.46 36.6077 86.46C37.0879 86.46 37.4771 86.8492 37.4771 87.3294Z" fill="#8A8A8A"/>
<path d="M56.6021 80.5501C56.6021 81.0303 56.2129 81.4195 55.7327 81.4195C55.2525 81.4195 54.8633 81.0303 54.8633 80.5501C54.8633 80.0699 55.2525 79.6807 55.7327 79.6807C56.2129 79.6807 56.6021 80.0699 56.6021 80.5501Z" fill="#8A8A8A"/>
<path d="M43.7935 82.056C43.7935 82.5362 43.4043 82.9254 42.9241 82.9254C42.4439 82.9254 42.0547 82.5362 42.0547 82.056C42.0547 81.5757 42.4439 81.1865 42.9241 81.1865C43.4043 81.1865 43.7935 81.5757 43.7935 82.056Z" fill="#8A8A8A"/>
<path d="M30.3443 76.1709H19.9112C19.3357 76.1709 18.8691 76.6374 18.8691 77.213V77.2161C18.8691 77.7916 19.3357 78.2582 19.9112 78.2582H30.3443C30.9199 78.2582 31.3864 77.7916 31.3864 77.2161V77.213C31.3864 76.6374 30.9199 76.1709 30.3443 76.1709Z" fill="#8A8A8A"/>
<path d="M56.4174 94.2501H45.9874C45.413 94.2501 44.9453 93.7793 44.9453 93.2081C44.9453 92.6337 45.4161 92.166 45.9874 92.166H56.4174C56.9918 92.166 57.4594 92.6368 57.4594 93.2081C57.4594 93.7825 56.9886 94.2501 56.4174 94.2501Z" fill="#8A8A8A"/>
<path d="M109.955 0H101.139C99.4053 0 98 1.40526 98 3.13873V11.9554C98 13.6889 99.4053 15.0942 101.139 15.0942H109.955C111.689 15.0942 113.094 13.6889 113.094 11.9554V3.13873C113.094 1.40526 111.689 0 109.955 0Z" fill="white" fill-opacity="0.29"/>
<path d="M107.985 10.9983C107.564 11.4095 106.956 11.6637 106.158 11.7642V12.9475H105.104V11.7987C104.583 11.7705 104.087 11.6794 103.616 11.5256C103.145 11.3718 102.765 11.1804 102.477 10.9544L103.057 9.6675C103.324 9.86524 103.638 10.0285 103.996 10.1634C104.354 10.2984 104.724 10.38 105.104 10.4177V8.65683C104.605 8.53756 104.181 8.40259 103.839 8.25507C103.494 8.10755 103.205 7.89098 102.972 7.60535C102.74 7.31973 102.624 6.94308 102.624 6.47227C102.624 5.88847 102.838 5.38627 103.261 4.96882C103.688 4.55137 104.3 4.29399 105.104 4.20297V3.03223H106.158V4.18414C107.025 4.25319 107.737 4.46977 108.299 4.82758L107.772 6.12387C107.244 5.82255 106.704 5.63737 106.158 5.57459V7.36681C106.651 7.47981 107.069 7.60849 107.408 7.75287C107.75 7.89725 108.035 8.11069 108.268 8.39632C108.5 8.68194 108.616 9.05545 108.616 9.51998C108.616 10.0975 108.406 10.5903 107.982 11.0015L107.985 10.9983ZM104.523 6.81439C104.658 6.92739 104.849 7.02155 105.104 7.10002V5.60285C104.837 5.66562 104.639 5.76606 104.514 5.90416C104.388 6.04227 104.325 6.20234 104.325 6.38439C104.325 6.56644 104.391 6.70454 104.526 6.81754L104.523 6.81439ZM106.73 10.0975C106.855 9.97196 106.918 9.8213 106.918 9.6424C106.918 9.46349 106.852 9.32224 106.723 9.20925C106.591 9.09625 106.406 8.99895 106.158 8.91421V10.3706C106.413 10.3141 106.601 10.2231 106.73 10.0975Z" fill="#292E3C"/>
<path d="M56.8311 9H64.7847C66.3478 9 67.6158 10.268 67.6158 11.8311V19.7847C67.6158 21.3478 66.3478 22.6158 64.7847 22.6158H56.8311C55.268 22.6158 54 21.3478 54 19.7847V11.8311C54 10.268 55.268 9 56.8311 9Z" fill="#36433E"/>
<path d="M56.0312 19.22L59.013 15.2464L61.3608 18.0461L64.6125 13.3506" stroke="white" stroke-miterlimit="10"/>
<path d="M65.3082 12.3486L65.1607 14.009L65.01 15.6725L63.6446 14.7121L62.2793 13.7516L63.7953 13.0517L65.3082 12.3486Z" fill="white"/>
<defs>
<clipPath id="clip0_6950_17333">
<rect width="130" height="175" fill="white" transform="matrix(-1 0 0 1 130 33)"/>
</clipPath>
</defs>
</svg>
