<svg width="388" height="70" viewBox="0 0 388 70" fill="none" xmlns="http://www.w3.org/2000/svg">
<path d="M194 26V26C216.557 26 238.286 0 260.842 0H353C367.045 0 374.067 0 379.111 3.37061C381.295 4.82978 383.17 6.70479 384.629 8.8886C388 13.9331 388 20.9554 388 35C388 49.0446 388 56.0669 384.629 61.1114C383.17 63.2952 381.295 65.1702 379.111 66.6294C374.067 70 367.045 70 353 70H35C20.9554 70 13.9331 70 8.8886 66.6294C6.70479 65.1702 4.82978 63.2952 3.37061 61.1114C0 56.0669 0 49.0446 0 35C0 20.9554 0 13.9331 3.37061 8.8886C4.82978 6.70479 6.70479 4.82978 8.8886 3.37061C13.9331 0 20.9554 0 35 0H127.158C149.714 0 171.443 26 194 26V26Z" fill="url(#paint0_linear_1_41)"/>
<defs>
<linearGradient id="paint0_linear_1_41" x1="194" y1="0" x2="194" y2="70" gradientUnits="userSpaceOnUse">
<stop stop-color="#00D37F"/>
<stop offset="1" stop-color="#104F55"/>
</linearGradient>
</defs>
</svg>
