<svg width="115" height="86" viewBox="0 0 115 86" fill="none" xmlns="http://www.w3.org/2000/svg">
<g clip-path="url(#clip0_6628_18378)">
<path d="M90.6469 22.6283C93.2835 26.1858 95.2469 30.2581 96.4761 34.5366C97.7032 38.8174 98.2006 43.3044 97.9964 47.7481C97.7901 52.1939 96.8562 56.6006 95.2512 60.7423C94.4541 62.8142 93.4855 64.8189 92.354 66.7258C91.2268 68.6348 89.9519 70.4527 88.5293 72.1467C88.4033 72.2966 88.1796 72.3161 88.0276 72.1902C87.8821 72.0664 87.8604 71.8514 87.9755 71.7015C89.3025 69.9792 90.5057 68.1657 91.5547 66.2675C92.5994 64.3693 93.505 62.3951 94.25 60.3644C95.7399 56.3008 96.5652 52.0092 96.7411 47.6959C96.815 45.5371 96.7433 43.3739 96.4913 41.2303C96.2394 39.0867 95.8116 36.9669 95.2382 34.8863C94.0893 30.725 92.3149 26.7462 90.0583 23.0279C89.9562 22.8585 90.0105 22.6392 90.1777 22.5393C90.3363 22.4437 90.5405 22.4871 90.649 22.6305L90.6469 22.6283Z" fill="#CEFD1E"/>
<path d="M61.5482 4.55859C63.6179 4.63027 65.6725 4.99514 67.6706 5.54679C68.1702 5.68796 68.6653 5.84216 69.1584 5.99854C69.6492 6.1636 70.1357 6.34386 70.6244 6.51761C71.1087 6.70005 71.5887 6.89986 72.0708 7.09098C72.5486 7.28862 73.0177 7.51232 73.4912 7.72299C75.3699 8.6026 77.1747 9.62989 78.8861 10.7962C79.3118 11.0915 79.7288 11.3956 80.1501 11.6953C80.5628 12.0081 80.9646 12.3317 81.3729 12.6488L82.5566 13.6457C82.941 13.9888 83.3145 14.345 83.6946 14.6947C83.838 14.8272 83.8488 15.053 83.7142 15.1964C83.5882 15.3332 83.3775 15.3484 83.2342 15.2355L83.2233 15.2268L82.031 14.2864L80.8147 13.3829L79.5681 12.525L78.2975 11.704C76.5861 10.6398 74.8052 9.6907 72.97 8.86757L71.5821 8.27682C71.113 8.09655 70.6482 7.90543 70.177 7.73168C69.7013 7.56879 69.23 7.39504 68.7522 7.23867L67.3144 6.78692C65.388 6.20704 63.4333 5.73357 61.4548 5.26662C61.2636 5.22101 61.1442 5.02989 61.1876 4.83876C61.2267 4.66936 61.3809 4.55859 61.5482 4.56294V4.55859Z" fill="#CEFD1E"/>
<path d="M88.8289 12.7422L89.2936 14.8663C89.4587 15.6177 90.0451 16.2041 90.7944 16.367L92.9185 16.8318L90.7944 17.2966C90.0429 17.4616 89.4565 18.048 89.2936 18.7973L88.8289 20.9214L88.3641 18.7973C88.199 18.0459 87.6126 17.4595 86.8633 17.2966L84.7393 16.8318L86.8633 16.367C87.6148 16.202 88.2012 15.6156 88.3641 14.8663L88.8289 12.7422Z" fill="#CEFD1E"/>
<path d="M20.8519 23.026C18.5954 26.7442 16.8209 30.7231 15.672 34.8844C15.0987 36.965 14.6708 39.0847 14.4189 41.2284C14.1648 43.372 14.0931 45.5352 14.1691 47.694C14.345 52.0073 15.1703 56.3011 16.6602 60.3625C17.4073 62.3931 18.3108 64.3674 19.3555 66.2656C20.4045 68.1638 21.6077 69.9773 22.9347 71.6996C23.0542 71.8538 23.0259 72.0775 22.8717 72.1991C22.7197 72.3164 22.5047 72.2903 22.3831 72.147C20.9605 70.4529 19.6856 68.6351 18.5584 66.726C17.4269 64.8191 16.4582 62.8145 15.6612 60.7425C14.0583 56.6008 13.1223 52.1941 12.9159 47.7483C12.7118 43.3047 13.2113 38.8198 14.4362 34.5369C15.6655 30.2583 17.6289 26.1861 20.2655 22.6286C20.3828 22.47 20.6043 22.4374 20.7629 22.5547C20.9106 22.6655 20.9496 22.8675 20.8563 23.0238L20.8519 23.026Z" fill="#CEFD1E"/>
<path d="M49.4554 5.26194C47.4769 5.72889 45.5222 6.20235 43.5957 6.78224L42.158 7.23399C41.6802 7.39036 41.2089 7.56411 40.7332 7.727C40.2619 7.90075 39.7972 8.09187 39.328 8.27214L37.9402 8.86288C36.105 9.68602 34.3241 10.6351 32.6126 11.6993L31.3421 12.5203L30.0955 13.3782L28.8792 14.2817L27.6869 15.2221L27.676 15.2308C27.5218 15.3524 27.2981 15.3263 27.1765 15.1721C27.0614 15.0266 27.0809 14.8159 27.2156 14.69C27.5935 14.3403 27.967 13.9863 28.3536 13.641L29.5373 12.6441C29.9434 12.327 30.3474 12.0034 30.76 11.6906C31.1814 11.3909 31.6006 11.0869 32.0241 10.7915C33.7333 9.6252 35.5403 8.59791 37.419 7.71831C37.8924 7.50764 38.3616 7.28394 38.8394 7.0863C39.3215 6.89518 39.7993 6.69536 40.2858 6.51293C40.7745 6.34135 41.261 6.15891 41.7518 5.99385C42.247 5.83748 42.7422 5.68328 43.2396 5.54211C45.2377 4.99045 47.2922 4.62558 49.362 4.55391C49.5597 4.54739 49.7247 4.7016 49.7312 4.89924C49.7378 5.07298 49.6183 5.22067 49.4554 5.25976V5.26194Z" fill="#CEFD1E"/>
<path d="M22.0813 12.7422L21.6165 14.8663C21.4515 15.6177 20.8651 16.2041 20.1158 16.367L17.9917 16.8318L20.1158 17.2966C20.8672 17.4616 21.4536 18.048 21.6165 18.7973L22.0813 20.9214L22.5461 18.7973C22.7112 18.0459 23.2976 17.4595 24.0468 17.2966L26.1709 16.8318L24.0468 16.367C23.2954 16.202 22.709 15.6156 22.5461 14.8663L22.0813 12.7422Z" fill="#CEFD1E"/>
<path d="M56.2508 0L55.9685 1.2966C55.8686 1.75486 55.5102 2.11322 55.052 2.21313L53.7554 2.49547L55.052 2.77781C55.5102 2.87771 55.8686 3.23607 55.9685 3.69433L56.2508 4.99093L56.5332 3.69433C56.6331 3.23607 56.9914 2.87771 57.4497 2.77781L58.7463 2.49547L57.4497 2.21313C56.9914 2.11322 56.6331 1.75486 56.5332 1.2966L56.2508 0Z" fill="#CEFD1E"/>
<path d="M95.6053 20.1484L95.323 21.445C95.2231 21.9033 94.8647 22.2617 94.4065 22.3616L93.1099 22.6439L94.4065 22.9262C94.8647 23.0262 95.2231 23.3845 95.323 23.8428L95.6053 25.1394L95.8877 23.8428C95.9876 23.3845 96.3459 23.0262 96.8042 22.9262L98.1008 22.6439L96.8042 22.3616C96.3459 22.2617 95.9876 21.9033 95.8877 21.445L95.6053 20.1484Z" fill="#CEFD1E"/>
<path d="M14.7728 20.0068L14.4905 21.3034C14.3906 21.7617 14.0322 22.1201 13.5739 22.22L12.2773 22.5023L13.5739 22.7846C14.0322 22.8846 14.3906 23.2429 14.4905 23.7012L14.7728 24.9978L15.0552 23.7012C15.1551 23.2429 15.5134 22.8846 15.9717 22.7846L17.2683 22.5023L15.9717 22.22C15.5134 22.1201 15.1551 21.7617 15.0552 21.3034L14.7728 20.0068Z" fill="#CEFD1E"/>
<path d="M56.0035 85.6672C77.7142 85.6672 95.3142 68.0672 95.3142 46.3566C95.3142 24.6459 77.7142 7.0459 56.0035 7.0459C34.2929 7.0459 16.6929 24.6459 16.6929 46.3566C16.6929 68.0672 34.2929 85.6672 56.0035 85.6672Z" fill="#CEFD1E"/>
<path d="M47.8503 23.365C47.7286 23.365 47.607 23.3151 47.5223 23.2151L45.6393 21.0433C45.4829 20.8608 45.5025 20.5872 45.6828 20.4308C45.863 20.2744 46.1388 20.294 46.2952 20.4743L48.1782 22.6461C48.3346 22.8286 48.315 23.1022 48.1348 23.2586C48.0523 23.3303 47.9502 23.365 47.8503 23.365Z" fill="white"/>
<path d="M51.7052 23.1609C51.5358 23.1609 51.3751 23.061 51.3056 22.896L49.0751 17.6466C48.9817 17.425 49.0838 17.1709 49.3053 17.0775C49.5269 16.9842 49.781 17.0862 49.8744 17.3078L52.1049 22.5572C52.1982 22.7787 52.0962 23.0328 51.8746 23.1262C51.8203 23.1501 51.7617 23.1609 51.7052 23.1609Z" fill="white"/>
<path d="M64.1567 23.365C64.0568 23.365 63.9547 23.3303 63.8722 23.2586C63.6919 23.1022 63.6724 22.8264 63.8288 22.6461L65.7118 20.4743C65.8681 20.294 66.144 20.2744 66.3242 20.4308C66.5045 20.5872 66.524 20.863 66.3677 21.0433L64.4847 23.2151C64.3978 23.3151 64.2783 23.365 64.1567 23.365Z" fill="white"/>
<path d="M60.3014 23.1609C60.2449 23.1609 60.1863 23.1501 60.132 23.1262C59.9105 23.0328 59.8084 22.7765 59.9018 22.5572L62.1323 17.3078C62.2257 17.0862 62.4819 16.9842 62.7013 17.0775C62.9228 17.1709 63.0249 17.4272 62.9315 17.6466L60.701 22.896C60.6315 23.061 60.4708 23.1609 60.3014 23.1609Z" fill="white"/>
<path d="M56.0297 22.8587C56.0167 22.8587 56.0058 22.8587 55.9928 22.8587C55.7539 22.8392 55.5758 22.6285 55.5953 22.3896C55.7213 20.8693 55.6757 19.0536 55.6301 17.2966C55.5845 15.5178 55.5367 13.6761 55.667 12.1102C55.6866 11.8713 55.8972 11.691 56.1361 11.7127C56.375 11.7323 56.5531 11.9429 56.5336 12.1818C56.4076 13.7021 56.4532 15.5178 56.4988 17.2748C56.5444 19.0536 56.5922 20.8953 56.4619 22.4612C56.4424 22.6893 56.2534 22.8609 56.0297 22.8609V22.8587Z" fill="white"/>
<path d="M66.0397 71.6541C65.9181 71.6541 65.7965 71.6041 65.7118 71.5042L63.8288 69.3323C63.6724 69.1521 63.6919 68.8763 63.8722 68.7199C64.0525 68.5635 64.3283 68.5831 64.4847 68.7633L66.3677 70.9352C66.524 71.1176 66.5045 71.3913 66.3242 71.5476C66.2417 71.6193 66.1396 71.6541 66.0397 71.6541Z" fill="white"/>
<path d="M62.5319 74.9353C62.3625 74.9353 62.2018 74.8354 62.1323 74.6704L59.9018 69.421C59.8084 69.1995 59.9105 68.9454 60.132 68.852C60.3535 68.7586 60.6076 68.8607 60.701 69.0822L62.9315 74.3316C63.0249 74.5531 62.9228 74.8072 62.7013 74.9006C62.647 74.9245 62.5884 74.9353 62.5319 74.9353Z" fill="white"/>
<path d="M45.9673 71.6541C45.8674 71.6541 45.7653 71.6193 45.6828 71.5476C45.5025 71.3913 45.4829 71.1154 45.6393 70.9352L47.5223 68.7633C47.6787 68.5831 47.9545 68.5635 48.1348 68.7199C48.315 68.8763 48.3346 69.1521 48.1782 69.3323L46.2952 71.5042C46.2083 71.6041 46.0889 71.6541 45.9673 71.6541Z" fill="white"/>
<path d="M49.4747 74.9353C49.4183 74.9353 49.3596 74.9245 49.3053 74.9006C49.0838 74.8072 48.9817 74.5509 49.0751 74.3316L51.3056 69.0822C51.399 68.8607 51.6553 68.7586 51.8746 68.852C52.0962 68.9454 52.1982 69.2016 52.1049 69.421L49.8744 74.6704C49.8049 74.8354 49.6441 74.9353 49.4747 74.9353Z" fill="white"/>
<path d="M55.9037 80.2676C55.8907 80.2676 55.8798 80.2676 55.8668 80.2676C55.6279 80.248 55.4498 80.0374 55.4694 79.7984C55.5953 78.2781 55.5497 76.4625 55.5041 74.7054C55.4585 72.9267 55.4107 71.0849 55.541 69.519C55.5606 69.2801 55.7713 69.102 56.0102 69.1216C56.2491 69.1411 56.4272 69.3518 56.4076 69.5907C56.2816 71.111 56.3272 72.9267 56.3729 74.6837C56.4185 76.4625 56.4663 78.3042 56.3359 79.8701C56.3164 80.0982 56.1274 80.2697 55.9037 80.2697V80.2676Z" fill="white"/>
<mask id="mask0_6628_18378" style="mask-type:luminance" maskUnits="userSpaceOnUse" x="0" y="20" width="110" height="54">
<path d="M109.486 20.5107V73.5041H0.892578V20.5107" fill="white"/>
</mask>
<g mask="url(#mask0_6628_18378)">
<path d="M114.583 39.8919L94.6384 40.5066C93.0877 41.0517 90.1318 41.0539 88.5377 40.6499L88.3574 40.6043C86.8827 40.2286 85.5383 39.4576 84.4698 38.3716L76.5055 30.2815C75.4826 29.2411 74.136 28.5765 72.6896 28.3963L62.2321 27.0888C60.5424 26.8781 58.9439 27.9054 58.4335 29.5322L57.0066 34.0887L54.522 53.3401C54.522 53.3401 54.7348 56.8259 57.9014 58.5091C58.5812 58.8696 59.0438 59.5473 59.1437 60.3096C59.4478 62.6291 61.4936 67.2378 73.0045 66.9707C73.0045 66.9707 80.4301 66.8795 83.4946 65.2918C84.7586 64.6381 86.1182 64.1929 87.5147 63.9149L94.2453 62.514C94.5819 62.4445 94.9229 62.4033 95.2661 62.3902L114.678 61.7018L114.587 39.8919H114.583Z" fill="#E49371"/>
<path d="M58.779 32.9924C58.488 32.9837 58.2816 32.7014 58.3663 32.4212C58.488 32.0194 58.64 31.5894 58.8203 31.268C59.3328 30.3514 60.119 29.6543 61.155 29.4045C62.0303 29.196 62.9446 29.3111 63.8373 29.4284C66.0135 29.7129 68.2396 29.8867 70.3985 30.2885C71.8558 30.5599 73.0134 31.5612 72.4878 32.7774C72.3814 33.0228 71.5799 33.1835 71.3128 33.177C69.584 32.9598 67.612 32.9381 65.59 32.8665C63.1227 32.7774 60.8423 32.8426 58.7812 32.9924H58.779Z" fill="#E49D80"/>
<path d="M60.8445 58.4356C60.736 58.3444 60.6208 58.2619 60.4949 58.1902C59.8107 57.8036 59.2157 57.2259 58.9594 56.4658C58.6488 55.5492 58.942 54.5502 59.7 53.9594C60.4058 53.4078 61.0639 53.0538 60.736 52.0287C60.3906 50.9492 58.8834 50.8298 58.0385 50.2868C57.4825 49.9306 56.996 49.4246 56.7897 48.7991C56.5399 48.0455 56.7332 47.1767 57.2284 46.5534C58.0711 45.4957 59.4155 45.7911 60.3298 44.9679C60.9336 44.4228 60.9597 43.4389 60.5904 42.7157C59.852 41.2714 58.0016 40.8979 57.287 39.4471C56.9178 38.6999 55.2542 35.0382 63.0186 32.9532C63.0186 32.9532 60.4384 32.7556 57.3435 33.0683L57.0525 33.9979L54.5679 53.2492C54.5679 53.2492 54.7807 56.7112 57.9147 58.4009C58.6032 58.7723 59.0875 59.4434 59.1896 60.2187C59.9128 65.7548 67.0756 66.8798 71.5518 66.8994C72.1491 66.9016 72.7463 66.882 73.3436 66.8407C70.6157 66.9667 67.8618 66.515 65.3164 65.5224C64.4042 65.1662 63.5007 64.7297 62.8144 64.0325C61.5873 62.7837 62.0456 61.3655 61.6785 59.8343C61.5482 59.287 61.2659 58.7897 60.8489 58.4356H60.8445Z" fill="#C78063"/>
<path d="M68.8974 33.3835C67.2881 33.3835 65.2856 33.2944 63.1246 33.1858C61.639 33.112 60.3576 33.0468 59.8842 33.0794C59.7864 33.0859 59.7017 33.0121 59.6952 32.9144C59.6887 32.8166 59.7626 32.7319 59.8603 32.7254C60.3555 32.6928 61.5847 32.7536 63.142 32.8318C64.9272 32.9209 67.1447 33.0338 68.9604 33.0295C71.736 33.0251 72.2377 32.7428 72.3246 32.6212C72.3811 32.5408 72.4918 32.5234 72.5722 32.5799C72.6525 32.6364 72.6699 32.7471 72.6135 32.8275C72.3159 33.2423 70.9194 33.3835 68.8952 33.3835H68.8974Z" fill="#724948"/>
<path d="M74.3032 66.9104C83.8985 65.3228 83.349 58.0319 94.6883 56.4073C96.0023 56.2184 113.114 56.618 114.782 56.5984L114.674 61.7023C112.534 61.9629 95.1205 62.1519 93.4373 62.482C83.918 64.3498 80.8231 67.0234 74.3032 66.9104Z" fill="#C78063"/>
<path d="M64.2127 65.2004C64.1823 65.2004 64.1541 65.1938 64.1259 65.1765C64.0889 65.1569 64.0303 65.1287 63.963 65.0961C63.3071 64.7877 61.3089 63.8495 61.6434 60.7394C61.6543 60.6416 61.7411 60.5721 61.8389 60.5808C61.9366 60.5917 62.0061 60.6785 61.9974 60.7763C61.6912 63.6366 63.4526 64.4641 64.115 64.7747C64.1932 64.8116 64.2562 64.8398 64.3039 64.8681C64.3886 64.9158 64.4191 65.0244 64.3713 65.1091C64.3387 65.1678 64.2779 65.1982 64.2171 65.1982L64.2127 65.2004Z" fill="#724948"/>
<path d="M60.8443 58.6135C60.803 58.6135 60.7639 58.6005 60.7292 58.5723C60.6293 58.4876 60.5207 58.4115 60.4056 58.3464C59.8409 58.0271 59.1024 57.4516 58.7897 56.5264C58.4574 55.5425 58.7788 54.4566 59.5889 53.8224C59.6954 53.7399 59.8018 53.6747 59.9039 53.6096C60.0971 53.4901 60.2622 53.388 60.373 53.2099C60.5511 52.9233 60.6293 52.5801 60.5902 52.2456C60.5793 52.1479 60.6488 52.061 60.7465 52.048C60.8443 52.0371 60.9311 52.1066 60.9442 52.2044C60.9919 52.6192 60.8964 53.0427 60.677 53.3967C60.5228 53.6443 60.3035 53.7811 60.0928 53.9114C59.9972 53.9701 59.8995 54.0309 59.8083 54.1026C59.1155 54.6434 58.8418 55.5729 59.1263 56.4134C59.4043 57.2344 60.0711 57.7491 60.5815 58.0402C60.714 58.1162 60.8421 58.2052 60.9594 58.3051C61.0332 58.3681 61.0441 58.481 60.9789 58.5549C60.9442 58.5961 60.8942 58.6179 60.8443 58.6179V58.6135Z" fill="#724948"/>
<path d="M58.638 50.7646C58.6162 50.7646 58.5924 50.7602 58.5706 50.7515C58.2992 50.6408 58.1059 50.5452 57.943 50.4388C57.4804 50.1434 56.8766 49.6265 56.6203 48.8577C56.3575 48.0628 56.5378 47.1397 57.0894 46.4469C57.5846 45.8257 58.2318 45.6411 58.8573 45.4609L59.0007 45.4196C59.0789 45.3979 59.1549 45.3762 59.2309 45.3566C59.5501 45.2719 59.8281 45.1981 60.0714 44.9918C60.3776 44.7333 60.5926 44.3771 60.6752 43.9862C60.6969 43.8906 60.7903 43.8298 60.8858 43.8494C60.9814 43.8711 61.0422 43.9645 61.0227 44.06C60.9228 44.527 60.6643 44.9548 60.2994 45.2611C59.9954 45.5173 59.6696 45.6042 59.3221 45.6954C59.2483 45.715 59.1744 45.7345 59.0984 45.7562L58.9529 45.7975C58.3535 45.9691 57.7888 46.1298 57.3653 46.6619C56.894 47.2527 56.7332 48.0693 56.9548 48.7404C57.1763 49.4115 57.7171 49.8698 58.1319 50.1347C58.2774 50.2281 58.4534 50.315 58.7031 50.4171C58.7943 50.454 58.8378 50.5582 58.8009 50.6495C58.7726 50.719 58.7075 50.7602 58.6358 50.7602L58.638 50.7646Z" fill="#724948"/>
<path d="M58.6053 35.194C56.4291 37.1009 57.3152 39.1099 57.4433 39.3705C57.6193 39.7267 58.2187 40.6606 59.9887 41.6488C60.0735 41.6966 60.1039 41.8052 60.0561 41.8899C60.0235 41.9485 59.9627 41.9811 59.9019 41.9811C59.8736 41.9811 59.8432 41.9746 59.815 41.9594C58.0232 40.9581 57.3608 40.0069 57.1241 39.5269C56.9786 39.2315 55.9426 36.8859 58.5553 34.7705" fill="#724948"/>
<path d="M72.062 67.1576C67.4815 67.1576 64.0218 66.3497 61.7674 64.7534C59.7432 63.3199 59.1264 61.5564 58.9657 60.3314C58.8745 59.6256 58.4314 58.9958 57.782 58.6461C54.5981 56.9281 54.344 53.3837 54.3418 53.3489C54.3418 53.3381 54.3418 53.3272 54.3418 53.3163L56.8264 34.065C56.8264 34.065 56.8307 34.0454 56.8329 34.0346L58.2598 29.478C58.7941 27.7687 60.473 26.6893 62.2495 26.913L72.707 28.2205C74.1883 28.4051 75.5804 29.0936 76.6294 30.1578L84.5936 38.248C85.6383 39.31 86.9544 40.0658 88.3987 40.4329L88.579 40.4785C90.1427 40.8759 91.7738 40.8042 93.2985 40.27C93.2985 40.27 114.998 39.4903 114.998 39.5489L114.943 62.1189C114.943 62.2036 95.3726 62.4772 93.6221 62.7813C92.7859 62.9268 91.9193 63.0789 91.0701 63.2309C88.9721 63.6088 86.9067 64.2929 84.9129 64.9532C84.3895 65.1269 83.8487 65.305 83.3166 65.4766C80.0327 66.5278 76.7576 67.0599 73.0068 67.1467C72.6875 67.1533 72.3726 67.1576 72.062 67.1576ZM54.7002 53.3424C54.7219 53.5943 55.0498 56.7696 57.9514 58.3333C58.7007 58.7373 59.2111 59.467 59.3175 60.2837C59.4696 61.4391 60.0516 63.1027 61.9715 64.4623C64.315 66.1216 68.0245 66.9057 72.9981 66.7906C76.7141 66.7037 79.9589 66.1803 83.208 65.1378C83.7401 64.9684 84.2787 64.7881 84.8 64.6165C86.8068 63.9519 88.8831 63.2656 91.0071 62.8812C91.8585 62.727 92.7251 62.5772 93.5612 62.4295C95.3096 62.1254 96.9168 62.1145 99.017 61.9712L114.455 61.4282L114.581 39.8899L93.4157 40.6023C91.8259 41.1604 90.1232 41.2365 88.4921 40.8195L88.3119 40.7738C86.8046 40.3894 85.432 39.601 84.3417 38.4934L76.3775 30.4032C75.385 29.3955 74.0666 28.7439 72.6658 28.5702L62.2083 27.2627C60.6011 27.0629 59.0851 28.0381 58.6008 29.5822L57.1782 34.1236L54.698 53.3402L54.7002 53.3424Z" fill="#724948"/>
<path d="M88.29 40.8281L88.7939 63.346L91.6325 62.5771L90.9223 40.8564L88.29 40.8281Z" fill="#C78063"/>
<path d="M93.9587 66.8452L92.408 66.9299C91.3699 66.9863 90.4794 66.1914 90.4229 65.1511L88.9178 37.8487C88.8592 36.7714 89.5911 35.8115 90.6466 35.5856C90.8421 35.5443 91.0506 35.5117 91.2721 35.4922C91.6348 35.4596 91.9758 35.4683 92.2886 35.5009C93.3528 35.6138 94.1737 36.4891 94.2324 37.5576L95.7375 64.8601C95.7939 65.8982 94.999 66.7887 93.9587 66.8452Z" fill="#FFA53A"/>
<path d="M90.5837 52.2303L89.6216 50.6275L90.423 65.1529C90.4795 66.1911 91.3699 66.9881 92.4081 66.9317L93.9588 66.847C94.9969 66.7905 95.794 65.9 95.7375 64.8619L94.9513 50.6123L94.4453 51.9067C93.7916 53.5747 91.5089 53.768 90.5859 52.2325L90.5837 52.2303Z" fill="#FF8334"/>
<path d="M92.3015 67.1099C91.7932 67.1099 91.3089 66.9252 90.9288 66.5843C90.5184 66.2172 90.2751 65.7112 90.2447 65.1617L88.7396 37.8592C88.6745 36.6864 89.4607 35.657 90.6096 35.4137C90.8224 35.3681 91.0396 35.3355 91.2546 35.316C91.6043 35.2856 91.9561 35.2878 92.3058 35.3247C93.4591 35.4463 94.3452 36.3802 94.4082 37.5465L95.9133 64.8489C95.9762 65.9848 95.1032 66.9578 93.9673 67.0208L92.4166 67.1055C92.3775 67.1055 92.3384 67.1077 92.3015 67.1077V67.1099ZM91.7389 35.6505C91.5891 35.6505 91.4371 35.657 91.2872 35.67C91.0852 35.6874 90.8811 35.7178 90.6834 35.7612C89.7083 35.9675 89.0393 36.8428 89.0936 37.8397L90.5987 65.1422C90.6248 65.5982 90.8246 66.0152 91.1634 66.3193C91.5022 66.6234 91.9409 66.7776 92.397 66.7515L93.9477 66.6668C94.8881 66.6147 95.6092 65.8089 95.5571 64.8685L94.052 37.566C93.9977 36.5735 93.2462 35.7808 92.2667 35.6765C92.0908 35.657 91.9127 35.6483 91.7346 35.6483L91.7389 35.6505Z" fill="#724948"/>
<path d="M53.8987 39.8225C53.8096 39.8225 53.7336 39.7573 53.7228 39.6661C53.7097 39.5684 53.7792 39.4793 53.877 39.4685L54.8239 39.3512C54.9216 39.3381 55.0107 39.4076 55.0215 39.5054C55.0346 39.6031 54.9651 39.6922 54.8673 39.703L53.9204 39.8203C53.9204 39.8203 53.9052 39.8203 53.8987 39.8203V39.8225Z" fill="#724948"/>
<path d="M0.488281 36.6519L13.7106 36.3935C17.292 36.3522 20.7387 35.0274 23.4275 32.6622L32.6448 24.5482C34.0175 23.3384 35.8831 22.8519 37.6727 23.2342L48.4734 25.545C50.0284 25.8773 51.3055 26.9828 51.8571 28.4749L56.7373 31.5155C57.3411 31.8912 57.8384 32.419 58.162 33.0532C58.8201 34.3454 59.1567 36.5585 56.2052 39.1213C56.2052 39.1213 59.2219 44.0015 55.141 47.4895C55.141 47.4895 58.5703 52.0439 53.84 54.6458C53.84 54.6458 56.0988 56.4115 55.2778 58.8831C55.002 59.7149 54.4221 60.4121 53.675 60.8725L47.85 64.4604C46.2211 65.4638 44.336 65.9786 42.4247 65.9395C38.8086 65.8634 32.7838 65.5029 29.1069 64.0174C28.173 63.6395 27.1891 63.4071 26.1836 63.3354L0.592531 63.1834L0.490453 36.6519H0.488281Z" fill="#FAB983"/>
<path d="M42.6312 66.3177C42.5617 66.3177 42.4901 66.3177 42.4206 66.3155C39.0368 66.246 32.7992 65.9007 29.0397 64.3804C28.1102 64.0047 27.1459 63.7788 26.1707 63.7115C26.1707 63.7115 0.00412499 63.6354 0.00195312 63.5442L0.110546 36.6696C0.110546 36.6218 7.63821 36.485 7.68599 36.485L13.7129 36.4155C17.2487 36.3743 20.6607 35.0646 23.3147 32.7277L32.5321 24.6136C33.9416 23.3735 35.8789 22.8675 37.7141 23.2606L48.5148 25.5714C50.1176 25.9146 51.4207 27.0287 52.0071 28.5556L56.8374 31.5636C57.4781 31.9632 57.9928 32.5192 58.3251 33.1708C58.7638 34.0308 58.8963 34.93 58.716 35.8421C58.4815 37.0345 57.7148 38.2182 56.4356 39.3562C56.6376 39.7167 57.1783 40.7896 57.3825 42.1688C57.6062 43.6934 57.4368 45.8827 55.3822 47.7157C55.7275 48.2239 56.8461 50.0591 56.4356 51.9834C56.1858 53.1497 55.417 54.1227 54.1464 54.8763C54.6916 55.3911 56.1532 57.0243 55.4495 59.1375C55.1672 59.9889 54.5699 60.7295 53.7707 61.2203L47.9458 64.8082C46.3408 65.7964 44.5099 66.3155 42.6334 66.3155L42.6312 66.3177ZM0.321217 63.1837L26.1946 63.3574C27.2067 63.4269 28.2079 63.6615 29.1722 64.0503C32.8796 65.5489 39.0672 65.8898 42.4271 65.9593C44.3079 65.9984 46.1496 65.4967 47.7568 64.5064L53.5817 60.9184C54.3093 60.4689 54.8523 59.7978 55.1086 59.0246C55.8817 56.6985 53.7511 55.0001 53.7294 54.9828C53.6817 54.9458 53.6578 54.8872 53.6621 54.8285C53.6664 54.7699 53.7012 54.7156 53.7533 54.6874C55.0564 53.9707 55.8405 53.0346 56.0837 51.9074C56.5246 49.8485 55.0152 47.8134 55 47.7917C54.9435 47.7179 54.9544 47.6115 55.026 47.5506C56.6658 46.1476 57.3391 44.358 57.0307 42.2296C56.7961 40.6268 56.062 39.4214 56.0555 39.4105C56.0099 39.3367 56.0251 39.2411 56.0902 39.1825C58.8985 36.7456 58.6813 34.6541 58.0058 33.3293C57.7018 32.7342 57.2326 32.2282 56.6462 31.8611L51.7661 28.8205C51.7335 28.7988 51.7074 28.7684 51.6944 28.7315C51.1601 27.2894 49.9439 26.236 48.4388 25.9146L37.6381 23.6037C35.9115 23.2345 34.0893 23.7101 32.7645 24.8764L23.5471 32.9905C20.8279 35.3839 17.3377 36.7239 13.7151 36.7674L0.599215 36.9932L0.323388 63.1794L0.321217 63.1837Z" fill="#724948"/>
<path d="M52.1939 34.5949C51.3013 34.5883 50.1111 34.8251 49.6485 35.6764C49.1555 36.5843 49.781 37.4878 50.3001 38.2175C50.8039 38.9234 51.399 39.6792 52.1266 40.17C52.4459 40.385 52.8107 40.5219 53.1821 40.524C53.8228 40.5284 54.2463 39.8877 54.1421 39.2817L53.319 35.3637C53.2082 34.862 52.7043 34.5992 52.1918 34.5949H52.1939Z" fill="#FAD5B6"/>
<path d="M53.1906 40.7001H53.1841C52.7997 40.698 52.4001 40.5655 52.0287 40.3157C51.2685 39.8032 50.6561 39.0191 50.1565 38.3198C49.6418 37.5987 48.9381 36.6105 49.4919 35.5919C50.0914 34.4886 51.7116 34.4148 52.1937 34.4191C52.7432 34.4235 53.3578 34.7058 53.4947 35.3269L54.3178 39.2472C54.383 39.6251 54.2765 40.0182 54.0333 40.3049C53.8161 40.5611 53.5164 40.7023 53.1884 40.7023L53.1906 40.7001ZM52.1633 34.771C51.6964 34.771 50.302 34.8491 49.8069 35.7591C49.392 36.5215 49.8525 37.2773 50.4476 38.1134C50.9275 38.7867 51.5161 39.5404 52.2285 40.0225C52.5412 40.2332 52.8714 40.3439 53.1863 40.3461C53.4078 40.3461 53.6141 40.2506 53.764 40.0725C53.9399 39.8661 54.0181 39.5816 53.9703 39.3101L53.1472 35.3986C53.0538 34.9708 52.5999 34.7731 52.1916 34.771C52.1829 34.771 52.172 34.771 52.1612 34.771H52.1633Z" fill="#724948"/>
<path d="M42.2706 57.2213C42.4009 57.9489 42.9331 58.5896 43.6042 58.8958C45.0875 59.5756 51.7074 59.9253 52.3589 59.8884C53.4253 59.8276 54.5286 59.2021 54.7892 58.0988C55.0347 57.0585 54.4504 56.2027 53.5296 55.7662C52.8671 55.4534 52.1222 55.3753 51.3946 55.3188C49.8852 55.2037 45.3178 55.258 44.5511 55.3145C44.0755 55.3514 43.4304 55.284 43.0047 55.5338C42.44 55.8639 42.1577 56.5872 42.2706 57.2192V57.2213Z" fill="#FFD8A3"/>
<path d="M42.6725 49.0644L51.7704 48.5496C52.7152 48.4953 53.623 48.9123 54.1986 49.6616C54.9413 50.6303 54.9891 51.9638 54.3158 52.9824L54.2833 53.0302C53.7577 53.8251 52.8716 54.3051 51.9181 54.3116L42.8636 54.3724C41.9319 54.3789 41.0653 53.8924 40.5853 53.0932L40.5615 53.0519C40.1379 52.3482 40.0684 51.486 40.3725 50.7237C40.7504 49.7702 41.6496 49.123 42.6747 49.0644H42.6725Z" fill="#FFD8A3"/>
<path d="M53.4645 41.0762C52.8129 41.8037 50.3066 42.9787 47.9132 41.2933C47.5049 41.3042 47.0119 41.2282 46.6861 41.2434C44.9942 41.3129 42.5465 40.9176 41.8081 43.3284C41.3954 44.6749 42.2316 46.495 43.8475 46.4493C45.8673 46.4037 51.5815 46.2778 52.4176 46.2582C53.5101 46.2343 54.5265 46.1844 55.2954 45.27C55.8904 44.5642 56.1402 43.4934 55.8057 42.616C55.4365 41.6539 54.4961 41.0349 53.4666 41.0762H53.4645Z" fill="#FFD8A3"/>
<path d="M41.9625 55.9859C41.9517 56.1944 41.9321 56.4029 41.9126 56.607C41.8952 56.8133 41.8735 57.0153 41.8605 57.2195C41.8496 57.4214 41.8322 57.6234 41.83 57.8254C41.83 58.0274 41.83 58.225 41.8474 58.4292V58.4335C41.8518 58.4748 41.8192 58.5117 41.7779 58.5161C41.7475 58.5182 41.7193 58.5009 41.7041 58.4748C41.5998 58.2772 41.5477 58.0578 41.5195 57.8428C41.4934 57.6256 41.4934 57.4084 41.513 57.1934C41.5303 56.9784 41.5673 56.7677 41.6172 56.5592C41.6693 56.3507 41.7323 56.1487 41.8257 55.9511C41.8431 55.9142 41.8865 55.899 41.9213 55.9164C41.9495 55.9294 41.9647 55.9576 41.9625 55.9859Z" fill="#724948"/>
<path d="M40.0772 50.013C40.0555 50.265 40.0273 50.5169 40.0012 50.7667C39.9773 51.0164 39.9491 51.264 39.9317 51.5116C39.9252 51.6354 39.9143 51.7592 39.91 51.883L39.9013 52.0676C39.9013 52.1284 39.9013 52.1914 39.8991 52.2522C39.8991 52.4976 39.9078 52.7409 39.9361 52.9885C39.9404 53.0341 39.91 53.071 39.8687 53.0753C39.8362 53.0797 39.8057 53.0601 39.7905 53.0341C39.6733 52.793 39.6146 52.5302 39.5842 52.2696C39.5538 52.0068 39.5582 51.744 39.5799 51.4855C39.6016 51.2271 39.6429 50.9708 39.7015 50.7189C39.7601 50.4669 39.8318 50.2193 39.9361 49.9783C39.9513 49.9413 39.9947 49.924 40.0316 49.9413C40.0599 49.9544 40.0772 49.9826 40.0751 50.013H40.0772Z" fill="#724948"/>
<path d="M41.2979 42.5097C41.287 42.7616 41.2696 43.0157 41.2544 43.2655C41.2414 43.5153 41.224 43.765 41.2197 44.0126C41.2197 44.1364 41.2132 44.2602 41.2153 44.384V44.5686C41.2153 44.6294 41.2197 44.6902 41.2197 44.7532C41.2305 44.9986 41.2501 45.2419 41.2892 45.4873C41.2957 45.5308 41.2675 45.5698 41.2262 45.5785C41.1936 45.5829 41.1632 45.5677 41.148 45.5394C41.0199 45.3049 40.9504 45.0443 40.9091 44.7836C40.8678 44.523 40.8591 44.2602 40.87 43.9996C40.8809 43.739 40.9091 43.4805 40.9569 43.2264C41.0047 42.9723 41.0655 42.7225 41.1589 42.4771C41.1741 42.4402 41.2153 42.4206 41.2523 42.4359C41.2827 42.4467 41.3 42.4771 41.2979 42.5054V42.5097Z" fill="#724948"/>
<path d="M42.4946 35.7675C42.4838 36.0194 42.4664 36.2735 42.4512 36.5233C42.4382 36.7731 42.4208 37.0228 42.4164 37.2704C42.4164 37.3942 42.4099 37.518 42.4121 37.6418V37.8264C42.4121 37.8872 42.4164 37.9481 42.4164 38.011C42.4273 38.2565 42.4469 38.4997 42.4859 38.7451C42.4925 38.7886 42.4642 38.8277 42.423 38.8363C42.3904 38.8407 42.36 38.8255 42.3448 38.7973C42.2166 38.5627 42.1471 38.3021 42.1059 38.0414C42.0646 37.7808 42.0559 37.518 42.0668 37.2574C42.0776 36.9968 42.1059 36.7383 42.1537 36.4842C42.2014 36.2301 42.2622 35.9803 42.3556 35.7349C42.3708 35.698 42.4121 35.6785 42.449 35.6937C42.4794 35.7045 42.4968 35.7349 42.4946 35.7632V35.7675Z" fill="#724948"/>
<path d="M53.0562 34.085L54.8827 34.1393C55.7427 34.1653 56.5116 34.7148 56.7831 35.5314C56.9351 35.9875 56.9937 36.5153 56.8026 37.0474C56.5615 37.7185 55.9621 38.1963 55.2628 38.3331L54.0769 38.5655L53.0562 34.085Z" fill="#FFD8A3"/>
<g opacity="0.5">
<path d="M36.2371 35.7856C33.5831 34.2588 30.612 36.915 28.6074 38.3614C26.7266 39.7188 24.9391 41.2 23.2581 42.7898C22.4893 43.5174 21.7465 44.1147 21.4272 45.1333C21.1253 46.0954 21.1862 47.177 21.8725 47.9719C22.7347 48.9731 24.1963 49.3445 25.4799 49.414C28.2056 49.5639 30.9747 48.7451 33.1618 47.1444C35.3489 45.5438 36.9365 43.1721 37.5642 40.5702C37.9811 38.8457 37.7987 36.6826 36.2393 35.7856H36.2371Z" fill="#FFD8A3"/>
</g>
<g opacity="0.5">
<path d="M22.9931 55.5756L29.9843 54.0336C32.4037 53.4993 34.9274 54.2551 36.6519 56.0361C37.4837 56.8961 38.359 57.9082 39.1083 59.0028C40.6025 61.1877 38.7304 63.7592 36.1415 63.7114C27.9406 63.5572 24.837 61.2681 22.3176 58.525C21.3772 57.5021 21.6378 55.8754 22.9931 55.5756Z" fill="#FFD8A3"/>
</g>
<g opacity="0.5">
<path d="M38.0768 24.6936C37.6273 24.6567 37.1625 24.6285 36.7303 24.7631C36.2981 24.8978 35.9006 25.2323 35.8181 25.6775C35.7377 26.1097 35.9723 26.5549 36.3089 26.8373C36.6456 27.1218 37.0713 27.276 37.4883 27.415C40.366 28.3836 43.3653 28.9896 46.3929 29.2155C46.9771 29.2589 47.6222 29.2698 48.0826 28.9071C48.8775 28.2772 48.5343 27.2065 47.7394 26.7982C47.0032 26.4203 46.015 26.3095 45.2223 26.0684C42.8984 25.3582 40.4985 24.8956 38.0768 24.6936Z" fill="#FFD8A3"/>
</g>
<path d="M16.6992 36.3325L18.415 36.0371L19.1122 63.3092L16.7644 63.2527L16.6992 36.3325Z" fill="#CF996C"/>
<path d="M15.9127 64.7392H14.3598C13.3195 64.7392 12.4746 63.8965 12.4746 62.854V35.5103C12.4746 34.4309 13.2587 33.5122 14.325 33.3471C14.5227 33.3167 14.7333 33.295 14.9527 33.2885C15.3176 33.2755 15.6564 33.3015 15.967 33.3515C17.0225 33.5209 17.7957 34.4417 17.7957 35.5103V62.854C17.7957 63.8943 16.953 64.7392 15.9105 64.7392H15.9127Z" fill="#00D37F"/>
<path d="M13.3477 49.9594L12.4746 48.3066V62.8538C12.4746 63.8941 13.3173 64.7389 14.3598 64.7389H15.9127C16.953 64.7389 17.7978 63.8963 17.7978 62.8538V48.5825L17.2201 49.8465C16.4752 51.4754 14.186 51.5427 13.3477 49.9594Z" fill="#4ABA7A"/>
<path d="M15.9128 64.9168H14.3599C13.224 64.9168 12.2988 63.9916 12.2988 62.8557V35.512C12.2988 34.337 13.1393 33.3532 14.2991 33.1729C14.5141 33.1403 14.7313 33.1186 14.9485 33.1121C15.2982 33.1012 15.6522 33.1229 15.9975 33.1772C17.1421 33.3619 17.9739 34.3435 17.9739 35.512V62.8557C17.9739 63.9916 17.0487 64.9168 15.9128 64.9168ZM15.1331 33.4618C15.0766 33.4618 15.018 33.4618 14.9615 33.4639C14.7595 33.4704 14.5554 33.49 14.3534 33.5204C13.3674 33.6746 12.6528 34.5108 12.6528 35.5077V62.8514C12.6528 63.7918 13.4195 64.5585 14.3599 64.5585H15.9128C16.8532 64.5585 17.6199 63.7918 17.6199 62.8514V35.5077C17.6199 34.5151 16.914 33.6789 15.941 33.5226C15.6739 33.4791 15.4024 33.4574 15.1331 33.4574V33.4618Z" fill="#724948"/>
<path d="M37.4577 51.6506C37.4577 51.6506 36.9256 49.8762 34.3823 49.6394C34.3823 49.6394 37.8725 47.865 38.7 44.9678C38.7 44.9678 39.0649 46.3056 39.9618 47.1679C40.1486 47.3481 37.7531 47.2743 37.4577 51.6506Z" fill="#CF996C"/>
<path d="M45.3287 48.3102C43.7106 48.3102 42.2272 48.2211 41.2586 47.9627C40.2813 47.702 39.495 47.0852 38.9847 46.1796C38.3852 45.1132 38.244 43.7406 38.6046 42.5069C38.989 41.1973 39.9967 40.0658 41.2347 39.5532C41.3259 39.5163 41.428 39.5597 41.4671 39.6488C41.504 39.74 41.4606 39.8421 41.3715 39.8812C40.2291 40.3546 39.2996 41.3971 38.9456 42.6069C38.6089 43.7514 38.7392 45.022 39.2931 46.0058C39.7535 46.8246 40.4659 47.3828 41.3476 47.6195C43.6802 48.2407 49.1403 47.8497 52.0723 47.6412C52.4545 47.613 52.7977 47.5891 53.0887 47.5696C53.1864 47.563 53.2711 47.6369 53.2777 47.7346C53.2842 47.8323 53.2103 47.9171 53.1126 47.9236C52.8216 47.9431 52.4806 47.967 52.0983 47.9952C50.3435 48.1212 47.6916 48.3102 45.3287 48.3102Z" fill="#724948"/>
<path d="M26.894 51.8704C23.7252 51.8704 21.308 51.0278 21.2819 51.0191C21.1885 50.9865 21.1407 50.8844 21.1733 50.7932C21.2059 50.6998 21.308 50.652 21.3992 50.6846C21.4274 50.6955 24.2335 51.6706 27.7475 51.4947C30.9749 51.3318 35.4837 50.1329 38.6242 45.344C38.6785 45.2615 38.7871 45.2397 38.8696 45.2919C38.9522 45.3462 38.9739 45.4548 38.9217 45.5373C37.497 47.7092 35.6835 49.3489 33.5268 50.4109C31.8024 51.2601 29.8607 51.7445 27.754 51.8487C27.463 51.8639 27.1742 51.8704 26.894 51.8704Z" fill="#724948"/>
<path d="M42.479 55.5122C41.2411 55.5122 40.1595 55.258 39.2669 54.7585C38.3547 54.2481 37.79 53.4749 37.4425 52.2522C36.8583 50.2041 37.9833 47.8715 39.9488 47.0506C40.04 47.0137 40.1443 47.0549 40.1812 47.1461C40.2181 47.2374 40.1769 47.3394 40.0857 47.3785C38.2787 48.1322 37.247 50.2736 37.7835 52.1545C38.1049 53.2795 38.6153 53.9875 39.4406 54.4479C40.3376 54.9496 41.4409 55.1885 42.7201 55.1538C45.9671 55.0669 52.5478 54.9779 52.6129 54.9757C52.7107 54.9757 52.791 55.0517 52.7932 55.1516C52.7932 55.2494 52.7172 55.3297 52.6173 55.3319C52.5521 55.3319 45.9714 55.4231 42.7288 55.51C42.6463 55.5122 42.5638 55.5143 42.4812 55.5143L42.479 55.5122Z" fill="#724948"/>
<path d="M37.4425 51.3835C37.3774 51.3835 37.3166 51.3488 37.284 51.288C36.6672 50.0935 34.7646 49.6982 34.7451 49.6938C34.6495 49.6743 34.5866 49.5809 34.6061 49.4853C34.6256 49.3898 34.719 49.3268 34.8146 49.3463C34.8993 49.3637 36.9018 49.7785 37.5989 51.1251C37.6445 51.212 37.6098 51.3184 37.5229 51.364C37.4968 51.377 37.4686 51.3835 37.4425 51.3835Z" fill="#724948"/>
<path d="M43.9038 61.261C43.9038 61.261 44.4946 62.4446 44.4663 64.2473C44.4663 64.2473 48.2519 63.6848 49.8482 62.058L43.9038 61.2588V61.261Z" fill="#CF996C"/>
<path d="M50.0546 62.2671C50.0546 62.2671 50.0394 62.2671 50.0329 62.2671L44.8291 61.6156C44.208 61.5417 43.6455 61.444 43.1112 61.3159C41.8667 61.0162 40.1271 60.4623 39.3713 59.1136C38.6697 57.8583 38.7827 55.9231 40.1922 54.9849C40.2726 54.9306 40.3833 54.9523 40.4376 55.0349C40.4919 55.1174 40.4702 55.226 40.3877 55.2803C39.1476 56.1078 39.0542 57.8235 39.6797 58.942C40.1944 59.8629 41.3433 60.5275 43.1916 60.9727C43.7128 61.0987 44.2623 61.1942 44.8704 61.2659L50.0764 61.9175C50.1741 61.9305 50.2436 62.0174 50.2306 62.1151C50.2197 62.2042 50.1437 62.2715 50.0546 62.2715V62.2671Z" fill="#724948"/>
<path d="M49.3747 62.9768C49.3551 62.9768 49.3378 62.9746 49.3182 62.9681C48.4799 62.688 47.9304 62.0234 47.9065 61.9951C47.8435 61.9191 47.8566 61.8084 47.9304 61.7454C48.0064 61.6824 48.1172 61.6954 48.1802 61.7693C48.1802 61.7693 48.6927 62.3839 49.429 62.6293C49.5224 62.6597 49.5723 62.7618 49.5419 62.853C49.518 62.9269 49.4485 62.9746 49.3747 62.9746V62.9768Z" fill="#724948"/>
<path d="M44.3774 64.6316C44.3774 64.6316 44.3578 64.6316 44.3491 64.6295C44.2514 64.6143 44.1862 64.5231 44.2014 64.4253C44.3991 63.1808 43.8865 61.5063 43.8822 61.489C43.8539 61.3956 43.9061 61.2957 43.9995 61.2674C44.0928 61.2392 44.1928 61.2913 44.221 61.3847C44.2427 61.4564 44.764 63.1548 44.5511 64.4818C44.5381 64.5687 44.4621 64.6316 44.3752 64.6316H44.3774Z" fill="#724948"/>
<path d="M52.7978 33.2513C52.7022 33.2513 52.6218 33.1752 52.6197 33.0775C52.6175 32.9798 52.6957 32.8972 52.7934 32.8951L54.9153 32.8429C55.0131 32.8386 55.0956 32.919 55.0978 33.0167C55.0999 33.1144 55.0218 33.197 54.924 33.1991L52.8021 33.2513C52.8021 33.2513 52.7999 33.2513 52.7978 33.2513Z" fill="#724948"/>
<path d="M42.6332 32.089L36.1567 32C36.1567 32 39.2256 35.7986 39.7099 37.4709C39.7099 37.4709 39.3515 34.528 42.1446 34.174L42.6615 34.1154L42.6311 32.089H42.6332Z" fill="#CF996C"/>
<path d="M39.6623 37.5445C39.5928 37.5445 39.5254 37.5032 39.4972 37.4337C38.737 35.5898 37.3405 33.4853 35.666 31.6609C35.5987 31.5892 35.6052 31.4763 35.6769 31.4112C35.7486 31.3438 35.8615 31.3503 35.9267 31.422C37.6294 33.2746 39.0498 35.4182 39.8252 37.2991C39.8621 37.3903 39.8186 37.4924 39.7296 37.5315C39.7079 37.5401 39.684 37.5445 39.6623 37.5445Z" fill="#724948"/>
<path d="M51.1277 42.401C51.0539 42.401 50.98 42.401 50.904 42.3967C49.6183 42.3358 48.326 41.8537 47.264 41.0371C46.2367 40.2465 45.407 39.2019 44.6469 38.2006C43.789 37.0734 42.9897 35.9506 42.6118 34.6301C42.1796 33.1185 42.462 31.5851 43.3481 30.6317C43.4154 30.56 43.5262 30.5557 43.5979 30.623C43.6695 30.6903 43.6739 30.8011 43.6066 30.8728C42.6488 31.9044 42.6401 33.4399 42.9528 34.5324C43.3134 35.7942 44.093 36.8845 44.9292 37.9856C45.7067 39.0086 46.4864 39.9902 47.4812 40.7547C48.4846 41.5279 49.7073 41.9862 50.9214 42.0426C50.9887 42.0448 51.0539 42.047 51.119 42.047C52.7892 42.047 53.9164 41.0458 54.0185 40.0728C54.1422 38.8913 52.0812 30.9727 51.6468 29.6652C51.6164 29.5718 51.6663 29.4719 51.7597 29.4415C51.8531 29.4111 51.953 29.4611 51.9834 29.5545C52.3505 30.6556 54.5071 38.8087 54.3725 40.1119C54.2508 41.2651 53.0151 42.4053 51.1277 42.4053V42.401Z" fill="#724948"/>
<path d="M45.4047 40.7413C44.7358 40.7413 44.2037 40.6435 43.6216 40.4937C43.6216 40.4937 41.7213 40.0006 41.7104 39.9985C40.568 39.7009 39.6927 38.6954 39.5342 37.4965C39.4647 36.9709 39.443 35.9653 40.0859 35.1313C40.6006 34.4624 41.4194 34.0519 42.5227 33.9108C42.6204 33.8977 42.7095 33.9672 42.7203 34.065C42.7333 34.1627 42.6638 34.2517 42.5661 34.2626C41.5605 34.3907 40.8199 34.7556 40.366 35.3464C39.8013 36.0804 39.8231 36.9774 39.8839 37.4487C40.025 38.5064 40.7939 39.3947 41.7973 39.6553C41.7973 39.6553 41.8255 39.6618 43.7085 40.1505C44.4448 40.3416 45.0985 40.4437 46.0758 40.3568L46.8034 40.2765C46.9011 40.2656 46.988 40.3351 46.9989 40.4328C47.0097 40.5306 46.9402 40.6175 46.8425 40.6283L46.1106 40.7087C45.8565 40.7304 45.6219 40.7413 45.4026 40.7413H45.4047Z" fill="#724948"/>
</g>
</g>
<defs>
<clipPath id="clip0_6628_18378">
<rect width="115" height="85.6669" fill="white"/>
</clipPath>
</defs>
</svg>
