<svg width="28" height="26" viewBox="0 0 28 26" fill="none" xmlns="http://www.w3.org/2000/svg">
<path fill-rule="evenodd" clip-rule="evenodd" d="M22.1137 23.8185C21.1658 24.4887 19.9199 24.5893 18.9547 24.1538C18.9547 24.1538 18.6915 24.0533 18.4461 23.7853C18.2349 23.5334 12.8998 17.7873 12.8998 17.7873L12.8825 17.7703C14.5324 18.0553 16.3399 17.3016 17.2701 15.9277C18.1998 14.6209 18.1654 12.7613 17.2878 11.4545C16.2349 10.0304 14.1812 9.56155 12.4613 9.77896C9.47799 10.1812 7.33664 12.7111 6.67045 15.3584C5.98549 18.3736 6.47717 21.2217 7.54817 23.9024C7.79323 24.4721 8.12711 25.0584 8.53076 25.5605C5.38882 24.2544 2.61609 21.8418 1.15982 18.608C-0.454909 15.1233 -0.419827 10.7172 1.4933 7.18231C3.00239 4.45171 5.66974 1.92182 8.96923 0.849377C12.4263 -0.507381 17.077 -0.222673 20.4468 1.58651C24.5356 3.53003 27.6243 8.37225 27.6418 12.6944C27.7823 17.1676 25.7108 21.2217 22.1137 23.8185Z" fill="#BFA161"/>
<path fill-rule="evenodd" clip-rule="evenodd" d="M10.6362 25.5111C9.10963 23.9358 7.88081 21.8921 8.81136 19.7646C9.63574 18.1394 10.3729 16.4806 10.7241 14.604C10.8643 16.5644 12.1109 18.3068 12.7069 20.1835C12.935 21.0881 12.953 22.0263 12.5844 22.9643C12.1808 23.9861 11.5311 24.8571 10.7589 25.6445L10.6362 25.5111Z" fill="#BFA161"/>
</svg>
