<svg width="24" height="24" viewBox="0 0 24 24" fill="none" xmlns="http://www.w3.org/2000/svg">
<circle cx="12" cy="12" r="12" fill="#00D37F"/>
<path d="M15.6946 6.15808L4.9087 9.90942C4.19785 10.1561 3.82163 10.9324 4.06835 11.6433C4.19415 12.0057 4.46696 12.2983 4.81975 12.4492L8.793 14.1514L16.7276 6.21684C16.4047 6.06099 16.0331 6.03984 15.6946 6.15808Z" fill="white"/>
<path d="M9.43504 14.793L11.1379 18.7669C11.4364 19.4595 12.2399 19.7789 12.9325 19.4804C13.0893 19.4129 13.2321 19.3165 13.3534 19.1962C13.4993 19.0503 13.6103 18.8734 13.6783 18.6786L17.4284 7.89145C17.5466 7.55293 17.5255 7.1813 17.3696 6.85841L9.43504 14.793Z" fill="white"/>
</svg>
