<svg width="168" height="119" viewBox="0 0 168 119" fill="none" xmlns="http://www.w3.org/2000/svg">
<path d="M144.612 81.1802C144.612 81.1802 144.673 84.5807 142.781 89.4702C140.165 96.2512 133.787 105.909 118.253 113.375C97.3669 123.415 55.0515 116.775 44.6889 104.561C41.6305 100.96 39.2964 97.4383 37.6665 93.575C35.5135 88.5044 34.5879 82.8704 34.8898 75.7876C35.1312 70.0128 36.1775 63.2922 38.0086 55.143C38.2098 54.2577 38.4312 53.3723 38.6525 52.5272C45.1115 28.4619 63.1806 16.0269 82.6581 13.5922C87.1251 13.0288 92.6786 13.3507 98.6547 14.6184C112.579 17.5963 128.636 25.8663 137.851 40.6757C142.499 48.1407 145.397 57.2759 145.397 68.222C151.333 73.6346 164.392 75.8882 166.524 75.687C168.637 75.5059 165.921 82.81 144.612 81.1802Z" fill="#00D37F"/>
<path d="M155.377 18.3624C153.506 21.3605 150.508 20.5556 150.367 20.5154C152.721 22.3665 148.315 27.9201 144.009 27.9804C139.703 28.0408 139.562 25.8274 139.562 25.8274C137.67 27.2762 135.558 26.5719 134.652 24.7409C134.632 27.2359 133.747 29.5096 132.419 31.059C137.69 29.9724 142.801 33.0712 141.996 36.7132C141.534 38.8058 139.864 40.0533 137.851 40.6368C135.397 41.3411 132.439 41.0393 130.487 40.0332L128.837 63.5149C128.917 63.4948 128.998 63.4546 129.078 63.4345C131.956 62.6296 133.606 66.6338 130.064 67.5392C129.501 67.6801 128.998 67.66 128.555 67.5191L128.193 72.6501L142.801 89.4113C140.186 96.1922 133.807 105.851 118.273 113.316C97.3872 123.356 55.0717 116.716 44.7092 104.502C41.6507 100.901 39.3166 97.3794 37.6868 93.5161C38.8136 87.7814 39.8398 78.0024 39.8398 78.0024C38.1496 78.0024 36.3386 76.9963 34.91 75.7488C33.4814 74.4812 32.435 72.9519 32.254 71.8855C30.0406 71.9056 27.0023 71.2617 25.3925 70.5977C23.0786 69.6319 21.6499 66.7746 24.8291 63.9777L33.924 57.3175C33.8436 57.1767 33.7832 57.0157 33.7631 56.8346C33.5216 54.9633 35.8155 53.2731 38.6727 52.4884C39.4574 52.267 40.2824 52.1262 41.1074 52.0658L45.5945 48.786C56.5406 56.0499 59.5186 70.5172 59.6594 102.088C71.4908 87.0571 89.2581 69.149 93.8458 65.185C91.9745 64.7222 91.0891 62.1668 93.8257 60.7784C94.0872 60.6376 94.3488 60.5571 94.5903 60.5168C95.1537 51.2811 96.4012 30.234 96.1396 29.9725C95.7976 29.6304 81.3906 25.7268 81.7327 22.5677C81.8735 21.3403 91.2702 17.477 98.6749 14.6198C100.285 13.996 101.794 13.4326 103.102 12.9296C102.981 12.7283 102.88 12.5271 102.8 12.2857C102.055 10.0924 104.329 8.96564 104.329 8.96564C104.329 8.96564 100.305 6.61142 101.613 3.0298C102.941 -0.55182 111.995 -0.390854 117.126 5.86692C117.126 5.86692 117.589 3.51271 120.889 4.31757C124.189 5.12243 124.471 10.9174 124.471 10.9174C124.471 10.9174 127.288 9.44855 130.085 12.1851C130.044 12.0845 128.616 8.5632 131.634 5.96753C135.034 3.04992 139.32 6.61142 139.32 6.61142C139.32 6.61142 141.272 1.31947 145.015 1.50056C154.13 1.90299 150.568 12.6076 150.568 12.6076C154.975 10.8973 157.289 15.3039 155.377 18.3624Z" fill="#FFFEF2"/>
<path d="M32.0928 72.6489C29.6179 72.6489 26.4789 71.8642 25.0905 71.3008C23.6015 70.677 22.5351 69.4295 22.2936 68.021C22.1125 66.9344 22.3138 65.2643 24.3259 63.4937C24.6076 63.2321 25.0704 63.2723 25.3119 63.554C25.5734 63.8558 25.5332 64.2985 25.2515 64.54C24.0442 65.6064 23.5009 66.7131 23.682 67.7795C23.843 68.7051 24.5875 69.5703 25.6137 69.9929C28.1289 71.0392 32.9178 71.6831 34.0245 70.8983C35.1915 70.0734 34.2055 68.2021 34.1854 68.1819C34.0043 67.8399 34.1251 67.4173 34.4671 67.2161C34.8092 67.035 35.2318 67.1558 35.433 67.4978C35.9964 68.524 36.6 70.7977 34.8494 72.0453C34.2458 72.4678 33.2397 72.6489 32.0928 72.6489Z" fill="#1C2122"/>
<path d="M44.2459 52.6078L46.58 45.9677C39.6582 45.4043 29.3762 36.8929 25.6537 33.7339C21.9312 30.5748 16.4783 25.142 5.95476 25.2627C5.95476 25.2627 -0.987145 37.5368 0.119536 48.1207C0.119536 48.1207 5.79378 49.5091 11.1461 53.0102C20.3215 59.0064 25.0098 70.8379 38.6924 68.5038L41.9118 58.8656" fill="#CEFD1E"/>
<path d="M20.1299 50.6548C19.9791 50.5619 19.9096 50.4498 19.871 50.2873L18.713 45.4144C18.6551 45.1708 18.7287 44.9388 18.953 44.7997C19.1271 44.6296 19.3901 44.6529 19.5911 44.7767L21.0988 45.7055C21.5009 45.9531 21.9958 46.05 22.4328 45.9033C22.8892 45.8377 23.2876 45.5286 23.5353 45.1265C23.7829 44.7244 23.8798 44.2295 23.7331 43.7925C23.6675 43.3361 23.3583 42.9377 22.9563 42.69L21.4486 41.7613C21.147 41.5755 21.0698 41.2507 21.2556 40.9491C21.4413 40.6476 21.7662 40.5704 22.0677 40.7561L27.596 44.1615C27.8976 44.3473 27.9748 44.6721 27.789 44.9737C27.6033 45.2752 27.2784 45.3524 26.9769 45.1667L24.9666 43.9283C24.9895 44.5664 24.881 45.1928 24.5404 45.7456C24.138 46.399 23.4842 46.8976 22.703 47.0403C21.9411 47.2642 21.133 47.1131 20.4797 46.7106L20.1781 46.5249L21.008 50.0171C21.0852 50.342 20.8994 50.6435 20.5746 50.7207C20.4121 50.7593 20.2807 50.7477 20.1299 50.6548Z" fill="#1C2122"/>
<path d="M25.7386 47.1771L20.2103 43.7718C19.9088 43.586 19.8316 43.2612 20.0173 42.9596C20.2031 42.6581 20.5279 42.5809 20.8295 42.7666L26.3578 46.172C26.6593 46.3577 26.7365 46.6826 26.5508 46.9841C26.365 47.2857 26.0402 47.3629 25.7386 47.1771Z" fill="#1C2122"/>
<path d="M109.017 22.6882C108.615 22.4468 108.494 21.9236 108.735 21.5413L109.862 19.7103C110.104 19.3078 110.627 19.1871 111.009 19.4286C111.412 19.67 111.532 20.1932 111.291 20.5755L110.164 22.4066C109.943 22.7889 109.419 22.9297 109.017 22.6882Z" fill="#1C2122"/>
<path d="M47.8481 72.328C42.697 70.336 40.5641 65.3459 42.3952 58.9875C42.3952 58.9875 34.085 59.5509 33.7228 56.8747C33.26 53.3535 41.8519 50.456 46.017 53.112" fill="#FFFEF2"/>
<path d="M47.8477 73.0315C47.7673 73.0315 47.6868 73.0114 47.5862 72.9913C42.3345 70.959 40.0406 65.9286 41.4692 59.7312C38.9541 59.8117 33.4005 59.691 33.0383 56.9746C32.8573 55.6063 33.6822 54.2582 35.3724 53.1917C38.29 51.3406 43.3405 50.5558 46.4191 52.5277C46.7411 52.729 46.8417 53.1716 46.6405 53.4936C46.4392 53.8155 45.9966 53.9161 45.6746 53.7149C43.1796 52.1253 38.6522 52.7893 36.1371 54.3789C35.4529 54.8216 34.306 55.7271 34.4468 56.7935C34.6279 58.1014 39.1553 58.5038 42.3747 58.2825C42.596 58.2624 42.8174 58.363 42.9784 58.5441C43.1192 58.7252 43.1796 58.9666 43.0991 59.1879C41.3888 65.1439 43.2601 69.8121 48.1294 71.6834C48.4916 71.8242 48.6727 72.2267 48.5319 72.5888C48.391 72.8504 48.1294 73.0315 47.8477 73.0315Z" fill="#1C2122"/>
<path d="M59.5785 114.08C59.176 114.08 58.8742 113.758 58.8742 113.375C59.3169 75.7281 57.4456 57.5584 45.1715 49.4092C44.8496 49.1878 44.7691 48.7653 44.9703 48.4232C45.1916 48.1013 45.6142 48.0208 45.9562 48.222C52.214 52.3871 55.9365 58.8461 58.009 69.1684C59.9004 78.5853 60.5644 91.3826 60.2827 113.375C60.2827 113.778 59.9809 114.08 59.5785 114.08Z" fill="#1C2122"/>
<path d="M37.4249 95.4472C37.3645 95.4472 37.3243 95.4472 37.2639 95.4271C36.8816 95.3466 36.6401 94.9643 36.7206 94.582C37.7468 90.0144 38.7327 81.2616 39.0144 78.7061C35.5334 78.183 31.9116 74.4002 31.5092 72.0459C31.4488 71.6636 31.7104 71.3014 32.0927 71.2411C32.475 71.1807 32.8372 71.4423 32.8975 71.8246C33.1792 73.5551 36.7005 77.358 39.7791 77.358C39.9803 77.358 40.1614 77.4385 40.3022 77.5995C40.4431 77.7403 40.5034 77.9415 40.4833 78.1427C40.4431 78.6055 39.2962 89.451 38.0687 94.9039C38.0285 95.2259 37.7468 95.4472 37.4249 95.4472Z" fill="#1C2122"/>
<path d="M142.901 90.3355C142.7 90.3355 142.519 90.255 142.378 90.0941L127.649 73.1719C127.528 73.0311 127.468 72.85 127.468 72.6689L129.762 40.0319C129.782 39.7904 129.923 39.5892 130.124 39.4684C130.325 39.3477 130.587 39.3477 130.788 39.4483C133.002 40.5952 136.402 40.6757 138.696 39.6093C140.125 38.9453 140.99 37.9392 141.292 36.5911C141.593 35.2228 140.849 34.1564 140.145 33.5125C138.555 32.0436 135.255 30.9369 131.714 31.9833C131.331 32.104 130.949 31.8826 130.828 31.5003C130.708 31.118 130.929 30.7357 131.311 30.615C134.853 29.5687 138.797 30.3132 141.11 32.4662C142.479 33.7338 143.022 35.3033 142.66 36.8929C142.257 38.6434 141.09 40.0318 139.279 40.8769C136.905 41.9836 133.625 42.044 131.09 41.0983L128.897 72.4475L143.424 89.1484C143.686 89.4502 143.646 89.8929 143.364 90.1343C143.243 90.2752 143.062 90.3355 142.901 90.3355Z" fill="#1C2122"/>
<path d="M137.67 36.8136C137.529 36.8136 137.368 36.7734 137.247 36.6728C136.945 36.4716 134.551 35.4856 132.277 36.3508C131.915 36.4917 131.513 36.3106 131.372 35.9484C131.231 35.5862 131.412 35.1838 131.774 35.0429C134.672 33.9363 137.65 35.1637 138.133 35.5661C138.434 35.8076 138.475 36.2502 138.213 36.5521C138.072 36.7332 137.871 36.8136 137.67 36.8136ZM137.207 36.6527C137.227 36.6527 137.227 36.6527 137.207 36.6527C137.227 36.6527 137.227 36.6527 137.207 36.6527Z" fill="#1C2122"/>
<path d="M105.818 108.848C103.202 108.848 100.988 108.003 99.3786 106.353C96.9037 103.818 96.4007 100.015 96.7427 97.2983C96.783 96.916 97.1452 96.6343 97.5275 96.6947C97.9098 96.7349 98.1915 97.0971 98.1311 97.4794C97.8293 99.8739 98.2518 103.194 100.385 105.387C101.954 106.997 104.168 107.681 106.964 107.399C107.347 107.359 107.689 107.641 107.729 108.023C107.769 108.405 107.488 108.747 107.105 108.788C106.683 108.828 106.24 108.848 105.818 108.848Z" fill="#1C2122"/>
<path d="M71.229 117.439C71.1284 117.439 71.0076 117.419 70.907 117.358C70.565 117.177 70.4241 116.755 70.6052 116.413C73.9655 109.934 74.3277 109.068 74.7905 106.151C75.0319 104.622 75.1124 102.992 75.213 101.241C75.4947 95.7681 75.8167 89.5505 81.2897 84.1781C81.5714 83.9165 82.0141 83.9165 82.2757 84.1982C82.5574 84.4799 82.5372 84.9226 82.2555 85.1842C77.1648 90.1743 76.863 96.09 76.6014 101.301C76.5008 103.072 76.4203 104.762 76.1587 106.352C75.6557 109.551 75.1326 110.678 71.8326 117.036C71.732 117.298 71.4906 117.439 71.229 117.439Z" fill="#1C2122"/>
<path d="M59.6389 102.811C59.4779 102.811 59.3371 102.771 59.1962 102.67C58.8944 102.429 58.834 101.986 59.0755 101.685C70.9472 86.5934 89.2979 68.1018 93.6039 64.4598C94.3887 51.8839 95.4752 33.352 95.435 30.4746C95.113 30.3539 94.61 30.1929 94.107 30.032C86.0383 27.3558 80.7262 25.062 80.9878 22.5065C81.0683 21.8425 81.1689 20.8163 94.3686 15.5445C100.707 13.0092 107.105 10.6952 107.166 10.6751C107.528 10.5343 107.93 10.7355 108.071 11.0977C108.212 11.4598 108.011 11.8623 107.649 12.0031C96.0185 16.2085 83.503 21.3395 82.3762 22.748C82.4164 23.0699 82.8792 24.076 86.7224 25.8064C89.3986 27.0137 92.618 28.0802 94.5496 28.7039C96.2197 29.2673 96.421 29.3277 96.602 29.5088C96.8837 29.7905 96.9441 29.8509 96.6624 35.6257C96.5215 38.5232 96.3002 42.5475 96.0185 47.5779C95.5356 56.1496 94.9923 64.7817 94.9923 64.8622C94.9722 65.0634 94.8917 65.2445 94.7307 65.3653C90.9479 68.4438 72.2349 87.2574 60.1822 102.57C60.0615 102.731 59.8602 102.811 59.6389 102.811Z" fill="#1C2122"/>
<path d="M105.134 34.5595C104.792 34.5595 104.49 34.5394 104.188 34.4992C103.806 34.4388 103.544 34.0766 103.604 33.6943C103.665 33.312 104.027 33.0504 104.409 33.1108C107.327 33.5937 113.806 30.9175 115.758 28.4426C115.999 28.1407 116.442 28.0804 116.744 28.3218C117.046 28.5633 117.106 29.006 116.865 29.3078C114.792 31.9437 108.756 34.5595 105.134 34.5595Z" fill="#1C2122"/>
<path d="M107.045 32.0838C106.964 32.0838 106.904 32.0637 106.824 32.0435C106.461 31.9228 106.26 31.5204 106.381 31.1582C106.803 29.8704 107.89 28.8241 109.278 28.3613C110.808 27.8382 112.498 28.0997 113.926 29.0656C114.248 29.2869 114.329 29.7296 114.108 30.0515C113.886 30.3734 113.444 30.4539 113.122 30.2326C112.075 29.5082 110.828 29.3271 109.721 29.6893C108.755 30.0113 107.991 30.7356 107.709 31.6009C107.628 31.8826 107.347 32.0838 107.045 32.0838Z" fill="#1C2122"/>
<path d="M111.492 37.6983C110.064 37.6983 108.595 37.1953 107.407 36.2496C107.106 36.0081 107.065 35.5655 107.307 35.2636C107.548 34.9618 107.991 34.9216 108.293 35.163C109.661 36.2697 111.532 36.6118 113.062 36.0081C114.631 35.4045 115.657 33.8954 115.979 31.682C116.04 31.2997 116.402 31.0381 116.784 31.0985C117.166 31.1589 117.428 31.5211 117.368 31.9034C116.965 34.6198 115.617 36.5514 113.565 37.3362C112.901 37.5776 112.196 37.6983 111.492 37.6983Z" fill="#1C2122"/>
<path d="M101.813 81.8851C101.411 81.8851 101.009 81.7644 100.606 81.5431C97.7287 79.9333 94.8111 72.9311 93.7446 68.7056C93.644 68.3233 93.8855 67.9409 94.2477 67.8403C94.63 67.7397 95.0123 67.9812 95.1129 68.3434C96.3001 73.0116 99.1774 79.1084 101.29 80.2955C101.572 80.4565 101.793 80.4967 101.974 80.4364C102.699 80.215 104.168 79.4504 106.039 78.5047C110.365 76.2914 117.609 72.6091 125.557 70.3555C125.939 70.2549 126.321 70.4763 126.422 70.8384C126.523 71.2207 126.301 71.603 125.939 71.7036C118.132 73.917 110.948 77.559 106.683 79.7522C104.671 80.7784 103.222 81.5229 102.397 81.7644C102.196 81.865 102.015 81.8851 101.813 81.8851Z" fill="#1C2122"/>
<path d="M117.147 65.1237C120.004 64.7615 120.99 68.9669 117.468 69.3089C114.531 69.6108 113.525 65.5865 117.147 65.1237Z" fill="#FFFEF2"/>
<path d="M117.186 70.0331C115.456 70.0331 114.289 68.7856 114.148 67.4777C114.007 66.1497 114.852 64.7009 117.066 64.4192C118.193 64.2784 119.219 64.7009 119.863 65.5661C120.466 66.3911 120.607 67.4375 120.205 68.3228C119.963 68.8862 119.279 69.8319 117.549 70.013C117.428 70.0331 117.307 70.0331 117.186 70.0331ZM117.227 65.8277C116.1 65.9686 115.436 66.532 115.537 67.3167C115.617 68.021 116.301 68.7252 117.408 68.6045C118.172 68.524 118.716 68.2222 118.917 67.7594C119.098 67.3368 119.018 66.8137 118.716 66.4113C118.535 66.1497 118.072 65.7271 117.227 65.8277Z" fill="#1C2122"/>
<path d="M111.492 66.1295C114.349 65.7673 115.335 69.9727 111.814 70.3148C108.896 70.6166 107.89 66.5923 111.492 66.1295Z" fill="#FFFEF2"/>
<path d="M111.532 71.039C109.802 71.039 108.635 69.7914 108.494 68.4835C108.353 67.1555 109.198 65.7068 111.411 65.4251C112.538 65.2842 113.564 65.7068 114.208 66.572C114.812 67.397 114.953 68.4433 114.55 69.3287C114.309 69.8921 113.625 70.8378 111.894 71.0189C111.774 71.039 111.653 71.039 111.532 71.039ZM111.593 66.8336C110.466 66.9744 109.802 67.5378 109.902 68.3226C109.983 69.0268 110.667 69.7311 111.774 69.6104C112.538 69.5299 113.082 69.228 113.283 68.7652C113.464 68.3427 113.383 67.8195 113.082 67.4171C112.88 67.1555 112.438 66.733 111.593 66.8336Z" fill="#1C2122"/>
<path d="M105.777 65.8079C108.594 65.4055 109.54 70.2547 106.099 70.6572C103.202 70.9791 102.216 66.331 105.777 65.8079Z" fill="#FFFEF2"/>
<path d="M105.798 71.3821C104.087 71.3821 103.001 70.0139 102.82 68.6255C102.639 67.1566 103.443 65.4463 105.677 65.1243C106.703 64.9835 107.669 65.3658 108.313 66.1908C109.037 67.1365 109.218 68.4846 108.776 69.5511C108.353 70.5773 107.427 71.2211 106.18 71.362C106.039 71.362 105.918 71.3821 105.798 71.3821ZM106.099 66.4926C106.019 66.4926 105.959 66.4926 105.878 66.5127C104.49 66.7139 104.107 67.6395 104.208 68.4444C104.309 69.2895 104.973 70.0742 106.019 69.9535C106.743 69.873 107.246 69.5309 107.468 68.9877C107.729 68.384 107.609 67.5792 107.186 67.0359C106.985 66.7944 106.643 66.4926 106.099 66.4926Z" fill="#1C2122"/>
<path d="M101.089 64.3799C103.806 65.889 101.753 70.3962 98.4935 68.4847C95.7569 66.875 97.6483 62.4885 101.089 64.3799Z" fill="#FFFEF2"/>
<path d="M100.043 69.6512C99.4995 69.6512 98.8557 69.5103 98.1514 69.0878C96.3405 68.0213 96.1594 66.0293 96.924 64.7013C97.6685 63.3934 99.3587 62.6087 101.451 63.7757C102.478 64.3391 103.061 65.3251 103.081 66.4519C103.101 67.6189 102.478 68.7256 101.512 69.289C101.17 69.45 100.667 69.6512 100.043 69.6512ZM99.4794 64.6208C98.8355 64.6208 98.3727 64.9629 98.1313 65.4056C97.7087 66.1501 97.8093 67.2768 98.8557 67.8805C99.58 68.303 100.244 68.3634 100.787 68.0616C101.31 67.7598 101.653 67.1159 101.653 66.472C101.653 66.1098 101.532 65.4458 100.767 65.0232C100.264 64.7415 99.8416 64.6208 99.4794 64.6208Z" fill="#1C2122"/>
<path d="M93.8053 60.7981C96.6022 59.3695 99.1777 63.3334 95.6967 64.9834C92.7992 66.3718 90.2438 62.609 93.8053 60.7981Z" fill="#FFFEF2"/>
<path d="M94.4492 65.9892C93.2017 65.9892 92.1353 65.2649 91.6524 64.299C91.0286 63.0314 91.3505 61.2607 93.4834 60.154C94.57 59.5906 95.7571 59.651 96.7028 60.2747C97.6083 60.8784 98.1315 61.9046 98.0711 62.9308C98.0308 63.5746 97.6888 64.782 95.9986 65.5868C95.4754 65.8685 94.9321 65.9892 94.4492 65.9892ZM95.0126 61.2003C94.7511 61.2003 94.4492 61.2607 94.1273 61.4217C92.9804 62.0052 92.5176 62.8704 92.92 63.6753C93.2822 64.3996 94.2681 64.8825 95.395 64.3393C96.1797 63.957 96.6223 63.4338 96.6626 62.8503C96.7028 62.3271 96.401 61.7839 95.9181 61.4619C95.737 61.3412 95.4151 61.2003 95.0126 61.2003Z" fill="#1C2122"/>
<path d="M123.364 64.0574C126.603 63.655 127.71 68.4036 123.726 68.7859C120.406 69.1079 119.259 64.5604 123.364 64.0574Z" fill="#FFFEF2"/>
<path d="M123.404 69.4903C121.493 69.4903 120.205 68.1221 120.064 66.6733C119.903 65.2246 120.849 63.635 123.283 63.3332L123.364 64.0374L123.283 63.3332C124.531 63.1722 125.658 63.635 126.362 64.6008C127.026 65.5063 127.167 66.6532 126.744 67.6191C126.483 68.2227 125.738 69.269 123.807 69.4702C123.666 69.4903 123.525 69.4903 123.404 69.4903ZM123.444 64.7417C122.116 64.9027 121.332 65.5868 121.452 66.5325C121.553 67.3776 122.358 68.2026 123.666 68.0818C124.571 68.0014 125.195 67.6392 125.456 67.0556C125.678 66.5526 125.597 65.9288 125.235 65.4459C124.994 65.124 124.45 64.621 123.444 64.7417Z" fill="#1C2122"/>
<path d="M129.058 63.4939C131.936 62.6891 133.586 66.6932 130.044 67.5987C127.086 68.3432 125.416 64.5201 129.058 63.4939Z" fill="#FFFEF2"/>
<path d="M129.3 68.3835C127.811 68.3835 126.684 67.4177 126.362 66.2708C126.02 64.983 126.664 63.4336 128.877 62.8099C130.004 62.4879 131.151 62.7696 131.936 63.5342C132.64 64.2385 132.942 65.2446 132.68 66.1702C132.519 66.7537 131.976 67.8201 130.225 68.2829C129.903 68.3433 129.581 68.3835 129.3 68.3835ZM129.823 64.0775C129.642 64.0775 129.461 64.0976 129.259 64.158C128.112 64.4799 127.529 65.144 127.73 65.9086C127.911 66.6128 128.736 67.1964 129.883 66.8945C130.668 66.6933 131.191 66.2909 131.332 65.7879C131.453 65.3653 131.292 64.8824 130.95 64.5202C130.648 64.2385 130.245 64.0775 129.823 64.0775Z" fill="#1C2122"/>
<path d="M139.32 6.61084C139.32 6.61084 141.272 1.31888 145.014 1.49998C154.129 1.90241 150.568 12.607 150.568 12.607C154.974 10.8967 157.308 15.3033 155.377 18.3618C153.465 21.4202 150.366 20.5148 150.366 20.5148C152.721 22.3659 148.314 27.9195 144.008 28C139.702 28.0804 139.561 25.847 139.561 25.847C137.67 27.2957 135.557 26.5915 134.652 24.7604C134.611 30.817 129.46 35.465 125.315 32.1047C120.808 28.4426 122.076 19.4483 122.076 19.4483C120.768 20.1123 119.862 18.6837 121.231 17.4563C117.086 20.2532 112.739 17.4966 115.496 13.754C112.759 16.249 104.127 16.2893 102.759 12.3052C102.015 10.112 104.288 8.98517 104.288 8.98517C104.288 8.98517 100.264 6.63095 101.572 3.04933C102.9 -0.532289 111.955 -0.371322 117.086 5.88646C117.086 5.88646 117.548 3.53225 120.848 4.33711C124.148 5.14197 124.43 10.937 124.43 10.937C124.43 10.937 127.267 9.46808 130.044 12.2046C130.044 12.2046 128.535 8.62298 131.593 5.98706C135.014 3.04933 139.32 6.61084 139.32 6.61084Z" fill="#1C2122"/>
<path d="M128.273 33.9553C127.086 33.9553 125.919 33.5126 124.853 32.6675C120.949 29.4883 121.07 22.8281 121.271 20.333C120.808 20.2928 120.386 20.0715 120.104 19.669C119.963 19.4678 119.883 19.2263 119.842 18.9648C117.73 19.7093 115.798 19.2263 114.772 18.1599C114.188 17.5361 113.786 16.5904 113.967 15.4435C111.814 16.2685 108.836 16.4697 106.341 15.8258C104.127 15.2624 102.618 14.0954 102.095 12.546C101.552 10.9564 102.276 9.72902 103.081 8.98453C101.592 7.77724 99.922 5.52363 100.928 2.80723C101.431 1.41885 102.84 0.473145 104.852 0.13108C108.192 -0.432321 113.263 0.774972 116.925 4.63829C117.106 4.39684 117.347 4.17549 117.669 3.97428C118.534 3.431 119.661 3.31027 121.029 3.65234C123.967 4.35659 124.812 8.19979 125.054 9.9906C125.959 9.76926 127.408 9.66866 128.977 10.5339C128.897 8.98453 129.34 7.01262 131.151 5.46327C133.807 3.18954 137.106 4.31635 138.998 5.56388C139.763 3.97428 141.755 0.67436 145.014 0.835331C147.61 0.95606 149.521 1.86153 150.668 3.55173C152.439 6.10716 151.956 9.74914 151.534 11.6406C153.184 11.3589 154.693 11.8619 155.679 13.0491C156.966 14.5984 157.067 16.9526 155.94 18.7636C154.733 20.6952 152.982 21.319 151.614 21.3793C151.735 21.9226 151.674 22.5464 151.453 23.2104C150.588 25.786 147.288 28.6834 143.948 28.7438C140.909 28.784 139.662 27.7578 139.139 26.9329C138.314 27.3554 137.408 27.4762 136.563 27.2749C136.04 27.1542 135.557 26.9128 135.114 26.5908C134.611 29.6694 132.841 32.3657 130.487 33.4723C129.802 33.7742 129.038 33.9553 128.273 33.9553ZM122.076 18.7434C122.217 18.7434 122.357 18.7837 122.478 18.8642C122.7 19.0251 122.8 19.2666 122.76 19.5282C122.74 19.6087 121.593 28.1804 125.738 31.5407C127.388 32.8888 128.937 32.6071 129.943 32.1242C132.257 31.0377 133.907 27.9993 133.907 24.7396C133.907 24.4177 134.128 24.136 134.45 24.0555C134.772 23.975 135.094 24.136 135.235 24.4177C135.597 25.1421 136.221 25.6652 136.925 25.8262C137.65 25.9872 138.394 25.786 139.098 25.2427C139.32 25.0817 139.602 25.0213 139.843 25.1421C140.084 25.2628 140.225 25.4841 140.245 25.7457C140.266 25.8866 140.588 27.3152 143.968 27.2548C146.604 27.2146 149.461 24.7598 150.145 22.6872C150.407 21.9226 150.326 21.3592 149.904 21.0373C149.642 20.8361 149.562 20.4538 149.723 20.1519C149.884 19.8501 150.226 19.7093 150.548 19.7898C150.648 19.8099 153.163 20.494 154.773 17.9386C155.598 16.6307 155.518 14.9606 154.612 13.8539C153.767 12.8277 152.379 12.5863 150.809 13.21C150.548 13.3106 150.266 13.2503 150.065 13.0692C149.863 12.8881 149.803 12.5863 149.884 12.3448C149.904 12.2844 151.554 7.21384 149.521 4.25598C148.616 2.94809 147.087 2.24383 144.954 2.14323C144.914 2.14323 144.853 2.14323 144.813 2.14323C141.714 2.14323 139.964 6.75105 139.944 6.81141C139.863 7.03275 139.682 7.19372 139.461 7.25408C139.239 7.31445 138.998 7.25408 138.837 7.11323C138.676 6.97238 134.953 3.95416 132.056 6.44923C129.42 8.70283 130.647 11.7412 130.688 11.8619C130.808 12.1637 130.708 12.5259 130.426 12.707C130.144 12.8881 129.782 12.868 129.541 12.6265C127.187 10.3125 124.853 11.4394 124.752 11.4796C124.531 11.5802 124.289 11.5802 124.088 11.4595C123.887 11.3387 123.746 11.1174 123.746 10.8961C123.665 9.4272 122.981 5.50352 120.707 4.94012C119.742 4.69866 118.977 4.75901 118.454 5.08096C117.911 5.4029 117.79 5.94618 117.79 5.96631C117.729 6.22788 117.528 6.44922 117.267 6.50959C117.005 6.56995 116.723 6.46934 116.562 6.26813C113.222 2.20359 108.272 0.915812 105.093 1.45909C103.604 1.70055 102.578 2.36456 102.256 3.24991C101.149 6.24801 104.63 8.32052 104.671 8.34064C104.892 8.48149 105.033 8.72295 105.013 8.96441C104.993 9.20587 104.852 9.44732 104.63 9.56805C104.449 9.64854 102.92 10.4936 103.443 12.043C103.946 13.5119 105.697 14.1557 106.703 14.4173C109.621 15.1618 113.504 14.5984 115.033 13.21C115.295 12.9686 115.717 12.9686 115.979 13.21C116.241 13.4515 116.281 13.8539 116.08 14.1557C115.214 15.3429 115.114 16.4295 115.798 17.1538C116.683 18.0593 118.736 18.2806 120.828 16.852C121.13 16.6508 121.553 16.7112 121.774 17.013C121.995 17.3148 121.955 17.7172 121.673 17.9788C121.19 18.4014 121.19 18.7434 121.251 18.844C121.311 18.9245 121.492 18.9245 121.734 18.8038C121.854 18.7636 121.955 18.7434 122.076 18.7434Z" fill="#1C2122"/>
</svg>
