<svg width="35" height="23" viewBox="0 0 35 23" fill="none" xmlns="http://www.w3.org/2000/svg">
<path fill-rule="evenodd" clip-rule="evenodd" d="M33.3691 7.69035C32.9577 6.88139 32.4159 6.10605 31.742 5.37895C30.2274 3.74423 28.0905 2.38393 25.5616 1.44574C23.0118 0.500272 20.1037 0 17.1483 0C14.193 0 11.2848 0.500272 8.73643 1.44574C6.20623 2.38404 4.06918 3.74434 2.55459 5.37895C1.88106 6.10594 1.33752 6.88237 0.92627 7.69176C4.21859 6.89559 9.85027 5.84442 15.0794 5.73328C15.5838 5.72244 15.9311 5.88399 16.1597 6.17381C16.4383 6.52673 16.4173 7.78479 16.4105 8.34762L16.2619 22.895C16.5563 22.9047 16.8522 22.911 17.1483 22.911C17.4469 22.911 17.7445 22.9061 18.0389 22.8964L17.8903 8.34751C17.8826 7.78479 17.861 6.52663 18.1405 6.1737C18.3697 5.88399 18.7158 5.72244 19.2201 5.73317C24.4471 5.84344 30.0774 6.89484 33.3691 7.69035Z" fill="#486AAE"/>
<path fill-rule="evenodd" clip-rule="evenodd" d="M34.072 9.58221C29.2534 8.49287 26.0354 8.29142 22.8603 8.11523C20.0927 7.96137 20.0566 8.94966 20.3328 10.8383C20.3509 10.9536 20.3732 11.0989 20.3995 11.2645C21.3278 16.763 22.4839 21.4946 22.6825 22.2977C29.4298 20.7554 34.2958 16.4792 34.2958 11.4559C34.2958 10.8234 34.2193 10.1967 34.072 9.58221Z" fill="#486AAE"/>
<path fill-rule="evenodd" clip-rule="evenodd" d="M13.9662 10.8383C14.2428 8.94977 14.2073 7.96137 11.44 8.11523C8.26381 8.29142 5.04511 8.49276 0.224656 9.58286C0.0774151 10.1973 0 10.8232 0 11.4558C0 13.6269 0.883228 15.7277 2.55449 17.5327C4.06907 19.1674 6.20612 20.5277 8.73632 21.4665C9.65208 21.8056 10.6185 22.0835 11.6139 22.3057C11.8007 21.5534 12.9833 16.7233 13.9217 11.1265C13.9391 11.0193 13.9551 10.9203 13.9662 10.8383Z" fill="#486AAE"/>
</svg>
