<svg width="33" height="33" viewBox="0 0 33 33" fill="none" xmlns="http://www.w3.org/2000/svg">
<path d="M24.1728 23.1883C23.2688 21.6716 22.3645 20.1549 21.4599 18.6385C19.5677 15.4683 17.6748 12.297 15.7813 9.12464C15.1709 8.10248 14.5634 7.07894 13.9415 6.06417C13.8168 5.86103 13.8159 5.71652 13.9415 5.51015C15.0034 3.74838 16.0551 1.9783 17.1095 0.210988C17.1483 0.146353 17.1945 0.0867958 17.2545 0C17.5777 0.537857 17.8907 1.05448 18.2005 1.57294C19.8487 4.32733 21.4964 7.08202 23.1437 9.83701C24.5647 12.2156 25.9846 14.5951 27.4031 16.9755C29.0175 19.6785 30.6325 22.3815 32.248 25.0845C34.1344 28.2417 36.0207 31.3993 37.9068 34.5572C38.0476 34.7936 38.0453 34.7982 37.7785 34.7982C35.64 34.7982 33.5019 34.7982 31.3611 34.806C31.1765 34.806 31.0772 34.7414 30.983 34.5835C28.7583 30.8504 26.5297 27.1192 24.297 23.3901C24.2614 23.3305 24.2245 23.2724 24.1885 23.2137L24.1862 23.1948L24.1728 23.1883Z" fill="#02A03C"/>
<path d="M24.176 23.1887L24.1922 23.1942C24.1922 23.1942 24.1945 23.2136 24.1945 23.2132C23.7993 23.8632 23.4009 24.5109 23.0103 25.1637C22.3178 26.3207 21.6279 27.4794 20.9406 28.6397C20.9212 28.6721 20.8976 28.7025 20.8755 28.7321C20.7467 28.9112 20.677 28.9135 20.5615 28.7238C20.2296 28.1767 19.9046 27.625 19.5735 27.0774C18.9521 26.0497 18.3299 25.0229 17.707 23.9971C17.5966 23.8124 17.4941 23.6277 17.3866 23.4431C17.2518 23.2122 17.2435 23.2122 17.1096 23.4334C16.6146 24.2625 16.1189 25.091 15.6225 25.9186L14.0639 28.5248C14.0251 28.5903 13.99 28.6587 13.9466 28.721C13.8141 28.9107 13.7578 28.9057 13.6294 28.7034C12.6516 27.1707 11.7615 25.5853 10.8132 24.0336C10.671 23.8027 10.5002 23.5866 10.3977 23.329C10.3515 23.2136 10.3746 23.1965 10.4789 23.1965C10.8173 23.1965 11.1557 23.1965 11.4946 23.1965C13.3179 23.1965 15.1408 23.1965 16.9632 23.1965C17.0357 23.1965 17.1317 23.2307 17.1751 23.1554C17.2185 23.0802 17.1368 23.0137 17.0994 22.9523C16.5634 22.064 15.9955 21.1938 15.4932 20.2875C15.0094 19.4149 14.4688 18.5765 13.9909 17.7021C13.8741 17.4874 13.9032 17.4297 14.1451 17.4297C16.191 17.4297 18.2368 17.4297 20.2827 17.4297C20.6756 17.4297 20.6779 17.4412 20.4757 17.7815C19.58 19.287 18.6751 20.7884 17.7979 22.3036C17.6326 22.5885 17.4004 22.8346 17.2956 23.1559C17.3215 23.2113 17.3741 23.1938 17.4157 23.1938C19.6465 23.1959 21.877 23.1971 24.1072 23.1975C24.1304 23.1968 24.1534 23.1939 24.176 23.1887Z" fill="#F6C307"/>
<path d="M10.3122 29.0111C11.3655 29.0111 12.4184 29.0111 13.471 29.0111C13.7208 29.0111 13.7245 29.0139 13.6095 29.2419C13.2951 29.8698 12.8976 30.4492 12.5444 31.055C12.0878 31.8375 11.6299 32.6196 11.1622 33.3952C10.9124 33.8107 10.6483 34.2138 10.4276 34.6417C10.3413 34.8093 10.2684 34.7447 10.2042 34.639C9.8884 34.1188 9.57538 33.5971 9.26513 33.0739C8.97704 32.5896 8.69726 32.1002 8.40455 31.6187C8.00705 30.9649 7.5883 30.326 7.23927 29.6408C7.16047 29.4939 7.07403 29.3512 6.98028 29.2133C6.86763 29.0411 6.93919 29.0083 7.10724 29.0088C8.17557 29.0111 9.24389 29.0111 10.3122 29.0111Z" fill="#F6C307"/>
<path d="M24.18 29.0104C25.2265 29.0104 26.273 29.0104 27.3194 29.0104C27.3928 29.0104 27.4893 28.9749 27.5332 29.0492C27.5858 29.1383 27.5198 29.2201 27.4718 29.3013C26.6758 30.6439 25.8933 31.9947 25.0812 33.3276C24.8277 33.7431 24.5974 34.1739 24.3194 34.5742C24.1698 34.7898 24.1708 34.7976 24.0369 34.5742C23.818 34.2076 23.6103 33.8355 23.3933 33.4661C23.1188 32.9989 22.8417 32.5332 22.5623 32.0691C22.0138 31.1531 21.465 30.237 20.9159 29.3207C20.7774 29.0899 20.8236 29.0081 21.0909 29.0077C22.1214 29.0077 23.1525 29.0077 24.1842 29.0077L24.18 29.0104Z" fill="#F6C307"/>
<path d="M6.86514 23.1978C7.91161 23.1978 8.95716 23.1978 10.0018 23.1978C10.083 23.1978 10.1934 23.1577 10.2395 23.2288C10.2857 23.2999 10.1934 23.382 10.1532 23.449C9.22986 25.0018 8.30327 26.5525 7.37345 28.1013C7.23494 28.3299 7.09413 28.5556 6.95378 28.7828C6.87714 28.907 6.80789 28.895 6.73356 28.7768C5.97225 27.5639 5.24649 26.3299 4.52489 25.0935C4.20956 24.5529 3.87391 24.0238 3.55212 23.4868C3.50596 23.4111 3.40807 23.3308 3.45286 23.244C3.49764 23.1572 3.61861 23.1978 3.70494 23.1978C4.7585 23.1951 5.81189 23.1951 6.86514 23.1978Z" fill="#F6C307"/>
<path d="M3.40175 29.0116C4.45531 29.0116 5.50932 29.0143 6.56334 29.0088C6.74431 29.0088 6.8071 29.031 6.69583 29.2156C6.38651 29.7295 6.09057 30.2512 5.78401 30.7669C5.03209 32.0322 4.27802 33.2967 3.52178 34.5605C3.38697 34.7867 3.37174 34.7886 3.23647 34.5633C2.2694 32.9514 1.30249 31.3397 0.335731 29.7281C0.237855 29.5647 0.162601 29.3874 0.0587228 29.2276C-0.0590055 29.0453 0.00794348 29.0083 0.19123 29.0088C1.26048 29.0125 2.32973 29.0088 3.39898 29.0088L3.40175 29.0116Z" fill="#F6C307"/>
<path d="M17.2605 29.007C18.307 29.007 19.3525 29.007 20.3971 29.007C20.6635 29.007 20.6894 29.0449 20.5509 29.2771C20.0329 30.1474 19.5084 31.0135 18.9867 31.8814C18.457 32.7632 17.9279 33.645 17.3994 34.5269C17.2831 34.7208 17.2148 34.7277 17.098 34.5329C16.5398 33.6053 15.9872 32.6741 15.4322 31.7443C14.9641 30.9595 14.4978 30.1769 14.0241 29.3971C13.9562 29.2859 13.8464 29.133 13.8819 29.0578C13.9359 28.9428 14.1127 29.0116 14.2388 29.0116C15.2462 29.0092 16.2534 29.0092 17.2605 29.0116V29.007Z" fill="#F6C307"/>
<path d="M13.7865 11.6202C14.8329 11.6202 15.8794 11.6202 16.9259 11.6202C16.991 11.6202 17.0718 11.5906 17.1082 11.676C17.1392 11.7481 17.0976 11.8058 17.0621 11.8667C16.2375 13.2567 15.4142 14.6469 14.5921 16.0375C14.3612 16.429 14.0865 16.7961 13.8866 17.2074C13.7966 17.3921 13.7366 17.3224 13.6623 17.1982C13.3622 16.6953 13.0604 16.1934 12.7569 15.6927C12.316 14.9614 11.8571 14.2397 11.4388 13.4955C11.1267 12.9415 10.7611 12.417 10.4864 11.839C10.3714 11.5966 10.4956 11.6202 10.6484 11.6202H13.7878H13.7865Z" fill="#F6C307"/>
<path d="M13.6837 17.5164C13.6403 17.6037 13.6052 17.6886 13.5581 17.7666C12.8502 18.9418 12.1412 20.1164 11.4311 21.2906C11.1047 21.8331 10.7898 22.382 10.4639 22.9245C10.3134 23.1747 10.3037 23.1724 10.1573 22.9291C9.39156 21.6567 8.62795 20.384 7.86649 19.111C7.56963 18.6152 7.28662 18.111 6.9893 17.6161C6.90296 17.4739 6.94821 17.4421 7.08579 17.4411C7.33879 17.4411 7.59133 17.4347 7.84387 17.4347C9.70413 17.4347 11.5644 17.4356 13.4246 17.4375C13.5133 17.4375 13.6255 17.3964 13.6837 17.5164Z" fill="#F6C307"/>
</svg>
