<svg width="40" height="40" viewBox="0 0 40 40" fill="none" xmlns="http://www.w3.org/2000/svg">
<circle cx="19.7984" cy="19.7989" r="17.8848" stroke="#CEFD1E"/>
<path d="M30 19.9997C30 19.6872 29.8758 19.3875 29.6549 19.1666C29.4339 18.9456 29.1342 18.8214 28.8217 18.8214L21.1783 18.8214L21.1783 11.178C21.1783 10.8655 21.0541 10.5658 20.8332 10.3449C20.6122 10.1239 20.3125 9.99975 20 9.9997C19.6875 9.99975 19.3878 10.1239 19.1668 10.3449C18.9459 10.5658 18.8217 10.8655 18.8217 11.178L18.8217 18.8214L11.1783 18.8214C10.8658 18.8214 10.5661 18.9456 10.3451 19.1666C10.1242 19.3875 10 19.6872 9.99997 19.9997C10 20.3122 10.1242 20.6119 10.3451 20.8329C10.5661 21.0539 10.8658 21.178 11.1783 21.1781L18.8217 21.1781L18.8217 28.8214C18.8217 29.1339 18.9459 29.4336 19.1668 29.6546C19.3878 29.8756 19.6875 29.9997 20 29.9998C20.3125 29.9997 20.6122 29.8756 20.8332 29.6546C21.0541 29.4336 21.1783 29.1339 21.1783 28.8214L21.1783 21.1781L28.8217 21.1781C29.1342 21.178 29.4339 21.0539 29.6549 20.8329C29.8758 20.6119 30 20.3122 30 19.9997Z" fill="#CEFD1E"/>
</svg>
