<svg width="22" height="22" viewBox="0 0 22 22" fill="none" xmlns="http://www.w3.org/2000/svg">
<path fill-rule="evenodd" clip-rule="evenodd" d="M14.2473 2.06807C12.1114 1.56705 9.88862 1.56705 7.75271 2.06807C4.93208 2.72969 2.72969 4.93207 2.06807 7.75271C1.56705 9.88862 1.56705 12.1114 2.06807 14.2473C2.72969 17.068 4.93208 19.2703 7.75271 19.9319C9.88862 20.433 12.1114 20.433 14.2473 19.9319C17.068 19.2703 19.2703 17.068 19.9319 14.2473C20.433 12.1114 20.433 9.88862 19.9319 7.75271C19.2703 4.93208 17.068 2.72969 14.2473 2.06807ZM7.36624 0.42048C9.75628 -0.14016 12.2437 -0.14016 14.6337 0.42048C18.0802 1.22889 20.7712 3.91985 21.5795 7.36624C22.1402 9.75628 22.1402 12.2437 21.5795 14.6337C20.7712 18.0802 18.0802 20.7712 14.6337 21.5795C12.2437 22.1402 9.75628 22.1402 7.36624 21.5795C3.91985 20.7712 1.22889 18.0802 0.42048 14.6339C-0.14016 12.2437 -0.14016 9.75628 0.42048 7.36623C1.22889 3.91985 3.91985 1.22889 7.36624 0.42048Z" fill="#00D37F"/>
<path fill-rule="evenodd" clip-rule="evenodd" d="M14.6799 8.12503C15.0216 8.4439 15.04 8.9793 14.7212 9.32092L10.7724 13.5517C10.6158 13.7195 10.3979 13.8165 10.1684 13.8204C9.93902 13.8244 9.71778 13.735 9.55555 13.5727L7.2991 11.3163C6.96866 10.9858 6.96866 10.4501 7.2991 10.1197C7.62954 9.78924 8.1653 9.78924 8.49574 10.1197L10.1328 11.7567L13.484 8.16627C13.8028 7.82463 14.3382 7.80618 14.6799 8.12503Z" fill="#00D37F"/>
</svg>
