<svg width="29" height="26" viewBox="0 0 29 26" fill="none" xmlns="http://www.w3.org/2000/svg">
<path d="M22.2382 12.8632C22.0017 12.8632 21.7681 12.876 21.5379 12.9005V12.5787C21.5379 12.1965 21.4109 11.8459 21.2004 11.5736C21.4109 11.3012 21.5379 10.9506 21.5379 10.5684V9.26167C21.5379 8.39713 20.8889 7.69385 20.0911 7.69385H17.0727V4.99071C18.1834 5.08956 19.3 4.84673 20.2774 4.28247C21.5659 3.53856 22.4755 2.3337 22.8385 0.889939C22.9126 0.595179 22.7392 0.294792 22.4469 0.211579C21.015 -0.196044 19.5168 -0.0107145 18.2283 0.733248C17.5419 1.12951 16.9599 1.66001 16.5101 2.29403C16.0604 1.66001 15.4783 1.12951 14.792 0.733248C13.5034 -0.0107145 12.0052 -0.195988 10.5734 0.211579C10.2811 0.294792 10.1077 0.595122 10.1818 0.889883C10.5447 2.3337 11.4543 3.53851 12.7428 4.28247C13.5786 4.76504 14.5162 5.01338 15.4649 5.01338C15.6256 5.01338 15.7866 5.0059 15.9475 4.9916V7.6939H12.9291C12.1313 7.6939 11.4823 8.39719 11.4823 9.26172V10.5684C11.4823 10.9507 11.6093 11.3012 11.8198 11.5736C11.6093 11.846 11.4823 12.1966 11.4823 12.5788V13.8855C11.4823 14.2676 11.6091 14.6183 11.8196 14.8907C11.6091 15.163 11.4823 15.5137 11.4823 15.8959V17.2026C11.4823 17.5848 11.6091 17.9355 11.8196 18.2078C11.6091 18.4801 11.4823 18.8308 11.4823 19.213V20.5197C11.4823 20.9018 11.6092 21.2524 11.8198 21.5249C11.6093 21.7972 11.4823 22.148 11.4823 22.5301V23.8368C11.4823 24.7012 12.1313 25.4046 12.9291 25.4046H19.507C20.3392 25.7866 21.2642 26 22.2383 26C25.8601 26 28.8066 23.0535 28.8066 19.4317C28.8066 15.8099 25.86 12.8632 22.2382 12.8632ZM18.7908 1.70772C19.6431 1.2157 20.6111 1.03167 21.5678 1.17125C21.2103 2.0696 20.567 2.81587 19.7147 3.30794C18.91 3.7725 17.9866 3.9634 17.0726 3.86089V3.5443C17.4506 2.7735 18.0422 2.13993 18.7908 1.70772ZM13.3054 3.30794C12.4531 2.81587 11.8098 2.0696 11.4523 1.17125C12.4091 1.03155 13.377 1.21564 14.2293 1.70772C14.9778 2.13987 15.5694 2.7735 15.9474 3.54425V3.86084C15.0337 3.9634 14.11 3.7725 13.3054 3.30794ZM18.1084 14.328H12.929C12.7577 14.328 12.6074 14.1211 12.6074 13.8854V12.5787C12.6074 12.343 12.7577 12.1361 12.929 12.1361H20.091C20.2624 12.1361 20.4126 12.343 20.4126 12.5787V13.1215C19.5609 13.3683 18.7802 13.7833 18.1084 14.328ZM12.6075 20.5196V19.2129C12.6075 18.9771 12.7577 18.7703 12.9291 18.7703H15.703C15.6812 18.9879 15.6698 19.2084 15.6698 19.4315C15.6698 19.9584 15.7326 20.4708 15.8503 20.9621H12.9287C12.7768 20.9618 12.6075 20.7801 12.6075 20.5196ZM15.9168 17.6451H12.929C12.7577 17.6451 12.6074 17.4383 12.6074 17.2025V15.8958C12.6074 15.66 12.7577 15.4532 12.929 15.4532H17.0154C16.5213 16.1004 16.1442 16.8415 15.9168 17.6451ZM12.6075 9.26167C12.6075 9.02592 12.7577 8.8191 12.9291 8.8191H20.0911C20.2624 8.8191 20.4127 9.02592 20.4127 9.26167V10.5684C20.4127 10.8041 20.2624 11.0109 20.0911 11.0109H12.929C12.7577 11.0109 12.6074 10.8041 12.6074 10.5684L12.6075 9.26167ZM12.929 24.2791C12.7577 24.2791 12.6074 24.0723 12.6074 23.8366V22.5299C12.6074 22.2693 12.7767 22.0875 12.9287 22.0873H16.2312C16.6026 22.9241 17.1437 23.6694 17.8107 24.2791H12.929ZM22.2382 24.8746C19.2369 24.8746 16.7951 22.4329 16.7951 19.4315C16.7951 16.4302 19.2369 13.9884 22.2382 13.9884C25.2395 13.9884 27.6813 16.4302 27.6813 19.4315C27.6813 22.4328 25.2395 24.8746 22.2382 24.8746ZM8.60887 11.0109H1.4468C0.648991 11.0109 0 11.7142 0 12.5787V13.8854C0 14.2676 0.126816 14.6183 0.337295 14.8906C0.126816 15.1629 0 15.5136 0 15.8958V17.2025C0 17.5847 0.126816 17.9354 0.337295 18.2077C0.126816 18.48 0 18.8307 0 19.2129V20.5196C0 20.9016 0.126929 21.2523 0.33752 21.5247C0.126929 21.7971 0 22.1479 0 22.5299V23.8366C0 24.7011 0.649047 25.4044 1.4468 25.4044H8.60887C9.40668 25.4044 10.0557 24.7011 10.0557 23.8366V22.5299C10.0557 22.1478 9.9288 21.7971 9.71821 21.5247C9.92874 21.2523 10.0557 20.9016 10.0557 20.5195V19.2128C10.0557 18.8307 9.92891 18.48 9.71843 18.2077C9.92891 17.9353 10.0557 17.5847 10.0557 17.2025V15.8958C10.0557 15.5136 9.92891 15.163 9.71843 14.8906C9.92891 14.6183 10.0557 14.2676 10.0557 13.8854V12.5787C10.0557 11.7142 9.40668 11.0109 8.60887 11.0109ZM8.93047 23.8366C8.93047 24.0723 8.78019 24.2791 8.60887 24.2791H1.4468C1.27553 24.2791 1.12525 24.0723 1.12525 23.8366V22.5299C1.12525 22.2702 1.29348 22.0888 1.44505 22.0874H8.61062C8.76225 22.0888 8.93047 22.2702 8.93047 22.5299V23.8366ZM8.93047 20.5196C8.93047 20.7801 8.76118 20.9618 8.60921 20.9621L1.44651 20.9622C1.29455 20.962 1.12525 20.7801 1.12525 20.5196V19.2129C1.12525 18.9771 1.27553 18.7703 1.4468 18.7703H8.60887C8.78019 18.7703 8.93047 18.9771 8.93047 19.2129V20.5196ZM8.93047 17.2025C8.93047 17.4382 8.78019 17.645 8.60887 17.645H1.4468C1.27553 17.645 1.12525 17.4382 1.12525 17.2025V15.8958C1.12525 15.66 1.27553 15.4532 1.4468 15.4532H8.60887C8.78019 15.4532 8.93047 15.66 8.93047 15.8958V17.2025ZM8.93047 13.8854C8.93047 14.1211 8.78019 14.328 8.60887 14.328H1.4468C1.27553 14.328 1.12525 14.1211 1.12525 13.8854V12.5787C1.12525 12.343 1.27553 12.1361 1.4468 12.1361H8.60887C8.78019 12.1361 8.93047 12.343 8.93047 12.5787V13.8854Z" fill="#26F0F1"/>
<path fill-rule="evenodd" clip-rule="evenodd" d="M20.3333 17.6689H21.1667C21.6947 17.6689 22.1413 18.0217 22.285 18.505H20.3333C20.1493 18.505 20 18.6548 20 18.8394C20 19.024 20.1493 19.1738 20.3333 19.1738H22.285C22.1413 19.6571 21.6947 20.0099 21.1667 20.0099H20.3333C20.196 20.0099 20.073 20.0942 20.023 20.2223C19.973 20.3504 20.0063 20.4962 20.107 20.5898L22.607 22.9111C22.742 23.0365 22.953 23.0282 23.078 22.8927C23.203 22.7573 23.1947 22.5456 23.0597 22.4202L21.184 20.6784C22.0743 20.6704 22.814 20.024 22.9697 19.1738H23.6667C23.8507 19.1738 24 19.024 24 18.8394C24 18.6548 23.8507 18.505 23.6667 18.505H22.9697C22.9123 18.1913 22.7753 17.9053 22.5803 17.6689H23.6667C23.8507 17.6689 24 17.519 24 17.3344C24 17.1498 23.8507 17 23.6667 17H20.3333C20.1493 17 20 17.1498 20 17.3344C20 17.519 20.1493 17.6689 20.3333 17.6689Z" fill="#26F0F1"/>
</svg>
