<svg width="15" height="16" viewBox="0 0 15 16" fill="none" xmlns="http://www.w3.org/2000/svg">
<path fill-rule="evenodd" clip-rule="evenodd" d="M5.28591 1.77821C6.74222 1.43661 8.25776 1.43661 9.71406 1.77821C11.6372 2.22932 13.1388 3.73094 13.59 5.6541C13.9316 7.1104 13.9316 8.62594 13.59 10.0823C13.1388 12.0054 11.6372 13.507 9.71406 13.9581C8.25776 14.2997 6.74222 14.2997 5.28591 13.9581C3.36276 13.507 1.86114 12.0054 1.41006 10.0823C1.06844 8.62594 1.06844 7.1104 1.41006 5.6541C1.86114 3.73094 3.36276 2.22932 5.28591 1.77821ZM9.97756 0.654855C8.34799 0.2726 6.65199 0.2726 5.02245 0.654855C2.6726 1.20604 0.837829 3.04079 0.286674 5.3906C-0.0955572 7.02017 -0.0955572 8.71617 0.286674 10.3457C0.837829 12.6956 2.6726 14.5303 5.02245 15.0815C6.65199 15.4637 8.34799 15.4637 9.97756 15.0815C12.3274 14.5303 14.1621 12.6956 14.7133 10.3458C15.0956 8.71617 15.0956 7.02017 14.7133 5.39059C14.1621 3.04079 12.3274 1.20604 9.97756 0.654855Z" fill="#CEFD1E"/>
<path fill-rule="evenodd" clip-rule="evenodd" d="M7.8616 10.1992C8.08691 10.4245 8.45214 10.4245 8.67745 10.1992L10.6006 8.27609C10.7087 8.16793 10.7695 8.02117 10.7695 7.86817C10.7695 7.71516 10.7087 7.5684 10.6006 7.46024L8.67745 5.53714C8.45214 5.31184 8.08691 5.31184 7.8616 5.53714C7.6363 5.76245 7.6363 6.12773 7.8616 6.35301L8.79976 7.29124H4.80798C4.48937 7.29124 4.23106 7.54955 4.23106 7.86817C4.23106 8.18678 4.48937 8.44509 4.80798 8.44509H8.79976L7.8616 9.38332C7.6363 9.60863 7.6363 9.97386 7.8616 10.1992Z" fill="#CEFD1E"/>
</svg>
