<svg width="7" height="12" viewBox="0 0 7 12" fill="none" xmlns="http://www.w3.org/2000/svg">
<path d="M0.083333 10.9998C0.0826993 10.8902 0.10372 10.7814 0.145191 10.6799C0.186661 10.5784 0.247765 10.486 0.324999 10.4082L4.14999 6.5915C4.2281 6.51403 4.29009 6.42186 4.3324 6.32031C4.37471 6.21876 4.39649 6.10984 4.39649 5.99983C4.39649 5.88982 4.37471 5.7809 4.3324 5.67935C4.29009 5.5778 4.2281 5.48563 4.14999 5.40816L0.325 1.5915C0.16808 1.43458 0.0799241 1.22175 0.0799241 0.999829C0.0799241 0.777911 0.16808 0.565082 0.325 0.408162C0.481919 0.251242 0.694747 0.163086 0.916665 0.163086C1.02655 0.163086 1.13535 0.184729 1.23687 0.226779C1.33839 0.26883 1.43063 0.330463 1.50833 0.408162L5.32499 4.23316C5.78129 4.70811 6.03613 5.3412 6.03613 5.99983C6.03613 6.65846 5.78129 7.29154 5.32499 7.7665L1.50833 11.5915C1.43086 11.6696 1.33869 11.7316 1.23714 11.7739C1.1356 11.8162 1.02667 11.838 0.916665 11.838C0.806655 11.838 0.697734 11.8162 0.596185 11.7739C0.494636 11.7316 0.402468 11.6696 0.324999 11.5915C0.247765 11.5136 0.186661 11.4213 0.145191 11.3198C0.10372 11.2182 0.0826993 11.1095 0.083333 10.9998Z" fill="#00D37F"/>
</svg>
