<svg width="26" height="26" viewBox="0 0 26 26" fill="none" xmlns="http://www.w3.org/2000/svg">
<path fill-rule="evenodd" clip-rule="evenodd" d="M2.44408 9.16225C1.85197 11.6865 1.85197 14.3135 2.44408 16.8377C3.226 20.1712 5.8288 22.774 9.16229 23.5559C11.6865 24.148 14.3135 24.148 16.8378 23.5559C20.1712 22.774 22.774 20.1712 23.5559 16.8377C24.148 14.3135 24.148 11.6865 23.5559 9.16225C22.774 5.82878 20.1712 3.22597 16.8378 2.4441C14.3135 1.85197 11.6865 1.85197 9.16229 2.4441C5.82882 3.22597 3.226 5.82878 2.44408 9.16225ZM0.49693 17.2944C-0.165644 14.4699 -0.165644 11.5301 0.49693 8.70558C1.45232 4.63251 4.63255 1.45223 8.70555 0.4969C11.5301 -0.165635 14.4699 -0.165635 17.2944 0.4969C21.3675 1.45223 24.5478 4.63251 25.5031 8.70558C26.1656 11.5301 26.1656 14.4699 25.5031 17.2944C24.5478 21.3674 21.3675 24.5477 17.2946 25.5031C14.4699 26.1656 11.5301 26.1656 8.70554 25.5031C4.63255 24.5477 1.45232 21.3675 0.49693 17.2944Z" fill="#00D37F"/>
<path fill-rule="evenodd" clip-rule="evenodd" d="M12.3738 17.0404C11.9832 17.4309 11.3502 17.4309 10.9596 17.0404L7.62627 13.707C7.43873 13.5195 7.33337 13.2651 7.33337 12.9999C7.33337 12.7347 7.43873 12.4803 7.62627 12.2928L10.9596 8.95951C11.3502 8.56898 11.9832 8.56898 12.3738 8.95951C12.7643 9.35004 12.7643 9.98311 12.3738 10.3736L10.7476 11.9999L17.6667 11.9999C18.219 11.9999 18.6667 12.4476 18.6667 12.9999C18.6667 13.5522 18.219 13.9999 17.6667 13.9999L10.7476 13.9999L12.3738 15.6262C12.7643 16.0167 12.7643 16.6498 12.3738 17.0404Z" fill="#00D37F"/>
</svg>
