<svg width="22" height="26" viewBox="0 0 22 26" fill="none" xmlns="http://www.w3.org/2000/svg">
<path fill-rule="evenodd" clip-rule="evenodd" d="M11 0C11.5523 0 12 0.447721 12 1V1.38336C12.6556 1.44956 13.3053 1.58655 13.9364 1.79495C16.8899 2.77039 19.1484 5.18126 19.9396 8.19737L20.7223 11.1801L21.3496 14.0211C21.405 14.272 21.473 14.5492 21.5444 14.8406C21.6924 15.4446 21.8554 16.1088 21.9518 16.7246C21.9836 16.928 22 17.136 22 17.3472C22 19.241 20.6718 20.878 18.8162 21.2562L18.326 21.356C17.5086 21.5226 16.687 21.6608 15.8624 21.7711C15.8547 21.8058 15.8464 21.8404 15.838 21.8751L15.7287 22.3196C15.2974 24.0736 13.926 25.442 12.1712 25.8619C11.4012 26.046 10.5988 26.046 9.82881 25.8619C8.074 25.442 6.70269 24.0736 6.27137 22.3195L6.16207 21.8751C6.15357 21.8404 6.14539 21.8059 6.13755 21.7711C5.31309 21.6608 4.49142 21.5226 3.67396 21.356L3.18383 21.2562C1.32821 20.878 0 19.241 0 17.3472C0 17.136 0.0164401 16.928 0.0482935 16.7246C0.144667 16.1088 0.307547 15.4446 0.455641 14.8406C0.527054 14.5494 0.595028 14.272 0.650454 14.0211L1.27861 11.1763L2.07187 8.24861C2.89999 5.19222 5.23935 2.75646 8.23616 1.78503C8.81161 1.59848 9.40281 1.46994 10 1.39983V1C10 0.447721 10.4477 0 11 0ZM10.9436 3.3381C10.2368 3.35104 9.53094 3.46776 8.85281 3.68758C6.49403 4.45221 4.65234 6.37242 4.00227 8.77165L3.22139 11.6536L2.6034 14.4523C2.5257 14.8043 2.44536 15.1299 2.36823 15.4426C2.23347 15.989 2.10847 16.4956 2.02423 17.0339C2.00835 17.1354 2 17.2399 2 17.3472C2 18.2967 2.66524 19.1094 3.58308 19.2964L4.0732 19.3962C5.21605 19.6291 6.36761 19.8036 7.52353 19.92C9.96868 20.1663 12.4333 20.1522 14.8762 19.8775C15.8979 19.7626 16.9158 19.6022 17.9268 19.3962L18.417 19.2964C19.3348 19.1094 20 18.2967 20 17.3472C20 17.2399 19.9916 17.1354 19.9758 17.0339C19.8915 16.4956 19.7666 15.9888 19.6318 15.4426C19.5547 15.1299 19.4743 14.8043 19.3966 14.4523L18.7778 11.6497L18.0052 8.70492C17.385 6.34099 15.6163 4.45601 13.3092 3.69406C12.5871 3.45558 11.8315 3.33679 11.0751 3.33688C11.0503 3.33872 11.0252 3.33966 11 3.33966C10.9811 3.33966 10.9623 3.33912 10.9436 3.3381ZM8.25472 21.9919C8.54641 22.9499 9.32148 23.684 10.2941 23.9167C10.7583 24.0278 11.2417 24.0278 11.7059 23.9167C12.6785 23.684 13.4536 22.9499 13.7453 21.9919C11.9176 22.129 10.0824 22.129 8.25472 21.9919Z" fill="white"/>
</svg>
