<svg width="27" height="27" viewBox="0 0 27 27" fill="none" xmlns="http://www.w3.org/2000/svg">
<circle cx="13.1606" cy="13.1606" r="13.1606" fill="#00D37F" fill-opacity="0.1"/>
<path fill-rule="evenodd" clip-rule="evenodd" d="M10.3652 5C10.7051 5 10.9806 5.27552 10.9806 5.61538V5.81603C11.0146 5.80728 11.0487 5.79879 11.0829 5.79057C12.7317 5.39476 14.4478 5.39476 16.0966 5.79057C16.1308 5.79879 16.1649 5.80728 16.1989 5.81603V5.61538C16.1989 5.27552 16.4744 5 16.8143 5C17.1541 5 17.4297 5.27552 17.4297 5.61538V6.27334C19.1573 7.12778 20.4435 8.74064 20.8905 10.6908C21.2758 12.3721 21.2758 14.1216 20.8905 15.8029C20.3348 18.2273 18.4821 20.1304 16.0966 20.7031C14.4478 21.099 12.7317 21.099 11.0829 20.7031C8.69735 20.1304 6.84469 18.2273 6.28901 15.8029C5.90366 14.1216 5.90366 12.3721 6.28901 10.6908C6.73598 8.74064 8.02215 7.12778 9.74981 6.27334V5.61538C9.74981 5.27552 10.0253 5 10.3652 5ZM9.74992 7.68941C8.63046 8.42483 7.8045 9.58781 7.48867 10.9658C7.1448 12.4661 7.1448 14.0276 7.48867 15.5279C7.94272 17.509 9.45113 19.0457 11.3702 19.5063C12.8301 19.8569 14.3494 19.8569 15.8093 19.5063C17.7283 19.0457 19.2368 17.509 19.6908 15.5279C20.0347 14.0276 20.0347 12.4661 19.6908 10.9658C19.375 9.58782 18.549 8.42483 17.4296 7.6894C17.4234 8.02398 17.1504 8.29333 16.8143 8.29333C16.4744 8.29333 16.1989 8.01781 16.1989 7.67795V7.09736C16.0711 7.05575 15.9412 7.019 15.8093 6.98734C14.3494 6.63687 12.8301 6.63687 11.3702 6.98734C11.2383 7.019 11.1084 7.05575 10.9806 7.09736V7.67795C10.9806 8.01781 10.7051 8.29333 10.3652 8.29333C10.0292 8.29333 9.75603 8.02398 9.74992 7.68941Z" fill="#00D37F"/>
<circle cx="11" cy="14" r="1" fill="#00D37F"/>
<circle cx="16" cy="14" r="1" fill="#00D37F"/>
</svg>
