<svg width="30" height="30" viewBox="0 0 30 30" fill="none" xmlns="http://www.w3.org/2000/svg">
<circle cx="15" cy="15" r="14.25" fill="#104F55" stroke="#191919" stroke-width="1.5"/>
<path fill-rule="evenodd" clip-rule="evenodd" d="M15.0002 9.14224C14.0132 9.14224 13.1991 9.81268 12.9914 10.6929C12.9437 10.8951 12.7828 11.051 12.5793 11.0925L12.4685 11.115C10.9668 11.4207 9.77996 12.526 9.39254 13.9591C9.05881 15.1936 9.05881 16.4914 9.39254 17.7259C9.77996 19.159 10.9668 20.2644 12.4685 20.57L12.7922 20.6359C14.2485 20.9323 15.752 20.9323 17.2083 20.6359L17.5319 20.57C19.0336 20.2644 20.2205 19.159 20.6079 17.7259C20.9416 16.4914 20.9416 15.1936 20.6079 13.9591C20.2205 12.526 19.0336 11.4207 17.5319 11.115L17.4212 11.0925C17.2177 11.051 17.0568 10.8951 17.0091 10.6929C16.8014 9.81268 15.9873 9.14224 15.0002 9.14224ZM12.0534 10.1168C12.4853 8.92245 13.6469 8.07715 15.0002 8.07715C16.3536 8.07715 17.5152 8.92245 17.947 10.1168C19.7377 10.5562 21.1585 11.9145 21.6361 13.6811C22.019 15.0977 22.019 16.5873 21.6361 18.0038C21.1406 19.8367 19.63 21.2299 17.7443 21.6137L17.4207 21.6796C15.8242 22.0045 14.1763 22.0045 12.5797 21.6796L12.2561 21.6137C10.3704 21.2299 8.85983 19.8367 8.36436 18.0038C7.98141 16.5873 7.98141 15.0977 8.36436 13.6811C8.84194 11.9145 10.2627 10.5562 12.0534 10.1168Z" fill="white"/>
<path fill-rule="evenodd" clip-rule="evenodd" d="M12.6934 15.71C12.6934 14.4356 13.7266 13.4023 15.0011 13.4023C16.2755 13.4023 17.3087 14.4356 17.3087 15.71C17.3087 16.9845 16.2755 18.0177 15.0011 18.0177C13.7266 18.0177 12.6934 16.9845 12.6934 15.71ZM15.0011 14.4674C14.3148 14.4674 13.7584 15.0238 13.7584 15.71C13.7584 16.3963 14.3148 16.9526 15.0011 16.9526C15.6873 16.9526 16.2437 16.3963 16.2437 15.71C16.2437 15.0238 15.6873 14.4674 15.0011 14.4674Z" fill="white"/>
</svg>
