<svg width="16" height="16" viewBox="0 0 16 16" fill="none" xmlns="http://www.w3.org/2000/svg">
<path d="M8.90371 7.77803C8.65349 7.6445 8.36478 7.59094 8.08556 7.53912C7.87643 7.50031 7.66015 7.46022 7.53784 7.39494C7.47546 7.36162 7.47546 7.353 7.47546 7.29688C7.47546 7.26366 7.52953 7.20303 7.6329 7.15134C7.88884 7.02341 8.24978 7.03388 8.43756 7.17472C8.64471 7.33006 8.93846 7.28806 9.09381 7.08097C9.24915 6.87388 9.20718 6.58006 9.00006 6.42472C8.8459 6.30909 8.66396 6.22647 8.46881 6.17731V6.0625C8.46881 5.80362 8.25893 5.59375 8.00006 5.59375C7.74118 5.59375 7.53131 5.80362 7.53131 6.0625V6.19134C7.42212 6.22163 7.31543 6.26191 7.21365 6.31281C6.78425 6.5275 6.53796 6.88619 6.53796 7.29688C6.53796 7.70709 6.73109 8.027 7.09643 8.222C7.34662 8.35553 7.63534 8.40909 7.91456 8.46091C8.12371 8.49972 8.33996 8.53981 8.46228 8.60509C8.52465 8.63838 8.52465 8.64703 8.52465 8.70312C8.52465 8.73525 8.46918 8.79709 8.3664 8.8485C8.11068 8.97638 7.75006 8.96594 7.56256 8.82531C7.35546 8.66997 7.06165 8.712 6.90631 8.91906C6.75096 9.12619 6.79296 9.42 7.00006 9.57531C7.15421 9.69094 7.33618 9.7735 7.53131 9.82263V9.9375C7.53131 10.1964 7.74118 10.4062 8.00006 10.4062C8.25893 10.4062 8.46881 10.1964 8.46881 9.9375V9.80797C8.57771 9.77772 8.68415 9.73778 8.78568 9.687C9.21559 9.47203 9.46215 9.11344 9.46215 8.70309C9.46215 8.29291 9.26906 7.973 8.90371 7.77803Z" fill="#26F0F1"/>
<path d="M8 12.2188C10.3262 12.2188 12.2188 10.3262 12.2188 8C12.2188 5.67378 10.3262 3.78125 8 3.78125C5.67378 3.78125 3.78125 5.67378 3.78125 8C3.78125 10.3262 5.67378 12.2188 8 12.2188ZM8 4.71875C9.80928 4.71875 11.2812 6.19072 11.2812 8C11.2812 9.80928 9.80928 11.2812 8 11.2812C6.19072 11.2812 4.71875 9.80928 4.71875 8C4.71875 6.19072 6.19072 4.71875 8 4.71875Z" fill="#26F0F1"/>
<path d="M1.26947 9.61388L1.78444 9.73869C2.02472 9.79691 2.23403 9.96278 2.30525 10.1514C2.35009 10.2701 2.39925 10.3888 2.45141 10.5043C2.54094 10.7025 2.52091 10.9414 2.39781 11.1433L2.12175 11.596C1.72134 12.2526 1.8215 13.0909 2.36528 13.6348C2.90906 14.1786 3.74747 14.2787 4.40409 13.8783L4.85675 13.6023C5.05859 13.4791 5.29747 13.4591 5.49572 13.5486C5.61116 13.6007 5.72991 13.6499 5.84863 13.6948C6.0505 13.771 6.20437 13.9529 6.26069 14.1817C6.26069 14.1817 6.38569 14.7286 6.38616 14.7306C6.56725 15.478 7.23091 16 8 16C8.76909 16 9.43275 15.478 9.61391 14.7305C9.61438 14.7285 9.73938 14.1817 9.73938 14.1817C9.79566 13.9529 9.94953 13.771 10.1514 13.6948C10.2702 13.6499 10.3889 13.6007 10.5043 13.5486C10.7026 13.4591 10.9414 13.4791 11.1433 13.6023L11.596 13.8783C12.2526 14.2787 13.091 14.1786 13.6348 13.6348C14.1786 13.091 14.2787 12.2526 13.8783 11.596L13.6023 11.1433C13.4792 10.9414 13.4591 10.7026 13.5487 10.5043C13.6008 10.3888 13.65 10.2701 13.6948 10.1514C13.766 9.96278 13.9753 9.79694 14.2156 9.73872L14.7306 9.61391C15.478 9.43272 16 8.76909 16 8C16 7.23091 15.478 6.56728 14.7305 6.38613L14.2156 6.26131C13.9753 6.20309 13.766 6.03722 13.6947 5.84863C13.6499 5.72991 13.6007 5.61116 13.5486 5.49572C13.4591 5.29747 13.4791 5.05856 13.6022 4.85672L13.8783 4.40403C14.2787 3.74744 14.1785 2.90906 13.6347 2.36522C13.0909 1.82141 12.2525 1.72128 11.5959 2.12169L11.1433 2.39775C10.9414 2.52084 10.7025 2.54091 10.5043 2.45138C10.3888 2.39925 10.2701 2.35006 10.1514 2.30522C9.9495 2.22897 9.79562 2.04709 9.73931 1.81831C9.73931 1.81831 9.61431 1.27144 9.61384 1.26944C9.43275 0.522031 8.76909 0 8 0C7.23091 0 6.56725 0.522031 6.38609 1.26947C6.38562 1.27147 6.26062 1.81834 6.26062 1.81834C6.20434 2.04709 6.05047 2.229 5.84859 2.30522C5.72981 2.35006 5.61106 2.39925 5.49569 2.45138C5.29741 2.54091 5.05853 2.52087 4.85669 2.39775L4.404 2.12169C3.74734 1.72128 2.90897 1.82144 2.36522 2.36522C1.82141 2.90903 1.72125 3.74741 2.12169 4.40403L2.39772 4.85669C2.52081 5.05856 2.54087 5.29744 2.45134 5.49569C2.39919 5.61116 2.35003 5.72991 2.30522 5.84859C2.234 6.03722 2.02469 6.20306 1.78437 6.26128L1.26941 6.38609C0.522031 6.56728 0 7.23091 0 8C0 8.76906 0.522031 9.43272 1.26947 9.61388ZM1.49028 7.29725L2.00522 7.17244C2.54991 7.04044 3.00094 6.66006 3.18231 6.17978C3.22019 6.07947 3.26175 5.97913 3.30578 5.88156C3.52294 5.40075 3.48269 4.83516 3.19816 4.36856L2.92213 3.91591C2.74775 3.63 2.79137 3.26494 3.02819 3.02813C3.26497 2.79131 3.63009 2.74772 3.91594 2.92206L4.36859 3.19812C4.83519 3.48269 5.40078 3.52291 5.88163 3.30575C5.97913 3.26172 6.07944 3.22016 6.17981 3.18228C6.67256 2.99622 7.04366 2.56787 7.17244 2.03647C7.17291 2.03447 7.29787 1.48769 7.29787 1.48769C7.37762 1.16359 7.666 0.9375 8 0.9375C8.334 0.9375 8.62234 1.16359 8.70209 1.48769C8.70209 1.48769 8.82706 2.03447 8.82753 2.03647C8.95634 2.56784 9.32741 2.99619 9.82019 3.18228C9.92056 3.22016 10.0209 3.26172 10.1184 3.30575C10.5992 3.52291 11.1648 3.48266 11.6314 3.19812L12.084 2.92209C12.37 2.74772 12.7351 2.79134 12.9718 3.02813C13.2086 3.26494 13.2522 3.63 13.0779 3.91591L12.8018 4.36859C12.5173 4.83516 12.4771 5.40078 12.6942 5.88159C12.7383 5.97916 12.7798 6.07947 12.8177 6.17981C12.9991 6.66009 13.4501 7.04047 13.9948 7.17247L14.5098 7.29728C14.8352 7.37612 15.0625 7.66512 15.0625 8C15.0625 8.33488 14.8352 8.62388 14.5097 8.70275L13.9948 8.82756C13.4501 8.95956 12.9991 9.33994 12.8177 9.82022C12.7798 9.92053 12.7382 10.0209 12.6942 10.1184C12.4771 10.5992 12.5173 11.1648 12.8018 11.6314L13.0779 12.0841C13.2522 12.37 13.2086 12.7351 12.9718 12.9719C12.735 13.2087 12.3699 13.2523 12.0841 13.0779L11.6314 12.8019C11.1648 12.5173 10.5992 12.4771 10.1184 12.6943C10.0209 12.7383 9.92056 12.7798 9.82019 12.8177C9.32744 13.0038 8.95634 13.4321 8.82756 13.9635C8.82709 13.9655 8.70212 14.5123 8.70212 14.5123C8.62237 14.8364 8.334 15.0625 8 15.0625C7.666 15.0625 7.37766 14.8364 7.29791 14.5123C7.29791 14.5123 7.17294 13.9655 7.17247 13.9635C7.04366 13.4322 6.67259 13.0038 6.17981 12.8177C6.07944 12.7798 5.97913 12.7383 5.88163 12.6943C5.40084 12.4771 4.83522 12.5173 4.36863 12.8019L3.91597 13.0779C3.63009 13.2523 3.265 13.2087 3.02819 12.9719C2.79137 12.7351 2.74778 12.37 2.92213 12.0841L3.19819 11.6314C3.48269 11.1648 3.52294 10.5992 3.30578 10.1184C3.26172 10.0208 3.22019 9.92053 3.18228 9.82019C3.00094 9.33991 2.54991 8.95953 2.00522 8.82753L1.49025 8.70272C1.16481 8.62387 0.9375 8.33488 0.9375 8C0.9375 7.66509 1.16481 7.37612 1.49028 7.29725Z" fill="#26F0F1"/>
</svg>
