<svg width="24" height="24" viewBox="0 0 24 24" fill="none" xmlns="http://www.w3.org/2000/svg">
<rect width="24" height="24" rx="2" fill="#69CAD7"/>
<path d="M12 16.2188C14.3262 16.2188 16.2188 14.3262 16.2188 12C16.2188 9.67378 14.3262 7.78125 12 7.78125C9.67378 7.78125 7.78125 9.67378 7.78125 12C7.78125 14.3262 9.67378 16.2188 12 16.2188ZM12 8.71875C13.8093 8.71875 15.2812 10.1907 15.2812 12C15.2812 13.8093 13.8093 15.2812 12 15.2812C10.1907 15.2812 8.71875 13.8093 8.71875 12C8.71875 10.1907 10.1907 8.71875 12 8.71875Z" fill="black"/>
<path fill-rule="evenodd" clip-rule="evenodd" d="M10.3333 10.5574H11.1667C11.6947 10.5574 12.1413 10.8514 12.285 11.2541H10.3333C10.1493 11.2541 10 11.379 10 11.5328C10 11.6867 10.1493 11.8115 10.3333 11.8115H12.285C12.1413 12.2142 11.6947 12.5083 11.1667 12.5083H10.3333C10.196 12.5083 10.073 12.5785 10.023 12.6852C9.973 12.792 10.0063 12.9135 10.107 12.9915L12.607 14.9259C12.742 15.0304 12.953 15.0235 13.078 14.9106C13.203 14.7977 13.1947 14.6213 13.0597 14.5168L11.184 13.0654C12.0743 13.0587 12.814 12.52 12.9697 11.8115H13.6667C13.8507 11.8115 14 11.6867 14 11.5328C14 11.379 13.8507 11.2541 13.6667 11.2541H12.9697C12.9123 10.9927 12.7753 10.7544 12.5803 10.5574H13.6667C13.8507 10.5574 14 10.4325 14 10.2787C14 10.1249 13.8507 10 13.6667 10H10.3333C10.1493 10 10 10.1249 10 10.2787C10 10.4325 10.1493 10.5574 10.3333 10.5574Z" fill="black"/>
<path d="M5.26947 13.6139L5.78444 13.7387C6.02472 13.7969 6.23403 13.9628 6.30525 14.1514C6.35009 14.2701 6.39925 14.3888 6.45141 14.5043C6.54094 14.7025 6.52091 14.9414 6.39781 15.1433L6.12175 15.596C5.72134 16.2526 5.8215 17.0909 6.36528 17.6348C6.90906 18.1786 7.74747 18.2787 8.40409 17.8783L8.85675 17.6023C9.05859 17.4791 9.29747 17.4591 9.49572 17.5486C9.61116 17.6007 9.72991 17.6499 9.84863 17.6948C10.0505 17.771 10.2044 17.9529 10.2607 18.1817C10.2607 18.1817 10.3857 18.7286 10.3862 18.7306C10.5672 19.478 11.2309 20 12 20C12.7691 20 13.4327 19.478 13.6139 18.7305C13.6144 18.7285 13.7394 18.1817 13.7394 18.1817C13.7957 17.9529 13.9495 17.771 14.1514 17.6948C14.2702 17.6499 14.3889 17.6007 14.5043 17.5486C14.7026 17.4591 14.9414 17.4791 15.1433 17.6023L15.596 17.8783C16.2526 18.2787 17.091 18.1786 17.6348 17.6348C18.1786 17.091 18.2787 16.2526 17.8783 15.596L17.6023 15.1433C17.4792 14.9414 17.4591 14.7026 17.5487 14.5043C17.6008 14.3888 17.65 14.2701 17.6948 14.1514C17.766 13.9628 17.9753 13.7969 18.2156 13.7387L18.7306 13.6139C19.478 13.4327 20 12.7691 20 12C20 11.2309 19.478 10.5673 18.7305 10.3861L18.2156 10.2613C17.9753 10.2031 17.766 10.0372 17.6947 9.84863C17.6499 9.72991 17.6007 9.61116 17.5486 9.49572C17.4591 9.29747 17.4791 9.05856 17.6022 8.85672L17.8783 8.40403C18.2787 7.74744 18.1785 6.90906 17.6347 6.36522C17.0909 5.82141 16.2525 5.72128 15.5959 6.12169L15.1433 6.39775C14.9414 6.52084 14.7025 6.54091 14.5043 6.45138C14.3888 6.39925 14.2701 6.35006 14.1514 6.30522C13.9495 6.22897 13.7956 6.04709 13.7393 5.81831C13.7393 5.81831 13.6143 5.27144 13.6138 5.26944C13.4327 4.52203 12.7691 4 12 4C11.2309 4 10.5672 4.52203 10.3861 5.26947C10.3856 5.27147 10.2606 5.81834 10.2606 5.81834C10.2043 6.04709 10.0505 6.229 9.84859 6.30522C9.72981 6.35006 9.61106 6.39925 9.49569 6.45138C9.29741 6.54091 9.05853 6.52087 8.85669 6.39775L8.404 6.12169C7.74734 5.72128 6.90897 5.82144 6.36522 6.36522C5.82141 6.90903 5.72125 7.74741 6.12169 8.40403L6.39772 8.85669C6.52081 9.05856 6.54087 9.29744 6.45134 9.49569C6.39919 9.61116 6.35003 9.72991 6.30522 9.84859C6.234 10.0372 6.02469 10.2031 5.78437 10.2613L5.26941 10.3861C4.52203 10.5673 4 11.2309 4 12C4 12.7691 4.52203 13.4327 5.26947 13.6139ZM5.49028 11.2972L6.00522 11.1724C6.54991 11.0404 7.00094 10.6601 7.18231 10.1798C7.22019 10.0795 7.26175 9.97913 7.30578 9.88156C7.52294 9.40075 7.48269 8.83516 7.19816 8.36856L6.92213 7.91591C6.74775 7.63 6.79137 7.26494 7.02819 7.02813C7.26497 6.79131 7.63009 6.74772 7.91594 6.92206L8.36859 7.19812C8.83519 7.48269 9.40078 7.52291 9.88163 7.30575C9.97913 7.26172 10.0794 7.22016 10.1798 7.18228C10.6726 6.99622 11.0437 6.56787 11.1724 6.03647C11.1729 6.03447 11.2979 5.48769 11.2979 5.48769C11.3776 5.16359 11.666 4.9375 12 4.9375C12.334 4.9375 12.6223 5.16359 12.7021 5.48769C12.7021 5.48769 12.8271 6.03447 12.8275 6.03647C12.9563 6.56784 13.3274 6.99619 13.8202 7.18228C13.9206 7.22016 14.0209 7.26172 14.1184 7.30575C14.5992 7.52291 15.1648 7.48266 15.6314 7.19812L16.084 6.92209C16.37 6.74772 16.7351 6.79134 16.9718 7.02813C17.2086 7.26494 17.2522 7.63 17.0779 7.91591L16.8018 8.36859C16.5173 8.83516 16.4771 9.40078 16.6942 9.88159C16.7383 9.97916 16.7798 10.0795 16.8177 10.1798C16.9991 10.6601 17.4501 11.0405 17.9948 11.1725L18.5098 11.2973C18.8352 11.3761 19.0625 11.6651 19.0625 12C19.0625 12.3349 18.8352 12.6239 18.5097 12.7028L17.9948 12.8276C17.4501 12.9596 16.9991 13.3399 16.8177 13.8202C16.7798 13.9205 16.7382 14.0209 16.6942 14.1184C16.4771 14.5992 16.5173 15.1648 16.8018 15.6314L17.0779 16.0841C17.2522 16.37 17.2086 16.7351 16.9718 16.9719C16.735 17.2087 16.3699 17.2523 16.0841 17.0779L15.6314 16.8019C15.1648 16.5173 14.5992 16.4771 14.1184 16.6943C14.0209 16.7383 13.9206 16.7798 13.8202 16.8177C13.3274 17.0038 12.9563 17.4321 12.8276 17.9635C12.8271 17.9655 12.7021 18.5123 12.7021 18.5123C12.6224 18.8364 12.334 19.0625 12 19.0625C11.666 19.0625 11.3777 18.8364 11.2979 18.5123C11.2979 18.5123 11.1729 17.9655 11.1725 17.9635C11.0437 17.4322 10.6726 17.0038 10.1798 16.8177C10.0794 16.7798 9.97913 16.7383 9.88163 16.6943C9.40084 16.4771 8.83522 16.5173 8.36863 16.8019L7.91597 17.0779C7.63009 17.2523 7.265 17.2087 7.02819 16.9719C6.79137 16.7351 6.74778 16.37 6.92213 16.0841L7.19819 15.6314C7.48269 15.1648 7.52294 14.5992 7.30578 14.1184C7.26172 14.0208 7.22019 13.9205 7.18228 13.8202C7.00094 13.3399 6.54991 12.9595 6.00522 12.8275L5.49025 12.7027C5.16481 12.6239 4.9375 12.3349 4.9375 12C4.9375 11.6651 5.16481 11.3761 5.49028 11.2972Z" fill="black"/>
</svg>
