<svg width="24" height="24" viewBox="0 0 24 24" fill="none" xmlns="http://www.w3.org/2000/svg">
<path d="M14.9599 10.4946C15.2869 10.1677 15.2869 9.63759 14.9599 9.31064C14.6331 8.98369 14.1029 8.98369 13.776 9.31064L12 11.0867L10.224 9.31064C9.89703 8.98369 9.36696 8.98369 9.04001 9.31064C8.71306 9.63759 8.71306 10.1677 9.04001 10.4947L10.816 12.2706L9.04001 14.0466C8.71306 14.3735 8.71306 14.9037 9.04001 15.2306C9.36696 15.5576 9.89703 15.5576 10.224 15.2306L12 13.4546L13.776 15.2306C14.1029 15.5576 14.6331 15.5576 14.96 15.2306C15.2869 14.9037 15.2869 14.3735 14.96 14.0466L13.184 12.2706L14.9599 10.4946Z" fill="white"/>
<path fill-rule="evenodd" clip-rule="evenodd" d="M12 0C5.37258 0 0 5.37258 0 12C0 18.6275 5.37258 24 12 24C18.6275 24 24 18.6275 24 12C24 5.37258 18.6275 0 12 0ZM1.67442 12C1.67442 6.29734 6.29734 1.67442 12 1.67442C17.7026 1.67442 22.3256 6.29734 22.3256 12C22.3256 17.7026 17.7026 22.3256 12 22.3256C6.29734 22.3256 1.67442 17.7026 1.67442 12Z" fill="white"/>
</svg>
