<svg width="28" height="27" viewBox="0 0 28 27" fill="none" xmlns="http://www.w3.org/2000/svg">
<g clip-path="url(#clip0_5293_17170)">
<path d="M7.15002 17.9304C7.11759 17.8932 7.07766 17.8633 7.03285 17.8426C6.98804 17.8219 6.93936 17.8109 6.89001 17.8104C6.82697 17.813 6.76537 17.8301 6.71001 17.8604L5.24002 18.7104C5.19455 18.7339 5.15539 18.7679 5.12581 18.8097C5.09623 18.8515 5.0771 18.8997 5.07001 18.9504C5.05971 18.9993 5.06065 19.0499 5.07278 19.0985C5.08491 19.147 5.1079 19.1921 5.14001 19.2304C6.72244 21.2036 8.92467 22.5849 11.39 23.1504L11.93 23.2704L11.16 25.5504C11.1362 25.5986 11.1238 25.6516 11.1238 25.7054C11.1238 25.7592 11.1362 25.8122 11.16 25.8604C11.1921 25.9051 11.234 25.9419 11.2826 25.9679C11.3311 25.9939 11.385 26.0085 11.44 26.0104H16.44C16.4952 26.0092 16.5493 25.9951 16.598 25.969C16.6467 25.9429 16.6885 25.9057 16.72 25.8604C16.7543 25.8174 16.7769 25.7662 16.7857 25.7119C16.7944 25.6576 16.789 25.602 16.77 25.5504L16.01 23.2704L16.59 23.1504C19.0581 22.5796 21.2607 21.1911 22.84 19.2104C22.8732 19.1723 22.8975 19.1273 22.9112 19.0786C22.9248 19.0299 22.9274 18.9788 22.9188 18.929C22.9101 18.8792 22.8905 18.8319 22.8613 18.7906C22.8321 18.7494 22.7941 18.7151 22.75 18.6904L21.27 17.8404C21.2 17.7991 21.1177 17.7836 21.0374 17.7963C20.9571 17.8091 20.8838 17.8494 20.83 17.9104C19.9861 18.897 18.9388 19.6894 17.7598 20.2331C16.5809 20.7768 15.2983 21.059 14 21.0604C12.6999 21.0644 11.4144 20.7867 10.2319 20.2464C9.04937 19.706 7.99797 18.9159 7.15002 17.9304Z" fill="#ffffff"/>
<path d="M16.04 18.0298C16.03 17.6396 15.906 17.2608 15.6833 16.9402C15.4606 16.6195 15.149 16.3711 14.7868 16.2254C14.4246 16.0798 14.0277 16.0434 13.645 16.1206C13.2624 16.1978 12.9107 16.3853 12.6333 16.66C12.3559 16.9347 12.165 17.2845 12.0841 17.6664C12.0032 18.0483 12.0358 18.4456 12.1779 18.8091C12.32 19.1727 12.5654 19.4868 12.8839 19.7126C13.2023 19.9384 13.5799 20.066 13.97 20.0798C14.2427 20.0894 14.5146 20.0432 14.7687 19.9438C15.0229 19.8445 15.2541 19.6942 15.448 19.5021C15.6419 19.3101 15.7944 19.0804 15.8963 18.8272C15.9981 18.574 16.047 18.3026 16.04 18.0298Z" fill="#ffffff"/>
<path d="M22.94 14.2602C22.9158 14.3365 22.9184 14.4189 22.9475 14.4935C22.9766 14.5681 23.0305 14.6305 23.1 14.6702L24.57 15.5302C24.6162 15.5547 24.6677 15.5675 24.72 15.5675C24.7723 15.5675 24.8238 15.5547 24.87 15.5302C24.9173 15.5138 24.9605 15.4875 24.9967 15.453C25.0329 15.4185 25.0614 15.3766 25.08 15.3302C25.5831 14.0218 25.8407 12.6319 25.84 11.2302C25.8403 10.1168 25.682 9.009 25.37 7.9402L25.18 7.29019H27.64C27.7568 7.27713 27.8641 7.21988 27.94 7.13019C27.9699 7.07851 27.9856 7.01988 27.9856 6.96019C27.9856 6.90051 27.9699 6.84188 27.94 6.79019C27.27 5.38019 26.11 3.0902 25.35 1.6902C25.324 1.63684 25.2845 1.59122 25.2353 1.55789C25.1862 1.52456 25.1292 1.50466 25.07 1.5002C25.0108 1.49617 24.9515 1.50685 24.8975 1.53127C24.8434 1.5557 24.7962 1.59312 24.76 1.64019L23.12 3.8302L22.71 3.39019C20.9865 1.53611 18.6838 0.323073 16.18 -0.0498047H16.12C16.0298 -0.0448134 15.9447 -0.00604202 15.8817 0.0588036C15.8187 0.123649 15.7824 0.209821 15.78 0.300195V2.01019C15.7802 2.08899 15.8069 2.16542 15.8559 2.22712C15.9049 2.28882 15.9733 2.33219 16.05 2.35019C18.5157 2.90184 20.685 4.35759 22.13 6.4302C22.1997 6.53112 22.26 6.63824 22.31 6.7502C23.0721 8.10766 23.4587 9.64369 23.43 11.2002C23.4405 12.2405 23.2748 13.2751 22.94 14.2602Z" fill="#ffffff"/>
<path d="M17.59 8.21992C17.5999 8.6132 17.7255 8.99485 17.9511 9.31711C18.1768 9.63937 18.4925 9.88791 18.8587 10.0317C19.2249 10.1754 19.6253 10.2079 20.01 10.1252C20.3946 10.0425 20.7462 9.84816 21.021 9.56657C21.2957 9.28497 21.4813 8.92861 21.5545 8.54208C21.6277 8.15554 21.5853 7.756 21.4325 7.39345C21.2798 7.0309 21.0235 6.72145 20.6958 6.50382C20.3681 6.28619 19.9834 6.17004 19.59 6.16992C19.055 6.18297 18.5464 6.4047 18.1727 6.78775C17.799 7.17079 17.5899 7.68478 17.59 8.21992Z" fill="#ffffff"/>
<path d="M11.93 2.40044C12.0049 2.38052 12.071 2.33634 12.118 2.27481C12.1651 2.21328 12.1904 2.13789 12.19 2.06044V0.350435C12.1916 0.300755 12.1816 0.251393 12.1607 0.206263C12.1399 0.161133 12.1088 0.121476 12.07 0.0904349C12.0322 0.0571957 11.9874 0.0327769 11.939 0.0189417C11.8906 0.00510653 11.8397 0.00220049 11.79 0.010435C9.28695 0.385604 6.985 1.59827 5.26001 3.45043L4.85001 3.89043L3.21001 1.70044C3.17388 1.65336 3.12668 1.61594 3.07259 1.59151C3.01851 1.56709 2.95922 1.55641 2.90002 1.56044C2.84082 1.5649 2.78382 1.58479 2.7347 1.61813C2.68558 1.65146 2.64604 1.69708 2.62001 1.75044C1.87001 3.14044 0.710014 5.43044 0.030014 6.85044C0.00283296 6.90298 -0.0113525 6.96128 -0.0113525 7.02044C-0.0113525 7.0796 0.00283296 7.13789 0.030014 7.19044C0.0589941 7.24343 0.102828 7.28681 0.156124 7.31523C0.209421 7.34366 0.269861 7.35589 0.330017 7.35044H2.79002L2.60001 8.00044C2.28733 9.06909 2.12906 10.177 2.13002 11.2904C2.12789 12.6932 2.38908 14.084 2.90002 15.3904C2.91748 15.4376 2.94547 15.4801 2.98187 15.5147C3.01826 15.5494 3.06209 15.5753 3.11002 15.5904C3.15536 15.6118 3.20488 15.6229 3.25502 15.6229C3.30515 15.6229 3.35467 15.6118 3.40002 15.5904L4.87001 14.7304C4.93957 14.6907 4.9934 14.6283 5.02252 14.5537C5.05164 14.4791 5.05429 14.3968 5.03001 14.3204C4.70399 13.3536 4.53518 12.3407 4.53001 11.3204C4.48831 9.81541 4.83257 8.32476 5.53001 6.99044C5.60687 6.83176 5.69371 6.67812 5.79002 6.53043C7.24336 4.42947 9.43617 2.9545 11.93 2.40044Z" fill="#ffffff"/>
<path d="M8.32998 10.27C8.87368 10.27 9.3951 10.054 9.77955 9.66953C10.164 9.28508 10.38 8.76366 10.38 8.21996C10.38 7.67627 10.164 7.15485 9.77955 6.7704C9.3951 6.38595 8.87368 6.16996 8.32998 6.16996C7.99458 6.16777 7.664 6.24996 7.36868 6.40898C7.07336 6.568 6.82277 6.79874 6.63998 7.07996C6.41558 7.41386 6.29708 7.80767 6.29998 8.20996C6.29184 8.48016 6.33855 8.7492 6.4373 9.00083C6.53606 9.25246 6.68479 9.48147 6.87453 9.67401C7.06426 9.86655 7.29106 10.0186 7.54121 10.1211C7.79137 10.2235 8.0597 10.2741 8.32998 10.27Z" fill="#ffffff"/>
</g>
<defs>
<clipPath id="clip0_5293_17170">
<rect width="28" height="26.02" fill="white"/>
</clipPath>
</defs>
</svg>
