<svg width="22" height="22" viewBox="0 0 22 22" fill="none" xmlns="http://www.w3.org/2000/svg">
<g clip-path="url(#clip0_4003_12657)">
<path d="M15.583 7.33401H6.41634V6.41734C6.41606 5.40113 6.75351 4.41364 7.37565 3.61012C7.99778 2.8066 8.86932 2.23263 9.85323 1.97844C10.8371 1.72425 11.8776 1.80426 12.8111 2.20589C13.7446 2.60752 14.5181 3.30799 15.0101 4.19718C15.0685 4.30245 15.1471 4.39518 15.2414 4.47007C15.3357 4.54496 15.4438 4.60055 15.5596 4.63366C15.6753 4.66677 15.7965 4.67676 15.9161 4.66305C16.0357 4.64934 16.1515 4.61221 16.2568 4.55376C16.362 4.49532 16.4548 4.41671 16.5296 4.32243C16.6045 4.22815 16.6601 4.12004 16.6932 4.00428C16.7264 3.88851 16.7363 3.76736 16.7226 3.64774C16.7089 3.52812 16.6718 3.41237 16.6133 3.30709C15.9243 2.06255 14.8412 1.08227 13.5343 0.520348C12.2274 -0.0415738 10.7708 -0.153277 9.39356 0.202798C8.01627 0.558873 6.79636 1.36254 5.92558 2.48746C5.0548 3.61238 4.58253 4.99478 4.58301 6.41734V7.72268C3.76659 8.07899 3.07169 8.66549 2.5833 9.41046C2.0949 10.1554 1.83418 11.0266 1.83301 11.9173V17.4173C1.83446 18.6325 2.31782 19.7974 3.17704 20.6566C4.03627 21.5159 5.20121 21.9992 6.41634 22.0007H15.583C16.7981 21.9992 17.9631 21.5159 18.8223 20.6566C19.6815 19.7974 20.1649 18.6325 20.1663 17.4173V11.9173C20.1649 10.7022 19.6815 9.53727 18.8223 8.67805C17.9631 7.81882 16.7981 7.33547 15.583 7.33401ZM18.333 17.4173C18.333 18.1467 18.0433 18.8462 17.5276 19.3619C17.0118 19.8776 16.3124 20.1673 15.583 20.1673H6.41634C5.687 20.1673 4.98752 19.8776 4.4718 19.3619C3.95607 18.8462 3.66634 18.1467 3.66634 17.4173V11.9173C3.66634 11.188 3.95607 10.4885 4.4718 9.9728C4.98752 9.45708 5.687 9.16734 6.41634 9.16734H15.583C16.3124 9.16734 17.0118 9.45708 17.5276 9.9728C18.0433 10.4885 18.333 11.188 18.333 11.9173V17.4173Z" fill="#00D37F"/>
<path d="M10.9997 12.834C10.7566 12.834 10.5234 12.9306 10.3515 13.1025C10.1796 13.2744 10.083 13.5075 10.083 13.7506V15.584C10.083 15.8271 10.1796 16.0603 10.3515 16.2322C10.5234 16.4041 10.7566 16.5006 10.9997 16.5006C11.2428 16.5006 11.476 16.4041 11.6479 16.2322C11.8198 16.0603 11.9164 15.8271 11.9164 15.584V13.7506C11.9164 13.5075 11.8198 13.2744 11.6479 13.1025C11.476 12.9306 11.2428 12.834 10.9997 12.834Z" fill="#00D37F"/>
</g>
<defs>
<clipPath id="clip0_4003_12657">
<rect width="22" height="22" fill="white"/>
</clipPath>
</defs>
</svg>
