<svg width="24" height="24" viewBox="0 0 24 24" fill="none" xmlns="http://www.w3.org/2000/svg">
<rect width="24" height="24" rx="2" fill="#69CAD7"/>
<path d="M19.9817 5.1953C19.9471 4.5598 19.4416 4.05444 18.8061 4.01975C17.5238 3.9497 15.0146 4.01785 12.6152 5.25889C11.392 5.89158 10.0984 6.96426 9.06599 8.20189C9.05327 8.21714 9.0409 8.23249 9.02827 8.24777L6.68537 8.42875C6.29972 8.45856 5.95622 8.6607 5.74292 8.98329L4.14451 11.4009C3.98274 11.6456 3.95703 11.9518 4.07567 12.22C4.19435 12.4882 4.4382 12.6751 4.72802 12.72L6.70193 13.0258C6.69496 13.0641 6.68796 13.1025 6.68156 13.1408C6.61584 13.5339 6.74608 13.9381 7.02999 14.222L9.77949 16.9715C10.0149 17.2069 10.3329 17.3366 10.6588 17.3366C10.726 17.3366 10.7935 17.3311 10.8606 17.3199C10.899 17.3135 10.9373 17.3065 10.9757 17.2995L11.2814 19.2735C11.3263 19.5633 11.5133 19.8072 11.7814 19.9258C11.893 19.9752 12.0111 19.9995 12.1286 19.9995C12.2937 19.9995 12.4576 19.9515 12.6005 19.857L15.0182 18.2586C15.3408 18.0452 15.5429 17.7017 15.5726 17.3161L15.7536 14.9732C15.7689 14.9606 15.7843 14.9482 15.7995 14.9355C17.0372 13.9031 18.1099 12.6095 18.7426 11.3863C19.9837 8.98682 20.0517 6.47752 19.9817 5.1953ZM14.5012 17.4766L12.1885 19.0056L11.8906 17.0819C12.868 16.7945 13.8349 16.3342 14.756 15.7176L14.6381 17.2439C14.6308 17.3391 14.5808 17.4239 14.5012 17.4766ZM10.4423 16.3086L7.6928 13.5591C7.62265 13.4889 7.59022 13.3903 7.60613 13.2954C7.68787 12.8066 7.81489 12.3413 7.97212 11.903L12.0976 16.0284C11.5712 16.217 11.0996 16.3295 10.7061 16.3953C10.6109 16.4111 10.5125 16.3788 10.4423 16.3086ZM6.75758 9.36338L8.28381 9.24548C7.66718 10.1666 7.20691 11.1335 6.91953 12.1109L4.99584 11.813L6.52488 9.50031C6.57756 9.42062 6.6624 9.37072 6.75758 9.36338ZM15.1991 14.2156C14.4419 14.8472 13.7069 15.304 13.0294 15.6346L8.36668 10.9719C8.7997 10.0875 9.32818 9.35101 9.78583 8.80237C10.7412 7.65701 11.9294 6.66894 13.0459 6.0915C15.248 4.95245 17.5681 4.89111 18.7551 4.95573C18.9122 4.96429 19.0372 5.08925 19.0457 5.24639C19.1105 6.4334 19.049 8.7535 17.9099 10.9556C17.3325 12.072 16.3445 13.2602 15.1991 14.2156Z" fill="#1D1D1D"/>
<path d="M14.9616 11.3829C15.5616 11.3829 16.1619 11.1545 16.6187 10.6977C17.0613 10.2551 17.3051 9.66654 17.3051 9.0406C17.3051 8.41466 17.0613 7.82615 16.6187 7.38354C15.705 6.46978 14.2182 6.46984 13.3046 7.38354C12.8619 7.82615 12.6182 8.41466 12.6182 9.0406C12.6182 9.66654 12.862 10.2551 13.3046 10.6977C13.7615 11.1546 14.3614 11.383 14.9616 11.3829ZM13.9674 8.04635C14.2415 7.77222 14.6015 7.63517 14.9616 7.63517C15.3217 7.63517 15.6817 7.77222 15.9558 8.04635C16.2214 8.31192 16.3676 8.66501 16.3676 9.04057C16.3676 9.41613 16.2214 9.76925 15.9558 10.0348C15.4076 10.5831 14.5156 10.583 13.9673 10.0348C13.7018 9.76925 13.5555 9.41616 13.5555 9.0406C13.5555 8.66504 13.7018 8.31192 13.9674 8.04635Z" fill="#1D1D1D"/>
<path d="M4.47957 17.1855C4.59953 17.1855 4.71949 17.1397 4.81098 17.0482L6.34124 15.5179C6.52429 15.3349 6.52429 15.0381 6.34124 14.8551C6.15823 14.672 5.86144 14.672 5.6784 14.8551L4.14816 16.3853C3.96512 16.5684 3.96512 16.8651 4.14816 17.0482C4.23966 17.1397 4.35961 17.1855 4.47957 17.1855Z" fill="#1D1D1D"/>
<path d="M7.74412 16.2574C7.56111 16.0744 7.26432 16.0744 7.08128 16.2574L4.13924 19.1995C3.95619 19.3825 3.95619 19.6793 4.13924 19.8623C4.23076 19.9538 4.35069 19.9996 4.47064 19.9996C4.5906 19.9996 4.71056 19.9538 4.80205 19.8623L7.74409 16.9202C7.92717 16.7372 7.92717 16.4404 7.74412 16.2574Z" fill="#1D1D1D"/>
<path d="M8.48395 17.6588L6.95369 19.189C6.77064 19.3721 6.77064 19.6688 6.95369 19.8519C7.04521 19.9434 7.16517 19.9892 7.2851 19.9892C7.40502 19.9892 7.52501 19.9434 7.6165 19.8519L9.14677 18.3216C9.32981 18.1386 9.32981 17.8418 9.14677 17.6588C8.96375 17.4757 8.66697 17.4757 8.48395 17.6588Z" fill="#1D1D1D"/>
</svg>
