<svg width="16" height="16" viewBox="0 0 16 16" fill="none" xmlns="http://www.w3.org/2000/svg">
<path d="M15.9817 1.1953C15.9471 0.559796 15.4416 0.0544365 14.8061 0.0197522C13.5238 -0.0503038 11.0146 0.0178462 8.61516 1.25889C7.39199 1.89158 6.09836 2.96426 5.06599 4.20189C5.05327 4.21714 5.0409 4.23249 5.02827 4.24777L2.68537 4.42875C2.29972 4.45856 1.95622 4.6607 1.74292 4.98329L0.14451 7.40094C-0.017256 7.64561 -0.0429724 7.9518 0.0756728 8.21999C0.194349 8.48821 0.438202 8.67514 0.728018 8.72004L2.70193 9.02576C2.69496 9.06413 2.68796 9.10247 2.68156 9.14084C2.61584 9.53393 2.74608 9.93808 3.02999 10.222L5.77949 12.9715C6.01487 13.2069 6.33293 13.3366 6.65884 13.3366C6.72596 13.3366 6.79345 13.3311 6.86063 13.3199C6.89901 13.3135 6.93735 13.3065 6.97572 13.2995L7.28144 15.2735C7.32634 15.5633 7.51326 15.8072 7.78142 15.9258C7.89301 15.9752 8.01109 15.9995 8.12864 15.9995C8.29372 15.9995 8.45764 15.9515 8.6005 15.857L11.0182 14.2586C11.3408 14.0452 11.5429 13.7017 11.5726 13.3161L11.7536 10.9732C11.7689 10.9606 11.7843 10.9482 11.7995 10.9355C13.0372 9.90314 14.1099 8.60952 14.7426 7.38632C15.9837 4.98682 16.0517 2.47752 15.9817 1.1953ZM10.5012 13.4766L8.18854 15.0056L7.89057 13.0819C8.86798 12.7945 9.83486 12.3342 10.756 11.7176L10.6381 13.2439C10.6308 13.3391 10.5808 13.4239 10.5012 13.4766ZM6.44233 12.3086L3.6928 9.55912C3.62265 9.48893 3.59022 9.39035 3.60613 9.29539C3.68787 8.80659 3.81489 8.34129 3.97212 7.90296L8.09761 12.0284C7.57116 12.217 7.09961 12.3295 6.70606 12.3953C6.61094 12.4111 6.51248 12.3788 6.44233 12.3086ZM2.75758 5.36338L4.28381 5.24548C3.66718 6.16662 3.20691 7.1335 2.91953 8.11091L0.995837 7.81297L2.52488 5.50031C2.57756 5.42062 2.6624 5.37072 2.75758 5.36338ZM11.1991 10.2156C10.4419 10.8472 9.7069 11.304 9.0294 11.6346L4.36668 6.97189C4.7997 6.08747 5.32818 5.35101 5.78583 4.80237C6.74121 3.65701 7.92944 2.66894 9.04587 2.0915C11.248 0.952447 13.5681 0.891109 14.7551 0.955728C14.9122 0.964289 15.0372 1.08925 15.0457 1.24639C15.1105 2.4334 15.049 4.7535 13.9099 6.95564C13.3325 8.07203 12.3445 9.26024 11.1991 10.2156Z" fill="#26F0F1"/>
<path d="M10.9621 7.38295C11.5621 7.38288 12.1624 7.15447 12.6192 6.69767C13.0618 6.25505 13.3056 5.66654 13.3056 5.0406C13.3056 4.41466 13.0618 3.82615 12.6192 3.38354C11.7055 2.46978 10.2187 2.46984 9.30506 3.38354C8.86241 3.82615 8.61865 4.41466 8.61865 5.0406C8.61865 5.66654 8.86244 6.25505 9.30506 6.69767C9.76195 7.15456 10.3619 7.38301 10.9621 7.38295ZM9.96784 4.04635C10.2419 3.77222 10.602 3.63517 10.9621 3.63517C11.3222 3.63517 11.6822 3.77222 11.9563 4.04635C12.2219 4.31192 12.3681 4.66501 12.3681 5.04057C12.3681 5.41613 12.2219 5.76925 11.9563 6.03482C11.4081 6.58305 10.516 6.58302 9.96781 6.03482C9.70224 5.76925 9.55597 5.41616 9.55597 5.0406C9.55597 4.66504 9.70227 4.31192 9.96784 4.04635Z" fill="#26F0F1"/>
<path d="M0.479555 13.1855C0.599513 13.1855 0.71947 13.1397 0.810962 13.0482L2.34123 11.5179C2.52427 11.3349 2.52427 11.0381 2.34123 10.8551C2.15821 10.672 1.86143 10.672 1.67838 10.8551L0.148148 12.3853C-0.0348971 12.5684 -0.0348971 12.8651 0.148148 13.0482C0.23964 13.1397 0.359597 13.1855 0.479555 13.1855Z" fill="#26F0F1"/>
<path d="M3.74412 12.2574C3.56111 12.0744 3.26432 12.0744 3.08128 12.2574L0.139237 15.1995C-0.0438082 15.3825 -0.0438082 15.6793 0.139237 15.8623C0.23076 15.9538 0.350686 15.9996 0.470644 15.9996C0.590601 15.9996 0.710559 15.9538 0.802051 15.8623L3.74409 12.9202C3.92717 12.7372 3.92717 12.4404 3.74412 12.2574Z" fill="#26F0F1"/>
<path d="M4.48371 13.6588L2.95345 15.189C2.7704 15.3721 2.7704 15.6688 2.95345 15.8519C3.04497 15.9434 3.16493 15.9892 3.28485 15.9892C3.40478 15.9892 3.52477 15.9434 3.61626 15.8519L5.14652 14.3216C5.32957 14.1386 5.32957 13.8418 5.14652 13.6588C4.96351 13.4757 4.66672 13.4757 4.48371 13.6588Z" fill="#26F0F1"/>
</svg>
