<svg width="40" height="40" viewBox="0 0 40 40" fill="none" xmlns="http://www.w3.org/2000/svg">
<circle cx="20" cy="20" r="19.5" stroke="#CEFD1E"/>
<path d="M9.23083 22.7411C9.23083 23.8706 10.1497 24.7895 11.2792 24.7895H11.9765H14.9931C14.4179 25.8307 14.1121 26.8134 14.1121 28.1706V28.3899C14.1121 28.3901 14.1121 28.3902 14.1121 28.3903C14.1123 29.1203 14.3945 29.8087 14.9067 30.3286C15.4187 30.8483 16.1022 31.1408 16.8314 31.1522C16.8384 31.1523 16.8454 31.1523 16.8524 31.1523C17.5591 31.1523 18.1772 30.5902 18.2352 29.8898C18.5119 26.5497 21.7304 24.8285 23.8832 23.7816V24.1272C23.8832 24.4883 24.1759 24.7809 24.5369 24.7809H30.1156C30.4766 24.7809 30.7693 24.4882 30.7693 24.1272V12.97C30.7693 12.609 30.4766 12.3163 30.1156 12.3163H25.9316C25.1302 12.3163 24.4353 12.7791 24.099 13.4513C21.7706 12.4399 19.7478 12.3082 17.4248 12.3082C17.0281 12.3082 16.6221 12.312 16.2048 12.316C15.7433 12.3203 15.2661 12.3248 14.7658 12.3248H12.6989C11.5694 12.3248 10.6505 13.2437 10.6505 14.3732C10.6505 14.753 10.7544 15.1089 10.9352 15.4141C10.3467 15.7745 9.95316 16.4233 9.95316 17.1625C9.95316 17.5423 10.057 17.8982 10.2379 18.2034C9.64935 18.5638 9.25584 19.2126 9.25584 19.9518C9.25584 20.4837 9.45973 20.9688 9.79334 21.3333C9.44511 21.7007 9.23083 22.1962 9.23083 22.7411ZM25.1906 14.3647C25.1906 13.9562 25.523 13.6238 25.9315 13.6238H26.6724V15.7594C26.6724 16.1204 26.9652 16.4131 27.3262 16.4131C27.6872 16.4131 27.9799 16.1204 27.9799 15.7594V13.6238H29.4617V23.4735H25.1906V14.3647Z" fill="#CEFD1E"/>
</svg>
