<svg width="26" height="26" viewBox="0 0 26 26" fill="none" xmlns="http://www.w3.org/2000/svg">
<path fill-rule="evenodd" clip-rule="evenodd" d="M16.8378 2.44408C14.3135 1.85197 11.6865 1.85197 9.16229 2.44408C5.82882 3.226 3.226 5.8288 2.44408 9.16229C1.85197 11.6865 1.85197 14.3135 2.44408 16.8378C3.226 20.1712 5.82882 22.774 9.16229 23.5559C11.6865 24.148 14.3135 24.148 16.8378 23.5559C20.1712 22.774 22.774 20.1712 23.5559 16.8378C24.148 14.3135 24.148 11.6865 23.5559 9.16229C22.774 5.82882 20.1712 3.226 16.8378 2.44408ZM8.70555 0.496931C11.5301 -0.165644 14.4699 -0.165644 17.2944 0.496931C21.3675 1.45232 24.5478 4.63255 25.5031 8.70555C26.1656 11.5301 26.1656 14.4699 25.5031 17.2944C24.5478 21.3675 21.3675 24.5478 17.2944 25.5031C14.4699 26.1656 11.5301 26.1656 8.70555 25.5031C4.63256 24.5478 1.45232 21.3675 0.496931 17.2946C-0.165644 14.4699 -0.165644 11.5301 0.496931 8.70554C1.45232 4.63255 4.63255 1.45232 8.70555 0.496931Z" fill="#CEFD1E"/>
<path fill-rule="evenodd" clip-rule="evenodd" d="M17.0407 13.6264C17.4313 14.017 17.4313 14.65 17.0407 15.0406L13.7074 18.3739C13.5199 18.5615 13.2655 18.6668 13.0003 18.6668C12.7351 18.6668 12.4807 18.5615 12.2933 18.3739L8.95988 15.0406C8.56936 14.65 8.56936 14.017 8.95988 13.6264C9.35042 13.2359 9.98358 13.2359 10.3741 13.6264L12.0003 15.2526V8.3335C12.0003 7.78122 12.4481 7.3335 13.0003 7.3335C13.5526 7.3335 14.0003 7.78122 14.0003 8.3335V15.2526L15.6266 13.6264C16.0171 13.2359 16.6502 13.2359 17.0407 13.6264Z" fill="#CEFD1E"/>
</svg>
