<svg width="12" height="7" viewBox="0 0 12 7" fill="none" xmlns="http://www.w3.org/2000/svg">
<path d="M1.00017 0.0833325C1.10984 0.0826988 1.21856 0.10372 1.32009 0.14519C1.42163 0.186661 1.51397 0.247765 1.59184 0.324999L5.4085 4.14999C5.48597 4.2281 5.57814 4.29009 5.67969 4.3324C5.78124 4.37471 5.89016 4.39649 6.00017 4.39649C6.11018 4.39649 6.2191 4.37471 6.32065 4.3324C6.4222 4.29009 6.51437 4.2281 6.59184 4.14999L10.4085 0.325C10.5654 0.16808 10.7783 0.079924 11.0002 0.079924C11.2221 0.0799241 11.4349 0.16808 11.5918 0.325C11.7488 0.481919 11.8369 0.694747 11.8369 0.916665C11.8369 1.02655 11.8153 1.13535 11.7732 1.23687C11.7312 1.33839 11.6695 1.43063 11.5918 1.50833L7.76684 5.32499C7.29189 5.78129 6.6588 6.03613 6.00017 6.03613C5.34154 6.03613 4.70846 5.78129 4.2335 5.32499L0.408506 1.50833C0.330399 1.43086 0.268403 1.33869 0.226096 1.23714C0.183788 1.1356 0.162007 1.02667 0.162007 0.916664C0.162007 0.806654 0.183788 0.697733 0.226096 0.596184C0.268403 0.494635 0.330399 0.402468 0.408506 0.324999C0.486373 0.247765 0.578718 0.186661 0.68025 0.14519C0.781781 0.10372 0.8905 0.0826988 1.00017 0.0833325Z" fill="#00D37F"/>
</svg>
