<svg width="24" height="24" viewBox="0 0 24 24" fill="none" xmlns="http://www.w3.org/2000/svg">
<path d="M23 22H5C4.20435 22 3.44129 21.6839 2.87868 21.1213C2.31607 20.5587 2 19.7956 2 19V1C2 0.734784 1.89464 0.48043 1.70711 0.292893C1.51957 0.105357 1.26522 0 1 0C0.734784 0 0.48043 0.105357 0.292893 0.292893C0.105357 0.48043 0 0.734784 0 1L0 19C0.00158786 20.3256 0.528882 21.5964 1.46622 22.5338C2.40356 23.4711 3.67441 23.9984 5 24H23C23.2652 24 23.5196 23.8946 23.7071 23.7071C23.8946 23.5196 24 23.2652 24 23C24 22.7348 23.8946 22.4804 23.7071 22.2929C23.5196 22.1054 23.2652 22 23 22Z" fill="#26F0F1"/>
<path d="M23 20C22.7348 20 22.4804 19.8946 22.2929 19.7071C22.1054 19.5196 22 19.2652 22 19V12C22 11.7348 22.1054 11.4804 22.2929 11.2929C22.4804 11.1054 22.7348 11 23 11C23.2652 11 23.5196 11.1054 23.7071 11.2929C23.8946 11.4804 24 11.7348 24 12V19C24 19.2652 23.8946 19.5196 23.7071 19.7071C23.5196 19.8946 23.2652 20 23 20Z" fill="#26F0F1"/>
<path d="M18 10V19C18 19.2652 17.8946 19.5196 17.7071 19.7071C17.5196 19.8946 17.2652 20 17 20C16.7348 20 16.4804 19.8946 16.2929 19.7071C16.1053 19.5196 16 19.2652 16 19V10C16 9.73478 16.1053 9.48043 16.2929 9.29289C16.4804 9.10536 16.7348 9 17 9C17.2652 9 17.5196 9.10536 17.7071 9.29289C17.8946 9.48043 18 9.73478 18 10Z" fill="#26F0F1"/>
<path d="M12 13V19C12 19.2652 11.8946 19.5196 11.7071 19.7071C11.5196 19.8946 11.2652 20 11 20C10.7348 20 10.4804 19.8946 10.2929 19.7071C10.1053 19.5196 9.99999 19.2652 9.99999 19V13C9.99999 12.7348 10.1053 12.4804 10.2929 12.2929C10.4804 12.1054 10.7348 12 11 12C11.2652 12 11.5196 12.1054 11.7071 12.2929C11.8946 12.4804 12 12.7348 12 13Z" fill="#26F0F1"/>
<path d="M6 9V19C6 19.2652 5.89464 19.5196 5.70711 19.7071C5.51957 19.8946 5.26521 20 4.99999 20C4.73478 20 4.48042 19.8946 4.29288 19.7071C4.10535 19.5196 3.99999 19.2652 3.99999 19V9C3.99999 8.73478 4.10535 8.48043 4.29288 8.29289C4.48042 8.10536 4.73478 8 4.99999 8C5.26521 8 5.51957 8.10536 5.70711 8.29289C5.89464 8.48043 6 8.73478 6 9Z" fill="#26F0F1"/>
<path d="M21.9885 8.99943C21.7233 8.99937 21.469 8.89398 21.2815 8.70643L17.6955 5.12043C17.5049 4.93886 17.2517 4.83757 16.9885 4.83757C16.7252 4.83757 16.4721 4.93886 16.2815 5.12043L14.1095 7.29243C13.5469 7.85484 12.784 8.17079 11.9885 8.17079C11.193 8.17079 10.4301 7.85484 9.86749 7.29243L4.28149 1.70643C4.09934 1.51783 3.99854 1.26523 4.00082 1.00303C4.0031 0.740833 4.10827 0.49002 4.29368 0.304612C4.47908 0.119204 4.7299 0.014035 4.99209 0.0117566C5.25429 0.00947813 5.50689 0.110273 5.6955 0.292431L11.2815 5.87743C11.469 6.0649 11.7233 6.17022 11.9885 6.17022C12.2537 6.17022 12.508 6.0649 12.6955 5.87743L14.8675 3.70643C15.4301 3.14402 16.193 2.82807 16.9885 2.82807C17.784 2.82807 18.5469 3.14402 19.1095 3.70643L22.6955 7.29243C22.8353 7.43228 22.9305 7.61045 22.9691 7.8044C23.0076 7.99835 22.9878 8.19938 22.9122 8.38208C22.8365 8.56479 22.7084 8.72095 22.544 8.83083C22.3795 8.94072 22.1862 8.99939 21.9885 8.99943Z" fill="#26F0F1"/>
</svg>
