<svg width="26" height="26" viewBox="0 0 26 26" fill="none" xmlns="http://www.w3.org/2000/svg">
<circle cx="13" cy="13" r="13" fill="#00D37F" fill-opacity="0.1"/>
<g clip-path="url(#clip0_3905_20182)">
<path d="M18.2168 9.17319L11.2305 16.159C11.1835 16.2061 11.1277 16.2435 11.0662 16.2691C11.0048 16.2946 10.9389 16.3077 10.8723 16.3077C10.8057 16.3077 10.7398 16.2946 10.6784 16.2691C10.6169 16.2435 10.5611 16.2061 10.5141 16.159L7.81242 13.4547C7.76545 13.4076 7.70963 13.3702 7.64816 13.3446C7.58669 13.3191 7.52079 13.306 7.45423 13.306C7.38767 13.306 7.32177 13.3191 7.2603 13.3446C7.19884 13.3702 7.14302 13.4076 7.09605 13.4547C7.04889 13.5017 7.01147 13.5575 6.98594 13.619C6.96041 13.6805 6.94727 13.7464 6.94727 13.8129C6.94727 13.8795 6.96041 13.9454 6.98594 14.0069C7.01147 14.0683 7.04889 14.1241 7.09605 14.1711L9.79875 16.8733C10.0839 17.1579 10.4702 17.3177 10.8731 17.3177C11.2759 17.3177 11.6622 17.1579 11.9474 16.8733L18.9331 9.88906C18.9802 9.8421 19.0176 9.78631 19.043 9.72489C19.0685 9.66347 19.0816 9.59763 19.0816 9.53113C19.0816 9.46463 19.0685 9.39878 19.043 9.33736C19.0176 9.27594 18.9802 9.22016 18.9331 9.17319C18.8862 9.12604 18.8303 9.08862 18.7689 9.06309C18.7074 9.03756 18.6415 9.02441 18.5749 9.02441C18.5084 9.02441 18.4425 9.03756 18.381 9.06309C18.3195 9.08862 18.2637 9.12604 18.2168 9.17319Z" fill="#00D37F"/>
</g>
<defs>
<clipPath id="clip0_3905_20182">
<rect width="12.1333" height="12.1333" fill="white" transform="translate(6.93335 6.93311)"/>
</clipPath>
</defs>
</svg>
