<svg width="34" height="34" viewBox="0 0 34 34" fill="none" xmlns="http://www.w3.org/2000/svg">
<circle cx="17" cy="17" r="17" fill="white" fill-opacity="0.2"/>
<path d="M15.0729 17.7419H14.8229V17.9919V19.9752C14.8229 20.2669 14.6594 20.5277 14.4096 20.6483C14.1614 20.7677 13.8681 20.7297 13.656 20.5472L13.6558 20.547L7.87578 15.5888C7.71244 15.4486 7.61621 15.2397 7.61621 15.0169C7.61621 14.7941 7.71244 14.5852 7.87578 14.4451L13.6558 9.48683L13.656 9.48661C13.8681 9.30421 14.1614 9.26617 14.4095 9.38548C14.6594 9.50614 14.8229 9.76694 14.8229 10.0587V12.042V12.292H15.0729H16.0362C16.4231 12.292 16.7495 12.6174 16.7495 13.0336C16.7495 13.4498 16.4231 13.7753 16.0362 13.7753H14.1095C13.7226 13.7753 13.3962 13.4498 13.3962 13.0336V12.1758V11.632L12.9834 11.9861L9.6715 14.8272L9.4503 15.0169L9.6715 15.2067L12.9834 18.0478L13.3962 18.4018V17.858V17.0002C13.3962 16.584 13.7226 16.2586 14.1095 16.2586H18.9262H19.1762V16.0086V14.0253C19.1762 13.7335 19.3397 13.4727 19.5896 13.3521C19.8378 13.2328 20.131 13.2708 20.3431 13.4532L20.3433 13.4534L26.1233 18.4117C26.2866 18.5518 26.3829 18.7607 26.3829 18.9835C26.3829 19.2063 26.2866 19.4152 26.1233 19.5554L20.3433 24.5136L20.3431 24.5138C20.131 24.6962 19.8378 24.7343 19.5896 24.615C19.3397 24.4943 19.1762 24.2335 19.1762 23.9418V21.9585V21.7085H18.9262H17.9629C17.576 21.7085 17.2495 21.383 17.2495 20.9668C17.2495 20.5506 17.576 20.2252 17.9629 20.2252H19.8895C20.2765 20.2252 20.6029 20.5506 20.6029 20.9668V21.8246V22.3684L21.0157 22.0144L24.3276 19.1733L24.5488 18.9835L24.3276 18.7938L21.0157 15.9527L20.6029 15.5986V16.1424V17.0002C20.6029 17.4164 20.2765 17.7419 19.8895 17.7419H15.0729Z" fill="#CEFD1E" stroke="#545863" stroke-width="0.5"/>
</svg>
