<svg width="22" height="22" viewBox="0 0 22 22" fill="none" xmlns="http://www.w3.org/2000/svg">
<g clip-path="url(#clip0_4003_12674)">
<path d="M22.0001 10.3098C21.8675 8.1648 21.1101 6.1055 19.8213 4.38575C18.5325 2.66601 16.7686 1.361 14.7471 0.631607C12.7256 -0.0977824 10.5349 -0.219666 8.44491 0.280983C6.35496 0.781631 4.4572 1.88293 2.9856 3.4491C1.51399 5.01527 0.532862 6.97784 0.163171 9.09488C-0.206519 11.2119 0.0513882 13.3909 0.905098 15.3631C1.75881 17.3353 3.171 19.0146 4.96757 20.194C6.76415 21.3733 8.86657 22.0011 11.0156 22H17.4167C18.6319 21.9988 19.797 21.5155 20.6563 20.6563C21.5156 19.797 21.9988 18.6319 22.0001 17.4167V10.3098ZM20.1667 17.4167C20.1667 18.146 19.877 18.8455 19.3613 19.3612C18.8455 19.877 18.1461 20.1667 17.4167 20.1667H11.0156C9.72216 20.1661 8.44333 19.8929 7.26253 19.3649C6.08173 18.8369 5.02548 18.0659 4.16264 17.1023C3.29563 16.1391 2.64458 15.0017 2.25313 13.7663C1.86168 12.531 1.73888 11.2262 1.89298 9.93945C2.13629 7.90989 3.04815 6.01903 4.4848 4.56496C5.92144 3.11088 7.80117 2.1763 9.82764 1.90853C10.2229 1.85898 10.6209 1.83388 11.0193 1.83336C13.1556 1.82753 15.2257 2.57394 16.8667 3.94169C17.8251 4.73823 18.6118 5.72108 19.179 6.83069C19.7463 7.94029 20.0823 9.15353 20.1667 10.3969V17.4167Z" fill="#00D37F"/>
<path d="M7.33366 8.24983H11.0003C11.2434 8.24983 11.4766 8.15326 11.6485 7.98135C11.8204 7.80944 11.917 7.57628 11.917 7.33317C11.917 7.09005 11.8204 6.8569 11.6485 6.68499C11.4766 6.51308 11.2434 6.4165 11.0003 6.4165H7.33366C7.09054 6.4165 6.85739 6.51308 6.68548 6.68499C6.51357 6.8569 6.41699 7.09005 6.41699 7.33317C6.41699 7.57628 6.51357 7.80944 6.68548 7.98135C6.85739 8.15326 7.09054 8.24983 7.33366 8.24983Z" fill="#00D37F"/>
<path d="M14.667 10.0835H7.33366C7.09054 10.0835 6.85739 10.1801 6.68548 10.352C6.51357 10.5239 6.41699 10.7571 6.41699 11.0002C6.41699 11.2433 6.51357 11.4764 6.68548 11.6484C6.85739 11.8203 7.09054 11.9168 7.33366 11.9168H14.667C14.9101 11.9168 15.1433 11.8203 15.3152 11.6484C15.4871 11.4764 15.5837 11.2433 15.5837 11.0002C15.5837 10.7571 15.4871 10.5239 15.3152 10.352C15.1433 10.1801 14.9101 10.0835 14.667 10.0835Z" fill="#00D37F"/>
<path d="M14.667 13.75H7.33366C7.09054 13.75 6.85739 13.8466 6.68548 14.0185C6.51357 14.1904 6.41699 14.4236 6.41699 14.6667C6.41699 14.9098 6.51357 15.1429 6.68548 15.3149C6.85739 15.4868 7.09054 15.5833 7.33366 15.5833H14.667C14.9101 15.5833 15.1433 15.4868 15.3152 15.3149C15.4871 15.1429 15.5837 14.9098 15.5837 14.6667C15.5837 14.4236 15.4871 14.1904 15.3152 14.0185C15.1433 13.8466 14.9101 13.75 14.667 13.75Z" fill="#00D37F"/>
</g>
<defs>
<clipPath id="clip0_4003_12674">
<rect width="22" height="22" fill="white"/>
</clipPath>
</defs>
</svg>
