<svg width="26" height="26" viewBox="0 0 26 26" fill="none" xmlns="http://www.w3.org/2000/svg">
<path fill-rule="evenodd" clip-rule="evenodd" d="M17.64 2C16.4249 2 15.44 2.98497 15.44 4.2C15.44 5.41503 16.4249 6.4 17.64 6.4C18.8551 6.4 19.84 5.41503 19.84 4.2C19.84 2.98497 18.8551 2 17.64 2ZM13.5157 3.40165C13.8887 1.46385 15.5933 0 17.64 0C19.6867 0 21.3913 1.46385 21.7643 3.40165H25C25.5523 3.40165 26 3.84936 26 4.40165C26 4.95393 25.5523 5.40165 25 5.40165H21.6656C21.1487 7.13569 19.542 8.4 17.64 8.4C15.738 8.4 14.1313 7.13569 13.6144 5.40165H1C0.447723 5.40165 3.15783e-06 4.95393 3.15783e-06 4.40165C3.15783e-06 3.84936 0.447723 3.40165 1 3.40165H13.5157ZM6.44 10.8C5.22498 10.8 4.24 11.7849 4.24 13C4.24 14.2151 5.22498 15.2 6.44 15.2C7.65503 15.2 8.64 14.2151 8.64 13C8.64 11.7849 7.65503 10.8 6.44 10.8ZM2.35427 12.0229C2.79468 10.1745 4.45682 8.8 6.44 8.8C8.43612 8.8 10.107 10.1925 10.5343 12.0591C10.5423 12.0589 10.5505 12.0588 10.5587 12.0588H25C25.5523 12.0588 26 12.5065 26 13.0588C26 13.6111 25.5523 14.0588 25 14.0588H10.5587C10.5409 14.0588 10.5233 14.0584 10.5057 14.0575C10.0369 15.8652 8.39436 17.2 6.44 17.2C4.47336 17.2 2.82242 15.8483 2.36554 14.0232L1.02622 14.0584C0.474123 14.0728 0.01483 13.6371 0.000349977 13.0849C-0.0141167 12.5328 0.42171 12.0735 0.973803 12.0591L2.35427 12.0229ZM17.64 19.6C16.4249 19.6 15.44 20.5849 15.44 21.8C15.44 23.0151 16.4249 24 17.64 24C18.8551 24 19.84 23.0151 19.84 21.8C19.84 20.5849 18.8551 19.6 17.64 19.6ZM13.5813 20.7157C14.0593 18.9217 15.6953 17.6 17.64 17.6C19.5847 17.6 21.2207 18.9217 21.6987 20.7157H25C25.5523 20.7157 26 21.1635 26 21.7157C26 22.268 25.5523 22.7157 25 22.7157H21.7399C21.322 24.5949 19.6451 26 17.64 26C15.6349 26 13.958 24.5949 13.5401 22.7157H1C0.447723 22.7157 1.65093e-05 22.268 1.65093e-05 21.7157C1.65093e-05 21.1635 0.447723 20.7157 1 20.7157H13.5813Z" fill="white"/>
</svg>
