<svg width="40" height="40" viewBox="0 0 40 40" fill="none" xmlns="http://www.w3.org/2000/svg">
<g clip-path="url(#clip0_5293_17140)">
<path d="M6.26835 30.9963H5.89724C4.28877 30.9942 2.98492 29.6907 2.98321 28.0819V4.96085C2.98287 4.62436 3.04112 4.29026 3.15557 3.97363C2.00044 4.391 1.23013 5.48719 1.22876 6.7153V29.8364C1.23047 31.4452 2.53432 32.7487 4.14279 32.7507H4.5139C5.74236 32.749 6.83889 31.9787 7.2566 30.8232C6.93963 30.938 6.60519 30.9963 6.26835 30.9963Z" fill="#EE6461"/>
<path d="M27.0193 30.9961H9.20953C9.97984 30.2217 10.4119 29.1738 10.4113 28.0818V13.2717C10.4113 12.9349 10.4695 12.6008 10.584 12.2842C9.42849 12.7019 8.65852 13.7977 8.65681 15.0262V29.8362C8.65749 30.9283 8.22539 31.9762 7.45508 32.7506H26.1441C26.1431 32.7201 27.0193 30.9961 27.0193 30.9961Z" fill="#EE6461"/>
<path d="M28.665 10.9406H28.481V10.8364C28.4783 8.54944 26.6255 6.69596 24.3385 6.69322H17.7165C17.6411 6.69322 17.5692 6.66135 17.5188 6.60549L15.116 3.97793C14.3306 3.12024 13.2214 2.63091 12.0584 2.62988H4.14215C1.85554 2.63228 0.00274133 4.48542 0 6.77203V29.8931C0.00274133 32.1797 1.85554 34.0328 4.14215 34.0352H25.3518V32.8071H7.45436C8.22467 32.033 8.65677 30.9852 8.65643 29.8931V15.0831C8.65814 13.4742 9.96164 12.1707 11.5705 12.1687H28.665C30.2739 12.1704 31.5777 13.4739 31.5798 15.0831V24.5612H32.8079V15.0831C32.8051 12.7961 30.952 10.9433 28.665 10.9406ZM27.2529 10.9406H11.5705C9.28385 10.9433 7.43106 12.7964 7.42831 15.0831V29.8931C7.42626 31.5019 6.12241 32.8057 4.51325 32.8071H4.14215C2.53367 32.8054 1.22983 31.5019 1.22812 29.8931V6.77203C1.22983 5.16356 2.53367 3.85971 4.14215 3.858H12.0584C12.8767 3.85868 13.657 4.20306 14.2097 4.8065L16.6111 7.43338C16.8945 7.74417 17.2957 7.92133 17.7165 7.92133H24.3385C25.9474 7.92339 27.2512 9.22723 27.2526 10.8364L27.2529 10.9406Z" fill="#C5283D"/>
<path d="M34.1172 24.9488C33.6868 24.2525 32.9254 23.8293 32.1065 23.832C31.2878 23.8293 30.5264 24.2525 30.0957 24.9488L24.5709 33.8225C24.1162 34.5527 24.0932 35.4721 24.5109 36.2242C24.9286 36.9764 25.7212 37.4431 26.5817 37.4427H37.6316C38.4917 37.4431 39.2846 36.9764 39.702 36.2242C40.1197 35.4721 40.0967 34.5527 39.642 33.8225L34.1172 24.9488ZM38.6284 35.628C38.4297 35.9922 38.0466 36.2177 37.6316 36.2146H26.5817C26.1674 36.215 25.7856 35.9902 25.5845 35.628C25.3834 35.2661 25.3943 34.8234 25.6133 34.4718L31.1384 25.5981C31.3464 25.2637 31.7124 25.0605 32.1065 25.0605C32.5002 25.0605 32.8662 25.2637 33.0745 25.5981L38.5996 34.4718C38.8213 34.8224 38.8327 35.2668 38.6284 35.628Z" fill="#C5283D"/>
<path d="M32.1065 27.7988C31.7672 27.7988 31.4924 28.0736 31.4924 28.4129V32.4231C31.4924 32.7623 31.7672 33.0372 32.1065 33.0372C32.4457 33.0372 32.7205 32.7623 32.7205 32.4231V28.4129C32.7205 28.0736 32.4457 27.7988 32.1065 27.7988Z" fill="#C5283D"/>
<path d="M32.1065 33.377C31.7672 33.377 31.4924 33.6518 31.4924 33.991V34.4413C31.4924 34.7805 31.7672 35.0553 32.1065 35.0553C32.4457 35.0553 32.7205 34.7805 32.7205 34.4413V33.991C32.7205 33.6518 32.4457 33.377 32.1065 33.377Z" fill="#C5283D"/>
</g>
<defs>
<clipPath id="clip0_5293_17140">
<rect width="40" height="40" fill="white"/>
</clipPath>
</defs>
</svg>
