<svg width="26" height="26" viewBox="0 0 26 26" fill="none" xmlns="http://www.w3.org/2000/svg">
<path opacity="0.7" fill-rule="evenodd" clip-rule="evenodd" d="M11.9762 2.46435C11.4593 2.86142 10.8472 3.47491 9.93839 4.39023L4.28 10.0889V16.5166C4.28 19.592 6.18056 22.2954 8.967 23.3564C8.84204 22.6614 8.84323 21.945 8.97508 21.2426L9.00087 21.1052C9.28467 19.5932 10.3995 18.3708 11.8807 17.9599C12.6132 17.7566 13.3868 17.7566 14.1194 17.9599C15.6006 18.3708 16.7154 19.5932 16.9992 21.1052L17.025 21.2426C17.1568 21.945 17.158 22.6614 17.0331 23.3564C19.8195 22.2952 21.72 19.5919 21.72 16.5166V10.0889L16.0616 4.39023C15.1528 3.47491 14.5407 2.86142 14.0239 2.46435C13.5299 2.08479 13.2436 2 13 2C12.7564 2 12.4702 2.08479 11.9762 2.46435ZM23.72 12.1031L24.2904 12.6776C24.6795 13.0695 25.3127 13.0717 25.7046 12.6825C26.0966 12.2935 26.0988 11.6603 25.7096 11.2684L17.4319 2.93174C16.5848 2.07854 15.8786 1.36723 15.2424 0.878468C14.5714 0.362814 13.8611 0 13 0C12.139 0 11.4287 0.362814 10.7576 0.878468C10.1215 1.36723 9.41524 2.07854 8.56813 2.93172L0.29039 11.2684C-0.0987439 11.6603 -0.0965037 12.2935 0.295403 12.6825C0.687311 13.0717 1.32047 13.0695 1.70962 12.6776L2.27999 12.1031V16.5166C2.27999 20.8354 5.23229 24.5936 9.41908 25.5827C11.7744 26.1391 14.2256 26.1391 16.581 25.5827C20.7678 24.5936 23.72 20.8354 23.72 16.5166V12.1031ZM14.7951 23.8808C15.1104 23.1703 15.2032 22.3784 15.0594 21.6116L15.0335 21.4742C14.8894 20.7059 14.3247 20.0924 13.5846 19.887C13.202 19.7808 12.798 19.7808 12.4155 19.887C11.6754 20.0924 11.1107 20.7059 10.9665 21.4742L10.9408 21.6116C10.7968 22.3784 10.8896 23.1703 11.205 23.8808C12.3964 24.0398 13.6036 24.0398 14.7951 23.8808Z" fill="white"/>
</svg>
