<svg id="svg" version="1.1" xmlns="http://www.w3.org/2000/svg" xmlns:xlink="http://www.w3.org/1999/xlink" width="26" height="23" viewBox="0, 0, 400,457.59999999999997"><g id="svgg"><path id="path0" d="M0.000 228.200 L 0.000 456.400 85.357 456.400 C 162.823 456.400,170.737 456.342,170.957 455.767 C 171.091 455.419,171.200 449.164,171.200 441.867 L 171.200 428.600 114.504 428.704 C 59.801 428.805,57.772 428.782,56.803 428.065 C 55.878 427.382,54.750 427.315,42.605 427.233 C 32.995 427.168,29.331 427.015,29.112 426.672 C 28.947 426.412,28.802 420.530,28.789 413.600 C 28.776 406.670,28.601 400.190,28.401 399.200 C 28.185 398.133,28.026 322.373,28.011 213.200 L 27.985 29.000 28.837 28.300 C 30.065 27.291,254.469 27.202,256.418 28.210 L 257.597 28.819 257.699 85.510 L 257.800 142.200 314.600 142.400 L 371.400 142.600 371.600 184.880 C 371.743 215.046,371.927 227.287,372.243 227.603 C 372.747 228.107,372.884 228.111,388.500 228.047 L 400.000 228.000 400.000 171.400 L 400.000 114.800 386.500 114.794 C 376.423 114.790,372.746 114.660,372.000 114.283 L 371.000 113.777 370.800 100.188 L 370.600 86.600 357.200 86.600 L 343.800 86.600 343.945 99.673 L 344.090 112.746 343.063 113.773 L 342.036 114.800 314.507 114.800 C 290.239 114.800,286.873 114.726,286.089 114.177 L 285.200 113.555 285.200 85.606 L 285.200 57.658 286.182 56.886 C 287.109 56.156,287.889 56.116,300.199 56.157 C 312.922 56.199,313.240 56.181,313.429 55.400 C 313.536 54.960,313.573 48.930,313.512 42.000 L 313.400 29.400 300.025 29.295 C 288.283 29.202,286.562 29.109,285.925 28.533 C 285.251 27.922,285.200 26.890,285.200 13.938 L 285.200 0.000 142.600 0.000 L 0.000 0.000 0.000 228.200 M315.395 58.008 C 315.099 58.487,315.116 83.940,315.412 84.419 C 315.740 84.950,341.998 84.931,342.006 84.400 C 342.099 77.949,341.970 58.275,341.833 58.053 C 341.566 57.621,315.662 57.577,315.395 58.008 M372.100 315.300 C 371.843 315.623,371.629 335.346,371.494 371.046 C 371.339 412.248,371.167 426.514,370.816 427.169 L 370.346 428.048 356.624 427.924 C 346.031 427.828,342.795 427.914,342.435 428.300 C 341.831 428.947,286.995 429.039,286.596 428.393 C 286.458 428.170,286.132 428.125,285.872 428.293 C 285.613 428.462,279.190 428.690,271.600 428.800 L 257.800 429.000 257.800 442.600 L 257.800 456.200 328.900 456.301 L 400.000 456.402 400.000 385.601 L 400.000 314.800 386.249 314.800 C 375.727 314.800,372.405 314.917,372.100 315.300 " stroke="none" fill="#9a999a" fill-rule="evenodd"></path><path id="path1" d="M143.500 286.429 C 142.856 286.807,142.800 287.887,142.800 299.940 C 142.800 309.596,142.674 313.166,142.320 313.520 C 141.966 313.874,138.397 314.000,128.749 314.000 C 115.097 314.000,114.426 314.081,114.390 315.729 C 114.384 315.988,114.388 321.996,114.400 329.081 C 114.420 341.617,114.399 341.973,113.610 342.395 C 113.070 342.684,108.444 342.813,99.751 342.783 C 92.217 342.757,86.545 342.895,86.331 343.109 C 86.118 343.322,85.973 349.168,85.989 356.911 C 86.011 367.362,85.904 370.415,85.509 370.671 C 85.229 370.852,78.880 371.090,71.400 371.200 L 57.800 371.400 57.600 385.715 C 57.391 400.661,57.377 400.773,55.705 400.794 C 55.320 400.799,55.241 403.612,55.350 413.522 C 55.493 426.644,55.604 427.546,57.183 428.391 C 58.307 428.992,169.761 428.956,170.886 428.354 C 171.454 428.050,175.869 427.915,184.692 427.932 C 191.827 427.945,198.100 427.790,198.632 427.588 L 199.600 427.220 199.600 413.634 C 199.600 403.204,199.716 399.972,200.100 399.724 C 200.375 399.546,206.501 399.372,213.713 399.338 C 220.925 399.304,227.081 399.178,227.393 399.058 C 227.864 398.877,227.981 396.542,228.080 385.320 C 228.146 377.884,228.346 371.575,228.524 371.300 C 228.772 370.916,232.004 370.800,242.434 370.800 L 256.020 370.800 256.410 369.774 C 256.634 369.184,256.800 363.241,256.800 355.788 C 256.800 343.236,256.825 342.815,257.600 342.400 C 258.127 342.118,262.839 341.987,271.389 342.016 C 278.533 342.041,284.563 341.947,284.789 341.807 C 285.438 341.406,285.344 315.950,284.690 315.055 C 284.222 314.415,283.102 314.360,271.147 314.389 C 254.325 314.429,256.324 316.366,256.383 300.084 C 256.424 288.867,256.351 287.156,255.820 286.952 C 254.259 286.353,144.501 285.842,143.500 286.429 M315.589 372.895 C 315.583 373.393,315.588 379.149,315.600 385.687 C 315.612 392.225,315.510 398.019,315.374 398.561 C 314.949 400.256,313.566 400.422,300.011 400.400 C 293.075 400.388,287.173 400.384,286.895 400.389 C 286.496 400.398,286.412 403.359,286.495 414.500 L 286.600 428.600 314.269 428.703 C 339.028 428.795,342.004 428.739,342.569 428.174 C 343.489 427.254,343.523 401.439,342.605 400.129 C 342.113 399.426,341.993 396.951,341.905 385.740 L 341.800 372.200 328.700 372.095 L 315.600 371.989 315.589 372.895 " stroke="none" fill="#58b442" fill-rule="evenodd"></path><path id="path2" d="M285.681 13.967 C 285.746 21.649,285.950 28.084,286.133 28.267 C 286.316 28.450,292.616 28.690,300.133 28.800 L 313.800 29.000 313.905 42.575 C 313.967 50.442,313.856 56.304,313.643 56.517 C 313.433 56.727,307.779 56.858,300.398 56.822 C 289.290 56.769,287.388 56.847,286.560 57.389 L 285.600 58.018 285.600 85.587 L 285.600 113.155 286.489 113.777 C 288.076 114.889,341.298 114.702,342.419 113.581 C 343.214 112.786,343.237 112.372,343.178 99.742 C 343.143 92.291,343.274 86.566,343.484 86.356 C 343.696 86.144,349.572 86.034,357.425 86.095 L 371.000 86.200 371.105 99.566 C 371.177 108.615,371.354 113.104,371.654 113.466 C 372.210 114.135,400.000 114.267,400.000 113.600 C 400.000 113.341,395.067 113.200,386.000 113.200 L 372.000 113.200 372.000 99.774 C 372.000 91.284,371.848 86.063,371.586 85.574 C 371.189 84.832,370.611 84.800,357.810 84.800 C 348.184 84.800,344.368 84.672,344.163 84.341 C 344.007 84.088,343.852 78.062,343.818 70.950 L 343.757 58.018 342.799 56.999 L 341.842 55.980 328.917 56.011 C 321.808 56.028,315.813 55.932,315.596 55.797 C 315.348 55.644,315.200 50.646,315.200 42.405 C 315.200 30.986,315.117 29.175,314.571 28.629 C 313.836 27.893,313.295 27.871,297.900 27.939 L 286.800 27.988 286.800 13.994 C 286.800 1.628,286.728 0.000,286.181 0.000 C 285.631 0.000,285.575 1.574,285.681 13.967 M28.822 28.973 C 28.268 29.641,28.396 397.297,28.951 398.480 C 29.298 399.218,54.910 399.791,55.800 399.080 C 56.048 398.882,56.244 393.652,56.316 385.303 C 56.400 375.503,56.563 371.686,56.916 371.261 C 57.265 370.840,57.456 366.828,57.600 356.839 L 57.800 343.000 70.922 342.895 C 82.161 342.804,84.185 342.697,85.022 342.149 L 86.000 341.508 86.000 328.528 C 86.000 320.188,86.151 315.266,86.422 314.759 C 86.829 313.998,87.292 313.972,99.810 314.016 C 110.654 314.055,112.914 313.966,113.620 313.471 C 114.450 312.890,114.463 312.676,114.417 299.988 C 114.374 288.299,114.434 287.025,115.060 286.334 C 115.714 285.611,116.435 285.573,128.643 285.616 C 136.932 285.646,141.815 285.513,142.317 285.244 C 144.708 283.965,256.152 284.379,257.444 285.672 C 258.044 286.273,258.120 287.762,258.158 299.672 L 258.200 313.000 271.867 313.200 C 279.384 313.310,285.684 313.550,285.867 313.733 C 286.576 314.442,286.504 341.439,285.791 342.152 C 285.219 342.723,283.564 342.800,271.786 342.800 C 258.989 342.800,258.411 342.832,258.014 343.574 C 257.753 344.062,257.600 349.214,257.600 357.550 C 257.600 367.673,257.483 370.828,257.100 371.076 C 256.825 371.254,250.390 371.500,242.800 371.622 L 229.000 371.845 243.067 371.822 C 250.804 371.810,257.284 371.650,257.467 371.467 C 257.650 371.284,257.890 364.984,258.000 357.467 L 258.200 343.800 271.600 343.594 C 282.878 343.421,285.585 343.250,286.487 342.657 C 286.535 342.626,286.670 336.300,286.787 328.600 L 287.000 314.600 300.039 314.400 C 310.274 314.243,313.220 314.082,313.739 313.651 C 314.329 313.161,314.400 311.695,314.400 300.013 C 314.400 287.841,314.451 286.878,315.131 286.262 C 315.781 285.675,317.329 285.600,328.883 285.600 C 339.612 285.600,341.985 285.501,342.371 285.035 C 342.711 284.626,342.832 280.771,342.811 271.073 C 342.785 259.318,342.859 257.598,343.419 257.038 C 344.197 256.260,342.584 256.333,357.706 256.389 C 368.418 256.429,370.446 256.346,370.632 255.861 C 370.753 255.545,370.886 249.461,370.926 242.343 L 371.000 229.400 385.500 229.295 C 394.707 229.228,400.000 229.046,400.000 228.795 C 400.000 228.543,394.954 228.400,386.014 228.400 L 372.028 228.400 371.549 227.504 C 371.181 226.816,371.129 217.133,371.326 185.707 C 371.486 160.109,371.439 144.429,371.201 143.802 L 370.820 142.800 314.490 142.800 C 271.211 142.800,258.049 142.689,257.680 142.320 C 257.311 141.951,257.200 128.794,257.200 85.534 C 257.200 30.275,257.186 29.220,256.426 28.814 C 255.078 28.092,29.422 28.250,28.822 28.973 M256.091 29.500 C 256.167 29.665,256.110 36.100,255.964 43.800 C 255.819 51.500,255.680 63.740,255.656 71.000 C 255.614 83.965,255.447 85.861,254.454 84.665 C 254.103 84.242,254.007 80.729,254.089 71.261 L 254.200 58.431 241.600 58.276 C 234.670 58.191,228.190 57.959,227.200 57.761 C 225.406 57.401,71.065 57.773,43.552 58.204 L 29.704 58.420 29.452 57.160 C 29.114 55.471,29.128 29.806,29.467 29.467 C 29.837 29.096,255.920 29.129,256.091 29.500 M341.920 57.542 C 342.465 57.888,342.766 84.285,342.234 85.145 C 341.870 85.733,315.685 85.368,314.957 84.764 C 314.010 83.979,314.146 58.188,315.100 57.632 C 315.948 57.138,341.149 57.053,341.920 57.542 M313.505 71.766 C 313.576 80.882,313.755 85.505,314.050 85.860 C 314.395 86.277,317.406 86.412,328.145 86.495 L 341.800 86.600 341.905 99.903 L 342.011 113.205 314.394 113.103 L 286.778 113.000 286.787 85.600 C 286.793 70.530,286.798 58.153,286.798 58.095 C 286.799 58.037,292.785 58.037,300.100 58.095 L 313.400 58.200 313.505 71.766 M56.000 60.000 C 56.000 60.533,55.733 60.800,55.200 60.800 C 54.667 60.800,54.400 60.533,54.400 60.000 C 54.400 59.467,54.667 59.200,55.200 59.200 C 55.733 59.200,56.000 59.467,56.000 60.000 M252.800 60.000 C 252.800 60.533,252.533 60.800,252.000 60.800 C 251.467 60.800,251.200 60.533,251.200 60.000 C 251.200 59.467,251.467 59.200,252.000 59.200 C 252.533 59.200,252.800 59.467,252.800 60.000 M41.600 71.200 C 41.600 71.733,41.333 72.000,40.800 72.000 C 40.267 72.000,40.000 71.733,40.000 71.200 C 40.000 70.667,40.267 70.400,40.800 70.400 C 41.333 70.400,41.600 70.667,41.600 71.200 M36.800 79.200 C 36.800 79.733,36.533 80.000,36.000 80.000 C 35.467 80.000,35.200 79.733,35.200 79.200 C 35.200 78.667,35.467 78.400,36.000 78.400 C 36.533 78.400,36.800 78.667,36.800 79.200 M170.954 85.717 C 171.606 86.194,171.657 87.259,171.616 99.695 C 171.563 115.924,170.163 114.052,182.310 113.999 C 187.309 113.977,193.223 113.968,195.451 113.980 L 199.503 114.000 200.001 115.202 C 200.393 116.150,200.425 122.186,200.149 143.702 L 199.800 171.000 128.400 171.000 L 57.000 171.000 56.894 157.200 C 56.797 144.483,56.843 143.360,57.483 142.891 C 58.015 142.501,61.270 142.388,71.324 142.411 C 79.986 142.431,84.642 142.297,84.976 142.020 C 85.368 141.695,85.488 138.512,85.503 128.158 C 85.515 119.258,85.665 114.575,85.945 114.295 C 86.228 114.012,90.764 113.890,99.653 113.928 C 108.827 113.967,113.101 113.848,113.468 113.543 C 113.891 113.192,114.000 110.338,114.000 99.571 C 114.000 87.106,114.055 86.008,114.700 85.632 C 115.830 84.974,170.049 85.055,170.954 85.717 M370.494 162.400 C 370.436 172.630,370.346 184.960,370.294 189.800 L 370.200 198.600 368.561 198.601 C 367.659 198.601,366.617 198.854,366.244 199.164 C 365.381 199.880,364.680 199.261,364.866 197.949 C 364.963 197.264,365.320 196.950,366.167 196.803 C 367.694 196.538,367.783 196.058,366.576 194.600 L 365.582 193.400 364.864 194.334 C 363.720 195.821,361.862 195.421,361.600 193.632 C 361.364 192.015,360.632 191.620,360.013 192.776 C 359.502 193.730,358.400 193.883,358.400 193.000 C 358.400 192.667,358.044 192.400,357.600 192.400 C 357.156 192.400,356.800 192.667,356.800 193.000 C 356.800 193.330,356.536 193.600,356.214 193.600 C 355.892 193.600,355.435 193.960,355.200 194.400 C 354.851 195.052,354.362 195.200,352.557 195.200 C 350.662 195.200,350.361 195.301,350.476 195.900 C 350.590 196.492,351.072 196.600,353.605 196.600 L 356.600 196.600 356.724 195.100 C 356.840 193.700,358.400 192.704,358.400 194.031 C 358.400 194.854,360.680 196.735,361.837 196.867 C 362.545 196.948,363.000 197.235,363.000 197.600 C 363.000 198.090,362.195 198.221,358.616 198.314 C 355.255 198.402,354.064 198.580,353.516 199.076 C 352.856 199.673,352.743 199.672,352.069 199.062 C 351.162 198.242,348.111 198.179,347.231 198.963 C 344.178 201.684,343.795 200.155,343.834 185.408 C 343.866 173.557,343.817 172.617,343.134 171.934 C 342.436 171.236,341.034 171.200,314.626 171.200 C 287.269 171.200,285.084 171.107,284.344 169.910 C 284.161 169.613,283.850 169.693,283.387 170.156 C 282.785 170.758,282.030 170.818,277.250 170.647 C 274.253 170.539,271.440 170.455,271.000 170.459 C 270.560 170.463,267.500 170.496,264.200 170.533 L 258.200 170.600 258.142 163.600 C 258.111 159.750,258.038 153.900,257.980 150.600 L 257.876 144.600 259.861 144.482 C 262.886 144.302,341.120 143.722,356.800 143.763 L 370.600 143.800 370.494 162.400 M275.600 149.400 C 275.600 149.730,275.780 150.000,276.000 150.000 C 276.220 150.000,276.400 149.730,276.400 149.400 C 276.400 149.070,276.220 148.800,276.000 148.800 C 275.780 148.800,275.600 149.070,275.600 149.400 M269.200 150.967 C 269.200 151.315,269.485 151.600,269.833 151.600 C 270.540 151.600,270.417 150.739,269.675 150.492 C 269.414 150.405,269.200 150.618,269.200 150.967 M276.978 162.035 C 276.566 162.702,277.493 163.467,278.045 162.915 C 278.507 162.453,278.218 161.600,277.600 161.600 C 277.406 161.600,277.126 161.796,276.978 162.035 M283.200 162.400 C 283.200 162.620,283.470 162.800,283.800 162.800 C 284.130 162.800,284.400 162.620,284.400 162.400 C 284.400 162.180,284.130 162.000,283.800 162.000 C 283.470 162.000,283.200 162.180,283.200 162.400 M281.800 165.200 C 281.508 165.672,281.887 166.400,282.424 166.400 C 282.631 166.400,282.800 166.040,282.800 165.600 C 282.800 164.756,282.218 164.524,281.800 165.200 M345.818 173.570 C 345.427 174.204,346.036 176.000,346.643 176.000 C 346.950 176.000,347.200 176.258,347.200 176.573 C 347.200 176.888,347.560 177.260,348.000 177.400 C 348.821 177.661,348.939 177.960,348.819 179.473 C 348.778 179.994,349.082 180.523,349.575 180.787 C 350.119 181.078,350.400 181.626,350.400 182.396 C 350.400 184.673,356.475 184.677,356.800 182.400 L 357.000 181.000 359.200 181.000 C 361.385 181.000,361.401 181.009,361.524 182.286 C 361.648 183.567,362.976 184.248,364.835 183.985 C 365.959 183.826,366.351 184.015,366.613 184.840 C 367.197 186.682,367.553 184.721,367.636 179.200 L 367.724 173.400 364.766 173.400 L 361.808 173.400 361.600 174.600 C 361.399 175.762,361.323 175.800,359.200 175.800 C 357.077 175.800,357.001 175.762,356.801 174.600 L 356.593 173.400 351.327 173.289 C 348.184 173.222,345.963 173.336,345.818 173.570 M358.617 173.572 C 358.321 174.051,359.074 174.525,359.607 174.196 C 360.054 173.919,359.760 173.200,359.200 173.200 C 359.006 173.200,358.744 173.368,358.617 173.572 M350.200 175.200 C 350.200 175.605,349.711 175.840,348.700 175.924 C 347.255 176.044,346.687 175.446,347.486 174.648 C 348.011 174.123,350.200 174.568,350.200 175.200 M347.316 183.200 C 347.201 183.640,346.858 184.000,346.553 184.000 C 345.728 184.000,345.884 186.429,346.777 187.500 C 347.953 188.909,348.960 188.700,348.642 187.112 C 348.501 186.403,348.118 185.674,347.792 185.492 C 346.928 185.008,347.068 184.000,348.000 184.000 C 348.444 184.000,348.800 184.267,348.800 184.600 C 348.800 184.930,349.070 185.200,349.400 185.200 C 349.730 185.200,350.000 184.930,350.000 184.600 C 350.000 184.270,349.751 184.000,349.447 184.000 C 349.142 184.000,348.799 183.640,348.684 183.200 C 348.569 182.760,348.261 182.400,348.000 182.400 C 347.739 182.400,347.431 182.760,347.316 183.200 M364.900 186.500 C 364.992 186.775,365.307 187.000,365.600 187.000 C 365.893 187.000,366.208 186.775,366.300 186.500 C 366.399 186.203,366.116 186.000,365.600 186.000 C 365.084 186.000,364.801 186.203,364.900 186.500 M359.630 187.178 C 358.246 187.526,358.176 188.244,359.482 188.693 C 360.883 189.175,361.600 188.943,361.600 188.009 C 361.600 187.133,360.931 186.851,359.630 187.178 M366.581 189.304 C 366.238 190.199,366.519 191.818,367.000 191.712 C 367.220 191.664,367.459 191.147,367.531 190.564 C 367.688 189.299,366.956 188.328,366.581 189.304 M345.800 190.800 C 345.465 191.342,345.917 192.000,346.624 192.000 C 347.477 192.000,347.323 193.106,346.400 193.600 C 345.306 194.186,345.272 196.400,346.357 196.400 C 346.774 196.400,347.218 196.130,347.345 195.800 C 347.487 195.429,348.096 195.200,348.941 195.200 C 349.970 195.200,350.358 195.003,350.516 194.400 C 350.670 193.811,351.062 193.600,352.000 193.600 C 352.918 193.600,353.331 193.386,353.474 192.837 C 353.584 192.417,354.036 191.979,354.479 191.863 C 355.325 191.642,355.305 190.768,354.449 190.483 C 354.173 190.391,353.848 190.695,353.727 191.158 C 353.399 192.411,347.411 192.449,347.084 191.200 C 346.861 190.346,346.207 190.142,345.800 190.800 M371.689 313.823 L 370.800 314.445 370.800 328.190 C 370.800 335.749,370.691 342.219,370.557 342.567 C 370.343 343.126,368.793 343.200,357.237 343.200 C 347.599 343.200,344.034 343.326,343.680 343.680 C 343.326 344.034,343.200 347.599,343.200 357.235 L 343.200 370.311 341.766 370.580 C 340.977 370.728,334.902 370.826,328.266 370.798 C 321.629 370.770,315.840 370.762,315.400 370.780 C 313.378 370.862,313.414 370.626,313.200 385.285 L 313.000 399.000 299.400 399.200 C 291.920 399.310,285.575 399.546,285.300 399.724 C 284.917 399.972,284.800 403.087,284.800 413.050 C 284.800 421.351,284.648 426.336,284.381 426.836 C 283.977 427.590,283.476 427.618,270.913 427.589 C 258.707 427.560,257.816 427.606,257.121 428.302 C 255.453 429.970,256.154 457.600,257.864 457.600 C 258.576 457.600,258.544 457.018,257.800 456.400 C 257.003 455.739,256.890 429.670,257.680 428.880 C 258.034 428.526,261.591 428.400,271.200 428.400 C 280.809 428.400,284.366 428.274,284.720 427.920 C 285.074 427.566,285.200 423.953,285.200 414.149 C 285.200 402.599,285.282 400.775,285.829 400.229 C 286.375 399.682,288.205 399.600,299.814 399.600 C 312.611 399.600,313.189 399.568,313.586 398.826 C 313.847 398.339,314.000 393.266,314.000 385.106 C 314.000 375.570,314.126 372.034,314.480 371.680 C 315.168 370.992,342.032 370.992,342.720 371.680 C 343.074 372.034,343.200 375.648,343.200 385.457 C 343.200 397.976,343.244 398.785,343.945 399.277 C 344.537 399.692,347.408 399.759,357.845 399.600 L 371.000 399.400 371.295 357.225 C 371.497 328.425,371.725 314.914,372.015 314.625 C 372.293 314.346,377.185 314.160,386.220 314.085 C 394.704 314.014,400.000 313.822,400.000 313.585 C 400.000 312.860,372.736 313.089,371.689 313.823 M228.797 386.200 L 228.600 399.800 215.000 400.008 L 201.400 400.216 214.851 400.308 C 225.831 400.383,228.386 400.299,228.756 399.852 C 229.081 399.462,229.180 395.477,229.103 385.952 L 228.994 372.600 228.797 386.200 M200.480 413.474 C 200.435 420.912,200.228 427.199,200.010 427.774 L 199.620 428.800 185.834 428.800 C 176.467 428.800,171.962 428.937,171.783 429.228 C 171.637 429.464,171.545 435.449,171.577 442.528 C 171.628 453.467,171.546 455.520,171.031 456.200 C 170.245 457.238,170.872 458.489,171.682 457.500 C 171.727 457.445,171.862 451.100,171.982 443.400 L 172.200 429.400 186.067 429.200 C 193.694 429.090,200.084 428.850,200.267 428.667 C 200.614 428.321,200.946 408.984,200.701 403.400 C 200.624 401.640,200.525 406.173,200.480 413.474 M0.000 457.200 C 0.000 457.420,0.720 457.600,1.600 457.600 C 2.480 457.600,3.200 457.420,3.200 457.200 C 3.200 456.980,2.480 456.800,1.600 456.800 C 0.720 456.800,0.000 456.980,0.000 457.200 M9.600 457.200 C 9.600 457.433,10.933 457.600,12.800 457.600 C 14.667 457.600,16.000 457.433,16.000 457.200 C 16.000 456.967,14.667 456.800,12.800 456.800 C 10.933 456.800,9.600 456.967,9.600 457.200 M17.600 457.200 C 17.600 457.420,17.960 457.600,18.400 457.600 C 18.840 457.600,19.200 457.420,19.200 457.200 C 19.200 456.980,18.840 456.800,18.400 456.800 C 17.960 456.800,17.600 456.980,17.600 457.200 M22.400 457.200 C 22.400 457.440,24.000 457.600,26.400 457.600 C 28.800 457.600,30.400 457.440,30.400 457.200 C 30.400 456.960,28.800 456.800,26.400 456.800 C 24.000 456.800,22.400 456.960,22.400 457.200 M40.000 457.200 C 40.000 457.420,40.720 457.600,41.600 457.600 C 42.480 457.600,43.200 457.420,43.200 457.200 C 43.200 456.980,42.480 456.800,41.600 456.800 C 40.720 456.800,40.000 456.980,40.000 457.200 M48.000 457.200 C 48.000 457.420,48.360 457.600,48.800 457.600 C 49.240 457.600,49.600 457.420,49.600 457.200 C 49.600 456.980,49.240 456.800,48.800 456.800 C 48.360 456.800,48.000 456.980,48.000 457.200 M59.200 457.200 C 59.200 457.444,61.067 457.600,64.000 457.600 C 66.933 457.600,68.800 457.444,68.800 457.200 C 68.800 456.956,66.933 456.800,64.000 456.800 C 61.067 456.800,59.200 456.956,59.200 457.200 M75.200 457.200 C 75.200 457.420,75.560 457.600,76.000 457.600 C 76.440 457.600,76.800 457.420,76.800 457.200 C 76.800 456.980,76.440 456.800,76.000 456.800 C 75.560 456.800,75.200 456.980,75.200 457.200 M120.400 457.200 C 120.400 457.420,121.390 457.600,122.600 457.600 C 123.810 457.600,124.800 457.420,124.800 457.200 C 124.800 456.980,123.810 456.800,122.600 456.800 C 121.390 456.800,120.400 456.980,120.400 457.200 M259.600 457.200 C 259.600 457.458,263.800 457.600,271.400 457.600 C 279.000 457.600,283.200 457.458,283.200 457.200 C 283.200 456.942,279.000 456.800,271.400 456.800 C 263.800 456.800,259.600 456.942,259.600 457.200 M290.000 457.200 C 290.000 457.449,292.333 457.600,296.200 457.600 C 300.067 457.600,302.400 457.449,302.400 457.200 C 302.400 456.951,300.067 456.800,296.200 456.800 C 292.333 456.800,290.000 456.951,290.000 457.200 M308.800 457.200 C 308.800 457.420,309.160 457.600,309.600 457.600 C 310.040 457.600,310.400 457.420,310.400 457.200 C 310.400 456.980,310.040 456.800,309.600 456.800 C 309.160 456.800,308.800 456.980,308.800 457.200 M318.400 457.200 C 318.400 457.420,318.760 457.600,319.200 457.600 C 319.640 457.600,320.000 457.420,320.000 457.200 C 320.000 456.980,319.640 456.800,319.200 456.800 C 318.760 456.800,318.400 456.980,318.400 457.200 M323.200 457.200 C 323.200 457.422,324.267 457.600,325.600 457.600 C 326.933 457.600,328.000 457.422,328.000 457.200 C 328.000 456.978,326.933 456.800,325.600 456.800 C 324.267 456.800,323.200 456.978,323.200 457.200 M332.800 457.200 C 332.800 457.444,334.667 457.600,337.600 457.600 C 340.533 457.600,342.400 457.444,342.400 457.200 C 342.400 456.956,340.533 456.800,337.600 456.800 C 334.667 456.800,332.800 456.956,332.800 457.200 M356.800 457.200 C 356.800 457.420,357.160 457.600,357.600 457.600 C 358.040 457.600,358.400 457.420,358.400 457.200 C 358.400 456.980,358.040 456.800,357.600 456.800 C 357.160 456.800,356.800 456.980,356.800 457.200 M360.000 457.200 C 360.000 457.420,360.360 457.600,360.800 457.600 C 361.240 457.600,361.600 457.420,361.600 457.200 C 361.600 456.980,361.240 456.800,360.800 456.800 C 360.360 456.800,360.000 456.980,360.000 457.200 M363.200 457.200 C 363.200 457.444,365.067 457.600,368.000 457.600 C 370.933 457.600,372.800 457.444,372.800 457.200 C 372.800 456.956,370.933 456.800,368.000 456.800 C 365.067 456.800,363.200 456.956,363.200 457.200 M376.000 457.200 C 376.000 457.420,376.720 457.600,377.600 457.600 C 378.480 457.600,379.200 457.420,379.200 457.200 C 379.200 456.980,378.480 456.800,377.600 456.800 C 376.720 456.800,376.000 456.980,376.000 457.200 M396.800 457.200 C 396.800 457.420,397.520 457.600,398.400 457.600 C 399.280 457.600,400.000 457.420,400.000 457.200 C 400.000 456.980,399.280 456.800,398.400 456.800 C 397.520 456.800,396.800 456.980,396.800 457.200 " stroke="none" fill="#ccdbf3" fill-rule="evenodd"></path><path id="path3" d="M286.800 13.994 L 286.800 27.988 297.900 27.939 C 313.295 27.871,313.836 27.893,314.571 28.629 C 315.117 29.175,315.200 30.986,315.200 42.405 C 315.200 50.646,315.348 55.644,315.596 55.797 C 315.813 55.932,321.808 56.028,328.917 56.011 L 341.842 55.980 342.799 56.999 L 343.757 58.018 343.818 70.950 C 343.852 78.062,344.007 84.088,344.163 84.341 C 344.368 84.672,348.184 84.800,357.810 84.800 C 370.611 84.800,371.189 84.832,371.586 85.574 C 371.848 86.063,372.000 91.284,372.000 99.774 L 372.000 113.200 386.000 113.200 L 400.000 113.200 400.000 56.600 L 400.000 0.000 343.400 0.000 L 286.800 0.000 286.800 13.994 M29.467 29.467 C 29.128 29.806,29.114 55.471,29.452 57.160 L 29.704 58.420 43.552 58.204 C 71.065 57.773,225.406 57.401,227.200 57.761 C 228.190 57.959,234.670 58.191,241.600 58.276 L 254.200 58.431 254.089 71.261 C 254.007 80.729,254.103 84.242,254.454 84.665 C 255.447 85.861,255.614 83.965,255.656 71.000 C 255.680 63.740,255.819 51.500,255.964 43.800 C 256.110 36.100,256.167 29.665,256.091 29.500 C 255.920 29.129,29.837 29.096,29.467 29.467 M286.798 58.095 C 286.798 58.153,286.793 70.530,286.787 85.600 L 286.778 113.000 314.394 113.103 L 342.011 113.205 341.905 99.903 L 341.800 86.600 328.145 86.495 C 317.406 86.412,314.395 86.277,314.050 85.860 C 313.755 85.505,313.576 80.882,313.505 71.766 L 313.400 58.200 300.100 58.095 C 292.785 58.037,286.799 58.037,286.798 58.095 M54.400 60.000 C 54.400 60.533,54.667 60.800,55.200 60.800 C 55.733 60.800,56.000 60.533,56.000 60.000 C 56.000 59.467,55.733 59.200,55.200 59.200 C 54.667 59.200,54.400 59.467,54.400 60.000 M251.200 60.000 C 251.200 60.533,251.467 60.800,252.000 60.800 C 252.533 60.800,252.800 60.533,252.800 60.000 C 252.800 59.467,252.533 59.200,252.000 59.200 C 251.467 59.200,251.200 59.467,251.200 60.000 M40.000 71.200 C 40.000 71.733,40.267 72.000,40.800 72.000 C 41.333 72.000,41.600 71.733,41.600 71.200 C 41.600 70.667,41.333 70.400,40.800 70.400 C 40.267 70.400,40.000 70.667,40.000 71.200 M35.200 79.200 C 35.200 79.733,35.467 80.000,36.000 80.000 C 36.533 80.000,36.800 79.733,36.800 79.200 C 36.800 78.667,36.533 78.400,36.000 78.400 C 35.467 78.400,35.200 78.667,35.200 79.200 M114.700 85.632 C 114.055 86.008,114.000 87.106,114.000 99.571 C 114.000 110.338,113.891 113.192,113.468 113.543 C 113.101 113.848,108.827 113.967,99.653 113.928 C 90.764 113.890,86.228 114.012,85.945 114.295 C 85.665 114.575,85.515 119.258,85.503 128.158 C 85.488 138.512,85.368 141.695,84.976 142.020 C 84.642 142.297,79.986 142.431,71.324 142.411 C 61.270 142.388,58.015 142.501,57.483 142.891 C 56.843 143.360,56.797 144.483,56.894 157.200 L 57.000 171.000 128.400 171.000 L 199.800 171.000 200.149 143.702 C 200.425 122.186,200.393 116.150,200.001 115.202 L 199.503 114.000 195.451 113.980 C 193.223 113.968,187.309 113.977,182.310 113.999 C 170.163 114.052,171.563 115.924,171.616 99.695 C 171.657 87.259,171.606 86.194,170.954 85.717 C 170.049 85.055,115.830 84.974,114.700 85.632 M302.423 144.045 C 280.106 144.220,260.953 144.417,259.861 144.482 L 257.876 144.600 257.980 150.600 C 258.038 153.900,258.111 159.750,258.142 163.600 L 258.200 170.600 264.200 170.533 C 267.500 170.496,270.560 170.463,271.000 170.459 C 271.440 170.455,274.253 170.539,277.250 170.647 C 282.030 170.818,282.785 170.758,283.387 170.156 C 283.850 169.693,284.161 169.613,284.344 169.910 C 285.084 171.107,287.269 171.200,314.626 171.200 C 341.034 171.200,342.436 171.236,343.134 171.934 C 343.817 172.617,343.866 173.557,343.834 185.408 C 343.795 200.155,344.178 201.684,347.231 198.963 C 348.111 198.179,351.162 198.242,352.069 199.062 C 352.743 199.672,352.856 199.673,353.516 199.076 C 354.064 198.580,355.255 198.402,358.616 198.314 C 362.195 198.221,363.000 198.090,363.000 197.600 C 363.000 197.235,362.545 196.948,361.837 196.867 C 360.680 196.735,358.400 194.854,358.400 194.031 C 358.400 192.704,356.840 193.700,356.724 195.100 L 356.600 196.600 353.605 196.600 C 351.072 196.600,350.590 196.492,350.476 195.900 C 350.361 195.301,350.662 195.200,352.557 195.200 C 354.362 195.200,354.851 195.052,355.200 194.400 C 355.435 193.960,355.892 193.600,356.214 193.600 C 356.536 193.600,356.800 193.330,356.800 193.000 C 356.800 192.667,357.156 192.400,357.600 192.400 C 358.044 192.400,358.400 192.667,358.400 193.000 C 358.400 193.883,359.502 193.730,360.013 192.776 C 360.632 191.620,361.364 192.015,361.600 193.632 C 361.862 195.421,363.720 195.821,364.864 194.334 L 365.582 193.400 366.576 194.600 C 367.783 196.058,367.694 196.538,366.167 196.803 C 365.320 196.950,364.963 197.264,364.866 197.949 C 364.680 199.261,365.381 199.880,366.244 199.164 C 366.617 198.854,367.659 198.601,368.561 198.601 L 370.200 198.600 370.294 189.800 C 370.346 184.960,370.436 172.630,370.494 162.400 L 370.600 143.800 356.800 143.763 C 349.210 143.743,324.740 143.870,302.423 144.045 M276.400 149.400 C 276.400 149.730,276.220 150.000,276.000 150.000 C 275.780 150.000,275.600 149.730,275.600 149.400 C 275.600 149.070,275.780 148.800,276.000 148.800 C 276.220 148.800,276.400 149.070,276.400 149.400 M270.308 151.125 C 270.395 151.386,270.182 151.600,269.833 151.600 C 269.485 151.600,269.200 151.315,269.200 150.967 C 269.200 150.260,270.061 150.383,270.308 151.125 M278.222 162.035 C 278.634 162.702,277.707 163.467,277.155 162.915 C 276.693 162.453,276.982 161.600,277.600 161.600 C 277.794 161.600,278.074 161.796,278.222 162.035 M284.400 162.400 C 284.400 162.620,284.130 162.800,283.800 162.800 C 283.470 162.800,283.200 162.620,283.200 162.400 C 283.200 162.180,283.470 162.000,283.800 162.000 C 284.130 162.000,284.400 162.180,284.400 162.400 M282.800 165.600 C 282.800 166.444,282.218 166.676,281.800 166.000 C 281.508 165.528,281.887 164.800,282.424 164.800 C 282.631 164.800,282.800 165.160,282.800 165.600 M356.801 174.600 C 357.001 175.762,357.077 175.800,359.200 175.800 C 361.323 175.800,361.399 175.762,361.600 174.600 L 361.808 173.400 364.766 173.400 L 367.724 173.400 367.636 179.200 C 367.553 184.721,367.197 186.682,366.613 184.840 C 366.351 184.015,365.959 183.826,364.835 183.985 C 362.976 184.248,361.648 183.567,361.524 182.286 C 361.401 181.009,361.385 181.000,359.200 181.000 L 357.000 181.000 356.800 182.400 C 356.475 184.677,350.400 184.673,350.400 182.396 C 350.400 181.626,350.119 181.078,349.575 180.787 C 349.082 180.523,348.778 179.994,348.819 179.473 C 348.939 177.960,348.821 177.661,348.000 177.400 C 347.560 177.260,347.200 176.888,347.200 176.573 C 347.200 176.258,346.950 176.000,346.643 176.000 C 346.036 176.000,345.427 174.204,345.818 173.570 C 345.963 173.336,348.184 173.222,351.327 173.289 L 356.593 173.400 356.801 174.600 M359.783 173.572 C 360.079 174.051,359.326 174.525,358.793 174.196 C 358.346 173.919,358.640 173.200,359.200 173.200 C 359.394 173.200,359.656 173.368,359.783 173.572 M347.486 174.648 C 346.687 175.446,347.255 176.044,348.700 175.924 C 350.585 175.768,350.804 174.659,348.986 174.481 C 348.318 174.416,347.643 174.491,347.486 174.648 M348.684 183.200 C 348.799 183.640,349.142 184.000,349.447 184.000 C 349.751 184.000,350.000 184.270,350.000 184.600 C 350.000 184.930,349.730 185.200,349.400 185.200 C 349.070 185.200,348.800 184.930,348.800 184.600 C 348.800 184.267,348.444 184.000,348.000 184.000 C 347.068 184.000,346.928 185.008,347.792 185.492 C 348.118 185.674,348.501 186.403,348.642 187.112 C 348.960 188.700,347.953 188.909,346.777 187.500 C 345.884 186.429,345.728 184.000,346.553 184.000 C 346.858 184.000,347.201 183.640,347.316 183.200 C 347.431 182.760,347.739 182.400,348.000 182.400 C 348.261 182.400,348.569 182.760,348.684 183.200 M366.300 186.500 C 366.208 186.775,365.893 187.000,365.600 187.000 C 365.307 187.000,364.992 186.775,364.900 186.500 C 364.801 186.203,365.084 186.000,365.600 186.000 C 366.116 186.000,366.399 186.203,366.300 186.500 M361.600 188.009 C 361.600 188.943,360.883 189.175,359.482 188.693 C 358.176 188.244,358.246 187.526,359.630 187.178 C 360.931 186.851,361.600 187.133,361.600 188.009 M367.531 190.564 C 367.459 191.147,367.220 191.664,367.000 191.712 C 366.519 191.818,366.238 190.199,366.581 189.304 C 366.956 188.328,367.688 189.299,367.531 190.564 M347.084 191.200 C 347.411 192.449,353.399 192.411,353.727 191.158 C 353.848 190.695,354.173 190.391,354.449 190.483 C 355.305 190.768,355.325 191.642,354.479 191.863 C 354.036 191.979,353.584 192.417,353.474 192.837 C 353.331 193.386,352.918 193.600,352.000 193.600 C 351.062 193.600,350.670 193.811,350.516 194.400 C 350.358 195.003,349.970 195.200,348.941 195.200 C 348.096 195.200,347.487 195.429,347.345 195.800 C 347.218 196.130,346.774 196.400,346.357 196.400 C 345.272 196.400,345.306 194.186,346.400 193.600 C 347.323 193.106,347.477 192.000,346.624 192.000 C 345.917 192.000,345.465 191.342,345.800 190.800 C 346.207 190.142,346.861 190.346,347.084 191.200 M371.053 229.481 C 370.898 229.635,370.792 235.570,370.817 242.669 C 370.841 249.769,370.742 255.771,370.596 256.007 C 370.415 256.299,366.298 256.421,357.665 256.389 C 342.590 256.333,344.197 256.260,343.419 257.038 C 342.859 257.598,342.785 259.318,342.811 271.073 C 342.832 280.771,342.711 284.626,342.371 285.035 C 341.984 285.501,339.602 285.600,328.813 285.600 C 316.641 285.600,315.678 285.651,315.062 286.331 C 314.475 286.981,314.400 288.529,314.400 300.083 C 314.400 311.700,314.329 313.161,313.739 313.651 C 313.220 314.082,310.274 314.243,300.039 314.400 L 287.000 314.600 286.787 328.600 C 286.670 336.300,286.535 342.626,286.487 342.657 C 285.585 343.250,282.878 343.421,271.600 343.594 L 258.200 343.800 258.000 357.467 C 257.890 364.984,257.650 371.284,257.467 371.467 C 257.284 371.650,250.849 371.854,243.167 371.919 L 229.200 372.039 229.200 385.739 C 229.200 395.862,229.075 399.565,228.720 399.920 C 228.365 400.275,224.662 400.400,214.539 400.400 L 200.839 400.400 200.719 414.415 C 200.618 426.348,200.511 428.486,200.000 428.809 C 199.653 429.028,193.694 429.190,185.887 429.194 C 175.444 429.199,172.334 429.314,172.196 429.700 C 172.098 429.975,171.969 436.365,171.909 443.900 L 171.800 457.601 214.500 457.600 C 237.985 457.600,257.200 457.498,257.200 457.374 C 257.200 457.249,257.015 456.802,256.789 456.379 C 255.953 454.817,256.256 429.166,257.121 428.302 C 257.816 427.606,258.707 427.560,270.913 427.589 C 283.476 427.618,283.977 427.590,284.381 426.836 C 284.648 426.336,284.800 421.351,284.800 413.050 C 284.800 403.087,284.917 399.972,285.300 399.724 C 285.575 399.546,291.920 399.310,299.400 399.200 L 313.000 399.000 313.200 385.285 C 313.414 370.626,313.378 370.862,315.400 370.780 C 315.840 370.762,321.629 370.770,328.266 370.798 C 334.902 370.826,340.977 370.728,341.766 370.580 L 343.200 370.311 343.200 357.235 C 343.200 347.599,343.326 344.034,343.680 343.680 C 344.034 343.326,347.599 343.200,357.237 343.200 C 368.793 343.200,370.343 343.126,370.557 342.567 C 370.691 342.219,370.800 335.749,370.800 328.190 L 370.800 314.445 371.689 313.823 C 372.452 313.289,374.527 313.200,386.289 313.200 L 400.000 313.200 400.000 271.200 L 400.000 229.200 385.667 229.200 C 377.783 229.200,371.207 229.326,371.053 229.481 " stroke="none" fill="#f9f9fb" fill-rule="evenodd"></path><path id="path4" d="M285.285 13.838 C 285.206 26.949,285.248 27.919,285.925 28.533 C 286.562 29.109,288.283 29.202,300.025 29.295 L 313.400 29.400 313.512 42.000 C 313.573 48.930,313.536 54.960,313.429 55.400 C 313.240 56.181,312.922 56.199,300.199 56.157 C 287.889 56.116,287.109 56.156,286.182 56.886 L 285.200 57.658 285.200 85.606 L 285.200 113.555 286.089 114.177 C 286.873 114.726,290.239 114.800,314.507 114.800 L 342.036 114.800 343.063 113.773 L 344.090 112.746 343.945 99.673 L 343.800 86.600 357.200 86.600 L 370.600 86.600 370.800 100.188 L 371.000 113.777 372.000 114.283 C 373.267 114.923,400.000 115.035,400.000 114.400 C 400.000 114.141,395.083 114.000,386.049 114.000 C 374.897 114.000,372.009 113.893,371.654 113.466 C 371.354 113.104,371.177 108.615,371.105 99.566 L 371.000 86.200 357.425 86.095 C 349.572 86.034,343.696 86.144,343.484 86.356 C 343.274 86.566,343.143 92.291,343.178 99.742 C 343.237 112.372,343.214 112.786,342.419 113.581 C 341.298 114.702,288.076 114.889,286.489 113.777 L 285.600 113.155 285.600 85.587 L 285.600 58.018 286.560 57.389 C 287.388 56.847,289.290 56.769,300.398 56.822 C 307.779 56.858,313.433 56.727,313.643 56.517 C 313.856 56.304,313.967 50.442,313.905 42.575 L 313.800 29.000 300.133 28.800 C 292.616 28.690,286.316 28.450,286.133 28.267 C 285.950 28.084,285.703 21.604,285.585 13.867 L 285.371 -0.200 285.285 13.838 M28.837 28.300 L 27.985 29.000 28.011 213.200 C 28.026 322.373,28.185 398.133,28.401 399.200 C 28.601 400.190,28.776 406.670,28.789 413.600 C 28.802 420.530,28.947 426.412,29.112 426.672 C 29.586 427.417,55.853 427.491,55.655 426.747 C 55.199 425.033,55.247 400.800,55.705 400.794 C 57.377 400.773,57.391 400.661,57.600 385.715 L 57.800 371.400 71.400 371.200 C 78.880 371.090,85.229 370.852,85.509 370.671 C 85.904 370.415,86.011 367.362,85.989 356.911 C 85.973 349.168,86.118 343.322,86.331 343.109 C 86.545 342.895,92.217 342.757,99.751 342.783 C 108.444 342.813,113.070 342.684,113.610 342.395 C 114.399 341.973,114.420 341.617,114.400 329.081 C 114.388 321.996,114.384 315.988,114.390 315.729 C 114.426 314.081,115.097 314.000,128.749 314.000 C 138.397 314.000,141.966 313.874,142.320 313.520 C 142.674 313.166,142.800 309.594,142.800 299.934 C 142.800 287.328,142.830 286.812,143.584 286.409 C 144.685 285.819,254.251 286.350,255.820 286.952 C 256.351 287.156,256.424 288.867,256.383 300.084 C 256.324 316.366,254.325 314.429,271.147 314.389 C 283.102 314.360,284.222 314.415,284.690 315.055 C 285.344 315.950,285.438 341.406,284.789 341.807 C 284.563 341.947,278.533 342.041,271.389 342.016 C 262.839 341.987,258.127 342.118,257.600 342.400 C 256.825 342.815,256.800 343.236,256.800 355.788 C 256.800 363.241,256.634 369.184,256.410 369.774 L 256.020 370.800 242.434 370.800 C 232.004 370.800,228.772 370.916,228.524 371.300 C 228.346 371.575,228.146 377.884,228.080 385.320 C 227.981 396.542,227.864 398.877,227.393 399.058 C 227.081 399.178,220.925 399.304,213.713 399.338 C 206.501 399.372,200.375 399.546,200.100 399.724 C 199.716 399.972,199.600 403.204,199.600 413.634 L 199.600 427.220 198.626 427.590 C 198.090 427.794,192.015 427.958,185.126 427.955 C 178.237 427.952,172.285 427.961,171.900 427.975 C 171.453 427.991,171.200 428.318,171.200 428.880 C 171.200 429.564,171.307 429.653,171.680 429.280 C 172.035 428.925,175.744 428.800,185.890 428.800 L 199.620 428.800 200.010 427.774 C 200.235 427.183,200.400 421.166,200.400 413.574 C 200.400 406.328,200.445 400.363,200.500 400.318 C 200.555 400.273,206.900 400.138,214.600 400.018 L 228.600 399.800 228.818 385.800 C 228.938 378.100,229.073 371.755,229.118 371.700 C 229.163 371.645,235.128 371.600,242.374 371.600 C 249.966 371.600,255.983 371.435,256.574 371.210 L 257.600 370.820 257.600 357.584 C 257.600 349.224,257.753 344.062,258.014 343.574 C 258.411 342.832,258.989 342.800,271.786 342.800 C 283.564 342.800,285.219 342.723,285.791 342.152 C 286.504 341.439,286.576 314.442,285.867 313.733 C 285.684 313.550,279.384 313.310,271.867 313.200 L 258.200 313.000 258.158 299.672 C 258.120 287.762,258.044 286.273,257.444 285.672 C 256.152 284.379,144.708 283.965,142.317 285.244 C 141.815 285.513,136.932 285.646,128.643 285.616 C 116.435 285.573,115.714 285.611,115.060 286.334 C 114.434 287.025,114.374 288.299,114.417 299.988 C 114.463 312.676,114.450 312.890,113.620 313.471 C 112.914 313.966,110.654 314.055,99.810 314.016 C 87.292 313.972,86.829 313.998,86.422 314.759 C 86.151 315.266,86.000 320.188,86.000 328.528 L 86.000 341.508 85.022 342.149 C 84.185 342.697,82.161 342.804,70.922 342.895 L 57.800 343.000 57.600 356.839 C 57.456 366.828,57.265 370.840,56.916 371.261 C 56.563 371.686,56.400 375.503,56.316 385.303 C 56.244 393.652,56.048 398.882,55.800 399.080 C 54.910 399.791,29.298 399.218,28.951 398.480 C 28.396 397.297,28.268 29.641,28.822 28.973 C 29.422 28.250,255.078 28.092,256.426 28.814 C 257.186 29.220,257.200 30.275,257.200 85.534 C 257.200 128.794,257.311 141.951,257.680 142.320 C 258.049 142.689,271.212 142.800,314.493 142.800 L 370.826 142.800 371.209 143.700 C 371.586 144.587,371.591 144.585,371.496 143.600 L 371.400 142.600 314.600 142.400 L 257.800 142.200 257.699 85.510 L 257.597 28.819 256.418 28.210 C 254.469 27.202,30.065 27.291,28.837 28.300 M315.100 57.632 C 314.146 58.188,314.010 83.979,314.957 84.764 C 315.685 85.368,341.870 85.733,342.234 85.145 C 342.766 84.285,342.465 57.888,341.920 57.542 C 341.149 57.053,315.948 57.138,315.100 57.632 M341.833 58.053 C 341.970 58.275,342.099 77.949,342.006 84.400 C 341.998 84.931,315.740 84.950,315.412 84.419 C 315.116 83.940,315.099 58.487,315.395 58.008 C 315.662 57.577,341.566 57.621,341.833 58.053 M371.295 198.526 C 371.196 228.053,371.216 228.423,372.914 228.375 L 373.800 228.349 372.900 227.988 C 372.405 227.789,371.958 227.575,371.907 227.513 C 371.855 227.451,371.718 214.530,371.601 198.800 L 371.389 170.200 371.295 198.526 M374.500 228.276 C 374.885 228.376,375.515 228.376,375.900 228.276 C 376.285 228.175,375.970 228.093,375.200 228.093 C 374.430 228.093,374.115 228.175,374.500 228.276 M382.924 228.299 C 386.183 228.367,391.403 228.366,394.524 228.299 C 397.646 228.231,394.980 228.176,388.600 228.177 C 382.220 228.177,379.666 228.232,382.924 228.299 M372.500 314.412 C 372.005 314.611,371.600 314.996,371.600 315.267 C 371.600 315.650,371.707 315.653,372.080 315.280 C 372.435 314.925,376.142 314.800,386.280 314.800 C 395.160 314.800,400.000 314.659,400.000 314.400 C 400.000 313.889,373.772 313.901,372.500 314.412 M371.103 370.700 L 371.000 399.400 357.845 399.600 C 347.408 399.759,344.537 399.692,343.945 399.277 C 343.244 398.785,343.200 397.976,343.200 385.457 C 343.200 375.648,343.074 372.034,342.720 371.680 C 342.032 370.992,315.168 370.992,314.480 371.680 C 314.126 372.034,314.000 375.570,314.000 385.106 C 314.000 393.266,313.847 398.339,313.586 398.826 C 313.189 399.568,312.611 399.600,299.814 399.600 C 288.205 399.600,286.375 399.682,285.829 400.229 C 285.282 400.775,285.200 402.599,285.200 414.149 C 285.200 423.953,285.074 427.566,284.720 427.920 C 284.366 428.274,280.809 428.400,271.200 428.400 C 261.591 428.400,258.034 428.526,257.680 428.880 C 256.770 429.790,257.045 455.583,257.977 456.700 C 258.757 457.635,259.600 457.894,259.600 457.200 C 259.600 456.942,263.800 456.800,271.400 456.800 C 279.000 456.800,283.200 456.942,283.200 457.200 C 283.200 457.435,284.600 457.600,286.600 457.600 C 288.600 457.600,290.000 457.435,290.000 457.200 C 290.000 456.951,292.333 456.800,296.200 456.800 C 300.067 456.800,302.400 456.951,302.400 457.200 C 302.400 457.433,303.733 457.600,305.600 457.600 C 307.467 457.600,308.800 457.433,308.800 457.200 C 308.800 456.980,309.160 456.800,309.600 456.800 C 310.040 456.800,310.400 456.980,310.400 457.200 C 310.400 457.440,312.000 457.600,314.400 457.600 C 316.800 457.600,318.400 457.440,318.400 457.200 C 318.400 456.980,318.760 456.800,319.200 456.800 C 319.640 456.800,320.000 456.980,320.000 457.200 C 320.000 457.420,320.720 457.600,321.600 457.600 C 322.480 457.600,323.200 457.420,323.200 457.200 C 323.200 456.978,324.267 456.800,325.600 456.800 C 326.933 456.800,328.000 456.978,328.000 457.200 C 328.000 457.422,329.067 457.600,330.400 457.600 C 331.733 457.600,332.800 457.422,332.800 457.200 C 332.800 456.956,334.667 456.800,337.600 456.800 C 340.533 456.800,342.400 456.956,342.400 457.200 C 342.400 457.452,345.067 457.600,349.600 457.600 C 354.133 457.600,356.800 457.452,356.800 457.200 C 356.800 456.980,357.160 456.800,357.600 456.800 C 358.040 456.800,358.400 456.980,358.400 457.200 C 358.400 457.420,358.760 457.600,359.200 457.600 C 359.640 457.600,360.000 457.420,360.000 457.200 C 360.000 456.980,360.360 456.800,360.800 456.800 C 361.240 456.800,361.600 456.980,361.600 457.200 C 361.600 457.420,361.960 457.600,362.400 457.600 C 362.840 457.600,363.200 457.420,363.200 457.200 C 363.200 456.956,365.067 456.800,368.000 456.800 C 370.933 456.800,372.800 456.956,372.800 457.200 C 372.800 457.420,373.520 457.600,374.400 457.600 C 375.280 457.600,376.000 457.420,376.000 457.200 C 376.000 456.980,376.720 456.800,377.600 456.800 C 378.480 456.800,379.200 456.980,379.200 457.200 C 379.200 457.455,382.400 457.600,388.000 457.600 C 393.600 457.600,396.800 457.455,396.800 457.200 C 396.800 456.980,397.565 456.756,398.500 456.702 C 399.435 456.648,368.160 456.513,329.000 456.402 L 257.800 456.200 257.800 442.600 L 257.800 429.000 271.600 428.800 C 279.190 428.690,285.625 428.454,285.900 428.276 C 286.284 428.028,286.400 424.758,286.400 414.176 C 286.400 403.428,286.510 400.398,286.900 400.389 C 287.175 400.384,293.075 400.388,300.011 400.400 C 313.566 400.422,314.949 400.256,315.374 398.561 C 315.510 398.019,315.612 392.225,315.600 385.687 C 315.588 379.149,315.583 373.393,315.589 372.895 L 315.600 371.989 328.700 372.095 L 341.800 372.200 341.905 385.740 C 341.993 396.951,342.113 399.426,342.605 400.129 C 343.103 400.839,343.200 403.152,343.200 414.242 L 343.200 427.507 344.100 427.748 C 346.827 428.479,370.369 428.004,370.795 427.210 C 371.264 426.333,371.931 342.000,371.468 342.000 C 371.324 342.000,371.159 354.915,371.103 370.700 M171.294 442.867 C 171.242 449.614,171.091 455.419,170.957 455.767 C 170.737 456.341,162.773 456.406,85.257 456.470 C 38.256 456.508,0.565 456.609,1.500 456.693 C 2.435 456.777,3.200 457.016,3.200 457.223 C 3.200 457.430,4.640 457.600,6.400 457.600 C 8.267 457.600,9.600 457.433,9.600 457.200 C 9.600 456.967,10.933 456.800,12.800 456.800 C 14.667 456.800,16.000 456.967,16.000 457.200 C 16.000 457.420,16.360 457.600,16.800 457.600 C 17.240 457.600,17.600 457.420,17.600 457.200 C 17.600 456.980,17.960 456.800,18.400 456.800 C 18.840 456.800,19.200 456.980,19.200 457.200 C 19.200 457.420,19.920 457.600,20.800 457.600 C 21.680 457.600,22.400 457.420,22.400 457.200 C 22.400 456.960,24.000 456.800,26.400 456.800 C 28.800 456.800,30.400 456.960,30.400 457.200 C 30.400 457.444,32.267 457.600,35.200 457.600 C 38.133 457.600,40.000 457.444,40.000 457.200 C 40.000 456.980,40.720 456.800,41.600 456.800 C 42.480 456.800,43.200 456.980,43.200 457.200 C 43.200 457.422,44.267 457.600,45.600 457.600 C 46.933 457.600,48.000 457.422,48.000 457.200 C 48.000 456.980,48.360 456.800,48.800 456.800 C 49.240 456.800,49.600 456.980,49.600 457.200 C 49.600 457.444,51.467 457.600,54.400 457.600 C 57.333 457.600,59.200 457.444,59.200 457.200 C 59.200 456.956,61.067 456.800,64.000 456.800 C 66.933 456.800,68.800 456.956,68.800 457.200 C 68.800 457.433,70.133 457.600,72.000 457.600 C 73.867 457.600,75.200 457.433,75.200 457.200 C 75.200 456.980,75.560 456.800,76.000 456.800 C 76.440 456.800,76.800 456.980,76.800 457.200 C 76.800 457.462,84.333 457.600,98.600 457.600 C 112.867 457.600,120.400 457.462,120.400 457.200 C 120.400 456.980,121.390 456.800,122.600 456.800 C 123.810 456.800,124.800 456.980,124.800 457.200 C 124.800 457.462,132.646 457.600,147.537 457.600 L 170.274 457.600 170.957 456.300 C 171.565 455.141,171.626 453.681,171.514 442.800 L 171.388 430.600 171.294 442.867 " stroke="none" fill="#96c9a5" fill-rule="evenodd"></path></g></svg>