<svg width="26" height="26" viewBox="0 0 26 26" fill="none" xmlns="http://www.w3.org/2000/svg">
<path d="M14.0833 17.3333C14.0833 17.9317 13.5983 18.4167 13 18.4167C12.4017 18.4167 11.9167 17.9317 11.9167 17.3333C11.9167 16.735 12.4017 16.25 13 16.25C13.5983 16.25 14.0833 16.735 14.0833 17.3333Z" fill="#333333"/>
<path d="M13.8125 7.58398C13.8125 7.13526 13.4487 6.77148 13 6.77148C12.5513 6.77148 12.1875 7.13526 12.1875 7.58398V14.084C12.1875 14.5327 12.5513 14.8965 13 14.8965C13.4487 14.8965 13.8125 14.5327 13.8125 14.084V7.58398Z" fill="#333333"/>
<path fill-rule="evenodd" clip-rule="evenodd" d="M13 1.35449C6.56817 1.35449 1.35416 6.56851 1.35416 13.0003C1.35416 19.4322 6.56817 24.6462 13 24.6462C19.4318 24.6462 24.6458 19.4322 24.6458 13.0003C24.6458 6.56851 19.4318 1.35449 13 1.35449ZM2.97916 13.0003C2.97916 7.46598 7.46564 2.97949 13 2.97949C18.5343 2.97949 23.0208 7.46598 23.0208 13.0003C23.0208 18.5346 18.5343 23.0212 13 23.0212C7.46564 23.0212 2.97916 18.5346 2.97916 13.0003Z" fill="#333333"/>
</svg>
