<svg width="27" height="27" viewBox="0 0 27 27" fill="none" xmlns="http://www.w3.org/2000/svg">
<circle cx="13.1606" cy="13.1606" r="13.1606" fill="#00D37F" fill-opacity="0.1"/>
<path fill-rule="evenodd" clip-rule="evenodd" d="M15.3643 19.2096C13.8093 19.5671 12.1907 19.5671 10.6357 19.2096C8.57931 18.7367 6.98235 17.1653 6.50342 15.1639C6.13989 13.6447 6.13989 12.0638 6.50342 10.5446C6.98235 8.54316 8.57931 6.9718 10.6357 6.49894C11.7711 6.23793 12.9403 6.16745 14.094 6.28757C14.0997 7.0198 14.1198 7.6415 14.1912 8.16179C14.2946 8.91584 14.5158 9.54788 15.0263 10.0484C15.5351 10.5472 16.175 10.7617 16.9383 10.8623C17.6338 10.954 18.5084 10.9592 19.5865 10.9595C19.8571 12.3501 19.8272 13.7825 19.4966 15.1639C19.0176 17.1653 17.4207 18.7367 15.3643 19.2096ZM19.2302 9.72823C18.3164 9.72585 17.6358 9.71289 17.0991 9.64216C16.4678 9.55896 16.129 9.40585 15.8879 9.16946C15.6485 8.93471 15.4946 8.60757 15.4105 7.99457C15.3552 7.59079 15.3346 7.10316 15.327 6.49049C15.3394 6.49328 15.3518 6.49607 15.3643 6.49894C17.1317 6.90534 18.5598 8.12322 19.2302 9.72823ZM10.3599 20.409C12.0965 20.8083 13.9035 20.8083 15.6401 20.409C18.1416 19.8338 20.1033 17.9167 20.6935 15.4503C21.1022 13.7428 21.1022 11.9657 20.6935 10.2582C20.1033 7.79182 18.1416 5.87469 15.6401 5.29951C13.9035 4.90017 12.0965 4.90017 10.3599 5.29951C7.85845 5.87469 5.89662 7.79182 5.30644 10.2582C4.89785 11.9657 4.89785 13.7428 5.30644 15.4503C5.89662 17.9167 7.85844 19.8338 10.3599 20.409Z" fill="#00D37F"/>
<path fill-rule="evenodd" clip-rule="evenodd" d="M9.92285 15.1698C9.92285 15.5096 10.1984 15.7852 10.5382 15.7852H12.9998C13.3396 15.7852 13.6152 15.5096 13.6152 15.1698C13.6152 14.8299 13.3396 14.5544 12.9998 14.5544H10.5382C10.1984 14.5544 9.92285 14.8299 9.92285 15.1698ZM9.92285 12.7082C9.92285 13.0481 10.1984 13.3236 10.5382 13.3236H14.6408C14.9807 13.3236 15.2562 13.0481 15.2562 12.7082C15.2562 12.3684 14.9807 12.0928 14.6408 12.0928H10.5382C10.1984 12.0928 9.92285 12.3684 9.92285 12.7082Z" fill="#00D37F"/>
</svg>
