<svg width="9" height="16" viewBox="0 0 9 16" fill="none" xmlns="http://www.w3.org/2000/svg">
<path d="M1.45848 10.2083L6.23973 14.9896C6.4349 15.1836 6.69891 15.2925 6.9741 15.2925C7.2493 15.2925 7.51331 15.1836 7.70848 14.9896C7.80611 14.8927 7.88361 14.7775 7.93649 14.6506C7.98937 14.5237 8.0166 14.3875 8.0166 14.25C8.0166 14.1125 7.98937 13.9763 7.93649 13.8494C7.88361 13.7225 7.80611 13.6072 7.70848 13.5104L2.91681 8.73957C2.81918 8.64273 2.74168 8.52752 2.6888 8.40059C2.63592 8.27365 2.60869 8.1375 2.60869 7.99999C2.60869 7.86247 2.63592 7.72632 2.6888 7.59939C2.74168 7.47245 2.81918 7.35724 2.91681 7.2604L7.70848 2.48957C7.90463 2.2948 8.01537 2.03009 8.01635 1.75367C8.01733 1.47725 7.90846 1.21176 7.71369 1.01561C7.51892 0.819463 7.25421 0.708717 6.97779 0.707741C6.70137 0.706763 6.43588 0.815636 6.23973 1.0104L1.45848 5.79165C0.873267 6.37759 0.54456 7.17186 0.54456 7.99999C0.54456 8.82811 0.873267 9.62238 1.45848 10.2083Z" fill="white"/>
</svg>
