<svg width="40" height="40" viewBox="0 0 40 40" fill="none" xmlns="http://www.w3.org/2000/svg">
<circle cx="20" cy="20" r="19.5" stroke="#CEFD1E"/>
<path d="M30.7694 19.1807C30.7694 18.0512 29.8505 17.1324 28.721 17.1324H28.0237H25.0071C25.5823 16.0912 25.8882 15.1085 25.8882 13.7513V13.5319C25.8882 13.5318 25.8882 13.5317 25.8882 13.5316C25.8879 12.8016 25.6058 12.1132 25.0935 11.5932C24.5816 11.0736 23.898 10.7811 23.1688 10.7697C23.1618 10.7696 23.1548 10.7695 23.1479 10.7695C22.4411 10.7695 21.8231 11.3317 21.765 12.0321C21.4883 15.3721 18.2699 17.0934 16.1171 18.1403V17.7947C16.1171 17.4336 15.8243 17.1409 15.4633 17.1409H9.88469C9.52368 17.1409 9.23096 17.4336 9.23096 17.7947V28.9518C9.23096 29.3129 9.52368 29.6056 9.88469 29.6056H14.0686C14.87 29.6056 15.5649 29.1428 15.9013 28.4706C18.2296 29.482 20.2525 29.6137 22.5754 29.6137C22.9722 29.6137 23.3781 29.6099 23.7954 29.6059C24.2569 29.6016 24.7342 29.597 25.2344 29.597H27.3014C28.4309 29.597 29.3498 28.6781 29.3498 27.5487C29.3498 27.1689 29.2459 26.813 29.065 26.5077C29.6536 26.1474 30.0471 25.4985 30.0471 24.7594C30.0471 24.3796 29.9432 24.0237 29.7624 23.7184C30.3509 23.3581 30.7444 22.7092 30.7444 21.9701C30.7444 21.4381 30.5405 20.9531 30.2069 20.5886C30.5551 20.2212 30.7694 19.7256 30.7694 19.1807ZM14.8096 27.5571C14.8096 27.9657 14.4773 28.2981 14.0687 28.2981H13.3278V26.1625C13.3278 25.8014 13.0351 25.5088 12.6741 25.5088C12.3131 25.5088 12.0203 25.8015 12.0203 26.1625V28.2981H10.5385V18.4484H14.8096V27.5571Z" fill="#CEFD1E"/>
</svg>
