<svg width="30" height="30" viewBox="0 0 30 30" fill="none" xmlns="http://www.w3.org/2000/svg">
<g clip-path="url(#clip0_5437_12451)">
<path d="M25.9091 0H4.09091C1.83156 0 0 1.83156 0 4.09091V25.9091C0 28.1684 1.83156 30 4.09091 30H25.9091C28.1684 30 30 28.1684 30 25.9091V4.09091C30 1.83156 28.1684 0 25.9091 0Z" fill="#0077B5"/>
<path d="M10.8069 8.18182C10.8069 8.68751 10.6569 9.18184 10.376 9.60231C10.095 10.0228 9.69571 10.3505 9.22851 10.544C8.76131 10.7375 8.24722 10.7882 7.75125 10.6895C7.25527 10.5909 6.79969 10.3473 6.44211 9.98976C6.08454 9.63218 5.84102 9.1766 5.74237 8.68063C5.64371 8.18465 5.69434 7.67056 5.88786 7.20337C6.08138 6.73617 6.4091 6.33685 6.82957 6.0559C7.25003 5.77495 7.74437 5.625 8.25006 5.625C8.92817 5.625 9.5785 5.89438 10.058 6.37387C10.5375 6.85337 10.8069 7.50371 10.8069 8.18182Z" fill="white"/>
<path d="M10.2274 12.4432V23.7392C10.2278 23.8225 10.2118 23.9051 10.1802 23.9822C10.1486 24.0594 10.1021 24.1295 10.0433 24.1886C9.98458 24.2477 9.91471 24.2945 9.83776 24.3265C9.76082 24.3585 9.6783 24.375 9.59497 24.375H6.90008C6.81675 24.3752 6.7342 24.359 6.65716 24.3272C6.58013 24.2954 6.51014 24.2487 6.45121 24.1898C6.39229 24.1308 6.34559 24.0609 6.3138 23.9838C6.28202 23.9068 6.26577 23.8242 6.26599 23.7409V12.4432C6.26599 12.275 6.3328 12.1137 6.45171 11.9948C6.57063 11.8759 6.73191 11.8091 6.90008 11.8091H9.59497C9.76285 11.8095 9.92369 11.8765 10.0422 11.9954C10.1608 12.1143 10.2274 12.2753 10.2274 12.4432Z" fill="white"/>
<path d="M24.3137 18.3239V23.792C24.3139 23.8687 24.299 23.9446 24.2698 24.0154C24.2405 24.0862 24.1976 24.1506 24.1434 24.2048C24.0893 24.2589 24.0249 24.3019 23.9541 24.3311C23.8832 24.3603 23.8073 24.3752 23.7307 24.375H20.833C20.7564 24.3752 20.6805 24.3603 20.6096 24.3311C20.5388 24.3019 20.4745 24.2589 20.4203 24.2048C20.3661 24.1506 20.3232 24.0862 20.2939 24.0154C20.2647 23.9446 20.2498 23.8687 20.25 23.792V18.4926C20.25 17.7017 20.4819 15.029 18.1824 15.029C16.4012 15.029 16.0381 16.8579 15.9665 17.6795V23.792C15.9665 23.9452 15.9063 24.0922 15.7988 24.2013C15.6913 24.3103 15.5452 24.3728 15.3921 24.375H12.5932C12.5167 24.375 12.441 24.3599 12.3704 24.3306C12.2998 24.3013 12.2356 24.2583 12.1816 24.2041C12.1276 24.15 12.0848 24.0857 12.0557 24.015C12.0266 23.9443 12.0117 23.8685 12.012 23.792V12.3937C12.0117 12.3173 12.0266 12.2415 12.0557 12.1708C12.0848 12.1001 12.1276 12.0358 12.1816 11.9816C12.2356 11.9275 12.2998 11.8845 12.3704 11.8552C12.441 11.8259 12.5167 11.8108 12.5932 11.8108H15.3921C15.5467 11.8108 15.695 11.8722 15.8043 11.9815C15.9136 12.0909 15.975 12.2391 15.975 12.3937V13.379C16.6364 12.3869 17.6165 11.6216 19.708 11.6216C24.3409 11.6216 24.3137 15.9477 24.3137 18.3239Z" fill="white"/>
</g>
<defs>
<clipPath id="clip0_5437_12451">
<rect width="30" height="30" fill="white"/>
</clipPath>
</defs>
</svg>
