<svg width="24" height="24" viewBox="0 0 24 24" fill="none" xmlns="http://www.w3.org/2000/svg">
<path fill-rule="evenodd" clip-rule="evenodd" d="M12 0C12.5098 0 12.9231 0.41328 12.9231 0.923077V6.74153C12.9231 7.25132 12.5098 7.6646 12 7.6646C11.4902 7.6646 11.0769 7.25132 11.0769 6.74153V0.923077C11.0769 0.41328 11.4902 0 12 0ZM19.1856 3.17388C19.5493 2.81658 20.1337 2.82171 20.491 3.18534C22.168 4.89204 23.3082 7.06455 23.77 9.42731C24.2318 11.79 23.995 14.2391 23.0887 16.4657C22.1824 18.6924 20.6467 20.5983 18.6731 21.9403C16.6993 23.2826 14.377 24 12 24C9.62302 24 7.30072 23.2826 5.32694 21.9403C3.35337 20.5983 1.81757 18.6924 0.91129 16.4657C0.00507413 14.2391 -0.2318 11.79 0.229985 9.42734C0.691782 7.06458 1.83203 4.89206 3.509 3.18535C3.8663 2.82172 4.45075 2.81659 4.81438 3.1739C5.17802 3.53119 5.18315 4.11563 4.82585 4.47927C3.40456 5.92575 2.43487 7.77063 2.04186 9.78142C1.64883 11.7924 1.85069 13.8766 2.62125 15.7698C3.39174 17.6629 4.69547 19.2784 6.36507 20.4138C8.03448 21.5489 9.99545 22.1538 12 22.1538C14.0046 22.1538 15.9655 21.5489 17.635 20.4138C19.3045 19.2784 20.6082 17.6629 21.3787 15.7698C22.1493 13.8766 22.3511 11.7924 21.9582 9.78142C21.5652 7.77062 20.5955 5.92574 19.1742 4.47925C18.8169 4.11562 18.822 3.53119 19.1856 3.17388Z" fill="#00D37F"/>
</svg>
