<svg width="33" height="33" viewBox="0 0 33 48" fill="none" xmlns="http://www.w3.org/2000/svg">
<path d="M40.9573 22.674C40.9573 22.674 40.1179 14.6542 39.733 11.1871C39.3979 8.30831 37.573 7.1668 36.6873 6.76721C35.6731 6.32044 34.5468 6.19339 33.4585 6.40299C32.3703 6.61259 31.3717 7.14888 30.596 7.94039L24.2038 14.0317C24.2038 14.0317 16.6445 6.79279 14.1897 4.35505C13.5367 3.69238 12.7281 3.2039 11.8376 2.93427C10.9472 2.66463 10.0034 2.62243 9.0925 2.81152C6.96907 3.27568 5.60097 4.76926 4.92483 7.60903C4.89925 7.76131 0.660919 26.687 0.245492 28.4291C-0.169934 30.1712 -0.247903 32.8538 1.56974 34.3791C3.38739 35.9043 6.1772 36.751 8.95605 34.2926C9.86 33.4398 24.2038 19.654 24.2038 19.654L31.7339 27.072C34.3799 29.6815 37.1332 28.9298 38.6987 27.8748C39.867 27.0439 41.2412 25.604 40.9573 22.674ZM6.17111 31.4175C5.1965 32.3921 3.62616 31.4175 3.98677 30.0494C4.21337 28.9444 8.61616 9.42789 8.93169 7.94405C9.24722 6.46021 10.5666 6.42853 11.3365 7.18142C11.8043 7.64923 21.2142 16.8751 21.2142 16.8751C21.2142 16.8751 7.25049 30.3881 6.17111 31.4175ZM34.7223 24.3589C33.4955 23.1699 27.0472 16.8532 27.0472 16.8532C27.0472 16.8532 32.9375 11.2419 33.5284 10.6522C34.1192 10.0626 35.6116 10.1649 35.748 11.4295C35.8845 12.694 36.9797 22.5559 37.0443 23.3684C37.1088 24.181 35.9576 25.5528 34.7296 24.3589H34.7223Z" fill="url(#paint0_linear_4196_11317)"/>
<defs>
<linearGradient id="paint0_linear_4196_11317" x1="8.33718" y1="38.8745" x2="33.7793" y2="-1.16732" gradientUnits="userSpaceOnUse">
<stop offset="0.09" stop-color="#CDDC29"/>
<stop offset="0.96" stop-color="#4ABA7A"/>
</linearGradient>
<linearGradient id="paint1_linear_4196_11317" x1="110.202" y1="28.8657" x2="131.678" y2="14.8399" gradientUnits="userSpaceOnUse">
<stop offset="0.09" stop-color="#CDDC29"/>
<stop offset="0.96" stop-color="#4ABA7A"/>
</linearGradient>
</defs>
</svg>
