<svg width="26" height="26" viewBox="0 0 26 26" fill="none" xmlns="http://www.w3.org/2000/svg">
<path fill-rule="evenodd" clip-rule="evenodd" d="M17.583 11.2043C18.2993 9.46486 16.5598 7.7254 14.8204 8.44164L11.5833 9.7746C10.7633 10.1122 10.1121 10.7634 9.7744 11.5834L8.44146 14.8206C7.72521 16.5601 9.46465 18.2995 11.2041 17.5832L14.4413 16.2503C15.2613 15.9127 15.9125 15.2615 16.2501 14.4415L17.583 11.2043ZM15.5111 10.119C15.7596 10.0166 16.008 10.2651 15.9057 10.5136L14.5728 13.7508C14.4194 14.1235 14.1233 14.4195 13.7506 14.573L10.5134 15.9059C10.265 16.0082 10.0165 15.7597 10.1188 15.5112L11.4517 12.2742C11.6052 11.9013 11.9012 11.6054 12.2739 11.452L15.5111 10.119Z" fill="#ffffff"/>
<path fill-rule="evenodd" clip-rule="evenodd" d="M13 0C5.8203 0 0 5.8203 0 13C0 20.1797 5.8203 26 13 26C20.1797 26 26 20.1797 26 13C26 5.8203 20.1797 0 13 0ZM1.81395 13C1.81395 6.82212 6.82212 1.81395 13 1.81395C19.1778 1.81395 24.186 6.82212 24.186 13C24.186 19.1778 19.1778 24.186 13 24.186C6.82212 24.186 1.81395 19.1778 1.81395 13Z" fill="#ffffff"/>
</svg>
