<svg width="22" height="22" viewBox="0 0 22 22" fill="none" xmlns="http://www.w3.org/2000/svg">
<g clip-path="url(#clip0_4003_12670)">
<path d="M21.0836 10.084H19.2503V8.25065C19.2503 8.00753 19.1537 7.77438 18.9818 7.60247C18.8099 7.43056 18.5768 7.33398 18.3337 7.33398C18.0905 7.33398 17.8574 7.43056 17.6855 7.60247C17.5136 7.77438 17.417 8.00753 17.417 8.25065V10.084H15.5837C15.3405 10.084 15.1074 10.1806 14.9355 10.3525C14.7636 10.5244 14.667 10.7575 14.667 11.0006C14.667 11.2438 14.7636 11.4769 14.9355 11.6488C15.1074 11.8207 15.3405 11.9173 15.5837 11.9173H17.417V13.7506C17.417 13.9938 17.5136 14.2269 17.6855 14.3988C17.8574 14.5707 18.0905 14.6673 18.3337 14.6673C18.5768 14.6673 18.8099 14.5707 18.9818 14.3988C19.1537 14.2269 19.2503 13.9938 19.2503 13.7506V11.9173H21.0836C21.3268 11.9173 21.5599 11.8207 21.7318 11.6488C21.9037 11.4769 22.0003 11.2438 22.0003 11.0006C22.0003 10.7575 21.9037 10.5244 21.7318 10.3525C21.5599 10.1806 21.3268 10.084 21.0836 10.084Z" fill="#00D37F"/>
<path d="M8.25 11C9.3378 11 10.4012 10.6774 11.3056 10.0731C12.2101 9.46874 12.9151 8.60976 13.3313 7.60476C13.7476 6.59977 13.8565 5.4939 13.6443 4.42701C13.4321 3.36011 12.9083 2.3801 12.1391 1.61092C11.3699 0.841726 10.3899 0.317902 9.323 0.105683C8.2561 -0.106535 7.15023 0.00238307 6.14524 0.418665C5.14025 0.834947 4.28126 1.5399 3.67692 2.44437C3.07257 3.34884 2.75 4.41221 2.75 5.5C2.75146 6.95825 3.33139 8.35635 4.36252 9.38748C5.39366 10.4186 6.79176 10.9985 8.25 11ZM8.25 1.83334C8.9752 1.83334 9.68411 2.04838 10.2871 2.45128C10.8901 2.85418 11.36 3.42683 11.6376 4.09683C11.9151 4.76683 11.9877 5.50407 11.8462 6.21533C11.7047 6.9266 11.3555 7.57994 10.8427 8.09273C10.3299 8.60552 9.67659 8.95474 8.96533 9.09622C8.25407 9.23769 7.51682 9.16508 6.84683 8.88756C6.17683 8.61004 5.60418 8.14007 5.20128 7.53709C4.79838 6.93411 4.58333 6.2252 4.58333 5.5C4.58333 4.52754 4.96964 3.59491 5.65727 2.90728C6.34491 2.21964 7.27754 1.83334 8.25 1.83334Z" fill="#00D37F"/>
<path d="M8.25 12.834C6.06271 12.8364 3.9657 13.7064 2.41905 15.253C0.872399 16.7997 0.00242628 18.8967 0 21.084C0 21.3271 0.0965771 21.5603 0.268485 21.7322C0.440394 21.9041 0.673552 22.0007 0.916667 22.0007C1.15978 22.0007 1.39294 21.9041 1.56485 21.7322C1.73676 21.5603 1.83333 21.3271 1.83333 21.084C1.83333 19.3822 2.50937 17.7501 3.71273 16.5467C4.91609 15.3434 6.54819 14.6673 8.25 14.6673C9.95181 14.6673 11.5839 15.3434 12.7873 16.5467C13.9906 17.7501 14.6667 19.3822 14.6667 21.084C14.6667 21.3271 14.7632 21.5603 14.9352 21.7322C15.1071 21.9041 15.3402 22.0007 15.5833 22.0007C15.8264 22.0007 16.0596 21.9041 16.2315 21.7322C16.4034 21.5603 16.5 21.3271 16.5 21.084C16.4976 18.8967 15.6276 16.7997 14.081 15.253C12.5343 13.7064 10.4373 12.8364 8.25 12.834Z" fill="#00D37F"/>
</g>
<defs>
<clipPath id="clip0_4003_12670">
<rect width="22" height="22" fill="white"/>
</clipPath>
</defs>
</svg>
