<svg width="26" height="26" viewBox="0 0 26 26" fill="none" xmlns="http://www.w3.org/2000/svg">
<path fill-rule="evenodd" clip-rule="evenodd" d="M7.27312 0.030859C6.82056 -1.41191e-05 6.2693 -1.42263e-05 5.60897 6.30858e-07H5.53391C4.87357 -1.42263e-05 4.32231 -1.41191e-05 3.86975 0.030859C3.39863 0.0630099 2.95362 0.132304 2.52218 0.311005C1.52106 0.725683 0.725683 1.52106 0.311005 2.52218C0.132304 2.95362 0.0630099 3.39863 0.030859 3.86975C-1.41191e-05 4.32231 -1.42263e-05 4.87356 6.30858e-07 5.5339V5.60894C-1.42263e-05 6.26928 -1.41191e-05 6.82056 0.030859 7.27312C0.0630099 7.74424 0.132304 8.18924 0.311005 8.62068C0.725683 9.6218 1.52106 10.4172 2.52218 10.8319C2.95362 11.0106 3.39863 11.0799 3.86975 11.112C4.32231 11.1429 4.87356 11.1429 5.5339 11.1429H5.60896C6.2693 11.1429 6.82054 11.1429 7.27312 11.112C7.74424 11.0799 8.18924 11.0106 8.62068 10.8319C9.6218 10.4172 10.4172 9.6218 10.8319 8.62068C11.0106 8.18924 11.0799 7.74424 11.112 7.27312C11.1429 6.82054 11.1429 6.2693 11.1429 5.60896V5.5339C11.1429 4.87356 11.1429 4.32231 11.112 3.86975C11.0799 3.39863 11.0106 2.95362 10.8319 2.52218C10.4172 1.52106 9.6218 0.725683 8.62068 0.311005C8.18924 0.132304 7.74424 0.0630099 7.27312 0.030859ZM3.37502 2.36994C3.48965 2.32245 3.6638 2.27867 4.02144 2.25426C4.38911 2.22918 4.86393 2.22857 5.57143 2.22857C6.27893 2.22857 6.75376 2.22918 7.12141 2.25426C7.47907 2.27867 7.65321 2.32245 7.76785 2.36994C8.22289 2.55843 8.58443 2.91996 8.77292 3.37502C8.8204 3.48965 8.8642 3.6638 8.8886 4.02144C8.91368 4.38911 8.91429 4.86393 8.91429 5.57143C8.91429 6.27893 8.91368 6.75376 8.8886 7.12141C8.8642 7.47907 8.8204 7.65321 8.77292 7.76785C8.58443 8.22289 8.22289 8.58443 7.76785 8.77292C7.65321 8.8204 7.47907 8.8642 7.12141 8.8886C6.75376 8.91368 6.27893 8.91429 5.57143 8.91429C4.86393 8.91429 4.38911 8.91368 4.02144 8.8886C3.6638 8.8642 3.48965 8.8204 3.37502 8.77292C2.91996 8.58443 2.55843 8.22289 2.36994 7.76785C2.32245 7.65321 2.27867 7.47907 2.25426 7.12141C2.22918 6.75376 2.22857 6.27893 2.22857 5.57143C2.22857 4.86393 2.22918 4.38911 2.25426 4.02144C2.27867 3.6638 2.32245 3.48965 2.36994 3.37502C2.55843 2.91996 2.91996 2.55843 3.37502 2.36994Z" fill="white"/>
<path fill-rule="evenodd" clip-rule="evenodd" d="M22.1303 0.030859C21.6777 -1.41191e-05 21.1264 -1.42263e-05 20.4661 6.30858e-07H20.3911C19.7307 -1.42263e-05 19.1794 -1.41191e-05 18.7268 0.030859C18.2557 0.0630099 17.8107 0.132304 17.3793 0.311005C16.3782 0.725683 15.5827 1.52106 15.1681 2.52218C14.9893 2.95362 14.9201 3.39863 14.888 3.86975C14.8571 4.32231 14.8571 4.87356 14.8571 5.5339V5.60896C14.8571 6.2693 14.8571 6.82054 14.888 7.27312C14.9201 7.74424 14.9893 8.18924 15.1681 8.62068C15.5827 9.6218 16.3782 10.4172 17.3793 10.8319C17.8107 11.0106 18.2557 11.0799 18.7268 11.112C19.1794 11.1429 19.7307 11.1429 20.391 11.1429H20.4661C21.1264 11.1429 21.6777 11.1429 22.1303 11.112C22.6014 11.0799 23.0464 11.0106 23.4778 10.8319C24.4789 10.4172 25.2744 9.6218 25.689 8.62068C25.8677 8.18924 25.937 7.74424 25.9691 7.27312C26 6.82054 26 6.2693 26 5.60896V5.5339C26 4.87356 26 4.32231 25.9691 3.86975C25.937 3.39863 25.8677 2.95362 25.689 2.52218C25.2744 1.52106 24.4789 0.725683 23.4778 0.311005C23.0464 0.132304 22.6014 0.0630099 22.1303 0.030859ZM18.2321 2.36994C18.3468 2.32245 18.5209 2.27867 18.8785 2.25426C19.2462 2.22918 19.721 2.22857 20.4285 2.22857C21.136 2.22857 21.6109 2.22918 21.9786 2.25426C22.3362 2.27867 22.5103 2.32245 22.625 2.36994C23.0799 2.55843 23.4416 2.91996 23.6301 3.37502C23.6775 3.48965 23.7213 3.6638 23.7457 4.02144C23.7708 4.38911 23.7714 4.86393 23.7714 5.57143C23.7714 6.27893 23.7708 6.75376 23.7457 7.12141C23.7213 7.47907 23.6775 7.65321 23.6301 7.76785C23.4416 8.22289 23.0799 8.58443 22.625 8.77292C22.5103 8.8204 22.3362 8.8642 21.9786 8.8886C21.6109 8.91368 21.136 8.91429 20.4285 8.91429C19.721 8.91429 19.2462 8.91368 18.8785 8.8886C18.5209 8.8642 18.3468 8.8204 18.2321 8.77292C17.7771 8.58443 17.4155 8.22289 17.2271 7.76785C17.1796 7.65321 17.1358 7.47907 17.1114 7.12141C17.0863 6.75376 17.0857 6.27893 17.0857 5.57143C17.0857 4.86393 17.0863 4.38911 17.1114 4.02144C17.1358 3.6638 17.1796 3.48965 17.2271 3.37502C17.4155 2.91996 17.7771 2.55843 18.2321 2.36994Z" fill="white"/>
<path fill-rule="evenodd" clip-rule="evenodd" d="M7.27312 14.8881C6.82054 14.8572 6.2693 14.8572 5.60896 14.8572H5.5339C4.87356 14.8572 4.32231 14.8572 3.86975 14.8881C3.39863 14.9202 2.95362 14.9894 2.52218 15.1681C1.52106 15.5828 0.725683 16.3783 0.311005 17.3793C0.132304 17.8108 0.0630099 18.2557 0.030859 18.7269C-1.41191e-05 19.1794 -1.42263e-05 19.7308 6.30858e-07 20.391V20.4662C-1.42263e-05 21.1264 -1.41191e-05 21.6778 0.030859 22.1303C0.0630099 22.6015 0.132304 23.0464 0.311005 23.4779C0.725683 24.479 1.52106 25.2744 2.52218 25.6891C2.95362 25.8678 3.39863 25.937 3.86975 25.9691C4.32231 26 4.87356 26 5.5339 26H5.60896C6.2693 26 6.82054 26 7.27312 25.9691C7.74424 25.937 8.18924 25.8678 8.62068 25.6891C9.6218 25.2744 10.4172 24.479 10.8319 23.4779C11.0106 23.0464 11.0799 22.6015 11.112 22.1303C11.1429 21.6778 11.1429 21.1264 11.1429 20.4662V20.391C11.1429 19.7308 11.1429 19.1794 11.112 18.7269C11.0799 18.2557 11.0106 17.8108 10.8319 17.3793C10.4172 16.3783 9.6218 15.5828 8.62068 15.1681C8.18924 14.9894 7.74424 14.9202 7.27312 14.8881ZM3.37502 17.2272C3.48965 17.1796 3.6638 17.1358 4.02144 17.1115C4.38911 17.0863 4.86393 17.0857 5.57143 17.0857C6.27893 17.0857 6.75376 17.0863 7.12141 17.1115C7.47907 17.1358 7.65321 17.1796 7.76785 17.2272C8.22289 17.4156 8.58443 17.7772 8.77292 18.2321C8.8204 18.3468 8.8642 18.5209 8.8886 18.8786C8.91368 19.2463 8.91429 19.7211 8.91429 20.4286C8.91429 21.1361 8.91368 21.6109 8.8886 21.9787C8.8642 22.3363 8.8204 22.5104 8.77292 22.6251C8.58443 23.08 8.22289 23.4416 7.76785 23.6302C7.65321 23.6776 7.47907 23.7214 7.12141 23.7458C6.75376 23.7709 6.27893 23.7715 5.57143 23.7715C4.86393 23.7715 4.38911 23.7709 4.02144 23.7458C3.6638 23.7214 3.48965 23.6776 3.37502 23.6302C2.91996 23.4416 2.55843 23.08 2.36994 22.6251C2.32245 22.5104 2.27867 22.3363 2.25426 21.9787C2.22918 21.6109 2.22857 21.1361 2.22857 20.4286C2.22857 19.7211 2.22918 19.2463 2.25426 18.8786C2.27867 18.5209 2.32245 18.3468 2.36994 18.2321C2.55843 17.7772 2.91996 17.4156 3.37502 17.2272Z" fill="white"/>
<path fill-rule="evenodd" clip-rule="evenodd" d="M22.1303 14.8881C21.6777 14.8572 21.1264 14.8572 20.4661 14.8572H20.391C19.7307 14.8572 19.1794 14.8572 18.7268 14.8881C18.2557 14.9202 17.8107 14.9894 17.3793 15.1681C16.3782 15.5828 15.5827 16.3783 15.1681 17.3793C14.9893 17.8108 14.9201 18.2557 14.888 18.7269C14.8571 19.1794 14.8571 19.7308 14.8571 20.391V20.4662C14.8571 21.1264 14.8571 21.6778 14.888 22.1303C14.9201 22.6015 14.9893 23.0464 15.1681 23.4779C15.5827 24.479 16.3782 25.2744 17.3793 25.6891C17.8107 25.8678 18.2557 25.937 18.7268 25.9691C19.1794 26 19.7307 26 20.391 26H20.4661C21.1264 26 21.6777 26 22.1303 25.9691C22.6014 25.937 23.0464 25.8678 23.4778 25.6891C24.4789 25.2744 25.2744 24.479 25.689 23.4779C25.8677 23.0464 25.937 22.6015 25.9691 22.1303C26 21.6778 26 21.1264 26 20.4662V20.391C26 19.7308 26 19.1794 25.9691 18.7269C25.937 18.2557 25.8677 17.8108 25.689 17.3793C25.2744 16.3783 24.4789 15.5828 23.4778 15.1681C23.0464 14.9894 22.6014 14.9202 22.1303 14.8881ZM18.2321 17.2272C18.3468 17.1796 18.5209 17.1358 18.8785 17.1115C19.2462 17.0863 19.721 17.0857 20.4285 17.0857C21.136 17.0857 21.6109 17.0863 21.9786 17.1115C22.3362 17.1358 22.5103 17.1796 22.625 17.2272C23.0799 17.4156 23.4416 17.7772 23.6301 18.2321C23.6775 18.3468 23.7213 18.5209 23.7457 18.8786C23.7708 19.2463 23.7714 19.7211 23.7714 20.4286C23.7714 21.1361 23.7708 21.6109 23.7457 21.9787C23.7213 22.3363 23.6775 22.5104 23.6301 22.6251C23.4416 23.08 23.0799 23.4416 22.625 23.6302C22.5103 23.6776 22.3362 23.7214 21.9786 23.7458C21.6109 23.7709 21.136 23.7715 20.4285 23.7715C19.721 23.7715 19.2462 23.7709 18.8785 23.7458C18.5209 23.7214 18.3468 23.6776 18.2321 23.6302C17.7771 23.4416 17.4155 23.08 17.2271 22.6251C17.1796 22.5104 17.1358 22.3363 17.1114 21.9787C17.0863 21.6109 17.0857 21.1361 17.0857 20.4286C17.0857 19.7211 17.0863 19.2463 17.1114 18.8786C17.1358 18.5209 17.1796 18.3468 17.2271 18.2321C17.4155 17.7772 17.7771 17.4156 18.2321 17.2272Z" fill="white"/>
</svg>
