<svg width="22" height="22" viewBox="0 0 22 22" fill="none" xmlns="http://www.w3.org/2000/svg">
<path d="M17.4167 0H4.58333C3.3682 0.00145554 2.20326 0.484808 1.34403 1.34403C0.484808 2.20326 0.00145554 3.3682 0 4.58333L0 17.4167C0.00145554 18.6318 0.484808 19.7967 1.34403 20.656C2.20326 21.5152 3.3682 21.9985 4.58333 22H17.4167C18.6318 21.9985 19.7967 21.5152 20.656 20.656C21.5152 19.7967 21.9985 18.6318 22 17.4167V4.58333C21.9985 3.3682 21.5152 2.20326 20.656 1.34403C19.7967 0.484808 18.6318 0.00145554 17.4167 0V0ZM20.1667 4.58333H13.75V1.83333H17.4167C18.146 1.83333 18.8455 2.12306 19.3612 2.63879C19.8769 3.15451 20.1667 3.85399 20.1667 4.58333ZM10.0833 1.83333H11.9167V6.41667C11.9167 6.65978 11.8201 6.89294 11.6482 7.06485C11.4763 7.23676 11.2431 7.33333 11 7.33333C10.7569 7.33333 10.5237 7.23676 10.3518 7.06485C10.1799 6.89294 10.0833 6.65978 10.0833 6.41667V1.83333ZM4.58333 1.83333H8.25V4.58333H1.83333C1.83333 3.85399 2.12306 3.15451 2.63879 2.63879C3.15451 2.12306 3.85399 1.83333 4.58333 1.83333ZM17.4167 20.1667H4.58333C3.85399 20.1667 3.15451 19.8769 2.63879 19.3612C2.12306 18.8455 1.83333 18.146 1.83333 17.4167V6.41667H8.25C8.25 7.14601 8.53973 7.84549 9.05546 8.36121C9.57118 8.87694 10.2707 9.16667 11 9.16667C11.7293 9.16667 12.4288 8.87694 12.9445 8.36121C13.4603 7.84549 13.75 7.14601 13.75 6.41667H20.1667V17.4167C20.1667 18.146 19.8769 18.8455 19.3612 19.3612C18.8455 19.8769 18.146 20.1667 17.4167 20.1667ZM18.3333 17.4167C18.3333 17.6598 18.2368 17.8929 18.0648 18.0648C17.8929 18.2368 17.6598 18.3333 17.4167 18.3333H14.6667C14.4236 18.3333 14.1904 18.2368 14.0185 18.0648C13.8466 17.8929 13.75 17.6598 13.75 17.4167C13.75 17.1736 13.8466 16.9404 14.0185 16.7685C14.1904 16.5966 14.4236 16.5 14.6667 16.5H17.4167C17.6598 16.5 17.8929 16.5966 18.0648 16.7685C18.2368 16.9404 18.3333 17.1736 18.3333 17.4167Z" fill="#00D37F"/>
</svg>
