<svg width="24" height="24" viewBox="0 0 24 24" fill="none" xmlns="http://www.w3.org/2000/svg">
<rect width="24" height="24" rx="2" fill="#69CAD7"/>
<path d="M16.8438 12.9346V11.0596C16.8438 10.8232 16.6677 10.6238 16.4331 10.5944L15.6289 10.4939L16.1265 9.85413C16.2717 9.66754 16.2551 9.40204 16.0879 9.23492L14.7621 7.9091C14.595 7.74195 14.3295 7.72545 14.1429 7.87054L13.5032 8.36813L13.4026 7.56395C13.3733 7.32935 13.1739 7.15332 12.9375 7.15332H11.0625C10.8261 7.15332 10.6267 7.32935 10.5974 7.56395L10.4968 8.36813L9.8571 7.87054C9.67053 7.72548 9.40503 7.74195 9.23788 7.9091L7.91206 9.23492C7.74491 9.40207 7.72838 9.66757 7.8735 9.85413L8.37109 10.4939L7.56688 10.5944C7.33228 10.6238 7.15625 10.8232 7.15625 11.0596V12.9346C7.15625 13.1709 7.33228 13.3704 7.56688 13.3997L8.37109 13.5002L7.8735 14.14C7.72834 14.3266 7.74488 14.592 7.91206 14.7592L9.23788 16.085C9.4051 16.2522 9.67056 16.2688 9.85713 16.1236L10.4969 15.626L10.5974 16.4302C10.6267 16.6648 10.8261 16.8408 11.0625 16.8408H12.9375C13.1739 16.8408 13.3733 16.6648 13.4026 16.4302L13.5032 15.626L14.1429 16.1236C14.3295 16.2687 14.595 16.2522 14.7622 16.085L16.088 14.7592C16.2551 14.592 16.2717 14.3265 16.1265 14.14L15.6289 13.5002L16.4331 13.3997C16.6677 13.3704 16.8438 13.171 16.8438 12.9346ZM15.9063 12.5208L15.2049 12.6084C15.0253 12.6309 14.8746 12.7548 14.8179 12.9268C14.7738 13.0606 14.717 13.1965 14.6492 13.3309C14.5675 13.4926 14.5864 13.6869 14.6976 13.8299L15.1324 14.3889L14.3918 15.1296L13.8328 14.6948C13.6898 14.5835 13.4955 14.5647 13.3338 14.6463C13.1995 14.7141 13.0635 14.7709 12.9296 14.815C12.7577 14.8717 12.6338 15.0224 12.6113 15.202L12.5237 15.9033H11.4763L11.3886 15.202C11.3662 15.0224 11.2423 14.8717 11.0703 14.815C10.9365 14.7708 10.8005 14.7141 10.6662 14.6463C10.5044 14.5646 10.3102 14.5835 10.1672 14.6948L9.60816 15.1295L8.86756 14.3889L9.30238 13.8299C9.41359 13.6869 9.43247 13.4926 9.35081 13.3309C9.28297 13.1964 9.22619 13.0605 9.18209 12.9267C9.12541 12.7548 8.97472 12.6309 8.79506 12.6084L8.09375 12.5208V11.4734L8.79506 11.3857C8.97472 11.3633 9.12538 11.2393 9.18209 11.0674C9.22619 10.9337 9.28297 10.7977 9.35085 10.6632C9.43247 10.5014 9.41359 10.3072 9.30238 10.1642L8.86756 9.60517L9.60816 8.86457L10.1672 9.29935C10.3102 9.41063 10.5044 9.42945 10.6662 9.34782C10.8005 9.28004 10.9364 9.22329 11.0703 9.17913C11.2423 9.12242 11.3662 8.97176 11.3886 8.7921L11.4763 8.09082H12.5237L12.6114 8.79213C12.6338 8.97179 12.7578 9.12242 12.9297 9.17917C13.0635 9.22332 13.1995 9.28007 13.3338 9.34785C13.4955 9.42945 13.6898 9.4106 13.8328 9.29942L14.3919 8.8646L15.1325 9.6052L14.6977 10.1642C14.5864 10.3072 14.5676 10.5015 14.6492 10.6632C14.717 10.7976 14.7738 10.9336 14.8179 11.0674C14.8746 11.2394 15.0253 11.3633 15.205 11.3857L15.9063 11.4734V12.5208Z" fill="#1D1D1D"/>
<path d="M12 9.96582C10.88 9.96582 9.96875 10.877 9.96875 11.9971C9.96875 13.1171 10.88 14.0283 12 14.0283C13.12 14.0283 14.0313 13.1171 14.0313 11.9971C14.0313 10.877 13.12 9.96582 12 9.96582ZM12 13.0908C11.3969 13.0908 10.9063 12.6002 10.9063 11.9971C10.9063 11.394 11.3969 10.9033 12 10.9033C12.6031 10.9033 13.0938 11.394 13.0938 11.9971C13.0938 12.6002 12.6031 13.0908 12 13.0908Z" fill="#1D1D1D"/>
<path d="M18.8901 7.93349C18.7585 7.71068 18.4712 7.63671 18.2484 7.7683C18.0255 7.8999 17.9516 8.18724 18.0832 8.41005C19.7202 11.1817 19.2715 14.7094 16.9922 16.9888C14.4524 19.5285 10.4431 19.7249 7.67607 17.578L8.76626 17.3357C9.01888 17.2796 9.17817 17.0293 9.12204 16.7767C9.06592 16.524 8.81563 16.3646 8.56298 16.4209L6.57495 16.8627C6.36054 16.9103 6.20801 17.1004 6.20801 17.3201V19.3081C6.20801 19.5668 6.41779 19.7767 6.6766 19.7767C6.93538 19.7767 7.1452 19.5669 7.1452 19.3081V18.3524C8.53273 19.4168 10.222 19.9937 12.0001 19.9937C14.1362 19.9937 16.1444 19.1619 17.6549 17.6514C20.2366 15.0696 20.7446 11.0735 18.8901 7.93349Z" fill="#1D1D1D"/>
<path d="M7.00787 7.00497C9.54762 4.46522 13.5569 4.26888 16.324 6.41575L15.2338 6.65803C14.9812 6.71416 14.8219 6.96447 14.878 7.2171C14.9265 7.4355 15.1202 7.58413 15.335 7.58413C15.3686 7.58413 15.4028 7.5805 15.4371 7.57288L17.4251 7.1311C17.6395 7.08344 17.792 6.89328 17.792 6.67369V4.68559C17.792 4.42681 17.5823 4.217 17.3234 4.217C17.0647 4.217 16.8548 4.42678 16.8548 4.68559V5.64122C15.4673 4.57684 13.7781 4 12 4C9.8639 4 7.85565 4.83181 6.34521 6.34228C3.7634 8.9241 3.25543 12.9203 5.1099 16.0603C5.19734 16.2083 5.3535 16.2906 5.51381 16.2906C5.59481 16.2906 5.67687 16.2696 5.75165 16.2254C5.9745 16.0939 6.04843 15.8065 5.91684 15.5837C4.27987 12.812 4.72853 9.28432 7.00787 7.00497Z" fill="#1D1D1D"/>
</svg>
