<svg width="16" height="16" viewBox="0 0 16 16" fill="none" xmlns="http://www.w3.org/2000/svg">
<path d="M12.8438 8.93457V7.05957C12.8438 6.8232 12.6677 6.62376 12.4331 6.59445L11.6289 6.49392L12.1265 5.85413C12.2717 5.66754 12.2551 5.40204 12.0879 5.23492L10.7621 3.9091C10.595 3.74195 10.3295 3.72545 10.1429 3.87054L9.50316 4.36813L9.40263 3.56395C9.37332 3.32935 9.17391 3.15332 8.9375 3.15332H7.0625C6.8261 3.15332 6.62669 3.32935 6.59738 3.56395L6.49685 4.36813L5.8571 3.87054C5.67053 3.72548 5.40503 3.74195 5.23788 3.9091L3.91206 5.23492C3.74491 5.40207 3.72838 5.66757 3.8735 5.85413L4.37109 6.49392L3.56688 6.59445C3.33228 6.62376 3.15625 6.8232 3.15625 7.05957V8.93457C3.15625 9.17095 3.33228 9.37039 3.56688 9.3997L4.37109 9.50023L3.8735 10.14C3.72834 10.3266 3.74488 10.592 3.91206 10.7592L5.23788 12.085C5.4051 12.2522 5.67056 12.2688 5.85713 12.1236L6.49688 11.626L6.59741 12.4302C6.62669 12.6648 6.8261 12.8408 7.0625 12.8408H8.9375C9.17391 12.8408 9.37332 12.6648 9.40263 12.4302L9.50316 11.626L10.1429 12.1236C10.3295 12.2687 10.595 12.2522 10.7622 12.085L12.088 10.7592C12.2551 10.592 12.2717 10.3265 12.1265 10.14L11.6289 9.50023L12.4331 9.3997C12.6677 9.37039 12.8438 9.17098 12.8438 8.93457ZM11.9063 8.52076L11.2049 8.60845C11.0253 8.63089 10.8746 8.75482 10.8179 8.92676C10.7738 9.06057 10.717 9.19654 10.6492 9.33086C10.5675 9.49261 10.5864 9.68692 10.6976 9.82992L11.1324 10.3889L10.3918 11.1296L9.83278 10.6948C9.68978 10.5835 9.49553 10.5647 9.33379 10.6463C9.1995 10.7141 9.06353 10.7709 8.92963 10.815C8.75772 10.8717 8.63382 11.0224 8.61135 11.202L8.52369 11.9033H7.47628L7.38863 11.202C7.36616 11.0224 7.24225 10.8717 7.07035 10.815C6.93647 10.7708 6.80047 10.7141 6.66619 10.6463C6.50444 10.5646 6.31016 10.5835 6.16719 10.6948L5.60816 11.1295L4.86756 10.3889L5.30238 9.82989C5.41359 9.68689 5.43247 9.49261 5.35081 9.33089C5.28297 9.19645 5.22619 9.06048 5.18209 8.92673C5.12541 8.75479 4.97472 8.63085 4.79506 8.60842L4.09375 8.52076V7.47339L4.79506 7.3857C4.97472 7.36326 5.12538 7.23932 5.18209 7.06739C5.22619 6.9337 5.28297 6.79767 5.35085 6.66317C5.43247 6.50145 5.41359 6.30717 5.30238 6.1642L4.86756 5.60517L5.60816 4.86457L6.16719 5.29935C6.31019 5.41063 6.50444 5.42945 6.66619 5.34782C6.80047 5.28004 6.93644 5.22329 7.07035 5.17913C7.24225 5.12242 7.36616 4.97176 7.38863 4.7921L7.47632 4.09082H8.52372L8.61138 4.79213C8.63385 4.97179 8.75775 5.12242 8.92966 5.17917C9.06353 5.22332 9.19953 5.28007 9.33382 5.34785C9.49554 5.42945 9.68982 5.4106 9.83282 5.29942L10.3919 4.8646L11.1325 5.6052L10.6977 6.16423C10.5864 6.3072 10.5676 6.50151 10.6492 6.66323C10.717 6.79764 10.7738 6.9336 10.8179 7.06742C10.8746 7.23935 11.0253 7.36329 11.205 7.38573L11.9063 7.47339V8.52076Z" fill="#26F0F1"/>
<path d="M8 5.96582C6.87997 5.96582 5.96875 6.87704 5.96875 7.99707C5.96875 9.1171 6.87997 10.0283 8 10.0283C9.12003 10.0283 10.0313 9.1171 10.0313 7.99707C10.0313 6.87704 9.12003 5.96582 8 5.96582ZM8 9.09082C7.39691 9.09082 6.90625 8.60017 6.90625 7.99707C6.90625 7.39398 7.39691 6.90332 8 6.90332C8.6031 6.90332 9.09375 7.39398 9.09375 7.99707C9.09375 8.60017 8.6031 9.09082 8 9.09082Z" fill="#26F0F1"/>
<path d="M14.8901 3.93349C14.7585 3.71068 14.4712 3.63671 14.2484 3.7683C14.0255 3.8999 13.9516 4.18724 14.0832 4.41005C15.7202 7.18171 15.2715 10.7094 12.9922 12.9888C10.4524 15.5285 6.44314 15.7249 3.67607 13.578L4.76626 13.3357C5.01888 13.2796 5.17817 13.0293 5.12204 12.7767C5.06592 12.524 4.81563 12.3646 4.56298 12.4209L2.57495 12.8627C2.36054 12.9103 2.20801 13.1004 2.20801 13.3201V15.3081C2.20801 15.5668 2.41779 15.7767 2.6766 15.7767C2.93538 15.7767 3.1452 15.5669 3.1452 15.3081V14.3524C4.53273 15.4168 6.22198 15.9937 8.00007 15.9937C10.1362 15.9937 12.1444 15.1619 13.6549 13.6514C16.2366 11.0696 16.7446 7.07346 14.8901 3.93349Z" fill="#26F0F1"/>
<path d="M3.00787 3.00497C5.54762 0.465219 9.55691 0.268875 12.324 2.41575L11.2338 2.65803C10.9812 2.71416 10.8219 2.96447 10.878 3.2171C10.9265 3.4355 11.1202 3.58413 11.335 3.58413C11.3686 3.58413 11.4028 3.5805 11.4371 3.57288L13.4251 3.1311C13.6395 3.08344 13.792 2.89328 13.792 2.67369V0.685594C13.792 0.426813 13.5823 0.217 13.3234 0.217C13.0647 0.217 12.8548 0.426782 12.8548 0.685594V1.64122C11.4673 0.576844 9.77809 0 8 0C5.8639 0 3.85565 0.831813 2.34521 2.34228C-0.236599 4.9241 -0.744569 8.92029 1.1099 12.0603C1.19734 12.2083 1.3535 12.2906 1.51381 12.2906C1.59481 12.2906 1.67687 12.2696 1.75165 12.2254C1.9745 12.0939 2.04843 11.8065 1.91684 11.5837C0.27987 8.81204 0.728526 5.28432 3.00787 3.00497Z" fill="#26F0F1"/>
</svg>
