<svg width="22" height="22" viewBox="0 0 22 22" fill="none" xmlns="http://www.w3.org/2000/svg">
<g clip-path="url(#clip0_5293_16364)">
<path d="M11.0001 3.66667C12.0126 3.66667 12.8334 2.84586 12.8334 1.83333C12.8334 0.820811 12.0126 0 11.0001 0C9.98756 0 9.16675 0.820811 9.16675 1.83333C9.16675 2.84586 9.98756 3.66667 11.0001 3.66667Z" fill="white"/>
<path d="M11.0001 12.8337C12.0126 12.8337 12.8334 12.0128 12.8334 11.0003C12.8334 9.9878 12.0126 9.16699 11.0001 9.16699C9.98756 9.16699 9.16675 9.9878 9.16675 11.0003C9.16675 12.0128 9.98756 12.8337 11.0001 12.8337Z" fill="white"/>
<path d="M11.0001 21.9997C12.0126 21.9997 12.8334 21.1789 12.8334 20.1664C12.8334 19.1538 12.0126 18.333 11.0001 18.333C9.98756 18.333 9.16675 19.1538 9.16675 20.1664C9.16675 21.1789 9.98756 21.9997 11.0001 21.9997Z" fill="white"/>
</g>
<defs>
<clipPath id="clip0_5293_16364">
<rect width="22" height="22" fill="white"/>
</clipPath>
</defs>
</svg>
