<svg width="21" height="24" viewBox="0 0 21 24" fill="none" xmlns="http://www.w3.org/2000/svg">
<path fill-rule="evenodd" clip-rule="evenodd" d="M10.1539 0C10.6636 0 11.0769 0.413281 11.0769 0.923078V1.27695C11.6821 1.33806 12.2819 1.46451 12.8644 1.65688C15.5907 2.55728 17.6755 4.7827 18.4058 7.5668L19.1283 10.3201L19.7073 12.9425C19.7584 13.1742 19.8212 13.43 19.8872 13.699C20.0238 14.2565 20.1742 14.8697 20.2632 15.4381C20.2926 15.6259 20.3077 15.8179 20.3077 16.0128C20.3077 17.7609 19.0816 19.272 17.3688 19.6211L16.9163 19.7133C16.1617 19.867 15.4033 19.9946 14.6422 20.0964C14.6351 20.1284 14.6275 20.1604 14.6197 20.1924L14.5188 20.6027C14.1206 22.2218 12.8548 23.485 11.235 23.8725C10.5242 24.0425 9.78352 24.0425 9.07275 23.8725C7.45292 23.485 6.1871 22.2218 5.78896 20.6026L5.68807 20.1924C5.68022 20.1604 5.67267 20.1285 5.66543 20.0964C4.90439 19.9946 4.14593 19.867 3.39135 19.7133L2.93892 19.6211C1.22604 19.272 0 17.7609 0 16.0128C0 15.8179 0.0151755 15.6259 0.0445786 15.4381C0.133539 14.8697 0.28389 14.2565 0.420591 13.699C0.486512 13.4302 0.549256 13.1742 0.600419 12.9425L1.18026 10.3166L1.91249 7.6141C2.67691 4.79282 4.83633 2.54442 7.60261 1.64772C8.13379 1.47552 8.67952 1.35686 9.23078 1.29215V0.923078C9.23078 0.413281 9.64407 0 10.1539 0ZM10.1018 3.08132C9.44937 3.09327 8.7978 3.20101 8.17183 3.40392C5.99449 4.10973 4.29447 5.88224 3.6944 8.09691L2.97359 10.7572L2.40314 13.3406C2.33141 13.6655 2.25726 13.966 2.18606 14.2547C2.06166 14.759 1.94628 15.2267 1.86852 15.7236C1.85386 15.8173 1.84616 15.9137 1.84616 16.0128C1.84616 16.8893 2.46023 17.6394 3.30746 17.8121L3.75988 17.9041C4.81481 18.1192 5.87779 18.2803 6.9448 18.3877C9.20186 18.615 11.4769 18.602 13.7318 18.3485C14.675 18.2424 15.6145 18.0943 16.5478 17.9041L17.0003 17.8121C17.8475 17.6394 18.4616 16.8893 18.4616 16.0128C18.4616 15.9137 18.4538 15.8173 18.4392 15.7236C18.3614 15.2267 18.2461 14.7589 18.1216 14.2547C18.0505 13.966 17.9763 13.6655 17.9045 13.3406L17.3333 10.7536L16.6202 8.03531C16.0477 5.85323 14.415 4.11324 12.2854 3.4099C11.6188 3.18976 10.9214 3.08011 10.2232 3.0802C10.2003 3.0819 10.1771 3.08276 10.1539 3.08276C10.1364 3.08276 10.119 3.08227 10.1018 3.08132ZM7.61974 20.3002C7.88899 21.1845 8.60444 21.8622 9.50229 22.077C9.93072 22.1795 10.377 22.1795 10.8054 22.077C11.7033 21.8622 12.4187 21.1845 12.688 20.3002C11.0009 20.4267 9.30684 20.4267 7.61974 20.3002Z" fill="#00D37F"/>
</svg>
