<svg width="20" height="22" viewBox="0 0 20 22" fill="none" xmlns="http://www.w3.org/2000/svg">
<path d="M14.583 0H5.41634C4.20121 0.00145554 3.03627 0.484808 2.17704 1.34403C1.31782 2.20326 0.834463 3.3682 0.833008 4.58333V18.3333C0.833008 19.3058 1.21932 20.2384 1.90695 20.9261C2.59458 21.6137 3.52721 22 4.49967 22H14.583C15.7981 21.9985 16.9631 21.5152 17.8223 20.656C18.6815 19.7967 19.1649 18.6318 19.1663 17.4167V4.58333C19.1649 3.3682 18.6815 2.20326 17.8223 1.34403C16.9631 0.484808 15.7981 0.00145554 14.583 0V0ZM17.333 4.58333V14.6667H6.33301V1.83333H14.583C15.3124 1.83333 16.0118 2.12306 16.5276 2.63879C17.0433 3.15451 17.333 3.85399 17.333 4.58333ZM4.49967 1.991V14.6667C3.85583 14.6661 3.22331 14.8359 2.66634 15.1589V4.58333C2.66642 4.01472 2.84276 3.4601 3.17109 2.99585C3.49941 2.5316 3.96358 2.18054 4.49967 1.991ZM14.583 20.1667H4.49967C4.01344 20.1667 3.54713 19.9735 3.20331 19.6297C2.8595 19.2859 2.66634 18.8196 2.66634 18.3333C2.66634 17.8471 2.8595 17.3808 3.20331 17.037C3.54713 16.6932 4.01344 16.5 4.49967 16.5H17.333V17.4167C17.333 18.146 17.0433 18.8455 16.5276 19.3612C16.0118 19.8769 15.3124 20.1667 14.583 20.1667Z" fill="#00D37F"/>
</svg>
