<svg width="18" height="18" viewBox="0 0 18 18" fill="none" xmlns="http://www.w3.org/2000/svg">
<path fill-rule="evenodd" clip-rule="evenodd" d="M11.6573 16.3084C9.90964 16.7183 8.09093 16.7183 6.34332 16.3084C4.03546 15.767 2.23345 13.965 1.69211 11.6572C1.28217 9.90956 1.28217 8.09085 1.69211 6.34323C2.23345 4.03537 4.03546 2.23337 6.34332 1.69206C8.09093 1.28211 9.90964 1.28211 11.6573 1.69206C13.9651 2.23337 15.7671 4.03537 16.3084 6.34323C16.7184 8.09085 16.7184 9.90956 16.3084 11.6572C15.7671 13.965 13.9651 15.767 11.6573 16.3084ZM6.02711 17.6564C7.98265 18.1152 10.0179 18.1152 11.9734 17.6564C14.7933 16.995 16.9951 14.7932 17.6565 11.9734C18.1152 10.0178 18.1152 7.98257 17.6565 6.02706C16.9951 3.20716 14.7933 1.00536 11.9734 0.343958C10.0179 -0.114735 7.98265 -0.114735 6.02711 0.343958C3.20726 1.00536 1.00548 3.20716 0.344039 6.02697C-0.11468 7.98257 -0.11468 10.0178 0.344039 11.9734C1.00548 14.7932 3.20725 16.995 6.02711 17.6564Z" fill="#CEFD1E"/>
<path fill-rule="evenodd" clip-rule="evenodd" d="M11.7984 7.58753C11.528 7.31715 11.0897 7.31715 10.8193 7.58753L9.00107 9.40568L7.18283 7.58753C6.91249 7.31715 6.47412 7.31715 6.20375 7.58753C5.93338 7.85791 5.93338 8.2962 6.20375 8.56658L8.51155 10.8744C8.64133 11.0042 8.81746 11.0771 9.00107 11.0771C9.18468 11.0771 9.3608 11.0042 9.49059 10.8744L11.7984 8.56658C12.0687 8.2962 12.0687 7.85791 11.7984 7.58753Z" fill="#CEFD1E"/>
</svg>
