<svg width="18" height="18" viewBox="0 0 18 18" fill="none" xmlns="http://www.w3.org/2000/svg">
<path fill-rule="evenodd" clip-rule="evenodd" d="M11.6573 1.69211C9.90964 1.28217 8.09093 1.28217 6.34332 1.69211C4.03546 2.23345 2.23345 4.03545 1.69211 6.34332C1.28217 8.09093 1.28217 9.90964 1.69211 11.6573C2.23345 13.9651 4.03546 15.7671 6.34332 16.3084C8.09093 16.7184 9.90964 16.7184 11.6573 16.3084C13.9651 15.7671 15.7671 13.9651 16.3084 11.6573C16.7184 9.90964 16.7184 8.09093 16.3084 6.34332C15.7671 4.03546 13.9651 2.23345 11.6573 1.69211ZM6.02711 0.344039C7.98265 -0.11468 10.0179 -0.11468 11.9734 0.344039C14.7933 1.00548 16.9951 3.20725 17.6565 6.02711C18.1152 7.98265 18.1152 10.0179 17.6565 11.9734C16.9951 14.7933 14.7933 16.9951 11.9734 17.6565C10.0179 18.1152 7.98265 18.1152 6.02711 17.6565C3.20726 16.9951 1.00548 14.7933 0.344039 11.9735C-0.11468 10.0179 -0.11468 7.98265 0.344039 6.0271C1.00548 3.20725 3.20725 1.00548 6.02711 0.344039Z" fill="#CEFD1E"/>
<path fill-rule="evenodd" clip-rule="evenodd" d="M11.7984 10.413C11.528 10.6833 11.0897 10.6833 10.8193 10.413L9.00107 8.59481L7.18283 10.413C6.91249 10.6833 6.47412 10.6833 6.20375 10.413C5.93338 10.1426 5.93338 9.70429 6.20375 9.43391L8.51155 7.12612C8.64133 6.99628 8.81746 6.92334 9.00107 6.92334C9.18468 6.92334 9.3608 6.99628 9.49059 7.12612L11.7984 9.43391C12.0687 9.70429 12.0687 10.1426 11.7984 10.413Z" fill="#CEFD1E"/>
</svg>
