<svg width="40" height="40" viewBox="0 0 40 40" fill="none" xmlns="http://www.w3.org/2000/svg">
<rect width="40" height="40" rx="2" fill="#26281D"/>
<g clip-path="url(#clip0_5692_14651)">
<path d="M26.4167 9H13.5833C12.3682 9.00146 11.2033 9.48481 10.344 10.344C9.48481 11.2033 9.00146 12.3682 9 13.5833L9 26.4167C9.00146 27.6318 9.48481 28.7967 10.344 29.656C11.2033 30.5152 12.3682 30.9985 13.5833 31H26.4167C27.6318 30.9985 28.7967 30.5152 29.656 29.656C30.5152 28.7967 30.9985 27.6318 31 26.4167V13.5833C30.9985 12.3682 30.5152 11.2033 29.656 10.344C28.7967 9.48481 27.6318 9.00146 26.4167 9V9ZM29.1667 13.5833H22.75V10.8333H26.4167C27.146 10.8333 27.8455 11.1231 28.3612 11.6388C28.8769 12.1545 29.1667 12.854 29.1667 13.5833ZM19.0833 10.8333H20.9167V15.4167C20.9167 15.6598 20.8201 15.8929 20.6482 16.0648C20.4763 16.2368 20.2431 16.3333 20 16.3333C19.7569 16.3333 19.5237 16.2368 19.3518 16.0648C19.1799 15.8929 19.0833 15.6598 19.0833 15.4167V10.8333ZM13.5833 10.8333H17.25V13.5833H10.8333C10.8333 12.854 11.1231 12.1545 11.6388 11.6388C12.1545 11.1231 12.854 10.8333 13.5833 10.8333ZM26.4167 29.1667H13.5833C12.854 29.1667 12.1545 28.8769 11.6388 28.3612C11.1231 27.8455 10.8333 27.146 10.8333 26.4167V15.4167H17.25C17.25 16.146 17.5397 16.8455 18.0555 17.3612C18.5712 17.8769 19.2707 18.1667 20 18.1667C20.7293 18.1667 21.4288 17.8769 21.9445 17.3612C22.4603 16.8455 22.75 16.146 22.75 15.4167H29.1667V26.4167C29.1667 27.146 28.8769 27.8455 28.3612 28.3612C27.8455 28.8769 27.146 29.1667 26.4167 29.1667ZM27.3333 26.4167C27.3333 26.6598 27.2368 26.8929 27.0648 27.0648C26.8929 27.2368 26.6598 27.3333 26.4167 27.3333H23.6667C23.4236 27.3333 23.1904 27.2368 23.0185 27.0648C22.8466 26.8929 22.75 26.6598 22.75 26.4167C22.75 26.1736 22.8466 25.9404 23.0185 25.7685C23.1904 25.5966 23.4236 25.5 23.6667 25.5H26.4167C26.6598 25.5 26.8929 25.5966 27.0648 25.7685C27.2368 25.9404 27.3333 26.1736 27.3333 26.4167Z" fill="#CEFD1E"/>
</g>
<defs>
<clipPath id="clip0_5692_14651">
<rect width="22" height="22" fill="white" transform="translate(9 9)"/>
</clipPath>
</defs>
</svg>
