<svg width="27" height="27" viewBox="0 0 27 27" fill="none" xmlns="http://www.w3.org/2000/svg">
<mask id="mask0_3905_20266" style="mask-type:alpha" maskUnits="userSpaceOnUse" x="0" y="0" width="27" height="27">
<rect width="27" height="27" fill="#C4C4C4"/>
</mask>
<g mask="url(#mask0_3905_20266)">
<path d="M22.9788 18.4871C22.6 18.6807 22.1339 18.5327 21.9384 18.1525H21.9384C20.7525 15.8445 17.6038 12.5357 13.4999 12.5357C9.81946 12.5357 6.54871 15.2581 5.06147 18.1526C4.86582 18.5313 4.39991 18.6808 4.02034 18.4861C3.64082 18.2914 3.49061 17.827 3.68502 17.4477C5.39377 14.1154 9.15148 10.9909 13.4999 10.9909C18.4592 10.9909 22.0111 14.9051 23.3149 17.4477C23.5095 17.8274 23.359 18.2928 22.9788 18.4871ZM3.9005 10.1914L5.6231 11.7433C5.94214 12.0308 6.43103 12.002 6.71546 11.6872C7.00156 11.3704 6.97642 10.882 6.65923 10.5963L4.93663 9.04433C4.61956 8.75866 4.13052 8.78368 3.84427 9.10049C3.55817 9.41726 3.58331 9.90565 3.9005 10.1914ZM21.3767 11.7433L23.0993 10.1914C23.4165 9.90565 23.4416 9.41726 23.1555 9.10049C22.8694 8.78376 22.3804 8.75858 22.0632 9.04433L20.3406 10.5963C20.0234 10.882 19.9983 11.3704 20.2844 11.6872C20.5691 12.0024 21.0581 12.0304 21.3767 11.7433ZM13.4999 8.66396C13.9271 8.66396 14.2733 8.31811 14.2733 7.89155V5.57222C14.2733 5.14565 13.9271 4.7998 13.4999 4.7998C13.0727 4.7998 12.7265 5.14565 12.7265 5.57222V7.89155C12.7265 8.31815 13.0728 8.66396 13.4999 8.66396ZM17.2994 17.7996C17.2994 19.895 15.5949 21.5998 13.4999 21.5998C11.4049 21.5998 9.70047 19.895 9.70047 17.7996C9.70047 15.7041 11.4049 13.9993 13.4999 13.9993C15.5949 13.9993 17.2994 15.7041 17.2994 17.7996ZM15.7526 17.7996C15.7526 16.5559 14.7421 15.5442 13.5 15.5442C12.2579 15.5442 11.2473 16.5559 11.2473 17.7996C11.2473 19.0432 12.2578 20.055 13.4999 20.055C14.742 20.055 15.7526 19.0432 15.7526 17.7996Z" fill="#BFC0C0"/>
</g>
</svg>
