<svg width="26" height="26" viewBox="0 0 26 26" fill="none" xmlns="http://www.w3.org/2000/svg">
<path d="M22.9159 11.1338C22.0543 12.8404 20.6888 14.2861 18.9663 15.3166L21.081 17.4314C21.3861 17.7364 21.3861 18.2311 21.081 18.5362C20.7759 18.8413 20.2813 18.8413 19.9761 18.5362L17.4952 16.0552C16.326 16.5392 15.0709 16.8303 13.7812 16.9141V20.4551C13.7812 20.8866 13.4315 21.2363 13 21.2363C12.5685 21.2363 12.2187 20.8866 12.2187 20.4551V16.9141C10.9291 16.8303 9.674 16.5392 8.50471 16.0553L6.02381 18.5363C5.71869 18.8414 5.224 18.8414 4.91893 18.5363C4.61389 18.2312 4.61389 17.7365 4.91897 17.4314L7.03369 15.3166C5.31111 14.2861 3.94565 12.8404 3.08401 11.1338C2.88955 10.7486 3.04416 10.2788 3.42932 10.0843C3.81436 9.88977 4.2844 10.0443 4.47881 10.4295C5.92795 13.2997 9.1574 15.377 13 15.377C16.8455 15.377 20.0733 13.2972 21.5212 10.4295C21.716 10.0437 22.1861 9.89005 22.5707 10.0842C22.9559 10.2787 23.1105 10.7486 22.9159 11.1338Z" fill="#333333"/>
</svg>
