<svg width="28" height="29" viewBox="0 0 28 29" fill="none" xmlns="http://www.w3.org/2000/svg">
<path d="M4.30554 24.5143C4.20377 24.4126 4.06265 24.354 3.91875 24.354C3.7743 24.354 3.63373 24.4126 3.53141 24.5143C3.42964 24.6161 3.37109 24.7572 3.37109 24.9011C3.37109 25.045 3.42964 25.1861 3.53141 25.2879C3.63373 25.3897 3.7743 25.4482 3.91875 25.4482C4.06265 25.4482 4.20322 25.3897 4.30554 25.2879C4.40731 25.1861 4.46526 25.045 4.46526 24.9011C4.46526 24.7572 4.40731 24.6161 4.30554 24.5143Z" fill="#69CAD7"/>
<path d="M8.75617 25.9743C8.65439 25.8725 8.51328 25.814 8.36938 25.814C8.22547 25.814 8.08436 25.8725 7.98259 25.9743C7.88081 26.0761 7.82227 26.2166 7.82227 26.3611C7.82227 26.505 7.88081 26.6461 7.98259 26.7479C8.08436 26.8496 8.22547 26.9082 8.36938 26.9082C8.51328 26.9082 8.65439 26.8496 8.75617 26.7479C8.85794 26.6461 8.91648 26.505 8.91648 26.3611C8.91643 26.2166 8.85788 26.076 8.75617 25.9743Z" fill="#69CAD7"/>
<path d="M27.9726 18.5785C27.8775 18.0172 27.5423 17.5283 27.0531 17.2373C26.2902 16.7835 25.3195 16.9052 24.6923 17.5331L20.638 21.5916C20.2413 21.9888 19.7136 22.2074 19.1522 22.2074H18.6425C18.6678 21.6485 18.4177 21.1138 17.9422 20.7662L13.7982 17.7377C12.3725 16.6958 10.5249 16.4181 8.85659 16.9945L8.31132 17.182C8.17026 16.609 8.1095 16.0209 8.13083 15.4269C8.16463 14.4849 8.40037 13.5814 8.83143 12.7416L12.324 5.9372H19.8171L23.2615 12.7534C23.3979 13.0234 23.516 13.3051 23.6125 13.5908C23.7093 13.8769 24.0195 14.0305 24.3057 13.9338C24.5918 13.8371 24.7454 13.5268 24.6487 13.2407C24.5356 12.9061 24.3973 12.5763 24.2376 12.2602L20.7641 5.38647L22.4834 1.87251C22.7386 1.35082 22.6295 0.757314 22.2054 0.360549C21.7813 -0.0362169 21.1818 -0.105626 20.6783 0.183771L19.7522 0.715964C19.5486 0.833068 19.2934 0.820543 19.1023 0.684076L18.6162 0.337467C17.986 -0.112026 17.132 -0.07795 16.5396 0.420386L16.3873 0.548539C16.1706 0.730787 15.8616 0.738718 15.6358 0.567847L15.3426 0.345835C14.711 -0.132427 13.8443 -0.112846 13.2348 0.393421L12.9541 0.626591C12.7616 0.786577 12.4861 0.81026 12.2691 0.685553L11.4317 0.204282C10.9333 -0.0820522 10.318 -0.00930635 9.90019 0.385217C9.48237 0.779794 9.37462 1.39004 9.63191 1.90391L11.3767 5.3875L7.85828 12.2423C7.35338 13.2261 7.07727 14.2844 7.03767 15.3879C7.01153 16.1166 7.09094 16.8379 7.27336 17.539L5.40909 18.1799L5.35112 17.8513C5.26984 17.3903 5.01391 16.9887 4.63055 16.7202C4.24713 16.4517 3.7821 16.3487 3.32129 16.4299L0.45204 16.9358C0.154603 16.9883 -0.0440536 17.2719 0.00840001 17.5693L1.76868 27.5524C1.81545 27.8178 2.04621 28.0045 2.30657 28.0045C2.33807 28.0045 2.37007 28.0017 2.40218 27.9961L5.27137 27.4901C5.73235 27.4089 6.13393 27.1529 6.40249 26.7696C6.67093 26.3862 6.77398 25.9212 6.69276 25.4603L5.6013 19.2703L9.21288 18.0287C10.5435 17.5689 12.0163 17.7903 13.1528 18.6209L17.2967 21.6494C17.6302 21.8931 17.5504 22.236 17.5179 22.3353C17.4855 22.4346 17.3476 22.7586 16.9345 22.7586C16.8401 22.7586 16.7455 22.7363 16.661 22.6942L12.8723 20.8072C12.6555 20.6992 12.4128 20.6421 12.1705 20.6421H11.162C10.86 20.6421 10.6152 20.887 10.6152 21.189C10.6152 21.491 10.86 21.7358 11.162 21.7358H12.1705C12.2445 21.7358 12.3185 21.7532 12.3847 21.7862L16.1733 23.6732C16.4085 23.7904 16.6718 23.8523 16.9345 23.8523C17.4433 23.8523 17.8988 23.6405 18.213 23.2826C18.2576 23.2944 18.3043 23.3013 18.3527 23.3013H19.1521C20.0059 23.3013 20.8084 22.9686 21.4118 22.3647L25.466 18.3062C25.7391 18.0328 26.1618 17.9799 26.4938 18.1774C26.7068 18.3042 26.8528 18.517 26.8942 18.7614C26.9357 19.0057 26.868 19.2548 26.7086 19.4446L23.4012 23.3842C22.1051 24.9281 20.2055 25.8135 18.1898 25.8135H10.43C10.128 25.8135 9.88318 26.0584 9.88318 26.3604C9.88318 26.6624 10.128 26.9073 10.43 26.9073H18.1897C20.5296 26.9073 22.7344 25.8795 24.2388 24.0874L27.5463 20.1477C27.9124 19.7117 28.0678 19.1397 27.9726 18.5785ZM10.6099 1.41394C10.5552 1.30471 10.6022 1.22661 10.6512 1.18033C10.7002 1.13401 10.781 1.09162 10.8868 1.15244L11.7242 1.63371C12.3356 1.98508 13.1108 1.9184 13.6532 1.46771L13.9338 1.23454C14.1502 1.05475 14.458 1.04775 14.6824 1.21764L14.9757 1.4397C15.6113 1.92092 16.4813 1.8986 17.0914 1.38544L17.2437 1.25729C17.4541 1.08029 17.7575 1.06821 17.9813 1.22781L18.4673 1.57436C19.0056 1.95833 19.7239 1.99361 20.2973 1.66412L21.2234 1.13193C21.3287 1.07138 21.4093 1.11328 21.4582 1.15911C21.5073 1.20495 21.5545 1.28256 21.501 1.39168L19.8122 4.8435H12.3276L10.6099 1.41394ZM5.61574 25.6501C5.67875 26.0077 5.43912 26.3499 5.08163 26.413L2.75097 26.8239L1.18054 17.9178L3.51119 17.5068C3.86907 17.4437 4.21092 17.6834 4.27404 18.041L5.61574 25.6501Z" fill="#69CAD7"/>
<path d="M18.7062 11.0221C18.6744 10.9904 18.6339 10.9745 18.5845 10.9745H17.6799C17.6199 10.6819 17.507 10.4279 17.3413 10.2127H18.5739C18.6234 10.2127 18.6638 10.1969 18.6956 10.1652C18.7272 10.1335 18.7431 10.0929 18.7431 10.0435V9.50376C18.7431 9.45436 18.7272 9.41384 18.6956 9.38208C18.6638 9.35039 18.6233 9.33447 18.5739 9.33447H14.1722C14.1228 9.33447 14.0823 9.35039 14.0505 9.38206C14.0188 9.41382 14.0029 9.45434 14.0029 9.50375V10.2074C14.0029 10.2532 14.0197 10.2929 14.0532 10.3264C14.0867 10.3599 14.1264 10.3766 14.1722 10.3766H14.9393C15.6835 10.3766 16.1561 10.5759 16.3571 10.9744H14.1722C14.1228 10.9744 14.0822 10.9903 14.0505 11.022C14.0188 11.0538 14.0029 11.0943 14.0029 11.1437V11.6834C14.0029 11.7328 14.0188 11.7733 14.0505 11.805C14.0823 11.8368 14.1229 11.8526 14.1722 11.8526H16.4313C16.3537 12.1419 16.1729 12.3623 15.889 12.514C15.605 12.6656 15.2303 12.7415 14.7647 12.7415H14.1722C14.1264 12.7415 14.0867 12.7583 14.0532 12.7917C14.0197 12.8253 14.0029 12.865 14.0029 12.9108V13.5827C14.0029 13.6286 14.0188 13.6674 14.0505 13.6991C14.7277 14.4186 15.6059 15.4255 16.6852 16.72C16.717 16.7624 16.761 16.7835 16.8175 16.7835H17.8491C17.9232 16.7835 17.9744 16.7518 18.0025 16.6882C18.0378 16.6247 18.0309 16.5648 17.9813 16.5083C16.9516 15.2456 16.1421 14.3004 15.5531 13.6726C16.1527 13.6021 16.6394 13.4081 17.0133 13.0907C17.3871 12.7733 17.6146 12.3606 17.6957 11.8527H18.5845C18.6339 11.8527 18.6745 11.8369 18.7062 11.8051C18.7379 11.7734 18.7538 11.7329 18.7538 11.6835V11.1439C18.7538 11.0944 18.7379 11.0539 18.7062 11.0221Z" fill="#69CAD7"/>
<path d="M24.4817 14.9323C24.1797 14.9397 23.941 15.1914 23.9484 15.4935C23.9484 15.4935 23.9484 15.4952 23.9484 15.4953C23.9559 15.7926 24.1991 16.027 24.4949 16.027C24.4996 16.027 24.5043 16.027 24.5089 16.0269C24.811 16.0193 25.0496 15.7668 25.0421 15.4647C25.0345 15.1627 24.7835 14.9241 24.4817 14.9323Z" fill="#69CAD7"/>
</svg>
