<svg width="20" height="20" viewBox="0 0 20 20" fill="none" xmlns="http://www.w3.org/2000/svg">
<g clip-path="url(#clip0_3905_20145)">
<path d="M12.5 0H7.50004C6.39538 0.00132321 5.33634 0.440735 4.55522 1.22185C3.77411 2.00296 3.3347 3.062 3.33337 4.16667V15.8333C3.3347 16.938 3.77411 17.997 4.55522 18.7782C5.33634 19.5593 6.39538 19.9987 7.50004 20H12.5C13.6047 19.9987 14.6637 19.5593 15.4449 18.7782C16.226 17.997 16.6654 16.938 16.6667 15.8333V4.16667C16.6654 3.062 16.226 2.00296 15.4449 1.22185C14.6637 0.440735 13.6047 0.00132321 12.5 0V0ZM7.50004 1.66667H12.5C13.1631 1.66667 13.799 1.93006 14.2678 2.3989C14.7366 2.86774 15 3.50363 15 4.16667V13.3333H5.00004V4.16667C5.00004 3.50363 5.26343 2.86774 5.73227 2.3989C6.20111 1.93006 6.837 1.66667 7.50004 1.66667ZM12.5 18.3333H7.50004C6.837 18.3333 6.20111 18.0699 5.73227 17.6011C5.26343 17.1323 5.00004 16.4964 5.00004 15.8333V15H15V15.8333C15 16.4964 14.7366 17.1323 14.2678 17.6011C13.799 18.0699 13.1631 18.3333 12.5 18.3333Z" fill="white"/>
<path d="M9.99996 17.5002C10.4602 17.5002 10.8333 17.1271 10.8333 16.6668C10.8333 16.2066 10.4602 15.8335 9.99996 15.8335C9.53972 15.8335 9.16663 16.2066 9.16663 16.6668C9.16663 17.1271 9.53972 17.5002 9.99996 17.5002Z" fill="white"/>
</g>
<defs>
<clipPath id="clip0_3905_20145">
<rect width="20" height="20" fill="white"/>
</clipPath>
</defs>
</svg>
