<svg width="20" height="20" viewBox="0 0 20 20" fill="none" xmlns="http://www.w3.org/2000/svg">
<g clip-path="url(#clip0_3905_20189)">
<path d="M12.4999 0H7.49992C6.39526 0.00132321 5.33622 0.440735 4.5551 1.22185C3.77399 2.00296 3.33458 3.062 3.33325 4.16667V15.8333C3.33458 16.938 3.77399 17.997 4.5551 18.7782C5.33622 19.5593 6.39526 19.9987 7.49992 20H12.4999C13.6046 19.9987 14.6636 19.5593 15.4447 18.7782C16.2259 17.997 16.6653 16.938 16.6666 15.8333V4.16667C16.6653 3.062 16.2259 2.00296 15.4447 1.22185C14.6636 0.440735 13.6046 0.00132321 12.4999 0V0ZM7.49992 1.66667H12.4999C13.163 1.66667 13.7988 1.93006 14.2677 2.3989C14.7365 2.86774 14.9999 3.50363 14.9999 4.16667V13.3333H4.99992V4.16667C4.99992 3.50363 5.26331 2.86774 5.73215 2.3989C6.20099 1.93006 6.83688 1.66667 7.49992 1.66667ZM12.4999 18.3333H7.49992C6.83688 18.3333 6.20099 18.0699 5.73215 17.6011C5.26331 17.1323 4.99992 16.4964 4.99992 15.8333V15H14.9999V15.8333C14.9999 16.4964 14.7365 17.1323 14.2677 17.6011C13.7988 18.0699 13.163 18.3333 12.4999 18.3333Z" fill="#303030"/>
<path d="M10.0001 17.5002C10.4603 17.5002 10.8334 17.1271 10.8334 16.6668C10.8334 16.2066 10.4603 15.8335 10.0001 15.8335C9.53984 15.8335 9.16675 16.2066 9.16675 16.6668C9.16675 17.1271 9.53984 17.5002 10.0001 17.5002Z" fill="#303030"/>
</g>
<defs>
<clipPath id="clip0_3905_20189">
<rect width="20" height="20" fill="white"/>
</clipPath>
</defs>
</svg>
