<svg width="19" height="24" viewBox="0 0 19 24" fill="none" xmlns="http://www.w3.org/2000/svg">
<path fill-rule="evenodd" clip-rule="evenodd" d="M9.23077 1.84615C7.00717 1.84615 5.26057 3.63393 5.26057 5.76923C5.26057 7.90453 7.00717 9.69231 9.23077 9.69231C11.4544 9.69231 13.2011 7.90453 13.2011 5.76923C13.2011 3.63393 11.4544 1.84615 9.23077 1.84615ZM3.47397 5.76923C3.47397 2.55162 6.08229 0 9.23077 0C12.3794 0 14.9877 2.55162 14.9877 5.76923C14.9877 8.98684 12.3794 11.5385 9.23077 11.5385C6.08229 11.5385 3.47397 8.98684 3.47397 5.76923ZM12.4064 15.6534C10.3026 15.295 8.15893 15.295 6.05517 15.6534L5.8077 15.6956L5.66238 14.7849L5.80769 15.6956C3.51224 16.0866 1.7866 18.2126 1.7866 20.7526C1.7866 21.555 2.38867 22.1538 3.07073 22.1538H15.3908C16.0729 22.1538 16.6749 21.555 16.6749 20.7526C16.6749 18.2126 14.9493 16.0866 12.6539 15.6956L12.7992 14.7849L12.6539 15.6956L12.4064 15.6534ZM12.697 13.8319L12.5517 14.7426L12.697 13.8319L12.9445 13.874C16.144 14.4191 18.4615 17.3526 18.4615 20.7526C18.4615 22.5175 17.1138 24 15.3908 24H3.07073C1.34766 24 0 22.5175 0 20.7526C0 17.3526 2.31761 14.4191 5.51706 13.874L5.76454 13.8319L5.90986 14.7426L5.76455 13.8319C8.06078 13.4406 10.4008 13.4406 12.697 13.8319Z" fill="#00D37F"/>
</svg>
