<svg width="24" height="26" viewBox="0 0 24 26" fill="none" xmlns="http://www.w3.org/2000/svg">
<path d="M16.3172 11.3024C16.6358 10.9069 16.5735 10.3282 16.1782 10.0097C15.7827 9.69109 15.204 9.75334 14.8854 10.1487L12.4075 13.2239C11.8987 13.8554 11.5776 14.2503 11.3104 14.4999C11.1849 14.6171 11.1047 14.6693 11.0586 14.6923C11.0243 14.7095 11.012 14.7094 11.0054 14.7094H11.0037C10.9971 14.7094 10.9848 14.7095 10.9505 14.6923C10.9044 14.6693 10.8243 14.6171 10.6987 14.4999C10.4315 14.2503 10.1105 13.8554 9.60164 13.2239L8.96239 12.4306C8.64382 12.0353 8.06506 11.973 7.6697 12.2916C7.27433 12.6102 7.21209 13.1889 7.53066 13.5842L8.20984 14.4272C8.66646 14.994 9.06932 15.494 9.4437 15.8436C9.8457 16.2191 10.3455 16.5481 11.0046 16.5481C11.6637 16.5481 12.1634 16.2191 12.5655 15.8436C12.9399 15.494 13.3427 14.994 13.7993 14.4272L16.3172 11.3024Z" fill="#00D37F"/>
<path fill-rule="evenodd" clip-rule="evenodd" d="M8.93651 0C7.04659 0 5.5145 1.53209 5.5145 3.42202C5.5145 4.29645 4.80563 5.00533 3.93118 5.00533H3.55257C1.62065 5.00533 -0.100266 6.50007 0.00455223 8.57626C0.128995 11.0414 0.676497 14.8834 2.67352 18.5228C3.23283 19.542 3.97982 20.5434 4.78734 21.4763L4.84813 21.5466C6.00978 22.8888 6.97835 24.008 8.01963 24.7708C9.13963 25.5913 10.3351 26 11.9241 26C13.5129 26 14.7083 25.5913 15.8283 24.7708C16.8696 24.008 17.8382 22.8888 18.9998 21.5466L19.0606 21.4763C19.8682 20.5434 20.6152 19.542 21.1745 18.5228C23.2379 14.7624 23.7524 10.5133 23.8539 7.86423C23.9331 5.798 22.2244 4.29029 20.2817 4.29029H19.5593C18.8823 4.29029 18.3335 3.74147 18.3335 3.06449C18.3335 1.37202 16.9615 0 15.269 0H8.93651ZM7.35319 3.42202C7.35319 2.54757 8.06207 1.83869 8.93651 1.83869H15.269C15.946 1.83869 16.4948 2.38751 16.4948 3.06449C16.4948 4.75696 17.8668 6.12898 19.5593 6.12898H20.2817C21.3085 6.12898 22.0511 6.89278 22.0165 7.79385C21.9196 10.3248 21.4261 14.242 19.5625 17.6382C19.0858 18.5071 18.4256 19.4004 17.6703 20.273C16.4322 21.7036 15.596 22.6617 14.7417 23.2876C13.948 23.8691 13.1361 24.1613 11.9241 24.1613C10.7119 24.1613 9.90001 23.8691 9.10625 23.2876C8.25189 22.6617 7.41579 21.7036 6.1776 20.273C5.4224 19.4004 4.76224 18.5071 4.28548 17.6382C2.47315 14.3354 1.95791 10.8012 1.84091 8.48355C1.79638 7.60176 2.52274 6.84403 3.55257 6.84403H3.93118C5.8211 6.84403 7.35319 5.31194 7.35319 3.42202Z" fill="#00D37F"/>
</svg>
