<svg width="56" height="56" viewBox="0 0 56 56" fill="none" xmlns="http://www.w3.org/2000/svg">
<circle cx="28" cy="28" r="28" fill="#00D37F" fill-opacity="0.05"/>
<circle cx="27.9993" cy="28.0003" r="23.3333" fill="#00D37F" fill-opacity="0.3"/>
<circle cx="28.0007" cy="27.9997" r="18.6667" fill="#00D37F"/>
<g clip-path="url(#clip0_6950_16802)">
<path d="M32.9537 25.6491L27.3898 21.5693C26.9553 21.2511 26.4411 21.0594 25.9042 21.0156C25.3674 20.9717 24.8289 21.0773 24.3484 21.3208C23.868 21.5642 23.4643 21.9359 23.1822 22.3947C22.9 22.8535 22.7504 23.3815 22.75 23.9201V32.0839C22.7492 32.623 22.898 33.1518 23.1798 33.6114C23.4617 34.071 23.8656 34.4434 24.3465 34.6871C24.8275 34.9307 25.3666 35.0362 25.9039 34.9916C26.4412 34.9471 26.9556 34.7543 27.3898 34.4347L32.9537 30.3549C33.3229 30.084 33.6231 29.7299 33.83 29.3214C34.0369 28.9129 34.1447 28.4614 34.1447 28.0035C34.1447 27.5456 34.0369 27.0941 33.83 26.6855C33.6231 26.277 33.3229 25.923 32.9537 25.6521V25.6491Z" fill="#051213"/>
</g>
<defs>
<clipPath id="clip0_6950_16802">
<rect width="14" height="14" fill="white" transform="translate(21 21)"/>
</clipPath>
</defs>
</svg>
