<svg width="24" height="24" viewBox="0 0 24 24" fill="none" xmlns="http://www.w3.org/2000/svg">
<rect width="24" height="24" fill="#F5F5F5"/>
<rect width="24" height="24" rx="2" fill="#26F0F1"/>
<path fill-rule="evenodd" clip-rule="evenodd" d="M12.877 13.4238H13.7098C14.2375 13.4238 14.6838 13.7528 14.8274 14.2036H12.877C12.6932 14.2036 12.5439 14.3433 12.5439 14.5155C12.5439 14.6877 12.6932 14.8274 12.877 14.8274H14.8274C14.6838 15.2782 14.2375 15.6073 13.7098 15.6073H12.877C12.7398 15.6073 12.6169 15.6859 12.5669 15.8053C12.5169 15.9248 12.5503 16.0608 12.6509 16.1481L15.1492 18.3132C15.2841 18.4302 15.4949 18.4224 15.6198 18.2961C15.7448 18.1697 15.7364 17.9723 15.6015 17.8553L13.7271 16.2308C14.6169 16.2233 15.356 15.6204 15.5116 14.8274H16.2081C16.392 14.8274 16.5412 14.6877 16.5412 14.5155C16.5412 14.3433 16.392 14.2036 16.2081 14.2036H15.5116C15.4543 13.911 15.3174 13.6443 15.1225 13.4238H16.2081C16.392 13.4238 16.5412 13.284 16.5412 13.1118C16.5412 12.9397 16.392 12.7999 16.2081 12.7999H12.877C12.6932 12.7999 12.5439 12.9397 12.5439 13.1118C12.5439 13.284 12.6932 13.4238 12.877 13.4238Z" fill="#292E3C"/>
<path d="M18.7696 4.03493C18.7259 4.01631 18.679 4.00643 18.6315 4.00586H16.8146C16.7182 4.00586 16.6258 4.04414 16.5576 4.11229C16.4895 4.18044 16.4512 4.27287 16.4512 4.36925C16.4512 4.46562 16.4895 4.55805 16.5576 4.6262C16.6258 4.69435 16.7182 4.73264 16.8146 4.73264H17.7558L15.4664 7.02198C15.3203 6.95117 15.1601 6.91393 14.9977 6.91296C14.7727 6.9136 14.5535 6.98378 14.3701 7.11389C14.1866 7.24401 14.0479 7.42768 13.9729 7.63974H9.48143C9.39423 7.39941 9.22533 7.19737 9.00426 7.06894C8.78319 6.94051 8.52401 6.89387 8.27204 6.93717C8.02006 6.98046 7.79132 7.11094 7.6258 7.30579C7.46027 7.50064 7.3685 7.74747 7.36652 8.00313C7.36657 8.15902 7.40132 8.31294 7.46826 8.45373L4.57933 11.0265C4.42933 10.9511 4.26393 10.9113 4.09602 10.9102C3.88041 10.9102 3.66964 10.9742 3.49036 11.094C3.31108 11.2137 3.17136 11.384 3.08884 11.5832C3.00633 11.7824 2.98474 12.0016 3.02681 12.2131C3.06887 12.4245 3.1727 12.6188 3.32516 12.7713C3.47762 12.9237 3.67187 13.0275 3.88334 13.0696C4.09481 13.1117 4.31401 13.0901 4.51321 13.0076C4.71241 12.9251 4.88267 12.7853 5.00246 12.6061C5.12225 12.4268 5.18619 12.216 5.18619 12.0004C5.18614 11.8445 5.15138 11.6906 5.08444 11.5498L7.99154 8.97701C8.13604 9.04981 8.29493 9.08953 8.45668 9.09329C8.6816 9.09266 8.90081 9.02247 9.08427 8.89236C9.26774 8.76225 9.40646 8.57857 9.48143 8.36652H13.9729C14.0601 8.60685 14.229 8.80889 14.4501 8.93731C14.6712 9.06574 14.9303 9.11238 15.1823 9.06909C15.4343 9.02579 15.663 8.89532 15.8285 8.70047C15.9941 8.50562 16.0858 8.25879 16.0878 8.00313C16.0869 7.8407 16.0496 7.68054 15.9788 7.53436L18.2682 5.24501V6.18619C18.2682 6.28256 18.3064 6.37499 18.3746 6.44314C18.4427 6.51129 18.5352 6.54958 18.6315 6.54958C18.7279 6.54958 18.8203 6.51129 18.8885 6.44314C18.9566 6.37499 18.9949 6.28256 18.9949 6.18619V4.36925C18.9944 4.32176 18.9845 4.27485 18.9659 4.23116C18.929 4.14237 18.8584 4.07181 18.7696 4.03493V4.03493ZM4.09602 12.3638C4.02415 12.3638 3.9539 12.3425 3.89414 12.3025C3.83438 12.2626 3.7878 12.2059 3.7603 12.1395C3.73279 12.0731 3.7256 12 3.73962 11.9295C3.75364 11.859 3.78825 11.7943 3.83907 11.7434C3.88989 11.6926 3.95464 11.658 4.02513 11.644C4.09562 11.63 4.16869 11.6372 4.23509 11.6647C4.30149 11.6922 4.35824 11.7387 4.39817 11.7985C4.4381 11.8583 4.45941 11.9285 4.45941 12.0004C4.45941 12.0968 4.42113 12.1892 4.35298 12.2573C4.28483 12.3255 4.1924 12.3638 4.09602 12.3638ZM8.45668 8.36652C8.38481 8.36652 8.31455 8.3452 8.25479 8.30527C8.19503 8.26534 8.14846 8.20859 8.12095 8.14219C8.09345 8.07579 8.08625 8.00272 8.10027 7.93223C8.1143 7.86174 8.1489 7.79699 8.19973 7.74617C8.25055 7.69535 8.3153 7.66074 8.38579 7.64672C8.45628 7.6327 8.52934 7.6399 8.59574 7.6674C8.66214 7.6949 8.7189 7.74148 8.75883 7.80124C8.79876 7.861 8.82007 7.93126 8.82007 8.00313C8.82007 8.0995 8.78178 8.19193 8.71363 8.26008C8.64549 8.32823 8.55306 8.36652 8.45668 8.36652ZM14.9977 8.36652C14.9258 8.36652 14.8555 8.3452 14.7958 8.30527C14.736 8.26534 14.6894 8.20859 14.6619 8.14219C14.6344 8.07579 14.6272 8.00272 14.6413 7.93223C14.6553 7.86174 14.6899 7.79699 14.7407 7.74617C14.7915 7.69535 14.8563 7.66074 14.9268 7.64672C14.9973 7.6327 15.0703 7.6399 15.1367 7.6674C15.2031 7.6949 15.2599 7.74148 15.2998 7.80124C15.3397 7.861 15.3611 7.93126 15.3611 8.00313C15.3611 8.0995 15.3228 8.19193 15.2546 8.26008C15.1865 8.32823 15.094 8.36652 14.9977 8.36652Z" fill="#292E3C"/>
<path d="M14.271 10.5468C13.3384 10.5468 12.4266 10.8228 11.6506 11.3402C10.8746 11.8575 10.2691 12.593 9.91038 13.4539H5.54973C5.35697 13.4539 5.17212 13.5304 5.03582 13.6667C4.89952 13.803 4.82295 13.9879 4.82295 14.1806V14.9074C4.6302 14.9074 4.44534 14.984 4.30904 15.1203C4.17275 15.2566 4.09618 15.4414 4.09618 15.6342V16.361H3.73279C3.54003 16.361 3.35518 16.4375 3.21888 16.5738C3.08258 16.7101 3.00601 16.895 3.00601 17.0878V17.8145C3.00601 18.0073 3.08258 18.1921 3.21888 18.3284C3.35518 18.4647 3.54003 18.5413 3.73279 18.5413H4.45956V19.2681C4.45956 19.4608 4.53613 19.6457 4.67243 19.782C4.80873 19.9183 4.99359 19.9949 5.18634 19.9949H11.7273C11.8615 19.9944 11.993 19.9569 12.1072 19.8863C12.2214 19.8158 12.3138 19.715 12.3742 19.5951C13.0177 19.8782 13.7163 20.014 14.419 19.9927C15.1217 19.9714 15.8108 19.7935 16.4361 19.4721C17.0613 19.1506 17.6069 18.6936 18.0331 18.1345C18.4592 17.5754 18.7552 16.9282 18.8995 16.2401C19.0437 15.552 19.0326 14.8404 18.8669 14.1572C18.7011 13.474 18.385 12.8363 17.9415 12.2908C17.498 11.7453 16.9384 11.3057 16.3034 11.004C15.6684 10.7022 14.9741 10.546 14.271 10.5468V10.5468ZM5.54973 14.1806H9.67782C9.62175 14.4197 9.58409 14.6626 9.56516 14.9074H5.54973V14.1806ZM4.82295 15.6342H9.56516C9.58409 15.879 9.62175 16.122 9.67782 16.361H4.82295V15.6342ZM3.73279 17.8145V17.0878H9.91038C10.0134 17.327 10.1349 17.5579 10.2738 17.7782V17.8145H3.73279ZM11.7273 19.2681H5.18634V18.5413H10.8697C11.1286 18.8074 11.4162 19.0438 11.7273 19.2463V19.2681ZM14.271 19.2681C13.4805 19.2681 12.7076 19.0336 12.0503 18.5944C11.3929 18.1552 10.8806 17.5309 10.578 16.8005C10.2755 16.0701 10.1963 15.2664 10.3506 14.491C10.5048 13.7156 10.8855 13.0033 11.4445 12.4443C12.0036 11.8853 12.7158 11.5046 13.4912 11.3503C14.2666 11.1961 15.0703 11.2753 15.8007 11.5778C16.5311 11.8804 17.1554 12.3927 17.5946 13.05C18.0339 13.7074 18.2683 14.4802 18.2683 15.2708C18.2683 16.331 17.8472 17.3477 17.0975 18.0973C16.3479 18.8469 15.3312 19.2681 14.271 19.2681Z" fill="#292E3C"/>
</svg>
