<svg width="24" height="24" viewBox="0 0 24 24" fill="none" xmlns="http://www.w3.org/2000/svg">
<rect width="24" height="24" fill="#F5F5F5"/>
<rect width="24" height="24" rx="2" fill="#26F0F1"/>
<g clip-path="url(#clip0_0_1)">
<path d="M18.125 7.31936H16.3249C16.2095 7.31938 16.0968 7.3536 16.0009 7.4177C15.905 7.4818 15.8302 7.5729 15.7861 7.67947C15.7419 7.78605 15.7304 7.90332 15.7529 8.01646C15.7754 8.1296 15.8309 8.23352 15.9125 8.31511L16.546 8.94861L14.4541 11.0399C14.343 11.1461 14.1952 11.2054 14.0414 11.2054C13.8877 11.2054 13.7399 11.1461 13.6287 11.0399L13.5295 10.9401C13.1962 10.6216 12.753 10.4439 12.292 10.4439C11.831 10.4439 11.3878 10.6216 11.0545 10.9401L8.07946 13.9151C7.96985 14.025 7.9084 14.174 7.90862 14.3292C7.90883 14.4845 7.97071 14.6332 8.08063 14.7429C8.19055 14.8525 8.33952 14.9139 8.49475 14.9137C8.64998 14.9135 8.79877 14.8516 8.90838 14.7417L11.8834 11.7667C11.9945 11.6603 12.1423 11.601 12.2961 11.601C12.4499 11.601 12.5977 11.6603 12.7088 11.7667L12.808 11.8664C13.1414 12.1846 13.5846 12.3622 14.0455 12.3622C14.5064 12.3622 14.9496 12.1846 15.283 11.8664L17.3749 9.77461L18.0084 10.4081C18.0902 10.4883 18.1939 10.5427 18.3065 10.5643C18.419 10.586 18.5355 10.574 18.6413 10.5299C18.7471 10.4858 18.8375 10.4115 18.9013 10.3163C18.9651 10.221 18.9995 10.1091 19 9.99452V8.19435C19 7.96229 18.9079 7.73973 18.7438 7.57564C18.5797 7.41154 18.3571 7.31936 18.125 7.31936Z" fill="#292E3C"/>
<path d="M18.4167 17.8193H7.91667C7.45254 17.8193 7.00742 17.635 6.67923 17.3068C6.35104 16.9786 6.16667 16.5335 6.16667 16.0693V5.58333C6.16667 5.42862 6.10521 5.28025 5.99581 5.17085C5.88642 5.06146 5.73804 5 5.58333 5C5.42862 5 5.28025 5.06146 5.17085 5.17085C5.06146 5.28025 5 5.42862 5 5.58333V16.0693C5.00093 16.8426 5.30851 17.5839 5.85529 18.1307C6.40208 18.6775 7.1434 18.9851 7.91667 18.986H18.4167C18.5714 18.986 18.7197 18.9245 18.8291 18.8151C18.9385 18.7057 19 18.5574 19 18.4027C19 18.248 18.9385 18.0996 18.8291 17.9902C18.7197 17.8808 18.5714 17.8193 18.4167 17.8193Z" fill="#292E3C"/>
</g>
<defs>
<clipPath id="clip0_0_1">
<rect width="14" height="14" fill="white" transform="translate(5 5)"/>
</clipPath>
</defs>
</svg>
