<svg width="21" height="26" viewBox="0 0 21 26" fill="none" xmlns="http://www.w3.org/2000/svg">
<path fill-rule="evenodd" clip-rule="evenodd" d="M10.3333 2C7.84413 2 5.88892 3.93676 5.88892 6.25C5.88892 8.56324 7.84413 10.5 10.3333 10.5C12.8225 10.5 14.7779 8.56324 14.7779 6.25C14.7779 3.93676 12.8225 2 10.3333 2ZM3.88892 6.25C3.88892 2.76425 6.80879 0 10.3333 0C13.858 0 16.7779 2.76425 16.7779 6.25C16.7779 9.73575 13.858 12.5 10.3333 12.5C6.80879 12.5 3.88892 9.73575 3.88892 6.25ZM13.8883 16.9579C11.5332 16.5696 9.13347 16.5696 6.77843 16.9579L6.5014 17.0036L6.33872 16.0169L6.50139 17.0036C3.93176 17.4272 2 19.7303 2 22.482C2 23.3512 2.67399 24 3.43751 24H17.2292C17.9927 24 18.6667 23.3512 18.6667 22.482C18.6667 19.7303 16.7349 17.4272 14.1653 17.0036L14.328 16.0169L14.1653 17.0036L13.8883 16.9579ZM14.2136 14.9845L14.0509 15.9712L14.2136 14.9845L14.4907 15.0301C18.0723 15.6207 20.6667 18.7987 20.6667 22.482C20.6667 24.394 19.158 26 17.2292 26H3.43751C1.50863 26 0 24.394 0 22.482C0 18.7987 2.59444 15.6207 6.17604 15.0301L6.45308 14.9845L6.61576 15.9712L6.45309 14.9845C9.0236 14.5607 11.6431 14.5607 14.2136 14.9845Z" fill="white"/>
</svg>
