<svg width="26" height="26" viewBox="0 0 26 26" fill="none" xmlns="http://www.w3.org/2000/svg">
<path d="M18.2032 14.0335C18.2032 14.6078 17.5082 14.9033 17.0962 14.4913L16.2181 13.6132L13.617 16.2142C13.2758 16.5513 12.7264 16.5513 12.3893 16.2142L10.4 14.225L9.15155 15.4735C8.98508 15.6441 8.71041 15.6441 8.53978 15.4735L7.92802 14.8617C7.75739 14.6952 7.75739 14.4206 7.92802 14.2499L9.78828 12.3897C10.1295 12.0526 10.6789 12.0526 11.016 12.3897L13.0053 14.3789L14.9945 12.3855L14.1164 11.5074C13.7044 11.1037 13.9916 10.4004 14.5742 10.4004H17.7745C18.0159 10.4004 18.2073 10.596 18.2032 10.8332V14.0335Z" fill="white"/>
<path fill-rule="evenodd" clip-rule="evenodd" d="M16.8378 2.44408C14.3135 1.85197 11.6865 1.85197 9.16229 2.44408C5.82882 3.226 3.226 5.8288 2.44408 9.16229C1.85197 11.6865 1.85197 14.3135 2.44408 16.8378C3.226 20.1712 5.82882 22.774 9.16229 23.5559C11.6865 24.148 14.3135 24.148 16.8378 23.5559C20.1712 22.774 22.774 20.1712 23.5559 16.8378C24.148 14.3135 24.148 11.6865 23.5559 9.16229C22.774 5.82882 20.1712 3.226 16.8378 2.44408ZM8.70555 0.496931C11.5301 -0.165644 14.4699 -0.165644 17.2944 0.496931C21.3675 1.45232 24.5478 4.63255 25.5031 8.70555C26.1656 11.5301 26.1656 14.4699 25.5031 17.2944C24.5478 21.3675 21.3675 24.5478 17.2944 25.5031C14.4699 26.1656 11.5301 26.1656 8.70555 25.5031C4.63255 24.5478 1.45232 21.3675 0.496931 17.2946C-0.165644 14.4699 -0.165644 11.5301 0.496931 8.70554C1.45232 4.63255 4.63255 1.45232 8.70555 0.496931Z" fill="white"/>
</svg>
