<svg width="28" height="28" viewBox="0 0 28 28" fill="none" xmlns="http://www.w3.org/2000/svg">
<path d="M2.73438 25.8125C3.03641 25.8125 3.28125 25.5677 3.28125 25.2656C3.28125 24.9636 3.03641 24.7188 2.73438 24.7188C2.43234 24.7188 2.1875 24.9636 2.1875 25.2656C2.1875 25.5677 2.43234 25.8125 2.73438 25.8125Z" fill="#26F0F1"/>
<path d="M14.7149 14.0586L21.2774 7.49611C21.4909 7.28256 21.4909 6.93628 21.2774 6.72267C21.0638 6.50911 20.7176 6.50911 20.5039 6.72267L13.9414 13.2852C13.7279 13.4987 13.7279 13.845 13.9414 14.0586C14.155 14.2722 14.5013 14.2722 14.7149 14.0586Z" fill="#26F0F1"/>
<path d="M15.4219 9.84375C16.3265 9.84375 17.0625 9.10777 17.0625 8.20312C17.0625 7.29848 16.3265 6.5625 15.4219 6.5625C14.5172 6.5625 13.7812 7.29848 13.7812 8.20312C13.7812 9.10777 14.5172 9.84375 15.4219 9.84375ZM15.4219 7.65625C15.7234 7.65625 15.9688 7.90158 15.9688 8.20312C15.9688 8.50467 15.7234 8.75 15.4219 8.75C15.1203 8.75 14.875 8.50467 14.875 8.20312C14.875 7.90158 15.1203 7.65625 15.4219 7.65625Z" fill="#26F0F1"/>
<path d="M19.7969 10.9375C18.8922 10.9375 18.1562 11.6735 18.1562 12.5781C18.1562 13.4828 18.8922 14.2188 19.7969 14.2188C20.7015 14.2188 21.4375 13.4828 21.4375 12.5781C21.4375 11.6735 20.7015 10.9375 19.7969 10.9375ZM19.7969 13.125C19.4953 13.125 19.25 12.8797 19.25 12.5781C19.25 12.2766 19.4953 12.0312 19.7969 12.0312C20.0984 12.0312 20.3438 12.2766 20.3438 12.5781C20.3438 12.8797 20.0984 13.125 19.7969 13.125Z" fill="#26F0F1"/>
<path d="M2.73438 28C3.56535 28 4.34148 27.6286 4.86052 26.9848L11.5545 18.8341C13.3104 20.0929 15.4398 20.7812 17.6094 20.7812C23.3446 20.7812 28 16.1329 28 10.3906C28 8.52365 27.4991 6.6926 26.5513 5.09545C26.3972 4.83569 26.0616 4.7501 25.8019 4.90421C25.5422 5.05832 25.4566 5.39388 25.6107 5.65359C26.4583 7.08198 26.9062 8.71998 26.9062 10.3906C26.9062 12.6903 26.076 14.8625 24.5584 16.5662L23.0084 15.0163C24.1151 13.7291 24.7188 12.1064 24.7188 10.3906C24.7188 6.65448 21.8218 3.58225 18.1562 3.30209V1.11076C19.6358 1.19755 21.0743 1.6345 22.3465 2.38935C22.606 2.54346 22.9417 2.45782 23.0958 2.19811C23.2499 1.9384 23.1643 1.60284 22.9045 1.44873C21.3073 0.500937 19.4763 0 17.6094 0C11.8799 0 7.21875 4.66123 7.21875 10.3906C7.21875 12.5604 7.90716 14.6898 9.16584 16.4455L1.01899 23.1364C0.371383 23.6586 0 24.4347 0 25.2656C0 26.7734 1.22664 28 2.73438 28ZM23.625 10.3906C23.625 13.709 20.935 16.4062 17.6094 16.4062C14.2924 16.4062 11.5938 13.7076 11.5938 10.3906C11.5938 7.07361 14.2924 4.375 17.6094 4.375C20.9264 4.375 23.625 7.07361 23.625 10.3906ZM17.0625 1.11027V3.30209C13.5774 3.56841 10.7872 6.35868 10.5208 9.84375H8.32902C8.60256 5.15205 12.3708 1.38381 17.0625 1.11027ZM8.32841 10.9375H10.5208C10.801 14.6031 13.8732 17.5 17.6094 17.5C19.3253 17.5 20.9479 16.8962 22.235 15.7896L23.785 17.3396C22.0812 18.8573 19.909 19.6875 17.6094 19.6875C12.6317 19.6875 8.60502 15.7904 8.32841 10.9375ZM9.84916 17.2997C10.1161 17.5995 10.4006 17.884 10.7004 18.1509L6.22152 23.6044L4.39567 21.7785L9.84916 17.2997ZM1.70937 23.9847L3.54638 22.4761L5.52404 24.4537L4.01226 26.2945C3.69868 26.6832 3.23291 26.9062 2.73438 26.9062C1.82973 26.9062 1.09375 26.1703 1.09375 25.2656C1.09375 24.7671 1.31677 24.3014 1.70937 23.9847Z" fill="#26F0F1"/>
<path d="M24.5547 3.99219C24.8567 3.99219 25.1016 3.74734 25.1016 3.44531C25.1016 3.14328 24.8567 2.89844 24.5547 2.89844C24.2527 2.89844 24.0078 3.14328 24.0078 3.44531C24.0078 3.74734 24.2527 3.99219 24.5547 3.99219Z" fill="#26F0F1"/>
</svg>
