<svg width="27" height="24" viewBox="0 0 27 24" fill="none" xmlns="http://www.w3.org/2000/svg">
<path fill-rule="evenodd" clip-rule="evenodd" d="M9.25714 2.05714C7.17424 2.05714 5.48571 3.74567 5.48571 5.82857C5.48571 7.91147 7.17424 9.6 9.25714 9.6C11.3401 9.6 13.0286 7.91147 13.0286 5.82857C13.0286 3.74567 11.3401 2.05714 9.25714 2.05714ZM3.42857 5.82857C3.42857 2.60954 6.03811 0 9.25714 0C12.4762 0 15.0857 2.60954 15.0857 5.82857C15.0857 9.0476 12.4762 11.6571 9.25714 11.6571C6.03811 11.6571 3.42857 9.0476 3.42857 5.82857ZM6.14171 16.2816L5.89747 16.3207C3.68507 16.6737 2.05714 18.582 2.05714 20.8224C2.05714 21.4412 2.55877 21.9429 3.17756 21.9429H15.3367C15.9555 21.9429 16.4571 21.4412 16.4571 20.8224C16.4571 18.582 14.8293 16.6737 12.6169 16.3207L12.3726 16.2816C10.3087 15.9523 8.2056 15.9523 6.14171 16.2816ZM5.8175 14.2502C8.09617 13.8865 10.4181 13.8865 12.6968 14.2502L12.9411 14.2892C16.1517 14.8016 18.5143 17.571 18.5143 20.8224C18.5143 22.5774 17.0917 24 15.3367 24H3.17756C1.42264 24 0 22.5774 0 20.8224C0 17.571 2.36252 14.8016 5.57325 14.2892L5.8175 14.2502Z" fill="#00D37F"/>
<path fill-rule="evenodd" clip-rule="evenodd" d="M16.457 1.02857C16.457 0.460512 16.9176 0 17.4856 0C20.7046 0 23.3142 2.60954 23.3142 5.82857C23.3142 9.0476 20.7046 11.6571 17.4856 11.6571C16.9176 11.6571 16.457 11.1966 16.457 10.6286C16.457 10.0605 16.9176 9.6 17.4856 9.6C19.5685 9.6 21.257 7.91147 21.257 5.82857C21.257 3.74567 19.5685 2.05714 17.4856 2.05714C16.9176 2.05714 16.457 1.59663 16.457 1.02857ZM18.1592 15.2659C18.1592 14.6979 18.6198 14.2373 19.1878 14.2373H20.5155C20.7344 14.2373 20.9533 14.2546 21.1695 14.2892C24.3802 14.8016 26.7427 17.571 26.7427 20.8224C26.7427 22.5774 25.3202 24 23.5651 24H20.7632C20.1951 24 19.7346 23.5395 19.7346 22.9714C19.7346 22.4034 20.1951 21.9429 20.7632 21.9429H23.5651C24.1839 21.9429 24.6856 21.4412 24.6856 20.8224C24.6856 18.582 23.0577 16.6737 20.8453 16.3207C20.7364 16.3033 20.6259 16.2945 20.5155 16.2945H19.1878C18.6198 16.2945 18.1592 15.834 18.1592 15.2659Z" fill="#00D37F"/>
</svg>
