<svg width="22" height="22" viewBox="0 0 22 22" fill="none" xmlns="http://www.w3.org/2000/svg">
<rect width="22" height="22" fill="#1E1E1E"/>
<path fill-rule="evenodd" clip-rule="evenodd" d="M14.2473 2.06807C12.1114 1.56705 9.88862 1.56705 7.75271 2.06807C4.93208 2.72969 2.72969 4.93207 2.06807 7.75271C1.56705 9.88862 1.56705 12.1114 2.06807 14.2473C2.72969 17.068 4.93208 19.2703 7.75271 19.9319C9.88862 20.433 12.1114 20.433 14.2473 19.9319C17.068 19.2703 19.2703 17.068 19.9319 14.2473C20.433 12.1114 20.433 9.88862 19.9319 7.75271C19.2703 4.93208 17.068 2.72969 14.2473 2.06807ZM7.36624 0.42048C9.75628 -0.14016 12.2437 -0.14016 14.6337 0.42048C18.0802 1.22889 20.7712 3.91985 21.5795 7.36624C22.1402 9.75628 22.1402 12.2437 21.5795 14.6337C20.7712 18.0802 18.0802 20.7712 14.6337 21.5795C12.2437 22.1402 9.75628 22.1402 7.36624 21.5795C3.91985 20.7712 1.22889 18.0802 0.42048 14.6339C-0.14016 12.2437 -0.14016 9.75628 0.42048 7.36623C1.22889 3.91985 3.91985 1.22889 7.36624 0.42048Z" fill="#00D37F"/>
<path fill-rule="evenodd" clip-rule="evenodd" d="M15.6596 7.30737C16.0923 7.73804 16.1156 8.46118 15.7118 8.92259L10.7118 14.6369C10.5136 14.8634 10.2376 14.9945 9.94699 14.9998C9.65656 15.0052 9.37642 14.8845 9.17099 14.6652L6.31381 11.6176C5.8954 11.1713 5.8954 10.4478 6.31381 10.0014C6.73222 9.55512 7.41062 9.55512 7.82904 10.0014L9.90199 12.2125L14.1453 7.36306C14.549 6.90164 15.227 6.87671 15.6596 7.30737V7.30737Z" fill="#00D37F"/>
</svg>
