<svg width="9" height="16" viewBox="0 0 9 16" fill="none" xmlns="http://www.w3.org/2000/svg">
<path d="M7.54152 5.79168L2.76027 1.01043C2.5651 0.816417 2.30109 0.70752 2.0259 0.70752C1.7507 0.70752 1.48669 0.816417 1.29152 1.01043C1.19389 1.10726 1.11639 1.22247 1.06351 1.34941C1.01063 1.47635 0.983398 1.6125 0.983398 1.75001C0.983398 1.88752 1.01063 2.02368 1.06351 2.15061C1.11639 2.27755 1.19389 2.39276 1.29152 2.4896L6.08319 7.26043C6.18082 7.35727 6.25832 7.47247 6.3112 7.59941C6.36409 7.72635 6.39131 7.8625 6.39131 8.00001C6.39131 8.13752 6.36409 8.27368 6.3112 8.40061C6.25832 8.52755 6.18082 8.64276 6.08319 8.7396L1.29152 13.5104C1.09537 13.7052 0.984628 13.9699 0.983651 14.2463C0.982674 14.5227 1.09155 14.7882 1.28631 14.9844C1.48108 15.1805 1.74579 15.2913 2.02221 15.2923C2.29864 15.2932 2.56412 15.1844 2.76027 14.9896L7.54152 10.2083C8.12673 9.62241 8.45544 8.82814 8.45544 8.00001C8.45544 7.17188 8.12673 6.37762 7.54152 5.79168Z" fill="white"/>
</svg>
