<svg width="27" height="27" viewBox="0 0 27 27" fill="none" xmlns="http://www.w3.org/2000/svg">
<circle cx="13.1606" cy="13.1606" r="13.1606" fill="#00D37F" fill-opacity="0.1"/>
<path fill-rule="evenodd" clip-rule="evenodd" d="M15.8335 6.49603C14.2373 6.14235 12.5832 6.14235 10.987 6.49603L10.6146 6.57855C8.60719 7.02337 7.0245 8.5666 6.52885 10.5627C6.1314 12.1632 6.1314 13.8368 6.52885 15.4373C7.0245 17.4334 8.60719 18.9766 10.6146 19.4214L10.987 19.504C12.5832 19.8577 14.2373 19.8577 15.8335 19.504L16.2059 19.4214C18.2133 18.9766 19.796 17.4334 20.2917 15.4373C20.6891 13.8368 20.6891 12.1632 20.2917 10.5627C19.796 8.5666 18.2133 7.02337 16.2059 6.57855L15.8335 6.49603ZM10.7208 5.29441C12.4923 4.90186 14.3282 4.90186 16.0997 5.29441L16.4722 5.37693C18.9358 5.92283 20.878 7.81672 21.4862 10.2661C21.9319 12.0614 21.9319 13.9386 21.4862 15.7339C20.878 18.1833 18.9358 20.0772 16.4722 20.6231L16.0997 20.7056C14.3282 21.0981 12.4923 21.0981 10.7208 20.7056L10.3483 20.6231C7.88472 20.0772 5.94255 18.1833 5.33436 15.7339C4.88855 13.9386 4.88855 12.0614 5.33436 10.2661C5.94255 7.81672 7.88472 5.92283 10.3483 5.37693L10.7208 5.29441Z" fill="#00D37F"/>
<path d="M16.0511 10.8125C16.0171 10.7784 15.9735 10.7614 15.9205 10.7614H14.9489C14.8845 10.4471 14.7633 10.1743 14.5853 9.94322H15.9091C15.9622 9.94322 16.0056 9.92618 16.0398 9.89217C16.0737 9.8581 16.0908 9.8145 16.0908 9.76148V9.18181C16.0908 9.12876 16.0737 9.08524 16.0398 9.05113C16.0056 9.01709 15.9621 9 15.909 9H11.1818C11.1287 9 11.0852 9.01709 11.0511 9.05111C11.0171 9.08522 11 9.12874 11 9.18179V9.93747C11 9.9867 11.018 10.0293 11.054 10.0653C11.09 10.1013 11.1326 10.1193 11.1818 10.1193H12.0057C12.8049 10.1193 13.3125 10.3332 13.5283 10.7613H11.1818C11.1287 10.7613 11.0852 10.7783 11.0511 10.8124C11.0171 10.8465 11 10.89 11 10.9431V11.5227C11 11.5757 11.017 11.6193 11.0511 11.6533C11.0852 11.6874 11.1288 11.7044 11.1818 11.7044H13.608C13.5247 12.0151 13.3305 12.2518 13.0255 12.4147C12.7206 12.5776 12.3182 12.659 11.8182 12.659H11.1818C11.1326 12.659 11.09 12.677 11.054 12.713C11.018 12.749 11 12.7916 11 12.8408V13.5625C11 13.6118 11.017 13.6534 11.0511 13.6875C11.7783 14.4602 12.7216 15.5416 13.8806 16.9318C13.9148 16.9773 13.9621 17 14.0227 17H15.1306C15.2103 17 15.2652 16.966 15.2954 16.8977C15.3333 16.8295 15.3259 16.7651 15.2727 16.7045C14.1668 15.3484 13.2974 14.3333 12.6648 13.659C13.3087 13.5833 13.8315 13.3749 14.233 13.0341C14.6345 12.6932 14.8788 12.2499 14.966 11.7045H15.9205C15.9735 11.7045 16.0171 11.6875 16.0511 11.6534C16.0852 11.6194 16.1023 11.5758 16.1023 11.5228V10.9432C16.1023 10.8901 16.0852 10.8466 16.0511 10.8125Z" fill="#00D37F"/>
</svg>
