<svg width="24" height="24" viewBox="0 0 24 24" fill="none" xmlns="http://www.w3.org/2000/svg">
<path fill-rule="evenodd" clip-rule="evenodd" d="M13.9813 2.21035C11.9112 1.72475 9.75669 1.72475 7.68651 2.21035C4.96932 2.84772 2.84772 4.96931 2.21035 7.68651C1.72475 9.75669 1.72475 11.9112 2.21035 13.9813C2.84772 16.6985 4.96932 18.8201 7.68651 19.4574C9.75669 19.943 11.9112 19.943 13.9813 19.4574C16.6985 18.8201 18.8201 16.6985 19.4574 13.9813C19.943 11.9112 19.943 9.75669 19.4574 7.68651C18.8201 4.96932 16.6985 2.84772 13.9813 2.21035ZM7.2649 0.412985C9.61232 -0.137662 12.0554 -0.137662 14.4028 0.412985C17.8027 1.21048 20.4573 3.86508 21.2548 7.26491C21.8054 9.61232 21.8054 12.0554 21.2548 14.4028C20.9291 15.7912 20.2938 17.0552 19.4246 18.1192L23.7296 22.4243C24.0901 22.7848 24.0901 23.3691 23.7296 23.7296C23.3691 24.0901 22.7848 24.0901 22.4243 23.7296L18.1192 19.4246C17.0552 20.2938 15.7912 20.9291 14.4028 21.2548C12.0554 21.8054 9.61232 21.8054 7.26491 21.2548C3.86509 20.4573 1.21048 17.8027 0.412985 14.4028C-0.137662 12.0554 -0.137662 9.61232 0.412985 7.2649C1.21048 3.86508 3.86508 1.21048 7.2649 0.412985Z" fill="#333333"/>
</svg>
