<svg width="24" height="24" viewBox="0 0 24 24" fill="none" xmlns="http://www.w3.org/2000/svg">
<circle cx="12" cy="12" r="12" fill="#00D37F"/>
<g clip-path="url(#clip0_5467_16685)">
<path d="M16.8154 8.46839L10.3666 14.9168C10.3232 14.9603 10.2717 14.9949 10.215 15.0184C10.1582 15.042 10.0974 15.0541 10.0359 15.0541C9.9745 15.0541 9.91367 15.042 9.85693 15.0184C9.80019 14.9949 9.74867 14.9603 9.70531 14.9168L7.21144 12.4206C7.16809 12.3771 7.11656 12.3425 7.05982 12.319C7.00308 12.2954 6.94225 12.2833 6.88081 12.2833C6.81937 12.2833 6.75854 12.2954 6.7018 12.319C6.64506 12.3425 6.59353 12.3771 6.55018 12.4206C6.50665 12.4639 6.47211 12.5155 6.44854 12.5722C6.42497 12.629 6.41284 12.6898 6.41284 12.7512C6.41284 12.8127 6.42497 12.8735 6.44854 12.9302C6.47211 12.987 6.50665 13.0385 6.55018 13.0819L9.04498 15.5762C9.30815 15.8389 9.6648 15.9864 10.0366 15.9864C10.4085 15.9864 10.7651 15.8389 11.0283 15.5762L17.4767 9.12919C17.5202 9.08584 17.5546 9.03434 17.5782 8.97765C17.6017 8.92095 17.6138 8.86017 17.6138 8.79879C17.6138 8.73741 17.6017 8.67663 17.5782 8.61993C17.5546 8.56324 17.5202 8.51174 17.4767 8.46839C17.4334 8.42486 17.3818 8.39032 17.3251 8.36675C17.2683 8.34319 17.2075 8.33105 17.1461 8.33105C17.0846 8.33105 17.0238 8.34319 16.9671 8.36675C16.9103 8.39032 16.8588 8.42486 16.8154 8.46839Z" fill="white"/>
</g>
<defs>
<clipPath id="clip0_5467_16685">
<rect width="11.2" height="11.2" fill="white" transform="translate(6.3999 6.40039)"/>
</clipPath>
</defs>
</svg>
