<svg width="50" height="50" viewBox="0 0 50 50" fill="none" xmlns="http://www.w3.org/2000/svg">
<path d="M42.1877 0H7.81236C3.49771 0 0 3.49771 0 7.81236V42.1876C0 46.5023 3.49771 50 7.81236 50H42.1877C46.5024 50 50.0001 46.5023 50.0001 42.1876V7.81236C50.0001 3.49771 46.5024 0 42.1877 0Z" fill="#0BAC42"/>
<path d="M36.5193 14.5953C33.9183 11.9683 30.4641 10.3572 26.7798 10.0527C23.0956 9.7482 19.4238 10.7703 16.4267 12.9346C13.4297 15.0989 11.3047 18.2629 10.4351 21.856C9.56543 25.4491 10.0084 29.2347 11.6841 32.5299L10.0392 40.5157C10.0221 40.5952 10.0216 40.6773 10.0378 40.757C10.0539 40.8367 10.0863 40.9122 10.1329 40.9788C10.2013 41.0798 10.2988 41.1576 10.4125 41.2018C10.5262 41.246 10.6507 41.2544 10.7693 41.2259L18.596 39.3708C21.882 41.0041 25.6408 41.4186 29.2037 40.5405C32.7666 39.6625 35.9025 37.5489 38.0533 34.5758C40.2041 31.6028 41.2303 27.963 40.9494 24.3043C40.6686 20.6456 39.0987 17.2052 36.5193 14.5953ZM34.079 34.0725C32.2793 35.8671 29.9619 37.0518 27.4533 37.4595C24.9447 37.8672 22.3714 37.4775 20.096 36.3453L19.0051 35.8055L14.2068 36.9418L14.221 36.8822L15.2153 32.0526L14.6812 30.9987C13.5186 28.7153 13.1085 26.1226 13.5096 23.592C13.9107 21.0613 15.1025 18.7225 16.9142 16.9106C19.1906 14.6349 22.2777 13.3564 25.4966 13.3564C28.7155 13.3564 31.8025 14.6349 34.079 16.9106C34.0984 16.9328 34.1192 16.9537 34.1415 16.9731C36.3897 19.2547 37.6448 22.3326 37.633 25.5357C37.6213 28.7388 36.3438 31.8074 34.079 34.0725Z" fill="white"/>
<path d="M33.653 30.5292C33.0649 31.4554 32.1359 32.5889 30.9683 32.8701C28.9229 33.3645 25.7837 32.8872 21.8774 29.2451L21.8291 29.2025C18.3945 26.0179 17.5024 23.3673 17.7183 21.265C17.8376 20.0718 18.832 18.9923 19.67 18.2878C19.8025 18.1747 19.9596 18.0942 20.1288 18.0527C20.298 18.0112 20.4745 18.0098 20.6443 18.0487C20.8141 18.0877 20.9724 18.1658 21.1066 18.2768C21.2408 18.3879 21.3472 18.5288 21.4172 18.6883L22.6814 21.5292C22.7635 21.7134 22.794 21.9165 22.7695 22.1167C22.7449 22.3169 22.6664 22.5067 22.5422 22.6656L21.903 23.4951C21.7658 23.6664 21.6831 23.8748 21.6654 24.0936C21.6476 24.3123 21.6958 24.5313 21.8036 24.7224C22.1615 25.3503 23.0195 26.2736 23.9712 27.1287C25.0394 28.0946 26.224 28.9781 26.974 29.2792C27.1747 29.3612 27.3953 29.3812 27.6075 29.3367C27.8197 29.2921 28.0136 29.185 28.1644 29.0292L28.9058 28.2821C29.0489 28.141 29.2268 28.0404 29.4215 27.9905C29.6161 27.9406 29.8205 27.9432 30.0138 27.998L33.0166 28.8503C33.1823 28.9011 33.3341 28.9891 33.4605 29.1076C33.5869 29.2261 33.6846 29.3719 33.746 29.5339C33.8074 29.6959 33.8309 29.8698 33.8148 30.0423C33.7987 30.2149 33.7433 30.3814 33.653 30.5292Z" fill="white"/>
</svg>
