<svg width="50" height="50" viewBox="0 0 50 50" fill="none" xmlns="http://www.w3.org/2000/svg">
<path d="M42.1877 0H7.81236C3.49771 0 0 3.49771 0 7.81236V42.1876C0 46.5023 3.49771 50 7.81236 50H42.1877C46.5024 50 50.0001 46.5023 50.0001 42.1876V7.81236C50.0001 3.49771 46.5024 0 42.1877 0Z" fill="#104F55"/>
<path fill-rule="evenodd" clip-rule="evenodd" d="M16.0983 27.8223L13.2791 25.003L16.0983 22.1842L18.9172 25.003L16.0983 27.8223ZM32.9226 12.0337L36.7737 13.066L35.742 16.9169L31.8909 15.8852L32.9226 12.0337ZM35.7419 33.0894L36.7736 36.9405L32.9225 37.9722L31.8908 34.1211L35.7419 33.0894ZM30.9203 18.3786L35.3355 19.5615C35.5398 19.6156 35.745 19.6426 35.9472 19.6426C36.993 19.6426 37.9525 18.9432 38.2354 17.887L39.4183 13.4734C39.7556 12.2114 39.0048 10.9104 37.7438 10.572L33.3291 9.38915C32.0671 9.05223 30.7671 9.80309 30.4287 11.0636L29.2458 15.4788C29.2068 15.6246 29.1833 15.7712 29.1727 15.9194L19.2957 21.6211L17.7724 20.0968C16.8493 19.1743 15.3471 19.1743 14.4225 20.0968L11.1917 23.3286C10.2681 24.2523 10.2681 25.7545 11.1917 26.6776L14.4225 29.9083C14.8695 30.3554 15.4642 30.6012 16.0985 30.6012C16.7327 30.6012 17.3259 30.3555 17.7724 29.9083L19.2957 28.385L29.1727 34.0873C29.1833 34.234 29.2068 34.3811 29.2458 34.5278L30.4287 38.9416C30.5928 39.5523 30.9843 40.0628 31.5335 40.3787C31.8989 40.5904 32.3044 40.698 32.7149 40.698C32.9206 40.698 33.1269 40.6716 33.3301 40.617L37.7438 39.4341C39.0048 39.0962 39.7556 37.7946 39.4183 36.5331L38.2354 32.119C38.0713 31.5097 37.6798 30.9992 37.1312 30.6832C36.583 30.3659 35.9448 30.2808 35.3346 30.4444L30.9204 31.6278C30.7737 31.6669 30.634 31.7205 30.5024 31.784L21.2195 26.4247C21.8512 25.5852 21.8512 24.4213 21.2195 23.5818L30.5024 18.222C30.6356 18.2871 30.7747 18.3391 30.9203 18.3786Z" fill="white"/>
</svg>
