<svg width="50" height="50" viewBox="0 0 50 50" fill="none" xmlns="http://www.w3.org/2000/svg">
<path d="M42.1877 0H7.81234C3.4977 0 0 3.4977 0 7.81234V42.1876C0 46.5022 3.4977 49.9999 7.81234 49.9999H42.1877C46.5023 49.9999 50 46.5022 50 42.1876V7.81234C50 3.4977 46.5023 0 42.1877 0Z" fill="#104F55"/>
<path d="M36.5193 14.5952C33.9182 11.9683 30.4641 10.3572 26.7798 10.0527C23.0955 9.7482 19.4238 10.7703 16.4267 12.9346C13.4297 15.0989 11.3047 18.2629 10.4351 21.856C9.56543 25.4491 10.0084 29.2346 11.6841 32.5299L10.0392 40.5156C10.0221 40.5951 10.0216 40.6773 10.0378 40.757C10.0539 40.8366 10.0863 40.9121 10.1329 40.9787C10.2013 41.0798 10.2988 41.1576 10.4125 41.2017C10.5262 41.2459 10.6507 41.2543 10.7693 41.2259L18.596 39.3708C21.882 41.004 25.6408 41.4185 29.2037 40.5405C32.7666 39.6624 35.9024 37.5489 38.0532 34.5758C40.204 31.6027 41.2303 27.963 40.9494 24.3043C40.6685 20.6456 39.0987 17.2052 36.5193 14.5952ZM34.0789 34.0725C32.2793 35.8671 29.9619 37.0517 27.4533 37.4594C24.9447 37.8672 22.3714 37.4775 20.096 36.3452L19.0051 35.8054L14.2068 36.9418L14.221 36.8821L15.2153 32.0526L14.6812 30.9986C13.5186 28.7153 13.1085 26.1226 13.5096 23.5919C13.9107 21.0613 15.1025 18.7225 16.9142 16.9106C19.1906 14.6349 22.2777 13.3564 25.4966 13.3564C28.7154 13.3564 31.8025 14.6349 34.0789 16.9106C34.0983 16.9328 34.1192 16.9537 34.1414 16.9731C36.3896 19.2547 37.6447 22.3325 37.633 25.5357C37.6213 28.7388 36.3437 31.8074 34.0789 34.0725Z" fill="white"/>
<path d="M33.6525 30.5292C33.0644 31.4553 32.1354 32.5889 30.9678 32.8701C28.9224 33.3644 25.7832 32.8872 21.8769 29.2451L21.8286 29.2025C18.394 26.0179 17.5019 23.3673 17.7178 21.265C17.8372 20.0718 18.8315 18.9923 19.6695 18.2878C19.802 18.1747 19.9592 18.0942 20.1283 18.0527C20.2975 18.0112 20.474 18.0098 20.6438 18.0487C20.8136 18.0877 20.9719 18.1658 21.1061 18.2768C21.2403 18.3879 21.3467 18.5288 21.4167 18.6883L22.6809 21.5292C22.763 21.7134 22.7935 21.9165 22.769 22.1167C22.7444 22.3169 22.6659 22.5067 22.5417 22.6656L21.9025 23.4951C21.7653 23.6664 21.6826 23.8748 21.6649 24.0935C21.6471 24.3123 21.6953 24.5313 21.8031 24.7224C22.161 25.3502 23.019 26.2735 23.9707 27.1286C25.0388 28.0946 26.2235 28.9781 26.9735 29.2792C27.1742 29.3612 27.3948 29.3812 27.607 29.3366C27.8191 29.2921 28.0131 29.185 28.1638 29.0292L28.9053 28.2821C29.0484 28.141 29.2263 28.0404 29.4209 27.9904C29.6156 27.9405 29.82 27.9431 30.0133 27.998L33.0161 28.8502C33.1817 28.901 33.3336 28.9891 33.46 29.1076C33.5864 29.226 33.684 29.3719 33.7454 29.5339C33.8068 29.6959 33.8304 29.8698 33.8143 30.0423C33.7982 30.2148 33.7428 30.3814 33.6525 30.5292Z" fill="white"/>
</svg>
