<svg width="24" height="24" viewBox="0 0 24 24" fill="none" xmlns="http://www.w3.org/2000/svg">
<path fill-rule="evenodd" clip-rule="evenodd" d="M23.6018 12.9214C24.0853 13.3429 24.1355 14.0765 23.714 14.5599L15.8314 23.6018C15.5132 23.9668 15.0019 24.0959 14.5485 23.9261C14.0952 23.7562 13.7948 23.3228 13.7948 22.8386L13.7948 1.16129C13.7948 0.519931 14.3147 -4.23357e-07 14.9561 -3.95323e-07C15.5974 -3.6729e-07 16.1173 0.519931 16.1173 1.16129L16.1173 19.7394L21.9634 13.0337C22.3848 12.5502 23.1184 12.4999 23.6018 12.9214Z" fill="white"/>
<path fill-rule="evenodd" clip-rule="evenodd" d="M0.398094 11.0786C-0.0854659 10.6571 -0.135634 9.92348 0.285836 9.44007L8.16849 0.398223C8.48668 0.0332538 8.99796 -0.0960054 9.45133 0.073883C9.90469 0.243787 10.2051 0.677148 10.2051 1.16134L10.2051 22.8387C10.2051 23.48 9.68513 24 9.04379 24C8.40245 24 7.8825 23.48 7.8825 22.8387L7.88251 4.2606L2.03644 10.9663C1.61497 11.4497 0.881499 11.5 0.398094 11.0786Z" fill="white"/>
</svg>
