<svg width="22" height="22" viewBox="0 0 22 22" fill="none" xmlns="http://www.w3.org/2000/svg">
<g clip-path="url(#clip0_4003_12685)">
<path d="M20.8688 4.18565C20.5339 4.04612 20.165 4.00945 19.8091 4.0803C19.4532 4.15114 19.1265 4.32631 18.8705 4.58349L16.5 6.95399L12.2962 2.75015C11.9524 2.40646 11.4861 2.21338 11 2.21338C10.5139 2.21338 10.0476 2.40646 9.70383 2.75015L5.5 6.95399L3.1295 4.58349C2.87311 4.32717 2.54647 4.15262 2.19089 4.08192C1.83531 4.01121 1.46675 4.04752 1.1318 4.18624C0.79685 4.32497 0.510552 4.5599 0.309097 4.86131C0.107642 5.16273 7.74113e-05 5.51711 0 5.87965L0 15.5835C0.00145554 16.7986 0.484808 17.9636 1.34403 18.8228C2.20326 19.682 3.3682 20.1654 4.58333 20.1668H17.4167C18.6318 20.1654 19.7967 19.682 20.656 18.8228C21.5152 17.9636 21.9985 16.7986 22 15.5835V5.87965C22.0001 5.51708 21.8927 5.16263 21.6913 4.8611C21.49 4.55957 21.2038 4.32452 20.8688 4.18565ZM20.1667 15.5835C20.1667 16.3128 19.8769 17.0123 19.3612 17.528C18.8455 18.0438 18.146 18.3335 17.4167 18.3335H4.58333C3.85399 18.3335 3.15451 18.0438 2.63879 17.528C2.12306 17.0123 1.83333 16.3128 1.83333 15.5835V5.87965L4.85192 8.89824C5.02382 9.07009 5.25693 9.16663 5.5 9.16663C5.74307 9.16663 5.97618 9.07009 6.14808 8.89824L11 4.04632L15.8519 8.89824C16.0238 9.07009 16.2569 9.16663 16.5 9.16663C16.7431 9.16663 16.9762 9.07009 17.1481 8.89824L20.1667 5.87965V15.5835Z" fill="#00D37F"/>
</g>
<defs>
<clipPath id="clip0_4003_12685">
<rect width="22" height="22" fill="white"/>
</clipPath>
</defs>
</svg>
