<svg width="27" height="27" viewBox="0 0 27 27" fill="none" xmlns="http://www.w3.org/2000/svg">
<circle cx="13.1606" cy="13.1606" r="13.1606" fill="#00D37F" fill-opacity="0.1"/>
<path fill-rule="evenodd" clip-rule="evenodd" d="M15.3617 6.50405C13.8083 6.13968 12.1917 6.13968 10.6383 6.50405C8.58697 6.98523 6.98523 8.58696 6.50405 10.6383C6.13968 12.1917 6.13968 13.8083 6.50405 15.3617C6.98523 17.4131 8.58697 19.0148 10.6383 19.4959C12.1917 19.8603 13.8083 19.8603 15.3617 19.4959C17.4131 19.0148 19.0148 17.4131 19.4959 15.3617C19.8603 13.8083 19.8603 12.1917 19.4959 10.6383C19.0148 8.58697 17.4131 6.98523 15.3617 6.50405ZM10.3573 5.3058C12.0955 4.89807 13.9045 4.89807 15.6427 5.3058C18.1492 5.89373 20.1063 7.8508 20.6942 10.3573C21.1019 12.0955 21.1019 13.9045 20.6942 15.6427C20.1063 18.1492 18.1492 20.1063 15.6427 20.6942C13.9045 21.1019 12.0955 21.1019 10.3573 20.6942C7.85081 20.1063 5.89373 18.1492 5.3058 15.6428C4.89807 13.9045 4.89807 12.0955 5.3058 10.3573C5.89373 7.8508 7.8508 5.89373 10.3573 5.3058Z" fill="#00D37F"/>
<path fill-rule="evenodd" clip-rule="evenodd" d="M12.7218 9.92285C13.0617 9.92285 13.3372 10.1984 13.3372 10.5382V13.2313L15.3813 14.5318C15.6681 14.7143 15.7526 15.0946 15.5701 15.3814C15.3877 15.6682 15.0073 15.7527 14.7206 15.5703L12.3915 14.0884C12.2139 13.9754 12.1064 13.7795 12.1064 13.5691V10.5382C12.1064 10.1984 12.382 9.92285 12.7218 9.92285Z" fill="#00D37F"/>
</svg>
