<svg width="27" height="23" viewBox="0 0 27 23" fill="none" xmlns="http://www.w3.org/2000/svg">
<path d="M27 0.226806L26.3186 5.01674C24.9558 4.90469 23.8486 5.12879 22.9968 5.68901C22.1451 6.22123 21.5489 7.00554 21.2082 8.04196C20.8959 9.05037 20.8391 10.2268 21.0379 11.5714H27V23H15.4164V11.5714C15.4164 7.53776 16.3675 4.48453 18.2697 2.41169C20.1719 0.31084 23.082 -0.417454 27 0.226806ZM11.5836 0.226806L10.9022 5.01674C9.53943 4.90469 8.43218 5.12879 7.58044 5.68901C6.72871 6.22123 6.13249 7.00554 5.7918 8.04196C5.4795 9.05037 5.42271 10.2268 5.62145 11.5714H11.5836V23H0V11.5714C0 7.53776 0.951104 4.48453 2.85331 2.41169C4.75552 0.31084 7.66562 -0.417454 11.5836 0.226806Z" fill="#CEFD1E"/>
</svg>
