<svg width="15" height="15" viewBox="0 0 15 15" fill="none" xmlns="http://www.w3.org/2000/svg">
<rect x="15" y="15" width="15" height="15" rx="7.5" transform="rotate(-180 15 15)" fill="#00D37F"/>
<g clip-path="url(#clip0_5607_14724)">
<path d="M10.0762 8.76859C10.0762 8.76749 10.0762 8.76639 10.0762 8.76528L10.0784 5.34018C10.0783 5.31306 10.0753 5.28602 10.0694 5.25954L10.047 5.18338L10.0246 5.13857L10 5.11393C9.96918 5.06923 9.93047 5.03051 9.88576 4.99968L9.86336 4.97729L9.83648 4.95041L9.77823 4.93248C9.74548 4.92279 9.71158 4.91751 9.67743 4.91679L6.23441 4.92352C6.00522 4.92261 5.81867 5.10767 5.81775 5.33686C5.81774 5.33797 5.81775 5.33907 5.81775 5.34018C5.82308 5.56681 6.00553 5.74927 6.23217 5.7546L8.27737 5.75684C8.36484 5.7577 8.43507 5.82931 8.4342 5.91679C8.4338 5.95749 8.41775 5.99647 8.38937 6.02565L5.05388 9.36114C4.89179 9.52321 4.89177 9.78597 5.05384 9.94805C5.2159 10.1101 5.47865 10.1101 5.64075 9.9481C5.64076 9.94809 5.64078 9.94807 5.64079 9.94805L8.97628 6.61256C9.039 6.55158 9.13929 6.55298 9.20027 6.6157C9.22863 6.64488 9.24469 6.68386 9.24509 6.72456L9.24286 8.76529C9.24705 8.99364 9.43116 9.17775 9.65951 9.18194C9.88871 9.18286 10.0753 8.9978 10.0762 8.76859Z" fill="white"/>
</g>
<defs>
<clipPath id="clip0_5607_14724">
<rect width="6.92308" height="6.92308" fill="white" transform="translate(7.5 2.60352) rotate(45)"/>
</clipPath>
</defs>
</svg>
