<svg width="24" height="24" viewBox="0 0 24 24" fill="none" xmlns="http://www.w3.org/2000/svg">
<rect width="24" height="24" fill="#F5F5F5"/>
<rect width="24" height="24" rx="2" fill="#69CAD7"/>
<path fill-rule="evenodd" clip-rule="evenodd" d="M15.75 17C16.4403 17 17 16.4403 17 15.75C17 15.0597 16.4403 14.5 15.75 14.5C15.0597 14.5 14.5 15.0597 14.5 15.75C14.5 16.4403 15.0597 17 15.75 17ZM15.75 17.8333C16.9006 17.8333 17.8333 16.9006 17.8333 15.75C17.8333 14.5994 16.9006 13.6667 15.75 13.6667C14.5994 13.6667 13.6667 14.5994 13.6667 15.75C13.6667 16.9006 14.5994 17.8333 15.75 17.8333Z" fill="black"/>
<path fill-rule="evenodd" clip-rule="evenodd" d="M8.25 9.5C8.94036 9.5 9.5 8.94036 9.5 8.25C9.5 7.55964 8.94036 7 8.25 7C7.55964 7 7 7.55964 7 8.25C7 8.94036 7.55964 9.5 8.25 9.5ZM8.25 10.3333C9.40059 10.3333 10.3333 9.40059 10.3333 8.25C10.3333 7.09941 9.40059 6.16667 8.25 6.16667C7.09941 6.16667 6.16666 7.09941 6.16666 8.25C6.16666 9.40059 7.09941 10.3333 8.25 10.3333Z" fill="black"/>
<path fill-rule="evenodd" clip-rule="evenodd" d="M15.8276 5.92448L7.49428 17.5912L8.17239 18.0755L16.5057 6.40885L15.8276 5.92448Z" fill="black"/>
</svg>
