<svg width="15" height="8" viewBox="0 0 15 8" fill="none" xmlns="http://www.w3.org/2000/svg">
<path d="M0.290671 6.87706C0.383635 6.97078 0.494235 7.04518 0.616094 7.09595C0.737953 7.14671 0.868659 7.17285 1.00067 7.17285C1.13268 7.17285 1.26339 7.14671 1.38525 7.09595C1.50711 7.04518 1.61771 6.97078 1.71067 6.87705L6.29067 2.29706C6.38363 2.20334 6.49424 2.12894 6.61609 2.07817C6.73795 2.0274 6.86866 2.00127 7.00067 2.00127C7.13268 2.00127 7.26339 2.0274 7.38525 2.07817C7.50711 2.12894 7.61771 2.20334 7.71067 2.29706L12.2907 6.87705C12.3836 6.97078 12.4942 7.04518 12.6161 7.09595C12.738 7.14671 12.8687 7.17285 13.0007 7.17285C13.1327 7.17285 13.2634 7.14671 13.3852 7.09595C13.5071 7.04518 13.6177 6.97078 13.7107 6.87705C13.8969 6.68969 14.0015 6.43624 14.0015 6.17206C14.0015 5.90787 13.8969 5.65442 13.7107 5.46706L9.12067 0.877066C8.55817 0.315265 7.79567 -0.000292235 7.00067 -0.000292166C6.20567 -0.000292096 5.44317 0.315265 4.88067 0.877066L0.290671 5.46706C0.104421 5.65442 -0.000123135 5.90787 -0.000123111 6.17206C-0.000123088 6.43624 0.104421 6.68969 0.290671 6.87706Z" fill="#B4C5D9"/>
</svg>
