<svg width="26" height="26" viewBox="0 0 26 26" fill="none" xmlns="http://www.w3.org/2000/svg">
<circle cx="13" cy="13" r="9.75" fill="white"/>
<path fill-rule="evenodd" clip-rule="evenodd" d="M16.1786 15.2428C16.0445 15.619 15.401 15.9618 15.0915 16.0082C14.8144 16.0496 14.4634 16.0667 14.0775 15.9448C13.8435 15.87 13.5437 15.7709 13.1602 15.6052C11.5449 14.908 10.4895 13.2822 10.409 13.175C10.3286 13.0677 9.75173 12.3023 9.75173 11.5102C9.75173 10.718 10.1677 10.328 10.3156 10.1671C10.4627 10.0062 10.6374 9.96559 10.7446 9.96559C10.8519 9.96559 10.9591 9.9664 11.0534 9.97128C11.1525 9.97615 11.2849 9.9339 11.4157 10.2475C11.5498 10.5701 11.8715 11.3623 11.9122 11.4427C11.952 11.5232 11.9788 11.6174 11.9252 11.7247C11.8715 11.8319 11.8447 11.8993 11.7643 11.9936C11.6839 12.087 11.5953 12.2032 11.523 12.2755C11.4425 12.3552 11.358 12.4429 11.4523 12.6038C11.5465 12.7647 11.8691 13.292 12.3477 13.7185C12.9627 14.267 13.4819 14.4368 13.6428 14.518C13.8037 14.5985 13.8979 14.5847 13.9914 14.4774C14.0856 14.3702 14.3944 14.0078 14.5016 13.8461C14.6089 13.6852 14.7161 13.712 14.864 13.7657C15.011 13.8193 15.8032 14.2085 15.9641 14.2897C16.125 14.3702 16.2322 14.41 16.2729 14.4774C16.3127 14.5448 16.3127 14.8666 16.1786 15.2428ZM13.0285 7.5874C10.0743 7.5874 7.67092 9.98915 7.6701 12.941C7.6701 13.9525 7.95286 14.9381 8.48911 15.7904L8.61667 15.9927L8.07554 17.9687L10.1027 17.4373L10.2977 17.5527C11.12 18.041 12.0625 18.2994 13.0237 18.2994H13.0261C15.9779 18.2994 18.3805 15.8977 18.3821 12.945C18.3821 11.5142 17.8264 10.1695 16.8148 9.15715C15.8032 8.14559 14.4585 7.5874 13.0285 7.5874Z" fill="#00D37F"/>
<path fill-rule="evenodd" clip-rule="evenodd" d="M13.0268 19.3879H13.0244C11.9454 19.3879 10.8859 19.1173 9.945 18.6038L6.52844 19.5L7.44331 16.1614C6.87944 15.1848 6.58206 14.0766 6.58288 12.9407C6.5845 9.38925 9.47456 6.5 13.0268 6.5C14.7501 6.5 16.3686 7.17112 17.5849 8.38906C18.8013 9.60619 19.4716 11.2247 19.4708 12.9464C19.4691 16.4978 16.5783 19.3879 13.0268 19.3879ZM13 0C5.81994 0 0 5.81994 0 13C0 20.1793 5.81994 26 13 26C20.1793 26 26 20.1793 26 13C26 5.81994 20.1793 0 13 0Z" fill="#00D37F"/>
</svg>
